<svg width="24" height="24" viewBox="0 0 24 24" fill="none" xmlns="http://www.w3.org/2000/svg">
<path fill-rule="evenodd" clip-rule="evenodd" d="M12 24C15.1826 24 18.2348 22.7357 20.4853 20.4853C22.7357 18.2348 24 15.1826 24 12C24 8.8174 22.7357 5.76516 20.4853 3.51472C18.2348 1.26428 15.1826 0 12 0C8.8174 0 5.76516 1.26428 3.51472 3.51472C1.26428 5.76516 0 8.8174 0 12C0 15.1826 1.26428 18.2348 3.51472 20.4853C5.76516 22.7357 8.8174 24 12 24ZM8.019 4.941C7.83759 4.7039 7.56942 4.54857 7.27349 4.50919C6.97756 4.4698 6.6781 4.54959 6.441 4.731C6.2039 4.91241 6.04857 5.18058 6.00919 5.47651C5.9698 5.77244 6.04959 6.0719 6.231 6.309L10.584 12H7.125C6.82663 12 6.54048 12.1185 6.3295 12.3295C6.11853 12.5405 6 12.8266 6 13.125C6 13.4234 6.11853 13.7095 6.3295 13.9205C6.54048 14.1315 6.82663 14.25 7.125 14.25H10.875V15.75H7.125C6.82663 15.75 6.54048 15.8685 6.3295 16.0795C6.11853 16.2905 6 16.5766 6 16.875C6 17.1734 6.11853 17.4595 6.3295 17.6705C6.54048 17.8815 6.82663 18 7.125 18H10.875V19.875C10.875 20.1734 10.9935 20.4595 11.2045 20.6705C11.4155 20.8815 11.7016 21 12 21C12.2984 21 12.5845 20.8815 12.7955 20.6705C13.0065 20.4595 13.125 20.1734 13.125 19.875V18H16.875C17.1734 18 17.4595 17.8815 17.6705 17.6705C17.8815 17.4595 18 17.1734 18 16.875C18 16.5766 17.8815 16.2905 17.6705 16.0795C17.4595 15.8685 17.1734 15.75 16.875 15.75H13.125V14.25H16.875C17.1734 14.25 17.4595 14.1315 17.6705 13.9205C17.8815 13.7095 18 13.4234 18 13.125C18 12.8266 17.8815 12.5405 17.6705 12.3295C17.4595 12.1185 17.1734 12 16.875 12H13.416L17.769 6.309C17.8588 6.1916 17.9246 6.05765 17.9627 5.91481C18.0008 5.77198 18.0103 5.62304 17.9908 5.47651C17.9713 5.32998 17.9231 5.18872 17.8491 5.06081C17.775 4.93289 17.6764 4.82082 17.559 4.731C17.4416 4.64118 17.3077 4.57536 17.1648 4.5373C17.022 4.49924 16.873 4.48969 16.7265 4.50919C16.58 4.52869 16.4387 4.57686 16.3108 4.65095C16.1829 4.72504 16.0708 4.8236 15.981 4.941L12 10.1475L8.019 4.941Z" fill="#336080"/>
</svg>
