<svg width="24" height="24" viewBox="0 0 24 24" fill="none" xmlns="http://www.w3.org/2000/svg">
<path d="M12 0C10.0109 0 8.10322 0.790176 6.6967 2.1967C5.29018 3.60322 4.5 5.51088 4.5 7.5C4.5 15 12 24 12 24C12 24 19.5 15 19.5 7.5C19.5 5.51088 18.7098 3.60322 17.3033 2.1967C15.8968 0.790176 13.9891 0 12 0ZM12 12.0945C11.3966 12.0945 10.7992 11.9757 10.2418 11.7448C9.68433 11.5139 9.17784 11.1754 8.7512 10.7488C8.32456 10.3222 7.98613 9.81567 7.75524 9.25824C7.52434 8.70081 7.4055 8.10336 7.4055 7.5C7.4055 6.89664 7.52434 6.29919 7.75524 5.74176C7.98613 5.18433 8.32456 4.67784 8.7512 4.2512C9.17784 3.82456 9.68433 3.48613 10.2418 3.25524C10.7992 3.02434 11.3966 2.9055 12 2.9055C13.2185 2.9055 14.3872 3.38956 15.2488 4.2512C16.1104 5.11283 16.5945 6.28146 16.5945 7.5C16.5945 8.71854 16.1104 9.88717 15.2488 10.7488C14.3872 11.6104 13.2185 12.0945 12 12.0945ZM9.0945 7.5C9.0945 6.72902 9.40077 5.98961 9.94594 5.44444C10.4911 4.89927 11.2305 4.593 12.0015 4.593C12.7725 4.593 13.5119 4.89927 14.0571 5.44444C14.6022 5.98961 14.9085 6.72902 14.9085 7.5C14.9085 8.27098 14.6022 9.01039 14.0571 9.55556C13.5119 10.1007 12.7725 10.407 12.0015 10.407C11.2305 10.407 10.4911 10.1007 9.94594 9.55556C9.40077 9.01039 9.0945 8.27098 9.0945 7.5Z" fill="#336080"/>
</svg>
