<svg width="24" height="24" viewBox="0 0 24 24" fill="none" xmlns="http://www.w3.org/2000/svg">
<path d="M12 12C13.1715 12 14.3166 11.6481 15.2907 10.9888C16.2647 10.3295 17.0239 9.39246 17.4722 8.2961C17.9205 7.19975 18.0378 5.99335 17.8093 4.82946C17.5807 3.66557 17.0166 2.59648 16.1882 1.75736C15.3599 0.918247 14.3045 0.346802 13.1555 0.115291C12.0066 -0.11622 10.8156 0.0025997 9.73334 0.456725C8.65104 0.910851 7.72598 1.67989 7.07514 2.66658C6.42431 3.65328 6.07692 4.81331 6.07692 6C6.07692 7.5913 6.70096 9.11742 7.81175 10.2426C8.92254 11.3679 10.4291 12 12 12ZM12 13.7143C8.32875 13.7143 1 16.0114 1 20.5714V24H23V20.5714C23 16.0114 15.6713 13.7143 12 13.7143Z" fill="#336080"/>
</svg>
