<svg width="24" height="24" viewBox="0 0 24 24" fill="none" xmlns="http://www.w3.org/2000/svg">
<g clip-path="url(#clip0_3040_73)">
<path d="M8.60623 0.00999614C8.59123 0.0140196 8.51436 0.0281018 8.43748 0.0401722C7.82061 0.148806 7.29561 0.587364 7.13436 1.12852C7.09686 1.25928 7.09498 1.27538 7.12123 1.40413C7.13998 1.50874 7.14186 1.56909 7.12686 1.66767C7.07998 1.97948 6.94498 2.14042 6.39748 2.52869C5.92686 2.86264 5.77123 3.01553 5.66998 3.24688C5.57811 3.4561 5.56686 3.64922 5.62311 4.06767C5.70561 4.68326 5.88561 5.23648 6.18373 5.79373C6.38623 6.17395 6.73498 6.65677 7.09686 7.05912L7.34998 7.33875L7.31248 7.42525C7.25248 7.56607 7.26186 7.69684 7.34061 7.83766C7.41748 7.97445 7.48123 8.17764 7.48123 8.28829C7.48123 8.58602 7.04998 8.67655 6.87936 8.41301C6.77623 8.2561 6.73123 7.97848 6.73123 7.49164C6.73123 7.25023 6.72748 7.22207 6.68811 7.1597C6.66561 7.12148 6.61498 7.0732 6.57748 7.05308C6.51936 7.01888 6.50061 7.01687 6.43686 7.03699C6.28123 7.08728 6.13686 7.31662 6.11811 7.54193C6.10498 7.70086 6.15373 7.81955 6.26811 7.90203C6.41623 8.01268 6.47998 8.18367 6.42186 8.31645C6.36373 8.44721 6.10873 8.53975 5.91561 8.50153C5.82748 8.48342 5.69248 8.35065 5.63248 8.22391C5.56498 8.08108 5.53123 7.90002 5.53123 7.66867C5.53123 7.50572 5.52373 7.44134 5.49373 7.36691C5.41686 7.17378 5.24061 7.12349 5.06998 7.24621C4.79061 7.44738 4.79061 7.85174 5.06998 7.98451C5.26686 8.07705 5.30623 8.35668 5.13748 8.46733C5.00248 8.55383 4.52061 8.6001 4.32186 8.54176C4.01436 8.45526 3.86248 8.26414 3.86248 7.97043C3.86248 7.83766 3.86811 7.81553 3.91873 7.74914C4.12498 7.47152 4.10248 7.09533 3.87748 7.05107C3.77436 7.03095 3.50248 7.12751 3.40873 7.21804C3.31686 7.30857 3.28123 7.37898 3.20623 7.64453C3.10686 7.99256 3.05061 8.06901 2.80873 8.17563C2.64186 8.25006 2.54436 8.36272 2.51248 8.51561C2.48436 8.64436 2.50498 8.76104 2.63436 9.20966L2.70561 9.4571L2.65311 9.57781C2.56311 9.79507 2.56686 9.90773 2.66623 10.0284C2.73373 10.1109 2.81998 10.1612 3.07873 10.2698C3.27186 10.3483 3.39186 10.4268 3.44061 10.5092C3.50998 10.6219 3.76686 10.6561 3.87748 10.5676C3.90561 10.5455 3.95436 10.475 3.98436 10.4107L4.04061 10.292L4.04998 9.82927C4.05936 9.40681 4.06498 9.35652 4.10061 9.28409C4.16436 9.15534 4.25248 9.08091 4.48123 8.96624C4.89561 8.75501 5.15998 8.70069 5.32498 8.79122C5.43373 8.85157 5.46748 8.91393 5.44123 9.0105C5.41311 9.10907 5.36623 9.15333 5.16561 9.26599C4.87311 9.42894 4.81873 9.49331 4.81873 9.67035C4.82061 9.91176 5.00998 10.117 5.18623 10.0707C5.32123 10.0345 5.52373 9.68644 5.60623 9.34646C5.64936 9.16741 5.71311 9.06079 5.82936 8.97026C6.10686 8.75098 6.54373 8.8053 6.59248 9.06481C6.60373 9.12316 6.59623 9.1312 6.50248 9.18954C6.20811 9.3706 5.97748 9.78099 6.03748 10.0224C6.06561 10.127 6.19873 10.2799 6.26436 10.2799C6.40498 10.2799 6.53061 10.1833 6.61123 10.0123C6.63748 9.96004 6.69561 9.80111 6.74061 9.6623C6.83248 9.38669 6.86811 9.31427 6.95248 9.22777C7.07061 9.10505 7.20373 9.13724 7.69686 9.40077C8.49748 9.82726 9.20623 10.4449 10.0031 11.4125C10.38 11.8692 10.3987 11.8953 10.7062 12.3822C11.0081 12.863 11.1225 13.0139 11.3419 13.217C11.5706 13.4283 11.7019 13.4705 11.925 13.4102C12.2119 13.3297 12.4631 13.0742 12.5606 12.7604C12.6187 12.5773 12.6131 12.4264 12.5419 12.2373C12.2156 11.3542 11.5237 10.4931 10.6406 9.8675C9.85686 9.31226 9.11811 8.97026 8.42623 8.84151C8.06998 8.77311 7.85623 8.58401 7.79811 8.27823C7.77936 8.17563 7.77936 8.13338 7.80748 8.00664C7.82436 7.92416 7.84498 7.84369 7.85436 7.8276C7.86748 7.80547 7.91436 7.83363 8.07561 7.96037C8.61373 8.38485 9.14998 8.72684 9.78561 9.05073C10.335 9.33036 10.32 9.32433 10.5019 9.32433C10.695 9.32433 10.7437 9.29415 10.7437 9.17546C10.7437 9.02458 10.6162 8.80731 10.2206 8.28225C9.65998 7.5359 9.60186 7.44134 9.53436 7.15568C9.50998 7.05308 9.41811 6.73523 9.32811 6.44755C9.14248 5.84403 9.07498 5.52416 9.07498 5.24654C9.07498 4.85224 9.19873 4.59273 9.48186 4.38954L9.58123 4.31913L9.76311 4.34126C10.1869 4.39357 10.5 4.59876 10.7325 4.97496C10.9481 5.325 11.0569 5.62274 11.2219 6.31678C11.2875 6.58837 11.3644 6.87202 11.3944 6.95048C11.4694 7.13958 11.4956 7.26632 11.5875 7.83564C11.6869 8.46733 11.7412 8.70471 11.8312 8.90388C11.9156 9.08896 12.0262 9.21167 12.1462 9.24989C12.2287 9.27605 12.3375 9.28208 12.3375 9.25794C12.3375 9.24989 12.3244 9.11712 12.3094 8.96222C12.21 7.93824 12.285 6.86599 12.5137 6.03112C12.5381 5.94059 12.6637 5.61067 12.7931 5.30086C13.2131 4.28292 13.3162 3.90874 13.3181 3.36959C13.32 2.98736 13.26 2.7017 13.1062 2.37378C13.0669 2.2913 12.9994 2.14244 12.9562 2.04587C12.8156 1.73405 12.5981 1.55099 12.285 1.47655C12.2156 1.46046 11.9606 1.43833 11.7187 1.42626C11.2012 1.40212 10.9856 1.36993 10.8206 1.28745C10.6256 1.18887 10.5281 1.09834 10.3856 0.881077C10.2112 0.61754 10.1606 0.5592 9.99748 0.418378C9.69561 0.162888 9.32061 0.0240783 8.88748 0.00999614C8.74873 0.00597267 8.62123 0.00597267 8.60623 0.00999614Z" fill="#336080"/>
<path d="M16.5377 3.17249C16.382 3.19663 16.112 3.27307 15.9658 3.33342C15.4464 3.54466 14.7977 4.01943 14.4283 4.45798C13.5827 5.46385 13.127 6.70912 13.0108 8.33259C12.9695 8.92605 13.0183 10.3222 13.0858 10.459C13.097 10.4791 13.1308 10.5214 13.1645 10.5495C13.3014 10.6742 13.3277 10.6018 13.3502 10.0325C13.3595 9.78707 13.3727 9.53963 13.3802 9.48531C13.3952 9.36461 13.4383 9.21574 13.472 9.17349C13.487 9.1574 13.5527 9.00853 13.622 8.84357C14.0608 7.78137 14.417 7.28045 14.8595 7.1014C14.987 7.05111 15.2739 7.02295 15.3283 7.05715C15.3508 7.06922 15.3714 7.11951 15.3864 7.19596C15.4164 7.35287 15.497 7.56813 15.5739 7.69688C15.7464 7.98858 15.9658 8.09319 16.1758 7.98456C16.2714 7.93627 16.4195 7.78137 16.4945 7.65463C16.5545 7.55404 16.6877 7.45346 16.8564 7.38506C17.0327 7.31465 17.3139 7.31264 17.5127 7.38305C17.7039 7.44943 17.912 7.60233 18.0227 7.76125C18.3095 8.16561 18.1539 8.57802 17.6345 8.79327C17.5614 8.82546 17.4414 8.8838 17.3702 8.92806C17.2989 8.97031 16.9877 9.14533 16.6783 9.31431C16.0239 9.6724 15.7089 9.86352 15.422 10.0747C14.852 10.4932 14.4902 10.9277 14.3158 11.4045L14.2708 11.5272H14.402C14.6889 11.5272 14.9758 11.4266 15.4595 11.1571C15.6245 11.0645 15.8908 10.9157 16.0502 10.8271C16.5039 10.5737 16.7702 10.469 17.1114 10.4127C17.2033 10.3986 17.3964 10.3524 17.5408 10.3141C18.0433 10.1773 18.4633 10.1049 19.5752 9.96813C20.9833 9.79311 21.452 9.69654 21.797 9.50945C22.472 9.14734 22.8658 8.48347 22.8339 7.76528C22.8152 7.36896 22.6689 7.02496 22.382 6.70509L22.2152 6.52001L22.2545 6.35304C22.4739 5.38942 22.4064 4.52236 22.0708 4.00937C21.7277 3.48833 21.1989 3.26704 20.2783 3.25497C20.0383 3.25295 20.0027 3.25698 19.8695 3.30526C19.6408 3.38975 19.472 3.50241 18.947 3.9128C18.632 4.15824 18.4408 4.23468 18.2664 4.18238C18.1408 4.14617 17.972 3.96109 17.8727 3.75187C17.8089 3.61708 17.7789 3.57483 17.6777 3.49436C17.4152 3.27911 17.072 3.15639 16.7439 3.16041C16.6558 3.16243 16.5639 3.16645 16.5377 3.17249Z" fill="#336080"/>
<path d="M18.9751 10.463C18.287 10.5958 17.9438 10.6843 17.4188 10.8674C16.5957 11.155 15.7857 11.5614 14.8988 12.1307C14.567 12.342 14.5463 12.3601 14.5801 12.3882C14.6645 12.4566 14.8613 12.5391 15.0132 12.5673C15.2232 12.6055 15.467 12.5794 15.8157 12.4808C16.6463 12.2454 16.6351 12.2474 16.8563 12.2374C16.9895 12.2293 17.1132 12.2353 17.1788 12.2494C17.3326 12.2836 17.5051 12.3842 17.6232 12.5049L17.7245 12.6115L17.7113 12.7544C17.7057 12.8328 17.6626 13.0199 17.6157 13.1768C17.4901 13.5953 17.5032 13.724 17.6776 13.8427C17.8032 13.9292 17.9795 13.9815 18.2157 14.0037C18.6095 14.0399 18.8138 14.1284 19.022 14.3537C19.2395 14.5871 19.3313 14.8164 19.3313 15.1343C19.3313 15.5024 19.1813 15.77 18.8907 15.9148C18.7295 15.9973 18.5888 16.0194 18.3451 16.0053C17.9757 15.9832 17.8388 15.9309 17.222 15.5708C16.8057 15.3274 16.7213 15.2892 16.6013 15.2892C16.4495 15.2892 16.4082 15.3897 16.4363 15.6996C16.4645 16.0053 16.4532 16.2286 16.4082 16.3574C16.3257 16.5928 16.1401 16.7457 15.9038 16.7758C15.5045 16.8281 15.0076 16.6169 14.6363 16.2367C14.3776 15.9691 14.2707 15.7539 14.222 15.4038C14.1788 15.09 14.0776 14.8043 13.9257 14.5649C13.7138 14.235 13.4963 14.1284 13.322 14.2732C13.2432 14.3376 13.112 14.6132 13.0876 14.7701C13.0557 14.9653 13.0445 15.5084 13.067 15.7579C13.142 16.5767 13.4701 17.6932 13.8488 18.4154C14.4432 19.546 15.1576 20.3406 15.9657 20.7631C16.3557 20.9663 16.6407 21.0427 17.0138 21.0427C17.7563 21.0427 18.4182 20.7349 18.9845 20.1274C19.3013 19.7874 19.5245 19.4293 19.6595 19.0431C19.7007 18.9264 19.8001 18.8359 20.0176 18.7151C20.2876 18.5643 20.5688 18.4979 21.272 18.4174C21.5195 18.3892 21.797 18.353 21.8907 18.3349C22.2301 18.2706 22.5582 18.1317 22.7476 17.9688C23.2051 17.5765 23.3307 17.4437 23.5332 17.14C23.7245 16.8523 23.8857 16.4419 23.9645 16.0436C23.9963 15.8846 23.9963 15.3334 23.9663 15.1785C23.8763 14.7299 23.7038 14.3758 23.4263 14.062C23.2276 13.8387 23.1376 13.6275 22.8076 12.6236C22.4626 11.5715 22.1626 11.1249 21.6132 10.8533C21.4013 10.7487 20.7488 10.5696 20.3251 10.4992C20.0363 10.4509 19.157 10.4288 18.9751 10.463Z" fill="#336080"/>
<path d="M4.5376 10.978C4.20385 11.0041 3.67885 11.0967 3.3001 11.1932C3.19135 11.2194 3.02822 11.2576 2.93447 11.2757C2.51822 11.3582 2.14697 11.5453 1.83947 11.8289C1.41572 12.2212 1.1026 12.7946 0.832598 13.6777L0.727598 14.0177L0.641348 14.0519C0.163223 14.243 -0.0880271 14.6856 0.0357229 15.1222C0.168848 15.5929 0.616973 15.8926 1.18885 15.8926C1.5676 15.8926 1.74197 15.9832 1.86197 16.2447C1.91822 16.3694 1.95572 16.5384 2.01572 16.9388C2.0401 17.1097 2.07947 17.3129 2.1001 17.3914C2.28197 18.0271 2.78447 18.2001 3.64697 17.9205C4.05385 17.7877 4.4926 17.5181 4.94635 17.1178C5.14322 16.9428 5.84635 16.1884 6.16885 15.8021C6.29822 15.6472 6.5026 15.4058 6.62447 15.265C7.2151 14.581 7.72697 14.2812 8.17135 14.3637C8.32885 14.3919 8.5576 14.5046 8.67197 14.6112L8.74697 14.6796L8.62322 14.8284C8.36072 15.1423 7.99322 15.4521 7.4101 15.8464C6.22885 16.647 6.0451 16.7899 5.6176 17.2365C5.38135 17.4839 5.27072 17.6429 5.15447 17.8943C4.9051 18.4395 4.87322 19.031 5.06447 19.5399C5.20885 19.9242 5.4751 20.2279 5.84635 20.4291C5.97947 20.5035 5.98697 20.5035 6.18572 20.5015C6.7501 20.4915 7.07635 20.7148 7.26947 21.2439C7.3051 21.3384 7.37822 21.616 7.43447 21.8615C7.60697 22.6139 7.66322 22.7647 7.95572 23.2355C8.28572 23.7686 9.07885 24.0864 9.81947 23.9778C10.0632 23.9436 10.2582 23.8812 10.3407 23.8088C10.6745 23.5252 10.9838 23.3683 11.8876 23.0323C12.6957 22.7325 12.9713 22.5877 13.3182 22.2799C13.4626 22.1512 13.4945 22.0888 13.5657 21.7931C13.637 21.4973 13.6557 21.2901 13.6445 20.8918C13.6276 20.232 13.5057 19.7451 13.0313 18.4274C12.5701 17.146 12.4895 16.8221 12.4313 16.0234C12.3657 15.1403 12.3113 14.9069 12.1688 14.9069C12.0526 14.9069 11.867 15.1885 11.8313 15.4159C11.7938 15.6512 11.8182 16.1119 11.897 16.637C12.0413 17.6107 11.9963 18.0573 11.7132 18.4576C11.597 18.6226 11.4863 18.7091 11.312 18.7714C11.0626 18.86 10.8751 18.8157 10.7251 18.6326C10.6801 18.5783 10.5732 18.3812 10.4682 18.1579C10.2601 17.7092 10.157 17.5382 10.0332 17.4175C9.89447 17.2828 9.75947 17.2224 9.53447 17.1902C9.15197 17.1359 8.7676 16.8844 8.64385 16.6068C8.58572 16.472 8.58385 16.2387 8.64197 16.0636C8.76197 15.7076 9.05635 15.3253 9.71822 14.6695L10.0145 14.3758L10.0032 14.2953C9.98447 14.1726 9.88885 13.9614 9.8101 13.8749C9.65447 13.6999 9.4276 13.6294 9.0751 13.6455C8.77322 13.6596 8.62697 13.6878 7.93135 13.8709C7.2901 14.0378 7.10072 14.0781 6.8551 14.1022C6.74635 14.1123 6.63385 14.1384 6.54385 14.1726C6.08072 14.3577 5.48635 14.1666 5.1901 13.7421C4.79447 13.1667 5.15072 12.5612 6.0001 12.3661C6.14447 12.3339 6.24572 12.3258 6.54385 12.3258C6.8551 12.3258 6.98635 12.3379 7.43447 12.4003C8.0401 12.4868 8.53322 12.5129 8.80135 12.4747C8.96635 12.4506 9.3076 12.346 9.32635 12.3138C9.33197 12.3057 9.2551 12.2434 9.15385 12.177C8.1301 11.499 7.00885 11.1087 5.7376 10.984C5.5426 10.9659 4.74385 10.9619 4.5376 10.978Z" fill="#336080"/>
</g>
<defs>
<clipPath id="clip0_3040_73">
<rect width="24" height="24" fill="white"/>
</clipPath>
</defs>
</svg>
