<svg width="24" height="24" viewBox="0 0 24 24" fill="none" xmlns="http://www.w3.org/2000/svg">
<path d="M24 5.1428C24 4.23348 23.6388 3.36141 22.9958 2.71842C22.3528 2.07544 21.4807 1.71421 20.5714 1.71421H19.7143V0.881175C19.7143 0.419923 19.3596 0.024029 18.8984 0.000993206C18.7825 -0.00459067 18.6667 0.0134133 18.5579 0.0539143C18.4492 0.0944154 18.3498 0.15657 18.2658 0.236613C18.1818 0.316655 18.115 0.412918 18.0693 0.519569C18.0236 0.62622 18 0.741039 18 0.857067V1.71421H6V0.881175C6 0.419923 5.64536 0.024029 5.18411 0.000993206C5.06821 -0.00459067 4.95239 0.0134133 4.84366 0.0539143C4.73493 0.0944154 4.63556 0.15657 4.55156 0.236613C4.46756 0.316655 4.40069 0.412918 4.35499 0.519569C4.30929 0.62622 4.28572 0.741039 4.28571 0.857067V1.71421H3.42857C2.51926 1.71421 1.64719 2.07544 1.00421 2.71842C0.361224 3.36141 0 4.23348 0 5.1428V5.78566C0 5.84249 0.0225765 5.89699 0.0627629 5.93718C0.102949 5.97737 0.157454 5.99994 0.214286 5.99994H23.7857C23.8425 5.99994 23.8971 5.97737 23.9372 5.93718C23.9774 5.89699 24 5.84249 24 5.78566V5.1428ZM0 20.5714C0 21.4807 0.361224 22.3528 1.00421 22.9958C1.64719 23.6388 2.51926 24 3.42857 24H20.5714C21.4807 24 22.3528 23.6388 22.9958 22.9958C23.6388 22.3528 24 21.4807 24 20.5714V7.87495C24 7.83232 23.9831 7.79144 23.9529 7.7613C23.9228 7.73116 23.8819 7.71423 23.8393 7.71423H0.160714C0.11809 7.71423 0.077212 7.73116 0.0470722 7.7613C0.0169324 7.79144 0 7.83232 0 7.87495V20.5714ZM18.4286 9.42852C18.6829 9.42852 18.9314 9.50393 19.1429 9.64521C19.3543 9.78648 19.5191 9.98728 19.6164 10.2222C19.7137 10.4572 19.7392 10.7157 19.6896 10.9651C19.64 11.2145 19.5175 11.4436 19.3377 11.6234C19.1579 11.8032 18.9288 11.9256 18.6794 11.9753C18.43 12.0249 18.1715 11.9994 17.9366 11.9021C17.7016 11.8048 17.5008 11.64 17.3595 11.4285C17.2183 11.2171 17.1429 10.9685 17.1429 10.7142C17.1429 10.3732 17.2783 10.0462 17.5194 9.8051C17.7606 9.56398 18.0876 9.42852 18.4286 9.42852ZM18.4286 13.7143C18.6829 13.7143 18.9314 13.7897 19.1429 13.9309C19.3543 14.0722 19.5191 14.273 19.6164 14.5079C19.7137 14.7429 19.7392 15.0014 19.6896 15.2508C19.64 15.5002 19.5175 15.7293 19.3377 15.9091C19.1579 16.0889 18.9288 16.2114 18.6794 16.261C18.43 16.3106 18.1715 16.2851 17.9366 16.1878C17.7016 16.0905 17.5008 15.9257 17.3595 15.7143C17.2183 15.5028 17.1429 15.2543 17.1429 15C17.1429 14.659 17.2783 14.332 17.5194 14.0908C17.7606 13.8497 18.0876 13.7143 18.4286 13.7143ZM14.1429 9.42852C14.3971 9.42852 14.6457 9.50393 14.8572 9.64521C15.0686 9.78648 15.2334 9.98728 15.3307 10.2222C15.428 10.4572 15.4535 10.7157 15.4039 10.9651C15.3543 11.2145 15.2318 11.4436 15.052 11.6234C14.8722 11.8032 14.6431 11.9256 14.3937 11.9753C14.1443 12.0249 13.8858 11.9994 13.6508 11.9021C13.4159 11.8048 13.2151 11.64 13.0738 11.4285C12.9325 11.2171 12.8571 10.9685 12.8571 10.7142C12.8571 10.3732 12.9926 10.0462 13.2337 9.8051C13.4748 9.56398 13.8019 9.42852 14.1429 9.42852ZM14.1429 13.7143C14.3971 13.7143 14.6457 13.7897 14.8572 13.9309C15.0686 14.0722 15.2334 14.273 15.3307 14.5079C15.428 14.7429 15.4535 15.0014 15.4039 15.2508C15.3543 15.5002 15.2318 15.7293 15.052 15.9091C14.8722 16.0889 14.6431 16.2114 14.3937 16.261C14.1443 16.3106 13.8858 16.2851 13.6508 16.1878C13.4159 16.0905 13.2151 15.9257 13.0738 15.7143C12.9325 15.5028 12.8571 15.2543 12.8571 15C12.8571 14.659 12.9926 14.332 13.2337 14.0908C13.4748 13.8497 13.8019 13.7143 14.1429 13.7143ZM14.1429 18C14.3971 18 14.6457 18.0754 14.8572 18.2167C15.0686 18.3579 15.2334 18.5587 15.3307 18.7937C15.428 19.0286 15.4535 19.2871 15.4039 19.5365C15.3543 19.7859 15.2318 20.015 15.052 20.1948C14.8722 20.3746 14.6431 20.4971 14.3937 20.5467C14.1443 20.5963 13.8858 20.5709 13.6508 20.4735C13.4159 20.3762 13.2151 20.2114 13.0738 20C12.9325 19.7886 12.8571 19.54 12.8571 19.2857C12.8571 18.9447 12.9926 18.6177 13.2337 18.3766C13.4748 18.1354 13.8019 18 14.1429 18ZM9.85714 13.7143C10.1114 13.7143 10.36 13.7897 10.5714 13.9309C10.7829 14.0722 10.9477 14.273 11.045 14.5079C11.1423 14.7429 11.1678 15.0014 11.1182 15.2508C11.0685 15.5002 10.9461 15.7293 10.7663 15.9091C10.5865 16.0889 10.3574 16.2114 10.108 16.261C9.85857 16.3106 9.60005 16.2851 9.36512 16.1878C9.13019 16.0905 8.92939 15.9257 8.78811 15.7143C8.64683 15.5028 8.57143 15.2543 8.57143 15C8.57143 14.659 8.70689 14.332 8.94801 14.0908C9.18912 13.8497 9.51615 13.7143 9.85714 13.7143ZM9.85714 18C10.1114 18 10.36 18.0754 10.5714 18.2167C10.7829 18.3579 10.9477 18.5587 11.045 18.7937C11.1423 19.0286 11.1678 19.2871 11.1182 19.5365C11.0685 19.7859 10.9461 20.015 10.7663 20.1948C10.5865 20.3746 10.3574 20.4971 10.108 20.5467C9.85857 20.5963 9.60005 20.5709 9.36512 20.4735C9.13019 20.3762 8.92939 20.2114 8.78811 20C8.64683 19.7886 8.57143 19.54 8.57143 19.2857C8.57143 18.9447 8.70689 18.6177 8.94801 18.3766C9.18912 18.1354 9.51615 18 9.85714 18ZM5.57143 13.7143C5.82572 13.7143 6.0743 13.7897 6.28573 13.9309C6.49717 14.0722 6.66196 14.273 6.75927 14.5079C6.85659 14.7429 6.88205 15.0014 6.83244 15.2508C6.78283 15.5002 6.66038 15.7293 6.48057 15.9091C6.30076 16.0889 6.07166 16.2114 5.82226 16.261C5.57286 16.3106 5.31434 16.2851 5.07941 16.1878C4.84447 16.0905 4.64367 15.9257 4.5024 15.7143C4.36112 15.5028 4.28571 15.2543 4.28571 15C4.28571 14.659 4.42117 14.332 4.66229 14.0908C4.90341 13.8497 5.23044 13.7143 5.57143 13.7143ZM5.57143 18C5.82572 18 6.0743 18.0754 6.28573 18.2167C6.49717 18.3579 6.66196 18.5587 6.75927 18.7937C6.85659 19.0286 6.88205 19.2871 6.83244 19.5365C6.78283 19.7859 6.66038 20.015 6.48057 20.1948C6.30076 20.3746 6.07166 20.4971 5.82226 20.5467C5.57286 20.5963 5.31434 20.5709 5.07941 20.4735C4.84447 20.3762 4.64367 20.2114 4.5024 20C4.36112 19.7886 4.28571 19.54 4.28571 19.2857C4.28571 18.9447 4.42117 18.6177 4.66229 18.3766C4.90341 18.1354 5.23044 18 5.57143 18Z" fill="#336080"/>
</svg>
