<svg width="133" height="45" viewBox="0 0 133 45" fill="none" xmlns="http://www.w3.org/2000/svg">
<path d="M16.08 39.312C17.856 41.664 15.216 41.76 13.488 41.808C10.8 41.808 8.20798 42.672 5.61598 42.624C-2.19047e-05 42.48 1.82398 38.208 1.82398 34.128C1.82398 28.944 1.67998 23.712 1.63198 18.528C1.63198 13.872 2.25598 8.49603 0.719978 4.03203C0.719978 3.98403 0.767978 3.93603 0.767978 3.88803C1.63198 2.16003 4.89598 2.35203 5.95198 3.74403C7.00798 5.18403 6.38398 7.96803 6.47998 9.60003C6.81598 13.968 6.95998 18.432 7.05598 22.8C7.19998 26.976 7.05598 31.104 7.39198 35.328C7.58398 37.728 7.15198 37.92 9.55198 38.112C11.184 38.208 14.928 37.776 16.08 39.312ZM5.18398 27.6V27.552C5.23198 27.216 5.71198 26.88 5.42398 26.592C5.37598 26.544 5.08798 26.592 5.03998 26.64C4.89598 26.784 4.94398 26.928 4.84798 27.072L4.70398 27.264C4.70398 27.12 4.70398 26.976 4.75198 26.832C4.75198 26.592 4.75198 26.352 4.94398 26.112C5.13598 25.92 5.13598 25.776 5.03998 25.584C4.94398 25.488 4.89598 25.392 4.84798 25.296L4.79998 25.248C4.84798 25.248 4.94398 25.296 4.94398 25.392C4.89598 25.392 5.13598 25.392 5.18398 25.344C5.23198 25.248 5.08798 25.152 4.94398 25.056C4.75198 25.008 4.70398 24.864 4.70398 24.768C4.79998 24.768 4.89598 24.72 4.94398 24.672C5.03998 24.624 4.99198 24.576 4.94398 24.576C4.84798 24.48 4.75198 24.384 4.75198 24.288H4.70398C4.75198 24.192 4.79998 24.048 4.79998 23.952C4.89598 23.904 4.89598 23.904 4.94398 23.904C5.08798 23.76 4.99198 23.664 5.03998 23.568C5.08798 23.424 4.99198 23.28 4.99198 23.184C4.94398 23.088 4.94398 23.04 4.99198 22.944C5.03998 22.896 5.03998 22.848 5.03998 22.848C4.99198 22.752 4.79998 22.752 4.70398 22.752V22.704C4.65598 22.56 4.51198 22.512 4.36798 22.416H4.31998C4.36798 22.512 4.51198 22.608 4.60798 22.704C4.51198 22.704 4.41598 22.704 4.36798 22.752C4.27198 22.848 4.27198 22.896 4.36798 22.944C4.60798 22.992 4.36798 23.136 4.41598 23.232C4.46398 23.328 4.51198 23.472 4.51198 23.568C4.46398 23.712 4.36798 23.856 4.51198 23.952H4.55998L4.51198 24C4.36798 24.192 4.31998 24.336 4.31998 24.528C4.27198 24.672 4.17598 24.912 4.31998 25.008L4.46398 25.104H4.41598C4.46398 25.152 4.36798 25.248 4.36798 25.344C4.31998 25.44 4.31998 25.536 4.41598 25.632C4.46398 25.728 4.51198 25.824 4.51198 25.92C4.51198 26.016 4.36798 26.112 4.31998 26.208C4.22398 26.448 4.22398 26.64 4.22398 26.832C4.22398 27.024 4.17598 27.264 4.31998 27.504C4.31998 27.552 4.46398 27.552 4.60798 27.552C4.60798 27.648 4.65598 27.792 4.65598 27.888C4.65598 27.936 4.84798 28.032 4.75198 28.128L4.65598 28.272C4.55998 28.368 4.46398 28.512 4.41598 28.656C4.41598 28.8 4.46398 28.944 4.65598 29.04C4.65598 29.04 4.75198 29.088 4.84798 29.088C5.03998 29.136 4.65598 29.376 4.60798 29.472C4.46398 29.664 4.46398 29.856 4.75198 30C4.84798 30.048 5.18398 30.048 5.23198 30C5.27998 29.904 5.13598 29.76 5.13598 29.664C5.13598 29.568 5.13598 29.472 5.18398 29.376C5.18398 29.28 5.27998 29.136 5.03998 29.04C5.08798 29.04 5.13598 29.04 5.18398 28.992C5.27998 28.848 5.08798 28.704 5.13598 28.512C5.13598 28.32 5.37598 28.128 5.42398 27.936C5.47198 27.84 5.27998 27.696 5.18398 27.6ZM5.13598 32.496C5.18398 32.352 5.23198 32.208 5.23198 32.064C5.23198 31.92 5.03998 31.824 4.84798 31.728L4.89598 31.68C4.99198 31.392 5.18398 31.152 5.18398 30.912C5.18398 30.768 5.18398 30.624 5.13598 30.48C5.13598 30.336 5.13598 30.192 5.08798 30.096C5.03998 30.048 4.94398 30.048 4.89598 30.096L4.79998 30.336C4.79998 30.24 4.75198 30.144 4.65598 30.048C4.60798 30 4.31998 30 4.27198 30.048L4.17598 30.432L4.03198 30.864C3.98398 31.104 3.93598 31.344 4.07998 31.584C4.07998 31.68 4.17598 31.728 4.27198 31.776C4.27198 31.824 4.22398 31.872 4.22398 31.92C4.07998 32.208 4.03198 32.496 3.74398 32.784C3.69598 32.88 3.55198 33.024 3.69598 33.072C3.83998 33.168 4.12798 33.168 4.31998 33.12C4.31998 33.168 4.31998 33.168 4.27198 33.216C4.22398 33.264 4.17598 33.312 4.17598 33.408C4.12798 33.552 4.27198 33.744 4.36798 33.936H4.60798C4.70398 33.792 4.79998 33.6 4.75198 33.456C4.75198 33.36 4.79998 33.264 4.84798 33.216C4.84798 33.12 4.75198 33.072 4.70398 32.976C4.99198 32.832 5.03998 32.64 5.13598 32.496ZM3.98398 29.424C3.93598 29.52 3.93598 29.568 3.98398 29.616C4.07998 29.712 4.03198 29.808 4.07998 29.904H4.31998C4.36798 29.808 4.41598 29.76 4.41598 29.664C4.41598 29.568 4.31998 29.472 4.41598 29.376C4.55998 29.232 4.65598 29.136 4.27198 28.992C4.27198 28.992 4.12798 28.992 4.12798 29.04C4.27198 29.088 4.31998 29.184 4.17598 29.28C4.07998 29.328 3.98398 29.376 3.98398 29.424ZM4.03198 21.888C4.03198 21.984 4.03198 21.984 4.07998 22.032L4.22398 22.176C4.27198 22.176 4.46398 22.128 4.46398 22.08L4.31998 21.936L4.17598 21.84C4.12798 21.84 4.03198 21.888 4.03198 21.888ZM4.17598 28.176C4.17598 28.176 4.07998 28.176 4.07998 28.224L4.17598 28.608C4.17598 28.656 4.22398 28.656 4.22398 28.608C4.22398 28.464 4.22398 28.32 4.17598 28.176ZM35.5042 3.40803C38.7202 8.35203 29.7442 4.41603 28.5922 7.20003C27.7762 9.21603 27.7762 18.768 29.3122 19.584C30.3202 20.112 35.7442 18.288 35.5042 21.312C35.3122 23.664 31.4722 22.56 30.1282 22.992C26.2402 24.288 28.5442 33.024 28.3522 36.48C29.3122 36.336 35.9842 34.896 34.6882 38.304C34.4482 38.928 28.0642 40.656 27.0082 40.752C20.4802 41.424 23.3602 31.104 23.4562 27.456C23.6962 20.688 23.1202 13.824 23.2162 7.10403C23.2162 4.65603 23.0242 2.97603 26.0002 2.44803C29.1682 1.82403 32.5282 2.16003 35.5042 3.40803ZM26.0002 25.296C26.0002 24.96 26.0482 24.624 25.9042 24.288C25.9042 24.24 25.7122 24.24 25.6162 24.24C25.6642 24.24 25.6642 24.192 25.6162 24.192C25.6162 24.048 25.6162 23.904 25.5682 23.712C25.5682 23.616 25.3762 23.472 25.4722 23.376C25.5202 23.328 25.5682 23.232 25.5682 23.184C25.7122 22.992 25.8082 22.848 25.8082 22.608C25.8082 22.464 25.8082 22.224 25.6162 22.08C25.5682 22.032 25.4722 22.032 25.4242 22.032C25.2322 21.888 25.5682 21.6 25.6642 21.456C25.8082 21.216 25.8082 20.88 25.4722 20.688C25.3762 20.64 25.0882 20.64 25.0402 20.688C24.9442 20.832 25.0882 21.024 25.0882 21.168C25.1362 21.312 25.0882 21.408 25.0882 21.552C25.0402 21.696 24.9922 21.936 25.2322 22.032C25.1362 22.032 25.0882 22.08 25.0882 22.08C24.9442 22.32 25.1362 22.56 25.1362 22.8C25.0882 23.088 24.8482 23.328 24.8002 23.616C24.7522 23.76 24.9442 23.952 25.0402 24.096L25.0882 24.144H25.0402C24.9922 24.624 24.5122 25.056 24.8002 25.488C24.8482 25.584 25.0882 25.536 25.1362 25.488C25.3282 25.296 25.2802 25.104 25.3762 24.864L25.5202 24.576C25.5202 24.816 25.5202 25.008 25.4722 25.248C25.4242 25.536 25.4722 25.872 25.2322 26.208C25.0402 26.448 25.0402 26.688 25.1362 26.976C25.2322 27.12 25.2802 27.264 25.3282 27.408L25.3762 27.456C25.2802 27.408 25.2322 27.36 25.2322 27.264C25.2322 27.216 24.9922 27.216 24.9922 27.264C24.8962 27.408 25.0402 27.552 25.2322 27.696C25.3762 27.792 25.4242 27.984 25.4242 28.128C25.3282 28.176 25.2322 28.176 25.1842 28.224C25.0882 28.272 25.1362 28.368 25.1842 28.416C25.2802 28.512 25.3762 28.656 25.3282 28.8H25.3762C25.3282 28.992 25.2802 29.136 25.2802 29.28C25.1842 29.28 25.1362 29.328 25.1362 29.328C24.9922 29.472 25.0402 29.664 24.9922 29.808C24.9442 29.952 25.0402 30.144 25.0402 30.288C25.0402 30.384 25.0402 30.432 24.9922 30.528C24.9442 30.576 24.8962 30.624 24.8962 30.672C24.9442 30.768 25.1362 30.816 25.2322 30.864V30.912C25.2322 31.104 25.3762 31.248 25.4722 31.392H25.5202L25.3282 30.96C25.3762 31.008 25.5202 31.008 25.5682 30.96C25.6642 30.864 25.6642 30.816 25.5682 30.72C25.3762 30.624 25.6162 30.48 25.6162 30.336C25.5682 30.192 25.5202 30 25.5682 29.808C25.5682 29.664 25.7122 29.472 25.5682 29.328H25.5202C25.5202 29.28 25.5682 29.28 25.5682 29.232C25.7122 29.04 25.7602 28.752 25.8082 28.512C25.8562 28.32 26.0002 28.032 25.8082 27.84C25.8082 27.792 25.7602 27.744 25.7122 27.696C25.7122 27.6 25.8082 27.504 25.8082 27.36C25.8082 27.216 25.8082 27.072 25.7602 26.928C25.7122 26.832 25.7122 26.688 25.7122 26.544C25.6642 26.4 25.8082 26.256 25.8562 26.112C26.0002 25.824 25.9522 25.536 26.0002 25.296ZM26.4322 16.704C26.5282 16.56 26.6242 16.416 26.4802 16.272C26.3842 16.224 26.0482 16.224 25.8562 16.272C25.9042 16.224 25.9042 16.176 25.9042 16.176C25.9522 16.032 26.0002 15.936 26.0002 15.84C26.0482 15.6 25.9042 15.36 25.8082 15.12C25.7602 15.072 25.5682 15.072 25.5682 15.12C25.4722 15.312 25.3762 15.552 25.4242 15.792C25.4242 15.888 25.3762 16.032 25.3762 16.128C25.3762 16.224 25.4242 16.368 25.5202 16.416C25.2322 16.656 25.1842 16.992 25.0882 17.184C24.9922 17.376 24.9922 17.568 24.9922 17.76C24.9922 17.952 25.1842 18.096 25.3762 18.288L25.3282 18.336C25.2322 18.72 25.0402 19.056 25.0402 19.44C25.0402 19.632 25.0882 19.824 25.0882 20.016C25.1362 20.208 25.0882 20.4 25.1842 20.592H25.3282C25.3762 20.448 25.4242 20.352 25.4242 20.208C25.4722 20.352 25.5202 20.496 25.6162 20.64C25.6642 20.688 25.9042 20.688 25.9522 20.64C26.0482 20.448 26.0482 20.304 26.0482 20.112L26.1922 19.488C26.2402 19.152 26.2882 18.768 26.1442 18.432C26.1442 18.336 26.0482 18.24 25.9522 18.144C25.9522 18.096 26.0002 18 26.0002 17.952C26.1442 17.52 26.1922 17.136 26.4322 16.704ZM26.2882 21.552C26.3362 21.456 26.2882 21.36 26.2402 21.312L26.1442 20.88C26.1442 20.832 25.9042 20.832 25.9042 20.88C25.8562 20.976 25.8562 21.072 25.8562 21.216C25.8082 21.36 25.9042 21.456 25.8082 21.6C25.6642 21.84 25.5682 21.936 25.9522 22.128C26.0002 22.176 26.1442 22.128 26.0962 22.128C25.9522 21.984 25.9042 21.888 26.0482 21.792L26.2882 21.552ZM25.6162 32.16C25.6642 32.016 25.6162 31.872 25.5202 31.728C25.5202 31.68 25.2802 31.68 25.2802 31.728L25.4722 32.16C25.4722 32.208 25.6162 32.208 25.6162 32.16ZM26.0482 23.328C26.0482 23.328 26.1442 23.328 26.1442 23.28C26.0962 23.088 26.0962 22.896 26.0962 22.704C26.0962 22.656 26.0002 22.656 26.0002 22.704C26.0002 22.896 26.0002 23.088 26.0482 23.328ZM25.6162 15.024H25.5202L25.5682 15.072C25.5682 15.072 25.6162 15.072 25.6162 15.024ZM59.5684 5.90403C60.0484 8.68803 60.6244 21.504 54.6724 15.744C56.5924 13.632 57.1684 8.25603 54.2404 6.48003C49.5364 3.60003 50.3524 12.432 50.3524 14.544C50.4004 21.744 57.1684 27.648 57.4564 34.8C57.7924 42.864 45.0724 44.784 42.9124 37.008C42.5764 35.952 43.2484 34.608 42.9124 33.648C42.7684 33.216 41.9044 32.928 41.8564 32.544C41.4724 30.528 43.9204 29.376 46.0324 29.712C48.6244 30.144 47.5204 31.152 47.2324 33.216C46.9924 34.944 47.0404 36.912 48.7684 38.016C56.5924 36.768 44.8804 20.88 44.4004 17.232C43.9684 14.016 44.4964 7.58403 46.8484 5.13603C50.1604 1.77603 56.5444 2.97603 59.5684 5.90403ZM50.6404 21.984C50.6404 21.792 50.4004 21.744 50.2084 21.744C50.0164 21.696 49.8724 21.6 49.7764 21.456C49.8724 21.408 49.9684 21.312 49.9684 21.264C50.0164 21.168 49.9204 21.12 49.8724 21.12C49.7284 21.072 49.5844 21.024 49.5364 20.88H49.4884L49.3444 20.448C49.3924 20.4 49.3924 20.352 49.4404 20.352C49.4404 20.16 49.3444 20.064 49.2964 19.92C49.2484 19.728 49.1044 19.632 49.0564 19.536C49.0084 19.44 48.9124 19.44 48.9604 19.296C49.0084 19.248 49.0084 19.2 48.9604 19.152C48.9124 19.104 48.7204 19.152 48.6244 19.152C48.5764 19.152 48.5764 19.152 48.5764 19.104L48.3844 18.96C48.3364 18.96 48.2404 18.912 48.1924 18.864C48.1924 18.864 48.1444 18.864 48.1444 18.912L48.4804 19.152C48.4324 19.152 48.2884 19.2 48.2884 19.248C48.2404 19.392 48.2404 19.44 48.3844 19.44C48.5764 19.44 48.4324 19.68 48.5284 19.776C48.6244 19.92 48.7684 20.016 48.8164 20.16C48.8644 20.304 48.8644 20.544 49.1044 20.544V20.64C49.1044 20.88 49.2004 21.12 49.2484 21.36C49.3444 21.552 49.3924 21.84 49.6324 21.936H49.7764V21.984C49.8244 22.08 49.8244 22.176 49.8244 22.272C49.8724 22.416 49.9684 22.56 50.0644 22.656C50.1604 22.752 50.2564 22.8 50.3044 22.944C50.4004 23.088 50.3524 23.232 50.3524 23.424C50.3524 23.712 50.4484 23.904 50.5444 24.192C50.6404 24.48 50.7844 24.768 51.0244 25.008C51.0244 25.056 51.2164 24.96 51.3124 24.864V24.912C51.3124 24.96 51.3124 24.96 51.3604 24.96L51.5524 25.344C51.6004 25.44 51.7924 25.488 51.7444 25.632V25.824C51.6964 26.016 51.6964 26.208 51.7444 26.4C51.7924 26.544 51.8884 26.736 52.1284 26.784C52.1764 26.832 52.2724 26.784 52.3204 26.784C52.5604 26.832 52.3684 27.216 52.3204 27.36C52.2724 27.648 52.3684 27.936 52.7524 27.984C52.8004 28.032 52.8484 28.032 52.9444 27.984C52.8964 27.984 52.8964 28.032 52.8964 28.032V28.368C52.8484 28.272 52.7524 28.176 52.6564 28.08C52.6084 28.032 52.3204 28.176 52.3204 28.224C52.2724 28.416 52.3684 28.56 52.3684 28.704L52.4644 29.328C52.4644 29.472 52.5124 29.616 52.5604 29.808C52.6084 29.952 52.6564 30.096 52.7524 30.24L53.0404 30.432V31.248C53.0404 31.44 52.9924 31.632 52.8964 31.824C52.8484 31.968 52.7524 32.16 52.9444 32.208C53.0404 32.256 53.3284 32.208 53.5204 32.16V32.256C53.4724 32.352 53.4724 32.448 53.4724 32.544C53.4724 32.64 53.5204 32.736 53.5684 32.88C53.6164 32.976 53.6644 33.072 53.7604 33.168C53.7604 33.216 53.9524 33.216 54.0004 33.168C54.0484 32.928 54.0964 32.688 54.0484 32.496C54.0004 32.4 54.0484 32.256 54.0484 32.16C54.0484 32.064 53.9524 31.968 53.8564 31.92C54.0964 31.632 54.0964 31.344 54.0964 31.104C54.1444 30.912 54.1444 30.72 54.0964 30.528C54.0004 30.336 53.8084 30.288 53.5684 30.144V30.096C53.5684 30 53.5684 29.904 53.6164 29.808V29.52C53.6164 29.328 53.6164 29.136 53.5684 28.992C53.5204 28.8 53.4244 28.656 53.3284 28.464C53.2324 28.32 53.1844 28.128 53.0404 27.984H52.9444C53.0404 27.984 53.1364 27.888 53.1364 27.84C53.1844 27.648 52.9924 27.552 52.9444 27.456C52.8484 27.312 52.8484 27.168 52.8004 27.072C52.8004 26.928 52.7524 26.688 52.5124 26.688C52.5604 26.64 52.6084 26.64 52.6084 26.592C52.6564 26.352 52.3684 26.208 52.3204 25.968C52.2724 25.728 52.3684 25.392 52.3204 25.152C52.2724 24.96 52.0324 24.912 51.8884 24.816C51.8884 24.816 51.8884 24.768 51.8404 24.768C51.7924 24.528 51.8404 24.288 51.8404 24.048C51.8404 23.808 51.7924 23.568 51.5524 23.472C51.5044 23.424 51.2644 23.568 51.2164 23.616C51.1684 23.856 51.3124 24.048 51.2644 24.24V24.576L51.0244 24C50.9284 23.712 50.7844 23.424 50.8804 23.04C50.9284 22.896 50.8804 22.752 50.8804 22.656C50.8324 22.608 50.8324 22.608 50.8324 22.56C50.7844 22.512 50.7844 22.512 50.7844 22.464L50.6404 22.32C50.5444 22.272 50.4484 22.224 50.4004 22.128C50.4004 22.176 50.6404 22.032 50.6404 21.984ZM52.0324 28.08C52.0804 28.08 52.2724 28.032 52.2724 27.984C52.2724 27.888 52.2724 27.792 52.2244 27.696C52.1764 27.552 52.0324 27.456 52.0804 27.312C52.1764 27.024 52.1764 26.928 51.7924 26.88C51.7444 26.88 51.6004 26.928 51.6484 26.976C51.8404 27.024 51.9364 27.072 51.8404 27.264C51.7924 27.36 51.6964 27.456 51.6964 27.552C51.6964 27.648 51.7444 27.696 51.7924 27.744C51.9364 27.84 51.9364 27.936 52.0324 28.08ZM48.0004 18.624C48.0484 18.624 48.2404 18.576 48.1924 18.528C48.1924 18.48 48.1444 18.48 48.1444 18.432C48.0964 18.432 48.0964 18.384 48.0484 18.384L47.9044 18.192C47.8564 18.192 47.7604 18.24 47.7604 18.288C47.7604 18.336 47.8084 18.432 47.8564 18.48C47.8564 18.48 47.9044 18.528 47.9044 18.576C47.9524 18.576 47.9524 18.576 48.0004 18.624ZM51.4564 26.448C51.5044 26.448 51.5524 26.448 51.5524 26.4C51.4564 26.256 51.4084 26.064 51.2644 25.92C51.2644 25.872 51.1684 25.92 51.1684 25.968C51.3124 26.112 51.4084 26.304 51.4564 26.448ZM50.1604 21.984C50.2564 21.984 50.3524 22.032 50.4004 22.128C50.3524 22.128 50.3044 22.08 50.2564 22.032C50.2084 22.032 50.2084 21.984 50.1604 21.984ZM54.0484 33.264C54.0004 33.264 54.0004 33.216 53.9524 33.216C53.9524 33.264 54.0004 33.264 54.0484 33.264ZM82.9552 5.90403C83.4352 8.68803 84.0112 21.504 78.0592 15.744C79.9792 13.632 80.5552 8.25603 77.6272 6.48003C72.9232 3.60003 73.7392 12.432 73.7392 14.544C73.7872 21.744 80.5552 27.648 80.8432 34.8C81.1792 42.864 68.4592 44.784 66.2992 37.008C65.9632 35.952 66.6352 34.608 66.2992 33.648C66.1552 33.216 65.2912 32.928 65.2432 32.544C64.8592 30.528 67.3072 29.376 69.4192 29.712C72.0112 30.144 70.9072 31.152 70.6192 33.216C70.3792 34.944 70.4272 36.912 72.1552 38.016C79.9792 36.768 68.2672 20.88 67.7872 17.232C67.3552 14.016 67.8832 7.58403 70.2352 5.13603C73.5472 1.77603 79.9312 2.97603 82.9552 5.90403ZM74.0272 21.984C74.0272 21.792 73.7872 21.744 73.5952 21.744C73.4032 21.696 73.2592 21.6 73.1632 21.456C73.2592 21.408 73.3552 21.312 73.3552 21.264C73.4032 21.168 73.3072 21.12 73.2592 21.12C73.1152 21.072 72.9712 21.024 72.9232 20.88H72.8752L72.7312 20.448C72.7792 20.4 72.7792 20.352 72.8272 20.352C72.8272 20.16 72.7312 20.064 72.6832 19.92C72.6352 19.728 72.4912 19.632 72.4432 19.536C72.3952 19.44 72.2992 19.44 72.3472 19.296C72.3952 19.248 72.3952 19.2 72.3472 19.152C72.2992 19.104 72.1072 19.152 72.0112 19.152C71.9632 19.152 71.9632 19.152 71.9632 19.104L71.7712 18.96C71.7232 18.96 71.6272 18.912 71.5792 18.864C71.5792 18.864 71.5312 18.864 71.5312 18.912L71.8672 19.152C71.8192 19.152 71.6752 19.2 71.6752 19.248C71.6272 19.392 71.6272 19.44 71.7712 19.44C71.9632 19.44 71.8192 19.68 71.9152 19.776C72.0112 19.92 72.1552 20.016 72.2032 20.16C72.2512 20.304 72.2512 20.544 72.4912 20.544V20.64C72.4912 20.88 72.5872 21.12 72.6352 21.36C72.7312 21.552 72.7792 21.84 73.0192 21.936H73.1632V21.984C73.2112 22.08 73.2112 22.176 73.2112 22.272C73.2592 22.416 73.3552 22.56 73.4512 22.656C73.5472 22.752 73.6432 22.8 73.6912 22.944C73.7872 23.088 73.7392 23.232 73.7392 23.424C73.7392 23.712 73.8352 23.904 73.9312 24.192C74.0272 24.48 74.1712 24.768 74.4112 25.008C74.4112 25.056 74.6032 24.96 74.6992 24.864V24.912C74.6992 24.96 74.6992 24.96 74.7472 24.96L74.9392 25.344C74.9872 25.44 75.1792 25.488 75.1312 25.632V25.824C75.0832 26.016 75.0832 26.208 75.1312 26.4C75.1792 26.544 75.2752 26.736 75.5152 26.784C75.5632 26.832 75.6592 26.784 75.7072 26.784C75.9472 26.832 75.7552 27.216 75.7072 27.36C75.6592 27.648 75.7552 27.936 76.1392 27.984C76.1872 28.032 76.2352 28.032 76.3312 27.984C76.2832 27.984 76.2832 28.032 76.2832 28.032V28.368C76.2352 28.272 76.1392 28.176 76.0432 28.08C75.9952 28.032 75.7072 28.176 75.7072 28.224C75.6592 28.416 75.7552 28.56 75.7552 28.704L75.8512 29.328C75.8512 29.472 75.8992 29.616 75.9472 29.808C75.9952 29.952 76.0432 30.096 76.1392 30.24L76.4272 30.432V31.248C76.4272 31.44 76.3792 31.632 76.2832 31.824C76.2352 31.968 76.1392 32.16 76.3312 32.208C76.4272 32.256 76.7152 32.208 76.9072 32.16V32.256C76.8592 32.352 76.8592 32.448 76.8592 32.544C76.8592 32.64 76.9072 32.736 76.9552 32.88C77.0032 32.976 77.0512 33.072 77.1472 33.168C77.1472 33.216 77.3392 33.216 77.3872 33.168C77.4352 32.928 77.4832 32.688 77.4352 32.496C77.3872 32.4 77.4352 32.256 77.4352 32.16C77.4352 32.064 77.3392 31.968 77.2432 31.92C77.4832 31.632 77.4832 31.344 77.4832 31.104C77.5312 30.912 77.5312 30.72 77.4832 30.528C77.3872 30.336 77.1952 30.288 76.9552 30.144V30.096C76.9552 30 76.9552 29.904 77.0032 29.808V29.52C77.0032 29.328 77.0032 29.136 76.9552 28.992C76.9072 28.8 76.8112 28.656 76.7152 28.464C76.6192 28.32 76.5712 28.128 76.4272 27.984H76.3312C76.4272 27.984 76.5232 27.888 76.5232 27.84C76.5712 27.648 76.3792 27.552 76.3312 27.456C76.2352 27.312 76.2352 27.168 76.1872 27.072C76.1872 26.928 76.1392 26.688 75.8992 26.688C75.9472 26.64 75.9952 26.64 75.9952 26.592C76.0432 26.352 75.7552 26.208 75.7072 25.968C75.6592 25.728 75.7552 25.392 75.7072 25.152C75.6592 24.96 75.4192 24.912 75.2752 24.816C75.2752 24.816 75.2752 24.768 75.2272 24.768C75.1792 24.528 75.2272 24.288 75.2272 24.048C75.2272 23.808 75.1792 23.568 74.9392 23.472C74.8912 23.424 74.6512 23.568 74.6032 23.616C74.5552 23.856 74.6992 24.048 74.6512 24.24V24.576L74.4112 24C74.3152 23.712 74.1712 23.424 74.2672 23.04C74.3152 22.896 74.2672 22.752 74.2672 22.656C74.2192 22.608 74.2192 22.608 74.2192 22.56C74.1712 22.512 74.1712 22.512 74.1712 22.464L74.0272 22.32C73.9312 22.272 73.8352 22.224 73.7872 22.128C73.7872 22.176 74.0272 22.032 74.0272 21.984ZM75.4192 28.08C75.4672 28.08 75.6592 28.032 75.6592 27.984C75.6592 27.888 75.6592 27.792 75.6112 27.696C75.5632 27.552 75.4192 27.456 75.4672 27.312C75.5632 27.024 75.5632 26.928 75.1792 26.88C75.1312 26.88 74.9872 26.928 75.0352 26.976C75.2272 27.024 75.3232 27.072 75.2272 27.264C75.1792 27.36 75.0832 27.456 75.0832 27.552C75.0832 27.648 75.1312 27.696 75.1792 27.744C75.3232 27.84 75.3232 27.936 75.4192 28.08ZM71.3872 18.624C71.4352 18.624 71.6272 18.576 71.5792 18.528C71.5792 18.48 71.5312 18.48 71.5312 18.432C71.4832 18.432 71.4832 18.384 71.4352 18.384L71.2912 18.192C71.2432 18.192 71.1472 18.24 71.1472 18.288C71.1472 18.336 71.1952 18.432 71.2432 18.48C71.2432 18.48 71.2912 18.528 71.2912 18.576C71.3392 18.576 71.3392 18.576 71.3872 18.624ZM74.8432 26.448C74.8912 26.448 74.9392 26.448 74.9392 26.4C74.8432 26.256 74.7952 26.064 74.6512 25.92C74.6512 25.872 74.5552 25.92 74.5552 25.968C74.6992 26.112 74.7952 26.304 74.8432 26.448ZM73.5472 21.984C73.6432 21.984 73.7392 22.032 73.7872 22.128C73.7392 22.128 73.6912 22.08 73.6432 22.032C73.5952 22.032 73.5952 21.984 73.5472 21.984ZM77.4352 33.264C77.3872 33.264 77.3872 33.216 77.3392 33.216C77.3392 33.264 77.3872 33.264 77.4352 33.264ZM105.19 11.088C105.286 14.928 105.286 18.912 105.142 22.704C105.046 26.112 103.942 44.016 97.0301 40.032C96.4061 39.648 96.2141 38.976 95.6381 38.64C94.9661 38.256 94.1501 38.448 93.5261 38.064C91.6541 37.008 90.6941 34.752 90.1661 32.784C89.1581 29.04 90.1181 24.288 88.7741 20.736C89.9261 20.208 89.6381 16.704 89.7341 15.792C89.9261 13.296 90.1661 10.992 90.9821 8.64003C91.5101 7.00803 92.0861 4.94403 93.3821 3.69603C95.0621 1.96803 97.4141 2.40003 99.6701 2.49603C102.022 2.64003 102.406 2.97603 103.462 5.04003C104.422 6.91203 105.19 8.97603 105.19 11.088ZM99.8621 23.04C100.006 19.776 99.4781 16.608 99.4781 13.392C99.4781 10.56 99.3821 8.73603 98.4221 6.00003C93.5741 8.11203 94.4381 14.496 94.1501 19.008C94.0061 21.504 93.9581 23.856 94.1981 26.352C94.4381 28.608 96.3101 32.544 95.9741 34.368C98.1821 35.664 98.4701 33.552 98.9021 31.536C99.4781 28.848 99.7181 25.824 99.8621 23.04ZM103.414 23.184C103.462 22.848 103.51 22.512 103.414 22.176C103.366 22.128 103.174 22.08 103.078 22.128C103.126 22.08 103.126 22.08 103.078 22.032V21.6C103.078 21.504 102.886 21.36 103.03 21.264V21.216C103.03 21.168 103.078 21.12 103.126 21.072C103.222 20.88 103.366 20.688 103.366 20.496C103.366 20.352 103.366 20.112 103.174 19.92C103.126 19.92 103.078 19.92 102.982 19.872C102.79 19.776 103.126 19.44 103.222 19.344C103.366 19.056 103.366 18.768 103.078 18.528C102.982 18.48 102.646 18.48 102.646 18.576C102.55 18.72 102.694 18.864 102.694 19.008C102.694 19.152 102.694 19.296 102.646 19.44C102.646 19.536 102.55 19.776 102.79 19.872C102.694 19.92 102.646 19.92 102.646 19.968C102.502 20.16 102.694 20.4 102.646 20.64C102.646 20.928 102.358 21.168 102.31 21.456C102.262 21.6 102.454 21.792 102.502 21.936C102.55 21.936 102.55 21.984 102.55 21.984C102.454 22.464 101.926 22.848 102.214 23.328C102.214 23.376 102.502 23.376 102.55 23.328C102.742 23.136 102.694 22.944 102.79 22.752L102.982 22.464L102.886 23.088C102.838 23.424 102.838 23.76 102.55 24.048C102.358 24.288 102.31 24.528 102.406 24.768C102.406 24.912 102.454 25.008 102.454 25.104C102.406 25.056 102.262 25.008 102.214 25.056C102.118 25.2 102.262 25.344 102.406 25.488C102.55 25.632 102.598 25.824 102.55 25.968C102.454 25.968 102.358 25.968 102.31 26.016C102.214 26.064 102.262 26.16 102.31 26.208C102.358 26.352 102.454 26.496 102.406 26.592C102.406 26.64 102.406 26.64 102.454 26.64C102.358 26.784 102.31 26.928 102.262 27.072C102.166 27.072 102.118 27.072 102.118 27.12C101.974 27.216 101.974 27.36 101.926 27.504C101.83 27.648 101.83 27.84 101.83 27.984C101.83 28.08 101.83 28.128 101.734 28.224C101.686 28.272 101.638 28.272 101.638 28.32C101.638 28.416 101.83 28.464 101.878 28.56V28.608C101.878 28.704 101.878 28.8 101.926 28.848C101.926 28.944 101.974 29.04 101.974 29.088C101.974 29.136 102.07 29.136 102.07 29.136C102.07 28.992 101.974 28.848 101.974 28.704C102.022 28.704 102.166 28.752 102.214 28.752C102.31 28.704 102.358 28.608 102.262 28.512C102.118 28.368 102.406 28.32 102.406 28.176C102.406 27.984 102.406 27.792 102.454 27.648C102.502 27.504 102.646 27.312 102.502 27.168V27.12C102.502 27.12 102.55 27.12 102.55 27.072C102.742 26.88 102.838 26.64 102.886 26.4C102.982 26.208 103.126 25.92 102.982 25.728C102.982 25.68 102.934 25.632 102.886 25.584H102.934C102.886 25.488 103.03 25.392 103.03 25.248C103.078 25.104 103.078 24.96 103.03 24.816C103.03 24.672 102.982 24.576 102.982 24.432C103.03 24.288 103.126 24.144 103.222 24C103.366 23.76 103.366 23.424 103.414 23.184ZM103.942 14.496C103.99 14.352 104.134 14.16 103.942 14.064C103.846 13.968 103.51 14.016 103.318 14.064C103.366 14.064 103.366 14.016 103.366 13.968C103.414 13.872 103.462 13.776 103.462 13.632C103.462 13.44 103.27 13.152 103.174 12.912C103.126 12.912 102.934 12.912 102.934 12.96C102.838 13.2 102.79 13.44 102.838 13.632C102.886 13.776 102.838 13.872 102.838 14.016C102.838 14.112 102.934 14.208 102.982 14.304C102.742 14.544 102.694 14.832 102.598 15.072C102.55 15.264 102.502 15.456 102.55 15.6C102.55 15.84 102.742 15.984 102.934 16.128V16.176C102.79 16.56 102.646 16.944 102.646 17.28C102.646 17.472 102.646 17.664 102.694 17.856C102.742 18.048 102.694 18.24 102.79 18.432C102.79 18.48 102.886 18.48 102.934 18.432C102.934 18.384 102.982 18.288 103.03 18.192C103.03 18.336 103.078 18.432 103.174 18.528C103.222 18.576 103.51 18.528 103.558 18.48C103.654 18.336 103.654 18.144 103.654 18L103.798 17.328C103.846 16.992 103.846 16.608 103.75 16.272C103.702 16.176 103.606 16.08 103.51 15.984C103.51 15.936 103.558 15.84 103.558 15.792C103.654 15.36 103.702 14.928 103.942 14.496ZM103.846 19.392C103.894 19.344 103.894 19.248 103.846 19.152C103.75 19.008 103.798 18.912 103.75 18.768C103.702 18.72 103.51 18.72 103.51 18.768L103.414 19.056C103.414 19.2 103.51 19.344 103.414 19.488C103.27 19.728 103.174 19.824 103.51 20.016H103.654C103.51 19.872 103.462 19.776 103.606 19.632C103.702 19.584 103.798 19.488 103.846 19.392ZM101.878 29.856C101.974 29.76 101.974 29.568 101.974 29.424C101.974 29.376 101.734 29.328 101.734 29.376V29.808C101.734 29.856 101.878 29.904 101.878 29.856ZM103.558 21.216H103.702L103.606 20.592C103.606 20.544 103.558 20.544 103.558 20.592C103.558 20.784 103.51 20.976 103.558 21.216ZM102.598 25.344C102.502 25.248 102.454 25.152 102.502 25.104C102.502 25.152 102.502 25.2 102.55 25.248C102.55 25.248 102.598 25.296 102.598 25.344ZM102.982 12.864H102.886L102.934 12.912L102.982 12.864ZM102.502 25.104H102.454H102.502ZM131.361 32.88C131.361 34.704 132.945 38.256 131.985 39.84C130.977 41.52 128.001 41.76 126.753 40.368C125.601 39.12 124.641 35.856 124.113 34.176C121.953 27.6 118.737 20.112 117.825 12.96C118.113 17.376 118.257 21.888 118.209 26.352C118.161 29.328 118.689 32.112 118.881 35.04C118.977 36 119.169 37.536 118.833 38.352C118.737 38.544 116.529 41.088 116.337 41.184C113.169 43.008 112.737 38.304 112.737 36.432C112.737 35.568 113.313 34.704 113.361 33.792C113.409 32.544 112.977 31.2 112.881 29.904C112.593 24.336 113.409 18.48 113.457 12.864C113.505 10.512 112.113 2.86102e-05 117.249 1.82403C119.649 2.68803 119.793 6.19203 120.225 8.11203C120.945 11.28 121.617 14.496 122.625 17.616C123.201 19.44 124.065 21.12 124.593 22.896C125.217 25.008 125.265 28.464 127.185 29.712C127.761 24.816 127.761 19.872 127.809 14.88C127.857 12.768 128.001 10.656 127.953 8.49603C127.953 7.24803 127.041 3.55203 127.569 2.49603C128.385 0.912028 130.641 1.72803 131.409 2.83203C132.321 4.12803 131.649 7.44003 131.601 9.12003C131.505 14.016 131.553 18.864 131.409 23.76C131.265 26.784 131.361 29.808 131.361 32.88ZM116.001 25.92C116.049 25.776 116.049 25.536 115.857 25.392C115.809 25.344 115.761 25.344 115.665 25.344C115.473 25.2 115.857 24.912 115.905 24.816C116.001 24.672 116.049 24.528 116.001 24.432C116.001 24.288 115.905 24.144 115.761 24.048C115.665 24 115.329 24 115.281 24.096C115.233 24.24 115.377 24.384 115.377 24.528C115.377 24.624 115.377 24.768 115.329 24.912C115.329 25.008 115.233 25.2 115.473 25.344C115.377 25.344 115.329 25.344 115.329 25.392C115.185 25.584 115.377 25.824 115.329 26.016C115.233 26.256 114.945 26.496 114.897 26.736C114.849 26.88 114.993 27.072 115.089 27.264V27.312L114.945 27.648L114.897 27.696V27.744L114.849 27.84L114.753 27.984L114.657 28.368C114.657 28.464 114.705 28.608 114.753 28.704C114.801 28.752 115.089 28.704 115.137 28.656C115.233 28.56 115.233 28.464 115.281 28.368C115.281 28.272 115.281 28.176 115.329 28.032L115.521 27.792C115.473 27.984 115.473 28.224 115.473 28.416C115.425 28.704 115.425 29.04 115.233 29.376C115.041 29.616 115.041 29.856 115.185 30.096C115.233 30.24 115.281 30.384 115.377 30.528L115.425 30.576C115.329 30.528 115.281 30.432 115.281 30.384C115.281 30.336 115.041 30.336 115.041 30.384C114.945 30.528 115.089 30.672 115.281 30.768C115.425 30.912 115.473 31.056 115.521 31.2L115.233 31.296C115.137 31.344 115.233 31.44 115.281 31.488C115.377 31.584 115.473 31.728 115.473 31.824C115.425 31.872 115.473 31.872 115.521 31.872L115.377 32.304C115.329 32.352 115.281 32.352 115.281 32.4C115.137 32.496 115.185 32.688 115.185 32.832C115.137 32.976 115.185 33.12 115.233 33.312C115.233 33.408 115.281 33.456 115.185 33.552C115.137 33.6 115.089 33.648 115.137 33.696C115.137 33.744 115.329 33.792 115.425 33.84C115.425 33.84 115.425 33.888 115.473 33.888C115.473 34.032 115.617 34.176 115.713 34.32H115.761L115.569 33.936C115.617 33.936 115.761 33.936 115.761 33.888C115.905 33.84 115.905 33.744 115.761 33.696C115.569 33.6 115.857 33.456 115.809 33.312C115.761 33.168 115.713 32.976 115.713 32.832C115.713 32.64 115.857 32.496 115.665 32.352V32.304L115.713 32.256C115.857 32.064 115.857 31.776 115.905 31.584C115.953 31.392 116.049 31.056 115.905 30.912C115.857 30.864 115.809 30.816 115.761 30.816C115.761 30.768 115.809 30.768 115.809 30.768C115.761 30.672 115.857 30.576 115.857 30.48C115.857 30.336 115.857 30.192 115.809 30.048C115.761 29.904 115.713 29.808 115.713 29.664C115.713 29.52 115.809 29.376 115.857 29.232C116.001 28.992 115.953 28.704 115.953 28.464C116.001 28.272 116.001 28.128 116.001 27.984V27.744C116.001 27.696 115.953 27.6 115.953 27.504C115.953 27.456 115.713 27.456 115.617 27.456C115.665 27.456 115.665 27.408 115.617 27.408C115.665 27.264 115.665 27.12 115.665 26.976C115.665 26.88 115.473 26.688 115.617 26.64V26.592C115.617 26.544 115.665 26.496 115.713 26.448C115.857 26.304 116.001 26.112 116.001 25.92ZM115.089 20.736C115.041 20.928 114.993 21.12 115.041 21.312C115.041 21.504 115.233 21.648 115.425 21.792V21.84C115.377 22.224 115.233 22.56 115.233 22.896C115.233 23.088 115.281 23.28 115.329 23.472C115.377 23.616 115.329 23.808 115.425 24H115.569L115.713 23.616C115.713 23.76 115.761 23.904 115.857 24C115.905 24.048 116.193 24.048 116.241 24C116.289 23.808 116.289 23.664 116.289 23.472L116.385 22.848C116.385 22.512 116.433 22.176 116.241 21.888C116.193 21.792 116.145 21.696 116.001 21.6C116.049 21.552 116.049 21.504 116.049 21.408C116.145 21.024 116.193 20.64 116.433 20.256C116.529 20.16 116.625 19.968 116.481 19.872C116.337 19.824 116.049 19.824 115.857 19.824C115.857 19.824 115.905 19.776 115.905 19.728C115.953 19.68 116.001 19.584 116.001 19.488C116.049 19.392 116.049 19.248 116.001 19.152C115.953 19.008 115.905 18.912 115.905 18.768C115.857 18.768 115.665 18.72 115.665 18.768C115.569 18.864 115.521 18.96 115.473 19.056C115.473 19.152 115.425 19.296 115.425 19.392C115.473 19.488 115.377 19.632 115.377 19.728C115.329 19.824 115.425 19.92 115.521 20.016C115.233 20.208 115.185 20.544 115.089 20.736ZM116.577 24.864C116.625 24.816 116.577 24.72 116.529 24.624L116.433 24.24C116.385 24.192 116.193 24.192 116.193 24.24L116.097 24.528C116.097 24.672 116.193 24.816 116.097 24.96C115.953 25.152 115.857 25.248 116.193 25.488C116.241 25.488 116.385 25.488 116.337 25.44C116.193 25.344 116.193 25.248 116.337 25.104C116.385 25.104 116.433 25.056 116.481 25.008C116.481 24.96 116.529 24.912 116.577 24.864ZM115.905 35.04C115.953 34.944 115.857 34.8 115.809 34.656C115.761 34.608 115.569 34.608 115.569 34.656L115.761 35.088C115.761 35.088 115.905 35.088 115.905 35.04ZM116.145 26.592C116.145 26.64 116.289 26.64 116.289 26.64C116.241 26.4 116.289 26.208 116.289 26.016H116.193C116.193 26.208 116.145 26.4 116.145 26.592ZM115.617 18.624C115.617 18.624 115.569 18.672 115.617 18.672H115.665C115.713 18.72 115.713 18.72 115.713 18.672C115.665 18.672 115.665 18.672 115.617 18.624Z" fill="#082A45"/>
</svg>
