<svg width="132" height="46" viewBox="0 0 132 46" fill="none" xmlns="http://www.w3.org/2000/svg">
<path d="M15.984 40.992V41.136C14.736 42.096 13.104 42.72 12 41.904C11.568 41.616 11.136 39.744 11.136 38.592C11.184 37.2 10.896 35.952 10.56 34.656C9.40802 35.28 8.25602 35.52 7.10402 36.096C5.23202 37.008 6.09602 35.712 5.71202 37.872C5.47202 39.36 5.85602 40.848 5.04002 41.952C3.88802 43.488 2.20802 43.008 1.24802 41.808C1.95652e-05 40.32 0.28802 38.16 0.38402 36.336C0.72002 30.816 2.44802 25.344 3.60002 19.92C4.46402 15.648 5.32802 11.376 6.62402 7.24801C7.20002 5.47201 7.48802 4.32001 9.50402 3.79201C11.184 3.36001 13.056 3.74401 13.584 5.52001C13.68 5.85601 12.912 8.20801 12.864 8.59201C12.816 9.69601 13.008 10.848 13.104 11.952C13.248 14.352 13.152 16.8 13.296 19.2C13.488 22.656 13.248 24.288 13.728 27.696C14.016 29.664 14.592 32.976 14.688 34.992C14.832 37.056 15.888 39.072 15.984 40.992ZM6.67202 31.104C11.04 31.104 10.464 28.8 10.32 25.104C10.224 21.744 10.704 17.568 9.50402 14.4C8.44802 15.12 8.20802 20.592 7.92002 21.936C7.34402 24.96 6.86402 28.032 6.67202 31.104ZM5.37602 26.976C5.42402 26.88 5.56802 26.736 5.37602 26.64C5.28002 26.592 4.94402 26.592 4.80002 26.64V26.592C4.84802 26.496 4.89602 26.4 4.89602 26.352C4.89602 26.256 4.84802 26.16 4.80002 26.064C4.75202 25.968 4.65602 25.872 4.56002 25.824C4.56002 25.776 4.36802 25.824 4.36802 25.872C4.27202 26.064 4.27202 26.208 4.32002 26.352C4.32002 26.448 4.27202 26.544 4.27202 26.592C4.27202 26.688 4.36802 26.736 4.41602 26.784C4.12802 26.976 4.08002 27.168 3.98402 27.312C3.88802 27.408 3.84002 27.552 3.84002 27.696C3.84002 27.84 4.03202 27.936 4.17602 28.08V28.128C4.03202 28.368 3.84002 28.608 3.79202 28.848C3.74402 28.992 3.79202 29.136 3.79202 29.232C3.79202 29.376 3.74402 29.52 3.79202 29.664C3.79202 29.664 3.79202 29.712 3.84002 29.712H3.64802C3.55202 29.808 3.69602 29.952 3.69602 30.048L3.60002 30.336C3.55202 30.384 3.45602 30.576 3.69602 30.672H3.55202C3.40802 30.816 3.55202 31.008 3.50402 31.152C3.45602 31.344 3.16802 31.488 3.07202 31.68C3.02402 31.776 3.21602 31.92 3.26402 32.016C3.26402 32.064 3.26402 32.064 3.31202 32.064L3.26402 32.112C3.12002 32.4 2.59202 32.64 2.83202 32.976C2.88002 33.024 3.16802 33.072 3.21602 33.024C3.40802 32.928 3.36002 32.784 3.50402 32.64L3.69602 32.448L3.55202 32.88C3.45602 33.12 3.45602 33.36 3.16802 33.504C2.92802 33.648 2.88002 33.84 2.97602 34.032L3.12002 34.368V34.416C3.07202 34.368 3.02402 34.272 3.02402 34.224C3.02402 34.224 2.83202 34.176 2.78402 34.176C2.68802 34.272 2.78402 34.416 2.92802 34.512C3.07202 34.656 3.12002 34.752 3.07202 34.896C2.97602 34.848 2.88002 34.848 2.83202 34.896C2.73602 34.896 2.78402 34.992 2.83202 34.992C2.88002 35.088 2.97602 35.232 2.88002 35.28C2.88002 35.328 2.92802 35.328 2.92802 35.328C2.88002 35.424 2.83202 35.52 2.73602 35.616H2.59202C2.44802 35.712 2.49602 35.808 2.40002 35.904C2.35202 36 2.35202 36.144 2.35202 36.24C2.35202 36.336 2.35202 36.384 2.25602 36.432C2.20802 36.432 2.16002 36.48 2.16002 36.48C2.16002 36.576 2.35202 36.624 2.44802 36.672V36.72C2.44802 36.864 2.54402 36.96 2.59202 37.104H2.64002C2.64002 37.008 2.54402 36.864 2.54402 36.768C2.59202 36.816 2.73602 36.816 2.78402 36.816C2.88002 36.768 2.92802 36.768 2.83202 36.672C2.64002 36.528 2.92802 36.528 2.92802 36.432C2.92802 36.288 2.92802 36.144 2.97602 36.048C2.97602 35.952 3.16802 35.856 3.02402 35.712H2.97602L3.07202 35.664C3.21602 35.52 3.31202 35.376 3.40802 35.232C3.45602 35.088 3.64802 34.896 3.50402 34.752C3.50402 34.704 3.45602 34.656 3.40802 34.656C3.45602 34.656 3.45602 34.656 3.45602 34.608C3.45602 34.56 3.55202 34.512 3.55202 34.416C3.60002 34.32 3.64802 34.224 3.60002 34.128C3.60002 34.032 3.55202 33.936 3.60002 33.84C3.60002 33.744 3.74402 33.648 3.84002 33.552C3.98402 33.408 3.98402 33.216 4.03202 33.024C4.12802 32.784 4.17602 32.544 4.12802 32.304C4.12802 32.256 3.88802 32.256 3.79202 32.256C3.84002 32.208 3.84002 32.208 3.79202 32.208C3.84002 32.112 3.84002 31.968 3.84002 31.872C3.84002 31.824 3.69602 31.68 3.79202 31.632L3.88802 31.536C4.03202 31.392 4.17602 31.296 4.22402 31.152C4.22402 31.008 4.22402 30.864 4.08002 30.72C4.03202 30.72 3.98402 30.72 3.88802 30.672C3.69602 30.576 4.08002 30.384 4.17602 30.336C4.36802 30.144 4.36802 29.952 4.08002 29.76C4.03202 29.76 3.98402 29.712 3.88802 29.712L3.93602 29.664L4.08002 29.472C4.08002 29.568 4.12802 29.712 4.22402 29.76C4.27202 29.808 4.51202 29.808 4.56002 29.76C4.65602 29.664 4.70402 29.568 4.75202 29.424L4.89602 28.992C4.99202 28.752 5.08802 28.512 4.99202 28.272C4.94402 28.272 4.94402 28.224 4.94402 28.224V28.176H4.89602L4.80002 28.032C4.80002 27.984 4.84802 27.936 4.84802 27.888C4.99202 27.6 5.08802 27.312 5.37602 26.976ZM4.80002 30.432C4.84802 30.384 4.84802 30.336 4.80002 30.288C4.75202 30.192 4.75202 30.096 4.75202 30C4.70402 29.952 4.51202 29.904 4.51202 29.952C4.46402 30 4.41602 30.096 4.41602 30.144C4.36802 30.24 4.46402 30.384 4.32002 30.432C4.17602 30.576 4.08002 30.672 4.41602 30.816C4.41602 30.864 4.60802 30.864 4.56002 30.816C4.41602 30.72 4.36802 30.672 4.56002 30.576C4.65602 30.528 4.75202 30.528 4.80002 30.432ZM2.64002 37.68C2.68802 37.584 2.64002 37.44 2.59202 37.344C2.59202 37.296 2.40002 37.248 2.40002 37.296C2.40002 37.392 2.44802 37.536 2.44802 37.632C2.49602 37.632 2.64002 37.68 2.64002 37.68ZM4.36802 31.68H4.46402V31.248C4.46402 31.2 4.41602 31.2 4.36802 31.2C4.36802 31.344 4.32002 31.488 4.36802 31.68ZM4.27202 25.824H4.36802C4.36802 25.824 4.36802 25.776 4.27202 25.824ZM39.378 27.984C39.906 30.576 37.41 34.608 37.122 37.296C36.834 40.128 36.546 40.368 34.002 41.52C31.362 42.672 28.386 43.728 25.698 41.856C21.858 39.216 23.538 31.968 23.058 27.888C22.29 21.888 22.29 13.728 24.162 7.92001C26.178 1.72801 33.042 6.67572e-06 37.938 4.12801C37.938 4.12801 37.986 4.17601 38.034 4.17601C38.13 7.20001 40.818 19.008 36.114 18.72C32.226 18.48 33.186 15.792 33.33 13.296C33.426 11.52 33.714 5.90401 31.026 6.19201C26.802 6.62401 28.578 17.616 28.338 20.496C28.146 23.568 27.762 26.064 28.194 29.136C28.53 31.824 27.666 35.136 29.634 37.296C33.906 41.904 34.53 30.432 35.058 28.32C35.346 27.168 35.298 26.448 36.402 26.112C37.65 25.68 39.138 26.928 39.378 27.984ZM25.842 29.76C25.89 29.52 25.938 29.232 25.794 28.992C25.794 28.944 25.602 28.944 25.458 28.992V28.944C25.506 28.944 25.554 28.944 25.458 28.896C25.506 28.8 25.506 28.704 25.458 28.608C25.458 28.512 25.266 28.368 25.362 28.32C25.41 28.272 25.458 28.224 25.458 28.176C25.602 28.032 25.698 27.888 25.698 27.744C25.746 27.648 25.698 27.456 25.506 27.36C25.506 27.312 25.41 27.312 25.314 27.312C25.122 27.216 25.506 26.976 25.554 26.88C25.746 26.688 25.746 26.448 25.41 26.304C25.362 26.256 25.026 26.256 24.978 26.304C24.882 26.448 25.026 26.544 25.026 26.64C25.026 26.736 25.026 26.88 24.978 26.976C24.978 27.072 24.882 27.216 25.122 27.312C25.074 27.312 25.026 27.312 24.978 27.36C24.882 27.504 25.074 27.696 25.026 27.888C24.978 28.08 24.738 28.272 24.69 28.512C24.642 28.608 24.834 28.752 24.93 28.848V28.896C24.834 29.232 24.354 29.568 24.642 29.904C24.69 29.952 24.978 29.952 25.026 29.904C25.17 29.76 25.122 29.616 25.218 29.424L25.41 29.232C25.362 29.376 25.362 29.568 25.362 29.712C25.314 29.952 25.314 30.192 25.074 30.432C24.882 30.624 24.882 30.816 24.978 31.008C25.074 31.104 25.122 31.248 25.17 31.344L25.218 31.392C25.122 31.344 25.074 31.296 25.074 31.248C25.074 31.2 24.834 31.2 24.834 31.248C24.738 31.344 24.882 31.44 25.026 31.536C25.218 31.632 25.266 31.776 25.266 31.92C25.17 31.92 25.074 31.92 25.026 31.968C24.882 32.016 24.978 32.064 25.026 32.112C25.122 32.16 25.218 32.304 25.17 32.4H25.218L25.074 32.784H24.978C24.834 32.928 24.882 33.024 24.834 33.12C24.786 33.264 24.834 33.408 24.882 33.504C24.882 33.6 24.882 33.648 24.834 33.696C24.786 33.744 24.738 33.792 24.738 33.84C24.786 33.888 24.978 33.936 25.074 33.936V33.984C25.074 34.128 25.218 34.224 25.314 34.368C25.314 34.368 25.362 34.368 25.362 34.32L25.17 34.032H25.41C25.506 33.936 25.506 33.888 25.41 33.84C25.218 33.744 25.458 33.648 25.458 33.552C25.41 33.408 25.362 33.264 25.41 33.168C25.41 33.024 25.554 32.88 25.362 32.784L25.41 32.736C25.554 32.544 25.602 32.352 25.65 32.208C25.698 32.016 25.842 31.824 25.65 31.632C25.602 31.632 25.602 31.584 25.554 31.584V31.536C25.554 31.488 25.65 31.392 25.65 31.296C25.65 31.2 25.698 31.104 25.602 31.008C25.554 30.912 25.554 30.816 25.554 30.72C25.554 30.576 25.65 30.48 25.746 30.336C25.842 30.144 25.842 29.952 25.842 29.76ZM26.418 23.28C26.514 23.232 26.61 23.088 26.466 22.992C26.322 22.944 26.034 22.944 25.842 22.992C25.842 22.944 25.842 22.944 25.89 22.896L25.986 22.656C25.986 22.512 25.842 22.272 25.746 22.128C25.746 22.08 25.506 22.08 25.506 22.128C25.41 22.272 25.362 22.464 25.41 22.656C25.41 22.704 25.362 22.8 25.314 22.896C25.314 22.992 25.41 23.04 25.458 23.136C25.218 23.28 25.17 23.52 25.074 23.664C24.978 23.808 24.93 23.952 24.978 24.096C24.978 24.24 25.17 24.384 25.314 24.48V24.528C25.218 24.816 25.026 25.104 24.978 25.344C24.978 25.488 25.026 25.632 25.026 25.776C25.074 25.92 25.026 26.064 25.122 26.208C25.122 26.256 25.266 26.256 25.266 26.208L25.41 25.968C25.41 26.064 25.458 26.16 25.554 26.256C25.602 26.304 25.842 26.304 25.89 26.256C25.986 26.112 25.986 26.016 26.034 25.872C26.034 25.728 26.082 25.536 26.13 25.392C26.226 25.152 26.274 24.864 26.13 24.624L25.938 24.384C25.938 24.336 25.938 24.288 25.986 24.24C26.082 23.952 26.13 23.616 26.418 23.28ZM26.226 26.928C26.274 26.88 26.226 26.832 26.178 26.736L26.082 26.448C26.082 26.4 25.842 26.4 25.842 26.448L25.746 26.688C25.746 26.784 25.842 26.88 25.746 26.976C25.602 27.168 25.506 27.264 25.89 27.408C25.89 27.408 26.034 27.408 26.034 27.36C25.89 27.264 25.842 27.216 25.986 27.12C26.082 27.072 26.178 27.024 26.226 26.928ZM25.506 34.896C25.506 34.8 25.458 34.704 25.41 34.608C25.362 34.56 25.17 34.56 25.17 34.608C25.17 34.704 25.266 34.848 25.314 34.944C25.362 34.944 25.506 34.944 25.506 34.896ZM25.938 28.272H26.034C26.034 28.128 25.986 27.936 25.986 27.792H25.89C25.89 27.936 25.89 28.128 25.938 28.272ZM63.468 27.984C63.996 30.576 61.5 34.608 61.212 37.296C60.924 40.128 60.636 40.368 58.092 41.52C55.452 42.672 52.476 43.728 49.788 41.856C45.948 39.216 47.628 31.968 47.148 27.888C46.38 21.888 46.38 13.728 48.252 7.92001C50.268 1.72801 57.132 6.67572e-06 62.028 4.12801C62.028 4.12801 62.076 4.17601 62.124 4.17601C62.22 7.20001 64.908 19.008 60.204 18.72C56.316 18.48 57.276 15.792 57.42 13.296C57.516 11.52 57.804 5.90401 55.116 6.19201C50.892 6.62401 52.668 17.616 52.428 20.496C52.236 23.568 51.852 26.064 52.284 29.136C52.62 31.824 51.756 35.136 53.724 37.296C57.996 41.904 58.62 30.432 59.148 28.32C59.436 27.168 59.388 26.448 60.492 26.112C61.74 25.68 63.228 26.928 63.468 27.984ZM49.932 29.76C49.98 29.52 50.028 29.232 49.884 28.992C49.884 28.944 49.692 28.944 49.548 28.992V28.944C49.596 28.944 49.644 28.944 49.548 28.896C49.596 28.8 49.596 28.704 49.548 28.608C49.548 28.512 49.356 28.368 49.452 28.32C49.5 28.272 49.548 28.224 49.548 28.176C49.692 28.032 49.788 27.888 49.788 27.744C49.836 27.648 49.788 27.456 49.596 27.36C49.596 27.312 49.5 27.312 49.404 27.312C49.212 27.216 49.596 26.976 49.644 26.88C49.836 26.688 49.836 26.448 49.5 26.304C49.452 26.256 49.116 26.256 49.068 26.304C48.972 26.448 49.116 26.544 49.116 26.64C49.116 26.736 49.116 26.88 49.068 26.976C49.068 27.072 48.972 27.216 49.212 27.312C49.164 27.312 49.116 27.312 49.068 27.36C48.972 27.504 49.164 27.696 49.116 27.888C49.068 28.08 48.828 28.272 48.78 28.512C48.732 28.608 48.924 28.752 49.02 28.848V28.896C48.924 29.232 48.444 29.568 48.732 29.904C48.78 29.952 49.068 29.952 49.116 29.904C49.26 29.76 49.212 29.616 49.308 29.424L49.5 29.232C49.452 29.376 49.452 29.568 49.452 29.712C49.404 29.952 49.404 30.192 49.164 30.432C48.972 30.624 48.972 30.816 49.068 31.008C49.164 31.104 49.212 31.248 49.26 31.344L49.308 31.392C49.212 31.344 49.164 31.296 49.164 31.248C49.164 31.2 48.924 31.2 48.924 31.248C48.828 31.344 48.972 31.44 49.116 31.536C49.308 31.632 49.356 31.776 49.356 31.92C49.26 31.92 49.164 31.92 49.116 31.968C48.972 32.016 49.068 32.064 49.116 32.112C49.212 32.16 49.308 32.304 49.26 32.4H49.308L49.164 32.784H49.068C48.924 32.928 48.972 33.024 48.924 33.12C48.876 33.264 48.924 33.408 48.972 33.504C48.972 33.6 48.972 33.648 48.924 33.696C48.876 33.744 48.828 33.792 48.828 33.84C48.876 33.888 49.068 33.936 49.164 33.936V33.984C49.164 34.128 49.308 34.224 49.404 34.368C49.404 34.368 49.452 34.368 49.452 34.32L49.26 34.032H49.5C49.596 33.936 49.596 33.888 49.5 33.84C49.308 33.744 49.548 33.648 49.548 33.552C49.5 33.408 49.452 33.264 49.5 33.168C49.5 33.024 49.644 32.88 49.452 32.784L49.5 32.736C49.644 32.544 49.692 32.352 49.74 32.208C49.788 32.016 49.932 31.824 49.74 31.632C49.692 31.632 49.692 31.584 49.644 31.584V31.536C49.644 31.488 49.74 31.392 49.74 31.296C49.74 31.2 49.788 31.104 49.692 31.008C49.644 30.912 49.644 30.816 49.644 30.72C49.644 30.576 49.74 30.48 49.836 30.336C49.932 30.144 49.932 29.952 49.932 29.76ZM50.508 23.28C50.604 23.232 50.7 23.088 50.556 22.992C50.412 22.944 50.124 22.944 49.932 22.992C49.932 22.944 49.932 22.944 49.98 22.896L50.076 22.656C50.076 22.512 49.932 22.272 49.836 22.128C49.836 22.08 49.596 22.08 49.596 22.128C49.5 22.272 49.452 22.464 49.5 22.656C49.5 22.704 49.452 22.8 49.404 22.896C49.404 22.992 49.5 23.04 49.548 23.136C49.308 23.28 49.26 23.52 49.164 23.664C49.068 23.808 49.02 23.952 49.068 24.096C49.068 24.24 49.26 24.384 49.404 24.48V24.528C49.308 24.816 49.116 25.104 49.068 25.344C49.068 25.488 49.116 25.632 49.116 25.776C49.164 25.92 49.116 26.064 49.212 26.208C49.212 26.256 49.356 26.256 49.356 26.208L49.5 25.968C49.5 26.064 49.548 26.16 49.644 26.256C49.692 26.304 49.932 26.304 49.98 26.256C50.076 26.112 50.076 26.016 50.124 25.872C50.124 25.728 50.172 25.536 50.22 25.392C50.316 25.152 50.364 24.864 50.22 24.624L50.028 24.384C50.028 24.336 50.028 24.288 50.076 24.24C50.172 23.952 50.22 23.616 50.508 23.28ZM50.316 26.928C50.364 26.88 50.316 26.832 50.268 26.736L50.172 26.448C50.172 26.4 49.932 26.4 49.932 26.448L49.836 26.688C49.836 26.784 49.932 26.88 49.836 26.976C49.692 27.168 49.596 27.264 49.98 27.408C49.98 27.408 50.124 27.408 50.124 27.36C49.98 27.264 49.932 27.216 50.076 27.12C50.172 27.072 50.268 27.024 50.316 26.928ZM49.596 34.896C49.596 34.8 49.548 34.704 49.5 34.608C49.452 34.56 49.26 34.56 49.26 34.608C49.26 34.704 49.356 34.848 49.404 34.944C49.452 34.944 49.596 34.944 49.596 34.896ZM50.028 28.272H50.124C50.124 28.128 50.076 27.936 50.076 27.792H49.98C49.98 27.936 49.98 28.128 50.028 28.272ZM82.758 4.22401C85.974 9.16801 76.998 5.23201 75.846 8.01601C75.03 10.032 75.03 19.584 76.566 20.4C77.574 20.928 82.998 19.104 82.758 22.128C82.566 24.48 78.726 23.376 77.382 23.808C73.494 25.104 75.798 33.84 75.606 37.296C76.566 37.152 83.238 35.712 81.942 39.12C81.702 39.744 75.318 41.472 74.262 41.568C67.734 42.24 70.614 31.92 70.71 28.272C70.95 21.504 70.374 14.64 70.47 7.92001C70.47 5.47201 70.278 3.79201 73.254 3.26401C76.422 2.64001 79.782 2.97601 82.758 4.22401ZM73.254 26.112C73.254 25.776 73.302 25.44 73.158 25.104C73.158 25.056 72.966 25.056 72.87 25.056C72.918 25.056 72.918 25.008 72.87 25.008C72.87 24.864 72.87 24.72 72.822 24.528C72.822 24.432 72.63 24.288 72.726 24.192C72.774 24.144 72.822 24.048 72.822 24C72.966 23.808 73.062 23.664 73.062 23.424C73.062 23.28 73.062 23.04 72.87 22.896C72.822 22.848 72.726 22.848 72.678 22.848C72.486 22.704 72.822 22.416 72.918 22.272C73.062 22.032 73.062 21.696 72.726 21.504C72.63 21.456 72.342 21.456 72.294 21.504C72.198 21.648 72.342 21.84 72.342 21.984C72.39 22.128 72.342 22.224 72.342 22.368C72.294 22.512 72.246 22.752 72.486 22.848C72.39 22.848 72.342 22.896 72.342 22.896C72.198 23.136 72.39 23.376 72.39 23.616C72.342 23.904 72.102 24.144 72.054 24.432C72.006 24.576 72.198 24.768 72.294 24.912L72.342 24.96H72.294C72.246 25.44 71.766 25.872 72.054 26.304C72.102 26.4 72.342 26.352 72.39 26.304C72.582 26.112 72.534 25.92 72.63 25.68L72.774 25.392C72.774 25.632 72.774 25.824 72.726 26.064C72.678 26.352 72.726 26.688 72.486 27.024C72.294 27.264 72.294 27.504 72.39 27.792C72.486 27.936 72.534 28.08 72.582 28.224L72.63 28.272C72.534 28.224 72.486 28.176 72.486 28.08C72.486 28.032 72.246 28.032 72.246 28.08C72.15 28.224 72.294 28.368 72.486 28.512C72.63 28.608 72.678 28.8 72.678 28.944C72.582 28.992 72.486 28.992 72.438 29.04C72.342 29.088 72.39 29.184 72.438 29.232C72.534 29.328 72.63 29.472 72.582 29.616H72.63C72.582 29.808 72.534 29.952 72.534 30.096C72.438 30.096 72.39 30.144 72.39 30.144C72.246 30.288 72.294 30.48 72.246 30.624C72.198 30.768 72.294 30.96 72.294 31.104C72.294 31.2 72.294 31.248 72.246 31.344C72.198 31.392 72.15 31.44 72.15 31.488C72.198 31.584 72.39 31.632 72.486 31.68V31.728C72.486 31.92 72.63 32.064 72.726 32.208H72.774L72.582 31.776C72.63 31.824 72.774 31.824 72.822 31.776C72.918 31.68 72.918 31.632 72.822 31.536C72.63 31.44 72.87 31.296 72.87 31.152C72.822 31.008 72.774 30.816 72.822 30.624C72.822 30.48 72.966 30.288 72.822 30.144H72.774C72.774 30.096 72.822 30.096 72.822 30.048C72.966 29.856 73.014 29.568 73.062 29.328C73.11 29.136 73.254 28.848 73.062 28.656C73.062 28.608 73.014 28.56 72.966 28.512C72.966 28.416 73.062 28.32 73.062 28.176C73.062 28.032 73.062 27.888 73.014 27.744C72.966 27.648 72.966 27.504 72.966 27.36C72.918 27.216 73.062 27.072 73.11 26.928C73.254 26.64 73.206 26.352 73.254 26.112ZM73.686 17.52C73.782 17.376 73.878 17.232 73.734 17.088C73.638 17.04 73.302 17.04 73.11 17.088C73.158 17.04 73.158 16.992 73.158 16.992C73.206 16.848 73.254 16.752 73.254 16.656C73.302 16.416 73.158 16.176 73.062 15.936C73.014 15.888 72.822 15.888 72.822 15.936C72.726 16.128 72.63 16.368 72.678 16.608C72.678 16.704 72.63 16.848 72.63 16.944C72.63 17.04 72.678 17.184 72.774 17.232C72.486 17.472 72.438 17.808 72.342 18C72.246 18.192 72.246 18.384 72.246 18.576C72.246 18.768 72.438 18.912 72.63 19.104L72.582 19.152C72.486 19.536 72.294 19.872 72.294 20.256C72.294 20.448 72.342 20.64 72.342 20.832C72.39 21.024 72.342 21.216 72.438 21.408H72.582C72.63 21.264 72.678 21.168 72.678 21.024C72.726 21.168 72.774 21.312 72.87 21.456C72.918 21.504 73.158 21.504 73.206 21.456C73.302 21.264 73.302 21.12 73.302 20.928L73.446 20.304C73.494 19.968 73.542 19.584 73.398 19.248C73.398 19.152 73.302 19.056 73.206 18.96C73.206 18.912 73.254 18.816 73.254 18.768C73.398 18.336 73.446 17.952 73.686 17.52ZM73.542 22.368C73.59 22.272 73.542 22.176 73.494 22.128L73.398 21.696C73.398 21.648 73.158 21.648 73.158 21.696C73.11 21.792 73.11 21.888 73.11 22.032C73.062 22.176 73.158 22.272 73.062 22.416C72.918 22.656 72.822 22.752 73.206 22.944C73.254 22.992 73.398 22.944 73.35 22.944C73.206 22.8 73.158 22.704 73.302 22.608L73.542 22.368ZM72.87 32.976C72.918 32.832 72.87 32.688 72.774 32.544C72.774 32.496 72.534 32.496 72.534 32.544L72.726 32.976C72.726 33.024 72.87 33.024 72.87 32.976ZM73.302 24.144C73.302 24.144 73.398 24.144 73.398 24.096C73.35 23.904 73.35 23.712 73.35 23.52C73.35 23.472 73.254 23.472 73.254 23.52C73.254 23.712 73.254 23.904 73.302 24.144ZM72.87 15.84H72.774L72.822 15.888C72.822 15.888 72.87 15.888 72.87 15.84ZM106.822 6.72001C107.302 9.50401 107.878 22.32 101.926 16.56C103.846 14.448 104.422 9.07201 101.494 7.29601C96.7901 4.41601 97.6061 13.248 97.6061 15.36C97.6541 22.56 104.422 28.464 104.71 35.616C105.046 43.68 92.3261 45.6 90.1661 37.824C89.8301 36.768 90.5021 35.424 90.1661 34.464C90.0221 34.032 89.1581 33.744 89.1101 33.36C88.7261 31.344 91.1741 30.192 93.2861 30.528C95.8781 30.96 94.7741 31.968 94.4861 34.032C94.2461 35.76 94.2941 37.728 96.0221 38.832C103.846 37.584 92.1341 21.696 91.6541 18.048C91.2221 14.832 91.7501 8.40001 94.1021 5.95201C97.4141 2.59201 103.798 3.79201 106.822 6.72001ZM97.8941 22.8C97.8941 22.608 97.6541 22.56 97.4621 22.56C97.2701 22.512 97.1261 22.416 97.0301 22.272C97.1261 22.224 97.2221 22.128 97.2221 22.08C97.2701 21.984 97.1741 21.936 97.1261 21.936C96.9821 21.888 96.8381 21.84 96.7901 21.696H96.7421L96.5981 21.264C96.6461 21.216 96.6461 21.168 96.6941 21.168C96.6941 20.976 96.5981 20.88 96.5501 20.736C96.5021 20.544 96.3581 20.448 96.3101 20.352C96.2621 20.256 96.1661 20.256 96.2141 20.112C96.2621 20.064 96.2621 20.016 96.2141 19.968C96.1661 19.92 95.9741 19.968 95.8781 19.968C95.8301 19.968 95.8301 19.968 95.8301 19.92L95.6381 19.776C95.5901 19.776 95.4941 19.728 95.4461 19.68C95.4461 19.68 95.3981 19.68 95.3981 19.728L95.7341 19.968C95.6861 19.968 95.5421 20.016 95.5421 20.064C95.4941 20.208 95.4941 20.256 95.6381 20.256C95.8301 20.256 95.6861 20.496 95.7821 20.592C95.8781 20.736 96.0221 20.832 96.0701 20.976C96.1181 21.12 96.1181 21.36 96.3581 21.36V21.456C96.3581 21.696 96.4541 21.936 96.5021 22.176C96.5981 22.368 96.6461 22.656 96.8861 22.752H97.0301V22.8C97.0781 22.896 97.0781 22.992 97.0781 23.088C97.1261 23.232 97.2221 23.376 97.3181 23.472C97.4141 23.568 97.5101 23.616 97.5581 23.76C97.6541 23.904 97.6061 24.048 97.6061 24.24C97.6061 24.528 97.7021 24.72 97.7981 25.008C97.8941 25.296 98.0381 25.584 98.2781 25.824C98.2781 25.872 98.4701 25.776 98.5661 25.68V25.728C98.5661 25.776 98.5661 25.776 98.6141 25.776L98.8061 26.16C98.8541 26.256 99.0461 26.304 98.9981 26.448V26.64C98.9501 26.832 98.9501 27.024 98.9981 27.216C99.0461 27.36 99.1421 27.552 99.3821 27.6C99.4301 27.648 99.5261 27.6 99.5741 27.6C99.8141 27.648 99.6221 28.032 99.5741 28.176C99.5261 28.464 99.6221 28.752 100.006 28.8C100.054 28.848 100.102 28.848 100.198 28.8C100.15 28.8 100.15 28.848 100.15 28.848V29.184C100.102 29.088 100.006 28.992 99.9101 28.896C99.8621 28.848 99.5741 28.992 99.5741 29.04C99.5261 29.232 99.6221 29.376 99.6221 29.52L99.7181 30.144C99.7181 30.288 99.7661 30.432 99.8141 30.624C99.8621 30.768 99.9101 30.912 100.006 31.056L100.294 31.248V32.064C100.294 32.256 100.246 32.448 100.15 32.64C100.102 32.784 100.006 32.976 100.198 33.024C100.294 33.072 100.582 33.024 100.774 32.976V33.072C100.726 33.168 100.726 33.264 100.726 33.36C100.726 33.456 100.774 33.552 100.822 33.696C100.87 33.792 100.918 33.888 101.014 33.984C101.014 34.032 101.206 34.032 101.254 33.984C101.302 33.744 101.35 33.504 101.302 33.312C101.254 33.216 101.302 33.072 101.302 32.976C101.302 32.88 101.206 32.784 101.11 32.736C101.35 32.448 101.35 32.16 101.35 31.92C101.398 31.728 101.398 31.536 101.35 31.344C101.254 31.152 101.062 31.104 100.822 30.96V30.912C100.822 30.816 100.822 30.72 100.87 30.624V30.336C100.87 30.144 100.87 29.952 100.822 29.808C100.774 29.616 100.678 29.472 100.582 29.28C100.486 29.136 100.438 28.944 100.294 28.8H100.198C100.294 28.8 100.39 28.704 100.39 28.656C100.438 28.464 100.246 28.368 100.198 28.272C100.102 28.128 100.102 27.984 100.054 27.888C100.054 27.744 100.006 27.504 99.7661 27.504C99.8141 27.456 99.8621 27.456 99.8621 27.408C99.9101 27.168 99.6221 27.024 99.5741 26.784C99.5261 26.544 99.6221 26.208 99.5741 25.968C99.5261 25.776 99.2861 25.728 99.1421 25.632C99.1421 25.632 99.1421 25.584 99.0941 25.584C99.0461 25.344 99.0941 25.104 99.0941 24.864C99.0941 24.624 99.0461 24.384 98.8061 24.288C98.7581 24.24 98.5181 24.384 98.4701 24.432C98.4221 24.672 98.5661 24.864 98.5181 25.056V25.392L98.2781 24.816C98.1821 24.528 98.0381 24.24 98.1341 23.856C98.1821 23.712 98.1341 23.568 98.1341 23.472C98.0861 23.424 98.0861 23.424 98.0861 23.376C98.0381 23.328 98.0381 23.328 98.0381 23.28L97.8941 23.136C97.7981 23.088 97.7021 23.04 97.6541 22.944C97.6541 22.992 97.8941 22.848 97.8941 22.8ZM99.2861 28.896C99.3341 28.896 99.5261 28.848 99.5261 28.8C99.5261 28.704 99.5261 28.608 99.4781 28.512C99.4301 28.368 99.2861 28.272 99.3341 28.128C99.4301 27.84 99.4301 27.744 99.0461 27.696C98.9981 27.696 98.8541 27.744 98.9021 27.792C99.0941 27.84 99.1901 27.888 99.0941 28.08C99.0461 28.176 98.9501 28.272 98.9501 28.368C98.9501 28.464 98.9981 28.512 99.0461 28.56C99.1901 28.656 99.1901 28.752 99.2861 28.896ZM95.2541 19.44C95.3021 19.44 95.4941 19.392 95.4461 19.344C95.4461 19.296 95.3981 19.296 95.3981 19.248C95.3501 19.248 95.3501 19.2 95.3021 19.2L95.1581 19.008C95.1101 19.008 95.0141 19.056 95.0141 19.104C95.0141 19.152 95.0621 19.248 95.1101 19.296C95.1101 19.296 95.1581 19.344 95.1581 19.392C95.2061 19.392 95.2061 19.392 95.2541 19.44ZM98.7101 27.264C98.7581 27.264 98.8061 27.264 98.8061 27.216C98.7101 27.072 98.6621 26.88 98.5181 26.736C98.5181 26.688 98.4221 26.736 98.4221 26.784C98.5661 26.928 98.6621 27.12 98.7101 27.264ZM97.4141 22.8C97.5101 22.8 97.6061 22.848 97.6541 22.944C97.6061 22.944 97.5581 22.896 97.5101 22.848C97.4621 22.848 97.4621 22.8 97.4141 22.8ZM101.302 34.08C101.254 34.08 101.254 34.032 101.206 34.032C101.206 34.08 101.254 34.08 101.302 34.08ZM130.209 6.72001C130.689 9.50401 131.265 22.32 125.313 16.56C127.233 14.448 127.809 9.07201 124.881 7.29601C120.177 4.41601 120.993 13.248 120.993 15.36C121.041 22.56 127.809 28.464 128.097 35.616C128.433 43.68 115.713 45.6 113.553 37.824C113.217 36.768 113.889 35.424 113.553 34.464C113.409 34.032 112.545 33.744 112.497 33.36C112.113 31.344 114.561 30.192 116.673 30.528C119.265 30.96 118.161 31.968 117.873 34.032C117.633 35.76 117.681 37.728 119.409 38.832C127.233 37.584 115.521 21.696 115.041 18.048C114.609 14.832 115.137 8.40001 117.489 5.95201C120.801 2.59201 127.185 3.79201 130.209 6.72001ZM121.281 22.8C121.281 22.608 121.041 22.56 120.849 22.56C120.657 22.512 120.513 22.416 120.417 22.272C120.513 22.224 120.609 22.128 120.609 22.08C120.657 21.984 120.561 21.936 120.513 21.936C120.369 21.888 120.225 21.84 120.177 21.696H120.129L119.985 21.264C120.033 21.216 120.033 21.168 120.081 21.168C120.081 20.976 119.985 20.88 119.937 20.736C119.889 20.544 119.745 20.448 119.697 20.352C119.649 20.256 119.553 20.256 119.601 20.112C119.649 20.064 119.649 20.016 119.601 19.968C119.553 19.92 119.361 19.968 119.265 19.968C119.217 19.968 119.217 19.968 119.217 19.92L119.025 19.776C118.977 19.776 118.881 19.728 118.833 19.68C118.833 19.68 118.785 19.68 118.785 19.728L119.121 19.968C119.073 19.968 118.929 20.016 118.929 20.064C118.881 20.208 118.881 20.256 119.025 20.256C119.217 20.256 119.073 20.496 119.169 20.592C119.265 20.736 119.409 20.832 119.457 20.976C119.505 21.12 119.505 21.36 119.745 21.36V21.456C119.745 21.696 119.841 21.936 119.889 22.176C119.985 22.368 120.033 22.656 120.273 22.752H120.417V22.8C120.465 22.896 120.465 22.992 120.465 23.088C120.513 23.232 120.609 23.376 120.705 23.472C120.801 23.568 120.897 23.616 120.945 23.76C121.041 23.904 120.993 24.048 120.993 24.24C120.993 24.528 121.089 24.72 121.185 25.008C121.281 25.296 121.425 25.584 121.665 25.824C121.665 25.872 121.857 25.776 121.953 25.68V25.728C121.953 25.776 121.953 25.776 122.001 25.776L122.193 26.16C122.241 26.256 122.433 26.304 122.385 26.448V26.64C122.337 26.832 122.337 27.024 122.385 27.216C122.433 27.36 122.529 27.552 122.769 27.6C122.817 27.648 122.913 27.6 122.961 27.6C123.201 27.648 123.009 28.032 122.961 28.176C122.913 28.464 123.009 28.752 123.393 28.8C123.441 28.848 123.489 28.848 123.585 28.8C123.537 28.8 123.537 28.848 123.537 28.848V29.184C123.489 29.088 123.393 28.992 123.297 28.896C123.249 28.848 122.961 28.992 122.961 29.04C122.913 29.232 123.009 29.376 123.009 29.52L123.105 30.144C123.105 30.288 123.153 30.432 123.201 30.624C123.249 30.768 123.297 30.912 123.393 31.056L123.681 31.248V32.064C123.681 32.256 123.633 32.448 123.537 32.64C123.489 32.784 123.393 32.976 123.585 33.024C123.681 33.072 123.969 33.024 124.161 32.976V33.072C124.113 33.168 124.113 33.264 124.113 33.36C124.113 33.456 124.161 33.552 124.209 33.696C124.257 33.792 124.305 33.888 124.401 33.984C124.401 34.032 124.593 34.032 124.641 33.984C124.689 33.744 124.737 33.504 124.689 33.312C124.641 33.216 124.689 33.072 124.689 32.976C124.689 32.88 124.593 32.784 124.497 32.736C124.737 32.448 124.737 32.16 124.737 31.92C124.785 31.728 124.785 31.536 124.737 31.344C124.641 31.152 124.449 31.104 124.209 30.96V30.912C124.209 30.816 124.209 30.72 124.257 30.624V30.336C124.257 30.144 124.257 29.952 124.209 29.808C124.161 29.616 124.065 29.472 123.969 29.28C123.873 29.136 123.825 28.944 123.681 28.8H123.585C123.681 28.8 123.777 28.704 123.777 28.656C123.825 28.464 123.633 28.368 123.585 28.272C123.489 28.128 123.489 27.984 123.441 27.888C123.441 27.744 123.393 27.504 123.153 27.504C123.201 27.456 123.249 27.456 123.249 27.408C123.297 27.168 123.009 27.024 122.961 26.784C122.913 26.544 123.009 26.208 122.961 25.968C122.913 25.776 122.673 25.728 122.529 25.632C122.529 25.632 122.529 25.584 122.481 25.584C122.433 25.344 122.481 25.104 122.481 24.864C122.481 24.624 122.433 24.384 122.193 24.288C122.145 24.24 121.905 24.384 121.857 24.432C121.809 24.672 121.953 24.864 121.905 25.056V25.392L121.665 24.816C121.569 24.528 121.425 24.24 121.521 23.856C121.569 23.712 121.521 23.568 121.521 23.472C121.473 23.424 121.473 23.424 121.473 23.376C121.425 23.328 121.425 23.328 121.425 23.28L121.281 23.136C121.185 23.088 121.089 23.04 121.041 22.944C121.041 22.992 121.281 22.848 121.281 22.8ZM122.673 28.896C122.721 28.896 122.913 28.848 122.913 28.8C122.913 28.704 122.913 28.608 122.865 28.512C122.817 28.368 122.673 28.272 122.721 28.128C122.817 27.84 122.817 27.744 122.433 27.696C122.385 27.696 122.241 27.744 122.289 27.792C122.481 27.84 122.577 27.888 122.481 28.08C122.433 28.176 122.337 28.272 122.337 28.368C122.337 28.464 122.385 28.512 122.433 28.56C122.577 28.656 122.577 28.752 122.673 28.896ZM118.641 19.44C118.689 19.44 118.881 19.392 118.833 19.344C118.833 19.296 118.785 19.296 118.785 19.248C118.737 19.248 118.737 19.2 118.689 19.2L118.545 19.008C118.497 19.008 118.401 19.056 118.401 19.104C118.401 19.152 118.449 19.248 118.497 19.296C118.497 19.296 118.545 19.344 118.545 19.392C118.593 19.392 118.593 19.392 118.641 19.44ZM122.097 27.264C122.145 27.264 122.193 27.264 122.193 27.216C122.097 27.072 122.049 26.88 121.905 26.736C121.905 26.688 121.809 26.736 121.809 26.784C121.953 26.928 122.049 27.12 122.097 27.264ZM120.801 22.8C120.897 22.8 120.993 22.848 121.041 22.944C120.993 22.944 120.945 22.896 120.897 22.848C120.849 22.848 120.849 22.8 120.801 22.8ZM124.689 34.08C124.641 34.08 124.641 34.032 124.593 34.032C124.593 34.08 124.641 34.08 124.689 34.08Z" fill="#082A45"/>
</svg>
