<svg width="294" height="46" viewBox="0 0 294 46" fill="none" xmlns="http://www.w3.org/2000/svg">
<path d="M14.112 6.14401C21.504 12.048 17.184 22.512 11.424 27.984C10.8 28.656 9.98398 29.232 9.07198 29.52C8.49598 29.664 7.05598 29.28 6.67198 29.616C5.47198 30.576 6.04798 33.984 6.14398 35.376C6.28798 38.064 8.15998 42.576 4.22398 42.576C2.87998 42.96 1.29598 40.128 1.10398 39.264C0.863978 38.208 1.48798 36.24 1.58398 35.136C2.06398 29.568 1.82398 23.904 1.63198 18.336C1.53598 15.312 -2.19047e-05 7.20001 2.59198 5.13601C3.79198 4.17601 6.86398 4.56001 8.44798 4.36801C10.896 4.12801 12.24 4.65601 14.112 6.14401ZM6.52798 25.344C8.92798 25.68 12.48 18.288 13.104 16.464C13.872 14.112 13.536 9.26401 11.088 7.82401C9.83998 7.10401 8.73598 7.48801 7.58398 8.35201C5.75998 9.64801 5.99998 10.56 6.09598 12.912C6.23998 17.04 6.33598 21.216 6.52798 25.344ZM16.848 15.552C16.944 15.504 16.944 15.504 16.944 15.456C16.944 15.36 16.752 15.312 16.656 15.264V15.216C16.656 15.072 16.56 14.976 16.464 14.832H16.416C16.464 14.928 16.56 15.072 16.56 15.168C16.512 15.12 16.368 15.12 16.32 15.12C16.224 15.168 16.224 15.216 16.32 15.312C16.464 15.408 16.224 15.456 16.224 15.552C16.224 15.696 16.224 15.84 16.176 15.936C16.128 16.032 15.936 16.128 16.08 16.272L16.032 16.32C15.84 16.416 15.744 16.56 15.648 16.656C15.552 16.8 15.36 16.896 15.456 17.088C15.456 17.136 15.504 17.184 15.504 17.232C15.504 17.28 15.36 17.328 15.312 17.376C15.264 17.472 15.216 17.568 15.216 17.664C15.264 17.76 15.264 17.856 15.216 17.904C15.168 18 15.024 18.048 14.928 18.144C14.736 18.24 14.688 18.432 14.592 18.576C14.448 18.768 14.352 18.96 14.352 19.2C14.352 19.248 14.496 19.344 14.592 19.344C14.592 19.344 14.592 19.392 14.64 19.392C14.592 19.488 14.544 19.584 14.544 19.68C14.496 19.728 14.64 19.92 14.496 19.92C14.448 19.968 14.4 19.968 14.352 19.968C14.208 20.064 14.064 20.112 13.968 20.208C13.92 20.352 13.872 20.448 14.016 20.64C14.016 20.688 14.112 20.736 14.16 20.736C14.304 20.928 13.872 20.928 13.776 20.976C13.584 21.072 13.488 21.216 13.68 21.504C13.728 21.6 14.016 21.744 14.064 21.696C14.208 21.648 14.112 21.504 14.16 21.408L14.304 21.168C14.4 21.12 14.544 21.024 14.352 20.832C14.4 20.88 14.448 20.88 14.496 20.88C14.64 20.784 14.592 20.544 14.688 20.4C14.784 20.256 15.072 20.208 15.216 20.064C15.264 19.968 15.168 19.824 15.12 19.68V19.632C15.312 19.392 15.888 19.296 15.744 18.912C15.744 18.864 15.456 18.768 15.408 18.768C15.216 18.816 15.216 18.96 15.072 19.056C14.976 19.104 14.88 19.152 14.832 19.152L15.024 18.816C15.168 18.624 15.264 18.432 15.552 18.336C15.792 18.24 15.888 18.096 15.84 17.856C15.792 17.76 15.792 17.664 15.792 17.568C15.792 17.616 15.84 17.664 15.84 17.664C15.792 17.712 16.032 17.76 16.08 17.76C16.176 17.712 16.08 17.568 15.984 17.424C15.84 17.28 15.84 17.136 15.888 17.04C15.984 17.088 16.08 17.088 16.128 17.088C16.272 17.088 16.176 17.04 16.176 16.992C16.128 16.848 16.08 16.752 16.128 16.656H16.08C16.176 16.56 16.272 16.464 16.32 16.368H16.464C16.608 16.32 16.608 16.176 16.704 16.08C16.752 15.984 16.752 15.84 16.752 15.744C16.8 15.648 16.752 15.6 16.848 15.552ZM13.776 22.08C13.824 21.984 13.92 21.888 13.92 21.696C13.92 21.696 13.824 21.648 13.776 21.648L13.536 21.792C13.584 21.696 13.584 21.6 13.536 21.504C13.536 21.408 13.296 21.312 13.248 21.312C13.104 21.36 13.056 21.456 12.96 21.552L12.672 21.84C12.48 22.032 12.336 22.176 12.336 22.416C12.336 22.512 12.384 22.608 12.432 22.704C12.384 22.704 12.336 22.752 12.288 22.8C12.144 22.848 12.048 22.944 11.904 23.04C11.808 23.088 11.664 23.184 11.472 23.184C11.376 23.184 11.184 23.232 11.28 23.376C11.328 23.472 11.52 23.664 11.712 23.76V23.808C11.616 23.808 11.568 23.856 11.472 23.856C11.376 23.952 11.376 24.192 11.376 24.384C11.376 24.432 11.52 24.528 11.568 24.528C11.712 24.48 11.856 24.384 11.952 24.24C11.952 24.192 12.048 24.144 12.096 24.096C12.192 24.048 12.144 23.952 12.144 23.856C12.432 23.904 12.624 23.76 12.768 23.712C12.912 23.664 13.008 23.568 13.056 23.424C13.152 23.328 13.056 23.136 12.96 22.944C13.104 22.848 13.248 22.8 13.344 22.704C13.44 22.656 13.584 22.56 13.632 22.464C13.728 22.32 13.728 22.224 13.776 22.08ZM13.584 20.4C13.68 20.544 13.68 20.592 13.536 20.64H13.248C13.152 20.688 13.152 20.736 13.2 20.784C13.2 20.928 13.152 20.976 13.152 21.072C13.152 21.12 13.344 21.216 13.344 21.216L13.536 21.072C13.584 20.976 13.536 20.832 13.68 20.832C13.872 20.736 13.968 20.736 13.728 20.448C13.68 20.448 13.536 20.352 13.584 20.4ZM16.32 14.256C16.272 14.352 16.368 14.448 16.416 14.592C16.464 14.592 16.656 14.592 16.656 14.544C16.656 14.544 16.656 14.496 16.608 14.496V14.448L16.56 14.4C16.56 14.352 16.512 14.304 16.464 14.256H16.32ZM13.872 19.68C13.872 19.824 13.824 19.968 13.776 20.064C13.776 20.112 13.824 20.112 13.824 20.112C13.92 19.968 13.968 19.872 13.968 19.728L13.872 19.68ZM11.52 24.624H11.568C11.52 24.576 11.52 24.576 11.52 24.528H11.472C11.472 24.576 11.472 24.576 11.52 24.624ZM15.744 17.472C15.744 17.52 15.744 17.568 15.792 17.568C15.792 17.52 15.744 17.52 15.744 17.472ZM37.2622 36.96C38.1742 38.928 42.3982 43.632 39.3262 44.448C36.2542 45.264 34.7182 40.944 33.5182 38.832C32.6062 37.248 30.5902 30.096 28.6702 30.144C28.5262 32.448 28.1902 35.04 28.9582 37.296C29.4862 38.976 30.8782 41.184 28.9582 42.48C23.9182 45.888 24.2062 33.504 24.1582 31.632C24.0622 26.976 24.6382 22.272 24.6862 17.616C24.6862 14.64 24.8302 11.664 24.8302 8.73601C24.7822 6.19201 24.1102 4.75201 25.9342 2.78401C27.4702 3.07201 28.6222 3.36001 30.0622 3.07201C31.8382 2.64001 32.8462 2.06401 34.7662 3.07201C37.7902 4.65601 38.2702 8.40001 38.4142 11.472C38.6542 15.264 38.0782 19.008 36.3022 22.464C35.0062 24.96 31.7422 25.872 33.0862 28.752C34.3342 31.536 35.9662 34.176 37.2622 36.96ZM29.1022 23.712C32.4622 22.032 36.9262 7.10401 31.9822 6.86401C27.5662 6.67201 29.1022 21.12 29.1022 23.712ZM26.9902 31.776H26.9422V31.728C27.0862 31.488 27.5182 31.248 27.2782 31.008C27.2302 30.96 26.9422 31.008 26.8942 31.008C26.7022 31.152 26.7982 31.248 26.6542 31.344L26.5102 31.536C26.5102 31.392 26.5102 31.296 26.5582 31.152C26.6062 31.008 26.6062 30.816 26.8462 30.624C27.0382 30.48 27.0382 30.384 26.9422 30.24C26.8462 30.144 26.8462 30.048 26.7502 30C26.7502 30 26.7502 29.952 26.7022 29.952C26.7982 30 26.8462 30.048 26.8462 30.048C26.8462 30.096 27.0862 30.096 27.0862 30.048C27.1822 30 27.0382 29.904 26.8942 29.856C26.7502 29.76 26.7022 29.664 26.6542 29.568H26.9422C27.0382 29.52 26.9422 29.472 26.9422 29.424C26.8462 29.376 26.7502 29.328 26.7982 29.232H26.7502C26.7502 29.136 26.8462 29.04 26.8462 28.944H26.9902C27.1342 28.848 27.0862 28.752 27.1342 28.704C27.1822 28.608 27.1342 28.512 27.1342 28.416C27.1342 28.368 27.0862 28.32 27.1822 28.272C27.2302 28.272 27.2782 28.224 27.2302 28.224C27.2302 28.176 27.0382 28.128 26.9422 28.128V28.08C26.9422 27.984 26.7982 27.888 26.7022 27.84H26.6542L26.8462 28.032C26.7502 28.032 26.6542 28.032 26.6062 28.08C26.5102 28.128 26.4622 28.128 26.6062 28.176C26.7502 28.272 26.5102 28.32 26.5582 28.416C26.5582 28.512 26.6062 28.608 26.5582 28.704C26.5582 28.752 26.4142 28.848 26.6062 28.944L26.5582 28.992C26.4142 29.136 26.3662 29.232 26.3182 29.376C26.2702 29.472 26.1262 29.664 26.2702 29.76C26.3182 29.76 26.3662 29.808 26.4142 29.808C26.3662 29.808 26.3662 29.808 26.3662 29.856C26.4142 29.904 26.3182 29.952 26.2702 30C26.2702 30.096 26.2702 30.144 26.3182 30.24C26.3662 30.336 26.3662 30.384 26.3662 30.432C26.3662 30.528 26.2702 30.624 26.1742 30.72C26.0782 30.864 26.0782 31.008 26.0782 31.152C26.0302 31.344 25.9822 31.488 26.0782 31.68C26.1262 31.728 26.3182 31.728 26.4142 31.68V31.728C26.4142 31.824 26.4142 31.92 26.4622 31.968C26.4622 32.016 26.6062 32.112 26.5102 32.16C26.5102 32.208 26.4622 32.256 26.4142 32.256L26.1742 32.592C26.1742 32.688 26.1742 32.784 26.4142 32.88H26.5582C26.7982 32.976 26.4142 33.12 26.3182 33.216C26.1742 33.36 26.1742 33.504 26.5102 33.648C26.5582 33.648 26.8942 33.648 26.9422 33.6C27.0382 33.552 26.8942 33.456 26.8942 33.36C26.8462 33.312 26.8942 33.216 26.8942 33.168C26.9422 33.072 26.9902 32.928 26.7982 32.88H26.9422C27.0382 32.736 26.8462 32.592 26.8942 32.496C26.9422 32.352 27.1822 32.208 27.2302 32.016C27.2302 31.968 27.0862 31.872 26.9902 31.776ZM26.8942 35.52C26.9422 35.424 26.9902 35.328 26.9902 35.184C26.9422 35.088 26.7982 35.04 26.6062 34.944V34.896C26.7502 34.704 26.8942 34.512 26.9422 34.32C26.9422 34.176 26.8942 34.08 26.8462 33.984C26.8462 33.888 26.8942 33.792 26.7982 33.696C26.7982 33.648 26.6542 33.648 26.6542 33.696L26.5102 33.888C26.5102 33.792 26.4622 33.744 26.3662 33.648H26.0302C25.9342 33.744 25.9342 33.84 25.8862 33.936C25.8862 34.08 25.8382 34.176 25.7902 34.32C25.6942 34.464 25.6942 34.656 25.7902 34.848L26.0302 34.992L25.9342 35.136C25.8382 35.376 25.7902 35.568 25.5022 35.808C25.4542 35.904 25.3582 36 25.5022 36.048C25.5982 36.096 25.9342 36.096 26.0782 36.048V36.096C26.0302 36.144 25.9822 36.192 25.9822 36.288C25.9342 36.384 26.0782 36.528 26.1742 36.672H26.3662C26.4142 36.72 26.4142 36.72 26.4622 36.72L26.4142 36.672C26.5102 36.528 26.6062 36.384 26.5582 36.288C26.5582 36.24 26.6062 36.144 26.6062 36.096C26.6062 36.048 26.5102 36 26.4622 35.952C26.7502 35.808 26.7982 35.616 26.8942 35.52ZM25.6942 33.168C25.6462 33.216 25.6942 33.264 25.7422 33.312L25.8382 33.552H26.0782C26.1262 33.456 26.1262 33.408 26.1262 33.36C26.1742 33.264 26.0782 33.216 26.1742 33.12C26.3182 33.024 26.4142 32.928 26.0302 32.832C26.0302 32.832 25.8382 32.832 25.8862 32.88C26.0302 32.928 26.0782 32.976 25.9342 33.072C25.8382 33.12 25.7422 33.12 25.6942 33.168ZM26.5582 27.408C26.5102 27.504 26.5582 27.552 26.6542 27.648H26.8942L26.7022 27.408C26.7022 27.36 26.5582 27.408 26.5582 27.408ZM25.9822 32.208H25.8382C25.8862 32.352 25.9342 32.448 25.9342 32.544H25.9822C25.9822 32.448 26.0302 32.352 25.9822 32.208ZM52.1745 13.488C51.9825 17.136 51.9345 20.784 52.0305 24.432C52.1265 30.384 52.4625 36.624 51.7425 42.24C51.6945 42.72 49.8705 42.144 49.8705 42.384C45.7905 42.144 46.9905 38.064 47.1345 35.04C47.2785 30.816 46.9905 26.688 47.1825 22.512C47.3745 18.432 47.1825 14.304 47.3265 10.176C47.4705 5.76001 45.9345 1.82401 51.7425 2.44801C51.5025 2.49601 51.2145 2.54401 50.9745 2.64001C53.6625 5.04001 52.3185 10.224 52.1745 13.488ZM50.7825 10.08C50.8305 10.032 50.8785 9.98401 50.8785 9.93601C50.8785 9.88801 50.6865 9.84001 50.5425 9.79201V9.74401C50.5425 9.64801 50.4465 9.50401 50.3505 9.40801H50.3025C50.3025 9.50401 50.4465 9.60001 50.4465 9.74401C50.3985 9.69601 50.2545 9.69601 50.2545 9.74401C50.1105 9.79201 50.1105 9.84001 50.2065 9.88801C50.3985 9.98401 50.1585 10.08 50.1585 10.176C50.2065 10.32 50.2065 10.464 50.1585 10.608C50.1585 10.704 50.0145 10.848 50.1585 10.944C50.1585 10.944 50.2065 10.944 50.2065 10.992H50.1585C49.9665 11.184 49.9185 11.376 49.8705 11.52C49.8225 11.664 49.6785 11.904 49.8225 12.048C49.8705 12.096 49.9185 12.096 49.9185 12.144C49.9185 12.24 49.8225 12.336 49.8225 12.384C49.7745 12.528 49.7745 12.624 49.8225 12.72C49.8705 12.816 49.8705 12.912 49.8705 13.008C49.8705 13.152 49.7745 13.248 49.6785 13.344C49.5345 13.536 49.5345 13.776 49.5345 13.968C49.4865 14.208 49.4385 14.448 49.5345 14.688C49.5345 14.736 49.7265 14.784 49.8225 14.784H49.8705C49.8225 14.928 49.8225 15.024 49.8705 15.12C49.8705 15.216 50.0145 15.312 49.9185 15.408C49.9185 15.456 49.8705 15.504 49.8225 15.552C49.7265 15.696 49.5825 15.792 49.5825 15.936C49.5825 16.08 49.5825 16.272 49.7745 16.368C49.7745 16.416 49.8705 16.416 49.9185 16.416C50.1105 16.512 49.7745 16.752 49.6785 16.848C49.5345 17.04 49.5345 17.232 49.8225 17.424C49.9185 17.472 50.2065 17.472 50.2545 17.424C50.3505 17.328 50.2065 17.184 50.2065 17.088C50.2065 16.992 50.2065 16.896 50.2545 16.8C50.3025 16.656 50.3505 16.512 50.1585 16.416C50.2065 16.416 50.2545 16.416 50.3025 16.368C50.3985 16.224 50.2065 16.032 50.2545 15.84C50.3025 15.648 50.5905 15.456 50.6385 15.264C50.6865 15.168 50.4945 15.024 50.3985 14.88V14.832C50.4945 14.496 50.9745 14.208 50.7345 13.824C50.6865 13.776 50.3985 13.824 50.3505 13.824C50.1585 13.968 50.2545 14.16 50.1105 14.304L49.9665 14.496C49.9665 14.352 49.9665 14.16 50.0145 14.016C50.0625 13.776 50.0625 13.536 50.3505 13.296C50.5425 13.104 50.5425 12.96 50.4465 12.72C50.3985 12.672 50.3505 12.624 50.3505 12.576C50.3985 12.576 50.5905 12.576 50.6385 12.528C50.7345 12.432 50.5905 12.288 50.4465 12.192C50.2545 12.096 50.2545 11.952 50.2065 11.856C50.3025 11.856 50.4465 11.808 50.4945 11.808C50.5905 11.76 50.4945 11.712 50.4945 11.664C50.3985 11.568 50.3025 11.472 50.3505 11.376C50.3505 11.376 50.3505 11.328 50.3025 11.328L50.4465 10.992C50.4945 10.992 50.5425 10.992 50.5905 10.944C50.7345 10.848 50.6865 10.752 50.7345 10.656C50.7825 10.512 50.7345 10.368 50.7345 10.272C50.7345 10.176 50.6865 10.128 50.7825 10.08ZM50.1105 20.064C50.2065 19.92 50.2545 19.776 50.2545 19.632C50.2065 19.488 50.0625 19.344 49.8705 19.2C50.0145 18.912 50.2065 18.624 50.2065 18.384C50.2065 18.24 50.2065 18.096 50.1585 17.952C50.1585 17.808 50.2065 17.664 50.1105 17.52C50.1105 17.472 49.9665 17.472 49.9665 17.52L49.8225 17.76C49.8225 17.664 49.7745 17.568 49.6785 17.424H49.3425C49.2465 17.568 49.2465 17.712 49.1985 17.808L49.0545 18.288C49.0065 18.576 48.9585 18.816 49.0545 19.056C49.1025 19.152 49.1985 19.248 49.2945 19.296L49.1985 19.44C49.1025 19.776 49.0545 20.064 48.7665 20.4C48.6705 20.496 48.5745 20.64 48.7185 20.736C48.8625 20.784 49.1505 20.784 49.3425 20.736C49.3425 20.784 49.2945 20.784 49.2945 20.832C49.2465 20.88 49.1985 20.976 49.1985 21.024C49.1505 21.216 49.2945 21.408 49.3905 21.6C49.4385 21.6 49.6305 21.648 49.6785 21.6C49.7265 21.408 49.8225 21.264 49.7745 21.072C49.7745 20.976 49.8225 20.88 49.8225 20.832C49.8705 20.736 49.7745 20.688 49.6785 20.592C49.9665 20.448 50.0145 20.208 50.1105 20.064ZM49.0545 16.752C49.0065 16.8 49.0065 16.896 49.0545 16.944C49.1505 17.04 49.1025 17.136 49.1505 17.232C49.1985 17.28 49.3905 17.28 49.3905 17.28C49.4385 17.184 49.4865 17.088 49.4865 17.04C49.4865 16.896 49.3905 16.8 49.4865 16.704C49.6785 16.56 49.7745 16.464 49.3905 16.32H49.2465C49.3905 16.416 49.4385 16.512 49.2945 16.608L49.0545 16.752ZM50.2065 8.83201C50.1585 8.92801 50.2545 9.02401 50.3025 9.16801H50.5425L50.3985 8.83201C50.3505 8.78401 50.2065 8.78401 50.2065 8.83201ZM49.3905 15.456C49.3425 15.408 49.2465 15.408 49.2465 15.456C49.2945 15.6 49.2945 15.744 49.2945 15.888H49.3905V15.456ZM50.2545 12.336C50.3505 12.384 50.3985 12.48 50.3505 12.528C50.3025 12.48 50.3025 12.432 50.3025 12.384C50.3025 12.384 50.2545 12.384 50.2545 12.336ZM49.6785 21.696C49.7265 21.696 49.7265 21.648 49.7265 21.648H49.5825C49.6305 21.648 49.6305 21.696 49.6785 21.696ZM79.5371 4.08001C81.1211 5.95201 79.1051 8.44801 78.3851 10.08C76.4171 14.4 75.5051 19.248 74.3531 23.808C73.2491 28.272 71.5691 32.976 71.1371 37.584C70.9931 39.216 71.8571 41.76 70.6571 43.008C68.7371 45.072 66.0491 42.576 64.7531 41.328C65.6651 40.128 64.7051 37.44 64.5131 36.096C64.2251 33.984 64.0331 31.872 63.8411 29.76C63.4091 25.92 62.8331 22.128 61.9691 18.336C61.5371 16.32 61.0571 14.304 60.4331 12.336C60.0011 11.04 60.0011 10.128 59.7131 8.83201C59.5691 8.01601 57.7931 5.85601 57.9851 5.18401C58.2731 4.12801 61.2971 3.40801 62.0651 3.40801C67.2971 3.40801 66.5771 13.344 67.1051 17.28C67.4411 19.728 67.9211 22.224 68.0651 24.72C68.2091 26.688 67.6811 30.816 68.7371 32.544C70.4651 32.016 71.1851 20.544 71.5211 18.96C72.3371 15.264 73.2491 11.424 74.4011 7.77601C75.0731 5.76001 77.0411 0.960009 79.5371 4.08001ZM62.7371 10.512C62.6891 10.704 62.7371 10.848 62.7371 11.04C62.7851 11.232 62.7851 11.472 62.9291 11.664C62.9771 11.664 63.1691 11.616 63.2651 11.568V11.616C63.2651 11.712 63.3131 11.808 63.3611 11.904C63.3611 11.952 63.5531 12.048 63.4571 12.096C63.4571 12.096 63.4571 12.144 63.5051 12.144C63.4571 12.144 63.4091 12.192 63.4091 12.24C63.3131 12.384 63.2171 12.528 63.2651 12.672C63.2651 12.768 63.3131 12.912 63.5051 12.96H63.6971C63.8891 13.008 63.6011 13.248 63.5531 13.344C63.4091 13.536 63.4571 13.728 63.7931 13.824C63.8411 13.824 64.1771 13.776 64.2251 13.728C64.2731 13.632 64.1291 13.536 64.0811 13.44V13.2C64.0811 13.104 64.1291 12.96 63.9371 12.912C63.9851 12.912 64.0331 12.864 64.0331 12.864C64.1291 12.672 63.8891 12.576 63.8891 12.384C63.8891 12.24 64.1291 12 64.1291 11.808C64.1291 11.712 63.9371 11.664 63.8411 11.568H63.7931V11.52C63.8411 11.232 64.2251 10.8 63.8891 10.608C63.8411 10.56 63.5531 10.656 63.5531 10.704C63.4091 10.848 63.4571 10.992 63.4091 11.136C63.3611 11.232 63.3131 11.28 63.3131 11.376C63.2651 11.232 63.2651 11.088 63.2651 10.944C63.2171 10.752 63.1691 10.512 63.3611 10.272C63.5051 10.032 63.4571 9.88801 63.3131 9.74401L63.0731 9.55201L63.0251 9.50401C63.1211 9.50401 63.1691 9.55201 63.1691 9.60001C63.1691 9.64801 63.4091 9.55201 63.4571 9.55201C63.5051 9.40801 63.3131 9.36001 63.1691 9.31201C62.9771 9.31201 62.8811 9.21601 62.8811 9.12001L63.1211 8.97601C63.2171 8.92801 63.1211 8.88001 63.0731 8.88001C62.9771 8.83201 62.8331 8.78401 62.8331 8.68801C62.8331 8.64001 62.8331 8.64001 62.7851 8.68801C62.7851 8.54401 62.8331 8.44801 62.8331 8.35201C62.8811 8.30401 62.9291 8.30401 62.9291 8.25601C63.0731 8.16001 62.9771 8.06401 62.9771 7.96801C63.0251 7.82401 62.9291 7.72801 62.8811 7.63201C62.8331 7.58401 62.8331 7.53601 62.8811 7.44001C62.9291 7.39201 62.9291 7.39201 62.9291 7.34401C62.8811 7.29601 62.6891 7.34401 62.5931 7.34401C62.5931 7.34401 62.5931 7.29601 62.5451 7.29601C62.5451 7.20001 62.3531 7.15201 62.2571 7.10401C62.2571 7.05601 62.2091 7.10401 62.2091 7.10401C62.2571 7.20001 62.4011 7.20001 62.4491 7.29601C62.4011 7.29601 62.2571 7.34401 62.2571 7.39201C62.1611 7.48801 62.1611 7.53601 62.3051 7.53601C62.4971 7.53601 62.2571 7.72801 62.3051 7.77601C62.4011 7.87201 62.4491 7.96801 62.4491 8.11201C62.4491 8.20801 62.3531 8.35201 62.5451 8.40001H62.5931L62.5451 8.44801C62.4491 8.64001 62.4491 8.83201 62.4491 8.97601C62.4491 9.12001 62.3531 9.31201 62.5451 9.40801C62.5931 9.40801 62.6411 9.45601 62.6891 9.45601H62.6411C62.6891 9.50401 62.6411 9.60001 62.6411 9.69601C62.6411 9.79201 62.6411 9.88801 62.7371 9.93601L62.8811 10.176C62.8811 10.272 62.7851 10.368 62.7371 10.512ZM64.4651 15.984C64.5131 15.84 64.5611 15.744 64.5131 15.6C64.5131 15.504 64.3211 15.408 64.1291 15.312C64.1771 15.024 64.3691 14.784 64.3211 14.544C64.3211 14.4 64.2731 14.304 64.2251 14.208C64.1771 14.064 64.1771 13.92 64.0811 13.824C64.0811 13.824 63.9371 13.824 63.9371 13.872C63.8891 13.92 63.8891 14.016 63.8411 14.112C63.8411 14.016 63.7931 13.92 63.6491 13.872C63.6011 13.824 63.3611 13.92 63.3131 13.92C63.2651 14.064 63.2651 14.16 63.2651 14.304L63.1691 14.688C63.1691 14.928 63.1691 15.168 63.3131 15.36L63.5531 15.504C63.5051 15.552 63.5051 15.6 63.5051 15.648C63.4091 15.936 63.4091 16.176 63.1691 16.464C63.0731 16.56 62.9771 16.704 63.1691 16.752C63.2651 16.8 63.6011 16.752 63.7451 16.704V16.752C63.6971 16.8 63.6491 16.896 63.6491 16.944C63.6491 17.088 63.7931 17.28 63.9371 17.376C63.9371 17.424 64.1291 17.376 64.1771 17.376C64.2251 17.232 64.2731 17.04 64.2251 16.896C64.2251 16.848 64.2731 16.752 64.2731 16.704C64.2731 16.608 64.1771 16.56 64.1291 16.512C64.3691 16.368 64.4171 16.128 64.4651 15.984ZM62.9291 13.584C63.0251 13.632 63.0251 13.728 63.1211 13.824C63.1211 13.824 63.3131 13.824 63.3131 13.776C63.3611 13.68 63.3611 13.632 63.3611 13.584C63.3611 13.488 63.2651 13.392 63.3611 13.296C63.4571 13.152 63.5531 13.056 63.1691 13.008C63.1211 13.008 62.9771 13.008 63.0251 13.056C63.1691 13.104 63.2171 13.152 63.1211 13.248L62.8811 13.44C62.8811 13.488 62.8811 13.536 62.9291 13.584ZM62.1131 6.91201C62.1611 6.91201 62.3531 6.86401 62.3531 6.81601C62.3051 6.72001 62.1611 6.67201 62.1131 6.62401C62.0651 6.57601 61.9211 6.67201 61.9691 6.67201H61.9211C61.9211 6.76801 62.0171 6.86401 62.1131 6.91201ZM62.9291 12.288H62.8331L62.9771 12.672H63.0731C63.0251 12.528 63.0251 12.384 62.9291 12.288ZM99.5827 40.992V41.136C98.3347 42.096 96.7027 42.72 95.5987 41.904C95.1667 41.616 94.7347 39.744 94.7347 38.592C94.7827 37.2 94.4947 35.952 94.1587 34.656C93.0067 35.28 91.8547 35.52 90.7027 36.096C88.8307 37.008 89.6947 35.712 89.3107 37.872C89.0707 39.36 89.4547 40.848 88.6387 41.952C87.4867 43.488 85.8067 43.008 84.8467 41.808C83.5987 40.32 83.8867 38.16 83.9827 36.336C84.3187 30.816 86.0467 25.344 87.1987 19.92C88.0627 15.648 88.9267 11.376 90.2227 7.24801C90.7987 5.47201 91.0867 4.32001 93.1027 3.79201C94.7827 3.36001 96.6547 3.74401 97.1827 5.52001C97.2787 5.85601 96.5107 8.20801 96.4627 8.59201C96.4147 9.69601 96.6067 10.848 96.7027 11.952C96.8467 14.352 96.7507 16.8 96.8947 19.2C97.0867 22.656 96.8467 24.288 97.3267 27.696C97.6147 29.664 98.1907 32.976 98.2867 34.992C98.4307 37.056 99.4867 39.072 99.5827 40.992ZM90.2707 31.104C94.6387 31.104 94.0627 28.8 93.9187 25.104C93.8227 21.744 94.3027 17.568 93.1027 14.4C92.0467 15.12 91.8067 20.592 91.5187 21.936C90.9427 24.96 90.4627 28.032 90.2707 31.104ZM88.9747 26.976C89.0227 26.88 89.1667 26.736 88.9747 26.64C88.8787 26.592 88.5427 26.592 88.3987 26.64V26.592C88.4467 26.496 88.4947 26.4 88.4947 26.352C88.4947 26.256 88.4467 26.16 88.3987 26.064C88.3507 25.968 88.2547 25.872 88.1587 25.824C88.1587 25.776 87.9667 25.824 87.9667 25.872C87.8707 26.064 87.8707 26.208 87.9187 26.352C87.9187 26.448 87.8707 26.544 87.8707 26.592C87.8707 26.688 87.9667 26.736 88.0147 26.784C87.7267 26.976 87.6787 27.168 87.5827 27.312C87.4867 27.408 87.4387 27.552 87.4387 27.696C87.4387 27.84 87.6307 27.936 87.7747 28.08V28.128C87.6307 28.368 87.4387 28.608 87.3907 28.848C87.3427 28.992 87.3907 29.136 87.3907 29.232C87.3907 29.376 87.3427 29.52 87.3907 29.664C87.3907 29.664 87.3907 29.712 87.4387 29.712H87.2467C87.1507 29.808 87.2947 29.952 87.2947 30.048L87.1987 30.336C87.1507 30.384 87.0547 30.576 87.2947 30.672H87.1507C87.0067 30.816 87.1507 31.008 87.1027 31.152C87.0547 31.344 86.7667 31.488 86.6707 31.68C86.6227 31.776 86.8147 31.92 86.8627 32.016C86.8627 32.064 86.8627 32.064 86.9107 32.064L86.8627 32.112C86.7187 32.4 86.1907 32.64 86.4307 32.976C86.4787 33.024 86.7667 33.072 86.8147 33.024C87.0067 32.928 86.9587 32.784 87.1027 32.64L87.2947 32.448L87.1507 32.88C87.0547 33.12 87.0547 33.36 86.7667 33.504C86.5267 33.648 86.4787 33.84 86.5747 34.032L86.7187 34.368V34.416C86.6707 34.368 86.6227 34.272 86.6227 34.224C86.6227 34.224 86.4307 34.176 86.3827 34.176C86.2867 34.272 86.3827 34.416 86.5267 34.512C86.6707 34.656 86.7187 34.752 86.6707 34.896C86.5747 34.848 86.4787 34.848 86.4307 34.896C86.3347 34.896 86.3827 34.992 86.4307 34.992C86.4787 35.088 86.5747 35.232 86.4787 35.28C86.4787 35.328 86.5267 35.328 86.5267 35.328C86.4787 35.424 86.4307 35.52 86.3347 35.616H86.1907C86.0467 35.712 86.0947 35.808 85.9987 35.904C85.9507 36 85.9507 36.144 85.9507 36.24C85.9507 36.336 85.9507 36.384 85.8547 36.432C85.8067 36.432 85.7587 36.48 85.7587 36.48C85.7587 36.576 85.9507 36.624 86.0467 36.672V36.72C86.0467 36.864 86.1427 36.96 86.1907 37.104H86.2387C86.2387 37.008 86.1427 36.864 86.1427 36.768C86.1907 36.816 86.3347 36.816 86.3827 36.816C86.4787 36.768 86.5267 36.768 86.4307 36.672C86.2387 36.528 86.5267 36.528 86.5267 36.432C86.5267 36.288 86.5267 36.144 86.5747 36.048C86.5747 35.952 86.7667 35.856 86.6227 35.712H86.5747L86.6707 35.664C86.8147 35.52 86.9107 35.376 87.0067 35.232C87.0547 35.088 87.2467 34.896 87.1027 34.752C87.1027 34.704 87.0547 34.656 87.0067 34.656C87.0547 34.656 87.0547 34.656 87.0547 34.608C87.0547 34.56 87.1507 34.512 87.1507 34.416C87.1987 34.32 87.2467 34.224 87.1987 34.128C87.1987 34.032 87.1507 33.936 87.1987 33.84C87.1987 33.744 87.3427 33.648 87.4387 33.552C87.5827 33.408 87.5827 33.216 87.6307 33.024C87.7267 32.784 87.7747 32.544 87.7267 32.304C87.7267 32.256 87.4867 32.256 87.3907 32.256C87.4387 32.208 87.4387 32.208 87.3907 32.208C87.4387 32.112 87.4387 31.968 87.4387 31.872C87.4387 31.824 87.2947 31.68 87.3907 31.632L87.4867 31.536C87.6307 31.392 87.7747 31.296 87.8227 31.152C87.8227 31.008 87.8227 30.864 87.6787 30.72C87.6307 30.72 87.5827 30.72 87.4867 30.672C87.2947 30.576 87.6787 30.384 87.7747 30.336C87.9667 30.144 87.9667 29.952 87.6787 29.76C87.6307 29.76 87.5827 29.712 87.4867 29.712L87.5347 29.664L87.6787 29.472C87.6787 29.568 87.7267 29.712 87.8227 29.76C87.8707 29.808 88.1107 29.808 88.1587 29.76C88.2547 29.664 88.3027 29.568 88.3507 29.424L88.4947 28.992C88.5907 28.752 88.6867 28.512 88.5907 28.272C88.5427 28.272 88.5427 28.224 88.5427 28.224V28.176H88.4947L88.3987 28.032C88.3987 27.984 88.4467 27.936 88.4467 27.888C88.5907 27.6 88.6867 27.312 88.9747 26.976ZM88.3987 30.432C88.4467 30.384 88.4467 30.336 88.3987 30.288C88.3507 30.192 88.3507 30.096 88.3507 30C88.3027 29.952 88.1107 29.904 88.1107 29.952C88.0627 30 88.0147 30.096 88.0147 30.144C87.9667 30.24 88.0627 30.384 87.9187 30.432C87.7747 30.576 87.6787 30.672 88.0147 30.816C88.0147 30.864 88.2067 30.864 88.1587 30.816C88.0147 30.72 87.9667 30.672 88.1587 30.576C88.2547 30.528 88.3507 30.528 88.3987 30.432ZM86.2387 37.68C86.2867 37.584 86.2387 37.44 86.1907 37.344C86.1907 37.296 85.9987 37.248 85.9987 37.296C85.9987 37.392 86.0467 37.536 86.0467 37.632C86.0947 37.632 86.2387 37.68 86.2387 37.68ZM87.9667 31.68H88.0627V31.248C88.0627 31.2 88.0147 31.2 87.9667 31.2C87.9667 31.344 87.9187 31.488 87.9667 31.68ZM87.8707 25.824H87.9667C87.9667 25.824 87.9667 25.776 87.8707 25.824ZM122.977 27.984C123.505 30.576 121.009 34.608 120.721 37.296C120.433 40.128 120.145 40.368 117.601 41.52C114.961 42.672 111.985 43.728 109.297 41.856C105.457 39.216 107.137 31.968 106.657 27.888C105.889 21.888 105.889 13.728 107.761 7.92001C109.777 1.72801 116.641 6.67572e-06 121.537 4.12801C121.537 4.12801 121.585 4.17601 121.633 4.17601C121.729 7.20001 124.417 19.008 119.713 18.72C115.825 18.48 116.785 15.792 116.929 13.296C117.025 11.52 117.313 5.90401 114.625 6.19201C110.401 6.62401 112.177 17.616 111.937 20.496C111.745 23.568 111.361 26.064 111.793 29.136C112.129 31.824 111.265 35.136 113.233 37.296C117.505 41.904 118.129 30.432 118.657 28.32C118.945 27.168 118.897 26.448 120.001 26.112C121.249 25.68 122.737 26.928 122.977 27.984ZM109.441 29.76C109.489 29.52 109.537 29.232 109.393 28.992C109.393 28.944 109.201 28.944 109.057 28.992V28.944C109.105 28.944 109.153 28.944 109.057 28.896C109.105 28.8 109.105 28.704 109.057 28.608C109.057 28.512 108.865 28.368 108.961 28.32C109.009 28.272 109.057 28.224 109.057 28.176C109.201 28.032 109.297 27.888 109.297 27.744C109.345 27.648 109.297 27.456 109.105 27.36C109.105 27.312 109.009 27.312 108.913 27.312C108.721 27.216 109.105 26.976 109.153 26.88C109.345 26.688 109.345 26.448 109.009 26.304C108.961 26.256 108.625 26.256 108.577 26.304C108.481 26.448 108.625 26.544 108.625 26.64C108.625 26.736 108.625 26.88 108.577 26.976C108.577 27.072 108.481 27.216 108.721 27.312C108.673 27.312 108.625 27.312 108.577 27.36C108.481 27.504 108.673 27.696 108.625 27.888C108.577 28.08 108.337 28.272 108.289 28.512C108.241 28.608 108.433 28.752 108.529 28.848V28.896C108.433 29.232 107.953 29.568 108.241 29.904C108.289 29.952 108.577 29.952 108.625 29.904C108.769 29.76 108.721 29.616 108.817 29.424L109.009 29.232C108.961 29.376 108.961 29.568 108.961 29.712C108.913 29.952 108.913 30.192 108.673 30.432C108.481 30.624 108.481 30.816 108.577 31.008C108.673 31.104 108.721 31.248 108.769 31.344L108.817 31.392C108.721 31.344 108.673 31.296 108.673 31.248C108.673 31.2 108.433 31.2 108.433 31.248C108.337 31.344 108.481 31.44 108.625 31.536C108.817 31.632 108.865 31.776 108.865 31.92C108.769 31.92 108.673 31.92 108.625 31.968C108.481 32.016 108.577 32.064 108.625 32.112C108.721 32.16 108.817 32.304 108.769 32.4H108.817L108.673 32.784H108.577C108.433 32.928 108.481 33.024 108.433 33.12C108.385 33.264 108.433 33.408 108.481 33.504C108.481 33.6 108.481 33.648 108.433 33.696C108.385 33.744 108.337 33.792 108.337 33.84C108.385 33.888 108.577 33.936 108.673 33.936V33.984C108.673 34.128 108.817 34.224 108.913 34.368C108.913 34.368 108.961 34.368 108.961 34.32L108.769 34.032H109.009C109.105 33.936 109.105 33.888 109.009 33.84C108.817 33.744 109.057 33.648 109.057 33.552C109.009 33.408 108.961 33.264 109.009 33.168C109.009 33.024 109.153 32.88 108.961 32.784L109.009 32.736C109.153 32.544 109.201 32.352 109.249 32.208C109.297 32.016 109.441 31.824 109.249 31.632C109.201 31.632 109.201 31.584 109.153 31.584V31.536C109.153 31.488 109.249 31.392 109.249 31.296C109.249 31.2 109.297 31.104 109.201 31.008C109.153 30.912 109.153 30.816 109.153 30.72C109.153 30.576 109.249 30.48 109.345 30.336C109.441 30.144 109.441 29.952 109.441 29.76ZM110.017 23.28C110.113 23.232 110.209 23.088 110.065 22.992C109.921 22.944 109.633 22.944 109.441 22.992C109.441 22.944 109.441 22.944 109.489 22.896L109.585 22.656C109.585 22.512 109.441 22.272 109.345 22.128C109.345 22.08 109.105 22.08 109.105 22.128C109.009 22.272 108.961 22.464 109.009 22.656C109.009 22.704 108.961 22.8 108.913 22.896C108.913 22.992 109.009 23.04 109.057 23.136C108.817 23.28 108.769 23.52 108.673 23.664C108.577 23.808 108.529 23.952 108.577 24.096C108.577 24.24 108.769 24.384 108.913 24.48V24.528C108.817 24.816 108.625 25.104 108.577 25.344C108.577 25.488 108.625 25.632 108.625 25.776C108.673 25.92 108.625 26.064 108.721 26.208C108.721 26.256 108.865 26.256 108.865 26.208L109.009 25.968C109.009 26.064 109.057 26.16 109.153 26.256C109.201 26.304 109.441 26.304 109.489 26.256C109.585 26.112 109.585 26.016 109.633 25.872C109.633 25.728 109.681 25.536 109.729 25.392C109.825 25.152 109.873 24.864 109.729 24.624L109.537 24.384C109.537 24.336 109.537 24.288 109.585 24.24C109.681 23.952 109.729 23.616 110.017 23.28ZM109.825 26.928C109.873 26.88 109.825 26.832 109.777 26.736L109.681 26.448C109.681 26.4 109.441 26.4 109.441 26.448L109.345 26.688C109.345 26.784 109.441 26.88 109.345 26.976C109.201 27.168 109.105 27.264 109.489 27.408C109.489 27.408 109.633 27.408 109.633 27.36C109.489 27.264 109.441 27.216 109.585 27.12C109.681 27.072 109.777 27.024 109.825 26.928ZM109.105 34.896C109.105 34.8 109.057 34.704 109.009 34.608C108.961 34.56 108.769 34.56 108.769 34.608C108.769 34.704 108.865 34.848 108.913 34.944C108.961 34.944 109.105 34.944 109.105 34.896ZM109.537 28.272H109.633C109.633 28.128 109.585 27.936 109.585 27.792H109.489C109.489 27.936 109.489 28.128 109.537 28.272ZM149.083 6.14401C149.179 8.20801 145.483 12.24 144.667 14.256C143.515 17.088 142.651 19.584 142.027 22.512C141.451 25.008 140.491 25.872 140.731 28.656C141.163 33.264 141.067 37.824 141.067 42.48C138.715 42.96 135.835 43.104 135.691 40.08C135.691 39.36 136.411 37.968 136.555 37.2C136.939 35.328 136.699 34.416 136.411 32.544C135.595 27.408 136.603 22.848 133.963 18.288C133.051 16.704 132.235 15.12 131.419 13.392C130.651 11.76 127.483 8.44801 127.579 6.76801C127.723 3.93601 132.139 6.96001 132.907 8.11201C134.299 10.032 134.827 15.024 136.747 16.224C138.667 17.376 139.579 13.296 140.347 11.52C140.971 10.176 141.883 8.73601 142.315 7.29601C142.603 6.52801 142.507 5.32801 143.179 4.70401C144.763 3.21601 148.939 4.08001 149.083 6.14401ZM139.339 37.872C139.387 37.776 139.531 37.584 139.339 37.488C139.339 37.44 139.291 37.44 139.243 37.392C139.243 37.344 139.339 37.248 139.339 37.2C139.339 37.104 139.339 37.008 139.291 36.912C139.243 36.864 139.195 36.768 139.195 36.72C139.147 36.624 139.291 36.528 139.339 36.432C139.435 36.24 139.387 36.048 139.435 35.904C139.435 35.712 139.435 35.472 139.291 35.328C139.291 35.28 139.099 35.328 138.955 35.328C139.003 35.328 139.003 35.28 138.955 35.28V35.04C138.907 34.992 138.715 34.896 138.811 34.8L138.907 34.704C139.003 34.56 139.099 34.464 139.099 34.32C139.099 34.224 139.099 34.08 138.859 34.032H138.667C138.475 33.936 138.811 33.744 138.907 33.648C139.051 33.456 139.003 33.312 138.715 33.216C138.619 33.168 138.283 33.168 138.235 33.264C138.187 33.36 138.331 33.408 138.331 33.504C138.379 33.6 138.331 33.696 138.331 33.744C138.283 33.84 138.235 33.984 138.475 34.032C138.427 34.032 138.379 34.08 138.331 34.08C138.235 34.224 138.427 34.368 138.427 34.512C138.427 34.656 138.187 34.848 138.139 35.04C138.139 35.136 138.331 35.232 138.427 35.28V35.328C138.379 35.616 137.947 35.952 138.235 36.192C138.283 36.24 138.571 36.192 138.571 36.144C138.763 36 138.667 35.856 138.763 35.76L138.907 35.568V35.952C138.907 36.144 138.907 36.336 138.715 36.528C138.523 36.72 138.523 36.864 138.667 37.008L138.859 37.248C138.859 37.248 138.859 37.296 138.907 37.296C138.811 37.248 138.763 37.248 138.763 37.2C138.763 37.152 138.523 37.152 138.523 37.2C138.427 37.296 138.571 37.344 138.763 37.44C138.907 37.488 138.955 37.584 138.955 37.68C138.859 37.68 138.763 37.728 138.715 37.728C138.619 37.776 138.715 37.824 138.763 37.872C138.811 37.92 138.955 38.016 138.907 38.064C138.907 38.064 138.907 38.112 138.955 38.112L138.811 38.4H138.715C138.571 38.496 138.619 38.592 138.571 38.688C138.523 38.784 138.619 38.88 138.619 38.976C138.619 39.024 138.619 39.072 138.571 39.12C138.523 39.168 138.475 39.168 138.475 39.216C138.523 39.264 138.715 39.264 138.811 39.312V39.36C138.811 39.456 138.955 39.504 139.003 39.6H139.099L138.907 39.36H139.147C139.243 39.312 139.243 39.264 139.147 39.216C138.955 39.168 139.195 39.072 139.195 38.976C139.147 38.88 139.099 38.784 139.147 38.688C139.147 38.592 139.291 38.448 139.099 38.4V38.352H139.147C139.291 38.208 139.339 38.016 139.339 37.872ZM139.627 30.816C139.723 30.768 139.819 30.672 139.675 30.576C139.579 30.528 139.243 30.528 139.051 30.528C139.099 30.528 139.099 30.48 139.099 30.48L139.243 30.288C139.243 30.144 139.147 30 139.051 29.856C139.003 29.856 138.907 29.808 138.859 29.808C138.811 29.76 138.811 29.76 138.763 29.76L138.811 29.808C138.715 29.952 138.619 30.096 138.619 30.24C138.667 30.288 138.571 30.384 138.571 30.432C138.571 30.48 138.619 30.576 138.715 30.624C138.427 30.72 138.379 30.96 138.283 31.056C138.187 31.2 138.139 31.296 138.139 31.44C138.187 31.536 138.331 31.632 138.523 31.728V31.776C138.427 32.016 138.235 32.256 138.235 32.448C138.235 32.592 138.283 32.688 138.283 32.832C138.331 32.928 138.283 33.072 138.379 33.168H138.523L138.667 32.928C138.667 33.024 138.715 33.072 138.811 33.168C138.859 33.168 139.147 33.168 139.147 33.12C139.243 33.024 139.243 32.928 139.243 32.784L139.387 32.4C139.435 32.208 139.483 32.016 139.339 31.824L139.099 31.632C139.147 31.632 139.147 31.584 139.195 31.536C139.291 31.296 139.339 31.008 139.627 30.816ZM139.531 33.648C139.579 33.552 139.531 33.504 139.483 33.504C139.435 33.408 139.435 33.312 139.387 33.264C139.339 33.216 139.147 33.264 139.147 33.264L139.051 33.456C139.051 33.552 139.195 33.6 139.099 33.744C138.955 33.888 138.859 33.936 139.243 34.032C139.243 34.032 139.435 33.984 139.387 33.984C139.243 33.936 139.195 33.888 139.291 33.792L139.531 33.648ZM139.195 40.08C139.195 39.984 139.147 39.888 139.099 39.792H138.859C138.859 39.888 138.955 39.984 139.003 40.08H139.195ZM139.387 34.704H139.483C139.435 34.56 139.387 34.464 139.387 34.32C139.387 34.32 139.291 34.32 139.291 34.368C139.291 34.464 139.291 34.608 139.387 34.704ZM181.144 6.14401C188.536 12.048 184.216 22.512 178.456 27.984C177.832 28.656 177.016 29.232 176.104 29.52C175.528 29.664 174.088 29.28 173.704 29.616C172.504 30.576 173.08 33.984 173.176 35.376C173.32 38.064 175.192 42.576 171.256 42.576C169.912 42.96 168.328 40.128 168.136 39.264C167.896 38.208 168.52 36.24 168.616 35.136C169.096 29.568 168.856 23.904 168.664 18.336C168.568 15.312 167.032 7.20001 169.624 5.13601C170.824 4.17601 173.896 4.56001 175.48 4.36801C177.928 4.12801 179.272 4.65601 181.144 6.14401ZM173.56 25.344C175.96 25.68 179.512 18.288 180.136 16.464C180.904 14.112 180.568 9.26401 178.12 7.82401C176.872 7.10401 175.768 7.48801 174.616 8.35201C172.792 9.64801 173.032 10.56 173.128 12.912C173.272 17.04 173.368 21.216 173.56 25.344ZM183.88 15.552C183.976 15.504 183.976 15.504 183.976 15.456C183.976 15.36 183.784 15.312 183.688 15.264V15.216C183.688 15.072 183.592 14.976 183.496 14.832H183.448C183.496 14.928 183.592 15.072 183.592 15.168C183.544 15.12 183.4 15.12 183.352 15.12C183.256 15.168 183.256 15.216 183.352 15.312C183.496 15.408 183.256 15.456 183.256 15.552C183.256 15.696 183.256 15.84 183.208 15.936C183.16 16.032 182.968 16.128 183.112 16.272L183.064 16.32C182.872 16.416 182.776 16.56 182.68 16.656C182.584 16.8 182.392 16.896 182.488 17.088C182.488 17.136 182.536 17.184 182.536 17.232C182.536 17.28 182.392 17.328 182.344 17.376C182.296 17.472 182.248 17.568 182.248 17.664C182.296 17.76 182.296 17.856 182.248 17.904C182.2 18 182.056 18.048 181.96 18.144C181.768 18.24 181.72 18.432 181.624 18.576C181.48 18.768 181.384 18.96 181.384 19.2C181.384 19.248 181.528 19.344 181.624 19.344C181.624 19.344 181.624 19.392 181.672 19.392C181.624 19.488 181.576 19.584 181.576 19.68C181.528 19.728 181.672 19.92 181.528 19.92C181.48 19.968 181.432 19.968 181.384 19.968C181.24 20.064 181.096 20.112 181 20.208C180.952 20.352 180.904 20.448 181.048 20.64C181.048 20.688 181.144 20.736 181.192 20.736C181.336 20.928 180.904 20.928 180.808 20.976C180.616 21.072 180.52 21.216 180.712 21.504C180.76 21.6 181.048 21.744 181.096 21.696C181.24 21.648 181.144 21.504 181.192 21.408L181.336 21.168C181.432 21.12 181.576 21.024 181.384 20.832C181.432 20.88 181.48 20.88 181.528 20.88C181.672 20.784 181.624 20.544 181.72 20.4C181.816 20.256 182.104 20.208 182.248 20.064C182.296 19.968 182.2 19.824 182.152 19.68V19.632C182.344 19.392 182.92 19.296 182.776 18.912C182.776 18.864 182.488 18.768 182.44 18.768C182.248 18.816 182.248 18.96 182.104 19.056C182.008 19.104 181.912 19.152 181.864 19.152L182.056 18.816C182.2 18.624 182.296 18.432 182.584 18.336C182.824 18.24 182.92 18.096 182.872 17.856C182.824 17.76 182.824 17.664 182.824 17.568C182.824 17.616 182.872 17.664 182.872 17.664C182.824 17.712 183.064 17.76 183.112 17.76C183.208 17.712 183.112 17.568 183.016 17.424C182.872 17.28 182.872 17.136 182.92 17.04C183.016 17.088 183.112 17.088 183.16 17.088C183.304 17.088 183.208 17.04 183.208 16.992C183.16 16.848 183.112 16.752 183.16 16.656H183.112C183.208 16.56 183.304 16.464 183.352 16.368H183.496C183.64 16.32 183.64 16.176 183.736 16.08C183.784 15.984 183.784 15.84 183.784 15.744C183.832 15.648 183.784 15.6 183.88 15.552ZM180.808 22.08C180.856 21.984 180.952 21.888 180.952 21.696C180.952 21.696 180.856 21.648 180.808 21.648L180.568 21.792C180.616 21.696 180.616 21.6 180.568 21.504C180.568 21.408 180.328 21.312 180.28 21.312C180.136 21.36 180.088 21.456 179.992 21.552L179.704 21.84C179.512 22.032 179.368 22.176 179.368 22.416C179.368 22.512 179.416 22.608 179.464 22.704C179.416 22.704 179.368 22.752 179.32 22.8C179.176 22.848 179.08 22.944 178.936 23.04C178.84 23.088 178.696 23.184 178.504 23.184C178.408 23.184 178.216 23.232 178.312 23.376C178.36 23.472 178.552 23.664 178.744 23.76V23.808C178.648 23.808 178.6 23.856 178.504 23.856C178.408 23.952 178.408 24.192 178.408 24.384C178.408 24.432 178.552 24.528 178.6 24.528C178.744 24.48 178.888 24.384 178.984 24.24C178.984 24.192 179.08 24.144 179.128 24.096C179.224 24.048 179.176 23.952 179.176 23.856C179.464 23.904 179.656 23.76 179.8 23.712C179.944 23.664 180.04 23.568 180.088 23.424C180.184 23.328 180.088 23.136 179.992 22.944C180.136 22.848 180.28 22.8 180.376 22.704C180.472 22.656 180.616 22.56 180.664 22.464C180.76 22.32 180.76 22.224 180.808 22.08ZM180.616 20.4C180.712 20.544 180.712 20.592 180.568 20.64H180.28C180.184 20.688 180.184 20.736 180.232 20.784C180.232 20.928 180.184 20.976 180.184 21.072C180.184 21.12 180.376 21.216 180.376 21.216L180.568 21.072C180.616 20.976 180.568 20.832 180.712 20.832C180.904 20.736 181 20.736 180.76 20.448C180.712 20.448 180.568 20.352 180.616 20.4ZM183.352 14.256C183.304 14.352 183.4 14.448 183.448 14.592C183.496 14.592 183.688 14.592 183.688 14.544C183.688 14.544 183.688 14.496 183.64 14.496V14.448L183.592 14.4C183.592 14.352 183.544 14.304 183.496 14.256H183.352ZM180.904 19.68C180.904 19.824 180.856 19.968 180.808 20.064C180.808 20.112 180.856 20.112 180.856 20.112C180.952 19.968 181 19.872 181 19.728L180.904 19.68ZM178.552 24.624H178.6C178.552 24.576 178.552 24.576 178.552 24.528H178.504C178.504 24.576 178.504 24.576 178.552 24.624ZM182.776 17.472C182.776 17.52 182.776 17.568 182.824 17.568C182.824 17.52 182.776 17.52 182.776 17.472ZM207.031 11.904C207.127 15.744 207.127 19.728 206.983 23.52C206.887 26.928 205.783 44.832 198.871 40.848C198.247 40.464 198.055 39.792 197.479 39.456C196.807 39.072 195.991 39.264 195.367 38.88C193.495 37.824 192.535 35.568 192.007 33.6C190.999 29.856 191.959 25.104 190.615 21.552C191.767 21.024 191.479 17.52 191.575 16.608C191.767 14.112 192.007 11.808 192.823 9.45601C193.351 7.82401 193.927 5.76001 195.223 4.51201C196.903 2.78401 199.255 3.21601 201.511 3.31201C203.863 3.45601 204.247 3.79201 205.303 5.85601C206.263 7.72801 207.031 9.79201 207.031 11.904ZM201.703 23.856C201.847 20.592 201.319 17.424 201.319 14.208C201.319 11.376 201.223 9.55201 200.263 6.81601C195.415 8.92801 196.279 15.312 195.991 19.824C195.847 22.32 195.799 24.672 196.039 27.168C196.279 29.424 198.151 33.36 197.815 35.184C200.023 36.48 200.311 34.368 200.743 32.352C201.319 29.664 201.559 26.64 201.703 23.856ZM205.255 24C205.303 23.664 205.351 23.328 205.255 22.992C205.207 22.944 205.015 22.896 204.919 22.944C204.967 22.896 204.967 22.896 204.919 22.848V22.416C204.919 22.32 204.727 22.176 204.871 22.08V22.032C204.871 21.984 204.919 21.936 204.967 21.888C205.063 21.696 205.207 21.504 205.207 21.312C205.207 21.168 205.207 20.928 205.015 20.736C204.967 20.736 204.919 20.736 204.823 20.688C204.631 20.592 204.967 20.256 205.063 20.16C205.207 19.872 205.207 19.584 204.919 19.344C204.823 19.296 204.487 19.296 204.487 19.392C204.391 19.536 204.535 19.68 204.535 19.824C204.535 19.968 204.535 20.112 204.487 20.256C204.487 20.352 204.391 20.592 204.631 20.688C204.535 20.736 204.487 20.736 204.487 20.784C204.343 20.976 204.535 21.216 204.487 21.456C204.487 21.744 204.199 21.984 204.151 22.272C204.103 22.416 204.295 22.608 204.343 22.752C204.391 22.752 204.391 22.8 204.391 22.8C204.295 23.28 203.767 23.664 204.055 24.144C204.055 24.192 204.343 24.192 204.391 24.144C204.583 23.952 204.535 23.76 204.631 23.568L204.823 23.28L204.727 23.904C204.679 24.24 204.679 24.576 204.391 24.864C204.199 25.104 204.151 25.344 204.247 25.584C204.247 25.728 204.295 25.824 204.295 25.92C204.247 25.872 204.103 25.824 204.055 25.872C203.959 26.016 204.103 26.16 204.247 26.304C204.391 26.448 204.439 26.64 204.391 26.784C204.295 26.784 204.199 26.784 204.151 26.832C204.055 26.88 204.103 26.976 204.151 27.024C204.199 27.168 204.295 27.312 204.247 27.408C204.247 27.456 204.247 27.456 204.295 27.456C204.199 27.6 204.151 27.744 204.103 27.888C204.007 27.888 203.959 27.888 203.959 27.936C203.815 28.032 203.815 28.176 203.767 28.32C203.671 28.464 203.671 28.656 203.671 28.8C203.671 28.896 203.671 28.944 203.575 29.04C203.527 29.088 203.479 29.088 203.479 29.136C203.479 29.232 203.671 29.28 203.719 29.376V29.424C203.719 29.52 203.719 29.616 203.767 29.664C203.767 29.76 203.815 29.856 203.815 29.904C203.815 29.952 203.911 29.952 203.911 29.952C203.911 29.808 203.815 29.664 203.815 29.52C203.863 29.52 204.007 29.568 204.055 29.568C204.151 29.52 204.199 29.424 204.103 29.328C203.959 29.184 204.247 29.136 204.247 28.992C204.247 28.8 204.247 28.608 204.295 28.464C204.343 28.32 204.487 28.128 204.343 27.984V27.936C204.343 27.936 204.391 27.936 204.391 27.888C204.583 27.696 204.679 27.456 204.727 27.216C204.823 27.024 204.967 26.736 204.823 26.544C204.823 26.496 204.775 26.448 204.727 26.4H204.775C204.727 26.304 204.871 26.208 204.871 26.064C204.919 25.92 204.919 25.776 204.871 25.632C204.871 25.488 204.823 25.392 204.823 25.248C204.871 25.104 204.967 24.96 205.063 24.816C205.207 24.576 205.207 24.24 205.255 24ZM205.783 15.312C205.831 15.168 205.975 14.976 205.783 14.88C205.687 14.784 205.351 14.832 205.159 14.88C205.207 14.88 205.207 14.832 205.207 14.784C205.255 14.688 205.303 14.592 205.303 14.448C205.303 14.256 205.111 13.968 205.015 13.728C204.967 13.728 204.775 13.728 204.775 13.776C204.679 14.016 204.631 14.256 204.679 14.448C204.727 14.592 204.679 14.688 204.679 14.832C204.679 14.928 204.775 15.024 204.823 15.12C204.583 15.36 204.535 15.648 204.439 15.888C204.391 16.08 204.343 16.272 204.391 16.416C204.391 16.656 204.583 16.8 204.775 16.944V16.992C204.631 17.376 204.487 17.76 204.487 18.096C204.487 18.288 204.487 18.48 204.535 18.672C204.583 18.864 204.535 19.056 204.631 19.248C204.631 19.296 204.727 19.296 204.775 19.248C204.775 19.2 204.823 19.104 204.871 19.008C204.871 19.152 204.919 19.248 205.015 19.344C205.063 19.392 205.351 19.344 205.399 19.296C205.495 19.152 205.495 18.96 205.495 18.816L205.639 18.144C205.687 17.808 205.687 17.424 205.591 17.088C205.543 16.992 205.447 16.896 205.351 16.8C205.351 16.752 205.399 16.656 205.399 16.608C205.495 16.176 205.543 15.744 205.783 15.312ZM205.687 20.208C205.735 20.16 205.735 20.064 205.687 19.968C205.591 19.824 205.639 19.728 205.591 19.584C205.543 19.536 205.351 19.536 205.351 19.584L205.255 19.872C205.255 20.016 205.351 20.16 205.255 20.304C205.111 20.544 205.015 20.64 205.351 20.832H205.495C205.351 20.688 205.303 20.592 205.447 20.448C205.543 20.4 205.639 20.304 205.687 20.208ZM203.719 30.672C203.815 30.576 203.815 30.384 203.815 30.24C203.815 30.192 203.575 30.144 203.575 30.192V30.624C203.575 30.672 203.719 30.72 203.719 30.672ZM205.399 22.032H205.543L205.447 21.408C205.447 21.36 205.399 21.36 205.399 21.408C205.399 21.6 205.351 21.792 205.399 22.032ZM204.439 26.16C204.343 26.064 204.295 25.968 204.343 25.92C204.343 25.968 204.343 26.016 204.391 26.064C204.391 26.064 204.439 26.112 204.439 26.16ZM204.823 13.68H204.727L204.775 13.728L204.823 13.68ZM204.343 25.92H204.295H204.343ZM229.746 40.128C231.522 42.48 228.882 42.576 227.154 42.624C224.466 42.624 221.874 43.488 219.282 43.44C213.666 43.296 215.49 39.024 215.49 34.944C215.49 29.76 215.346 24.528 215.298 19.344C215.298 14.688 215.922 9.31201 214.386 4.84801C214.386 4.80001 214.434 4.75201 214.434 4.70401C215.298 2.97601 218.562 3.16801 219.618 4.56001C220.674 6.00001 220.05 8.78401 220.146 10.416C220.482 14.784 220.626 19.248 220.722 23.616C220.866 27.792 220.722 31.92 221.058 36.144C221.25 38.544 220.818 38.736 223.218 38.928C224.85 39.024 228.594 38.592 229.746 40.128ZM218.85 28.416V28.368C218.898 28.032 219.378 27.696 219.09 27.408C219.042 27.36 218.754 27.408 218.706 27.456C218.562 27.6 218.61 27.744 218.514 27.888L218.37 28.08C218.37 27.936 218.37 27.792 218.418 27.648C218.418 27.408 218.418 27.168 218.61 26.928C218.802 26.736 218.802 26.592 218.706 26.4C218.61 26.304 218.562 26.208 218.514 26.112L218.466 26.064C218.514 26.064 218.61 26.112 218.61 26.208C218.562 26.208 218.802 26.208 218.85 26.16C218.898 26.064 218.754 25.968 218.61 25.872C218.418 25.824 218.37 25.68 218.37 25.584C218.466 25.584 218.562 25.536 218.61 25.488C218.706 25.44 218.658 25.392 218.61 25.392C218.514 25.296 218.418 25.2 218.418 25.104H218.37C218.418 25.008 218.466 24.864 218.466 24.768C218.562 24.72 218.562 24.72 218.61 24.72C218.754 24.576 218.658 24.48 218.706 24.384C218.754 24.24 218.658 24.096 218.658 24C218.61 23.904 218.61 23.856 218.658 23.76C218.706 23.712 218.706 23.664 218.706 23.664C218.658 23.568 218.466 23.568 218.37 23.568V23.52C218.322 23.376 218.178 23.328 218.034 23.232H217.986C218.034 23.328 218.178 23.424 218.274 23.52C218.178 23.52 218.082 23.52 218.034 23.568C217.938 23.664 217.938 23.712 218.034 23.76C218.274 23.808 218.034 23.952 218.082 24.048C218.13 24.144 218.178 24.288 218.178 24.384C218.13 24.528 218.034 24.672 218.178 24.768H218.226L218.178 24.816C218.034 25.008 217.986 25.152 217.986 25.344C217.938 25.488 217.842 25.728 217.986 25.824L218.13 25.92H218.082C218.13 25.968 218.034 26.064 218.034 26.16C217.986 26.256 217.986 26.352 218.082 26.448C218.13 26.544 218.178 26.64 218.178 26.736C218.178 26.832 218.034 26.928 217.986 27.024C217.89 27.264 217.89 27.456 217.89 27.648C217.89 27.84 217.842 28.08 217.986 28.32C217.986 28.368 218.13 28.368 218.274 28.368C218.274 28.464 218.322 28.608 218.322 28.704C218.322 28.752 218.514 28.848 218.418 28.944L218.322 29.088C218.226 29.184 218.13 29.328 218.082 29.472C218.082 29.616 218.13 29.76 218.322 29.856C218.322 29.856 218.418 29.904 218.514 29.904C218.706 29.952 218.322 30.192 218.274 30.288C218.13 30.48 218.13 30.672 218.418 30.816C218.514 30.864 218.85 30.864 218.898 30.816C218.946 30.72 218.802 30.576 218.802 30.48C218.802 30.384 218.802 30.288 218.85 30.192C218.85 30.096 218.946 29.952 218.706 29.856C218.754 29.856 218.802 29.856 218.85 29.808C218.946 29.664 218.754 29.52 218.802 29.328C218.802 29.136 219.042 28.944 219.09 28.752C219.138 28.656 218.946 28.512 218.85 28.416ZM218.802 33.312C218.85 33.168 218.898 33.024 218.898 32.88C218.898 32.736 218.706 32.64 218.514 32.544L218.562 32.496C218.658 32.208 218.85 31.968 218.85 31.728C218.85 31.584 218.85 31.44 218.802 31.296C218.802 31.152 218.802 31.008 218.754 30.912C218.706 30.864 218.61 30.864 218.562 30.912L218.466 31.152C218.466 31.056 218.418 30.96 218.322 30.864C218.274 30.816 217.986 30.816 217.938 30.864L217.842 31.248L217.698 31.68C217.65 31.92 217.602 32.16 217.746 32.4C217.746 32.496 217.842 32.544 217.938 32.592C217.938 32.64 217.89 32.688 217.89 32.736C217.746 33.024 217.698 33.312 217.41 33.6C217.362 33.696 217.218 33.84 217.362 33.888C217.506 33.984 217.794 33.984 217.986 33.936C217.986 33.984 217.986 33.984 217.938 34.032C217.89 34.08 217.842 34.128 217.842 34.224C217.794 34.368 217.938 34.56 218.034 34.752H218.274C218.37 34.608 218.466 34.416 218.418 34.272C218.418 34.176 218.466 34.08 218.514 34.032C218.514 33.936 218.418 33.888 218.37 33.792C218.658 33.648 218.706 33.456 218.802 33.312ZM217.65 30.24C217.602 30.336 217.602 30.384 217.65 30.432C217.746 30.528 217.698 30.624 217.746 30.72H217.986C218.034 30.624 218.082 30.576 218.082 30.48C218.082 30.384 217.986 30.288 218.082 30.192C218.226 30.048 218.322 29.952 217.938 29.808C217.938 29.808 217.794 29.808 217.794 29.856C217.938 29.904 217.986 30 217.842 30.096C217.746 30.144 217.65 30.192 217.65 30.24ZM217.698 22.704C217.698 22.8 217.698 22.8 217.746 22.848L217.89 22.992C217.938 22.992 218.13 22.944 218.13 22.896L217.986 22.752L217.842 22.656C217.794 22.656 217.698 22.704 217.698 22.704ZM217.842 28.992C217.842 28.992 217.746 28.992 217.746 29.04L217.842 29.424C217.842 29.472 217.89 29.472 217.89 29.424C217.89 29.28 217.89 29.136 217.842 28.992ZM242.594 13.488C242.402 17.136 242.354 20.784 242.45 24.432C242.546 30.384 242.882 36.624 242.162 42.24C242.114 42.72 240.29 42.144 240.29 42.384C236.21 42.144 237.41 38.064 237.554 35.04C237.698 30.816 237.41 26.688 237.602 22.512C237.794 18.432 237.602 14.304 237.746 10.176C237.89 5.76001 236.354 1.82401 242.162 2.44801C241.922 2.49601 241.634 2.54401 241.394 2.64001C244.082 5.04001 242.738 10.224 242.594 13.488ZM241.202 10.08C241.25 10.032 241.298 9.98401 241.298 9.93601C241.298 9.88801 241.106 9.84001 240.962 9.79201V9.74401C240.962 9.64801 240.866 9.50401 240.77 9.40801H240.722C240.722 9.50401 240.866 9.60001 240.866 9.74401C240.818 9.69601 240.674 9.69601 240.674 9.74401C240.53 9.79201 240.53 9.84001 240.626 9.88801C240.818 9.98401 240.578 10.08 240.578 10.176C240.626 10.32 240.626 10.464 240.578 10.608C240.578 10.704 240.434 10.848 240.578 10.944C240.578 10.944 240.626 10.944 240.626 10.992H240.578C240.386 11.184 240.338 11.376 240.29 11.52C240.242 11.664 240.098 11.904 240.242 12.048C240.29 12.096 240.338 12.096 240.338 12.144C240.338 12.24 240.242 12.336 240.242 12.384C240.194 12.528 240.194 12.624 240.242 12.72C240.29 12.816 240.29 12.912 240.29 13.008C240.29 13.152 240.194 13.248 240.098 13.344C239.954 13.536 239.954 13.776 239.954 13.968C239.906 14.208 239.858 14.448 239.954 14.688C239.954 14.736 240.146 14.784 240.242 14.784H240.29C240.242 14.928 240.242 15.024 240.29 15.12C240.29 15.216 240.434 15.312 240.338 15.408C240.338 15.456 240.29 15.504 240.242 15.552C240.146 15.696 240.002 15.792 240.002 15.936C240.002 16.08 240.002 16.272 240.194 16.368C240.194 16.416 240.29 16.416 240.338 16.416C240.53 16.512 240.194 16.752 240.098 16.848C239.954 17.04 239.954 17.232 240.242 17.424C240.338 17.472 240.626 17.472 240.674 17.424C240.77 17.328 240.626 17.184 240.626 17.088C240.626 16.992 240.626 16.896 240.674 16.8C240.722 16.656 240.77 16.512 240.578 16.416C240.626 16.416 240.674 16.416 240.722 16.368C240.818 16.224 240.626 16.032 240.674 15.84C240.722 15.648 241.01 15.456 241.058 15.264C241.106 15.168 240.914 15.024 240.818 14.88V14.832C240.914 14.496 241.394 14.208 241.154 13.824C241.106 13.776 240.818 13.824 240.77 13.824C240.578 13.968 240.674 14.16 240.53 14.304L240.386 14.496C240.386 14.352 240.386 14.16 240.434 14.016C240.482 13.776 240.482 13.536 240.77 13.296C240.962 13.104 240.962 12.96 240.866 12.72C240.818 12.672 240.77 12.624 240.77 12.576C240.818 12.576 241.01 12.576 241.058 12.528C241.154 12.432 241.01 12.288 240.866 12.192C240.674 12.096 240.674 11.952 240.626 11.856C240.722 11.856 240.866 11.808 240.914 11.808C241.01 11.76 240.914 11.712 240.914 11.664C240.818 11.568 240.722 11.472 240.77 11.376C240.77 11.376 240.77 11.328 240.722 11.328L240.866 10.992C240.914 10.992 240.962 10.992 241.01 10.944C241.154 10.848 241.106 10.752 241.154 10.656C241.202 10.512 241.154 10.368 241.154 10.272C241.154 10.176 241.106 10.128 241.202 10.08ZM240.53 20.064C240.626 19.92 240.674 19.776 240.674 19.632C240.626 19.488 240.482 19.344 240.29 19.2C240.434 18.912 240.626 18.624 240.626 18.384C240.626 18.24 240.626 18.096 240.578 17.952C240.578 17.808 240.626 17.664 240.53 17.52C240.53 17.472 240.386 17.472 240.386 17.52L240.242 17.76C240.242 17.664 240.194 17.568 240.098 17.424H239.762C239.666 17.568 239.666 17.712 239.618 17.808L239.474 18.288C239.426 18.576 239.378 18.816 239.474 19.056C239.522 19.152 239.618 19.248 239.714 19.296L239.618 19.44C239.522 19.776 239.474 20.064 239.186 20.4C239.09 20.496 238.994 20.64 239.138 20.736C239.282 20.784 239.57 20.784 239.762 20.736C239.762 20.784 239.714 20.784 239.714 20.832C239.666 20.88 239.618 20.976 239.618 21.024C239.57 21.216 239.714 21.408 239.81 21.6C239.858 21.6 240.05 21.648 240.098 21.6C240.146 21.408 240.242 21.264 240.194 21.072C240.194 20.976 240.242 20.88 240.242 20.832C240.29 20.736 240.194 20.688 240.098 20.592C240.386 20.448 240.434 20.208 240.53 20.064ZM239.474 16.752C239.426 16.8 239.426 16.896 239.474 16.944C239.57 17.04 239.522 17.136 239.57 17.232C239.618 17.28 239.81 17.28 239.81 17.28C239.858 17.184 239.906 17.088 239.906 17.04C239.906 16.896 239.81 16.8 239.906 16.704C240.098 16.56 240.194 16.464 239.81 16.32H239.666C239.81 16.416 239.858 16.512 239.714 16.608L239.474 16.752ZM240.626 8.83201C240.578 8.92801 240.674 9.02401 240.722 9.16801H240.962L240.818 8.83201C240.77 8.78401 240.626 8.78401 240.626 8.83201ZM239.81 15.456C239.762 15.408 239.666 15.408 239.666 15.456C239.714 15.6 239.714 15.744 239.714 15.888H239.81V15.456ZM240.674 12.336C240.77 12.384 240.818 12.48 240.77 12.528C240.722 12.48 240.722 12.432 240.722 12.384C240.722 12.384 240.674 12.384 240.674 12.336ZM240.098 21.696C240.146 21.696 240.146 21.648 240.146 21.648H240.002C240.05 21.648 240.05 21.696 240.098 21.696ZM267.7 27.984C268.228 30.576 265.732 34.608 265.444 37.296C265.156 40.128 264.868 40.368 262.324 41.52C259.684 42.672 256.708 43.728 254.02 41.856C250.18 39.216 251.86 31.968 251.38 27.888C250.612 21.888 250.612 13.728 252.484 7.92001C254.5 1.72801 261.364 6.67572e-06 266.26 4.12801C266.26 4.12801 266.308 4.17601 266.356 4.17601C266.452 7.20001 269.14 19.008 264.436 18.72C260.548 18.48 261.508 15.792 261.652 13.296C261.748 11.52 262.036 5.90401 259.348 6.19201C255.124 6.62401 256.9 17.616 256.66 20.496C256.468 23.568 256.084 26.064 256.516 29.136C256.852 31.824 255.988 35.136 257.956 37.296C262.228 41.904 262.852 30.432 263.38 28.32C263.668 27.168 263.62 26.448 264.724 26.112C265.972 25.68 267.46 26.928 267.7 27.984ZM254.164 29.76C254.212 29.52 254.26 29.232 254.116 28.992C254.116 28.944 253.924 28.944 253.78 28.992V28.944C253.828 28.944 253.876 28.944 253.78 28.896C253.828 28.8 253.828 28.704 253.78 28.608C253.78 28.512 253.588 28.368 253.684 28.32C253.732 28.272 253.78 28.224 253.78 28.176C253.924 28.032 254.02 27.888 254.02 27.744C254.068 27.648 254.02 27.456 253.828 27.36C253.828 27.312 253.732 27.312 253.636 27.312C253.444 27.216 253.828 26.976 253.876 26.88C254.068 26.688 254.068 26.448 253.732 26.304C253.684 26.256 253.348 26.256 253.3 26.304C253.204 26.448 253.348 26.544 253.348 26.64C253.348 26.736 253.348 26.88 253.3 26.976C253.3 27.072 253.204 27.216 253.444 27.312C253.396 27.312 253.348 27.312 253.3 27.36C253.204 27.504 253.396 27.696 253.348 27.888C253.3 28.08 253.06 28.272 253.012 28.512C252.964 28.608 253.156 28.752 253.252 28.848V28.896C253.156 29.232 252.676 29.568 252.964 29.904C253.012 29.952 253.3 29.952 253.348 29.904C253.492 29.76 253.444 29.616 253.54 29.424L253.732 29.232C253.684 29.376 253.684 29.568 253.684 29.712C253.636 29.952 253.636 30.192 253.396 30.432C253.204 30.624 253.204 30.816 253.3 31.008C253.396 31.104 253.444 31.248 253.492 31.344L253.54 31.392C253.444 31.344 253.396 31.296 253.396 31.248C253.396 31.2 253.156 31.2 253.156 31.248C253.06 31.344 253.204 31.44 253.348 31.536C253.54 31.632 253.588 31.776 253.588 31.92C253.492 31.92 253.396 31.92 253.348 31.968C253.204 32.016 253.3 32.064 253.348 32.112C253.444 32.16 253.54 32.304 253.492 32.4H253.54L253.396 32.784H253.3C253.156 32.928 253.204 33.024 253.156 33.12C253.108 33.264 253.156 33.408 253.204 33.504C253.204 33.6 253.204 33.648 253.156 33.696C253.108 33.744 253.06 33.792 253.06 33.84C253.108 33.888 253.3 33.936 253.396 33.936V33.984C253.396 34.128 253.54 34.224 253.636 34.368C253.636 34.368 253.684 34.368 253.684 34.32L253.492 34.032H253.732C253.828 33.936 253.828 33.888 253.732 33.84C253.54 33.744 253.78 33.648 253.78 33.552C253.732 33.408 253.684 33.264 253.732 33.168C253.732 33.024 253.876 32.88 253.684 32.784L253.732 32.736C253.876 32.544 253.924 32.352 253.972 32.208C254.02 32.016 254.164 31.824 253.972 31.632C253.924 31.632 253.924 31.584 253.876 31.584V31.536C253.876 31.488 253.972 31.392 253.972 31.296C253.972 31.2 254.02 31.104 253.924 31.008C253.876 30.912 253.876 30.816 253.876 30.72C253.876 30.576 253.972 30.48 254.068 30.336C254.164 30.144 254.164 29.952 254.164 29.76ZM254.74 23.28C254.836 23.232 254.932 23.088 254.788 22.992C254.644 22.944 254.356 22.944 254.164 22.992C254.164 22.944 254.164 22.944 254.212 22.896L254.308 22.656C254.308 22.512 254.164 22.272 254.068 22.128C254.068 22.08 253.828 22.08 253.828 22.128C253.732 22.272 253.684 22.464 253.732 22.656C253.732 22.704 253.684 22.8 253.636 22.896C253.636 22.992 253.732 23.04 253.78 23.136C253.54 23.28 253.492 23.52 253.396 23.664C253.3 23.808 253.252 23.952 253.3 24.096C253.3 24.24 253.492 24.384 253.636 24.48V24.528C253.54 24.816 253.348 25.104 253.3 25.344C253.3 25.488 253.348 25.632 253.348 25.776C253.396 25.92 253.348 26.064 253.444 26.208C253.444 26.256 253.588 26.256 253.588 26.208L253.732 25.968C253.732 26.064 253.78 26.16 253.876 26.256C253.924 26.304 254.164 26.304 254.212 26.256C254.308 26.112 254.308 26.016 254.356 25.872C254.356 25.728 254.404 25.536 254.452 25.392C254.548 25.152 254.596 24.864 254.452 24.624L254.26 24.384C254.26 24.336 254.26 24.288 254.308 24.24C254.404 23.952 254.452 23.616 254.74 23.28ZM254.548 26.928C254.596 26.88 254.548 26.832 254.5 26.736L254.404 26.448C254.404 26.4 254.164 26.4 254.164 26.448L254.068 26.688C254.068 26.784 254.164 26.88 254.068 26.976C253.924 27.168 253.828 27.264 254.212 27.408C254.212 27.408 254.356 27.408 254.356 27.36C254.212 27.264 254.164 27.216 254.308 27.12C254.404 27.072 254.5 27.024 254.548 26.928ZM253.828 34.896C253.828 34.8 253.78 34.704 253.732 34.608C253.684 34.56 253.492 34.56 253.492 34.608C253.492 34.704 253.588 34.848 253.636 34.944C253.684 34.944 253.828 34.944 253.828 34.896ZM254.26 28.272H254.356C254.356 28.128 254.308 27.936 254.308 27.792H254.212C254.212 27.936 254.212 28.128 254.26 28.272ZM293.806 6.14401C293.902 8.20801 290.206 12.24 289.39 14.256C288.238 17.088 287.374 19.584 286.75 22.512C286.174 25.008 285.214 25.872 285.454 28.656C285.886 33.264 285.79 37.824 285.79 42.48C283.438 42.96 280.558 43.104 280.414 40.08C280.414 39.36 281.134 37.968 281.278 37.2C281.662 35.328 281.422 34.416 281.134 32.544C280.318 27.408 281.326 22.848 278.686 18.288C277.774 16.704 276.958 15.12 276.142 13.392C275.374 11.76 272.206 8.44801 272.302 6.76801C272.446 3.93601 276.862 6.96001 277.63 8.11201C279.022 10.032 279.55 15.024 281.47 16.224C283.39 17.376 284.302 13.296 285.07 11.52C285.694 10.176 286.606 8.73601 287.038 7.29601C287.326 6.52801 287.23 5.32801 287.902 4.70401C289.486 3.21601 293.662 4.08001 293.806 6.14401ZM284.062 37.872C284.11 37.776 284.254 37.584 284.062 37.488C284.062 37.44 284.014 37.44 283.966 37.392C283.966 37.344 284.062 37.248 284.062 37.2C284.062 37.104 284.062 37.008 284.014 36.912C283.966 36.864 283.918 36.768 283.918 36.72C283.87 36.624 284.014 36.528 284.062 36.432C284.158 36.24 284.11 36.048 284.158 35.904C284.158 35.712 284.158 35.472 284.014 35.328C284.014 35.28 283.822 35.328 283.678 35.328C283.726 35.328 283.726 35.28 283.678 35.28V35.04C283.63 34.992 283.438 34.896 283.534 34.8L283.63 34.704C283.726 34.56 283.822 34.464 283.822 34.32C283.822 34.224 283.822 34.08 283.582 34.032H283.39C283.198 33.936 283.534 33.744 283.63 33.648C283.774 33.456 283.726 33.312 283.438 33.216C283.342 33.168 283.006 33.168 282.958 33.264C282.91 33.36 283.054 33.408 283.054 33.504C283.102 33.6 283.054 33.696 283.054 33.744C283.006 33.84 282.958 33.984 283.198 34.032C283.15 34.032 283.102 34.08 283.054 34.08C282.958 34.224 283.15 34.368 283.15 34.512C283.15 34.656 282.91 34.848 282.862 35.04C282.862 35.136 283.054 35.232 283.15 35.28V35.328C283.102 35.616 282.67 35.952 282.958 36.192C283.006 36.24 283.294 36.192 283.294 36.144C283.486 36 283.39 35.856 283.486 35.76L283.63 35.568V35.952C283.63 36.144 283.63 36.336 283.438 36.528C283.246 36.72 283.246 36.864 283.39 37.008L283.582 37.248C283.582 37.248 283.582 37.296 283.63 37.296C283.534 37.248 283.486 37.248 283.486 37.2C283.486 37.152 283.246 37.152 283.246 37.2C283.15 37.296 283.294 37.344 283.486 37.44C283.63 37.488 283.678 37.584 283.678 37.68C283.582 37.68 283.486 37.728 283.438 37.728C283.342 37.776 283.438 37.824 283.486 37.872C283.534 37.92 283.678 38.016 283.63 38.064C283.63 38.064 283.63 38.112 283.678 38.112L283.534 38.4H283.438C283.294 38.496 283.342 38.592 283.294 38.688C283.246 38.784 283.342 38.88 283.342 38.976C283.342 39.024 283.342 39.072 283.294 39.12C283.246 39.168 283.198 39.168 283.198 39.216C283.246 39.264 283.438 39.264 283.534 39.312V39.36C283.534 39.456 283.678 39.504 283.726 39.6H283.822L283.63 39.36H283.87C283.966 39.312 283.966 39.264 283.87 39.216C283.678 39.168 283.918 39.072 283.918 38.976C283.87 38.88 283.822 38.784 283.87 38.688C283.87 38.592 284.014 38.448 283.822 38.4V38.352H283.87C284.014 38.208 284.062 38.016 284.062 37.872ZM284.35 30.816C284.446 30.768 284.542 30.672 284.398 30.576C284.302 30.528 283.966 30.528 283.774 30.528C283.822 30.528 283.822 30.48 283.822 30.48L283.966 30.288C283.966 30.144 283.87 30 283.774 29.856C283.726 29.856 283.63 29.808 283.582 29.808C283.534 29.76 283.534 29.76 283.486 29.76L283.534 29.808C283.438 29.952 283.342 30.096 283.342 30.24C283.39 30.288 283.294 30.384 283.294 30.432C283.294 30.48 283.342 30.576 283.438 30.624C283.15 30.72 283.102 30.96 283.006 31.056C282.91 31.2 282.862 31.296 282.862 31.44C282.91 31.536 283.054 31.632 283.246 31.728V31.776C283.15 32.016 282.958 32.256 282.958 32.448C282.958 32.592 283.006 32.688 283.006 32.832C283.054 32.928 283.006 33.072 283.102 33.168H283.246L283.39 32.928C283.39 33.024 283.438 33.072 283.534 33.168C283.582 33.168 283.87 33.168 283.87 33.12C283.966 33.024 283.966 32.928 283.966 32.784L284.11 32.4C284.158 32.208 284.206 32.016 284.062 31.824L283.822 31.632C283.87 31.632 283.87 31.584 283.918 31.536C284.014 31.296 284.062 31.008 284.35 30.816ZM284.254 33.648C284.302 33.552 284.254 33.504 284.206 33.504C284.158 33.408 284.158 33.312 284.11 33.264C284.062 33.216 283.87 33.264 283.87 33.264L283.774 33.456C283.774 33.552 283.918 33.6 283.822 33.744C283.678 33.888 283.582 33.936 283.966 34.032C283.966 34.032 284.158 33.984 284.11 33.984C283.966 33.936 283.918 33.888 284.014 33.792L284.254 33.648ZM283.918 40.08C283.918 39.984 283.87 39.888 283.822 39.792H283.582C283.582 39.888 283.678 39.984 283.726 40.08H283.918ZM284.11 34.704H284.206C284.158 34.56 284.11 34.464 284.11 34.32C284.11 34.32 284.014 34.32 284.014 34.368C284.014 34.464 284.014 34.608 284.11 34.704Z" fill="#082A45"/>
</svg>
