<svg width="177" height="45" viewBox="0 0 177 45" fill="none" xmlns="http://www.w3.org/2000/svg">
<path d="M15.984 40.848V40.992C14.736 41.952 13.104 42.576 12 41.76C11.568 41.472 11.136 39.6 11.136 38.448C11.184 37.056 10.896 35.808 10.56 34.512C9.40802 35.136 8.25602 35.376 7.10402 35.952C5.23202 36.864 6.09602 35.568 5.71202 37.728C5.47202 39.216 5.85602 40.704 5.04002 41.808C3.88802 43.344 2.20802 42.864 1.24802 41.664C1.95652e-05 40.176 0.28802 38.016 0.38402 36.192C0.72002 30.672 2.44802 25.2 3.60002 19.776C4.46402 15.504 5.32802 11.232 6.62402 7.10403C7.20002 5.32803 7.48802 4.17603 9.50402 3.64803C11.184 3.21603 13.056 3.60003 13.584 5.37603C13.68 5.71203 12.912 8.06402 12.864 8.44803C12.816 9.55203 13.008 10.704 13.104 11.808C13.248 14.208 13.152 16.656 13.296 19.056C13.488 22.512 13.248 24.144 13.728 27.552C14.016 29.52 14.592 32.832 14.688 34.848C14.832 36.912 15.888 38.928 15.984 40.848ZM6.67202 30.96C11.04 30.96 10.464 28.656 10.32 24.96C10.224 21.6 10.704 17.424 9.50402 14.256C8.44802 14.976 8.20802 20.448 7.92002 21.792C7.34402 24.816 6.86402 27.888 6.67202 30.96ZM5.37602 26.832C5.42402 26.736 5.56802 26.592 5.37602 26.496C5.28002 26.448 4.94402 26.448 4.80002 26.496V26.448C4.84802 26.352 4.89602 26.256 4.89602 26.208C4.89602 26.112 4.84802 26.016 4.80002 25.92C4.75202 25.824 4.65602 25.728 4.56002 25.68C4.56002 25.632 4.36802 25.68 4.36802 25.728C4.27202 25.92 4.27202 26.064 4.32002 26.208C4.32002 26.304 4.27202 26.4 4.27202 26.448C4.27202 26.544 4.36802 26.592 4.41602 26.64C4.12802 26.832 4.08002 27.024 3.98402 27.168C3.88802 27.264 3.84002 27.408 3.84002 27.552C3.84002 27.696 4.03202 27.792 4.17602 27.936V27.984C4.03202 28.224 3.84002 28.464 3.79202 28.704C3.74402 28.848 3.79202 28.992 3.79202 29.088C3.79202 29.232 3.74402 29.376 3.79202 29.52C3.79202 29.52 3.79202 29.568 3.84002 29.568H3.64802C3.55202 29.664 3.69602 29.808 3.69602 29.904L3.60002 30.192C3.55202 30.24 3.45602 30.432 3.69602 30.528H3.55202C3.40802 30.672 3.55202 30.864 3.50402 31.008C3.45602 31.2 3.16802 31.344 3.07202 31.536C3.02402 31.632 3.21602 31.776 3.26402 31.872C3.26402 31.92 3.26402 31.92 3.31202 31.92L3.26402 31.968C3.12002 32.256 2.59202 32.496 2.83202 32.832C2.88002 32.88 3.16802 32.928 3.21602 32.88C3.40802 32.784 3.36002 32.64 3.50402 32.496L3.69602 32.304L3.55202 32.736C3.45602 32.976 3.45602 33.216 3.16802 33.36C2.92802 33.504 2.88002 33.696 2.97602 33.888L3.12002 34.224V34.272C3.07202 34.224 3.02402 34.128 3.02402 34.08C3.02402 34.08 2.83202 34.032 2.78402 34.032C2.68802 34.128 2.78402 34.272 2.92802 34.368C3.07202 34.512 3.12002 34.608 3.07202 34.752C2.97602 34.704 2.88002 34.704 2.83202 34.752C2.73602 34.752 2.78402 34.848 2.83202 34.848C2.88002 34.944 2.97602 35.088 2.88002 35.136C2.88002 35.184 2.92802 35.184 2.92802 35.184C2.88002 35.28 2.83202 35.376 2.73602 35.472H2.59202C2.44802 35.568 2.49602 35.664 2.40002 35.76C2.35202 35.856 2.35202 36 2.35202 36.096C2.35202 36.192 2.35202 36.24 2.25602 36.288C2.20802 36.288 2.16002 36.336 2.16002 36.336C2.16002 36.432 2.35202 36.48 2.44802 36.528V36.576C2.44802 36.72 2.54402 36.816 2.59202 36.96H2.64002C2.64002 36.864 2.54402 36.72 2.54402 36.624C2.59202 36.672 2.73602 36.672 2.78402 36.672C2.88002 36.624 2.92802 36.624 2.83202 36.528C2.64002 36.384 2.92802 36.384 2.92802 36.288C2.92802 36.144 2.92802 36 2.97602 35.904C2.97602 35.808 3.16802 35.712 3.02402 35.568H2.97602L3.07202 35.52C3.21602 35.376 3.31202 35.232 3.40802 35.088C3.45602 34.944 3.64802 34.752 3.50402 34.608C3.50402 34.56 3.45602 34.512 3.40802 34.512C3.45602 34.512 3.45602 34.512 3.45602 34.464C3.45602 34.416 3.55202 34.368 3.55202 34.272C3.60002 34.176 3.64802 34.08 3.60002 33.984C3.60002 33.888 3.55202 33.792 3.60002 33.696C3.60002 33.6 3.74402 33.504 3.84002 33.408C3.98402 33.264 3.98402 33.072 4.03202 32.88C4.12802 32.64 4.17602 32.4 4.12802 32.16C4.12802 32.112 3.88802 32.112 3.79202 32.112C3.84002 32.064 3.84002 32.064 3.79202 32.064C3.84002 31.968 3.84002 31.824 3.84002 31.728C3.84002 31.68 3.69602 31.536 3.79202 31.488L3.88802 31.392C4.03202 31.248 4.17602 31.152 4.22402 31.008C4.22402 30.864 4.22402 30.72 4.08002 30.576C4.03202 30.576 3.98402 30.576 3.88802 30.528C3.69602 30.432 4.08002 30.24 4.17602 30.192C4.36802 30 4.36802 29.808 4.08002 29.616C4.03202 29.616 3.98402 29.568 3.88802 29.568L3.93602 29.52L4.08002 29.328C4.08002 29.424 4.12802 29.568 4.22402 29.616C4.27202 29.664 4.51202 29.664 4.56002 29.616C4.65602 29.52 4.70402 29.424 4.75202 29.28L4.89602 28.848C4.99202 28.608 5.08802 28.368 4.99202 28.128C4.94402 28.128 4.94402 28.08 4.94402 28.08V28.032H4.89602L4.80002 27.888C4.80002 27.84 4.84802 27.792 4.84802 27.744C4.99202 27.456 5.08802 27.168 5.37602 26.832ZM4.80002 30.288C4.84802 30.24 4.84802 30.192 4.80002 30.144C4.75202 30.048 4.75202 29.952 4.75202 29.856C4.70402 29.808 4.51202 29.76 4.51202 29.808C4.46402 29.856 4.41602 29.952 4.41602 30C4.36802 30.096 4.46402 30.24 4.32002 30.288C4.17602 30.432 4.08002 30.528 4.41602 30.672C4.41602 30.72 4.60802 30.72 4.56002 30.672C4.41602 30.576 4.36802 30.528 4.56002 30.432C4.65602 30.384 4.75202 30.384 4.80002 30.288ZM2.64002 37.536C2.68802 37.44 2.64002 37.296 2.59202 37.2C2.59202 37.152 2.40002 37.104 2.40002 37.152C2.40002 37.248 2.44802 37.392 2.44802 37.488C2.49602 37.488 2.64002 37.536 2.64002 37.536ZM4.36802 31.536H4.46402V31.104C4.46402 31.056 4.41602 31.056 4.36802 31.056C4.36802 31.2 4.32002 31.344 4.36802 31.536ZM4.27202 25.68H4.36802C4.36802 25.68 4.36802 25.632 4.27202 25.68ZM35.058 23.76C36.402 25.728 37.074 27.696 37.362 30.048C37.842 34.32 37.074 37.92 33.618 40.608C30.306 43.152 26.706 41.904 22.962 40.752C22.914 40.752 22.914 40.752 22.914 40.704C21.186 38.592 22.146 37.296 22.29 34.704C22.386 32.448 22.194 30.192 22.194 27.936C22.146 22.944 22.386 17.952 22.386 12.96C22.338 8.78403 21.042 3.79203 25.842 2.49603C29.682 1.44003 34.962 2.25603 36.882 6.09603C38.706 9.74403 38.562 15.216 36.498 18.72C35.97 19.68 34.146 20.688 34.002 21.696C33.714 23.28 34.146 22.416 35.058 23.76ZM32.946 14.16C33.714 11.664 33.666 7.82403 31.746 5.85602C28.722 2.73602 27.09 6.62403 26.946 9.45603C26.754 13.296 26.706 17.088 26.706 20.928C29.538 21.744 32.37 16.224 32.946 14.16ZM29.298 38.16C32.37 36.24 33.042 33.12 32.514 29.76C32.322 28.512 32.226 26.688 31.122 25.968C30.402 25.536 27.522 25.68 26.898 26.4C25.554 27.936 26.322 32.448 26.562 34.368C26.562 34.416 26.61 34.416 26.61 34.464C27.33 34.368 25.218 40.752 29.298 38.16ZM24.93 23.184L24.882 23.136C24.978 22.656 25.458 22.224 25.17 21.792C25.122 21.744 24.882 21.744 24.834 21.792C24.642 21.984 24.69 22.224 24.594 22.416L24.45 22.704C24.45 22.464 24.45 22.272 24.498 22.08C24.546 21.744 24.498 21.408 24.738 21.072C24.93 20.832 24.93 20.592 24.834 20.352C24.786 20.208 24.738 20.016 24.642 19.872C24.69 19.92 24.738 19.968 24.738 20.016C24.738 20.064 24.978 20.064 24.978 20.016C25.074 19.872 24.93 19.728 24.786 19.632C24.594 19.488 24.546 19.296 24.546 19.152C24.642 19.152 24.738 19.104 24.834 19.104C24.93 19.008 24.834 18.96 24.786 18.864C24.738 18.768 24.594 18.624 24.642 18.528C24.642 18.48 24.642 18.48 24.594 18.48L24.738 18C24.786 18 24.834 18 24.882 17.952C25.026 17.808 24.978 17.664 25.026 17.52C25.074 17.328 24.978 17.184 24.978 16.992C24.978 16.896 24.978 16.848 25.026 16.752C25.074 16.704 25.122 16.656 25.122 16.608C25.074 16.512 24.882 16.512 24.786 16.416V16.368C24.786 16.224 24.642 16.08 24.594 15.888H24.498C24.546 16.032 24.69 16.176 24.69 16.32H24.45C24.354 16.416 24.354 16.464 24.45 16.56C24.642 16.704 24.402 16.8 24.402 16.944C24.45 17.136 24.45 17.328 24.45 17.472C24.45 17.664 24.306 17.808 24.45 17.952C24.45 18 24.45 18 24.498 18C24.45 18 24.45 18.048 24.45 18.048C24.258 18.288 24.21 18.528 24.162 18.768C24.162 18.96 24.018 19.248 24.162 19.44L24.306 19.584H24.258C24.306 19.68 24.21 19.824 24.162 19.92C24.162 20.064 24.162 20.208 24.21 20.352C24.258 20.496 24.306 20.592 24.306 20.736C24.306 20.88 24.162 21.024 24.114 21.168C23.97 21.456 24.018 21.744 23.97 22.032C23.97 22.32 23.922 22.704 24.018 22.992C24.066 23.04 24.21 23.088 24.306 23.088C24.306 23.088 24.306 23.136 24.354 23.136C24.354 23.28 24.354 23.424 24.402 23.568C24.402 23.664 24.594 23.808 24.498 23.904C24.45 24 24.402 24.048 24.402 24.096C24.258 24.288 24.162 24.48 24.162 24.672C24.162 24.816 24.162 25.056 24.354 25.2C24.402 25.248 24.498 25.248 24.546 25.248C24.738 25.392 24.402 25.68 24.306 25.824C24.162 26.064 24.162 26.4 24.498 26.592C24.594 26.64 24.882 26.688 24.93 26.592C25.026 26.448 24.882 26.256 24.882 26.112C24.834 25.968 24.882 25.872 24.882 25.728C24.93 25.584 24.978 25.344 24.738 25.248C24.834 25.248 24.882 25.2 24.882 25.2C25.026 24.96 24.834 24.72 24.834 24.48C24.882 24.24 25.122 23.952 25.17 23.664C25.218 23.52 25.026 23.376 24.93 23.184ZM24.93 30.096C24.978 29.904 25.026 29.712 25.026 29.52C24.978 29.328 24.834 29.184 24.642 28.992V28.944C24.738 28.56 24.93 28.224 24.93 27.84C24.93 27.648 24.93 27.456 24.882 27.264C24.834 27.072 24.882 26.88 24.786 26.688H24.642C24.594 26.832 24.546 26.928 24.546 27.072C24.498 26.928 24.498 26.784 24.354 26.64C24.354 26.592 24.066 26.592 24.018 26.64C23.922 26.832 23.922 27.024 23.922 27.168L23.778 27.792C23.73 28.176 23.682 28.512 23.826 28.848C23.874 28.944 23.97 29.04 24.066 29.136L23.97 29.328C23.874 29.76 23.826 30.192 23.586 30.624C23.49 30.72 23.394 30.912 23.538 31.008C23.682 31.104 23.97 31.104 24.162 31.056C24.162 31.056 24.162 31.104 24.114 31.152C24.066 31.248 24.018 31.344 24.018 31.44C24.018 31.68 24.162 31.968 24.258 32.16C24.258 32.208 24.498 32.208 24.498 32.16C24.594 31.968 24.642 31.728 24.594 31.488C24.594 31.392 24.642 31.248 24.642 31.152C24.69 31.056 24.594 30.96 24.498 30.864C24.786 30.624 24.834 30.336 24.93 30.096ZM23.682 25.776C23.634 25.824 23.682 25.92 23.73 26.016L23.826 26.4C23.826 26.448 24.066 26.448 24.066 26.4C24.114 26.304 24.114 26.208 24.114 26.112C24.162 25.968 24.066 25.824 24.162 25.68C24.306 25.44 24.402 25.344 24.018 25.152C23.97 25.152 23.826 25.152 23.874 25.2C24.018 25.296 24.066 25.392 23.922 25.536C23.826 25.584 23.73 25.68 23.682 25.776ZM24.402 15.12C24.402 15.264 24.45 15.408 24.498 15.552C24.546 15.6 24.738 15.6 24.738 15.552C24.738 15.408 24.642 15.264 24.594 15.12C24.594 15.072 24.402 15.072 24.402 15.12ZM23.922 24C23.922 23.952 23.826 23.952 23.826 24C23.874 24.192 23.874 24.384 23.874 24.624H23.97C23.97 24.384 23.97 24.192 23.922 24ZM24.546 32.304C24.546 32.304 24.594 32.256 24.546 32.256H24.45C24.498 32.256 24.498 32.304 24.546 32.304ZM60.3026 11.76C60.3986 15.6 60.3986 19.584 60.2546 23.376C60.1586 26.784 59.0546 44.688 52.1426 40.704C51.5186 40.32 51.3266 39.648 50.7506 39.312C50.0786 38.928 49.2626 39.12 48.6386 38.736C46.7666 37.68 45.8066 35.424 45.2786 33.456C44.2706 29.712 45.2306 24.96 43.8866 21.408C45.0386 20.88 44.7506 17.376 44.8466 16.464C45.0386 13.968 45.2786 11.664 46.0946 9.31203C46.6226 7.68003 47.1986 5.61602 48.4946 4.36803C50.1746 2.64003 52.5266 3.07203 54.7826 3.16803C57.1346 3.31203 57.5186 3.64803 58.5746 5.71203C59.5346 7.58403 60.3026 9.64803 60.3026 11.76ZM54.9746 23.712C55.1186 20.448 54.5906 17.28 54.5906 14.064C54.5906 11.232 54.4946 9.40803 53.5346 6.67203C48.6866 8.78403 49.5506 15.168 49.2626 19.68C49.1186 22.176 49.0706 24.528 49.3106 27.024C49.5506 29.28 51.4226 33.216 51.0866 35.04C53.2946 36.336 53.5826 34.224 54.0146 32.208C54.5906 29.52 54.8306 26.496 54.9746 23.712ZM58.5266 23.856C58.5746 23.52 58.6226 23.184 58.5266 22.848C58.4786 22.8 58.2866 22.752 58.1906 22.8C58.2386 22.752 58.2386 22.752 58.1906 22.704V22.272C58.1906 22.176 57.9986 22.032 58.1426 21.936V21.888C58.1426 21.84 58.1906 21.792 58.2386 21.744C58.3346 21.552 58.4786 21.36 58.4786 21.168C58.4786 21.024 58.4786 20.784 58.2866 20.592C58.2386 20.592 58.1906 20.592 58.0946 20.544C57.9026 20.448 58.2386 20.112 58.3346 20.016C58.4786 19.728 58.4786 19.44 58.1906 19.2C58.0946 19.152 57.7586 19.152 57.7586 19.248C57.6626 19.392 57.8066 19.536 57.8066 19.68C57.8066 19.824 57.8066 19.968 57.7586 20.112C57.7586 20.208 57.6626 20.448 57.9026 20.544C57.8066 20.592 57.7586 20.592 57.7586 20.64C57.6146 20.832 57.8066 21.072 57.7586 21.312C57.7586 21.6 57.4706 21.84 57.4226 22.128C57.3746 22.272 57.5666 22.464 57.6146 22.608C57.6626 22.608 57.6626 22.656 57.6626 22.656C57.5666 23.136 57.0386 23.52 57.3266 24C57.3266 24.048 57.6146 24.048 57.6626 24C57.8546 23.808 57.8066 23.616 57.9026 23.424L58.0946 23.136L57.9986 23.76C57.9506 24.096 57.9506 24.432 57.6626 24.72C57.4706 24.96 57.4226 25.2 57.5186 25.44C57.5186 25.584 57.5666 25.68 57.5666 25.776C57.5186 25.728 57.3746 25.68 57.3266 25.728C57.2306 25.872 57.3746 26.016 57.5186 26.16C57.6626 26.304 57.7106 26.496 57.6626 26.64C57.5666 26.64 57.4706 26.64 57.4226 26.688C57.3266 26.736 57.3746 26.832 57.4226 26.88C57.4706 27.024 57.5666 27.168 57.5186 27.264C57.5186 27.312 57.5186 27.312 57.5666 27.312C57.4706 27.456 57.4226 27.6 57.3746 27.744C57.2786 27.744 57.2306 27.744 57.2306 27.792C57.0866 27.888 57.0866 28.032 57.0386 28.176C56.9426 28.32 56.9426 28.512 56.9426 28.656C56.9426 28.752 56.9426 28.8 56.8466 28.896C56.7986 28.944 56.7506 28.944 56.7506 28.992C56.7506 29.088 56.9426 29.136 56.9906 29.232V29.28C56.9906 29.376 56.9906 29.472 57.0386 29.52C57.0386 29.616 57.0866 29.712 57.0866 29.76C57.0866 29.808 57.1826 29.808 57.1826 29.808C57.1826 29.664 57.0866 29.52 57.0866 29.376C57.1346 29.376 57.2786 29.424 57.3266 29.424C57.4226 29.376 57.4706 29.28 57.3746 29.184C57.2306 29.04 57.5186 28.992 57.5186 28.848C57.5186 28.656 57.5186 28.464 57.5666 28.32C57.6146 28.176 57.7586 27.984 57.6146 27.84V27.792C57.6146 27.792 57.6626 27.792 57.6626 27.744C57.8546 27.552 57.9506 27.312 57.9986 27.072C58.0946 26.88 58.2386 26.592 58.0946 26.4C58.0946 26.352 58.0466 26.304 57.9986 26.256H58.0466C57.9986 26.16 58.1426 26.064 58.1426 25.92C58.1906 25.776 58.1906 25.632 58.1426 25.488C58.1426 25.344 58.0946 25.248 58.0946 25.104C58.1426 24.96 58.2386 24.816 58.3346 24.672C58.4786 24.432 58.4786 24.096 58.5266 23.856ZM59.0546 15.168C59.1026 15.024 59.2466 14.832 59.0546 14.736C58.9586 14.64 58.6226 14.688 58.4306 14.736C58.4786 14.736 58.4786 14.688 58.4786 14.64C58.5266 14.544 58.5746 14.448 58.5746 14.304C58.5746 14.112 58.3826 13.824 58.2866 13.584C58.2386 13.584 58.0466 13.584 58.0466 13.632C57.9506 13.872 57.9026 14.112 57.9506 14.304C57.9986 14.448 57.9506 14.544 57.9506 14.688C57.9506 14.784 58.0466 14.88 58.0946 14.976C57.8546 15.216 57.8066 15.504 57.7106 15.744C57.6626 15.936 57.6146 16.128 57.6626 16.272C57.6626 16.512 57.8546 16.656 58.0466 16.8V16.848C57.9026 17.232 57.7586 17.616 57.7586 17.952C57.7586 18.144 57.7586 18.336 57.8066 18.528C57.8546 18.72 57.8066 18.912 57.9026 19.104C57.9026 19.152 57.9986 19.152 58.0466 19.104C58.0466 19.056 58.0946 18.96 58.1426 18.864C58.1426 19.008 58.1906 19.104 58.2866 19.2C58.3346 19.248 58.6226 19.2 58.6706 19.152C58.7666 19.008 58.7666 18.816 58.7666 18.672L58.9106 18C58.9586 17.664 58.9586 17.28 58.8626 16.944C58.8146 16.848 58.7186 16.752 58.6226 16.656C58.6226 16.608 58.6706 16.512 58.6706 16.464C58.7666 16.032 58.8146 15.6 59.0546 15.168ZM58.9586 20.064C59.0066 20.016 59.0066 19.92 58.9586 19.824C58.8626 19.68 58.9106 19.584 58.8626 19.44C58.8146 19.392 58.6226 19.392 58.6226 19.44L58.5266 19.728C58.5266 19.872 58.6226 20.016 58.5266 20.16C58.3826 20.4 58.2866 20.496 58.6226 20.688H58.7666C58.6226 20.544 58.5746 20.448 58.7186 20.304C58.8146 20.256 58.9106 20.16 58.9586 20.064ZM56.9906 30.528C57.0866 30.432 57.0866 30.24 57.0866 30.096C57.0866 30.048 56.8466 30 56.8466 30.048V30.48C56.8466 30.528 56.9906 30.576 56.9906 30.528ZM58.6706 21.888H58.8146L58.7186 21.264C58.7186 21.216 58.6706 21.216 58.6706 21.264C58.6706 21.456 58.6226 21.648 58.6706 21.888ZM57.7106 26.016C57.6146 25.92 57.5666 25.824 57.6146 25.776C57.6146 25.824 57.6146 25.872 57.6626 25.92C57.6626 25.92 57.7106 25.968 57.7106 26.016ZM58.0946 13.536H57.9986L58.0466 13.584L58.0946 13.536ZM57.6146 25.776H57.5666H57.6146ZM83.4975 6.67203C83.2575 9.64803 84.0255 12.672 83.9295 15.6C83.8335 19.008 83.6895 22.32 83.7855 25.776C83.8815 28.8 83.8335 31.344 83.3535 34.32C82.9215 37.344 84.0735 40.128 80.2815 40.992C78.8895 41.328 77.3055 41.28 75.8655 41.52C74.7135 41.664 73.3695 42.144 72.2175 41.664C68.9055 40.32 68.3775 37.344 67.9935 34.272C67.1775 27.744 67.5615 21.024 67.6575 14.4C67.6575 12.816 67.9935 11.136 67.8495 9.60003C67.7535 8.35203 67.1775 7.24803 67.0335 6.04803C66.8895 4.70403 66.5055 4.17603 68.1855 3.31203C69.1455 2.78403 70.7295 2.59203 71.7855 2.73602C72.8415 2.88003 73.5135 3.21603 74.1855 4.03203C75.4815 5.56803 74.7615 6.09603 74.4735 7.87203C73.8495 11.232 73.9935 14.976 73.8495 18.384C73.7055 21.504 71.8815 39.168 76.9695 38.4C81.8655 37.68 78.6495 28.08 79.2735 25.2C79.2255 25.296 79.2735 24.912 79.2735 25.056C79.7535 19.632 79.5135 14.064 79.5135 8.59203C79.5615 7.20003 79.1295 3.84002 80.4255 2.83203C83.4495 0.480025 83.6895 5.13603 83.4975 6.67203ZM69.5295 19.008C69.5295 18.624 69.5775 18.24 69.4815 17.856C69.4335 17.808 69.2415 17.76 69.1455 17.808C69.1935 17.76 69.1935 17.712 69.1455 17.712V17.184C69.1455 17.088 68.9535 16.896 69.0495 16.8V16.752C69.0975 16.704 69.1455 16.656 69.1455 16.608C69.2895 16.368 69.3855 16.176 69.4335 15.936C69.4335 15.744 69.4335 15.456 69.2415 15.312C69.1935 15.264 69.1455 15.216 69.0495 15.216C68.8575 15.072 69.2415 14.736 69.2895 14.592C69.4815 14.304 69.4815 13.92 69.1935 13.68C69.0975 13.632 68.7615 13.584 68.7135 13.68C68.6655 13.824 68.8095 14.016 68.8095 14.208C68.8095 14.352 68.7615 14.496 68.7135 14.688C68.7135 14.832 68.6175 15.072 68.8575 15.216C68.7615 15.216 68.7135 15.264 68.7135 15.312C68.5695 15.552 68.7615 15.84 68.7135 16.08C68.6655 16.416 68.4255 16.704 68.3775 17.04C68.3295 17.232 68.5215 17.424 68.5695 17.568C68.5695 17.616 68.6175 17.616 68.6175 17.664C68.5215 18.192 68.0415 18.72 68.3295 19.248C68.3295 19.296 68.6175 19.296 68.6655 19.248C68.8575 19.008 68.8095 18.768 68.9055 18.528L69.0495 18.192C69.0495 18.432 69.0495 18.672 69.0015 18.912C68.9535 19.296 68.9535 19.68 68.7135 20.064C68.5215 20.352 68.5215 20.64 68.6655 20.928C68.6655 21.072 68.7135 21.168 68.7615 21.264C68.7135 21.216 68.5215 21.216 68.4735 21.264C68.4255 21.456 68.5695 21.648 68.7135 21.792C68.9055 21.936 68.9535 22.128 68.9535 22.32C68.8575 22.32 68.7615 22.368 68.7135 22.416C68.6175 22.464 68.6655 22.56 68.7135 22.608C68.8095 22.752 68.9055 22.944 68.9055 23.088C68.9055 23.28 68.8575 23.472 68.8095 23.664C68.7615 23.664 68.7135 23.712 68.7135 23.712C68.5695 23.856 68.6175 24.096 68.6175 24.24C68.5695 24.432 68.6175 24.624 68.6655 24.816C68.6655 24.96 68.7135 25.008 68.6175 25.152C68.5695 25.2 68.5695 25.248 68.5695 25.296C68.5695 25.392 68.8095 25.44 68.9055 25.488V25.584C68.9055 25.776 69.0975 25.92 69.1455 26.112H69.2415C69.1935 25.92 69.0495 25.776 69.0015 25.632C69.0495 25.632 69.1935 25.632 69.2415 25.584C69.3375 25.488 69.3375 25.392 69.2415 25.344C69.0495 25.2 69.2895 25.008 69.2415 24.864C69.1935 24.672 69.1455 24.432 69.1455 24.24C69.1455 24.048 69.2895 23.856 69.0975 23.664C69.0975 23.664 69.0975 23.616 69.1455 23.616C69.2895 23.328 69.2895 23.04 69.3375 22.752C69.3855 22.512 69.4815 22.176 69.3375 21.936C69.2895 21.888 69.2415 21.84 69.1935 21.84C69.2415 21.84 69.2415 21.792 69.2415 21.792C69.1935 21.648 69.2895 21.552 69.3375 21.408C69.3375 21.264 69.3375 21.072 69.2895 20.928C69.2415 20.784 69.1935 20.64 69.1935 20.496C69.1935 20.304 69.2895 20.112 69.3855 19.968C69.4815 19.632 69.4815 19.296 69.5295 19.008ZM70.3455 9.12003C70.4415 8.97603 70.5375 8.78403 70.3935 8.64003C70.2975 8.54403 69.9615 8.54403 69.7695 8.59203C69.7695 8.54403 69.8175 8.49603 69.8175 8.44803C69.8655 8.35203 69.9135 8.20803 69.9135 8.11203C69.9615 7.82403 69.8175 7.53603 69.7215 7.24803C69.7215 7.20003 69.5295 7.20003 69.4815 7.24803C69.3855 7.48803 69.3375 7.77603 69.3375 8.01603C69.3855 8.16003 69.2895 8.30403 69.2895 8.44803C69.2895 8.54403 69.3375 8.64003 69.4335 8.78403C69.1455 9.02403 69.0495 9.36003 68.9535 9.60003C68.8575 9.84002 68.8095 10.032 68.8575 10.272C68.8575 10.512 69.0015 10.656 69.1935 10.896V10.944C69.0495 11.376 68.8575 11.76 68.8095 12.192C68.8095 12.432 68.8095 12.672 68.8575 12.864C68.8575 13.104 68.8095 13.296 68.9055 13.536C68.9055 13.584 69.0015 13.584 69.0495 13.536L69.1935 13.152C69.1935 13.296 69.1935 13.488 69.2895 13.632C69.3375 13.68 69.6255 13.68 69.6735 13.632C69.7695 13.44 69.7695 13.248 69.8175 13.056L69.9615 12.336C70.0095 11.952 70.1055 11.52 69.9615 11.136C69.9615 10.992 69.8655 10.896 69.7695 10.8C69.8175 10.704 69.8175 10.608 69.8655 10.56C69.9615 10.08 70.0575 9.60003 70.3455 9.12003ZM82.6815 9.07203C82.6815 9.02403 82.6335 8.97603 82.6815 8.92803C82.7295 8.92803 82.7295 8.88003 82.7295 8.88003C82.7295 8.83203 82.6335 8.83203 82.5855 8.78403L82.4415 8.59203H82.3935L82.5375 8.78403C82.4895 8.73602 82.3935 8.78403 82.3935 8.78403C82.3455 8.83203 82.3455 8.83203 82.3935 8.88003C82.4895 8.92803 82.3935 8.97603 82.3935 9.07203C82.3935 9.12003 82.4415 9.21603 82.3935 9.26403C82.3935 9.36003 82.3455 9.40803 82.4415 9.50403H82.3935C82.3455 9.60003 82.2975 9.69603 82.2975 9.79203C82.2495 9.88803 82.2015 10.032 82.2495 10.08C82.2495 10.128 82.2975 10.128 82.2975 10.176C82.2975 10.224 82.2495 10.224 82.2495 10.272V10.464C82.2495 10.512 82.2975 10.608 82.2975 10.656C82.2975 10.704 82.2015 10.752 82.1535 10.8C82.1055 10.944 82.1055 11.04 82.1055 11.136C82.0575 11.28 82.0095 11.424 82.0575 11.568C82.1055 11.616 82.2015 11.616 82.2495 11.616C82.2495 11.712 82.2015 11.76 82.2495 11.808C82.2495 11.856 82.2975 11.952 82.2495 11.952C82.2495 12 82.2015 12 82.2015 12.048C82.1535 12.096 82.0575 12.192 82.0575 12.288C82.0575 12.336 82.0575 12.432 82.1535 12.528H82.2495C82.3455 12.576 82.1535 12.72 82.1055 12.768C82.0095 12.864 82.0095 13.008 82.1535 13.104C82.1535 13.104 82.2015 13.152 82.2495 13.152C82.2015 13.2 82.1535 13.248 82.1535 13.296C82.1535 13.2 82.1535 13.152 82.1055 13.104C82.0575 13.056 81.9135 13.056 81.9135 13.104L81.8175 13.296C81.8175 13.392 81.7695 13.488 81.7695 13.584C81.7215 13.728 81.6735 13.872 81.7695 14.016C81.7695 14.064 81.8175 14.112 81.8655 14.112C81.8175 14.16 81.8175 14.208 81.8175 14.208C81.7695 14.4 81.7215 14.592 81.5775 14.736C81.5775 14.784 81.4815 14.88 81.5775 14.928C81.6255 14.976 81.7695 14.976 81.8655 14.928V14.976C81.8655 15.024 81.8175 15.072 81.8175 15.12C81.8175 15.216 81.9135 15.312 81.9615 15.408C81.9615 15.456 82.0575 15.408 82.0575 15.408C82.1055 15.312 82.1535 15.216 82.1055 15.12C82.1055 15.072 82.1535 15.024 82.1535 14.976C82.1535 14.928 82.1055 14.88 82.0575 14.832C82.2015 14.784 82.2015 14.64 82.2495 14.544C82.2975 14.448 82.3455 14.4 82.3455 14.304C82.2975 14.208 82.2495 14.16 82.1535 14.112V14.064L82.3455 13.632C82.3455 13.536 82.3455 13.44 82.2975 13.392C82.2975 13.296 82.3455 13.2 82.2975 13.152H82.2495C82.2975 13.152 82.3455 13.152 82.3935 13.104C82.4415 13.056 82.3455 12.96 82.3455 12.912C82.3455 12.864 82.3935 12.816 82.3935 12.72C82.3935 12.672 82.4415 12.576 82.3455 12.528H82.3935C82.4895 12.432 82.3935 12.336 82.3935 12.24C82.4415 12.096 82.5855 12 82.6335 11.904C82.6335 11.856 82.5375 11.76 82.5375 11.712C82.4895 11.712 82.4895 11.664 82.4895 11.664C82.5855 11.472 82.8255 11.328 82.6815 11.088H82.4895C82.3935 11.184 82.4415 11.28 82.3935 11.376C82.3455 11.376 82.3455 11.424 82.2975 11.472C82.2975 11.376 82.2975 11.28 82.3455 11.184C82.3455 11.088 82.3935 10.944 82.4895 10.8C82.5855 10.704 82.6335 10.608 82.5855 10.464L82.4895 10.32V10.272C82.4895 10.272 82.5375 10.32 82.5375 10.368H82.6335C82.6815 10.32 82.6335 10.224 82.5375 10.176C82.4895 10.128 82.4415 10.032 82.4415 9.98403C82.4895 9.98403 82.5375 9.98403 82.5855 9.93603C82.6335 9.93603 82.5855 9.88803 82.5855 9.88803C82.5375 9.84002 82.4895 9.74403 82.4895 9.69603C82.4895 9.64803 82.5375 9.55203 82.5375 9.50403C82.5855 9.50403 82.6335 9.50403 82.6335 9.45603C82.6815 9.40803 82.6815 9.36003 82.6815 9.26403C82.7295 9.21603 82.6815 9.12003 82.6815 9.07203ZM69.9615 14.688C70.0095 14.592 69.9615 14.496 69.9135 14.4L69.8175 13.92C69.8175 13.872 69.6255 13.872 69.5775 13.92C69.5295 14.064 69.5295 14.16 69.5295 14.304C69.4815 14.448 69.5775 14.592 69.4815 14.784C69.3375 15.024 69.2415 15.168 69.5775 15.36C69.6255 15.408 69.7695 15.408 69.7215 15.36C69.5775 15.216 69.5295 15.12 69.7215 14.976C69.8175 14.88 69.9135 14.784 69.9615 14.688ZM69.4335 26.976C69.4335 26.832 69.3855 26.64 69.2895 26.496C69.2415 26.448 69.0495 26.448 69.0495 26.544C69.0975 26.688 69.1935 26.832 69.2415 27.024C69.2895 27.024 69.4335 27.024 69.4335 26.976ZM81.7695 12.72V12.816C81.8175 12.864 81.8175 12.912 81.8175 12.96C81.8175 13.008 81.9135 13.008 81.9615 13.008C81.9615 12.96 81.9615 12.912 82.0095 12.864C82.0095 12.816 81.9615 12.768 82.0095 12.672C82.1055 12.624 82.1535 12.576 81.9615 12.48C81.9615 12.432 81.8655 12.432 81.9135 12.48C81.9615 12.528 82.0095 12.576 81.9135 12.624C81.8655 12.624 81.8175 12.672 81.7695 12.72ZM69.6255 16.752H69.7215C69.7215 16.512 69.6735 16.272 69.6735 16.032C69.6735 15.984 69.6255 15.984 69.6255 16.032C69.5775 16.272 69.5775 16.512 69.6255 16.752ZM82.2975 8.25603C82.2975 8.35203 82.3455 8.40003 82.3935 8.44803H82.4895C82.4895 8.35203 82.4415 8.30403 82.3935 8.25603H82.2975ZM81.9615 11.952H81.9135V12.24H81.9615C81.9615 12.144 82.0095 12.048 81.9615 11.952ZM68.7615 21.264C68.7615 21.312 68.8095 21.408 68.8575 21.456V21.552C68.8095 21.456 68.7615 21.36 68.7615 21.264ZM69.4815 7.10403C69.4335 7.10403 69.4335 7.10403 69.4335 7.15203H69.5295C69.5295 7.15203 69.5295 7.10403 69.4815 7.10403ZM109.707 2.59203C111.963 5.85602 108.027 5.85602 106.011 5.90403C103.515 6.00003 102.363 5.66403 102.123 8.20803C101.835 11.04 102.075 14.064 102.123 16.896C102.171 22.56 102.603 28.176 102.747 33.84C102.795 35.952 104.139 40.272 102.075 41.28C100.587 42 98.1874 40.896 97.6114 39.36C96.9394 37.68 97.8994 34.176 97.8034 32.304C97.7074 29.952 97.7554 27.6 97.7554 25.2C97.7074 22.128 97.8034 19.104 97.7074 16.032C97.6594 13.536 98.1874 10.32 97.5634 7.92003C97.6594 8.54403 97.0834 7.53603 97.4194 7.63203C95.2594 6.48003 91.6114 9.07203 89.4514 7.15203C88.4434 6.28802 88.3954 4.22403 89.1154 3.26403C90.3154 1.53603 93.0514 3.60003 94.9714 3.40802C96.1714 3.26403 97.2754 2.88003 98.3314 2.44803C100.395 1.58403 100.779 2.01603 102.891 1.87202C105.099 1.72803 107.931 2.57492e-05 109.707 2.59203ZM100.443 28.224C100.443 28.032 100.587 27.696 100.395 27.504L100.299 27.408C100.299 27.312 100.347 27.168 100.395 27.072C100.395 26.928 100.395 26.784 100.299 26.64C100.251 26.544 100.203 26.4 100.203 26.256C100.203 26.112 100.299 25.968 100.395 25.824C100.491 25.536 100.443 25.248 100.443 25.008C100.491 24.672 100.491 24.336 100.347 24.048C100.299 23.952 100.107 23.952 100.011 24C100.059 23.952 100.059 23.952 100.011 23.952C100.011 23.808 100.011 23.664 99.9634 23.52C99.9634 23.424 99.7714 23.232 99.8674 23.136C99.8674 23.088 99.9154 23.04 99.9634 22.992C100.059 22.752 100.155 22.608 100.155 22.416C100.155 22.224 100.107 21.984 99.9154 21.84H99.7234C99.5314 21.696 99.8674 21.408 99.9154 21.264C100.059 20.976 100.059 20.688 99.7234 20.496C99.6274 20.448 99.2914 20.448 99.2914 20.544C99.1954 20.688 99.3394 20.832 99.3874 20.976C99.3874 21.12 99.3874 21.264 99.3394 21.408C99.3394 21.504 99.2914 21.744 99.5314 21.84C99.4354 21.84 99.3874 21.888 99.3874 21.888C99.2914 22.128 99.4834 22.368 99.4834 22.608C99.4354 22.848 99.1954 23.136 99.1954 23.424C99.1474 23.568 99.3394 23.712 99.4354 23.856C99.4354 23.904 99.4834 23.904 99.4834 23.904V23.952C99.3874 24.384 98.9554 24.864 99.2914 25.296C99.2914 25.344 99.5794 25.296 99.6274 25.248C99.7714 25.056 99.7234 24.864 99.8194 24.624L99.9634 24.336V24.96C99.9154 25.296 99.9634 25.632 99.7234 25.968C99.5794 26.208 99.5794 26.448 99.6754 26.688L99.8194 26.976C99.7714 26.928 99.5794 26.976 99.5314 27.024C99.4834 27.168 99.6274 27.264 99.7714 27.408C99.9634 27.504 100.011 27.696 100.011 27.84C99.9154 27.84 99.8194 27.888 99.7714 27.936C99.6754 27.984 99.7714 28.08 99.8194 28.128C99.8674 28.224 100.011 28.368 99.9634 28.464C99.9634 28.512 100.011 28.512 100.011 28.512C100.011 28.656 99.9634 28.848 99.9154 28.992C99.8674 28.992 99.8194 29.04 99.7714 29.04C99.6754 29.184 99.7234 29.328 99.6754 29.472C99.6274 29.664 99.7234 29.808 99.7234 30C99.7234 30.096 99.7714 30.144 99.6754 30.24C99.6274 30.288 99.6274 30.336 99.6274 30.384C99.6274 30.48 99.8194 30.48 99.9634 30.528V30.624C99.9634 30.768 100.107 30.912 100.203 31.056H100.251L100.059 30.624C100.107 30.672 100.251 30.624 100.299 30.624C100.395 30.528 100.395 30.48 100.299 30.384C100.107 30.288 100.347 30.144 100.299 30C100.251 29.856 100.203 29.664 100.251 29.472C100.251 29.328 100.395 29.136 100.203 28.992H100.155C100.203 28.992 100.203 28.944 100.203 28.944C100.347 28.704 100.395 28.464 100.443 28.224ZM100.491 16.512C100.587 16.416 100.683 16.224 100.539 16.128C100.395 16.032 100.107 16.08 99.9154 16.128C99.9154 16.08 99.9154 16.032 99.9634 16.032C99.9634 15.888 100.011 15.792 100.059 15.696C100.059 15.456 99.9154 15.216 99.8194 14.976H99.5314C99.4834 15.216 99.4354 15.456 99.4354 15.696C99.4834 15.792 99.4354 15.888 99.4354 16.032C99.3874 16.128 99.4834 16.224 99.5794 16.32C99.2914 16.512 99.2434 16.848 99.1954 17.04C99.0994 17.232 99.0994 17.424 99.0994 17.616C99.0994 17.808 99.2914 17.952 99.4834 18.144V18.192C99.3874 18.576 99.2434 18.912 99.2434 19.296C99.2434 19.488 99.2914 19.68 99.2914 19.824C99.3394 20.016 99.3394 20.208 99.4354 20.4C99.4354 20.448 99.5314 20.448 99.5794 20.4L99.6754 20.064C99.6754 20.208 99.7234 20.352 99.8194 20.448C99.8674 20.496 100.155 20.496 100.203 20.4L100.299 19.92C100.299 19.68 100.347 19.488 100.395 19.296C100.443 18.96 100.443 18.576 100.299 18.288C100.251 18.144 100.155 18.048 100.059 18C100.107 17.904 100.107 17.856 100.107 17.76C100.203 17.376 100.251 16.944 100.491 16.512ZM100.587 21.312C100.587 21.216 100.587 21.12 100.539 21.072C100.443 20.928 100.443 20.784 100.395 20.64C100.395 20.64 100.155 20.64 100.155 20.688C100.107 20.784 100.107 20.88 100.107 20.976C100.107 21.12 100.203 21.264 100.107 21.408C99.9634 21.6 99.8674 21.744 100.251 21.888C100.299 21.936 100.443 21.888 100.395 21.888C100.251 21.792 100.203 21.648 100.347 21.552L100.587 21.312ZM100.395 31.824C100.443 31.68 100.347 31.536 100.299 31.392C100.251 31.344 100.059 31.344 100.059 31.392C100.107 31.536 100.155 31.68 100.251 31.824C100.251 31.872 100.395 31.824 100.395 31.824ZM100.395 23.04C100.395 23.088 100.539 23.04 100.539 23.04L100.395 22.416C100.395 22.416 100.347 22.416 100.347 22.464C100.347 22.656 100.347 22.848 100.395 23.04ZM99.8194 26.976C99.8194 27.024 99.8674 27.072 99.9154 27.12V27.216C99.8674 27.12 99.8194 27.072 99.8194 26.976ZM99.4834 14.88V14.928H99.5794C99.5794 14.928 99.5314 14.88 99.4834 14.88ZM152.473 4.27203C154.249 5.04003 153.769 6.38403 153.721 7.92003C153.577 12.384 153.577 16.848 153.433 21.312C153.241 25.968 152.713 30.96 153.049 35.568C153.193 37.584 154.537 44.784 149.737 41.376C147.769 39.936 148.777 34.272 148.825 31.872C148.873 29.568 149.017 27.264 149.065 24.96C149.113 22.944 149.833 19.584 149.305 17.52C149.497 18.384 148.729 17.712 149.113 17.376C147.241 18.528 146.281 22.656 145.609 24.576C145.225 25.632 144.553 26.688 144.265 27.744C143.977 28.656 144.169 30.384 143.545 31.152C141.865 33.264 138.697 31.248 137.881 29.04C137.737 28.608 137.737 26.736 137.689 26.4C137.449 24.672 137.065 22.896 136.729 21.168C136.633 20.688 136.201 17.616 135.817 17.328C134.569 16.464 135.145 17.952 134.953 18.624C134.281 21.072 134.905 24.192 134.713 26.784C134.473 30.096 134.281 33.408 134.137 36.72C134.041 38.736 135.049 42.192 132.313 42.528C126.745 43.2 129.481 30.672 129.625 27.552C129.913 21.744 131.161 14.064 129.577 8.35203C128.905 5.95203 127.657 4.89603 131.113 4.36803C133.561 3.98403 135.577 5.42403 136.297 7.87203C136.489 8.49603 136.057 9.40803 136.201 10.272C136.393 11.76 137.545 13.488 138.073 14.88C139.225 17.808 139.225 22.272 141.049 24.72C142.489 23.664 142.921 21.648 143.545 20.016C144.217 18.144 145.129 16.56 145.993 14.784C146.713 13.104 147.577 11.184 147.961 9.36003C148.249 8.01603 147.865 6.67203 148.537 5.52003C149.305 4.27203 151.081 3.69603 152.473 4.27203ZM133.081 28.464C133.129 28.416 133.129 28.368 133.081 28.32C133.081 28.224 133.081 28.176 133.033 28.128C132.985 28.08 132.697 28.08 132.649 28.128C132.553 28.224 132.553 28.32 132.505 28.416C132.505 28.512 132.457 28.608 132.409 28.704C132.361 28.8 132.313 28.896 132.217 28.992L132.313 28.368C132.313 28.272 132.361 28.224 132.361 28.128V28.032C132.361 27.984 132.409 27.936 132.409 27.888C132.409 27.792 132.457 27.744 132.457 27.648L132.601 27.408C132.697 27.264 132.745 27.168 132.745 27.024C132.745 26.88 132.745 26.784 132.649 26.64L132.457 26.256C132.409 26.208 132.409 26.208 132.409 26.16C132.505 26.208 132.553 26.304 132.553 26.352C132.553 26.4 132.793 26.4 132.793 26.352C132.889 26.208 132.697 26.064 132.553 25.968C132.361 25.824 132.313 25.68 132.265 25.536C132.361 25.536 132.505 25.488 132.553 25.44C132.649 25.392 132.553 25.296 132.505 25.248C132.409 25.152 132.313 25.008 132.313 24.912H132.265C132.313 24.72 132.361 24.576 132.361 24.432C132.409 24.432 132.457 24.384 132.505 24.384C132.601 24.24 132.553 24.096 132.601 23.952C132.649 23.808 132.553 23.664 132.553 23.52C132.553 23.424 132.553 23.376 132.601 23.28C132.649 23.232 132.697 23.184 132.697 23.136C132.649 23.088 132.457 23.04 132.361 22.992V22.944C132.361 22.8 132.265 22.656 132.169 22.512H132.121C132.121 22.656 132.265 22.752 132.265 22.896H132.025C131.929 22.944 131.929 23.04 132.025 23.088C132.121 23.184 132.121 23.232 132.073 23.28C132.025 23.328 131.977 23.424 131.977 23.472C132.025 23.616 132.073 23.808 132.025 23.952C132.025 24.096 131.929 24.288 132.073 24.432H132.121L132.073 24.48C131.929 24.72 131.881 24.96 131.881 25.2C131.833 25.392 131.737 25.68 131.929 25.872L132.073 25.968H132.025C132.073 26.112 131.977 26.208 131.977 26.304C131.977 26.448 131.977 26.592 132.025 26.736C132.073 26.832 132.121 26.976 132.121 27.072C132.121 27.216 132.025 27.36 131.977 27.504C131.881 27.648 131.881 27.792 131.833 27.888V28.32C131.785 28.608 131.689 28.896 131.785 29.232C131.785 29.28 132.025 29.328 132.121 29.28V29.328C132.073 29.328 132.073 29.376 132.121 29.376C132.073 29.52 132.073 29.664 132.073 29.808C132.073 29.904 132.217 30.048 132.121 30.144L132.025 30.288C131.881 30.48 131.737 30.624 131.737 30.816V31.104C131.785 31.2 131.833 31.296 131.929 31.392H132.121C132.313 31.536 131.977 31.824 131.881 31.968C131.737 32.208 131.785 32.496 132.073 32.688C132.169 32.736 132.505 32.736 132.553 32.64C132.601 32.496 132.457 32.352 132.457 32.208C132.409 32.112 132.457 31.968 132.457 31.824C132.505 31.728 132.553 31.488 132.313 31.392C132.361 31.392 132.457 31.392 132.457 31.344C132.505 31.248 132.505 31.152 132.457 31.056V30.864L132.409 30.816C132.409 30.768 132.409 30.768 132.457 30.72C132.505 30.48 132.745 30.24 132.841 30C132.889 29.856 132.745 29.664 132.649 29.52V29.472C132.697 29.232 132.889 29.04 132.985 28.8C133.033 28.704 133.081 28.608 133.081 28.464ZM132.649 36C132.745 35.856 132.745 35.664 132.745 35.472C132.697 35.28 132.505 35.136 132.313 34.992L132.361 34.944C132.409 34.56 132.601 34.224 132.601 33.888L132.505 33.312C132.457 33.12 132.505 32.976 132.409 32.784C132.361 32.736 132.265 32.736 132.265 32.784L132.121 33.12C132.121 32.976 132.073 32.88 131.977 32.736C131.929 32.688 131.641 32.736 131.593 32.784C131.545 32.928 131.545 33.12 131.545 33.264C131.497 33.456 131.449 33.696 131.449 33.888C131.401 34.224 131.353 34.56 131.497 34.896C131.545 34.992 131.641 35.04 131.737 35.136C131.737 35.232 131.737 35.28 131.689 35.328C131.641 35.76 131.593 36.144 131.353 36.576C131.305 36.72 131.161 36.864 131.353 36.96C131.449 37.056 131.785 37.008 131.977 36.96C131.929 37.008 131.929 37.008 131.929 37.056L131.833 37.344C131.833 37.584 132.025 37.824 132.121 38.016C132.121 38.064 132.361 38.064 132.361 38.016C132.457 37.824 132.505 37.584 132.457 37.344C132.409 37.248 132.457 37.152 132.457 37.008C132.457 36.96 132.361 36.864 132.313 36.768C132.553 36.528 132.601 36.24 132.649 36ZM131.257 31.92C131.209 32.016 131.257 32.064 131.305 32.16L131.401 32.544C131.449 32.592 131.641 32.592 131.641 32.544C131.689 32.448 131.689 32.304 131.689 32.208C131.737 32.064 131.593 31.968 131.689 31.824C131.881 31.584 131.929 31.488 131.593 31.296C131.545 31.296 131.401 31.296 131.449 31.344C131.545 31.44 131.641 31.536 131.497 31.68C131.401 31.776 131.305 31.824 131.257 31.92ZM132.121 21.792C132.073 21.888 132.073 22.08 132.121 22.224C132.169 22.224 132.361 22.272 132.361 22.224V22.128C132.361 22.08 132.361 22.08 132.313 22.032C132.313 21.936 132.265 21.888 132.265 21.792C132.265 21.792 132.121 21.744 132.121 21.792ZM131.545 30.144H131.449V30.768H131.545C131.545 30.576 131.593 30.336 131.545 30.144ZM173.493 4.08002C176.709 9.02403 167.733 5.08803 166.581 7.87203C165.765 9.88803 165.765 19.44 167.301 20.256C168.309 20.784 173.733 18.96 173.493 21.984C173.301 24.336 169.461 23.232 168.117 23.664C164.229 24.96 166.533 33.696 166.341 37.152C167.301 37.008 173.973 35.568 172.677 38.976C172.437 39.6 166.053 41.328 164.997 41.424C158.469 42.096 161.349 31.776 161.445 28.128C161.685 21.36 161.109 14.496 161.205 7.77603C161.205 5.32803 161.013 3.64803 163.989 3.12003C167.157 2.49603 170.517 2.83203 173.493 4.08002ZM163.989 25.968C163.989 25.632 164.037 25.296 163.893 24.96C163.893 24.912 163.701 24.912 163.605 24.912C163.653 24.912 163.653 24.864 163.605 24.864C163.605 24.72 163.605 24.576 163.557 24.384C163.557 24.288 163.365 24.144 163.461 24.048C163.509 24 163.557 23.904 163.557 23.856C163.701 23.664 163.797 23.52 163.797 23.28C163.797 23.136 163.797 22.896 163.605 22.752C163.557 22.704 163.461 22.704 163.413 22.704C163.221 22.56 163.557 22.272 163.653 22.128C163.797 21.888 163.797 21.552 163.461 21.36C163.365 21.312 163.077 21.312 163.029 21.36C162.933 21.504 163.077 21.696 163.077 21.84C163.125 21.984 163.077 22.08 163.077 22.224C163.029 22.368 162.981 22.608 163.221 22.704C163.125 22.704 163.077 22.752 163.077 22.752C162.933 22.992 163.125 23.232 163.125 23.472C163.077 23.76 162.837 24 162.789 24.288C162.741 24.432 162.933 24.624 163.029 24.768L163.077 24.816H163.029C162.981 25.296 162.501 25.728 162.789 26.16C162.837 26.256 163.077 26.208 163.125 26.16C163.317 25.968 163.269 25.776 163.365 25.536L163.509 25.248C163.509 25.488 163.509 25.68 163.461 25.92C163.413 26.208 163.461 26.544 163.221 26.88C163.029 27.12 163.029 27.36 163.125 27.648C163.221 27.792 163.269 27.936 163.317 28.08L163.365 28.128C163.269 28.08 163.221 28.032 163.221 27.936C163.221 27.888 162.981 27.888 162.981 27.936C162.885 28.08 163.029 28.224 163.221 28.368C163.365 28.464 163.413 28.656 163.413 28.8C163.317 28.848 163.221 28.848 163.173 28.896C163.077 28.944 163.125 29.04 163.173 29.088C163.269 29.184 163.365 29.328 163.317 29.472H163.365C163.317 29.664 163.269 29.808 163.269 29.952C163.173 29.952 163.125 30 163.125 30C162.981 30.144 163.029 30.336 162.981 30.48C162.933 30.624 163.029 30.816 163.029 30.96C163.029 31.056 163.029 31.104 162.981 31.2C162.933 31.248 162.885 31.296 162.885 31.344C162.933 31.44 163.125 31.488 163.221 31.536V31.584C163.221 31.776 163.365 31.92 163.461 32.064H163.509L163.317 31.632C163.365 31.68 163.509 31.68 163.557 31.632C163.653 31.536 163.653 31.488 163.557 31.392C163.365 31.296 163.605 31.152 163.605 31.008C163.557 30.864 163.509 30.672 163.557 30.48C163.557 30.336 163.701 30.144 163.557 30H163.509C163.509 29.952 163.557 29.952 163.557 29.904C163.701 29.712 163.749 29.424 163.797 29.184C163.845 28.992 163.989 28.704 163.797 28.512C163.797 28.464 163.749 28.416 163.701 28.368C163.701 28.272 163.797 28.176 163.797 28.032C163.797 27.888 163.797 27.744 163.749 27.6C163.701 27.504 163.701 27.36 163.701 27.216C163.653 27.072 163.797 26.928 163.845 26.784C163.989 26.496 163.941 26.208 163.989 25.968ZM164.421 17.376C164.517 17.232 164.613 17.088 164.469 16.944C164.373 16.896 164.037 16.896 163.845 16.944C163.893 16.896 163.893 16.848 163.893 16.848C163.941 16.704 163.989 16.608 163.989 16.512C164.037 16.272 163.893 16.032 163.797 15.792C163.749 15.744 163.557 15.744 163.557 15.792C163.461 15.984 163.365 16.224 163.413 16.464C163.413 16.56 163.365 16.704 163.365 16.8C163.365 16.896 163.413 17.04 163.509 17.088C163.221 17.328 163.173 17.664 163.077 17.856C162.981 18.048 162.981 18.24 162.981 18.432C162.981 18.624 163.173 18.768 163.365 18.96L163.317 19.008C163.221 19.392 163.029 19.728 163.029 20.112C163.029 20.304 163.077 20.496 163.077 20.688C163.125 20.88 163.077 21.072 163.173 21.264H163.317C163.365 21.12 163.413 21.024 163.413 20.88C163.461 21.024 163.509 21.168 163.605 21.312C163.653 21.36 163.893 21.36 163.941 21.312C164.037 21.12 164.037 20.976 164.037 20.784L164.181 20.16C164.229 19.824 164.277 19.44 164.133 19.104C164.133 19.008 164.037 18.912 163.941 18.816C163.941 18.768 163.989 18.672 163.989 18.624C164.133 18.192 164.181 17.808 164.421 17.376ZM164.277 22.224C164.325 22.128 164.277 22.032 164.229 21.984L164.133 21.552C164.133 21.504 163.893 21.504 163.893 21.552C163.845 21.648 163.845 21.744 163.845 21.888C163.797 22.032 163.893 22.128 163.797 22.272C163.653 22.512 163.557 22.608 163.941 22.8C163.989 22.848 164.133 22.8 164.085 22.8C163.941 22.656 163.893 22.56 164.037 22.464L164.277 22.224ZM163.605 32.832C163.653 32.688 163.605 32.544 163.509 32.4C163.509 32.352 163.269 32.352 163.269 32.4L163.461 32.832C163.461 32.88 163.605 32.88 163.605 32.832ZM164.037 24C164.037 24 164.133 24 164.133 23.952C164.085 23.76 164.085 23.568 164.085 23.376C164.085 23.328 163.989 23.328 163.989 23.376C163.989 23.568 163.989 23.76 164.037 24ZM163.605 15.696H163.509L163.557 15.744C163.557 15.744 163.605 15.744 163.605 15.696Z" fill="#082A45"/>
</svg>
