<svg width="162" height="45" viewBox="0 0 162 45" fill="none" xmlns="http://www.w3.org/2000/svg">
<path d="M16.08 39.3121C17.856 41.6641 15.216 41.7601 13.488 41.8081C10.8 41.8081 8.20804 42.6721 5.61604 42.6241C3.91304e-05 42.4801 1.82404 38.2081 1.82404 34.1281C1.82404 28.9441 1.68004 23.7121 1.63204 18.5281C1.63204 13.8721 2.25604 8.49609 0.720039 4.03209C0.720039 3.98409 0.768039 3.93609 0.768039 3.88809C1.63204 2.16009 4.89604 2.35209 5.95204 3.74409C7.00804 5.18409 6.38404 7.96809 6.48004 9.60009C6.81604 13.9681 6.96004 18.4321 7.05604 22.8001C7.20004 26.9761 7.05604 31.1041 7.39204 35.3281C7.58404 37.7281 7.15204 37.9201 9.55204 38.1121C11.184 38.2081 14.928 37.7761 16.08 39.3121ZM5.18404 27.6001V27.5521C5.23204 27.2161 5.71204 26.8801 5.42404 26.5921C5.37604 26.5441 5.08804 26.5921 5.04004 26.6401C4.89604 26.7841 4.94404 26.9281 4.84804 27.0721L4.70404 27.2641C4.70404 27.1201 4.70404 26.9761 4.75204 26.8321C4.75204 26.5921 4.75204 26.3521 4.94404 26.1121C5.13604 25.9201 5.13604 25.7761 5.04004 25.5841C4.94404 25.4881 4.89604 25.3921 4.84804 25.2961L4.80004 25.2481C4.84804 25.2481 4.94404 25.2961 4.94404 25.3921C4.89604 25.3921 5.13604 25.3921 5.18404 25.3441C5.23204 25.2481 5.08804 25.1521 4.94404 25.0561C4.75204 25.0081 4.70404 24.8641 4.70404 24.7681C4.80004 24.7681 4.89604 24.7201 4.94404 24.6721C5.04004 24.6241 4.99204 24.5761 4.94404 24.5761C4.84804 24.4801 4.75204 24.3841 4.75204 24.2881H4.70404C4.75204 24.1921 4.80004 24.0481 4.80004 23.9521C4.89604 23.9041 4.89604 23.9041 4.94404 23.9041C5.08804 23.7601 4.99204 23.6641 5.04004 23.5681C5.08804 23.4241 4.99204 23.2801 4.99204 23.1841C4.94404 23.0881 4.94404 23.0401 4.99204 22.9441C5.04004 22.8961 5.04004 22.8481 5.04004 22.8481C4.99204 22.7521 4.80004 22.7521 4.70404 22.7521V22.7041C4.65604 22.5601 4.51204 22.5121 4.36804 22.4161H4.32004C4.36804 22.5121 4.51204 22.6081 4.60804 22.7041C4.51204 22.7041 4.41604 22.7041 4.36804 22.7521C4.27204 22.8481 4.27204 22.8961 4.36804 22.9441C4.60804 22.9921 4.36804 23.1361 4.41604 23.2321C4.46404 23.3281 4.51204 23.4721 4.51204 23.5681C4.46404 23.7121 4.36804 23.8561 4.51204 23.9521H4.56004L4.51204 24.0001C4.36804 24.1921 4.32004 24.3361 4.32004 24.5281C4.27204 24.6721 4.17604 24.9121 4.32004 25.0081L4.46404 25.1041H4.41604C4.46404 25.1521 4.36804 25.2481 4.36804 25.3441C4.32004 25.4401 4.32004 25.5361 4.41604 25.6321C4.46404 25.7281 4.51204 25.8241 4.51204 25.9201C4.51204 26.0161 4.36804 26.1121 4.32004 26.2081C4.22404 26.4481 4.22404 26.6401 4.22404 26.8321C4.22404 27.0241 4.17604 27.2641 4.32004 27.5041C4.32004 27.5521 4.46404 27.5521 4.60804 27.5521C4.60804 27.6481 4.65604 27.7921 4.65604 27.8881C4.65604 27.9361 4.84804 28.0321 4.75204 28.1281L4.65604 28.2721C4.56004 28.3681 4.46404 28.5121 4.41604 28.6561C4.41604 28.8001 4.46404 28.9441 4.65604 29.0401C4.65604 29.0401 4.75204 29.0881 4.84804 29.0881C5.04004 29.1361 4.65604 29.3761 4.60804 29.4721C4.46404 29.6641 4.46404 29.8561 4.75204 30.0001C4.84804 30.0481 5.18404 30.0481 5.23204 30.0001C5.28004 29.9041 5.13604 29.7601 5.13604 29.6641C5.13604 29.5681 5.13604 29.4721 5.18404 29.3761C5.18404 29.2801 5.28004 29.1361 5.04004 29.0401C5.08804 29.0401 5.13604 29.0401 5.18404 28.9921C5.28004 28.8481 5.08804 28.7041 5.13604 28.5121C5.13604 28.3201 5.37604 28.1281 5.42404 27.9361C5.47204 27.8401 5.28004 27.6961 5.18404 27.6001ZM5.13604 32.4961C5.18404 32.3521 5.23204 32.2081 5.23204 32.0641C5.23204 31.9201 5.04004 31.8241 4.84804 31.7281L4.89604 31.6801C4.99204 31.3921 5.18404 31.1521 5.18404 30.9121C5.18404 30.7681 5.18404 30.6241 5.13604 30.4801C5.13604 30.3361 5.13604 30.1921 5.08804 30.0961C5.04004 30.0481 4.94404 30.0481 4.89604 30.0961L4.80004 30.3361C4.80004 30.2401 4.75204 30.1441 4.65604 30.0481C4.60804 30.0001 4.32004 30.0001 4.27204 30.0481L4.17604 30.4321L4.03204 30.8641C3.98404 31.1041 3.93604 31.3441 4.08004 31.5841C4.08004 31.6801 4.17604 31.7281 4.27204 31.7761C4.27204 31.8241 4.22404 31.8721 4.22404 31.9201C4.08004 32.2081 4.03204 32.4961 3.74404 32.7841C3.69604 32.8801 3.55204 33.0241 3.69604 33.0721C3.84004 33.1681 4.12804 33.1681 4.32004 33.1201C4.32004 33.1681 4.32004 33.1681 4.27204 33.2161C4.22404 33.2641 4.17604 33.3121 4.17604 33.4081C4.12804 33.5521 4.27204 33.7441 4.36804 33.9361H4.60804C4.70404 33.7921 4.80004 33.6001 4.75204 33.4561C4.75204 33.3601 4.80004 33.2641 4.84804 33.2161C4.84804 33.1201 4.75204 33.0721 4.70404 32.9761C4.99204 32.8321 5.04004 32.6401 5.13604 32.4961ZM3.98404 29.4241C3.93604 29.5201 3.93604 29.5681 3.98404 29.6161C4.08004 29.7121 4.03204 29.8081 4.08004 29.9041H4.32004C4.36804 29.8081 4.41604 29.7601 4.41604 29.6641C4.41604 29.5681 4.32004 29.4721 4.41604 29.3761C4.56004 29.2321 4.65604 29.1361 4.27204 28.9921C4.27204 28.9921 4.12804 28.9921 4.12804 29.0401C4.27204 29.0881 4.32004 29.1841 4.17604 29.2801C4.08004 29.3281 3.98404 29.3761 3.98404 29.4241ZM4.03204 21.8881C4.03204 21.9841 4.03204 21.9841 4.08004 22.0321L4.22404 22.1761C4.27204 22.1761 4.46404 22.1281 4.46404 22.0801L4.32004 21.9361L4.17604 21.8401C4.12804 21.8401 4.03204 21.8881 4.03204 21.8881ZM4.17604 28.1761C4.17604 28.1761 4.08004 28.1761 4.08004 28.2241L4.17604 28.6081C4.17604 28.6561 4.22404 28.6561 4.22404 28.6081C4.22404 28.4641 4.22404 28.3201 4.17604 28.1761ZM41.2643 3.40809C44.4803 8.35209 35.5043 4.41609 34.3523 7.20009C33.5363 9.21609 33.5363 18.7681 35.0723 19.5841C36.0803 20.1121 41.5043 18.2881 41.2643 21.3121C41.0723 23.6641 37.2323 22.5601 35.8883 22.9921C32.0003 24.2881 34.3043 33.0241 34.1123 36.4801C35.0723 36.3361 41.7443 34.8961 40.4483 38.3041C40.2083 38.9281 33.8243 40.6561 32.7683 40.7521C26.2403 41.4241 29.1203 31.1041 29.2163 27.4561C29.4563 20.6881 28.8803 13.8241 28.9763 7.10409C28.9763 4.65609 28.7843 2.97609 31.7603 2.44809C34.9283 1.82409 38.2883 2.16009 41.2643 3.40809ZM31.7603 25.2961C31.7603 24.9601 31.8083 24.6241 31.6643 24.2881C31.6643 24.2401 31.4723 24.2401 31.3763 24.2401C31.4243 24.2401 31.4243 24.1921 31.3763 24.1921C31.3763 24.0481 31.3763 23.9041 31.3283 23.7121C31.3283 23.6161 31.1363 23.4721 31.2323 23.3761C31.2803 23.3281 31.3283 23.2321 31.3283 23.1841C31.4723 22.9921 31.5683 22.8481 31.5683 22.6081C31.5683 22.4641 31.5683 22.2241 31.3763 22.0801C31.3283 22.0321 31.2323 22.0321 31.1843 22.0321C30.9923 21.8881 31.3283 21.6001 31.4243 21.4561C31.5683 21.2161 31.5683 20.8801 31.2323 20.6881C31.1363 20.6401 30.8483 20.6401 30.8003 20.6881C30.7043 20.8321 30.8483 21.0241 30.8483 21.1681C30.8963 21.3121 30.8483 21.4081 30.8483 21.5521C30.8003 21.6961 30.7523 21.9361 30.9923 22.0321C30.8963 22.0321 30.8483 22.0801 30.8483 22.0801C30.7043 22.3201 30.8963 22.5601 30.8963 22.8001C30.8483 23.0881 30.6083 23.3281 30.5603 23.6161C30.5123 23.7601 30.7043 23.9521 30.8003 24.0961L30.8483 24.1441H30.8003C30.7523 24.6241 30.2723 25.0561 30.5603 25.4881C30.6083 25.5841 30.8483 25.5361 30.8963 25.4881C31.0883 25.2961 31.0403 25.1041 31.1363 24.8641L31.2803 24.5761C31.2803 24.8161 31.2803 25.0081 31.2323 25.2481C31.1843 25.5361 31.2323 25.8721 30.9923 26.2081C30.8003 26.4481 30.8003 26.6881 30.8963 26.9761C30.9923 27.1201 31.0403 27.2641 31.0883 27.4081L31.1363 27.4561C31.0403 27.4081 30.9923 27.3601 30.9923 27.2641C30.9923 27.2161 30.7523 27.2161 30.7523 27.2641C30.6563 27.4081 30.8003 27.5521 30.9923 27.6961C31.1363 27.7921 31.1843 27.9841 31.1843 28.1281C31.0883 28.1761 30.9923 28.1761 30.9443 28.2241C30.8483 28.2721 30.8963 28.3681 30.9443 28.4161C31.0403 28.5121 31.1363 28.6561 31.0883 28.8001H31.1363C31.0883 28.9921 31.0403 29.1361 31.0403 29.2801C30.9443 29.2801 30.8963 29.3281 30.8963 29.3281C30.7523 29.4721 30.8003 29.6641 30.7523 29.8081C30.7043 29.9521 30.8003 30.1441 30.8003 30.2881C30.8003 30.3841 30.8003 30.4321 30.7523 30.5281C30.7043 30.5761 30.6563 30.6241 30.6563 30.6721C30.7043 30.7681 30.8963 30.8161 30.9923 30.8641V30.9121C30.9923 31.1041 31.1363 31.2481 31.2323 31.3921H31.2803L31.0883 30.9601C31.1363 31.0081 31.2803 31.0081 31.3283 30.9601C31.4243 30.8641 31.4243 30.8161 31.3283 30.7201C31.1363 30.6241 31.3763 30.4801 31.3763 30.3361C31.3283 30.1921 31.2803 30.0001 31.3283 29.8081C31.3283 29.6641 31.4723 29.4721 31.3283 29.3281H31.2803C31.2803 29.2801 31.3283 29.2801 31.3283 29.2321C31.4723 29.0401 31.5203 28.7521 31.5683 28.5121C31.6163 28.3201 31.7603 28.0321 31.5683 27.8401C31.5683 27.7921 31.5203 27.7441 31.4723 27.6961C31.4723 27.6001 31.5683 27.5041 31.5683 27.3601C31.5683 27.2161 31.5683 27.0721 31.5203 26.9281C31.4723 26.8321 31.4723 26.6881 31.4723 26.5441C31.4243 26.4001 31.5683 26.2561 31.6163 26.1121C31.7603 25.8241 31.7123 25.5361 31.7603 25.2961ZM32.1923 16.7041C32.2883 16.5601 32.3843 16.4161 32.2403 16.2721C32.1443 16.2241 31.8083 16.2241 31.6163 16.2721C31.6643 16.2241 31.6643 16.1761 31.6643 16.1761C31.7123 16.0321 31.7603 15.9361 31.7603 15.8401C31.8083 15.6001 31.6643 15.3601 31.5683 15.1201C31.5203 15.0721 31.3283 15.0721 31.3283 15.1201C31.2323 15.3121 31.1363 15.5521 31.1843 15.7921C31.1843 15.8881 31.1363 16.0321 31.1363 16.1281C31.1363 16.2241 31.1843 16.3681 31.2803 16.4161C30.9923 16.6561 30.9443 16.9921 30.8483 17.1841C30.7523 17.3761 30.7523 17.5681 30.7523 17.7601C30.7523 17.9521 30.9443 18.0961 31.1363 18.2881L31.0883 18.3361C30.9923 18.7201 30.8003 19.0561 30.8003 19.4401C30.8003 19.6321 30.8483 19.8241 30.8483 20.0161C30.8963 20.2081 30.8483 20.4001 30.9443 20.5921H31.0883C31.1363 20.4481 31.1843 20.3521 31.1843 20.2081C31.2323 20.3521 31.2803 20.4961 31.3763 20.6401C31.4243 20.6881 31.6643 20.6881 31.7123 20.6401C31.8083 20.4481 31.8083 20.3041 31.8083 20.1121L31.9523 19.4881C32.0003 19.1521 32.0483 18.7681 31.9043 18.4321C31.9043 18.3361 31.8083 18.2401 31.7123 18.1441C31.7123 18.0961 31.7603 18.0001 31.7603 17.9521C31.9043 17.5201 31.9523 17.1361 32.1923 16.7041ZM32.0483 21.5521C32.0963 21.4561 32.0483 21.3601 32.0003 21.3121L31.9043 20.8801C31.9043 20.8321 31.6643 20.8321 31.6643 20.8801C31.6163 20.9761 31.6163 21.0721 31.6163 21.2161C31.5683 21.3601 31.6643 21.4561 31.5683 21.6001C31.4243 21.8401 31.3283 21.9361 31.7123 22.1281C31.7603 22.1761 31.9043 22.1281 31.8563 22.1281C31.7123 21.9841 31.6643 21.8881 31.8083 21.7921L32.0483 21.5521ZM31.3763 32.1601C31.4243 32.0161 31.3763 31.8721 31.2803 31.7281C31.2803 31.6801 31.0403 31.6801 31.0403 31.7281L31.2323 32.1601C31.2323 32.2081 31.3763 32.2081 31.3763 32.1601ZM31.8083 23.3281C31.8083 23.3281 31.9043 23.3281 31.9043 23.2801C31.8563 23.0881 31.8563 22.8961 31.8563 22.7041C31.8563 22.6561 31.7603 22.6561 31.7603 22.7041C31.7603 22.8961 31.7603 23.0881 31.8083 23.3281ZM31.3763 15.0241H31.2803L31.3283 15.0721C31.3283 15.0721 31.3763 15.0721 31.3763 15.0241ZM71.0884 5.90409C71.5684 8.68809 72.1444 21.5041 66.1924 15.7441C68.1124 13.6321 68.6884 8.25609 65.7604 6.48009C61.0564 3.60009 61.8724 12.4321 61.8724 14.5441C61.9204 21.7441 68.6884 27.6481 68.9764 34.8001C69.3124 42.8641 56.5924 44.7841 54.4324 37.0081C54.0964 35.9521 54.7684 34.6081 54.4324 33.6481C54.2884 33.2161 53.4244 32.9281 53.3764 32.5441C52.9924 30.5281 55.4404 29.3761 57.5524 29.7121C60.1444 30.1441 59.0404 31.1521 58.7524 33.2161C58.5124 34.9441 58.5604 36.9121 60.2884 38.0161C68.1124 36.7681 56.4004 20.8801 55.9204 17.2321C55.4884 14.0161 56.0164 7.58409 58.3684 5.13609C61.6804 1.77609 68.0644 2.97609 71.0884 5.90409ZM62.1604 21.9841C62.1604 21.7921 61.9204 21.7441 61.7284 21.7441C61.5364 21.6961 61.3924 21.6001 61.2964 21.4561C61.3924 21.4081 61.4884 21.3121 61.4884 21.2641C61.5364 21.1681 61.4404 21.1201 61.3924 21.1201C61.2484 21.0721 61.1044 21.0241 61.0564 20.8801H61.0084L60.8644 20.4481C60.9124 20.4001 60.9124 20.3521 60.9604 20.3521C60.9604 20.1601 60.8644 20.0641 60.8164 19.9201C60.7684 19.7281 60.6244 19.6321 60.5764 19.5361C60.5284 19.4401 60.4324 19.4401 60.4804 19.2961C60.5284 19.2481 60.5284 19.2001 60.4804 19.1521C60.4324 19.1041 60.2404 19.1521 60.1444 19.1521C60.0964 19.1521 60.0964 19.1521 60.0964 19.1041L59.9044 18.9601C59.8564 18.9601 59.7604 18.9121 59.7124 18.8641C59.7124 18.8641 59.6644 18.8641 59.6644 18.9121L60.0004 19.1521C59.9524 19.1521 59.8084 19.2001 59.8084 19.2481C59.7604 19.3921 59.7604 19.4401 59.9044 19.4401C60.0964 19.4401 59.9524 19.6801 60.0484 19.7761C60.1444 19.9201 60.2884 20.0161 60.3364 20.1601C60.3844 20.3041 60.3844 20.5441 60.6244 20.5441V20.6401C60.6244 20.8801 60.7204 21.1201 60.7684 21.3601C60.8644 21.5521 60.9124 21.8401 61.1524 21.9361H61.2964V21.9841C61.3444 22.0801 61.3444 22.1761 61.3444 22.2721C61.3924 22.4161 61.4884 22.5601 61.5844 22.6561C61.6804 22.7521 61.7764 22.8001 61.8244 22.9441C61.9204 23.0881 61.8724 23.2321 61.8724 23.4241C61.8724 23.7121 61.9684 23.9041 62.0644 24.1921C62.1604 24.4801 62.3044 24.7681 62.5444 25.0081C62.5444 25.0561 62.7364 24.9601 62.8324 24.8641V24.9121C62.8324 24.9601 62.8324 24.9601 62.8804 24.9601L63.0724 25.3441C63.1204 25.4401 63.3124 25.4881 63.2644 25.6321V25.8241C63.2164 26.0161 63.2164 26.2081 63.2644 26.4001C63.3124 26.5441 63.4084 26.7361 63.6484 26.7841C63.6964 26.8321 63.7924 26.7841 63.8404 26.7841C64.0804 26.8321 63.8884 27.2161 63.8404 27.3601C63.7924 27.6481 63.8884 27.9361 64.2724 27.9841C64.3204 28.0321 64.3684 28.0321 64.4644 27.9841C64.4164 27.9841 64.4164 28.0321 64.4164 28.0321V28.3681C64.3684 28.2721 64.2724 28.1761 64.1764 28.0801C64.1284 28.0321 63.8404 28.1761 63.8404 28.2241C63.7924 28.4161 63.8884 28.5601 63.8884 28.7041L63.9844 29.3281C63.9844 29.4721 64.0324 29.6161 64.0804 29.8081C64.1284 29.9521 64.1764 30.0961 64.2724 30.2401L64.5604 30.4321V31.2481C64.5604 31.4401 64.5124 31.6321 64.4164 31.8241C64.3684 31.9681 64.2724 32.1601 64.4644 32.2081C64.5604 32.2561 64.8484 32.2081 65.0404 32.1601V32.2561C64.9924 32.3521 64.9924 32.4481 64.9924 32.5441C64.9924 32.6401 65.0404 32.7361 65.0884 32.8801C65.1364 32.9761 65.1844 33.0721 65.2804 33.1681C65.2804 33.2161 65.4724 33.2161 65.5204 33.1681C65.5684 32.9281 65.6164 32.6881 65.5684 32.4961C65.5204 32.4001 65.5684 32.2561 65.5684 32.1601C65.5684 32.0641 65.4724 31.9681 65.3764 31.9201C65.6164 31.6321 65.6164 31.3441 65.6164 31.1041C65.6644 30.9121 65.6644 30.7201 65.6164 30.5281C65.5204 30.3361 65.3284 30.2881 65.0884 30.1441V30.0961C65.0884 30.0001 65.0884 29.9041 65.1364 29.8081V29.5201C65.1364 29.3281 65.1364 29.1361 65.0884 28.9921C65.0404 28.8001 64.9444 28.6561 64.8484 28.4641C64.7524 28.3201 64.7044 28.1281 64.5604 27.9841H64.4644C64.5604 27.9841 64.6564 27.8881 64.6564 27.8401C64.7044 27.6481 64.5124 27.5521 64.4644 27.4561C64.3684 27.3121 64.3684 27.1681 64.3204 27.0721C64.3204 26.9281 64.2724 26.6881 64.0324 26.6881C64.0804 26.6401 64.1284 26.6401 64.1284 26.5921C64.1764 26.3521 63.8884 26.2081 63.8404 25.9681C63.7924 25.7281 63.8884 25.3921 63.8404 25.1521C63.7924 24.9601 63.5524 24.9121 63.4084 24.8161C63.4084 24.8161 63.4084 24.7681 63.3604 24.7681C63.3124 24.5281 63.3604 24.2881 63.3604 24.0481C63.3604 23.8081 63.3124 23.5681 63.0724 23.4721C63.0244 23.4241 62.7844 23.5681 62.7364 23.6161C62.6884 23.8561 62.8324 24.0481 62.7844 24.2401V24.5761L62.5444 24.0001C62.4484 23.7121 62.3044 23.4241 62.4004 23.0401C62.4484 22.8961 62.4004 22.7521 62.4004 22.6561C62.3524 22.6081 62.3524 22.6081 62.3524 22.5601C62.3044 22.5121 62.3044 22.5121 62.3044 22.4641L62.1604 22.3201C62.0644 22.2721 61.9684 22.2241 61.9204 22.1281C61.9204 22.1761 62.1604 22.0321 62.1604 21.9841ZM63.5524 28.0801C63.6004 28.0801 63.7924 28.0321 63.7924 27.9841C63.7924 27.8881 63.7924 27.7921 63.7444 27.6961C63.6964 27.5521 63.5524 27.4561 63.6004 27.3121C63.6964 27.0241 63.6964 26.9281 63.3124 26.8801C63.2644 26.8801 63.1204 26.9281 63.1684 26.9761C63.3604 27.0241 63.4564 27.0721 63.3604 27.2641C63.3124 27.3601 63.2164 27.4561 63.2164 27.5521C63.2164 27.6481 63.2644 27.6961 63.3124 27.7441C63.4564 27.8401 63.4564 27.9361 63.5524 28.0801ZM59.5204 18.6241C59.5684 18.6241 59.7604 18.5761 59.7124 18.5281C59.7124 18.4801 59.6644 18.4801 59.6644 18.4321C59.6164 18.4321 59.6164 18.3841 59.5684 18.3841L59.4244 18.1921C59.3764 18.1921 59.2804 18.2401 59.2804 18.2881C59.2804 18.3361 59.3284 18.4321 59.3764 18.4801C59.3764 18.4801 59.4244 18.5281 59.4244 18.5761C59.4724 18.5761 59.4724 18.5761 59.5204 18.6241ZM62.9764 26.4481C63.0244 26.4481 63.0724 26.4481 63.0724 26.4001C62.9764 26.2561 62.9284 26.0641 62.7844 25.9201C62.7844 25.8721 62.6884 25.9201 62.6884 25.9681C62.8324 26.1121 62.9284 26.3041 62.9764 26.4481ZM61.6804 21.9841C61.7764 21.9841 61.8724 22.0321 61.9204 22.1281C61.8724 22.1281 61.8244 22.0801 61.7764 22.0321C61.7284 22.0321 61.7284 21.9841 61.6804 21.9841ZM65.5684 33.2641C65.5204 33.2641 65.5204 33.2161 65.4724 33.2161C65.4724 33.2641 65.5204 33.2641 65.5684 33.2641ZM100.235 5.90409C100.715 8.68809 101.291 21.5041 95.3393 15.7441C97.2593 13.6321 97.8353 8.25609 94.9073 6.48009C90.2033 3.60009 91.0193 12.4321 91.0193 14.5441C91.0673 21.7441 97.8353 27.6481 98.1233 34.8001C98.4593 42.8641 85.7393 44.7841 83.5793 37.0081C83.2433 35.9521 83.9153 34.6081 83.5793 33.6481C83.4353 33.2161 82.5713 32.9281 82.5233 32.5441C82.1393 30.5281 84.5873 29.3761 86.6993 29.7121C89.2913 30.1441 88.1873 31.1521 87.8993 33.2161C87.6593 34.9441 87.7073 36.9121 89.4353 38.0161C97.2593 36.7681 85.5473 20.8801 85.0673 17.2321C84.6353 14.0161 85.1633 7.58409 87.5153 5.13609C90.8273 1.77609 97.2113 2.97609 100.235 5.90409ZM91.3073 21.9841C91.3073 21.7921 91.0673 21.7441 90.8753 21.7441C90.6833 21.6961 90.5393 21.6001 90.4433 21.4561C90.5393 21.4081 90.6353 21.3121 90.6353 21.2641C90.6833 21.1681 90.5873 21.1201 90.5393 21.1201C90.3953 21.0721 90.2513 21.0241 90.2033 20.8801H90.1553L90.0113 20.4481C90.0593 20.4001 90.0593 20.3521 90.1073 20.3521C90.1073 20.1601 90.0113 20.0641 89.9633 19.9201C89.9153 19.7281 89.7713 19.6321 89.7233 19.5361C89.6753 19.4401 89.5793 19.4401 89.6273 19.2961C89.6753 19.2481 89.6753 19.2001 89.6273 19.1521C89.5793 19.1041 89.3873 19.1521 89.2913 19.1521C89.2433 19.1521 89.2433 19.1521 89.2433 19.1041L89.0513 18.9601C89.0033 18.9601 88.9073 18.9121 88.8593 18.8641C88.8593 18.8641 88.8113 18.8641 88.8113 18.9121L89.1473 19.1521C89.0993 19.1521 88.9553 19.2001 88.9553 19.2481C88.9073 19.3921 88.9073 19.4401 89.0513 19.4401C89.2433 19.4401 89.0993 19.6801 89.1953 19.7761C89.2913 19.9201 89.4353 20.0161 89.4833 20.1601C89.5313 20.3041 89.5313 20.5441 89.7713 20.5441V20.6401C89.7713 20.8801 89.8673 21.1201 89.9153 21.3601C90.0113 21.5521 90.0593 21.8401 90.2993 21.9361H90.4433V21.9841C90.4913 22.0801 90.4913 22.1761 90.4913 22.2721C90.5393 22.4161 90.6353 22.5601 90.7313 22.6561C90.8273 22.7521 90.9233 22.8001 90.9713 22.9441C91.0673 23.0881 91.0193 23.2321 91.0193 23.4241C91.0193 23.7121 91.1153 23.9041 91.2113 24.1921C91.3073 24.4801 91.4513 24.7681 91.6913 25.0081C91.6913 25.0561 91.8833 24.9601 91.9793 24.8641V24.9121C91.9793 24.9601 91.9793 24.9601 92.0273 24.9601L92.2193 25.3441C92.2673 25.4401 92.4593 25.4881 92.4113 25.6321V25.8241C92.3633 26.0161 92.3633 26.2081 92.4113 26.4001C92.4593 26.5441 92.5553 26.7361 92.7953 26.7841C92.8433 26.8321 92.9393 26.7841 92.9873 26.7841C93.2273 26.8321 93.0353 27.2161 92.9873 27.3601C92.9393 27.6481 93.0353 27.9361 93.4193 27.9841C93.4673 28.0321 93.5153 28.0321 93.6113 27.9841C93.5633 27.9841 93.5633 28.0321 93.5633 28.0321V28.3681C93.5153 28.2721 93.4193 28.1761 93.3233 28.0801C93.2753 28.0321 92.9873 28.1761 92.9873 28.2241C92.9393 28.4161 93.0353 28.5601 93.0353 28.7041L93.1313 29.3281C93.1313 29.4721 93.1793 29.6161 93.2273 29.8081C93.2753 29.9521 93.3233 30.0961 93.4193 30.2401L93.7073 30.4321V31.2481C93.7073 31.4401 93.6593 31.6321 93.5633 31.8241C93.5153 31.9681 93.4193 32.1601 93.6113 32.2081C93.7073 32.2561 93.9953 32.2081 94.1873 32.1601V32.2561C94.1393 32.3521 94.1393 32.4481 94.1393 32.5441C94.1393 32.6401 94.1873 32.7361 94.2353 32.8801C94.2833 32.9761 94.3313 33.0721 94.4273 33.1681C94.4273 33.2161 94.6193 33.2161 94.6673 33.1681C94.7153 32.9281 94.7633 32.6881 94.7153 32.4961C94.6673 32.4001 94.7153 32.2561 94.7153 32.1601C94.7153 32.0641 94.6193 31.9681 94.5233 31.9201C94.7633 31.6321 94.7633 31.3441 94.7633 31.1041C94.8113 30.9121 94.8113 30.7201 94.7633 30.5281C94.6673 30.3361 94.4753 30.2881 94.2353 30.1441V30.0961C94.2353 30.0001 94.2353 29.9041 94.2833 29.8081V29.5201C94.2833 29.3281 94.2833 29.1361 94.2353 28.9921C94.1873 28.8001 94.0913 28.6561 93.9953 28.4641C93.8993 28.3201 93.8513 28.1281 93.7073 27.9841H93.6113C93.7073 27.9841 93.8033 27.8881 93.8033 27.8401C93.8513 27.6481 93.6593 27.5521 93.6113 27.4561C93.5153 27.3121 93.5153 27.1681 93.4673 27.0721C93.4673 26.9281 93.4193 26.6881 93.1793 26.6881C93.2273 26.6401 93.2753 26.6401 93.2753 26.5921C93.3233 26.3521 93.0353 26.2081 92.9873 25.9681C92.9393 25.7281 93.0353 25.3921 92.9873 25.1521C92.9393 24.9601 92.6993 24.9121 92.5553 24.8161C92.5553 24.8161 92.5553 24.7681 92.5073 24.7681C92.4593 24.5281 92.5073 24.2881 92.5073 24.0481C92.5073 23.8081 92.4593 23.5681 92.2193 23.4721C92.1713 23.4241 91.9313 23.5681 91.8833 23.6161C91.8353 23.8561 91.9793 24.0481 91.9313 24.2401V24.5761L91.6913 24.0001C91.5953 23.7121 91.4513 23.4241 91.5473 23.0401C91.5953 22.8961 91.5473 22.7521 91.5473 22.6561C91.4993 22.6081 91.4993 22.6081 91.4993 22.5601C91.4513 22.5121 91.4513 22.5121 91.4513 22.4641L91.3073 22.3201C91.2113 22.2721 91.1153 22.2241 91.0673 22.1281C91.0673 22.1761 91.3073 22.0321 91.3073 21.9841ZM92.6993 28.0801C92.7473 28.0801 92.9393 28.0321 92.9393 27.9841C92.9393 27.8881 92.9393 27.7921 92.8913 27.6961C92.8433 27.5521 92.6993 27.4561 92.7473 27.3121C92.8433 27.0241 92.8433 26.9281 92.4593 26.8801C92.4113 26.8801 92.2673 26.9281 92.3153 26.9761C92.5073 27.0241 92.6033 27.0721 92.5073 27.2641C92.4593 27.3601 92.3633 27.4561 92.3633 27.5521C92.3633 27.6481 92.4113 27.6961 92.4593 27.7441C92.6033 27.8401 92.6033 27.9361 92.6993 28.0801ZM88.6673 18.6241C88.7153 18.6241 88.9073 18.5761 88.8593 18.5281C88.8593 18.4801 88.8113 18.4801 88.8113 18.4321C88.7633 18.4321 88.7633 18.3841 88.7153 18.3841L88.5713 18.1921C88.5233 18.1921 88.4273 18.2401 88.4273 18.2881C88.4273 18.3361 88.4753 18.4321 88.5233 18.4801C88.5233 18.4801 88.5713 18.5281 88.5713 18.5761C88.6193 18.5761 88.6193 18.5761 88.6673 18.6241ZM92.1233 26.4481C92.1713 26.4481 92.2193 26.4481 92.2193 26.4001C92.1233 26.2561 92.0753 26.0641 91.9313 25.9201C91.9313 25.8721 91.8353 25.9201 91.8353 25.9681C91.9793 26.1121 92.0753 26.3041 92.1233 26.4481ZM90.8273 21.9841C90.9233 21.9841 91.0193 22.0321 91.0673 22.1281C91.0193 22.1281 90.9713 22.0801 90.9233 22.0321C90.8753 22.0321 90.8753 21.9841 90.8273 21.9841ZM94.7153 33.2641C94.6673 33.2641 94.6673 33.2161 94.6193 33.2161C94.6193 33.2641 94.6673 33.2641 94.7153 33.2641ZM128.23 11.0881C128.326 14.9281 128.326 18.9121 128.182 22.7041C128.086 26.1121 126.982 44.0161 120.07 40.0321C119.446 39.6481 119.254 38.9761 118.678 38.6401C118.006 38.2561 117.19 38.4481 116.566 38.0641C114.694 37.0081 113.734 34.7521 113.206 32.7841C112.198 29.0401 113.158 24.2881 111.814 20.7361C112.966 20.2081 112.678 16.7041 112.774 15.7921C112.966 13.2961 113.206 10.9921 114.022 8.64009C114.55 7.00809 115.126 4.94409 116.422 3.69609C118.102 1.96809 120.454 2.40009 122.71 2.49609C125.062 2.64009 125.446 2.97609 126.502 5.04009C127.462 6.91209 128.23 8.97609 128.23 11.0881ZM122.902 23.0401C123.046 19.7761 122.518 16.6081 122.518 13.3921C122.518 10.5601 122.422 8.73609 121.462 6.00009C116.614 8.11209 117.478 14.4961 117.19 19.0081C117.046 21.5041 116.998 23.8561 117.238 26.3521C117.478 28.6081 119.35 32.5441 119.014 34.3681C121.222 35.6641 121.51 33.5521 121.942 31.5361C122.518 28.8481 122.758 25.8241 122.902 23.0401ZM126.454 23.1841C126.502 22.8481 126.55 22.5121 126.454 22.1761C126.406 22.1281 126.214 22.0801 126.118 22.1281C126.166 22.0801 126.166 22.0801 126.118 22.0321V21.6001C126.118 21.5041 125.926 21.3601 126.07 21.2641V21.2161C126.07 21.1681 126.118 21.1201 126.166 21.0721C126.262 20.8801 126.406 20.6881 126.406 20.4961C126.406 20.3521 126.406 20.1121 126.214 19.9201C126.166 19.9201 126.118 19.9201 126.022 19.8721C125.83 19.7761 126.166 19.4401 126.262 19.3441C126.406 19.0561 126.406 18.7681 126.118 18.5281C126.022 18.4801 125.686 18.4801 125.686 18.5761C125.59 18.7201 125.734 18.8641 125.734 19.0081C125.734 19.1521 125.734 19.2961 125.686 19.4401C125.686 19.5361 125.59 19.7761 125.83 19.8721C125.734 19.9201 125.686 19.9201 125.686 19.9681C125.542 20.1601 125.734 20.4001 125.686 20.6401C125.686 20.9281 125.398 21.1681 125.35 21.4561C125.302 21.6001 125.494 21.7921 125.542 21.9361C125.59 21.9361 125.59 21.9841 125.59 21.9841C125.494 22.4641 124.966 22.8481 125.254 23.3281C125.254 23.3761 125.542 23.3761 125.59 23.3281C125.782 23.1361 125.734 22.9441 125.83 22.7521L126.022 22.4641L125.926 23.0881C125.878 23.4241 125.878 23.7601 125.59 24.0481C125.398 24.2881 125.35 24.5281 125.446 24.7681C125.446 24.9121 125.494 25.0081 125.494 25.1041C125.446 25.0561 125.302 25.0081 125.254 25.0561C125.158 25.2001 125.302 25.3441 125.446 25.4881C125.59 25.6321 125.638 25.8241 125.59 25.9681C125.494 25.9681 125.398 25.9681 125.35 26.0161C125.254 26.0641 125.302 26.1601 125.35 26.2081C125.398 26.3521 125.494 26.4961 125.446 26.5921C125.446 26.6401 125.446 26.6401 125.494 26.6401C125.398 26.7841 125.35 26.9281 125.302 27.0721C125.206 27.0721 125.158 27.0721 125.158 27.1201C125.014 27.2161 125.014 27.3601 124.966 27.5041C124.87 27.6481 124.87 27.8401 124.87 27.9841C124.87 28.0801 124.87 28.1281 124.774 28.2241C124.726 28.2721 124.678 28.2721 124.678 28.3201C124.678 28.4161 124.87 28.4641 124.918 28.5601V28.6081C124.918 28.7041 124.918 28.8001 124.966 28.8481C124.966 28.9441 125.014 29.0401 125.014 29.0881C125.014 29.1361 125.11 29.1361 125.11 29.1361C125.11 28.9921 125.014 28.8481 125.014 28.7041C125.062 28.7041 125.206 28.7521 125.254 28.7521C125.35 28.7041 125.398 28.6081 125.302 28.5121C125.158 28.3681 125.446 28.3201 125.446 28.1761C125.446 27.9841 125.446 27.7921 125.494 27.6481C125.542 27.5041 125.686 27.3121 125.542 27.1681V27.1201C125.542 27.1201 125.59 27.1201 125.59 27.0721C125.782 26.8801 125.878 26.6401 125.926 26.4001C126.022 26.2081 126.166 25.9201 126.022 25.7281C126.022 25.6801 125.974 25.6321 125.926 25.5841H125.974C125.926 25.4881 126.07 25.3921 126.07 25.2481C126.118 25.1041 126.118 24.9601 126.07 24.8161C126.07 24.6721 126.022 24.5761 126.022 24.4321C126.07 24.2881 126.166 24.1441 126.262 24.0001C126.406 23.7601 126.406 23.4241 126.454 23.1841ZM126.982 14.4961C127.03 14.3521 127.174 14.1601 126.982 14.0641C126.886 13.9681 126.55 14.0161 126.358 14.0641C126.406 14.0641 126.406 14.0161 126.406 13.9681C126.454 13.8721 126.502 13.7761 126.502 13.6321C126.502 13.4401 126.31 13.1521 126.214 12.9121C126.166 12.9121 125.974 12.9121 125.974 12.9601C125.878 13.2001 125.83 13.4401 125.878 13.6321C125.926 13.7761 125.878 13.8721 125.878 14.0161C125.878 14.1121 125.974 14.2081 126.022 14.3041C125.782 14.5441 125.734 14.8321 125.638 15.0721C125.59 15.2641 125.542 15.4561 125.59 15.6001C125.59 15.8401 125.782 15.9841 125.974 16.1281V16.1761C125.83 16.5601 125.686 16.9441 125.686 17.2801C125.686 17.4721 125.686 17.6641 125.734 17.8561C125.782 18.0481 125.734 18.2401 125.83 18.4321C125.83 18.4801 125.926 18.4801 125.974 18.4321C125.974 18.3841 126.022 18.2881 126.07 18.1921C126.07 18.3361 126.118 18.4321 126.214 18.5281C126.262 18.5761 126.55 18.5281 126.598 18.4801C126.694 18.3361 126.694 18.1441 126.694 18.0001L126.838 17.3281C126.886 16.9921 126.886 16.6081 126.79 16.2721C126.742 16.1761 126.646 16.0801 126.55 15.9841C126.55 15.9361 126.598 15.8401 126.598 15.7921C126.694 15.3601 126.742 14.9281 126.982 14.4961ZM126.886 19.3921C126.934 19.3441 126.934 19.2481 126.886 19.1521C126.79 19.0081 126.838 18.9121 126.79 18.7681C126.742 18.7201 126.55 18.7201 126.55 18.7681L126.454 19.0561C126.454 19.2001 126.55 19.3441 126.454 19.4881C126.31 19.7281 126.214 19.8241 126.55 20.0161H126.694C126.55 19.8721 126.502 19.7761 126.646 19.6321C126.742 19.5841 126.838 19.4881 126.886 19.3921ZM124.918 29.8561C125.014 29.7601 125.014 29.5681 125.014 29.4241C125.014 29.3761 124.774 29.3281 124.774 29.3761V29.8081C124.774 29.8561 124.918 29.9041 124.918 29.8561ZM126.598 21.2161H126.742L126.646 20.5921C126.646 20.5441 126.598 20.5441 126.598 20.5921C126.598 20.7841 126.55 20.9761 126.598 21.2161ZM125.638 25.3441C125.542 25.2481 125.494 25.1521 125.542 25.1041C125.542 25.1521 125.542 25.2001 125.59 25.2481C125.59 25.2481 125.638 25.2961 125.638 25.3441ZM126.022 12.8641H125.926L125.974 12.9121L126.022 12.8641ZM125.542 25.1041H125.494H125.542ZM160.161 32.8801C160.161 34.7041 161.745 38.2561 160.785 39.8401C159.777 41.5201 156.801 41.7601 155.553 40.3681C154.401 39.1201 153.441 35.8561 152.913 34.1761C150.753 27.6001 147.537 20.1121 146.625 12.9601C146.913 17.3761 147.057 21.8881 147.009 26.3521C146.961 29.3281 147.489 32.1121 147.681 35.0401C147.777 36.0001 147.969 37.5361 147.633 38.3521C147.537 38.5441 145.329 41.0881 145.137 41.1841C141.969 43.0081 141.537 38.3041 141.537 36.4321C141.537 35.5681 142.113 34.7041 142.161 33.7921C142.209 32.5441 141.777 31.2001 141.681 29.9041C141.393 24.3361 142.209 18.4801 142.257 12.8641C142.305 10.5121 140.913 8.96454e-05 146.049 1.82409C148.449 2.68809 148.593 6.19209 149.025 8.11209C149.745 11.2801 150.417 14.4961 151.425 17.6161C152.001 19.4401 152.865 21.1201 153.393 22.8961C154.017 25.0081 154.065 28.4641 155.985 29.7121C156.561 24.8161 156.561 19.8721 156.609 14.8801C156.657 12.7681 156.801 10.6561 156.753 8.49609C156.753 7.24809 155.841 3.55209 156.369 2.49609C157.185 0.912089 159.441 1.72809 160.209 2.83209C161.121 4.12809 160.449 7.44009 160.401 9.12009C160.305 14.0161 160.353 18.8641 160.209 23.7601C160.065 26.7841 160.161 29.8081 160.161 32.8801ZM144.801 25.9201C144.849 25.7761 144.849 25.5361 144.657 25.3921C144.609 25.3441 144.561 25.3441 144.465 25.3441C144.273 25.2001 144.657 24.9121 144.705 24.8161C144.801 24.6721 144.849 24.5281 144.801 24.4321C144.801 24.2881 144.705 24.1441 144.561 24.0481C144.465 24.0001 144.129 24.0001 144.081 24.0961C144.033 24.2401 144.177 24.3841 144.177 24.5281C144.177 24.6241 144.177 24.7681 144.129 24.9121C144.129 25.0081 144.033 25.2001 144.273 25.3441C144.177 25.3441 144.129 25.3441 144.129 25.3921C143.985 25.5841 144.177 25.8241 144.129 26.0161C144.033 26.2561 143.745 26.4961 143.697 26.7361C143.649 26.8801 143.793 27.0721 143.889 27.2641V27.3121L143.745 27.6481L143.697 27.6961V27.7441L143.649 27.8401L143.553 27.9841L143.457 28.3681C143.457 28.4641 143.505 28.6081 143.553 28.7041C143.601 28.7521 143.889 28.7041 143.937 28.6561C144.033 28.5601 144.033 28.4641 144.081 28.3681C144.081 28.2721 144.081 28.1761 144.129 28.0321L144.321 27.7921C144.273 27.9841 144.273 28.2241 144.273 28.4161C144.225 28.7041 144.225 29.0401 144.033 29.3761C143.841 29.6161 143.841 29.8561 143.985 30.0961C144.033 30.2401 144.081 30.3841 144.177 30.5281L144.225 30.5761C144.129 30.5281 144.081 30.4321 144.081 30.3841C144.081 30.3361 143.841 30.3361 143.841 30.3841C143.745 30.5281 143.889 30.6721 144.081 30.7681C144.225 30.9121 144.273 31.0561 144.321 31.2001L144.033 31.2961C143.937 31.3441 144.033 31.4401 144.081 31.4881C144.177 31.5841 144.273 31.7281 144.273 31.8241C144.225 31.8721 144.273 31.8721 144.321 31.8721L144.177 32.3041C144.129 32.3521 144.081 32.3521 144.081 32.4001C143.937 32.4961 143.985 32.6881 143.985 32.8321C143.937 32.9761 143.985 33.1201 144.033 33.3121C144.033 33.4081 144.081 33.4561 143.985 33.5521C143.937 33.6001 143.889 33.6481 143.937 33.6961C143.937 33.7441 144.129 33.7921 144.225 33.8401C144.225 33.8401 144.225 33.8881 144.273 33.8881C144.273 34.0321 144.417 34.1761 144.513 34.3201H144.561L144.369 33.9361C144.417 33.9361 144.561 33.9361 144.561 33.8881C144.705 33.8401 144.705 33.7441 144.561 33.6961C144.369 33.6001 144.657 33.4561 144.609 33.3121C144.561 33.1681 144.513 32.9761 144.513 32.8321C144.513 32.6401 144.657 32.4961 144.465 32.3521V32.3041L144.513 32.2561C144.657 32.0641 144.657 31.7761 144.705 31.5841C144.753 31.3921 144.849 31.0561 144.705 30.9121C144.657 30.8641 144.609 30.8161 144.561 30.8161C144.561 30.7681 144.609 30.7681 144.609 30.7681C144.561 30.6721 144.657 30.5761 144.657 30.4801C144.657 30.3361 144.657 30.1921 144.609 30.0481C144.561 29.9041 144.513 29.8081 144.513 29.6641C144.513 29.5201 144.609 29.3761 144.657 29.2321C144.801 28.9921 144.753 28.7041 144.753 28.4641C144.801 28.2721 144.801 28.1281 144.801 27.9841V27.7441C144.801 27.6961 144.753 27.6001 144.753 27.5041C144.753 27.4561 144.513 27.4561 144.417 27.4561C144.465 27.4561 144.465 27.4081 144.417 27.4081C144.465 27.2641 144.465 27.1201 144.465 26.9761C144.465 26.8801 144.273 26.6881 144.417 26.6401V26.5921C144.417 26.5441 144.465 26.4961 144.513 26.4481C144.657 26.3041 144.801 26.1121 144.801 25.9201ZM143.889 20.7361C143.841 20.9281 143.793 21.1201 143.841 21.3121C143.841 21.5041 144.033 21.6481 144.225 21.7921V21.8401C144.177 22.2241 144.033 22.5601 144.033 22.8961C144.033 23.0881 144.081 23.2801 144.129 23.4721C144.177 23.6161 144.129 23.8081 144.225 24.0001H144.369L144.513 23.6161C144.513 23.7601 144.561 23.9041 144.657 24.0001C144.705 24.0481 144.993 24.0481 145.041 24.0001C145.089 23.8081 145.089 23.6641 145.089 23.4721L145.185 22.8481C145.185 22.5121 145.233 22.1761 145.041 21.8881C144.993 21.7921 144.945 21.6961 144.801 21.6001C144.849 21.5521 144.849 21.5041 144.849 21.4081C144.945 21.0241 144.993 20.6401 145.233 20.2561C145.329 20.1601 145.425 19.9681 145.281 19.8721C145.137 19.8241 144.849 19.8241 144.657 19.8241C144.657 19.8241 144.705 19.7761 144.705 19.7281C144.753 19.6801 144.801 19.5841 144.801 19.4881C144.849 19.3921 144.849 19.2481 144.801 19.1521C144.753 19.0081 144.705 18.9121 144.705 18.7681C144.657 18.7681 144.465 18.7201 144.465 18.7681C144.369 18.8641 144.321 18.9601 144.273 19.0561C144.273 19.1521 144.225 19.2961 144.225 19.3921C144.273 19.4881 144.177 19.6321 144.177 19.7281C144.129 19.8241 144.225 19.9201 144.321 20.0161C144.033 20.2081 143.985 20.5441 143.889 20.7361ZM145.377 24.8641C145.425 24.8161 145.377 24.7201 145.329 24.6241L145.233 24.2401C145.185 24.1921 144.993 24.1921 144.993 24.2401L144.897 24.5281C144.897 24.6721 144.993 24.8161 144.897 24.9601C144.753 25.1521 144.657 25.2481 144.993 25.4881C145.041 25.4881 145.185 25.4881 145.137 25.4401C144.993 25.3441 144.993 25.2481 145.137 25.1041C145.185 25.1041 145.233 25.0561 145.281 25.0081C145.281 24.9601 145.329 24.9121 145.377 24.8641ZM144.705 35.0401C144.753 34.9441 144.657 34.8001 144.609 34.6561C144.561 34.6081 144.369 34.6081 144.369 34.6561L144.561 35.0881C144.561 35.0881 144.705 35.0881 144.705 35.0401ZM144.945 26.5921C144.945 26.6401 145.089 26.6401 145.089 26.6401C145.041 26.4001 145.089 26.2081 145.089 26.0161H144.993C144.993 26.2081 144.945 26.4001 144.945 26.5921ZM144.417 18.6241C144.417 18.6241 144.369 18.6721 144.417 18.6721H144.465C144.513 18.7201 144.513 18.7201 144.513 18.6721C144.465 18.6721 144.465 18.6721 144.417 18.6241Z" fill="white"/>
</svg>
