<svg width="60" height="44" viewBox="0 0 60 44" fill="none" xmlns="http://www.w3.org/2000/svg">
<path d="M9.98399 20.832C11.376 20.736 14.832 20.832 13.584 23.28C12.624 25.152 8.15999 24.432 6.86399 25.44C5.42399 26.544 6.09599 30.912 6.14399 32.688C6.23999 34.272 7.43999 39.552 6.71999 41.184C6.76799 41.184 6.71999 41.28 6.52799 41.472C4.22399 41.472 1.87199 42.192 0.959986 39.264C0.383986 37.344 1.19999 34.32 1.19999 32.208C1.10399 26.496 1.19999 20.832 0.959986 15.12C0.863986 12.72 0.863986 10.032 0.479986 7.68003C0.143986 5.42403 -1.36197e-05 4.56003 2.35199 3.40802C4.27199 2.49603 5.90399 3.50403 8.06399 3.36003C9.83999 3.21603 13.008 2.88003 13.92 5.04003C14.88 7.15203 12.72 8.49603 10.848 8.16003C9.74399 8.01603 9.40799 7.34403 8.11199 7.34403C5.56799 7.29603 5.75999 8.25603 5.90399 10.416C5.99999 12.384 6.28799 14.304 6.28799 16.32C6.28799 17.088 5.80799 20.16 6.33599 20.736C7.24799 21.696 8.63999 20.88 9.98399 20.832ZM3.74399 18.816C3.74399 18.576 3.74399 18.288 3.64799 18.048H3.31199C3.35999 18.048 3.35999 18 3.31199 18C3.31199 17.904 3.31199 17.76 3.26399 17.664C3.26399 17.616 3.07199 17.472 3.16799 17.424L3.26399 17.28C3.35999 17.136 3.50399 16.992 3.50399 16.848C3.50399 16.704 3.45599 16.512 3.26399 16.416H3.07199C2.87999 16.32 3.21599 16.08 3.31199 15.984C3.45599 15.744 3.40799 15.552 3.07199 15.408C3.02399 15.36 2.68799 15.36 2.63999 15.456C2.59199 15.552 2.73599 15.648 2.73599 15.792V16.08C2.68799 16.176 2.63999 16.368 2.87999 16.416C2.78399 16.416 2.73599 16.464 2.73599 16.464C2.63999 16.656 2.83199 16.848 2.78399 16.992C2.78399 17.184 2.54399 17.424 2.49599 17.616C2.49599 17.76 2.63999 17.856 2.73599 17.952L2.78399 18C2.68799 18.384 2.25599 18.72 2.54399 19.056C2.59199 19.056 2.83199 19.056 2.87999 19.008C3.07199 18.864 2.97599 18.72 3.07199 18.528L3.21599 18.384V18.816C3.16799 19.056 3.21599 19.296 2.97599 19.536C2.78399 19.728 2.78399 19.92 2.92799 20.112C2.92799 20.208 2.97599 20.256 3.02399 20.304C3.02399 20.304 2.78399 20.304 2.73599 20.352C2.63999 20.448 2.83199 20.544 2.97599 20.64C3.11999 20.736 3.16799 20.88 3.21599 20.976C3.11999 20.976 2.97599 21.024 2.92799 21.024C2.83199 21.072 2.92799 21.12 2.97599 21.168C3.02399 21.264 3.16799 21.36 3.11999 21.456L3.16799 21.504L3.02399 21.84C2.97599 21.84 2.92799 21.84 2.92799 21.888C2.78399 21.984 2.83199 22.128 2.78399 22.224C2.73599 22.32 2.78399 22.464 2.83199 22.608C2.83199 22.656 2.83199 22.704 2.73599 22.8C2.68799 22.8 2.68799 22.848 2.68799 22.896C2.73599 22.944 2.92799 22.992 3.02399 23.04V23.088C3.02399 23.184 3.16799 23.28 3.26399 23.424H3.31199C3.26399 23.28 3.16799 23.184 3.11999 23.088H3.35999C3.45599 23.04 3.45599 22.944 3.35999 22.896C3.16799 22.8 3.40799 22.704 3.40799 22.608C3.35999 22.464 3.31199 22.368 3.35999 22.224C3.35999 22.08 3.50399 21.984 3.31199 21.84L3.35999 21.792C3.50399 21.648 3.55199 21.456 3.59999 21.264C3.59999 21.12 3.74399 20.88 3.59999 20.736L3.45599 20.64H3.50399C3.45599 20.544 3.55199 20.496 3.55199 20.4C3.59999 20.256 3.59999 20.16 3.55199 20.064C3.50399 19.968 3.45599 19.872 3.45599 19.776C3.45599 19.68 3.55199 19.536 3.59999 19.44C3.74399 19.248 3.69599 19.008 3.74399 18.816ZM3.83999 12.336C3.93599 12.24 4.03199 12.096 3.83999 12C3.74399 11.952 3.45599 12 3.26399 12.048V11.952C3.31199 11.904 3.35999 11.808 3.35999 11.712C3.35999 11.568 3.21599 11.376 3.07199 11.232C3.07199 11.184 2.87999 11.184 2.83199 11.232C2.78399 11.424 2.73599 11.616 2.78399 11.76C2.78399 11.856 2.73599 11.952 2.73599 12C2.73599 12.096 2.83199 12.144 2.87999 12.24C2.63999 12.432 2.59199 12.672 2.54399 12.816C2.44799 12.96 2.44799 13.104 2.44799 13.248C2.49599 13.392 2.68799 13.488 2.87999 13.632V13.68C2.78399 13.92 2.59199 14.208 2.59199 14.496C2.59199 14.64 2.63999 14.784 2.68799 14.928C2.73599 15.072 2.68799 15.216 2.78399 15.36C2.78399 15.36 2.92799 15.36 2.92799 15.312C2.97599 15.264 3.02399 15.168 3.02399 15.072C3.07199 15.168 3.11999 15.264 3.21599 15.36C3.26399 15.408 3.55199 15.36 3.55199 15.312C3.64799 15.216 3.64799 15.072 3.64799 14.928L3.74399 14.448C3.79199 14.208 3.83999 13.92 3.69599 13.68C3.64799 13.584 3.55199 13.536 3.45599 13.488C3.45599 13.44 3.50399 13.344 3.50399 13.296C3.59999 13.008 3.59999 12.672 3.83999 12.336ZM3.93599 15.984C3.98399 15.936 3.93599 15.84 3.88799 15.792C3.79199 15.696 3.83999 15.6 3.74399 15.504C3.74399 15.456 3.55199 15.504 3.55199 15.504C3.50399 15.6 3.45599 15.696 3.45599 15.744C3.45599 15.888 3.55199 15.936 3.45599 16.08C3.31199 16.272 3.26399 16.32 3.59999 16.464C3.64799 16.464 3.79199 16.464 3.74399 16.416C3.59999 16.368 3.55199 16.272 3.69599 16.176L3.93599 15.984ZM3.40799 24C3.45599 23.856 3.40799 23.76 3.31199 23.664C3.31199 23.616 3.07199 23.616 3.07199 23.664L3.26399 24H3.40799ZM3.74399 17.328H3.83999L3.74399 16.848H3.69599C3.69599 17.04 3.69599 17.184 3.74399 17.328ZM2.78399 11.136V11.184H2.87999C2.87999 11.184 2.87999 11.136 2.78399 11.136ZM3.07199 20.448C3.02399 20.4 2.97599 20.4 3.02399 20.304C3.02399 20.352 3.02399 20.4 3.07199 20.448ZM3.11999 20.496C3.07199 20.496 3.07199 20.496 3.07199 20.448C3.11999 20.448 3.11999 20.448 3.11999 20.496ZM34.7681 40.848V40.992C33.5201 41.952 31.8881 42.576 30.7841 41.76C30.3521 41.472 29.9201 39.6 29.9201 38.448C29.9681 37.056 29.6801 35.808 29.3441 34.512C28.1921 35.136 27.0401 35.376 25.8881 35.952C24.0161 36.864 24.8801 35.568 24.4961 37.728C24.2561 39.216 24.6401 40.704 23.8241 41.808C22.6721 43.344 20.9921 42.864 20.0321 41.664C18.7841 40.176 19.0721 38.016 19.1681 36.192C19.5041 30.672 21.2321 25.2 22.3841 19.776C23.2481 15.504 24.1121 11.232 25.4081 7.10403C25.9841 5.32803 26.2721 4.17603 28.2881 3.64803C29.9681 3.21603 31.8401 3.60003 32.3681 5.37603C32.4641 5.71203 31.6961 8.06402 31.6481 8.44803C31.6001 9.55203 31.7921 10.704 31.8881 11.808C32.0321 14.208 31.9361 16.656 32.0801 19.056C32.2721 22.512 32.0321 24.144 32.5121 27.552C32.8001 29.52 33.3761 32.832 33.4721 34.848C33.6161 36.912 34.6721 38.928 34.7681 40.848ZM25.4561 30.96C29.8241 30.96 29.2481 28.656 29.1041 24.96C29.0081 21.6 29.4881 17.424 28.2881 14.256C27.2321 14.976 26.9921 20.448 26.7041 21.792C26.1281 24.816 25.6481 27.888 25.4561 30.96ZM24.1601 26.832C24.2081 26.736 24.3521 26.592 24.1601 26.496C24.0641 26.448 23.7281 26.448 23.5841 26.496V26.448C23.6321 26.352 23.6801 26.256 23.6801 26.208C23.6801 26.112 23.6321 26.016 23.5841 25.92C23.5361 25.824 23.4401 25.728 23.3441 25.68C23.3441 25.632 23.1521 25.68 23.1521 25.728C23.0561 25.92 23.0561 26.064 23.1041 26.208C23.1041 26.304 23.0561 26.4 23.0561 26.448C23.0561 26.544 23.1521 26.592 23.2001 26.64C22.9121 26.832 22.8641 27.024 22.7681 27.168C22.6721 27.264 22.6241 27.408 22.6241 27.552C22.6241 27.696 22.8161 27.792 22.9601 27.936V27.984C22.8161 28.224 22.6241 28.464 22.5761 28.704C22.5281 28.848 22.5761 28.992 22.5761 29.088C22.5761 29.232 22.5281 29.376 22.5761 29.52C22.5761 29.52 22.5761 29.568 22.6241 29.568H22.4321C22.3361 29.664 22.4801 29.808 22.4801 29.904L22.3841 30.192C22.3361 30.24 22.2401 30.432 22.4801 30.528H22.3361C22.1921 30.672 22.3361 30.864 22.2881 31.008C22.2401 31.2 21.9521 31.344 21.8561 31.536C21.8081 31.632 22.0001 31.776 22.0481 31.872C22.0481 31.92 22.0481 31.92 22.0961 31.92L22.0481 31.968C21.9041 32.256 21.3761 32.496 21.6161 32.832C21.6641 32.88 21.9521 32.928 22.0001 32.88C22.1921 32.784 22.1441 32.64 22.2881 32.496L22.4801 32.304L22.3361 32.736C22.2401 32.976 22.2401 33.216 21.9521 33.36C21.7121 33.504 21.6641 33.696 21.7601 33.888L21.9041 34.224V34.272C21.8561 34.224 21.8081 34.128 21.8081 34.08C21.8081 34.08 21.6161 34.032 21.5681 34.032C21.4721 34.128 21.5681 34.272 21.7121 34.368C21.8561 34.512 21.9041 34.608 21.8561 34.752C21.7601 34.704 21.6641 34.704 21.6161 34.752C21.5201 34.752 21.5681 34.848 21.6161 34.848C21.6641 34.944 21.7601 35.088 21.6641 35.136C21.6641 35.184 21.7121 35.184 21.7121 35.184C21.6641 35.28 21.6161 35.376 21.5201 35.472H21.3761C21.2321 35.568 21.2801 35.664 21.1841 35.76C21.1361 35.856 21.1361 36 21.1361 36.096C21.1361 36.192 21.1361 36.24 21.0401 36.288C20.9921 36.288 20.9441 36.336 20.9441 36.336C20.9441 36.432 21.1361 36.48 21.2321 36.528V36.576C21.2321 36.72 21.3281 36.816 21.3761 36.96H21.4241C21.4241 36.864 21.3281 36.72 21.3281 36.624C21.3761 36.672 21.5201 36.672 21.5681 36.672C21.6641 36.624 21.7121 36.624 21.6161 36.528C21.4241 36.384 21.7121 36.384 21.7121 36.288C21.7121 36.144 21.7121 36 21.7601 35.904C21.7601 35.808 21.9521 35.712 21.8081 35.568H21.7601L21.8561 35.52C22.0001 35.376 22.0961 35.232 22.1921 35.088C22.2401 34.944 22.4321 34.752 22.2881 34.608C22.2881 34.56 22.2401 34.512 22.1921 34.512C22.2401 34.512 22.2401 34.512 22.2401 34.464C22.2401 34.416 22.3361 34.368 22.3361 34.272C22.3841 34.176 22.4321 34.08 22.3841 33.984C22.3841 33.888 22.3361 33.792 22.3841 33.696C22.3841 33.6 22.5281 33.504 22.6241 33.408C22.7681 33.264 22.7681 33.072 22.8161 32.88C22.9121 32.64 22.9601 32.4 22.9121 32.16C22.9121 32.112 22.6721 32.112 22.5761 32.112C22.6241 32.064 22.6241 32.064 22.5761 32.064C22.6241 31.968 22.6241 31.824 22.6241 31.728C22.6241 31.68 22.4801 31.536 22.5761 31.488L22.6721 31.392C22.8161 31.248 22.9601 31.152 23.0081 31.008C23.0081 30.864 23.0081 30.72 22.8641 30.576C22.8161 30.576 22.7681 30.576 22.6721 30.528C22.4801 30.432 22.8641 30.24 22.9601 30.192C23.1521 30 23.1521 29.808 22.8641 29.616C22.8161 29.616 22.7681 29.568 22.6721 29.568L22.7201 29.52L22.8641 29.328C22.8641 29.424 22.9121 29.568 23.0081 29.616C23.0561 29.664 23.2961 29.664 23.3441 29.616C23.4401 29.52 23.4881 29.424 23.5361 29.28L23.6801 28.848C23.7761 28.608 23.8721 28.368 23.7761 28.128C23.7281 28.128 23.7281 28.08 23.7281 28.08V28.032H23.6801L23.5841 27.888C23.5841 27.84 23.6321 27.792 23.6321 27.744C23.7761 27.456 23.8721 27.168 24.1601 26.832ZM23.5841 30.288C23.6321 30.24 23.6321 30.192 23.5841 30.144C23.5361 30.048 23.5361 29.952 23.5361 29.856C23.4881 29.808 23.2961 29.76 23.2961 29.808C23.2481 29.856 23.2001 29.952 23.2001 30C23.1521 30.096 23.2481 30.24 23.1041 30.288C22.9601 30.432 22.8641 30.528 23.2001 30.672C23.2001 30.72 23.3921 30.72 23.3441 30.672C23.2001 30.576 23.1521 30.528 23.3441 30.432C23.4401 30.384 23.5361 30.384 23.5841 30.288ZM21.4241 37.536C21.4721 37.44 21.4241 37.296 21.3761 37.2C21.3761 37.152 21.1841 37.104 21.1841 37.152C21.1841 37.248 21.2321 37.392 21.2321 37.488C21.2801 37.488 21.4241 37.536 21.4241 37.536ZM23.1521 31.536H23.2481V31.104C23.2481 31.056 23.2001 31.056 23.1521 31.056C23.1521 31.2 23.1041 31.344 23.1521 31.536ZM23.0561 25.68H23.1521C23.1521 25.68 23.1521 25.632 23.0561 25.68ZM55.1381 33.648C55.1381 36.288 57.6341 38.496 58.0661 40.992C58.5461 43.632 56.0981 43.104 54.5621 41.616C51.9701 39.024 53.2181 39.696 49.5701 40.176C47.9381 40.416 45.0581 40.032 43.7141 38.88C40.9781 36.576 41.1701 30.864 40.9781 27.552C40.6421 22.752 41.2181 17.232 42.1781 12.528C42.9461 8.59203 44.2901 3.26403 49.2341 3.26403C51.5381 2.57492e-05 55.0901 2.06402 56.8661 4.89603C59.4581 9.16803 58.0661 15.552 57.5381 20.208C57.0581 24.528 55.1381 29.376 55.1381 33.648ZM53.4101 19.008C53.7461 16.08 54.2261 13.2 53.9861 10.224C53.7941 7.72803 53.6021 6.81603 50.8661 7.53603C49.9061 7.82403 49.4741 7.68003 48.7541 8.54403C47.0741 10.608 47.1221 15.264 46.9301 17.808C46.5941 22.704 46.1141 28.224 47.2181 33.12C47.6981 35.232 49.2821 38.592 50.3381 34.704C50.8661 32.88 48.6101 31.632 48.8501 30.432C49.1381 29.28 51.0101 28.608 51.9221 29.136C53.7461 27.264 53.1701 21.504 53.4101 19.008ZM43.7141 31.344C43.7141 31.392 43.7621 31.488 43.8101 31.536C43.8581 31.584 43.9061 31.68 44.0021 31.728H44.0501C44.0021 31.584 43.8581 31.488 43.8101 31.344C43.8581 31.392 44.0021 31.344 44.0021 31.296C44.0981 31.248 44.1461 31.152 44.0021 31.104C43.8101 31.008 44.0501 30.864 44.0021 30.768C43.9541 30.672 43.9541 30.576 43.9061 30.528V30.288C43.9061 30.144 44.0021 29.952 43.8581 29.856L43.8101 29.808C43.8101 29.808 43.8581 29.808 43.8581 29.76C44.0021 29.568 44.0021 29.328 44.0501 29.088C44.0981 28.944 44.1941 28.656 44.0501 28.464C44.0021 28.464 43.9541 28.416 43.9061 28.368H43.9541C43.9061 28.272 44.0021 28.176 44.0021 28.08C44.0501 27.936 44.0021 27.792 43.9541 27.696C43.9061 27.552 43.8581 27.456 43.8581 27.36C43.8581 27.216 44.0021 27.072 44.0501 26.928C44.1941 26.688 44.1461 26.448 44.1941 26.208C44.2421 25.92 44.2421 25.584 44.1461 25.296C44.1461 25.248 43.9061 25.248 43.8101 25.296V25.248C43.8581 25.248 43.8581 25.2 43.8101 25.2V24.816C43.8101 24.72 43.6181 24.576 43.7621 24.48C43.7621 24.432 43.8101 24.384 43.8581 24.336C43.9541 24.144 44.0981 24 44.0981 23.856C44.0981 23.664 44.0981 23.472 43.9061 23.328C43.9061 23.328 43.8101 23.28 43.7621 23.28C43.5701 23.136 43.9061 22.896 44.0021 22.8C44.1941 22.56 44.1941 22.32 43.9061 22.08C43.8101 22.032 43.5221 21.984 43.4741 22.08C43.3781 22.176 43.5221 22.32 43.4741 22.464C43.4741 22.608 43.4741 22.704 43.4261 22.848C43.3781 22.944 43.3301 23.184 43.5701 23.28C43.4741 23.28 43.4261 23.28 43.3781 23.328C43.2821 23.52 43.4261 23.76 43.4261 23.952C43.3781 24.192 43.0901 24.432 43.0421 24.672C42.9941 24.816 43.1861 24.96 43.2821 25.104V25.2C43.2341 25.392 43.0901 25.584 42.9941 25.776C42.8981 25.968 42.8501 26.208 42.9941 26.4C43.0421 26.448 43.2821 26.448 43.3301 26.4C43.5221 26.208 43.4741 26.016 43.5701 25.824L43.7141 25.584C43.7141 25.776 43.7141 25.968 43.6661 26.16C43.6661 26.304 43.6661 26.448 43.6181 26.592C43.5701 26.736 43.5221 26.88 43.4261 27.024C43.2341 27.264 43.2341 27.504 43.3301 27.744C43.4261 27.84 43.4741 27.984 43.5221 28.128L43.5701 28.176C43.4741 28.128 43.4261 28.08 43.4261 27.984C43.4261 27.936 43.1861 27.936 43.1861 27.984C43.0901 28.128 43.2821 28.272 43.4261 28.368C43.5701 28.464 43.6181 28.656 43.6661 28.8C43.5701 28.8 43.4741 28.8 43.3781 28.848C43.2821 28.896 43.3781 28.992 43.4261 29.04C43.5221 29.136 43.6181 29.28 43.6181 29.376H43.6661C43.6181 29.52 43.5701 29.712 43.5701 29.856C43.5221 29.856 43.4741 29.856 43.4261 29.904C43.3301 30.048 43.3781 30.192 43.3301 30.336C43.3301 30.48 43.3781 30.624 43.4261 30.768C43.4261 30.864 43.4741 30.912 43.3781 31.008C43.3301 31.056 43.3301 31.104 43.3301 31.152C43.3781 31.248 43.5701 31.248 43.6661 31.296L43.7141 31.344ZM45.1541 18.624C45.2501 18.528 45.3941 18.384 45.2501 18.24C45.1541 18.144 44.8181 18.144 44.6261 18.144C44.6741 18.144 44.6741 18.096 44.6741 18.096L44.8181 17.808C44.8661 17.616 44.7221 17.376 44.6741 17.136C44.6261 17.088 44.4341 17.088 44.4341 17.136C44.2901 17.328 44.2421 17.52 44.2421 17.712C44.2421 17.808 44.1941 17.904 44.1461 18.048C44.1461 18.096 44.1941 18.192 44.2901 18.288C44.0021 18.48 43.9061 18.768 43.8101 18.912C43.7141 19.104 43.6661 19.248 43.6661 19.44C43.6181 19.584 43.8101 19.776 43.9541 19.92V19.968C43.8101 20.304 43.6181 20.592 43.5701 20.928C43.5221 21.12 43.5701 21.264 43.5701 21.456C43.5701 21.6 43.5221 21.792 43.6181 21.984H43.7621L43.9061 21.696C43.9061 21.792 43.9541 21.936 44.0021 22.032C44.0501 22.128 44.3381 22.128 44.3861 22.08C44.4821 21.936 44.4821 21.792 44.5301 21.6C44.5781 21.456 44.6261 21.264 44.7221 21.072C44.7701 20.784 44.8661 20.448 44.7701 20.16C44.7221 20.064 44.6741 19.968 44.5781 19.872C44.5781 19.824 44.6261 19.728 44.6261 19.68C44.7701 19.344 44.8661 18.96 45.1541 18.624ZM44.6261 22.896C44.6741 22.8 44.6741 22.752 44.6261 22.656L44.5301 22.32C44.5301 22.272 44.3381 22.272 44.3381 22.272C44.2421 22.368 44.2421 22.464 44.2421 22.56C44.1941 22.704 44.2901 22.8 44.1941 22.944C44.0021 23.136 43.9061 23.232 44.2901 23.424C44.2901 23.424 44.4821 23.424 44.4341 23.376C44.2901 23.28 44.2421 23.184 44.3861 23.088L44.6261 22.896ZM44.2901 32.4C44.2901 32.256 44.1941 32.112 44.0981 32.016C44.0981 31.968 43.8581 32.016 43.9061 32.064C43.9061 32.208 44.0501 32.304 44.0981 32.448C44.1461 32.448 44.2901 32.4 44.2901 32.4ZM44.2901 24.432C44.2901 24.48 44.4341 24.48 44.4341 24.432C44.3861 24.288 44.3861 24.096 44.3861 23.904H44.2901V24.432ZM44.4821 17.088C44.4341 17.088 44.4341 17.04 44.3861 17.04L44.4341 17.088H44.4821Z" fill="#082A45"/>
</svg>
