<svg width="161" height="46" viewBox="0 0 161 46" fill="none" xmlns="http://www.w3.org/2000/svg">
<path d="M15.984 40.992V41.136C14.736 42.096 13.104 42.72 12 41.904C11.568 41.616 11.136 39.744 11.136 38.592C11.184 37.2 10.896 35.952 10.56 34.656C9.40802 35.28 8.25602 35.52 7.10402 36.096C5.23202 37.008 6.09602 35.712 5.71202 37.872C5.47202 39.36 5.85602 40.848 5.04002 41.952C3.88802 43.488 2.20802 43.008 1.24802 41.808C1.95652e-05 40.32 0.28802 38.16 0.38402 36.336C0.72002 30.816 2.44802 25.344 3.60002 19.92C4.46402 15.648 5.32802 11.376 6.62402 7.24801C7.20002 5.47201 7.48802 4.32001 9.50402 3.79201C11.184 3.36001 13.056 3.74401 13.584 5.52001C13.68 5.85601 12.912 8.20801 12.864 8.59201C12.816 9.69601 13.008 10.848 13.104 11.952C13.248 14.352 13.152 16.8 13.296 19.2C13.488 22.656 13.248 24.288 13.728 27.696C14.016 29.664 14.592 32.976 14.688 34.992C14.832 37.056 15.888 39.072 15.984 40.992ZM6.67202 31.104C11.04 31.104 10.464 28.8 10.32 25.104C10.224 21.744 10.704 17.568 9.50402 14.4C8.44802 15.12 8.20802 20.592 7.92002 21.936C7.34402 24.96 6.86402 28.032 6.67202 31.104ZM5.37602 26.976C5.42402 26.88 5.56802 26.736 5.37602 26.64C5.28002 26.592 4.94402 26.592 4.80002 26.64V26.592C4.84802 26.496 4.89602 26.4 4.89602 26.352C4.89602 26.256 4.84802 26.16 4.80002 26.064C4.75202 25.968 4.65602 25.872 4.56002 25.824C4.56002 25.776 4.36802 25.824 4.36802 25.872C4.27202 26.064 4.27202 26.208 4.32002 26.352C4.32002 26.448 4.27202 26.544 4.27202 26.592C4.27202 26.688 4.36802 26.736 4.41602 26.784C4.12802 26.976 4.08002 27.168 3.98402 27.312C3.88802 27.408 3.84002 27.552 3.84002 27.696C3.84002 27.84 4.03202 27.936 4.17602 28.08V28.128C4.03202 28.368 3.84002 28.608 3.79202 28.848C3.74402 28.992 3.79202 29.136 3.79202 29.232C3.79202 29.376 3.74402 29.52 3.79202 29.664C3.79202 29.664 3.79202 29.712 3.84002 29.712H3.64802C3.55202 29.808 3.69602 29.952 3.69602 30.048L3.60002 30.336C3.55202 30.384 3.45602 30.576 3.69602 30.672H3.55202C3.40802 30.816 3.55202 31.008 3.50402 31.152C3.45602 31.344 3.16802 31.488 3.07202 31.68C3.02402 31.776 3.21602 31.92 3.26402 32.016C3.26402 32.064 3.26402 32.064 3.31202 32.064L3.26402 32.112C3.12002 32.4 2.59202 32.64 2.83202 32.976C2.88002 33.024 3.16802 33.072 3.21602 33.024C3.40802 32.928 3.36002 32.784 3.50402 32.64L3.69602 32.448L3.55202 32.88C3.45602 33.12 3.45602 33.36 3.16802 33.504C2.92802 33.648 2.88002 33.84 2.97602 34.032L3.12002 34.368V34.416C3.07202 34.368 3.02402 34.272 3.02402 34.224C3.02402 34.224 2.83202 34.176 2.78402 34.176C2.68802 34.272 2.78402 34.416 2.92802 34.512C3.07202 34.656 3.12002 34.752 3.07202 34.896C2.97602 34.848 2.88002 34.848 2.83202 34.896C2.73602 34.896 2.78402 34.992 2.83202 34.992C2.88002 35.088 2.97602 35.232 2.88002 35.28C2.88002 35.328 2.92802 35.328 2.92802 35.328C2.88002 35.424 2.83202 35.52 2.73602 35.616H2.59202C2.44802 35.712 2.49602 35.808 2.40002 35.904C2.35202 36 2.35202 36.144 2.35202 36.24C2.35202 36.336 2.35202 36.384 2.25602 36.432C2.20802 36.432 2.16002 36.48 2.16002 36.48C2.16002 36.576 2.35202 36.624 2.44802 36.672V36.72C2.44802 36.864 2.54402 36.96 2.59202 37.104H2.64002C2.64002 37.008 2.54402 36.864 2.54402 36.768C2.59202 36.816 2.73602 36.816 2.78402 36.816C2.88002 36.768 2.92802 36.768 2.83202 36.672C2.64002 36.528 2.92802 36.528 2.92802 36.432C2.92802 36.288 2.92802 36.144 2.97602 36.048C2.97602 35.952 3.16802 35.856 3.02402 35.712H2.97602L3.07202 35.664C3.21602 35.52 3.31202 35.376 3.40802 35.232C3.45602 35.088 3.64802 34.896 3.50402 34.752C3.50402 34.704 3.45602 34.656 3.40802 34.656C3.45602 34.656 3.45602 34.656 3.45602 34.608C3.45602 34.56 3.55202 34.512 3.55202 34.416C3.60002 34.32 3.64802 34.224 3.60002 34.128C3.60002 34.032 3.55202 33.936 3.60002 33.84C3.60002 33.744 3.74402 33.648 3.84002 33.552C3.98402 33.408 3.98402 33.216 4.03202 33.024C4.12802 32.784 4.17602 32.544 4.12802 32.304C4.12802 32.256 3.88802 32.256 3.79202 32.256C3.84002 32.208 3.84002 32.208 3.79202 32.208C3.84002 32.112 3.84002 31.968 3.84002 31.872C3.84002 31.824 3.69602 31.68 3.79202 31.632L3.88802 31.536C4.03202 31.392 4.17602 31.296 4.22402 31.152C4.22402 31.008 4.22402 30.864 4.08002 30.72C4.03202 30.72 3.98402 30.72 3.88802 30.672C3.69602 30.576 4.08002 30.384 4.17602 30.336C4.36802 30.144 4.36802 29.952 4.08002 29.76C4.03202 29.76 3.98402 29.712 3.88802 29.712L3.93602 29.664L4.08002 29.472C4.08002 29.568 4.12802 29.712 4.22402 29.76C4.27202 29.808 4.51202 29.808 4.56002 29.76C4.65602 29.664 4.70402 29.568 4.75202 29.424L4.89602 28.992C4.99202 28.752 5.08802 28.512 4.99202 28.272C4.94402 28.272 4.94402 28.224 4.94402 28.224V28.176H4.89602L4.80002 28.032C4.80002 27.984 4.84802 27.936 4.84802 27.888C4.99202 27.6 5.08802 27.312 5.37602 26.976ZM4.80002 30.432C4.84802 30.384 4.84802 30.336 4.80002 30.288C4.75202 30.192 4.75202 30.096 4.75202 30C4.70402 29.952 4.51202 29.904 4.51202 29.952C4.46402 30 4.41602 30.096 4.41602 30.144C4.36802 30.24 4.46402 30.384 4.32002 30.432C4.17602 30.576 4.08002 30.672 4.41602 30.816C4.41602 30.864 4.60802 30.864 4.56002 30.816C4.41602 30.72 4.36802 30.672 4.56002 30.576C4.65602 30.528 4.75202 30.528 4.80002 30.432ZM2.64002 37.68C2.68802 37.584 2.64002 37.44 2.59202 37.344C2.59202 37.296 2.40002 37.248 2.40002 37.296C2.40002 37.392 2.44802 37.536 2.44802 37.632C2.49602 37.632 2.64002 37.68 2.64002 37.68ZM4.36802 31.68H4.46402V31.248C4.46402 31.2 4.41602 31.2 4.36802 31.2C4.36802 31.344 4.32002 31.488 4.36802 31.68ZM4.27202 25.824H4.36802C4.36802 25.824 4.36802 25.776 4.27202 25.824ZM45.138 27.984C45.666 30.576 43.17 34.608 42.882 37.296C42.594 40.128 42.306 40.368 39.762 41.52C37.122 42.672 34.146 43.728 31.458 41.856C27.618 39.216 29.298 31.968 28.818 27.888C28.05 21.888 28.05 13.728 29.922 7.92001C31.938 1.72801 38.802 6.67572e-06 43.698 4.12801C43.698 4.12801 43.746 4.17601 43.794 4.17601C43.89 7.20001 46.578 19.008 41.874 18.72C37.986 18.48 38.946 15.792 39.09 13.296C39.186 11.52 39.474 5.90401 36.786 6.19201C32.562 6.62401 34.338 17.616 34.098 20.496C33.906 23.568 33.522 26.064 33.954 29.136C34.29 31.824 33.426 35.136 35.394 37.296C39.666 41.904 40.29 30.432 40.818 28.32C41.106 27.168 41.058 26.448 42.162 26.112C43.41 25.68 44.898 26.928 45.138 27.984ZM31.602 29.76C31.65 29.52 31.698 29.232 31.554 28.992C31.554 28.944 31.362 28.944 31.218 28.992V28.944C31.266 28.944 31.314 28.944 31.218 28.896C31.266 28.8 31.266 28.704 31.218 28.608C31.218 28.512 31.026 28.368 31.122 28.32C31.17 28.272 31.218 28.224 31.218 28.176C31.362 28.032 31.458 27.888 31.458 27.744C31.506 27.648 31.458 27.456 31.266 27.36C31.266 27.312 31.17 27.312 31.074 27.312C30.882 27.216 31.266 26.976 31.314 26.88C31.506 26.688 31.506 26.448 31.17 26.304C31.122 26.256 30.786 26.256 30.738 26.304C30.642 26.448 30.786 26.544 30.786 26.64C30.786 26.736 30.786 26.88 30.738 26.976C30.738 27.072 30.642 27.216 30.882 27.312C30.834 27.312 30.786 27.312 30.738 27.36C30.642 27.504 30.834 27.696 30.786 27.888C30.738 28.08 30.498 28.272 30.45 28.512C30.402 28.608 30.594 28.752 30.69 28.848V28.896C30.594 29.232 30.114 29.568 30.402 29.904C30.45 29.952 30.738 29.952 30.786 29.904C30.93 29.76 30.882 29.616 30.978 29.424L31.17 29.232C31.122 29.376 31.122 29.568 31.122 29.712C31.074 29.952 31.074 30.192 30.834 30.432C30.642 30.624 30.642 30.816 30.738 31.008C30.834 31.104 30.882 31.248 30.93 31.344L30.978 31.392C30.882 31.344 30.834 31.296 30.834 31.248C30.834 31.2 30.594 31.2 30.594 31.248C30.498 31.344 30.642 31.44 30.786 31.536C30.978 31.632 31.026 31.776 31.026 31.92C30.93 31.92 30.834 31.92 30.786 31.968C30.642 32.016 30.738 32.064 30.786 32.112C30.882 32.16 30.978 32.304 30.93 32.4H30.978L30.834 32.784H30.738C30.594 32.928 30.642 33.024 30.594 33.12C30.546 33.264 30.594 33.408 30.642 33.504C30.642 33.6 30.642 33.648 30.594 33.696C30.546 33.744 30.498 33.792 30.498 33.84C30.546 33.888 30.738 33.936 30.834 33.936V33.984C30.834 34.128 30.978 34.224 31.074 34.368C31.074 34.368 31.122 34.368 31.122 34.32L30.93 34.032H31.17C31.266 33.936 31.266 33.888 31.17 33.84C30.978 33.744 31.218 33.648 31.218 33.552C31.17 33.408 31.122 33.264 31.17 33.168C31.17 33.024 31.314 32.88 31.122 32.784L31.17 32.736C31.314 32.544 31.362 32.352 31.41 32.208C31.458 32.016 31.602 31.824 31.41 31.632C31.362 31.632 31.362 31.584 31.314 31.584V31.536C31.314 31.488 31.41 31.392 31.41 31.296C31.41 31.2 31.458 31.104 31.362 31.008C31.314 30.912 31.314 30.816 31.314 30.72C31.314 30.576 31.41 30.48 31.506 30.336C31.602 30.144 31.602 29.952 31.602 29.76ZM32.178 23.28C32.274 23.232 32.37 23.088 32.226 22.992C32.082 22.944 31.794 22.944 31.602 22.992C31.602 22.944 31.602 22.944 31.65 22.896L31.746 22.656C31.746 22.512 31.602 22.272 31.506 22.128C31.506 22.08 31.266 22.08 31.266 22.128C31.17 22.272 31.122 22.464 31.17 22.656C31.17 22.704 31.122 22.8 31.074 22.896C31.074 22.992 31.17 23.04 31.218 23.136C30.978 23.28 30.93 23.52 30.834 23.664C30.738 23.808 30.69 23.952 30.738 24.096C30.738 24.24 30.93 24.384 31.074 24.48V24.528C30.978 24.816 30.786 25.104 30.738 25.344C30.738 25.488 30.786 25.632 30.786 25.776C30.834 25.92 30.786 26.064 30.882 26.208C30.882 26.256 31.026 26.256 31.026 26.208L31.17 25.968C31.17 26.064 31.218 26.16 31.314 26.256C31.362 26.304 31.602 26.304 31.65 26.256C31.746 26.112 31.746 26.016 31.794 25.872C31.794 25.728 31.842 25.536 31.89 25.392C31.986 25.152 32.034 24.864 31.89 24.624L31.698 24.384C31.698 24.336 31.698 24.288 31.746 24.24C31.842 23.952 31.89 23.616 32.178 23.28ZM31.986 26.928C32.034 26.88 31.986 26.832 31.938 26.736L31.842 26.448C31.842 26.4 31.602 26.4 31.602 26.448L31.506 26.688C31.506 26.784 31.602 26.88 31.506 26.976C31.362 27.168 31.266 27.264 31.65 27.408C31.65 27.408 31.794 27.408 31.794 27.36C31.65 27.264 31.602 27.216 31.746 27.12C31.842 27.072 31.938 27.024 31.986 26.928ZM31.266 34.896C31.266 34.8 31.218 34.704 31.17 34.608C31.122 34.56 30.93 34.56 30.93 34.608C30.93 34.704 31.026 34.848 31.074 34.944C31.122 34.944 31.266 34.944 31.266 34.896ZM31.698 28.272H31.794C31.794 28.128 31.746 27.936 31.746 27.792H31.65C31.65 27.936 31.65 28.128 31.698 28.272ZM74.988 27.984C75.516 30.576 73.02 34.608 72.732 37.296C72.444 40.128 72.156 40.368 69.612 41.52C66.972 42.672 63.996 43.728 61.308 41.856C57.468 39.216 59.148 31.968 58.668 27.888C57.9 21.888 57.9 13.728 59.772 7.92001C61.788 1.72801 68.652 6.67572e-06 73.548 4.12801C73.548 4.12801 73.596 4.17601 73.644 4.17601C73.74 7.20001 76.428 19.008 71.724 18.72C67.836 18.48 68.796 15.792 68.94 13.296C69.036 11.52 69.324 5.90401 66.636 6.19201C62.412 6.62401 64.188 17.616 63.948 20.496C63.756 23.568 63.372 26.064 63.804 29.136C64.14 31.824 63.276 35.136 65.244 37.296C69.516 41.904 70.14 30.432 70.668 28.32C70.956 27.168 70.908 26.448 72.012 26.112C73.26 25.68 74.748 26.928 74.988 27.984ZM61.452 29.76C61.5 29.52 61.548 29.232 61.404 28.992C61.404 28.944 61.212 28.944 61.068 28.992V28.944C61.116 28.944 61.164 28.944 61.068 28.896C61.116 28.8 61.116 28.704 61.068 28.608C61.068 28.512 60.876 28.368 60.972 28.32C61.02 28.272 61.068 28.224 61.068 28.176C61.212 28.032 61.308 27.888 61.308 27.744C61.356 27.648 61.308 27.456 61.116 27.36C61.116 27.312 61.02 27.312 60.924 27.312C60.732 27.216 61.116 26.976 61.164 26.88C61.356 26.688 61.356 26.448 61.02 26.304C60.972 26.256 60.636 26.256 60.588 26.304C60.492 26.448 60.636 26.544 60.636 26.64C60.636 26.736 60.636 26.88 60.588 26.976C60.588 27.072 60.492 27.216 60.732 27.312C60.684 27.312 60.636 27.312 60.588 27.36C60.492 27.504 60.684 27.696 60.636 27.888C60.588 28.08 60.348 28.272 60.3 28.512C60.252 28.608 60.444 28.752 60.54 28.848V28.896C60.444 29.232 59.964 29.568 60.252 29.904C60.3 29.952 60.588 29.952 60.636 29.904C60.78 29.76 60.732 29.616 60.828 29.424L61.02 29.232C60.972 29.376 60.972 29.568 60.972 29.712C60.924 29.952 60.924 30.192 60.684 30.432C60.492 30.624 60.492 30.816 60.588 31.008C60.684 31.104 60.732 31.248 60.78 31.344L60.828 31.392C60.732 31.344 60.684 31.296 60.684 31.248C60.684 31.2 60.444 31.2 60.444 31.248C60.348 31.344 60.492 31.44 60.636 31.536C60.828 31.632 60.876 31.776 60.876 31.92C60.78 31.92 60.684 31.92 60.636 31.968C60.492 32.016 60.588 32.064 60.636 32.112C60.732 32.16 60.828 32.304 60.78 32.4H60.828L60.684 32.784H60.588C60.444 32.928 60.492 33.024 60.444 33.12C60.396 33.264 60.444 33.408 60.492 33.504C60.492 33.6 60.492 33.648 60.444 33.696C60.396 33.744 60.348 33.792 60.348 33.84C60.396 33.888 60.588 33.936 60.684 33.936V33.984C60.684 34.128 60.828 34.224 60.924 34.368C60.924 34.368 60.972 34.368 60.972 34.32L60.78 34.032H61.02C61.116 33.936 61.116 33.888 61.02 33.84C60.828 33.744 61.068 33.648 61.068 33.552C61.02 33.408 60.972 33.264 61.02 33.168C61.02 33.024 61.164 32.88 60.972 32.784L61.02 32.736C61.164 32.544 61.212 32.352 61.26 32.208C61.308 32.016 61.452 31.824 61.26 31.632C61.212 31.632 61.212 31.584 61.164 31.584V31.536C61.164 31.488 61.26 31.392 61.26 31.296C61.26 31.2 61.308 31.104 61.212 31.008C61.164 30.912 61.164 30.816 61.164 30.72C61.164 30.576 61.26 30.48 61.356 30.336C61.452 30.144 61.452 29.952 61.452 29.76ZM62.028 23.28C62.124 23.232 62.22 23.088 62.076 22.992C61.932 22.944 61.644 22.944 61.452 22.992C61.452 22.944 61.452 22.944 61.5 22.896L61.596 22.656C61.596 22.512 61.452 22.272 61.356 22.128C61.356 22.08 61.116 22.08 61.116 22.128C61.02 22.272 60.972 22.464 61.02 22.656C61.02 22.704 60.972 22.8 60.924 22.896C60.924 22.992 61.02 23.04 61.068 23.136C60.828 23.28 60.78 23.52 60.684 23.664C60.588 23.808 60.54 23.952 60.588 24.096C60.588 24.24 60.78 24.384 60.924 24.48V24.528C60.828 24.816 60.636 25.104 60.588 25.344C60.588 25.488 60.636 25.632 60.636 25.776C60.684 25.92 60.636 26.064 60.732 26.208C60.732 26.256 60.876 26.256 60.876 26.208L61.02 25.968C61.02 26.064 61.068 26.16 61.164 26.256C61.212 26.304 61.452 26.304 61.5 26.256C61.596 26.112 61.596 26.016 61.644 25.872C61.644 25.728 61.692 25.536 61.74 25.392C61.836 25.152 61.884 24.864 61.74 24.624L61.548 24.384C61.548 24.336 61.548 24.288 61.596 24.24C61.692 23.952 61.74 23.616 62.028 23.28ZM61.836 26.928C61.884 26.88 61.836 26.832 61.788 26.736L61.692 26.448C61.692 26.4 61.452 26.4 61.452 26.448L61.356 26.688C61.356 26.784 61.452 26.88 61.356 26.976C61.212 27.168 61.116 27.264 61.5 27.408C61.5 27.408 61.644 27.408 61.644 27.36C61.5 27.264 61.452 27.216 61.596 27.12C61.692 27.072 61.788 27.024 61.836 26.928ZM61.116 34.896C61.116 34.8 61.068 34.704 61.02 34.608C60.972 34.56 60.78 34.56 60.78 34.608C60.78 34.704 60.876 34.848 60.924 34.944C60.972 34.944 61.116 34.944 61.116 34.896ZM61.548 28.272H61.644C61.644 28.128 61.596 27.936 61.596 27.792H61.5C61.5 27.936 61.5 28.128 61.548 28.272ZM100.038 4.22401C103.254 9.16801 94.278 5.23201 93.126 8.01601C92.31 10.032 92.31 19.584 93.846 20.4C94.854 20.928 100.278 19.104 100.038 22.128C99.846 24.48 96.006 23.376 94.662 23.808C90.774 25.104 93.078 33.84 92.886 37.296C93.846 37.152 100.518 35.712 99.222 39.12C98.982 39.744 92.598 41.472 91.542 41.568C85.014 42.24 87.894 31.92 87.99 28.272C88.23 21.504 87.654 14.64 87.75 7.92001C87.75 5.47201 87.558 3.79201 90.534 3.26401C93.702 2.64001 97.062 2.97601 100.038 4.22401ZM90.534 26.112C90.534 25.776 90.582 25.44 90.438 25.104C90.438 25.056 90.246 25.056 90.15 25.056C90.198 25.056 90.198 25.008 90.15 25.008C90.15 24.864 90.15 24.72 90.102 24.528C90.102 24.432 89.91 24.288 90.006 24.192C90.054 24.144 90.102 24.048 90.102 24C90.246 23.808 90.342 23.664 90.342 23.424C90.342 23.28 90.342 23.04 90.15 22.896C90.102 22.848 90.006 22.848 89.958 22.848C89.766 22.704 90.102 22.416 90.198 22.272C90.342 22.032 90.342 21.696 90.006 21.504C89.91 21.456 89.622 21.456 89.574 21.504C89.478 21.648 89.622 21.84 89.622 21.984C89.67 22.128 89.622 22.224 89.622 22.368C89.574 22.512 89.526 22.752 89.766 22.848C89.67 22.848 89.622 22.896 89.622 22.896C89.478 23.136 89.67 23.376 89.67 23.616C89.622 23.904 89.382 24.144 89.334 24.432C89.286 24.576 89.478 24.768 89.574 24.912L89.622 24.96H89.574C89.526 25.44 89.046 25.872 89.334 26.304C89.382 26.4 89.622 26.352 89.67 26.304C89.862 26.112 89.814 25.92 89.91 25.68L90.054 25.392C90.054 25.632 90.054 25.824 90.006 26.064C89.958 26.352 90.006 26.688 89.766 27.024C89.574 27.264 89.574 27.504 89.67 27.792C89.766 27.936 89.814 28.08 89.862 28.224L89.91 28.272C89.814 28.224 89.766 28.176 89.766 28.08C89.766 28.032 89.526 28.032 89.526 28.08C89.43 28.224 89.574 28.368 89.766 28.512C89.91 28.608 89.958 28.8 89.958 28.944C89.862 28.992 89.766 28.992 89.718 29.04C89.622 29.088 89.67 29.184 89.718 29.232C89.814 29.328 89.91 29.472 89.862 29.616H89.91C89.862 29.808 89.814 29.952 89.814 30.096C89.718 30.096 89.67 30.144 89.67 30.144C89.526 30.288 89.574 30.48 89.526 30.624C89.478 30.768 89.574 30.96 89.574 31.104C89.574 31.2 89.574 31.248 89.526 31.344C89.478 31.392 89.43 31.44 89.43 31.488C89.478 31.584 89.67 31.632 89.766 31.68V31.728C89.766 31.92 89.91 32.064 90.006 32.208H90.054L89.862 31.776C89.91 31.824 90.054 31.824 90.102 31.776C90.198 31.68 90.198 31.632 90.102 31.536C89.91 31.44 90.15 31.296 90.15 31.152C90.102 31.008 90.054 30.816 90.102 30.624C90.102 30.48 90.246 30.288 90.102 30.144H90.054C90.054 30.096 90.102 30.096 90.102 30.048C90.246 29.856 90.294 29.568 90.342 29.328C90.39 29.136 90.534 28.848 90.342 28.656C90.342 28.608 90.294 28.56 90.246 28.512C90.246 28.416 90.342 28.32 90.342 28.176C90.342 28.032 90.342 27.888 90.294 27.744C90.246 27.648 90.246 27.504 90.246 27.36C90.198 27.216 90.342 27.072 90.39 26.928C90.534 26.64 90.486 26.352 90.534 26.112ZM90.966 17.52C91.062 17.376 91.158 17.232 91.014 17.088C90.918 17.04 90.582 17.04 90.39 17.088C90.438 17.04 90.438 16.992 90.438 16.992C90.486 16.848 90.534 16.752 90.534 16.656C90.582 16.416 90.438 16.176 90.342 15.936C90.294 15.888 90.102 15.888 90.102 15.936C90.006 16.128 89.91 16.368 89.958 16.608C89.958 16.704 89.91 16.848 89.91 16.944C89.91 17.04 89.958 17.184 90.054 17.232C89.766 17.472 89.718 17.808 89.622 18C89.526 18.192 89.526 18.384 89.526 18.576C89.526 18.768 89.718 18.912 89.91 19.104L89.862 19.152C89.766 19.536 89.574 19.872 89.574 20.256C89.574 20.448 89.622 20.64 89.622 20.832C89.67 21.024 89.622 21.216 89.718 21.408H89.862C89.91 21.264 89.958 21.168 89.958 21.024C90.006 21.168 90.054 21.312 90.15 21.456C90.198 21.504 90.438 21.504 90.486 21.456C90.582 21.264 90.582 21.12 90.582 20.928L90.726 20.304C90.774 19.968 90.822 19.584 90.678 19.248C90.678 19.152 90.582 19.056 90.486 18.96C90.486 18.912 90.534 18.816 90.534 18.768C90.678 18.336 90.726 17.952 90.966 17.52ZM90.822 22.368C90.87 22.272 90.822 22.176 90.774 22.128L90.678 21.696C90.678 21.648 90.438 21.648 90.438 21.696C90.39 21.792 90.39 21.888 90.39 22.032C90.342 22.176 90.438 22.272 90.342 22.416C90.198 22.656 90.102 22.752 90.486 22.944C90.534 22.992 90.678 22.944 90.63 22.944C90.486 22.8 90.438 22.704 90.582 22.608L90.822 22.368ZM90.15 32.976C90.198 32.832 90.15 32.688 90.054 32.544C90.054 32.496 89.814 32.496 89.814 32.544L90.006 32.976C90.006 33.024 90.15 33.024 90.15 32.976ZM90.582 24.144C90.582 24.144 90.678 24.144 90.678 24.096C90.63 23.904 90.63 23.712 90.63 23.52C90.63 23.472 90.534 23.472 90.534 23.52C90.534 23.712 90.534 23.904 90.582 24.144ZM90.15 15.84H90.054L90.102 15.888C90.102 15.888 90.15 15.888 90.15 15.84ZM129.862 6.72001C130.342 9.50401 130.918 22.32 124.966 16.56C126.886 14.448 127.462 9.07201 124.534 7.29601C119.83 4.41601 120.646 13.248 120.646 15.36C120.694 22.56 127.462 28.464 127.75 35.616C128.086 43.68 115.366 45.6 113.206 37.824C112.87 36.768 113.542 35.424 113.206 34.464C113.062 34.032 112.198 33.744 112.15 33.36C111.766 31.344 114.214 30.192 116.326 30.528C118.918 30.96 117.814 31.968 117.526 34.032C117.286 35.76 117.334 37.728 119.062 38.832C126.886 37.584 115.174 21.696 114.694 18.048C114.262 14.832 114.79 8.40001 117.142 5.95201C120.454 2.59201 126.838 3.79201 129.862 6.72001ZM120.934 22.8C120.934 22.608 120.694 22.56 120.502 22.56C120.31 22.512 120.166 22.416 120.07 22.272C120.166 22.224 120.262 22.128 120.262 22.08C120.31 21.984 120.214 21.936 120.166 21.936C120.022 21.888 119.878 21.84 119.83 21.696H119.782L119.638 21.264C119.686 21.216 119.686 21.168 119.734 21.168C119.734 20.976 119.638 20.88 119.59 20.736C119.542 20.544 119.398 20.448 119.35 20.352C119.302 20.256 119.206 20.256 119.254 20.112C119.302 20.064 119.302 20.016 119.254 19.968C119.206 19.92 119.014 19.968 118.918 19.968C118.87 19.968 118.87 19.968 118.87 19.92L118.678 19.776C118.63 19.776 118.534 19.728 118.486 19.68C118.486 19.68 118.438 19.68 118.438 19.728L118.774 19.968C118.726 19.968 118.582 20.016 118.582 20.064C118.534 20.208 118.534 20.256 118.678 20.256C118.87 20.256 118.726 20.496 118.822 20.592C118.918 20.736 119.062 20.832 119.11 20.976C119.158 21.12 119.158 21.36 119.398 21.36V21.456C119.398 21.696 119.494 21.936 119.542 22.176C119.638 22.368 119.686 22.656 119.926 22.752H120.07V22.8C120.118 22.896 120.118 22.992 120.118 23.088C120.166 23.232 120.262 23.376 120.358 23.472C120.454 23.568 120.55 23.616 120.598 23.76C120.694 23.904 120.646 24.048 120.646 24.24C120.646 24.528 120.742 24.72 120.838 25.008C120.934 25.296 121.078 25.584 121.318 25.824C121.318 25.872 121.51 25.776 121.606 25.68V25.728C121.606 25.776 121.606 25.776 121.654 25.776L121.846 26.16C121.894 26.256 122.086 26.304 122.038 26.448V26.64C121.99 26.832 121.99 27.024 122.038 27.216C122.086 27.36 122.182 27.552 122.422 27.6C122.47 27.648 122.566 27.6 122.614 27.6C122.854 27.648 122.662 28.032 122.614 28.176C122.566 28.464 122.662 28.752 123.046 28.8C123.094 28.848 123.142 28.848 123.238 28.8C123.19 28.8 123.19 28.848 123.19 28.848V29.184C123.142 29.088 123.046 28.992 122.95 28.896C122.902 28.848 122.614 28.992 122.614 29.04C122.566 29.232 122.662 29.376 122.662 29.52L122.758 30.144C122.758 30.288 122.806 30.432 122.854 30.624C122.902 30.768 122.95 30.912 123.046 31.056L123.334 31.248V32.064C123.334 32.256 123.286 32.448 123.19 32.64C123.142 32.784 123.046 32.976 123.238 33.024C123.334 33.072 123.622 33.024 123.814 32.976V33.072C123.766 33.168 123.766 33.264 123.766 33.36C123.766 33.456 123.814 33.552 123.862 33.696C123.91 33.792 123.958 33.888 124.054 33.984C124.054 34.032 124.246 34.032 124.294 33.984C124.342 33.744 124.39 33.504 124.342 33.312C124.294 33.216 124.342 33.072 124.342 32.976C124.342 32.88 124.246 32.784 124.15 32.736C124.39 32.448 124.39 32.16 124.39 31.92C124.438 31.728 124.438 31.536 124.39 31.344C124.294 31.152 124.102 31.104 123.862 30.96V30.912C123.862 30.816 123.862 30.72 123.91 30.624V30.336C123.91 30.144 123.91 29.952 123.862 29.808C123.814 29.616 123.718 29.472 123.622 29.28C123.526 29.136 123.478 28.944 123.334 28.8H123.238C123.334 28.8 123.43 28.704 123.43 28.656C123.478 28.464 123.286 28.368 123.238 28.272C123.142 28.128 123.142 27.984 123.094 27.888C123.094 27.744 123.046 27.504 122.806 27.504C122.854 27.456 122.902 27.456 122.902 27.408C122.95 27.168 122.662 27.024 122.614 26.784C122.566 26.544 122.662 26.208 122.614 25.968C122.566 25.776 122.326 25.728 122.182 25.632C122.182 25.632 122.182 25.584 122.134 25.584C122.086 25.344 122.134 25.104 122.134 24.864C122.134 24.624 122.086 24.384 121.846 24.288C121.798 24.24 121.558 24.384 121.51 24.432C121.462 24.672 121.606 24.864 121.558 25.056V25.392L121.318 24.816C121.222 24.528 121.078 24.24 121.174 23.856C121.222 23.712 121.174 23.568 121.174 23.472C121.126 23.424 121.126 23.424 121.126 23.376C121.078 23.328 121.078 23.328 121.078 23.28L120.934 23.136C120.838 23.088 120.742 23.04 120.694 22.944C120.694 22.992 120.934 22.848 120.934 22.8ZM122.326 28.896C122.374 28.896 122.566 28.848 122.566 28.8C122.566 28.704 122.566 28.608 122.518 28.512C122.47 28.368 122.326 28.272 122.374 28.128C122.47 27.84 122.47 27.744 122.086 27.696C122.038 27.696 121.894 27.744 121.942 27.792C122.134 27.84 122.23 27.888 122.134 28.08C122.086 28.176 121.99 28.272 121.99 28.368C121.99 28.464 122.038 28.512 122.086 28.56C122.23 28.656 122.23 28.752 122.326 28.896ZM118.294 19.44C118.342 19.44 118.534 19.392 118.486 19.344C118.486 19.296 118.438 19.296 118.438 19.248C118.39 19.248 118.39 19.2 118.342 19.2L118.198 19.008C118.15 19.008 118.054 19.056 118.054 19.104C118.054 19.152 118.102 19.248 118.15 19.296C118.15 19.296 118.198 19.344 118.198 19.392C118.246 19.392 118.246 19.392 118.294 19.44ZM121.75 27.264C121.798 27.264 121.846 27.264 121.846 27.216C121.75 27.072 121.702 26.88 121.558 26.736C121.558 26.688 121.462 26.736 121.462 26.784C121.606 26.928 121.702 27.12 121.75 27.264ZM120.454 22.8C120.55 22.8 120.646 22.848 120.694 22.944C120.646 22.944 120.598 22.896 120.55 22.848C120.502 22.848 120.502 22.8 120.454 22.8ZM124.342 34.08C124.294 34.08 124.294 34.032 124.246 34.032C124.246 34.08 124.294 34.08 124.342 34.08ZM159.009 6.72001C159.489 9.50401 160.065 22.32 154.113 16.56C156.033 14.448 156.609 9.07201 153.681 7.29601C148.977 4.41601 149.793 13.248 149.793 15.36C149.841 22.56 156.609 28.464 156.897 35.616C157.233 43.68 144.513 45.6 142.353 37.824C142.017 36.768 142.689 35.424 142.353 34.464C142.209 34.032 141.345 33.744 141.297 33.36C140.913 31.344 143.361 30.192 145.473 30.528C148.065 30.96 146.961 31.968 146.673 34.032C146.433 35.76 146.481 37.728 148.209 38.832C156.033 37.584 144.321 21.696 143.841 18.048C143.409 14.832 143.937 8.40001 146.289 5.95201C149.601 2.59201 155.985 3.79201 159.009 6.72001ZM150.081 22.8C150.081 22.608 149.841 22.56 149.649 22.56C149.457 22.512 149.313 22.416 149.217 22.272C149.313 22.224 149.409 22.128 149.409 22.08C149.457 21.984 149.361 21.936 149.313 21.936C149.169 21.888 149.025 21.84 148.977 21.696H148.929L148.785 21.264C148.833 21.216 148.833 21.168 148.881 21.168C148.881 20.976 148.785 20.88 148.737 20.736C148.689 20.544 148.545 20.448 148.497 20.352C148.449 20.256 148.353 20.256 148.401 20.112C148.449 20.064 148.449 20.016 148.401 19.968C148.353 19.92 148.161 19.968 148.065 19.968C148.017 19.968 148.017 19.968 148.017 19.92L147.825 19.776C147.777 19.776 147.681 19.728 147.633 19.68C147.633 19.68 147.585 19.68 147.585 19.728L147.921 19.968C147.873 19.968 147.729 20.016 147.729 20.064C147.681 20.208 147.681 20.256 147.825 20.256C148.017 20.256 147.873 20.496 147.969 20.592C148.065 20.736 148.209 20.832 148.257 20.976C148.305 21.12 148.305 21.36 148.545 21.36V21.456C148.545 21.696 148.641 21.936 148.689 22.176C148.785 22.368 148.833 22.656 149.073 22.752H149.217V22.8C149.265 22.896 149.265 22.992 149.265 23.088C149.313 23.232 149.409 23.376 149.505 23.472C149.601 23.568 149.697 23.616 149.745 23.76C149.841 23.904 149.793 24.048 149.793 24.24C149.793 24.528 149.889 24.72 149.985 25.008C150.081 25.296 150.225 25.584 150.465 25.824C150.465 25.872 150.657 25.776 150.753 25.68V25.728C150.753 25.776 150.753 25.776 150.801 25.776L150.993 26.16C151.041 26.256 151.233 26.304 151.185 26.448V26.64C151.137 26.832 151.137 27.024 151.185 27.216C151.233 27.36 151.329 27.552 151.569 27.6C151.617 27.648 151.713 27.6 151.761 27.6C152.001 27.648 151.809 28.032 151.761 28.176C151.713 28.464 151.809 28.752 152.193 28.8C152.241 28.848 152.289 28.848 152.385 28.8C152.337 28.8 152.337 28.848 152.337 28.848V29.184C152.289 29.088 152.193 28.992 152.097 28.896C152.049 28.848 151.761 28.992 151.761 29.04C151.713 29.232 151.809 29.376 151.809 29.52L151.905 30.144C151.905 30.288 151.953 30.432 152.001 30.624C152.049 30.768 152.097 30.912 152.193 31.056L152.481 31.248V32.064C152.481 32.256 152.433 32.448 152.337 32.64C152.289 32.784 152.193 32.976 152.385 33.024C152.481 33.072 152.769 33.024 152.961 32.976V33.072C152.913 33.168 152.913 33.264 152.913 33.36C152.913 33.456 152.961 33.552 153.009 33.696C153.057 33.792 153.105 33.888 153.201 33.984C153.201 34.032 153.393 34.032 153.441 33.984C153.489 33.744 153.537 33.504 153.489 33.312C153.441 33.216 153.489 33.072 153.489 32.976C153.489 32.88 153.393 32.784 153.297 32.736C153.537 32.448 153.537 32.16 153.537 31.92C153.585 31.728 153.585 31.536 153.537 31.344C153.441 31.152 153.249 31.104 153.009 30.96V30.912C153.009 30.816 153.009 30.72 153.057 30.624V30.336C153.057 30.144 153.057 29.952 153.009 29.808C152.961 29.616 152.865 29.472 152.769 29.28C152.673 29.136 152.625 28.944 152.481 28.8H152.385C152.481 28.8 152.577 28.704 152.577 28.656C152.625 28.464 152.433 28.368 152.385 28.272C152.289 28.128 152.289 27.984 152.241 27.888C152.241 27.744 152.193 27.504 151.953 27.504C152.001 27.456 152.049 27.456 152.049 27.408C152.097 27.168 151.809 27.024 151.761 26.784C151.713 26.544 151.809 26.208 151.761 25.968C151.713 25.776 151.473 25.728 151.329 25.632C151.329 25.632 151.329 25.584 151.281 25.584C151.233 25.344 151.281 25.104 151.281 24.864C151.281 24.624 151.233 24.384 150.993 24.288C150.945 24.24 150.705 24.384 150.657 24.432C150.609 24.672 150.753 24.864 150.705 25.056V25.392L150.465 24.816C150.369 24.528 150.225 24.24 150.321 23.856C150.369 23.712 150.321 23.568 150.321 23.472C150.273 23.424 150.273 23.424 150.273 23.376C150.225 23.328 150.225 23.328 150.225 23.28L150.081 23.136C149.985 23.088 149.889 23.04 149.841 22.944C149.841 22.992 150.081 22.848 150.081 22.8ZM151.473 28.896C151.521 28.896 151.713 28.848 151.713 28.8C151.713 28.704 151.713 28.608 151.665 28.512C151.617 28.368 151.473 28.272 151.521 28.128C151.617 27.84 151.617 27.744 151.233 27.696C151.185 27.696 151.041 27.744 151.089 27.792C151.281 27.84 151.377 27.888 151.281 28.08C151.233 28.176 151.137 28.272 151.137 28.368C151.137 28.464 151.185 28.512 151.233 28.56C151.377 28.656 151.377 28.752 151.473 28.896ZM147.441 19.44C147.489 19.44 147.681 19.392 147.633 19.344C147.633 19.296 147.585 19.296 147.585 19.248C147.537 19.248 147.537 19.2 147.489 19.2L147.345 19.008C147.297 19.008 147.201 19.056 147.201 19.104C147.201 19.152 147.249 19.248 147.297 19.296C147.297 19.296 147.345 19.344 147.345 19.392C147.393 19.392 147.393 19.392 147.441 19.44ZM150.897 27.264C150.945 27.264 150.993 27.264 150.993 27.216C150.897 27.072 150.849 26.88 150.705 26.736C150.705 26.688 150.609 26.736 150.609 26.784C150.753 26.928 150.849 27.12 150.897 27.264ZM149.601 22.8C149.697 22.8 149.793 22.848 149.841 22.944C149.793 22.944 149.745 22.896 149.697 22.848C149.649 22.848 149.649 22.8 149.601 22.8ZM153.489 34.08C153.441 34.08 153.441 34.032 153.393 34.032C153.393 34.08 153.441 34.08 153.489 34.08Z" fill="#1D4F72"/>
</svg>
