<svg width="165" height="45" viewBox="0 0 165 45" fill="none" xmlns="http://www.w3.org/2000/svg">
<path d="M17.52 27.984C18.048 30.576 15.552 34.608 15.264 37.296C14.976 40.128 14.688 40.368 12.144 41.52C9.50401 42.672 6.52801 43.728 3.84001 41.856C1.41859e-05 39.216 1.68001 31.968 1.20001 27.888C0.432014 21.888 0.432014 13.728 2.30401 7.92001C4.32001 1.72801 11.184 6.67572e-06 16.08 4.12801C16.08 4.12801 16.128 4.17601 16.176 4.17601C16.272 7.20001 18.96 19.008 14.256 18.72C10.368 18.48 11.328 15.792 11.472 13.296C11.568 11.52 11.856 5.90401 9.16801 6.19201C4.94401 6.62401 6.72001 17.616 6.48001 20.496C6.28801 23.568 5.90401 26.064 6.33601 29.136C6.67201 31.824 5.80801 35.136 7.77601 37.296C12.048 41.904 12.672 30.432 13.2 28.32C13.488 27.168 13.44 26.448 14.544 26.112C15.792 25.68 17.28 26.928 17.52 27.984ZM3.98401 29.76C4.03201 29.52 4.08001 29.232 3.93601 28.992C3.93601 28.944 3.74401 28.944 3.60001 28.992V28.944C3.64801 28.944 3.69601 28.944 3.60001 28.896C3.64801 28.8 3.64801 28.704 3.60001 28.608C3.60001 28.512 3.40801 28.368 3.50401 28.32C3.55201 28.272 3.60001 28.224 3.60001 28.176C3.74401 28.032 3.84001 27.888 3.84001 27.744C3.88801 27.648 3.84001 27.456 3.64801 27.36C3.64801 27.312 3.55201 27.312 3.45601 27.312C3.26401 27.216 3.64801 26.976 3.69601 26.88C3.88801 26.688 3.88801 26.448 3.55201 26.304C3.50401 26.256 3.16801 26.256 3.12001 26.304C3.02401 26.448 3.16801 26.544 3.16801 26.64C3.16801 26.736 3.16801 26.88 3.12001 26.976C3.12001 27.072 3.02401 27.216 3.26401 27.312C3.21601 27.312 3.16801 27.312 3.12001 27.36C3.02401 27.504 3.21601 27.696 3.16801 27.888C3.12001 28.08 2.88001 28.272 2.83201 28.512C2.78401 28.608 2.97601 28.752 3.07201 28.848V28.896C2.97601 29.232 2.49601 29.568 2.78401 29.904C2.83201 29.952 3.12001 29.952 3.16801 29.904C3.31201 29.76 3.26401 29.616 3.36001 29.424L3.55201 29.232C3.50401 29.376 3.50401 29.568 3.50401 29.712C3.45601 29.952 3.45601 30.192 3.21601 30.432C3.02401 30.624 3.02401 30.816 3.12001 31.008C3.21601 31.104 3.26401 31.248 3.31201 31.344L3.36001 31.392C3.26401 31.344 3.21601 31.296 3.21601 31.248C3.21601 31.2 2.97601 31.2 2.97601 31.248C2.88001 31.344 3.02401 31.44 3.16801 31.536C3.36001 31.632 3.40801 31.776 3.40801 31.92C3.31201 31.92 3.21601 31.92 3.16801 31.968C3.02401 32.016 3.12001 32.064 3.16801 32.112C3.26401 32.16 3.36001 32.304 3.31201 32.4H3.36001L3.21601 32.784H3.12001C2.97601 32.928 3.02401 33.024 2.97601 33.12C2.92801 33.264 2.97601 33.408 3.02401 33.504C3.02401 33.6 3.02401 33.648 2.97601 33.696C2.92801 33.744 2.88001 33.792 2.88001 33.84C2.92801 33.888 3.12001 33.936 3.21601 33.936V33.984C3.21601 34.128 3.36001 34.224 3.45601 34.368C3.45601 34.368 3.50401 34.368 3.50401 34.32L3.31201 34.032H3.55201C3.64801 33.936 3.64801 33.888 3.55201 33.84C3.36001 33.744 3.60001 33.648 3.60001 33.552C3.55201 33.408 3.50401 33.264 3.55201 33.168C3.55201 33.024 3.69601 32.88 3.50401 32.784L3.55201 32.736C3.69601 32.544 3.74401 32.352 3.79201 32.208C3.84001 32.016 3.98401 31.824 3.79201 31.632C3.74401 31.632 3.74401 31.584 3.69601 31.584V31.536C3.69601 31.488 3.79201 31.392 3.79201 31.296C3.79201 31.2 3.84001 31.104 3.74401 31.008C3.69601 30.912 3.69601 30.816 3.69601 30.72C3.69601 30.576 3.79201 30.48 3.88801 30.336C3.98401 30.144 3.98401 29.952 3.98401 29.76ZM4.56001 23.28C4.65601 23.232 4.75201 23.088 4.60801 22.992C4.46401 22.944 4.17601 22.944 3.98401 22.992C3.98401 22.944 3.98401 22.944 4.03201 22.896L4.12801 22.656C4.12801 22.512 3.98401 22.272 3.88801 22.128C3.88801 22.08 3.64801 22.08 3.64801 22.128C3.55201 22.272 3.50401 22.464 3.55201 22.656C3.55201 22.704 3.50401 22.8 3.45601 22.896C3.45601 22.992 3.55201 23.04 3.60001 23.136C3.36001 23.28 3.31201 23.52 3.21601 23.664C3.12001 23.808 3.07201 23.952 3.12001 24.096C3.12001 24.24 3.31201 24.384 3.45601 24.48V24.528C3.36001 24.816 3.16801 25.104 3.12001 25.344C3.12001 25.488 3.16801 25.632 3.16801 25.776C3.21601 25.92 3.16801 26.064 3.26401 26.208C3.26401 26.256 3.40801 26.256 3.40801 26.208L3.55201 25.968C3.55201 26.064 3.60001 26.16 3.69601 26.256C3.74401 26.304 3.98401 26.304 4.03201 26.256C4.12801 26.112 4.12801 26.016 4.17601 25.872C4.17601 25.728 4.22401 25.536 4.27201 25.392C4.36801 25.152 4.41601 24.864 4.27201 24.624L4.08001 24.384C4.08001 24.336 4.08001 24.288 4.12801 24.24C4.22401 23.952 4.27201 23.616 4.56001 23.28ZM4.36801 26.928C4.41601 26.88 4.36801 26.832 4.32001 26.736L4.22401 26.448C4.22401 26.4 3.98401 26.4 3.98401 26.448L3.88801 26.688C3.88801 26.784 3.98401 26.88 3.88801 26.976C3.74401 27.168 3.64801 27.264 4.03201 27.408C4.03201 27.408 4.17601 27.408 4.17601 27.36C4.03201 27.264 3.98401 27.216 4.12801 27.12C4.22401 27.072 4.32001 27.024 4.36801 26.928ZM3.64801 34.896C3.64801 34.8 3.60001 34.704 3.55201 34.608C3.50401 34.56 3.31201 34.56 3.31201 34.608C3.31201 34.704 3.40801 34.848 3.45601 34.944C3.50401 34.944 3.64801 34.944 3.64801 34.896ZM4.08001 28.272H4.17601C4.17601 28.128 4.12801 27.936 4.12801 27.792H4.03201C4.03201 27.936 4.03201 28.128 4.08001 28.272ZM40.554 11.904C40.65 15.744 40.65 19.728 40.506 23.52C40.41 26.928 39.306 44.832 32.394 40.848C31.77 40.464 31.578 39.792 31.002 39.456C30.33 39.072 29.514 39.264 28.89 38.88C27.018 37.824 26.058 35.568 25.53 33.6C24.522 29.856 25.482 25.104 24.138 21.552C25.29 21.024 25.002 17.52 25.098 16.608C25.29 14.112 25.53 11.808 26.346 9.45601C26.874 7.82401 27.45 5.76001 28.746 4.51201C30.426 2.78401 32.778 3.21601 35.034 3.31201C37.386 3.45601 37.77 3.79201 38.826 5.85601C39.786 7.72801 40.554 9.79201 40.554 11.904ZM35.226 23.856C35.37 20.592 34.842 17.424 34.842 14.208C34.842 11.376 34.746 9.55201 33.786 6.81601C28.938 8.92801 29.802 15.312 29.514 19.824C29.37 22.32 29.322 24.672 29.562 27.168C29.802 29.424 31.674 33.36 31.338 35.184C33.546 36.48 33.834 34.368 34.266 32.352C34.842 29.664 35.082 26.64 35.226 23.856ZM38.778 24C38.826 23.664 38.874 23.328 38.778 22.992C38.73 22.944 38.538 22.896 38.442 22.944C38.49 22.896 38.49 22.896 38.442 22.848V22.416C38.442 22.32 38.25 22.176 38.394 22.08V22.032C38.394 21.984 38.442 21.936 38.49 21.888C38.586 21.696 38.73 21.504 38.73 21.312C38.73 21.168 38.73 20.928 38.538 20.736C38.49 20.736 38.442 20.736 38.346 20.688C38.154 20.592 38.49 20.256 38.586 20.16C38.73 19.872 38.73 19.584 38.442 19.344C38.346 19.296 38.01 19.296 38.01 19.392C37.914 19.536 38.058 19.68 38.058 19.824C38.058 19.968 38.058 20.112 38.01 20.256C38.01 20.352 37.914 20.592 38.154 20.688C38.058 20.736 38.01 20.736 38.01 20.784C37.866 20.976 38.058 21.216 38.01 21.456C38.01 21.744 37.722 21.984 37.674 22.272C37.626 22.416 37.818 22.608 37.866 22.752C37.914 22.752 37.914 22.8 37.914 22.8C37.818 23.28 37.29 23.664 37.578 24.144C37.578 24.192 37.866 24.192 37.914 24.144C38.106 23.952 38.058 23.76 38.154 23.568L38.346 23.28L38.25 23.904C38.202 24.24 38.202 24.576 37.914 24.864C37.722 25.104 37.674 25.344 37.77 25.584C37.77 25.728 37.818 25.824 37.818 25.92C37.77 25.872 37.626 25.824 37.578 25.872C37.482 26.016 37.626 26.16 37.77 26.304C37.914 26.448 37.962 26.64 37.914 26.784C37.818 26.784 37.722 26.784 37.674 26.832C37.578 26.88 37.626 26.976 37.674 27.024C37.722 27.168 37.818 27.312 37.77 27.408C37.77 27.456 37.77 27.456 37.818 27.456C37.722 27.6 37.674 27.744 37.626 27.888C37.53 27.888 37.482 27.888 37.482 27.936C37.338 28.032 37.338 28.176 37.29 28.32C37.194 28.464 37.194 28.656 37.194 28.8C37.194 28.896 37.194 28.944 37.098 29.04C37.05 29.088 37.002 29.088 37.002 29.136C37.002 29.232 37.194 29.28 37.242 29.376V29.424C37.242 29.52 37.242 29.616 37.29 29.664C37.29 29.76 37.338 29.856 37.338 29.904C37.338 29.952 37.434 29.952 37.434 29.952C37.434 29.808 37.338 29.664 37.338 29.52C37.386 29.52 37.53 29.568 37.578 29.568C37.674 29.52 37.722 29.424 37.626 29.328C37.482 29.184 37.77 29.136 37.77 28.992C37.77 28.8 37.77 28.608 37.818 28.464C37.866 28.32 38.01 28.128 37.866 27.984V27.936C37.866 27.936 37.914 27.936 37.914 27.888C38.106 27.696 38.202 27.456 38.25 27.216C38.346 27.024 38.49 26.736 38.346 26.544C38.346 26.496 38.298 26.448 38.25 26.4H38.298C38.25 26.304 38.394 26.208 38.394 26.064C38.442 25.92 38.442 25.776 38.394 25.632C38.394 25.488 38.346 25.392 38.346 25.248C38.394 25.104 38.49 24.96 38.586 24.816C38.73 24.576 38.73 24.24 38.778 24ZM39.306 15.312C39.354 15.168 39.498 14.976 39.306 14.88C39.21 14.784 38.874 14.832 38.682 14.88C38.73 14.88 38.73 14.832 38.73 14.784C38.778 14.688 38.826 14.592 38.826 14.448C38.826 14.256 38.634 13.968 38.538 13.728C38.49 13.728 38.298 13.728 38.298 13.776C38.202 14.016 38.154 14.256 38.202 14.448C38.25 14.592 38.202 14.688 38.202 14.832C38.202 14.928 38.298 15.024 38.346 15.12C38.106 15.36 38.058 15.648 37.962 15.888C37.914 16.08 37.866 16.272 37.914 16.416C37.914 16.656 38.106 16.8 38.298 16.944V16.992C38.154 17.376 38.01 17.76 38.01 18.096C38.01 18.288 38.01 18.48 38.058 18.672C38.106 18.864 38.058 19.056 38.154 19.248C38.154 19.296 38.25 19.296 38.298 19.248C38.298 19.2 38.346 19.104 38.394 19.008C38.394 19.152 38.442 19.248 38.538 19.344C38.586 19.392 38.874 19.344 38.922 19.296C39.018 19.152 39.018 18.96 39.018 18.816L39.162 18.144C39.21 17.808 39.21 17.424 39.114 17.088C39.066 16.992 38.97 16.896 38.874 16.8C38.874 16.752 38.922 16.656 38.922 16.608C39.018 16.176 39.066 15.744 39.306 15.312ZM39.21 20.208C39.258 20.16 39.258 20.064 39.21 19.968C39.114 19.824 39.162 19.728 39.114 19.584C39.066 19.536 38.874 19.536 38.874 19.584L38.778 19.872C38.778 20.016 38.874 20.16 38.778 20.304C38.634 20.544 38.538 20.64 38.874 20.832H39.018C38.874 20.688 38.826 20.592 38.97 20.448C39.066 20.4 39.162 20.304 39.21 20.208ZM37.242 30.672C37.338 30.576 37.338 30.384 37.338 30.24C37.338 30.192 37.098 30.144 37.098 30.192V30.624C37.098 30.672 37.242 30.72 37.242 30.672ZM38.922 22.032H39.066L38.97 21.408C38.97 21.36 38.922 21.36 38.922 21.408C38.922 21.6 38.874 21.792 38.922 22.032ZM37.962 26.16C37.866 26.064 37.818 25.968 37.866 25.92C37.866 25.968 37.866 26.016 37.914 26.064C37.914 26.064 37.962 26.112 37.962 26.16ZM38.346 13.68H38.25L38.298 13.728L38.346 13.68ZM37.866 25.92H37.818H37.866ZM66.7249 33.696C66.7249 35.52 68.3089 39.072 67.3489 40.656C66.3409 42.336 63.3649 42.576 62.1169 41.184C60.9649 39.936 60.0049 36.672 59.4769 34.992C57.3169 28.416 54.1009 20.928 53.1889 13.776C53.4769 18.192 53.6209 22.704 53.5729 27.168C53.5249 30.144 54.0529 32.928 54.2449 35.856C54.3409 36.816 54.5329 38.352 54.1969 39.168C54.1009 39.36 51.8929 41.904 51.7009 42C48.5329 43.824 48.1009 39.12 48.1009 37.248C48.1009 36.384 48.6769 35.52 48.7249 34.608C48.7729 33.36 48.3409 32.016 48.2449 30.72C47.9569 25.152 48.7729 19.296 48.8209 13.68C48.8689 11.328 47.4769 0.816008 52.6129 2.64001C55.0129 3.50401 55.1569 7.00801 55.5889 8.92801C56.3089 12.096 56.9809 15.312 57.9889 18.432C58.5649 20.256 59.4289 21.936 59.9569 23.712C60.5809 25.824 60.6289 29.28 62.5489 30.528C63.1249 25.632 63.1249 20.688 63.1729 15.696C63.2209 13.584 63.3649 11.472 63.3169 9.31201C63.3169 8.06401 62.4049 4.36801 62.9329 3.31201C63.7489 1.72801 66.0049 2.54401 66.7729 3.64801C67.6849 4.94401 67.0129 8.25601 66.9649 9.93601C66.8689 14.832 66.9169 19.68 66.7729 24.576C66.6289 27.6 66.7249 30.624 66.7249 33.696ZM51.3649 26.736C51.4129 26.592 51.4129 26.352 51.2209 26.208C51.1729 26.16 51.1249 26.16 51.0289 26.16C50.8369 26.016 51.2209 25.728 51.2689 25.632C51.3649 25.488 51.4129 25.344 51.3649 25.248C51.3649 25.104 51.2689 24.96 51.1249 24.864C51.0289 24.816 50.6929 24.816 50.6449 24.912C50.5969 25.056 50.7409 25.2 50.7409 25.344C50.7409 25.44 50.7409 25.584 50.6929 25.728C50.6929 25.824 50.5969 26.016 50.8369 26.16C50.7409 26.16 50.6929 26.16 50.6929 26.208C50.5489 26.4 50.7409 26.64 50.6929 26.832C50.5969 27.072 50.3089 27.312 50.2609 27.552C50.2129 27.696 50.3569 27.888 50.4529 28.08V28.128L50.3089 28.464L50.2609 28.512V28.56L50.2129 28.656L50.1169 28.8L50.0209 29.184C50.0209 29.28 50.0689 29.424 50.1169 29.52C50.1649 29.568 50.4529 29.52 50.5009 29.472C50.5969 29.376 50.5969 29.28 50.6449 29.184C50.6449 29.088 50.6449 28.992 50.6929 28.848L50.8849 28.608C50.8369 28.8 50.8369 29.04 50.8369 29.232C50.7889 29.52 50.7889 29.856 50.5969 30.192C50.4049 30.432 50.4049 30.672 50.5489 30.912C50.5969 31.056 50.6449 31.2 50.7409 31.344L50.7889 31.392C50.6929 31.344 50.6449 31.248 50.6449 31.2C50.6449 31.152 50.4049 31.152 50.4049 31.2C50.3089 31.344 50.4529 31.488 50.6449 31.584C50.7889 31.728 50.8369 31.872 50.8849 32.016L50.5969 32.112C50.5009 32.16 50.5969 32.256 50.6449 32.304C50.7409 32.4 50.8369 32.544 50.8369 32.64C50.7889 32.688 50.8369 32.688 50.8849 32.688L50.7409 33.12C50.6929 33.168 50.6449 33.168 50.6449 33.216C50.5009 33.312 50.5489 33.504 50.5489 33.648C50.5009 33.792 50.5489 33.936 50.5969 34.128C50.5969 34.224 50.6449 34.272 50.5489 34.368C50.5009 34.416 50.4529 34.464 50.5009 34.512C50.5009 34.56 50.6929 34.608 50.7889 34.656C50.7889 34.656 50.7889 34.704 50.8369 34.704C50.8369 34.848 50.9809 34.992 51.0769 35.136H51.1249L50.9329 34.752C50.9809 34.752 51.1249 34.752 51.1249 34.704C51.2689 34.656 51.2689 34.56 51.1249 34.512C50.9329 34.416 51.2209 34.272 51.1729 34.128C51.1249 33.984 51.0769 33.792 51.0769 33.648C51.0769 33.456 51.2209 33.312 51.0289 33.168V33.12L51.0769 33.072C51.2209 32.88 51.2209 32.592 51.2689 32.4C51.3169 32.208 51.4129 31.872 51.2689 31.728C51.2209 31.68 51.1729 31.632 51.1249 31.632C51.1249 31.584 51.1729 31.584 51.1729 31.584C51.1249 31.488 51.2209 31.392 51.2209 31.296C51.2209 31.152 51.2209 31.008 51.1729 30.864C51.1249 30.72 51.0769 30.624 51.0769 30.48C51.0769 30.336 51.1729 30.192 51.2209 30.048C51.3649 29.808 51.3169 29.52 51.3169 29.28C51.3649 29.088 51.3649 28.944 51.3649 28.8V28.56C51.3649 28.512 51.3169 28.416 51.3169 28.32C51.3169 28.272 51.0769 28.272 50.9809 28.272C51.0289 28.272 51.0289 28.224 50.9809 28.224C51.0289 28.08 51.0289 27.936 51.0289 27.792C51.0289 27.696 50.8369 27.504 50.9809 27.456V27.408C50.9809 27.36 51.0289 27.312 51.0769 27.264C51.2209 27.12 51.3649 26.928 51.3649 26.736ZM50.4529 21.552C50.4049 21.744 50.3569 21.936 50.4049 22.128C50.4049 22.32 50.5969 22.464 50.7889 22.608V22.656C50.7409 23.04 50.5969 23.376 50.5969 23.712C50.5969 23.904 50.6449 24.096 50.6929 24.288C50.7409 24.432 50.6929 24.624 50.7889 24.816H50.9329L51.0769 24.432C51.0769 24.576 51.1249 24.72 51.2209 24.816C51.2689 24.864 51.5569 24.864 51.6049 24.816C51.6529 24.624 51.6529 24.48 51.6529 24.288L51.7489 23.664C51.7489 23.328 51.7969 22.992 51.6049 22.704C51.5569 22.608 51.5089 22.512 51.3649 22.416C51.4129 22.368 51.4129 22.32 51.4129 22.224C51.5089 21.84 51.5569 21.456 51.7969 21.072C51.8929 20.976 51.9889 20.784 51.8449 20.688C51.7009 20.64 51.4129 20.64 51.2209 20.64C51.2209 20.64 51.2689 20.592 51.2689 20.544C51.3169 20.496 51.3649 20.4 51.3649 20.304C51.4129 20.208 51.4129 20.064 51.3649 19.968C51.3169 19.824 51.2689 19.728 51.2689 19.584C51.2209 19.584 51.0289 19.536 51.0289 19.584C50.9329 19.68 50.8849 19.776 50.8369 19.872C50.8369 19.968 50.7889 20.112 50.7889 20.208C50.8369 20.304 50.7409 20.448 50.7409 20.544C50.6929 20.64 50.7889 20.736 50.8849 20.832C50.5969 21.024 50.5489 21.36 50.4529 21.552ZM51.9409 25.68C51.9889 25.632 51.9409 25.536 51.8929 25.44L51.7969 25.056C51.7489 25.008 51.5569 25.008 51.5569 25.056L51.4609 25.344C51.4609 25.488 51.5569 25.632 51.4609 25.776C51.3169 25.968 51.2209 26.064 51.5569 26.304C51.6049 26.304 51.7489 26.304 51.7009 26.256C51.5569 26.16 51.5569 26.064 51.7009 25.92C51.7489 25.92 51.7969 25.872 51.8449 25.824C51.8449 25.776 51.8929 25.728 51.9409 25.68ZM51.2689 35.856C51.3169 35.76 51.2209 35.616 51.1729 35.472C51.1249 35.424 50.9329 35.424 50.9329 35.472L51.1249 35.904C51.1249 35.904 51.2689 35.904 51.2689 35.856ZM51.5089 27.408C51.5089 27.456 51.6529 27.456 51.6529 27.456C51.6049 27.216 51.6529 27.024 51.6529 26.832H51.5569C51.5569 27.024 51.5089 27.216 51.5089 27.408ZM50.9809 19.44C50.9809 19.44 50.9329 19.488 50.9809 19.488H51.0289C51.0769 19.536 51.0769 19.536 51.0769 19.488C51.0289 19.488 51.0289 19.488 50.9809 19.44ZM93.4744 2.73601C95.7304 6.00001 91.7944 6.00001 89.7784 6.04801C87.2824 6.14401 86.1304 5.80801 85.8904 8.35201C85.6024 11.184 85.8424 14.208 85.8904 17.04C85.9384 22.704 86.3704 28.32 86.5144 33.984C86.5624 36.096 87.9064 40.416 85.8424 41.424C84.3544 42.144 81.9544 41.04 81.3784 39.504C80.7064 37.824 81.6664 34.32 81.5704 32.448C81.4744 30.096 81.5224 27.744 81.5224 25.344C81.4744 22.272 81.5704 19.248 81.4744 16.176C81.4264 13.68 81.9544 10.464 81.3304 8.06401C81.4264 8.68801 80.8504 7.68001 81.1864 7.77601C79.0264 6.62401 75.3784 9.21601 73.2184 7.29601C72.2104 6.43201 72.1624 4.36801 72.8824 3.40801C74.0824 1.68001 76.8184 3.74401 78.7384 3.55201C79.9384 3.40801 81.0424 3.02401 82.0984 2.59201C84.1624 1.72801 84.5464 2.16001 86.6584 2.01601C88.8664 1.87201 91.6984 0.144008 93.4744 2.73601ZM84.2104 28.368C84.2104 28.176 84.3544 27.84 84.1624 27.648L84.0664 27.552C84.0664 27.456 84.1144 27.312 84.1624 27.216C84.1624 27.072 84.1624 26.928 84.0664 26.784C84.0184 26.688 83.9704 26.544 83.9704 26.4C83.9704 26.256 84.0664 26.112 84.1624 25.968C84.2584 25.68 84.2104 25.392 84.2104 25.152C84.2584 24.816 84.2584 24.48 84.1144 24.192C84.0664 24.096 83.8744 24.096 83.7784 24.144C83.8264 24.096 83.8264 24.096 83.7784 24.096C83.7784 23.952 83.7784 23.808 83.7304 23.664C83.7304 23.568 83.5384 23.376 83.6344 23.28C83.6344 23.232 83.6824 23.184 83.7304 23.136C83.8264 22.896 83.9224 22.752 83.9224 22.56C83.9224 22.368 83.8744 22.128 83.6824 21.984H83.4904C83.2984 21.84 83.6344 21.552 83.6824 21.408C83.8264 21.12 83.8264 20.832 83.4904 20.64C83.3944 20.592 83.0584 20.592 83.0584 20.688C82.9624 20.832 83.1064 20.976 83.1544 21.12C83.1544 21.264 83.1544 21.408 83.1064 21.552C83.1064 21.648 83.0584 21.888 83.2984 21.984C83.2024 21.984 83.1544 22.032 83.1544 22.032C83.0584 22.272 83.2504 22.512 83.2504 22.752C83.2024 22.992 82.9624 23.28 82.9624 23.568C82.9144 23.712 83.1064 23.856 83.2024 24C83.2024 24.048 83.2504 24.048 83.2504 24.048V24.096C83.1544 24.528 82.7224 25.008 83.0584 25.44C83.0584 25.488 83.3464 25.44 83.3944 25.392C83.5384 25.2 83.4904 25.008 83.5864 24.768L83.7304 24.48V25.104C83.6824 25.44 83.7304 25.776 83.4904 26.112C83.3464 26.352 83.3464 26.592 83.4424 26.832L83.5864 27.12C83.5384 27.072 83.3464 27.12 83.2984 27.168C83.2504 27.312 83.3944 27.408 83.5384 27.552C83.7304 27.648 83.7784 27.84 83.7784 27.984C83.6824 27.984 83.5864 28.032 83.5384 28.08C83.4424 28.128 83.5384 28.224 83.5864 28.272C83.6344 28.368 83.7784 28.512 83.7304 28.608C83.7304 28.656 83.7784 28.656 83.7784 28.656C83.7784 28.8 83.7304 28.992 83.6824 29.136C83.6344 29.136 83.5864 29.184 83.5384 29.184C83.4424 29.328 83.4904 29.472 83.4424 29.616C83.3944 29.808 83.4904 29.952 83.4904 30.144C83.4904 30.24 83.5384 30.288 83.4424 30.384C83.3944 30.432 83.3944 30.48 83.3944 30.528C83.3944 30.624 83.5864 30.624 83.7304 30.672V30.768C83.7304 30.912 83.8744 31.056 83.9704 31.2H84.0184L83.8264 30.768C83.8744 30.816 84.0184 30.768 84.0664 30.768C84.1624 30.672 84.1624 30.624 84.0664 30.528C83.8744 30.432 84.1144 30.288 84.0664 30.144C84.0184 30 83.9704 29.808 84.0184 29.616C84.0184 29.472 84.1624 29.28 83.9704 29.136H83.9224C83.9704 29.136 83.9704 29.088 83.9704 29.088C84.1144 28.848 84.1624 28.608 84.2104 28.368ZM84.2584 16.656C84.3544 16.56 84.4504 16.368 84.3064 16.272C84.1624 16.176 83.8744 16.224 83.6824 16.272C83.6824 16.224 83.6824 16.176 83.7304 16.176C83.7304 16.032 83.7784 15.936 83.8264 15.84C83.8264 15.6 83.6824 15.36 83.5864 15.12H83.2984C83.2504 15.36 83.2024 15.6 83.2024 15.84C83.2504 15.936 83.2024 16.032 83.2024 16.176C83.1544 16.272 83.2504 16.368 83.3464 16.464C83.0584 16.656 83.0104 16.992 82.9624 17.184C82.8664 17.376 82.8664 17.568 82.8664 17.76C82.8664 17.952 83.0584 18.096 83.2504 18.288V18.336C83.1544 18.72 83.0104 19.056 83.0104 19.44C83.0104 19.632 83.0584 19.824 83.0584 19.968C83.1064 20.16 83.1064 20.352 83.2024 20.544C83.2024 20.592 83.2984 20.592 83.3464 20.544L83.4424 20.208C83.4424 20.352 83.4904 20.496 83.5864 20.592C83.6344 20.64 83.9224 20.64 83.9704 20.544L84.0664 20.064C84.0664 19.824 84.1144 19.632 84.1624 19.44C84.2104 19.104 84.2104 18.72 84.0664 18.432C84.0184 18.288 83.9224 18.192 83.8264 18.144C83.8744 18.048 83.8744 18 83.8744 17.904C83.9704 17.52 84.0184 17.088 84.2584 16.656ZM84.3544 21.456C84.3544 21.36 84.3544 21.264 84.3064 21.216C84.2104 21.072 84.2104 20.928 84.1624 20.784C84.1624 20.784 83.9224 20.784 83.9224 20.832C83.8744 20.928 83.8744 21.024 83.8744 21.12C83.8744 21.264 83.9704 21.408 83.8744 21.552C83.7304 21.744 83.6344 21.888 84.0184 22.032C84.0664 22.08 84.2104 22.032 84.1624 22.032C84.0184 21.936 83.9704 21.792 84.1144 21.696L84.3544 21.456ZM84.1624 31.968C84.2104 31.824 84.1144 31.68 84.0664 31.536C84.0184 31.488 83.8264 31.488 83.8264 31.536C83.8744 31.68 83.9224 31.824 84.0184 31.968C84.0184 32.016 84.1624 31.968 84.1624 31.968ZM84.1624 23.184C84.1624 23.232 84.3064 23.184 84.3064 23.184L84.1624 22.56C84.1624 22.56 84.1144 22.56 84.1144 22.608C84.1144 22.8 84.1144 22.992 84.1624 23.184ZM83.5864 27.12C83.5864 27.168 83.6344 27.216 83.6824 27.264V27.36C83.6344 27.264 83.5864 27.216 83.5864 27.12ZM83.2504 15.024V15.072H83.3464C83.3464 15.072 83.2984 15.024 83.2504 15.024ZM113.357 40.992V41.136C112.109 42.096 110.477 42.72 109.373 41.904C108.941 41.616 108.509 39.744 108.509 38.592C108.557 37.2 108.269 35.952 107.933 34.656C106.781 35.28 105.629 35.52 104.477 36.096C102.605 37.008 103.469 35.712 103.085 37.872C102.845 39.36 103.229 40.848 102.413 41.952C101.261 43.488 99.5813 43.008 98.6213 41.808C97.3733 40.32 97.6613 38.16 97.7573 36.336C98.0933 30.816 99.8213 25.344 100.973 19.92C101.837 15.648 102.701 11.376 103.997 7.24801C104.573 5.47201 104.861 4.32001 106.877 3.79201C108.557 3.36001 110.429 3.74401 110.957 5.52001C111.053 5.85601 110.285 8.20801 110.237 8.59201C110.189 9.69601 110.381 10.848 110.477 11.952C110.621 14.352 110.525 16.8 110.669 19.2C110.861 22.656 110.621 24.288 111.101 27.696C111.389 29.664 111.965 32.976 112.061 34.992C112.205 37.056 113.261 39.072 113.357 40.992ZM104.045 31.104C108.413 31.104 107.837 28.8 107.693 25.104C107.597 21.744 108.077 17.568 106.877 14.4C105.821 15.12 105.581 20.592 105.293 21.936C104.717 24.96 104.237 28.032 104.045 31.104ZM102.749 26.976C102.797 26.88 102.941 26.736 102.749 26.64C102.653 26.592 102.317 26.592 102.173 26.64V26.592C102.221 26.496 102.269 26.4 102.269 26.352C102.269 26.256 102.221 26.16 102.173 26.064C102.125 25.968 102.029 25.872 101.933 25.824C101.933 25.776 101.741 25.824 101.741 25.872C101.645 26.064 101.645 26.208 101.693 26.352C101.693 26.448 101.645 26.544 101.645 26.592C101.645 26.688 101.741 26.736 101.789 26.784C101.501 26.976 101.453 27.168 101.357 27.312C101.261 27.408 101.213 27.552 101.213 27.696C101.213 27.84 101.405 27.936 101.549 28.08V28.128C101.405 28.368 101.213 28.608 101.165 28.848C101.117 28.992 101.165 29.136 101.165 29.232C101.165 29.376 101.117 29.52 101.165 29.664C101.165 29.664 101.165 29.712 101.213 29.712H101.021C100.925 29.808 101.069 29.952 101.069 30.048L100.973 30.336C100.925 30.384 100.829 30.576 101.069 30.672H100.925C100.781 30.816 100.925 31.008 100.877 31.152C100.829 31.344 100.541 31.488 100.445 31.68C100.397 31.776 100.589 31.92 100.637 32.016C100.637 32.064 100.637 32.064 100.685 32.064L100.637 32.112C100.493 32.4 99.9653 32.64 100.205 32.976C100.253 33.024 100.541 33.072 100.589 33.024C100.781 32.928 100.733 32.784 100.877 32.64L101.069 32.448L100.925 32.88C100.829 33.12 100.829 33.36 100.541 33.504C100.301 33.648 100.253 33.84 100.349 34.032L100.493 34.368V34.416C100.445 34.368 100.397 34.272 100.397 34.224C100.397 34.224 100.205 34.176 100.157 34.176C100.061 34.272 100.157 34.416 100.301 34.512C100.445 34.656 100.493 34.752 100.445 34.896C100.349 34.848 100.253 34.848 100.205 34.896C100.109 34.896 100.157 34.992 100.205 34.992C100.253 35.088 100.349 35.232 100.253 35.28C100.253 35.328 100.301 35.328 100.301 35.328C100.253 35.424 100.205 35.52 100.109 35.616H99.9653C99.8213 35.712 99.8693 35.808 99.7733 35.904C99.7253 36 99.7253 36.144 99.7253 36.24C99.7253 36.336 99.7253 36.384 99.6293 36.432C99.5813 36.432 99.5333 36.48 99.5333 36.48C99.5333 36.576 99.7253 36.624 99.8213 36.672V36.72C99.8213 36.864 99.9173 36.96 99.9653 37.104H100.013C100.013 37.008 99.9173 36.864 99.9173 36.768C99.9653 36.816 100.109 36.816 100.157 36.816C100.253 36.768 100.301 36.768 100.205 36.672C100.013 36.528 100.301 36.528 100.301 36.432C100.301 36.288 100.301 36.144 100.349 36.048C100.349 35.952 100.541 35.856 100.397 35.712H100.349L100.445 35.664C100.589 35.52 100.685 35.376 100.781 35.232C100.829 35.088 101.021 34.896 100.877 34.752C100.877 34.704 100.829 34.656 100.781 34.656C100.829 34.656 100.829 34.656 100.829 34.608C100.829 34.56 100.925 34.512 100.925 34.416C100.973 34.32 101.021 34.224 100.973 34.128C100.973 34.032 100.925 33.936 100.973 33.84C100.973 33.744 101.117 33.648 101.213 33.552C101.357 33.408 101.357 33.216 101.405 33.024C101.501 32.784 101.549 32.544 101.501 32.304C101.501 32.256 101.261 32.256 101.165 32.256C101.213 32.208 101.213 32.208 101.165 32.208C101.213 32.112 101.213 31.968 101.213 31.872C101.213 31.824 101.069 31.68 101.165 31.632L101.261 31.536C101.405 31.392 101.549 31.296 101.597 31.152C101.597 31.008 101.597 30.864 101.453 30.72C101.405 30.72 101.357 30.72 101.261 30.672C101.069 30.576 101.453 30.384 101.549 30.336C101.741 30.144 101.741 29.952 101.453 29.76C101.405 29.76 101.357 29.712 101.261 29.712L101.309 29.664L101.453 29.472C101.453 29.568 101.501 29.712 101.597 29.76C101.645 29.808 101.885 29.808 101.933 29.76C102.029 29.664 102.077 29.568 102.125 29.424L102.269 28.992C102.365 28.752 102.461 28.512 102.365 28.272C102.317 28.272 102.317 28.224 102.317 28.224V28.176H102.269L102.173 28.032C102.173 27.984 102.221 27.936 102.221 27.888C102.365 27.6 102.461 27.312 102.749 26.976ZM102.173 30.432C102.221 30.384 102.221 30.336 102.173 30.288C102.125 30.192 102.125 30.096 102.125 30C102.077 29.952 101.885 29.904 101.885 29.952C101.837 30 101.789 30.096 101.789 30.144C101.741 30.24 101.837 30.384 101.693 30.432C101.549 30.576 101.453 30.672 101.789 30.816C101.789 30.864 101.981 30.864 101.933 30.816C101.789 30.72 101.741 30.672 101.933 30.576C102.029 30.528 102.125 30.528 102.173 30.432ZM100.013 37.68C100.061 37.584 100.013 37.44 99.9653 37.344C99.9653 37.296 99.7733 37.248 99.7733 37.296C99.7733 37.392 99.8213 37.536 99.8213 37.632C99.8693 37.632 100.013 37.68 100.013 37.68ZM101.741 31.68H101.837V31.248C101.837 31.2 101.789 31.2 101.741 31.2C101.741 31.344 101.693 31.488 101.741 31.68ZM101.645 25.824H101.741C101.741 25.824 101.741 25.776 101.645 25.824ZM136.751 27.984C137.279 30.576 134.783 34.608 134.495 37.296C134.207 40.128 133.919 40.368 131.375 41.52C128.735 42.672 125.759 43.728 123.071 41.856C119.231 39.216 120.911 31.968 120.431 27.888C119.663 21.888 119.663 13.728 121.535 7.92001C123.551 1.72801 130.415 6.67572e-06 135.311 4.12801C135.311 4.12801 135.359 4.17601 135.407 4.17601C135.503 7.20001 138.191 19.008 133.487 18.72C129.599 18.48 130.559 15.792 130.703 13.296C130.799 11.52 131.087 5.90401 128.399 6.19201C124.175 6.62401 125.951 17.616 125.711 20.496C125.519 23.568 125.135 26.064 125.567 29.136C125.903 31.824 125.039 35.136 127.007 37.296C131.279 41.904 131.903 30.432 132.431 28.32C132.719 27.168 132.671 26.448 133.775 26.112C135.023 25.68 136.511 26.928 136.751 27.984ZM123.215 29.76C123.263 29.52 123.311 29.232 123.167 28.992C123.167 28.944 122.975 28.944 122.831 28.992V28.944C122.879 28.944 122.927 28.944 122.831 28.896C122.879 28.8 122.879 28.704 122.831 28.608C122.831 28.512 122.639 28.368 122.735 28.32C122.783 28.272 122.831 28.224 122.831 28.176C122.975 28.032 123.071 27.888 123.071 27.744C123.119 27.648 123.071 27.456 122.879 27.36C122.879 27.312 122.783 27.312 122.687 27.312C122.495 27.216 122.879 26.976 122.927 26.88C123.119 26.688 123.119 26.448 122.783 26.304C122.735 26.256 122.399 26.256 122.351 26.304C122.255 26.448 122.399 26.544 122.399 26.64C122.399 26.736 122.399 26.88 122.351 26.976C122.351 27.072 122.255 27.216 122.495 27.312C122.447 27.312 122.399 27.312 122.351 27.36C122.255 27.504 122.447 27.696 122.399 27.888C122.351 28.08 122.111 28.272 122.063 28.512C122.015 28.608 122.207 28.752 122.303 28.848V28.896C122.207 29.232 121.727 29.568 122.015 29.904C122.063 29.952 122.351 29.952 122.399 29.904C122.543 29.76 122.495 29.616 122.591 29.424L122.783 29.232C122.735 29.376 122.735 29.568 122.735 29.712C122.687 29.952 122.687 30.192 122.447 30.432C122.255 30.624 122.255 30.816 122.351 31.008C122.447 31.104 122.495 31.248 122.543 31.344L122.591 31.392C122.495 31.344 122.447 31.296 122.447 31.248C122.447 31.2 122.207 31.2 122.207 31.248C122.111 31.344 122.255 31.44 122.399 31.536C122.591 31.632 122.639 31.776 122.639 31.92C122.543 31.92 122.447 31.92 122.399 31.968C122.255 32.016 122.351 32.064 122.399 32.112C122.495 32.16 122.591 32.304 122.543 32.4H122.591L122.447 32.784H122.351C122.207 32.928 122.255 33.024 122.207 33.12C122.159 33.264 122.207 33.408 122.255 33.504C122.255 33.6 122.255 33.648 122.207 33.696C122.159 33.744 122.111 33.792 122.111 33.84C122.159 33.888 122.351 33.936 122.447 33.936V33.984C122.447 34.128 122.591 34.224 122.687 34.368C122.687 34.368 122.735 34.368 122.735 34.32L122.543 34.032H122.783C122.879 33.936 122.879 33.888 122.783 33.84C122.591 33.744 122.831 33.648 122.831 33.552C122.783 33.408 122.735 33.264 122.783 33.168C122.783 33.024 122.927 32.88 122.735 32.784L122.783 32.736C122.927 32.544 122.975 32.352 123.023 32.208C123.071 32.016 123.215 31.824 123.023 31.632C122.975 31.632 122.975 31.584 122.927 31.584V31.536C122.927 31.488 123.023 31.392 123.023 31.296C123.023 31.2 123.071 31.104 122.975 31.008C122.927 30.912 122.927 30.816 122.927 30.72C122.927 30.576 123.023 30.48 123.119 30.336C123.215 30.144 123.215 29.952 123.215 29.76ZM123.791 23.28C123.887 23.232 123.983 23.088 123.839 22.992C123.695 22.944 123.407 22.944 123.215 22.992C123.215 22.944 123.215 22.944 123.263 22.896L123.359 22.656C123.359 22.512 123.215 22.272 123.119 22.128C123.119 22.08 122.879 22.08 122.879 22.128C122.783 22.272 122.735 22.464 122.783 22.656C122.783 22.704 122.735 22.8 122.687 22.896C122.687 22.992 122.783 23.04 122.831 23.136C122.591 23.28 122.543 23.52 122.447 23.664C122.351 23.808 122.303 23.952 122.351 24.096C122.351 24.24 122.543 24.384 122.687 24.48V24.528C122.591 24.816 122.399 25.104 122.351 25.344C122.351 25.488 122.399 25.632 122.399 25.776C122.447 25.92 122.399 26.064 122.495 26.208C122.495 26.256 122.639 26.256 122.639 26.208L122.783 25.968C122.783 26.064 122.831 26.16 122.927 26.256C122.975 26.304 123.215 26.304 123.263 26.256C123.359 26.112 123.359 26.016 123.407 25.872C123.407 25.728 123.455 25.536 123.503 25.392C123.599 25.152 123.647 24.864 123.503 24.624L123.311 24.384C123.311 24.336 123.311 24.288 123.359 24.24C123.455 23.952 123.503 23.616 123.791 23.28ZM123.599 26.928C123.647 26.88 123.599 26.832 123.551 26.736L123.455 26.448C123.455 26.4 123.215 26.4 123.215 26.448L123.119 26.688C123.119 26.784 123.215 26.88 123.119 26.976C122.975 27.168 122.879 27.264 123.263 27.408C123.263 27.408 123.407 27.408 123.407 27.36C123.263 27.264 123.215 27.216 123.359 27.12C123.455 27.072 123.551 27.024 123.599 26.928ZM122.879 34.896C122.879 34.8 122.831 34.704 122.783 34.608C122.735 34.56 122.543 34.56 122.543 34.608C122.543 34.704 122.639 34.848 122.687 34.944C122.735 34.944 122.879 34.944 122.879 34.896ZM123.311 28.272H123.407C123.407 28.128 123.359 27.936 123.359 27.792H123.263C123.263 27.936 123.263 28.128 123.311 28.272ZM162.041 2.73601C164.297 6.00001 160.361 6.00001 158.345 6.04801C155.849 6.14401 154.697 5.80801 154.457 8.35201C154.169 11.184 154.409 14.208 154.457 17.04C154.505 22.704 154.937 28.32 155.081 33.984C155.129 36.096 156.473 40.416 154.409 41.424C152.921 42.144 150.521 41.04 149.945 39.504C149.273 37.824 150.233 34.32 150.137 32.448C150.041 30.096 150.089 27.744 150.089 25.344C150.041 22.272 150.137 19.248 150.041 16.176C149.993 13.68 150.521 10.464 149.897 8.06401C149.993 8.68801 149.417 7.68001 149.753 7.77601C147.593 6.62401 143.945 9.21601 141.785 7.29601C140.777 6.43201 140.729 4.36801 141.449 3.40801C142.649 1.68001 145.385 3.74401 147.305 3.55201C148.505 3.40801 149.609 3.02401 150.665 2.59201C152.729 1.72801 153.113 2.16001 155.225 2.01601C157.433 1.87201 160.265 0.144008 162.041 2.73601ZM152.777 28.368C152.777 28.176 152.921 27.84 152.729 27.648L152.633 27.552C152.633 27.456 152.681 27.312 152.729 27.216C152.729 27.072 152.729 26.928 152.633 26.784C152.585 26.688 152.537 26.544 152.537 26.4C152.537 26.256 152.633 26.112 152.729 25.968C152.825 25.68 152.777 25.392 152.777 25.152C152.825 24.816 152.825 24.48 152.681 24.192C152.633 24.096 152.441 24.096 152.345 24.144C152.393 24.096 152.393 24.096 152.345 24.096C152.345 23.952 152.345 23.808 152.297 23.664C152.297 23.568 152.105 23.376 152.201 23.28C152.201 23.232 152.249 23.184 152.297 23.136C152.393 22.896 152.489 22.752 152.489 22.56C152.489 22.368 152.441 22.128 152.249 21.984H152.057C151.865 21.84 152.201 21.552 152.249 21.408C152.393 21.12 152.393 20.832 152.057 20.64C151.961 20.592 151.625 20.592 151.625 20.688C151.529 20.832 151.673 20.976 151.721 21.12C151.721 21.264 151.721 21.408 151.673 21.552C151.673 21.648 151.625 21.888 151.865 21.984C151.769 21.984 151.721 22.032 151.721 22.032C151.625 22.272 151.817 22.512 151.817 22.752C151.769 22.992 151.529 23.28 151.529 23.568C151.481 23.712 151.673 23.856 151.769 24C151.769 24.048 151.817 24.048 151.817 24.048V24.096C151.721 24.528 151.289 25.008 151.625 25.44C151.625 25.488 151.913 25.44 151.961 25.392C152.105 25.2 152.057 25.008 152.153 24.768L152.297 24.48V25.104C152.249 25.44 152.297 25.776 152.057 26.112C151.913 26.352 151.913 26.592 152.009 26.832L152.153 27.12C152.105 27.072 151.913 27.12 151.865 27.168C151.817 27.312 151.961 27.408 152.105 27.552C152.297 27.648 152.345 27.84 152.345 27.984C152.249 27.984 152.153 28.032 152.105 28.08C152.009 28.128 152.105 28.224 152.153 28.272C152.201 28.368 152.345 28.512 152.297 28.608C152.297 28.656 152.345 28.656 152.345 28.656C152.345 28.8 152.297 28.992 152.249 29.136C152.201 29.136 152.153 29.184 152.105 29.184C152.009 29.328 152.057 29.472 152.009 29.616C151.961 29.808 152.057 29.952 152.057 30.144C152.057 30.24 152.105 30.288 152.009 30.384C151.961 30.432 151.961 30.48 151.961 30.528C151.961 30.624 152.153 30.624 152.297 30.672V30.768C152.297 30.912 152.441 31.056 152.537 31.2H152.585L152.393 30.768C152.441 30.816 152.585 30.768 152.633 30.768C152.729 30.672 152.729 30.624 152.633 30.528C152.441 30.432 152.681 30.288 152.633 30.144C152.585 30 152.537 29.808 152.585 29.616C152.585 29.472 152.729 29.28 152.537 29.136H152.489C152.537 29.136 152.537 29.088 152.537 29.088C152.681 28.848 152.729 28.608 152.777 28.368ZM152.825 16.656C152.921 16.56 153.017 16.368 152.873 16.272C152.729 16.176 152.441 16.224 152.249 16.272C152.249 16.224 152.249 16.176 152.297 16.176C152.297 16.032 152.345 15.936 152.393 15.84C152.393 15.6 152.249 15.36 152.153 15.12H151.865C151.817 15.36 151.769 15.6 151.769 15.84C151.817 15.936 151.769 16.032 151.769 16.176C151.721 16.272 151.817 16.368 151.913 16.464C151.625 16.656 151.577 16.992 151.529 17.184C151.433 17.376 151.433 17.568 151.433 17.76C151.433 17.952 151.625 18.096 151.817 18.288V18.336C151.721 18.72 151.577 19.056 151.577 19.44C151.577 19.632 151.625 19.824 151.625 19.968C151.673 20.16 151.673 20.352 151.769 20.544C151.769 20.592 151.865 20.592 151.913 20.544L152.009 20.208C152.009 20.352 152.057 20.496 152.153 20.592C152.201 20.64 152.489 20.64 152.537 20.544L152.633 20.064C152.633 19.824 152.681 19.632 152.729 19.44C152.777 19.104 152.777 18.72 152.633 18.432C152.585 18.288 152.489 18.192 152.393 18.144C152.441 18.048 152.441 18 152.441 17.904C152.537 17.52 152.585 17.088 152.825 16.656ZM152.921 21.456C152.921 21.36 152.921 21.264 152.873 21.216C152.777 21.072 152.777 20.928 152.729 20.784C152.729 20.784 152.489 20.784 152.489 20.832C152.441 20.928 152.441 21.024 152.441 21.12C152.441 21.264 152.537 21.408 152.441 21.552C152.297 21.744 152.201 21.888 152.585 22.032C152.633 22.08 152.777 22.032 152.729 22.032C152.585 21.936 152.537 21.792 152.681 21.696L152.921 21.456ZM152.729 31.968C152.777 31.824 152.681 31.68 152.633 31.536C152.585 31.488 152.393 31.488 152.393 31.536C152.441 31.68 152.489 31.824 152.585 31.968C152.585 32.016 152.729 31.968 152.729 31.968ZM152.729 23.184C152.729 23.232 152.873 23.184 152.873 23.184L152.729 22.56C152.729 22.56 152.681 22.56 152.681 22.608C152.681 22.8 152.681 22.992 152.729 23.184ZM152.153 27.12C152.153 27.168 152.201 27.216 152.249 27.264V27.36C152.201 27.264 152.153 27.216 152.153 27.12ZM151.817 15.024V15.072H151.913C151.913 15.072 151.865 15.024 151.817 15.024Z" fill="#082A45"/>
</svg>
