<svg width="71" height="44" viewBox="0 0 71 44" fill="none" xmlns="http://www.w3.org/2000/svg">
<path d="M9.98409 20.832C11.3761 20.736 14.8321 20.832 13.5841 23.28C12.6241 25.152 8.16009 24.432 6.86409 25.44C5.42409 26.544 6.09609 30.912 6.14409 32.688C6.24009 34.272 7.44009 39.552 6.72009 41.184C6.76809 41.184 6.72009 41.28 6.52809 41.472C4.22409 41.472 1.87209 42.192 0.960086 39.264C0.384086 37.344 1.20009 34.32 1.20009 32.208C1.10409 26.496 1.20009 20.832 0.960086 15.12C0.864086 12.72 0.864086 10.032 0.480086 7.67997C0.144086 5.42397 8.55625e-05 4.55997 2.35209 3.40796C4.27209 2.49596 5.90409 3.50397 8.06409 3.35996C9.84009 3.21597 13.0081 2.87996 13.9201 5.03997C14.8801 7.15196 12.7201 8.49596 10.8481 8.15997C9.74409 8.01596 9.40809 7.34396 8.11209 7.34396C5.56809 7.29597 5.76009 8.25596 5.90409 10.416C6.00009 12.384 6.28809 14.304 6.28809 16.32C6.28809 17.088 5.80809 20.16 6.33609 20.736C7.24809 21.696 8.64009 20.88 9.98409 20.832ZM3.74409 18.816C3.74409 18.576 3.74409 18.288 3.64809 18.048H3.31209C3.36009 18.048 3.36009 18 3.31209 18C3.31209 17.904 3.31209 17.76 3.26409 17.664C3.26409 17.616 3.07209 17.472 3.16809 17.424L3.26409 17.28C3.36009 17.136 3.50409 16.992 3.50409 16.848C3.50409 16.704 3.45609 16.512 3.26409 16.416H3.07209C2.88009 16.32 3.21609 16.08 3.31209 15.984C3.45609 15.744 3.40809 15.552 3.07209 15.408C3.02409 15.36 2.68809 15.36 2.64009 15.456C2.59209 15.552 2.73609 15.648 2.73609 15.792V16.08C2.68809 16.176 2.64009 16.368 2.88009 16.416C2.78409 16.416 2.73609 16.464 2.73609 16.464C2.64009 16.656 2.83209 16.848 2.78409 16.992C2.78409 17.184 2.54409 17.424 2.49609 17.616C2.49609 17.76 2.64009 17.856 2.73609 17.952L2.78409 18C2.68809 18.384 2.25609 18.72 2.54409 19.056C2.59209 19.056 2.83209 19.056 2.88009 19.008C3.07209 18.864 2.97609 18.72 3.07209 18.528L3.21609 18.384V18.816C3.16809 19.056 3.21609 19.296 2.97609 19.536C2.78409 19.728 2.78409 19.92 2.92809 20.112C2.92809 20.208 2.97609 20.256 3.02409 20.304C3.02409 20.304 2.78409 20.304 2.73609 20.352C2.64009 20.448 2.83209 20.544 2.97609 20.64C3.12009 20.736 3.16809 20.88 3.21609 20.976C3.12009 20.976 2.97609 21.024 2.92809 21.024C2.83209 21.072 2.92809 21.12 2.97609 21.168C3.02409 21.264 3.16809 21.36 3.12009 21.456L3.16809 21.504L3.02409 21.84C2.97609 21.84 2.92809 21.84 2.92809 21.888C2.78409 21.984 2.83209 22.128 2.78409 22.224C2.73609 22.32 2.78409 22.464 2.83209 22.608C2.83209 22.656 2.83209 22.704 2.73609 22.8C2.68809 22.8 2.68809 22.848 2.68809 22.896C2.73609 22.944 2.92809 22.992 3.02409 23.04V23.088C3.02409 23.184 3.16809 23.28 3.26409 23.424H3.31209C3.26409 23.28 3.16809 23.184 3.12009 23.088H3.36009C3.45609 23.04 3.45609 22.944 3.36009 22.896C3.16809 22.8 3.40809 22.704 3.40809 22.608C3.36009 22.464 3.31209 22.368 3.36009 22.224C3.36009 22.08 3.50409 21.984 3.31209 21.84L3.36009 21.792C3.50409 21.648 3.55209 21.456 3.60009 21.264C3.60009 21.12 3.74409 20.88 3.60009 20.736L3.45609 20.64H3.50409C3.45609 20.544 3.55209 20.496 3.55209 20.4C3.60009 20.256 3.60009 20.16 3.55209 20.064C3.50409 19.968 3.45609 19.872 3.45609 19.776C3.45609 19.68 3.55209 19.536 3.60009 19.44C3.74409 19.248 3.69609 19.008 3.74409 18.816ZM3.84009 12.336C3.93609 12.24 4.03209 12.096 3.84009 12C3.74409 11.952 3.45609 12 3.26409 12.048V11.952C3.31209 11.904 3.36009 11.808 3.36009 11.712C3.36009 11.568 3.21609 11.376 3.07209 11.232C3.07209 11.184 2.88009 11.184 2.83209 11.232C2.78409 11.424 2.73609 11.616 2.78409 11.76C2.78409 11.856 2.73609 11.952 2.73609 12C2.73609 12.096 2.83209 12.144 2.88009 12.24C2.64009 12.432 2.59209 12.672 2.54409 12.816C2.44809 12.96 2.44809 13.104 2.44809 13.248C2.49609 13.392 2.68809 13.488 2.88009 13.632V13.68C2.78409 13.92 2.59209 14.208 2.59209 14.496C2.59209 14.64 2.64009 14.784 2.68809 14.928C2.73609 15.072 2.68809 15.216 2.78409 15.36C2.78409 15.36 2.92809 15.36 2.92809 15.312C2.97609 15.264 3.02409 15.168 3.02409 15.072C3.07209 15.168 3.12009 15.264 3.21609 15.36C3.26409 15.408 3.55209 15.36 3.55209 15.312C3.64809 15.216 3.64809 15.072 3.64809 14.928L3.74409 14.448C3.79209 14.208 3.84009 13.92 3.69609 13.68C3.64809 13.584 3.55209 13.536 3.45609 13.488C3.45609 13.44 3.50409 13.344 3.50409 13.296C3.60009 13.008 3.60009 12.672 3.84009 12.336ZM3.93609 15.984C3.98409 15.936 3.93609 15.84 3.88809 15.792C3.79209 15.696 3.84009 15.6 3.74409 15.504C3.74409 15.456 3.55209 15.504 3.55209 15.504C3.50409 15.6 3.45609 15.696 3.45609 15.744C3.45609 15.888 3.55209 15.936 3.45609 16.08C3.31209 16.272 3.26409 16.32 3.60009 16.464C3.64809 16.464 3.79209 16.464 3.74409 16.416C3.60009 16.368 3.55209 16.272 3.69609 16.176L3.93609 15.984ZM3.40809 24C3.45609 23.856 3.40809 23.76 3.31209 23.664C3.31209 23.616 3.07209 23.616 3.07209 23.664L3.26409 24H3.40809ZM3.74409 17.328H3.84009L3.74409 16.848H3.69609C3.69609 17.04 3.69609 17.184 3.74409 17.328ZM2.78409 11.136V11.184H2.88009C2.88009 11.184 2.88009 11.136 2.78409 11.136ZM3.07209 20.448C3.02409 20.4 2.97609 20.4 3.02409 20.304C3.02409 20.352 3.02409 20.4 3.07209 20.448ZM3.12009 20.496C3.07209 20.496 3.07209 20.496 3.07209 20.448C3.12009 20.448 3.12009 20.448 3.12009 20.496ZM40.5282 40.848V40.992C39.2802 41.952 37.6482 42.576 36.5442 41.76C36.1122 41.472 35.6802 39.6 35.6802 38.448C35.7282 37.056 35.4402 35.808 35.1042 34.512C33.9522 35.136 32.8002 35.376 31.6482 35.952C29.7762 36.864 30.6402 35.568 30.2562 37.728C30.0162 39.216 30.4002 40.704 29.5842 41.808C28.4322 43.344 26.7522 42.864 25.7922 41.664C24.5442 40.176 24.8322 38.016 24.9282 36.192C25.2642 30.672 26.9922 25.2 28.1442 19.776C29.0082 15.504 29.8722 11.232 31.1682 7.10396C31.7442 5.32796 32.0322 4.17597 34.0482 3.64797C35.7282 3.21597 37.6002 3.59996 38.1282 5.37596C38.2242 5.71197 37.4562 8.06396 37.4082 8.44796C37.3602 9.55196 37.5522 10.704 37.6482 11.808C37.7922 14.208 37.6962 16.656 37.8402 19.056C38.0322 22.512 37.7922 24.144 38.2722 27.552C38.5602 29.52 39.1362 32.832 39.2322 34.848C39.3762 36.912 40.4322 38.928 40.5282 40.848ZM31.2162 30.96C35.5842 30.96 35.0082 28.656 34.8642 24.96C34.7682 21.6 35.2482 17.424 34.0482 14.256C32.9922 14.976 32.7522 20.448 32.4642 21.792C31.8882 24.816 31.4082 27.888 31.2162 30.96ZM29.9202 26.832C29.9682 26.736 30.1122 26.592 29.9202 26.496C29.8242 26.448 29.4882 26.448 29.3442 26.496V26.448C29.3922 26.352 29.4402 26.256 29.4402 26.208C29.4402 26.112 29.3922 26.016 29.3442 25.92C29.2962 25.824 29.2002 25.728 29.1042 25.68C29.1042 25.632 28.9122 25.68 28.9122 25.728C28.8162 25.92 28.8162 26.064 28.8642 26.208C28.8642 26.304 28.8162 26.4 28.8162 26.448C28.8162 26.544 28.9122 26.592 28.9602 26.64C28.6722 26.832 28.6242 27.024 28.5282 27.168C28.4322 27.264 28.3842 27.408 28.3842 27.552C28.3842 27.696 28.5762 27.792 28.7202 27.936V27.984C28.5762 28.224 28.3842 28.464 28.3362 28.704C28.2882 28.848 28.3362 28.992 28.3362 29.088C28.3362 29.232 28.2882 29.376 28.3362 29.52C28.3362 29.52 28.3362 29.568 28.3842 29.568H28.1922C28.0962 29.664 28.2402 29.808 28.2402 29.904L28.1442 30.192C28.0962 30.24 28.0002 30.432 28.2402 30.528H28.0962C27.9522 30.672 28.0962 30.864 28.0482 31.008C28.0002 31.2 27.7122 31.344 27.6162 31.536C27.5682 31.632 27.7602 31.776 27.8082 31.872C27.8082 31.92 27.8082 31.92 27.8562 31.92L27.8082 31.968C27.6642 32.256 27.1362 32.496 27.3762 32.832C27.4242 32.88 27.7122 32.928 27.7602 32.88C27.9522 32.784 27.9042 32.64 28.0482 32.496L28.2402 32.304L28.0962 32.736C28.0002 32.976 28.0002 33.216 27.7122 33.36C27.4722 33.504 27.4242 33.696 27.5202 33.888L27.6642 34.224V34.272C27.6162 34.224 27.5682 34.128 27.5682 34.08C27.5682 34.08 27.3762 34.032 27.3282 34.032C27.2322 34.128 27.3282 34.272 27.4722 34.368C27.6162 34.512 27.6642 34.608 27.6162 34.752C27.5202 34.704 27.4242 34.704 27.3762 34.752C27.2802 34.752 27.3282 34.848 27.3762 34.848C27.4242 34.944 27.5202 35.088 27.4242 35.136C27.4242 35.184 27.4722 35.184 27.4722 35.184C27.4242 35.28 27.3762 35.376 27.2802 35.472H27.1362C26.9922 35.568 27.0402 35.664 26.9442 35.76C26.8962 35.856 26.8962 36 26.8962 36.096C26.8962 36.192 26.8962 36.24 26.8002 36.288C26.7522 36.288 26.7042 36.336 26.7042 36.336C26.7042 36.432 26.8962 36.48 26.9922 36.528V36.576C26.9922 36.72 27.0882 36.816 27.1362 36.96H27.1842C27.1842 36.864 27.0882 36.72 27.0882 36.624C27.1362 36.672 27.2802 36.672 27.3282 36.672C27.4242 36.624 27.4722 36.624 27.3762 36.528C27.1842 36.384 27.4722 36.384 27.4722 36.288C27.4722 36.144 27.4722 36 27.5202 35.904C27.5202 35.808 27.7122 35.712 27.5682 35.568H27.5202L27.6162 35.52C27.7602 35.376 27.8562 35.232 27.9522 35.088C28.0002 34.944 28.1922 34.752 28.0482 34.608C28.0482 34.56 28.0002 34.512 27.9522 34.512C28.0002 34.512 28.0002 34.512 28.0002 34.464C28.0002 34.416 28.0962 34.368 28.0962 34.272C28.1442 34.176 28.1922 34.08 28.1442 33.984C28.1442 33.888 28.0962 33.792 28.1442 33.696C28.1442 33.6 28.2882 33.504 28.3842 33.408C28.5282 33.264 28.5282 33.072 28.5762 32.88C28.6722 32.64 28.7202 32.4 28.6722 32.16C28.6722 32.112 28.4322 32.112 28.3362 32.112C28.3842 32.064 28.3842 32.064 28.3362 32.064C28.3842 31.968 28.3842 31.824 28.3842 31.728C28.3842 31.68 28.2402 31.536 28.3362 31.488L28.4322 31.392C28.5762 31.248 28.7202 31.152 28.7682 31.008C28.7682 30.864 28.7682 30.72 28.6242 30.576C28.5762 30.576 28.5282 30.576 28.4322 30.528C28.2402 30.432 28.6242 30.24 28.7202 30.192C28.9122 30 28.9122 29.808 28.6242 29.616C28.5762 29.616 28.5282 29.568 28.4322 29.568L28.4802 29.52L28.6242 29.328C28.6242 29.424 28.6722 29.568 28.7682 29.616C28.8162 29.664 29.0562 29.664 29.1042 29.616C29.2002 29.52 29.2482 29.424 29.2962 29.28L29.4402 28.848C29.5362 28.608 29.6322 28.368 29.5362 28.128C29.4882 28.128 29.4882 28.08 29.4882 28.08V28.032H29.4402L29.3442 27.888C29.3442 27.84 29.3922 27.792 29.3922 27.744C29.5362 27.456 29.6322 27.168 29.9202 26.832ZM29.3442 30.288C29.3922 30.24 29.3922 30.192 29.3442 30.144C29.2962 30.048 29.2962 29.952 29.2962 29.856C29.2482 29.808 29.0562 29.76 29.0562 29.808C29.0082 29.856 28.9602 29.952 28.9602 30C28.9122 30.096 29.0082 30.24 28.8642 30.288C28.7202 30.432 28.6242 30.528 28.9602 30.672C28.9602 30.72 29.1522 30.72 29.1042 30.672C28.9602 30.576 28.9122 30.528 29.1042 30.432C29.2002 30.384 29.2962 30.384 29.3442 30.288ZM27.1842 37.536C27.2322 37.44 27.1842 37.296 27.1362 37.2C27.1362 37.152 26.9442 37.104 26.9442 37.152C26.9442 37.248 26.9922 37.392 26.9922 37.488C27.0402 37.488 27.1842 37.536 27.1842 37.536ZM28.9122 31.536H29.0082V31.104C29.0082 31.056 28.9602 31.056 28.9122 31.056C28.9122 31.2 28.8642 31.344 28.9122 31.536ZM28.8162 25.68H28.9122C28.9122 25.68 28.9122 25.632 28.8162 25.68ZM66.6582 33.648C66.6582 36.288 69.1542 38.496 69.5862 40.992C70.0662 43.632 67.6182 43.104 66.0822 41.616C63.4902 39.024 64.7382 39.696 61.0902 40.176C59.4582 40.416 56.5782 40.032 55.2342 38.88C52.4982 36.576 52.6902 30.864 52.4982 27.552C52.1622 22.752 52.7382 17.232 53.6982 12.528C54.4662 8.59197 55.8102 3.26397 60.7542 3.26397C63.0582 -3.52859e-05 66.6102 2.06396 68.3862 4.89596C70.9782 9.16796 69.5862 15.552 69.0582 20.208C68.5782 24.528 66.6582 29.376 66.6582 33.648ZM64.9302 19.008C65.2662 16.08 65.7462 13.2 65.5062 10.224C65.3142 7.72797 65.1222 6.81597 62.3862 7.53596C61.4262 7.82396 60.9942 7.67997 60.2742 8.54397C58.5942 10.608 58.6422 15.264 58.4502 17.808C58.1142 22.704 57.6342 28.224 58.7382 33.12C59.2182 35.232 60.8022 38.592 61.8582 34.704C62.3862 32.88 60.1302 31.632 60.3702 30.432C60.6582 29.28 62.5302 28.608 63.4422 29.136C65.2662 27.264 64.6902 21.504 64.9302 19.008ZM55.2342 31.344C55.2342 31.392 55.2822 31.488 55.3302 31.536C55.3782 31.584 55.4262 31.68 55.5222 31.728H55.5702C55.5222 31.584 55.3782 31.488 55.3302 31.344C55.3782 31.392 55.5222 31.344 55.5222 31.296C55.6182 31.248 55.6662 31.152 55.5222 31.104C55.3302 31.008 55.5702 30.864 55.5222 30.768C55.4742 30.672 55.4742 30.576 55.4262 30.528V30.288C55.4262 30.144 55.5222 29.952 55.3782 29.856L55.3302 29.808C55.3302 29.808 55.3782 29.808 55.3782 29.76C55.5222 29.568 55.5222 29.328 55.5702 29.088C55.6182 28.944 55.7142 28.656 55.5702 28.464C55.5222 28.464 55.4742 28.416 55.4262 28.368H55.4742C55.4262 28.272 55.5222 28.176 55.5222 28.08C55.5702 27.936 55.5222 27.792 55.4742 27.696C55.4262 27.552 55.3782 27.456 55.3782 27.36C55.3782 27.216 55.5222 27.072 55.5702 26.928C55.7142 26.688 55.6662 26.448 55.7142 26.208C55.7622 25.92 55.7622 25.584 55.6662 25.296C55.6662 25.248 55.4262 25.248 55.3302 25.296V25.248C55.3782 25.248 55.3782 25.2 55.3302 25.2V24.816C55.3302 24.72 55.1382 24.576 55.2822 24.48C55.2822 24.432 55.3302 24.384 55.3782 24.336C55.4742 24.144 55.6182 24 55.6182 23.856C55.6182 23.664 55.6182 23.472 55.4262 23.328C55.4262 23.328 55.3302 23.28 55.2822 23.28C55.0902 23.136 55.4262 22.896 55.5222 22.8C55.7142 22.56 55.7142 22.32 55.4262 22.08C55.3302 22.032 55.0422 21.984 54.9942 22.08C54.8982 22.176 55.0422 22.32 54.9942 22.464C54.9942 22.608 54.9942 22.704 54.9462 22.848C54.8982 22.944 54.8502 23.184 55.0902 23.28C54.9942 23.28 54.9462 23.28 54.8982 23.328C54.8022 23.52 54.9462 23.76 54.9462 23.952C54.8982 24.192 54.6102 24.432 54.5622 24.672C54.5142 24.816 54.7062 24.96 54.8022 25.104V25.2C54.7542 25.392 54.6102 25.584 54.5142 25.776C54.4182 25.968 54.3702 26.208 54.5142 26.4C54.5622 26.448 54.8022 26.448 54.8502 26.4C55.0422 26.208 54.9942 26.016 55.0902 25.824L55.2342 25.584C55.2342 25.776 55.2342 25.968 55.1862 26.16C55.1862 26.304 55.1862 26.448 55.1382 26.592C55.0902 26.736 55.0422 26.88 54.9462 27.024C54.7542 27.264 54.7542 27.504 54.8502 27.744C54.9462 27.84 54.9942 27.984 55.0422 28.128L55.0902 28.176C54.9942 28.128 54.9462 28.08 54.9462 27.984C54.9462 27.936 54.7062 27.936 54.7062 27.984C54.6102 28.128 54.8022 28.272 54.9462 28.368C55.0902 28.464 55.1382 28.656 55.1862 28.8C55.0902 28.8 54.9942 28.8 54.8982 28.848C54.8022 28.896 54.8982 28.992 54.9462 29.04C55.0422 29.136 55.1382 29.28 55.1382 29.376H55.1862C55.1382 29.52 55.0902 29.712 55.0902 29.856C55.0422 29.856 54.9942 29.856 54.9462 29.904C54.8502 30.048 54.8982 30.192 54.8502 30.336C54.8502 30.48 54.8982 30.624 54.9462 30.768C54.9462 30.864 54.9942 30.912 54.8982 31.008C54.8502 31.056 54.8502 31.104 54.8502 31.152C54.8982 31.248 55.0902 31.248 55.1862 31.296L55.2342 31.344ZM56.6742 18.624C56.7702 18.528 56.9142 18.384 56.7702 18.24C56.6742 18.144 56.3382 18.144 56.1462 18.144C56.1942 18.144 56.1942 18.096 56.1942 18.096L56.3382 17.808C56.3862 17.616 56.2422 17.376 56.1942 17.136C56.1462 17.088 55.9542 17.088 55.9542 17.136C55.8102 17.328 55.7622 17.52 55.7622 17.712C55.7622 17.808 55.7142 17.904 55.6662 18.048C55.6662 18.096 55.7142 18.192 55.8102 18.288C55.5222 18.48 55.4262 18.768 55.3302 18.912C55.2342 19.104 55.1862 19.248 55.1862 19.44C55.1382 19.584 55.3302 19.776 55.4742 19.92V19.968C55.3302 20.304 55.1382 20.592 55.0902 20.928C55.0422 21.12 55.0902 21.264 55.0902 21.456C55.0902 21.6 55.0422 21.792 55.1382 21.984H55.2822L55.4262 21.696C55.4262 21.792 55.4742 21.936 55.5222 22.032C55.5702 22.128 55.8582 22.128 55.9062 22.08C56.0022 21.936 56.0022 21.792 56.0502 21.6C56.0982 21.456 56.1462 21.264 56.2422 21.072C56.2902 20.784 56.3862 20.448 56.2902 20.16C56.2422 20.064 56.1942 19.968 56.0982 19.872C56.0982 19.824 56.1462 19.728 56.1462 19.68C56.2902 19.344 56.3862 18.96 56.6742 18.624ZM56.1462 22.896C56.1942 22.8 56.1942 22.752 56.1462 22.656L56.0502 22.32C56.0502 22.272 55.8582 22.272 55.8582 22.272C55.7622 22.368 55.7622 22.464 55.7622 22.56C55.7142 22.704 55.8102 22.8 55.7142 22.944C55.5222 23.136 55.4262 23.232 55.8102 23.424C55.8102 23.424 56.0022 23.424 55.9542 23.376C55.8102 23.28 55.7622 23.184 55.9062 23.088L56.1462 22.896ZM55.8102 32.4C55.8102 32.256 55.7142 32.112 55.6182 32.016C55.6182 31.968 55.3782 32.016 55.4262 32.064C55.4262 32.208 55.5702 32.304 55.6182 32.448C55.6662 32.448 55.8102 32.4 55.8102 32.4ZM55.8102 24.432C55.8102 24.48 55.9542 24.48 55.9542 24.432C55.9062 24.288 55.9062 24.096 55.9062 23.904H55.8102V24.432ZM56.0022 17.088C55.9542 17.088 55.9542 17.04 55.9062 17.04L55.9542 17.088H56.0022Z" fill="#1D4F72"/>
</svg>
