<svg width="104" height="46" viewBox="0 0 104 46" fill="none" xmlns="http://www.w3.org/2000/svg">
<path d="M21.744 4.08001C23.328 5.95201 21.312 8.44801 20.592 10.08C18.624 14.4 17.712 19.248 16.56 23.808C15.456 28.272 13.776 32.976 13.344 37.584C13.2 39.216 14.064 41.76 12.864 43.008C10.944 45.072 8.25597 42.576 6.95997 41.328C7.87197 40.128 6.91197 37.44 6.71997 36.096C6.43197 33.984 6.23997 31.872 6.04797 29.76C5.61597 25.92 5.03997 22.128 4.17597 18.336C3.74397 16.32 3.26397 14.304 2.63997 12.336C2.20797 11.04 2.20797 10.128 1.91997 8.83201C1.77597 8.01601 -2.93255e-05 5.85601 0.191971 5.18401C0.479971 4.12801 3.50397 3.40801 4.27197 3.40801C9.50397 3.40801 8.78397 13.344 9.31197 17.28C9.64797 19.728 10.128 22.224 10.272 24.72C10.416 26.688 9.88797 30.816 10.944 32.544C12.672 32.016 13.392 20.544 13.728 18.96C14.544 15.264 15.456 11.424 16.608 7.77601C17.28 5.76001 19.248 0.960009 21.744 4.08001ZM4.94397 10.512C4.89597 10.704 4.94397 10.848 4.94397 11.04C4.99197 11.232 4.99197 11.472 5.13597 11.664C5.18397 11.664 5.37597 11.616 5.47197 11.568V11.616C5.47197 11.712 5.51997 11.808 5.56797 11.904C5.56797 11.952 5.75997 12.048 5.66397 12.096C5.66397 12.096 5.66397 12.144 5.71197 12.144C5.66397 12.144 5.61597 12.192 5.61597 12.24C5.51997 12.384 5.42397 12.528 5.47197 12.672C5.47197 12.768 5.51997 12.912 5.71197 12.96H5.90397C6.09597 13.008 5.80797 13.248 5.75997 13.344C5.61597 13.536 5.66397 13.728 5.99997 13.824C6.04797 13.824 6.38397 13.776 6.43197 13.728C6.47997 13.632 6.33597 13.536 6.28797 13.44V13.2C6.28797 13.104 6.33597 12.96 6.14397 12.912C6.19197 12.912 6.23997 12.864 6.23997 12.864C6.33597 12.672 6.09597 12.576 6.09597 12.384C6.09597 12.24 6.33597 12 6.33597 11.808C6.33597 11.712 6.14397 11.664 6.04797 11.568H5.99997V11.52C6.04797 11.232 6.43197 10.8 6.09597 10.608C6.04797 10.56 5.75997 10.656 5.75997 10.704C5.61597 10.848 5.66397 10.992 5.61597 11.136C5.56797 11.232 5.51997 11.28 5.51997 11.376C5.47197 11.232 5.47197 11.088 5.47197 10.944C5.42397 10.752 5.37597 10.512 5.56797 10.272C5.71197 10.032 5.66397 9.88801 5.51997 9.74401L5.27997 9.55201L5.23197 9.50401C5.32797 9.50401 5.37597 9.55201 5.37597 9.60001C5.37597 9.64801 5.61597 9.55201 5.66397 9.55201C5.71197 9.40801 5.51997 9.36001 5.37597 9.31201C5.18397 9.31201 5.08797 9.21601 5.08797 9.12001L5.32797 8.97601C5.42397 8.92801 5.32797 8.88001 5.27997 8.88001C5.18397 8.83201 5.03997 8.78401 5.03997 8.68801C5.03997 8.64001 5.03997 8.64001 4.99197 8.68801C4.99197 8.54401 5.03997 8.44801 5.03997 8.35201C5.08797 8.30401 5.13597 8.30401 5.13597 8.25601C5.27997 8.16001 5.18397 8.06401 5.18397 7.96801C5.23197 7.82401 5.13597 7.72801 5.08797 7.63201C5.03997 7.58401 5.03997 7.53601 5.08797 7.44001C5.13597 7.39201 5.13597 7.39201 5.13597 7.34401C5.08797 7.29601 4.89597 7.34401 4.79997 7.34401C4.79997 7.34401 4.79997 7.29601 4.75197 7.29601C4.75197 7.20001 4.55997 7.15201 4.46397 7.10401C4.46397 7.05601 4.41597 7.10401 4.41597 7.10401C4.46397 7.20001 4.60797 7.20001 4.65597 7.29601C4.60797 7.29601 4.46397 7.34401 4.46397 7.39201C4.36797 7.48801 4.36797 7.53601 4.51197 7.53601C4.70397 7.53601 4.46397 7.72801 4.51197 7.77601C4.60797 7.87201 4.65597 7.96801 4.65597 8.11201C4.65597 8.20801 4.55997 8.35201 4.75197 8.40001H4.79997L4.75197 8.44801C4.65597 8.64001 4.65597 8.83201 4.65597 8.97601C4.65597 9.12001 4.55997 9.31201 4.75197 9.40801C4.79997 9.40801 4.84797 9.45601 4.89597 9.45601H4.84797C4.89597 9.50401 4.84797 9.60001 4.84797 9.69601C4.84797 9.79201 4.84797 9.88801 4.94397 9.93601L5.08797 10.176C5.08797 10.272 4.99197 10.368 4.94397 10.512ZM6.67197 15.984C6.71997 15.84 6.76797 15.744 6.71997 15.6C6.71997 15.504 6.52797 15.408 6.33597 15.312C6.38397 15.024 6.57597 14.784 6.52797 14.544C6.52797 14.4 6.47997 14.304 6.43197 14.208C6.38397 14.064 6.38397 13.92 6.28797 13.824C6.28797 13.824 6.14397 13.824 6.14397 13.872C6.09597 13.92 6.09597 14.016 6.04797 14.112C6.04797 14.016 5.99997 13.92 5.85597 13.872C5.80797 13.824 5.56797 13.92 5.51997 13.92C5.47197 14.064 5.47197 14.16 5.47197 14.304L5.37597 14.688C5.37597 14.928 5.37597 15.168 5.51997 15.36L5.75997 15.504C5.71197 15.552 5.71197 15.6 5.71197 15.648C5.61597 15.936 5.61597 16.176 5.37597 16.464C5.27997 16.56 5.18397 16.704 5.37597 16.752C5.47197 16.8 5.80797 16.752 5.95197 16.704V16.752C5.90397 16.8 5.85597 16.896 5.85597 16.944C5.85597 17.088 5.99997 17.28 6.14397 17.376C6.14397 17.424 6.33597 17.376 6.38397 17.376C6.43197 17.232 6.47997 17.04 6.43197 16.896C6.43197 16.848 6.47997 16.752 6.47997 16.704C6.47997 16.608 6.38397 16.56 6.33597 16.512C6.57597 16.368 6.62397 16.128 6.67197 15.984ZM5.13597 13.584C5.23197 13.632 5.23197 13.728 5.32797 13.824C5.32797 13.824 5.51997 13.824 5.51997 13.776C5.56797 13.68 5.56797 13.632 5.56797 13.584C5.56797 13.488 5.47197 13.392 5.56797 13.296C5.66397 13.152 5.75997 13.056 5.37597 13.008C5.32797 13.008 5.18397 13.008 5.23197 13.056C5.37597 13.104 5.42397 13.152 5.32797 13.248L5.08797 13.44C5.08797 13.488 5.08797 13.536 5.13597 13.584ZM4.31997 6.91201C4.36797 6.91201 4.55997 6.86401 4.55997 6.81601C4.51197 6.72001 4.36797 6.67201 4.31997 6.62401C4.27197 6.57601 4.12797 6.67201 4.17597 6.67201H4.12797C4.12797 6.76801 4.22397 6.86401 4.31997 6.91201ZM5.13597 12.288H5.03997L5.18397 12.672H5.27997C5.23197 12.528 5.23197 12.384 5.13597 12.288ZM43.0376 11.904C43.1336 15.744 43.1336 19.728 42.9896 23.52C42.8936 26.928 41.7896 44.832 34.8776 40.848C34.2536 40.464 34.0616 39.792 33.4856 39.456C32.8136 39.072 31.9976 39.264 31.3736 38.88C29.5016 37.824 28.5416 35.568 28.0136 33.6C27.0056 29.856 27.9656 25.104 26.6216 21.552C27.7736 21.024 27.4856 17.52 27.5816 16.608C27.7736 14.112 28.0136 11.808 28.8296 9.45601C29.3576 7.82401 29.9336 5.76001 31.2296 4.51201C32.9096 2.78401 35.2616 3.21601 37.5176 3.31201C39.8696 3.45601 40.2536 3.79201 41.3096 5.85601C42.2696 7.72801 43.0376 9.79201 43.0376 11.904ZM37.7096 23.856C37.8536 20.592 37.3256 17.424 37.3256 14.208C37.3256 11.376 37.2296 9.55201 36.2696 6.81601C31.4216 8.92801 32.2856 15.312 31.9976 19.824C31.8536 22.32 31.8056 24.672 32.0456 27.168C32.2856 29.424 34.1576 33.36 33.8216 35.184C36.0296 36.48 36.3176 34.368 36.7496 32.352C37.3256 29.664 37.5656 26.64 37.7096 23.856ZM41.2616 24C41.3096 23.664 41.3576 23.328 41.2616 22.992C41.2136 22.944 41.0216 22.896 40.9256 22.944C40.9736 22.896 40.9736 22.896 40.9256 22.848V22.416C40.9256 22.32 40.7336 22.176 40.8776 22.08V22.032C40.8776 21.984 40.9256 21.936 40.9736 21.888C41.0696 21.696 41.2136 21.504 41.2136 21.312C41.2136 21.168 41.2136 20.928 41.0216 20.736C40.9736 20.736 40.9256 20.736 40.8296 20.688C40.6376 20.592 40.9736 20.256 41.0696 20.16C41.2136 19.872 41.2136 19.584 40.9256 19.344C40.8296 19.296 40.4936 19.296 40.4936 19.392C40.3976 19.536 40.5416 19.68 40.5416 19.824C40.5416 19.968 40.5416 20.112 40.4936 20.256C40.4936 20.352 40.3976 20.592 40.6376 20.688C40.5416 20.736 40.4936 20.736 40.4936 20.784C40.3496 20.976 40.5416 21.216 40.4936 21.456C40.4936 21.744 40.2056 21.984 40.1576 22.272C40.1096 22.416 40.3016 22.608 40.3496 22.752C40.3976 22.752 40.3976 22.8 40.3976 22.8C40.3016 23.28 39.7736 23.664 40.0616 24.144C40.0616 24.192 40.3496 24.192 40.3976 24.144C40.5896 23.952 40.5416 23.76 40.6376 23.568L40.8296 23.28L40.7336 23.904C40.6856 24.24 40.6856 24.576 40.3976 24.864C40.2056 25.104 40.1576 25.344 40.2536 25.584C40.2536 25.728 40.3016 25.824 40.3016 25.92C40.2536 25.872 40.1096 25.824 40.0616 25.872C39.9656 26.016 40.1096 26.16 40.2536 26.304C40.3976 26.448 40.4456 26.64 40.3976 26.784C40.3016 26.784 40.2056 26.784 40.1576 26.832C40.0616 26.88 40.1096 26.976 40.1576 27.024C40.2056 27.168 40.3016 27.312 40.2536 27.408C40.2536 27.456 40.2536 27.456 40.3016 27.456C40.2056 27.6 40.1576 27.744 40.1096 27.888C40.0136 27.888 39.9656 27.888 39.9656 27.936C39.8216 28.032 39.8216 28.176 39.7736 28.32C39.6776 28.464 39.6776 28.656 39.6776 28.8C39.6776 28.896 39.6776 28.944 39.5816 29.04C39.5336 29.088 39.4856 29.088 39.4856 29.136C39.4856 29.232 39.6776 29.28 39.7256 29.376V29.424C39.7256 29.52 39.7256 29.616 39.7736 29.664C39.7736 29.76 39.8216 29.856 39.8216 29.904C39.8216 29.952 39.9176 29.952 39.9176 29.952C39.9176 29.808 39.8216 29.664 39.8216 29.52C39.8696 29.52 40.0136 29.568 40.0616 29.568C40.1576 29.52 40.2056 29.424 40.1096 29.328C39.9656 29.184 40.2536 29.136 40.2536 28.992C40.2536 28.8 40.2536 28.608 40.3016 28.464C40.3496 28.32 40.4936 28.128 40.3496 27.984V27.936C40.3496 27.936 40.3976 27.936 40.3976 27.888C40.5896 27.696 40.6856 27.456 40.7336 27.216C40.8296 27.024 40.9736 26.736 40.8296 26.544C40.8296 26.496 40.7816 26.448 40.7336 26.4H40.7816C40.7336 26.304 40.8776 26.208 40.8776 26.064C40.9256 25.92 40.9256 25.776 40.8776 25.632C40.8776 25.488 40.8296 25.392 40.8296 25.248C40.8776 25.104 40.9736 24.96 41.0696 24.816C41.2136 24.576 41.2136 24.24 41.2616 24ZM41.7896 15.312C41.8376 15.168 41.9816 14.976 41.7896 14.88C41.6936 14.784 41.3576 14.832 41.1656 14.88C41.2136 14.88 41.2136 14.832 41.2136 14.784C41.2616 14.688 41.3096 14.592 41.3096 14.448C41.3096 14.256 41.1176 13.968 41.0216 13.728C40.9736 13.728 40.7816 13.728 40.7816 13.776C40.6856 14.016 40.6376 14.256 40.6856 14.448C40.7336 14.592 40.6856 14.688 40.6856 14.832C40.6856 14.928 40.7816 15.024 40.8296 15.12C40.5896 15.36 40.5416 15.648 40.4456 15.888C40.3976 16.08 40.3496 16.272 40.3976 16.416C40.3976 16.656 40.5896 16.8 40.7816 16.944V16.992C40.6376 17.376 40.4936 17.76 40.4936 18.096C40.4936 18.288 40.4936 18.48 40.5416 18.672C40.5896 18.864 40.5416 19.056 40.6376 19.248C40.6376 19.296 40.7336 19.296 40.7816 19.248C40.7816 19.2 40.8296 19.104 40.8776 19.008C40.8776 19.152 40.9256 19.248 41.0216 19.344C41.0696 19.392 41.3576 19.344 41.4056 19.296C41.5016 19.152 41.5016 18.96 41.5016 18.816L41.6456 18.144C41.6936 17.808 41.6936 17.424 41.5976 17.088C41.5496 16.992 41.4536 16.896 41.3576 16.8C41.3576 16.752 41.4056 16.656 41.4056 16.608C41.5016 16.176 41.5496 15.744 41.7896 15.312ZM41.6936 20.208C41.7416 20.16 41.7416 20.064 41.6936 19.968C41.5976 19.824 41.6456 19.728 41.5976 19.584C41.5496 19.536 41.3576 19.536 41.3576 19.584L41.2616 19.872C41.2616 20.016 41.3576 20.16 41.2616 20.304C41.1176 20.544 41.0216 20.64 41.3576 20.832H41.5016C41.3576 20.688 41.3096 20.592 41.4536 20.448C41.5496 20.4 41.6456 20.304 41.6936 20.208ZM39.7256 30.672C39.8216 30.576 39.8216 30.384 39.8216 30.24C39.8216 30.192 39.5816 30.144 39.5816 30.192V30.624C39.5816 30.672 39.7256 30.72 39.7256 30.672ZM41.4056 22.032H41.5496L41.4536 21.408C41.4536 21.36 41.4056 21.36 41.4056 21.408C41.4056 21.6 41.3576 21.792 41.4056 22.032ZM40.4456 26.16C40.3496 26.064 40.3016 25.968 40.3496 25.92C40.3496 25.968 40.3496 26.016 40.3976 26.064C40.3976 26.064 40.4456 26.112 40.4456 26.16ZM40.8296 13.68H40.7336L40.7816 13.728L40.8296 13.68ZM40.3496 25.92H40.3016H40.3496ZM56.1045 13.488C55.9125 17.136 55.8645 20.784 55.9605 24.432C56.0565 30.384 56.3925 36.624 55.6725 42.24C55.6245 42.72 53.8005 42.144 53.8005 42.384C49.7205 42.144 50.9205 38.064 51.0645 35.04C51.2085 30.816 50.9205 26.688 51.1125 22.512C51.3045 18.432 51.1125 14.304 51.2565 10.176C51.4005 5.76001 49.8645 1.82401 55.6725 2.44801C55.4325 2.49601 55.1445 2.54401 54.9045 2.64001C57.5925 5.04001 56.2485 10.224 56.1045 13.488ZM54.7125 10.08C54.7605 10.032 54.8085 9.98401 54.8085 9.93601C54.8085 9.88801 54.6165 9.84001 54.4725 9.79201V9.74401C54.4725 9.64801 54.3765 9.50401 54.2805 9.40801H54.2325C54.2325 9.50401 54.3765 9.60001 54.3765 9.74401C54.3285 9.69601 54.1845 9.69601 54.1845 9.74401C54.0405 9.79201 54.0405 9.84001 54.1365 9.88801C54.3285 9.98401 54.0885 10.08 54.0885 10.176C54.1365 10.32 54.1365 10.464 54.0885 10.608C54.0885 10.704 53.9445 10.848 54.0885 10.944C54.0885 10.944 54.1365 10.944 54.1365 10.992H54.0885C53.8965 11.184 53.8485 11.376 53.8005 11.52C53.7525 11.664 53.6085 11.904 53.7525 12.048C53.8005 12.096 53.8485 12.096 53.8485 12.144C53.8485 12.24 53.7525 12.336 53.7525 12.384C53.7045 12.528 53.7045 12.624 53.7525 12.72C53.8005 12.816 53.8005 12.912 53.8005 13.008C53.8005 13.152 53.7045 13.248 53.6085 13.344C53.4645 13.536 53.4645 13.776 53.4645 13.968C53.4165 14.208 53.3685 14.448 53.4645 14.688C53.4645 14.736 53.6565 14.784 53.7525 14.784H53.8005C53.7525 14.928 53.7525 15.024 53.8005 15.12C53.8005 15.216 53.9445 15.312 53.8485 15.408C53.8485 15.456 53.8005 15.504 53.7525 15.552C53.6565 15.696 53.5125 15.792 53.5125 15.936C53.5125 16.08 53.5125 16.272 53.7045 16.368C53.7045 16.416 53.8005 16.416 53.8485 16.416C54.0405 16.512 53.7045 16.752 53.6085 16.848C53.4645 17.04 53.4645 17.232 53.7525 17.424C53.8485 17.472 54.1365 17.472 54.1845 17.424C54.2805 17.328 54.1365 17.184 54.1365 17.088C54.1365 16.992 54.1365 16.896 54.1845 16.8C54.2325 16.656 54.2805 16.512 54.0885 16.416C54.1365 16.416 54.1845 16.416 54.2325 16.368C54.3285 16.224 54.1365 16.032 54.1845 15.84C54.2325 15.648 54.5205 15.456 54.5685 15.264C54.6165 15.168 54.4245 15.024 54.3285 14.88V14.832C54.4245 14.496 54.9045 14.208 54.6645 13.824C54.6165 13.776 54.3285 13.824 54.2805 13.824C54.0885 13.968 54.1845 14.16 54.0405 14.304L53.8965 14.496C53.8965 14.352 53.8965 14.16 53.9445 14.016C53.9925 13.776 53.9925 13.536 54.2805 13.296C54.4725 13.104 54.4725 12.96 54.3765 12.72C54.3285 12.672 54.2805 12.624 54.2805 12.576C54.3285 12.576 54.5205 12.576 54.5685 12.528C54.6645 12.432 54.5205 12.288 54.3765 12.192C54.1845 12.096 54.1845 11.952 54.1365 11.856C54.2325 11.856 54.3765 11.808 54.4245 11.808C54.5205 11.76 54.4245 11.712 54.4245 11.664C54.3285 11.568 54.2325 11.472 54.2805 11.376C54.2805 11.376 54.2805 11.328 54.2325 11.328L54.3765 10.992C54.4245 10.992 54.4725 10.992 54.5205 10.944C54.6645 10.848 54.6165 10.752 54.6645 10.656C54.7125 10.512 54.6645 10.368 54.6645 10.272C54.6645 10.176 54.6165 10.128 54.7125 10.08ZM54.0405 20.064C54.1365 19.92 54.1845 19.776 54.1845 19.632C54.1365 19.488 53.9925 19.344 53.8005 19.2C53.9445 18.912 54.1365 18.624 54.1365 18.384C54.1365 18.24 54.1365 18.096 54.0885 17.952C54.0885 17.808 54.1365 17.664 54.0405 17.52C54.0405 17.472 53.8965 17.472 53.8965 17.52L53.7525 17.76C53.7525 17.664 53.7045 17.568 53.6085 17.424H53.2725C53.1765 17.568 53.1765 17.712 53.1285 17.808L52.9845 18.288C52.9365 18.576 52.8885 18.816 52.9845 19.056C53.0325 19.152 53.1285 19.248 53.2245 19.296L53.1285 19.44C53.0325 19.776 52.9845 20.064 52.6965 20.4C52.6005 20.496 52.5045 20.64 52.6485 20.736C52.7925 20.784 53.0805 20.784 53.2725 20.736C53.2725 20.784 53.2245 20.784 53.2245 20.832C53.1765 20.88 53.1285 20.976 53.1285 21.024C53.0805 21.216 53.2245 21.408 53.3205 21.6C53.3685 21.6 53.5605 21.648 53.6085 21.6C53.6565 21.408 53.7525 21.264 53.7045 21.072C53.7045 20.976 53.7525 20.88 53.7525 20.832C53.8005 20.736 53.7045 20.688 53.6085 20.592C53.8965 20.448 53.9445 20.208 54.0405 20.064ZM52.9845 16.752C52.9365 16.8 52.9365 16.896 52.9845 16.944C53.0805 17.04 53.0325 17.136 53.0805 17.232C53.1285 17.28 53.3205 17.28 53.3205 17.28C53.3685 17.184 53.4165 17.088 53.4165 17.04C53.4165 16.896 53.3205 16.8 53.4165 16.704C53.6085 16.56 53.7045 16.464 53.3205 16.32H53.1765C53.3205 16.416 53.3685 16.512 53.2245 16.608L52.9845 16.752ZM54.1365 8.83201C54.0885 8.92801 54.1845 9.02401 54.2325 9.16801H54.4725L54.3285 8.83201C54.2805 8.78401 54.1365 8.78401 54.1365 8.83201ZM53.3205 15.456C53.2725 15.408 53.1765 15.408 53.1765 15.456C53.2245 15.6 53.2245 15.744 53.2245 15.888H53.3205V15.456ZM54.1845 12.336C54.2805 12.384 54.3285 12.48 54.2805 12.528C54.2325 12.48 54.2325 12.432 54.2325 12.384C54.2325 12.384 54.1845 12.384 54.1845 12.336ZM53.6085 21.696C53.6565 21.696 53.6565 21.648 53.6565 21.648H53.5125C53.5605 21.648 53.5605 21.696 53.6085 21.696ZM81.2111 27.984C81.7391 30.576 79.2431 34.608 78.9551 37.296C78.6671 40.128 78.3791 40.368 75.8351 41.52C73.1951 42.672 70.2191 43.728 67.5311 41.856C63.6911 39.216 65.3711 31.968 64.8911 27.888C64.1231 21.888 64.1231 13.728 65.9951 7.92001C68.0111 1.72801 74.8751 6.67572e-06 79.7711 4.12801C79.7711 4.12801 79.8191 4.17601 79.8671 4.17601C79.9631 7.20001 82.6511 19.008 77.9471 18.72C74.0591 18.48 75.0191 15.792 75.1631 13.296C75.2591 11.52 75.5471 5.90401 72.8591 6.19201C68.6351 6.62401 70.4111 17.616 70.1711 20.496C69.9791 23.568 69.5951 26.064 70.0271 29.136C70.3631 31.824 69.4991 35.136 71.4671 37.296C75.7391 41.904 76.3631 30.432 76.8911 28.32C77.1791 27.168 77.1311 26.448 78.2351 26.112C79.4831 25.68 80.9711 26.928 81.2111 27.984ZM67.6751 29.76C67.7231 29.52 67.7711 29.232 67.6271 28.992C67.6271 28.944 67.4351 28.944 67.2911 28.992V28.944C67.3391 28.944 67.3871 28.944 67.2911 28.896C67.3391 28.8 67.3391 28.704 67.2911 28.608C67.2911 28.512 67.0991 28.368 67.1951 28.32C67.2431 28.272 67.2911 28.224 67.2911 28.176C67.4351 28.032 67.5311 27.888 67.5311 27.744C67.5791 27.648 67.5311 27.456 67.3391 27.36C67.3391 27.312 67.2431 27.312 67.1471 27.312C66.9551 27.216 67.3391 26.976 67.3871 26.88C67.5791 26.688 67.5791 26.448 67.2431 26.304C67.1951 26.256 66.8591 26.256 66.8111 26.304C66.7151 26.448 66.8591 26.544 66.8591 26.64C66.8591 26.736 66.8591 26.88 66.8111 26.976C66.8111 27.072 66.7151 27.216 66.9551 27.312C66.9071 27.312 66.8591 27.312 66.8111 27.36C66.7151 27.504 66.9071 27.696 66.8591 27.888C66.8111 28.08 66.5711 28.272 66.5231 28.512C66.4751 28.608 66.6671 28.752 66.7631 28.848V28.896C66.6671 29.232 66.1871 29.568 66.4751 29.904C66.5231 29.952 66.8111 29.952 66.8591 29.904C67.0031 29.76 66.9551 29.616 67.0511 29.424L67.2431 29.232C67.1951 29.376 67.1951 29.568 67.1951 29.712C67.1471 29.952 67.1471 30.192 66.9071 30.432C66.7151 30.624 66.7151 30.816 66.8111 31.008C66.9071 31.104 66.9551 31.248 67.0031 31.344L67.0511 31.392C66.9551 31.344 66.9071 31.296 66.9071 31.248C66.9071 31.2 66.6671 31.2 66.6671 31.248C66.5711 31.344 66.7151 31.44 66.8591 31.536C67.0511 31.632 67.0991 31.776 67.0991 31.92C67.0031 31.92 66.9071 31.92 66.8591 31.968C66.7151 32.016 66.8111 32.064 66.8591 32.112C66.9551 32.16 67.0511 32.304 67.0031 32.4H67.0511L66.9071 32.784H66.8111C66.6671 32.928 66.7151 33.024 66.6671 33.12C66.6191 33.264 66.6671 33.408 66.7151 33.504C66.7151 33.6 66.7151 33.648 66.6671 33.696C66.6191 33.744 66.5711 33.792 66.5711 33.84C66.6191 33.888 66.8111 33.936 66.9071 33.936V33.984C66.9071 34.128 67.0511 34.224 67.1471 34.368C67.1471 34.368 67.1951 34.368 67.1951 34.32L67.0031 34.032H67.2431C67.3391 33.936 67.3391 33.888 67.2431 33.84C67.0511 33.744 67.2911 33.648 67.2911 33.552C67.2431 33.408 67.1951 33.264 67.2431 33.168C67.2431 33.024 67.3871 32.88 67.1951 32.784L67.2431 32.736C67.3871 32.544 67.4351 32.352 67.4831 32.208C67.5311 32.016 67.6751 31.824 67.4831 31.632C67.4351 31.632 67.4351 31.584 67.3871 31.584V31.536C67.3871 31.488 67.4831 31.392 67.4831 31.296C67.4831 31.2 67.5311 31.104 67.4351 31.008C67.3871 30.912 67.3871 30.816 67.3871 30.72C67.3871 30.576 67.4831 30.48 67.5791 30.336C67.6751 30.144 67.6751 29.952 67.6751 29.76ZM68.2511 23.28C68.3471 23.232 68.4431 23.088 68.2991 22.992C68.1551 22.944 67.8671 22.944 67.6751 22.992C67.6751 22.944 67.6751 22.944 67.7231 22.896L67.8191 22.656C67.8191 22.512 67.6751 22.272 67.5791 22.128C67.5791 22.08 67.3391 22.08 67.3391 22.128C67.2431 22.272 67.1951 22.464 67.2431 22.656C67.2431 22.704 67.1951 22.8 67.1471 22.896C67.1471 22.992 67.2431 23.04 67.2911 23.136C67.0511 23.28 67.0031 23.52 66.9071 23.664C66.8111 23.808 66.7631 23.952 66.8111 24.096C66.8111 24.24 67.0031 24.384 67.1471 24.48V24.528C67.0511 24.816 66.8591 25.104 66.8111 25.344C66.8111 25.488 66.8591 25.632 66.8591 25.776C66.9071 25.92 66.8591 26.064 66.9551 26.208C66.9551 26.256 67.0991 26.256 67.0991 26.208L67.2431 25.968C67.2431 26.064 67.2911 26.16 67.3871 26.256C67.4351 26.304 67.6751 26.304 67.7231 26.256C67.8191 26.112 67.8191 26.016 67.8671 25.872C67.8671 25.728 67.9151 25.536 67.9631 25.392C68.0591 25.152 68.1071 24.864 67.9631 24.624L67.7711 24.384C67.7711 24.336 67.7711 24.288 67.8191 24.24C67.9151 23.952 67.9631 23.616 68.2511 23.28ZM68.0591 26.928C68.1071 26.88 68.0591 26.832 68.0111 26.736L67.9151 26.448C67.9151 26.4 67.6751 26.4 67.6751 26.448L67.5791 26.688C67.5791 26.784 67.6751 26.88 67.5791 26.976C67.4351 27.168 67.3391 27.264 67.7231 27.408C67.7231 27.408 67.8671 27.408 67.8671 27.36C67.7231 27.264 67.6751 27.216 67.8191 27.12C67.9151 27.072 68.0111 27.024 68.0591 26.928ZM67.3391 34.896C67.3391 34.8 67.2911 34.704 67.2431 34.608C67.1951 34.56 67.0031 34.56 67.0031 34.608C67.0031 34.704 67.0991 34.848 67.1471 34.944C67.1951 34.944 67.3391 34.944 67.3391 34.896ZM67.7711 28.272H67.8671C67.8671 28.128 67.8191 27.936 67.8191 27.792H67.7231C67.7231 27.936 67.7231 28.128 67.7711 28.272ZM100.501 4.22401C103.717 9.16801 94.7411 5.23201 93.5891 8.01601C92.7731 10.032 92.7731 19.584 94.3091 20.4C95.3171 20.928 100.741 19.104 100.501 22.128C100.309 24.48 96.4691 23.376 95.1251 23.808C91.2371 25.104 93.5411 33.84 93.3491 37.296C94.3091 37.152 100.981 35.712 99.6851 39.12C99.4451 39.744 93.0611 41.472 92.0051 41.568C85.4771 42.24 88.3571 31.92 88.4531 28.272C88.6931 21.504 88.1171 14.64 88.2131 7.92001C88.2131 5.47201 88.0211 3.79201 90.9971 3.26401C94.1651 2.64001 97.5251 2.97601 100.501 4.22401ZM90.9971 26.112C90.9971 25.776 91.0451 25.44 90.9011 25.104C90.9011 25.056 90.7091 25.056 90.6131 25.056C90.6611 25.056 90.6611 25.008 90.6131 25.008C90.6131 24.864 90.6131 24.72 90.5651 24.528C90.5651 24.432 90.3731 24.288 90.4691 24.192C90.5171 24.144 90.5651 24.048 90.5651 24C90.7091 23.808 90.8051 23.664 90.8051 23.424C90.8051 23.28 90.8051 23.04 90.6131 22.896C90.5651 22.848 90.4691 22.848 90.4211 22.848C90.2291 22.704 90.5651 22.416 90.6611 22.272C90.8051 22.032 90.8051 21.696 90.4691 21.504C90.3731 21.456 90.0851 21.456 90.0371 21.504C89.9411 21.648 90.0851 21.84 90.0851 21.984C90.1331 22.128 90.0851 22.224 90.0851 22.368C90.0371 22.512 89.9891 22.752 90.2291 22.848C90.1331 22.848 90.0851 22.896 90.0851 22.896C89.9411 23.136 90.1331 23.376 90.1331 23.616C90.0851 23.904 89.8451 24.144 89.7971 24.432C89.7491 24.576 89.9411 24.768 90.0371 24.912L90.0851 24.96H90.0371C89.9891 25.44 89.5091 25.872 89.7971 26.304C89.8451 26.4 90.0851 26.352 90.1331 26.304C90.3251 26.112 90.2771 25.92 90.3731 25.68L90.5171 25.392C90.5171 25.632 90.5171 25.824 90.4691 26.064C90.4211 26.352 90.4691 26.688 90.2291 27.024C90.0371 27.264 90.0371 27.504 90.1331 27.792C90.2291 27.936 90.2771 28.08 90.3251 28.224L90.3731 28.272C90.2771 28.224 90.2291 28.176 90.2291 28.08C90.2291 28.032 89.9891 28.032 89.9891 28.08C89.8931 28.224 90.0371 28.368 90.2291 28.512C90.3731 28.608 90.4211 28.8 90.4211 28.944C90.3251 28.992 90.2291 28.992 90.1811 29.04C90.0851 29.088 90.1331 29.184 90.1811 29.232C90.2771 29.328 90.3731 29.472 90.3251 29.616H90.3731C90.3251 29.808 90.2771 29.952 90.2771 30.096C90.1811 30.096 90.1331 30.144 90.1331 30.144C89.9891 30.288 90.0371 30.48 89.9891 30.624C89.9411 30.768 90.0371 30.96 90.0371 31.104C90.0371 31.2 90.0371 31.248 89.9891 31.344C89.9411 31.392 89.8931 31.44 89.8931 31.488C89.9411 31.584 90.1331 31.632 90.2291 31.68V31.728C90.2291 31.92 90.3731 32.064 90.4691 32.208H90.5171L90.3251 31.776C90.3731 31.824 90.5171 31.824 90.5651 31.776C90.6611 31.68 90.6611 31.632 90.5651 31.536C90.3731 31.44 90.6131 31.296 90.6131 31.152C90.5651 31.008 90.5171 30.816 90.5651 30.624C90.5651 30.48 90.7091 30.288 90.5651 30.144H90.5171C90.5171 30.096 90.5651 30.096 90.5651 30.048C90.7091 29.856 90.7571 29.568 90.8051 29.328C90.8531 29.136 90.9971 28.848 90.8051 28.656C90.8051 28.608 90.7571 28.56 90.7091 28.512C90.7091 28.416 90.8051 28.32 90.8051 28.176C90.8051 28.032 90.8051 27.888 90.7571 27.744C90.7091 27.648 90.7091 27.504 90.7091 27.36C90.6611 27.216 90.8051 27.072 90.8531 26.928C90.9971 26.64 90.9491 26.352 90.9971 26.112ZM91.4291 17.52C91.5251 17.376 91.6211 17.232 91.4771 17.088C91.3811 17.04 91.0451 17.04 90.8531 17.088C90.9011 17.04 90.9011 16.992 90.9011 16.992C90.9491 16.848 90.9971 16.752 90.9971 16.656C91.0451 16.416 90.9011 16.176 90.8051 15.936C90.7571 15.888 90.5651 15.888 90.5651 15.936C90.4691 16.128 90.3731 16.368 90.4211 16.608C90.4211 16.704 90.3731 16.848 90.3731 16.944C90.3731 17.04 90.4211 17.184 90.5171 17.232C90.2291 17.472 90.1811 17.808 90.0851 18C89.9891 18.192 89.9891 18.384 89.9891 18.576C89.9891 18.768 90.1811 18.912 90.3731 19.104L90.3251 19.152C90.2291 19.536 90.0371 19.872 90.0371 20.256C90.0371 20.448 90.0851 20.64 90.0851 20.832C90.1331 21.024 90.0851 21.216 90.1811 21.408H90.3251C90.3731 21.264 90.4211 21.168 90.4211 21.024C90.4691 21.168 90.5171 21.312 90.6131 21.456C90.6611 21.504 90.9011 21.504 90.9491 21.456C91.0451 21.264 91.0451 21.12 91.0451 20.928L91.1891 20.304C91.2371 19.968 91.2851 19.584 91.1411 19.248C91.1411 19.152 91.0451 19.056 90.9491 18.96C90.9491 18.912 90.9971 18.816 90.9971 18.768C91.1411 18.336 91.1891 17.952 91.4291 17.52ZM91.2851 22.368C91.3331 22.272 91.2851 22.176 91.2371 22.128L91.1411 21.696C91.1411 21.648 90.9011 21.648 90.9011 21.696C90.8531 21.792 90.8531 21.888 90.8531 22.032C90.8051 22.176 90.9011 22.272 90.8051 22.416C90.6611 22.656 90.5651 22.752 90.9491 22.944C90.9971 22.992 91.1411 22.944 91.0931 22.944C90.9491 22.8 90.9011 22.704 91.0451 22.608L91.2851 22.368ZM90.6131 32.976C90.6611 32.832 90.6131 32.688 90.5171 32.544C90.5171 32.496 90.2771 32.496 90.2771 32.544L90.4691 32.976C90.4691 33.024 90.6131 33.024 90.6131 32.976ZM91.0451 24.144C91.0451 24.144 91.1411 24.144 91.1411 24.096C91.0931 23.904 91.0931 23.712 91.0931 23.52C91.0931 23.472 90.9971 23.472 90.9971 23.52C90.9971 23.712 90.9971 23.904 91.0451 24.144ZM90.6131 15.84H90.5171L90.5651 15.888C90.5651 15.888 90.6131 15.888 90.6131 15.84Z" fill="#082A45"/>
</svg>
