<svg width="127" height="46" viewBox="0 0 127 46" fill="none" xmlns="http://www.w3.org/2000/svg">
<path d="M21.7439 4.08001C23.3279 5.95201 21.3119 8.44801 20.5919 10.08C18.6239 14.4 17.7119 19.248 16.5599 23.808C15.4559 28.272 13.7759 32.976 13.3439 37.584C13.1999 39.216 14.0639 41.76 12.8639 43.008C10.9439 45.072 8.25592 42.576 6.95992 41.328C7.87192 40.128 6.91192 37.44 6.71992 36.096C6.43192 33.984 6.23992 31.872 6.04792 29.76C5.61592 25.92 5.03992 22.128 4.17592 18.336C3.74392 16.32 3.26392 14.304 2.63992 12.336C2.20792 11.04 2.20792 10.128 1.91992 8.83201C1.77592 8.01601 -7.89165e-05 5.85601 0.191921 5.18401C0.479921 4.12801 3.50392 3.40801 4.27192 3.40801C9.50392 3.40801 8.78392 13.344 9.31192 17.28C9.64792 19.728 10.1279 22.224 10.2719 24.72C10.4159 26.688 9.88792 30.816 10.9439 32.544C12.6719 32.016 13.3919 20.544 13.7279 18.96C14.5439 15.264 15.4559 11.424 16.6079 7.77601C17.2799 5.76001 19.2479 0.960009 21.7439 4.08001ZM4.94392 10.512C4.89592 10.704 4.94392 10.848 4.94392 11.04C4.99192 11.232 4.99192 11.472 5.13592 11.664C5.18392 11.664 5.37592 11.616 5.47192 11.568V11.616C5.47192 11.712 5.51992 11.808 5.56792 11.904C5.56792 11.952 5.75992 12.048 5.66392 12.096C5.66392 12.096 5.66392 12.144 5.71192 12.144C5.66392 12.144 5.61592 12.192 5.61592 12.24C5.51992 12.384 5.42392 12.528 5.47192 12.672C5.47192 12.768 5.51992 12.912 5.71192 12.96H5.90392C6.09592 13.008 5.80792 13.248 5.75992 13.344C5.61592 13.536 5.66392 13.728 5.99992 13.824C6.04792 13.824 6.38392 13.776 6.43192 13.728C6.47992 13.632 6.33592 13.536 6.28792 13.44V13.2C6.28792 13.104 6.33592 12.96 6.14392 12.912C6.19192 12.912 6.23992 12.864 6.23992 12.864C6.33592 12.672 6.09592 12.576 6.09592 12.384C6.09592 12.24 6.33592 12 6.33592 11.808C6.33592 11.712 6.14392 11.664 6.04792 11.568H5.99992V11.52C6.04792 11.232 6.43192 10.8 6.09592 10.608C6.04792 10.56 5.75992 10.656 5.75992 10.704C5.61592 10.848 5.66392 10.992 5.61592 11.136C5.56792 11.232 5.51992 11.28 5.51992 11.376C5.47192 11.232 5.47192 11.088 5.47192 10.944C5.42392 10.752 5.37592 10.512 5.56792 10.272C5.71192 10.032 5.66392 9.88801 5.51992 9.74401L5.27992 9.55201L5.23192 9.50401C5.32792 9.50401 5.37592 9.55201 5.37592 9.60001C5.37592 9.64801 5.61592 9.55201 5.66392 9.55201C5.71192 9.40801 5.51992 9.36001 5.37592 9.31201C5.18392 9.31201 5.08792 9.21601 5.08792 9.12001L5.32792 8.97601C5.42392 8.92801 5.32792 8.88001 5.27992 8.88001C5.18392 8.83201 5.03992 8.78401 5.03992 8.68801C5.03992 8.64001 5.03992 8.64001 4.99192 8.68801C4.99192 8.54401 5.03992 8.44801 5.03992 8.35201C5.08792 8.30401 5.13592 8.30401 5.13592 8.25601C5.27992 8.16001 5.18392 8.06401 5.18392 7.96801C5.23192 7.82401 5.13592 7.72801 5.08792 7.63201C5.03992 7.58401 5.03992 7.53601 5.08792 7.44001C5.13592 7.39201 5.13592 7.39201 5.13592 7.34401C5.08792 7.29601 4.89592 7.34401 4.79992 7.34401C4.79992 7.34401 4.79992 7.29601 4.75192 7.29601C4.75192 7.20001 4.55992 7.15201 4.46392 7.10401C4.46392 7.05601 4.41592 7.10401 4.41592 7.10401C4.46392 7.20001 4.60792 7.20001 4.65592 7.29601C4.60792 7.29601 4.46392 7.34401 4.46392 7.39201C4.36792 7.48801 4.36792 7.53601 4.51192 7.53601C4.70392 7.53601 4.46392 7.72801 4.51192 7.77601C4.60792 7.87201 4.65592 7.96801 4.65592 8.11201C4.65592 8.20801 4.55992 8.35201 4.75192 8.40001H4.79992L4.75192 8.44801C4.65592 8.64001 4.65592 8.83201 4.65592 8.97601C4.65592 9.12001 4.55992 9.31201 4.75192 9.40801C4.79992 9.40801 4.84792 9.45601 4.89592 9.45601H4.84792C4.89592 9.50401 4.84792 9.60001 4.84792 9.69601C4.84792 9.79201 4.84792 9.88801 4.94392 9.93601L5.08792 10.176C5.08792 10.272 4.99192 10.368 4.94392 10.512ZM6.67192 15.984C6.71992 15.84 6.76792 15.744 6.71992 15.6C6.71992 15.504 6.52792 15.408 6.33592 15.312C6.38392 15.024 6.57592 14.784 6.52792 14.544C6.52792 14.4 6.47992 14.304 6.43192 14.208C6.38392 14.064 6.38392 13.92 6.28792 13.824C6.28792 13.824 6.14392 13.824 6.14392 13.872C6.09592 13.92 6.09592 14.016 6.04792 14.112C6.04792 14.016 5.99992 13.92 5.85592 13.872C5.80792 13.824 5.56792 13.92 5.51992 13.92C5.47192 14.064 5.47192 14.16 5.47192 14.304L5.37592 14.688C5.37592 14.928 5.37592 15.168 5.51992 15.36L5.75992 15.504C5.71192 15.552 5.71192 15.6 5.71192 15.648C5.61592 15.936 5.61592 16.176 5.37592 16.464C5.27992 16.56 5.18392 16.704 5.37592 16.752C5.47192 16.8 5.80792 16.752 5.95192 16.704V16.752C5.90392 16.8 5.85592 16.896 5.85592 16.944C5.85592 17.088 5.99992 17.28 6.14392 17.376C6.14392 17.424 6.33592 17.376 6.38392 17.376C6.43192 17.232 6.47992 17.04 6.43192 16.896C6.43192 16.848 6.47992 16.752 6.47992 16.704C6.47992 16.608 6.38392 16.56 6.33592 16.512C6.57592 16.368 6.62392 16.128 6.67192 15.984ZM5.13592 13.584C5.23192 13.632 5.23192 13.728 5.32792 13.824C5.32792 13.824 5.51992 13.824 5.51992 13.776C5.56792 13.68 5.56792 13.632 5.56792 13.584C5.56792 13.488 5.47192 13.392 5.56792 13.296C5.66392 13.152 5.75992 13.056 5.37592 13.008C5.32792 13.008 5.18392 13.008 5.23192 13.056C5.37592 13.104 5.42392 13.152 5.32792 13.248L5.08792 13.44C5.08792 13.488 5.08792 13.536 5.13592 13.584ZM4.31992 6.91201C4.36792 6.91201 4.55992 6.86401 4.55992 6.81601C4.51192 6.72001 4.36792 6.67201 4.31992 6.62401C4.27192 6.57601 4.12792 6.67201 4.17592 6.67201H4.12792C4.12792 6.76801 4.22392 6.86401 4.31992 6.91201ZM5.13592 12.288H5.03992L5.18392 12.672H5.27992C5.23192 12.528 5.23192 12.384 5.13592 12.288ZM48.7975 11.904C48.8935 15.744 48.8935 19.728 48.7495 23.52C48.6535 26.928 47.5495 44.832 40.6375 40.848C40.0135 40.464 39.8215 39.792 39.2455 39.456C38.5735 39.072 37.7575 39.264 37.1335 38.88C35.2615 37.824 34.3015 35.568 33.7735 33.6C32.7655 29.856 33.7255 25.104 32.3815 21.552C33.5335 21.024 33.2455 17.52 33.3415 16.608C33.5335 14.112 33.7735 11.808 34.5895 9.45601C35.1175 7.82401 35.6935 5.76001 36.9895 4.51201C38.6695 2.78401 41.0215 3.21601 43.2775 3.31201C45.6295 3.45601 46.0135 3.79201 47.0695 5.85601C48.0295 7.72801 48.7975 9.79201 48.7975 11.904ZM43.4695 23.856C43.6135 20.592 43.0855 17.424 43.0855 14.208C43.0855 11.376 42.9895 9.55201 42.0295 6.81601C37.1815 8.92801 38.0455 15.312 37.7575 19.824C37.6135 22.32 37.5655 24.672 37.8055 27.168C38.0455 29.424 39.9175 33.36 39.5815 35.184C41.7895 36.48 42.0775 34.368 42.5095 32.352C43.0855 29.664 43.3255 26.64 43.4695 23.856ZM47.0215 24C47.0695 23.664 47.1175 23.328 47.0215 22.992C46.9735 22.944 46.7815 22.896 46.6855 22.944C46.7335 22.896 46.7335 22.896 46.6855 22.848V22.416C46.6855 22.32 46.4935 22.176 46.6375 22.08V22.032C46.6375 21.984 46.6855 21.936 46.7335 21.888C46.8295 21.696 46.9735 21.504 46.9735 21.312C46.9735 21.168 46.9735 20.928 46.7815 20.736C46.7335 20.736 46.6855 20.736 46.5895 20.688C46.3975 20.592 46.7335 20.256 46.8295 20.16C46.9735 19.872 46.9735 19.584 46.6855 19.344C46.5895 19.296 46.2535 19.296 46.2535 19.392C46.1575 19.536 46.3015 19.68 46.3015 19.824C46.3015 19.968 46.3015 20.112 46.2535 20.256C46.2535 20.352 46.1575 20.592 46.3975 20.688C46.3015 20.736 46.2535 20.736 46.2535 20.784C46.1095 20.976 46.3015 21.216 46.2535 21.456C46.2535 21.744 45.9655 21.984 45.9175 22.272C45.8695 22.416 46.0615 22.608 46.1095 22.752C46.1575 22.752 46.1575 22.8 46.1575 22.8C46.0615 23.28 45.5335 23.664 45.8215 24.144C45.8215 24.192 46.1095 24.192 46.1575 24.144C46.3495 23.952 46.3015 23.76 46.3975 23.568L46.5895 23.28L46.4935 23.904C46.4455 24.24 46.4455 24.576 46.1575 24.864C45.9655 25.104 45.9175 25.344 46.0135 25.584C46.0135 25.728 46.0615 25.824 46.0615 25.92C46.0135 25.872 45.8695 25.824 45.8215 25.872C45.7255 26.016 45.8695 26.16 46.0135 26.304C46.1575 26.448 46.2055 26.64 46.1575 26.784C46.0615 26.784 45.9655 26.784 45.9175 26.832C45.8215 26.88 45.8695 26.976 45.9175 27.024C45.9655 27.168 46.0615 27.312 46.0135 27.408C46.0135 27.456 46.0135 27.456 46.0615 27.456C45.9655 27.6 45.9175 27.744 45.8695 27.888C45.7735 27.888 45.7255 27.888 45.7255 27.936C45.5815 28.032 45.5815 28.176 45.5335 28.32C45.4375 28.464 45.4375 28.656 45.4375 28.8C45.4375 28.896 45.4375 28.944 45.3415 29.04C45.2935 29.088 45.2455 29.088 45.2455 29.136C45.2455 29.232 45.4375 29.28 45.4855 29.376V29.424C45.4855 29.52 45.4855 29.616 45.5335 29.664C45.5335 29.76 45.5815 29.856 45.5815 29.904C45.5815 29.952 45.6775 29.952 45.6775 29.952C45.6775 29.808 45.5815 29.664 45.5815 29.52C45.6295 29.52 45.7735 29.568 45.8215 29.568C45.9175 29.52 45.9655 29.424 45.8695 29.328C45.7255 29.184 46.0135 29.136 46.0135 28.992C46.0135 28.8 46.0135 28.608 46.0615 28.464C46.1095 28.32 46.2535 28.128 46.1095 27.984V27.936C46.1095 27.936 46.1575 27.936 46.1575 27.888C46.3495 27.696 46.4455 27.456 46.4935 27.216C46.5895 27.024 46.7335 26.736 46.5895 26.544C46.5895 26.496 46.5415 26.448 46.4935 26.4H46.5415C46.4935 26.304 46.6375 26.208 46.6375 26.064C46.6855 25.92 46.6855 25.776 46.6375 25.632C46.6375 25.488 46.5895 25.392 46.5895 25.248C46.6375 25.104 46.7335 24.96 46.8295 24.816C46.9735 24.576 46.9735 24.24 47.0215 24ZM47.5495 15.312C47.5975 15.168 47.7415 14.976 47.5495 14.88C47.4535 14.784 47.1175 14.832 46.9255 14.88C46.9735 14.88 46.9735 14.832 46.9735 14.784C47.0215 14.688 47.0695 14.592 47.0695 14.448C47.0695 14.256 46.8775 13.968 46.7815 13.728C46.7335 13.728 46.5415 13.728 46.5415 13.776C46.4455 14.016 46.3975 14.256 46.4455 14.448C46.4935 14.592 46.4455 14.688 46.4455 14.832C46.4455 14.928 46.5415 15.024 46.5895 15.12C46.3495 15.36 46.3015 15.648 46.2055 15.888C46.1575 16.08 46.1095 16.272 46.1575 16.416C46.1575 16.656 46.3495 16.8 46.5415 16.944V16.992C46.3975 17.376 46.2535 17.76 46.2535 18.096C46.2535 18.288 46.2535 18.48 46.3015 18.672C46.3495 18.864 46.3015 19.056 46.3975 19.248C46.3975 19.296 46.4935 19.296 46.5415 19.248C46.5415 19.2 46.5895 19.104 46.6375 19.008C46.6375 19.152 46.6855 19.248 46.7815 19.344C46.8295 19.392 47.1175 19.344 47.1655 19.296C47.2615 19.152 47.2615 18.96 47.2615 18.816L47.4055 18.144C47.4535 17.808 47.4535 17.424 47.3575 17.088C47.3095 16.992 47.2135 16.896 47.1175 16.8C47.1175 16.752 47.1655 16.656 47.1655 16.608C47.2615 16.176 47.3095 15.744 47.5495 15.312ZM47.4535 20.208C47.5015 20.16 47.5015 20.064 47.4535 19.968C47.3575 19.824 47.4055 19.728 47.3575 19.584C47.3095 19.536 47.1175 19.536 47.1175 19.584L47.0215 19.872C47.0215 20.016 47.1175 20.16 47.0215 20.304C46.8775 20.544 46.7815 20.64 47.1175 20.832H47.2615C47.1175 20.688 47.0695 20.592 47.2135 20.448C47.3095 20.4 47.4055 20.304 47.4535 20.208ZM45.4855 30.672C45.5815 30.576 45.5815 30.384 45.5815 30.24C45.5815 30.192 45.3415 30.144 45.3415 30.192V30.624C45.3415 30.672 45.4855 30.72 45.4855 30.672ZM47.1655 22.032H47.3095L47.2135 21.408C47.2135 21.36 47.1655 21.36 47.1655 21.408C47.1655 21.6 47.1175 21.792 47.1655 22.032ZM46.2055 26.16C46.1095 26.064 46.0615 25.968 46.1095 25.92C46.1095 25.968 46.1095 26.016 46.1575 26.064C46.1575 26.064 46.2055 26.112 46.2055 26.16ZM46.5895 13.68H46.4935L46.5415 13.728L46.5895 13.68ZM46.1095 25.92H46.0615H46.1095ZM67.6244 13.488C67.4324 17.136 67.3844 20.784 67.4804 24.432C67.5764 30.384 67.9124 36.624 67.1924 42.24C67.1444 42.72 65.3204 42.144 65.3204 42.384C61.2404 42.144 62.4404 38.064 62.5844 35.04C62.7284 30.816 62.4404 26.688 62.6324 22.512C62.8244 18.432 62.6324 14.304 62.7764 10.176C62.9204 5.76001 61.3844 1.82401 67.1924 2.44801C66.9524 2.49601 66.6644 2.54401 66.4244 2.64001C69.1124 5.04001 67.7684 10.224 67.6244 13.488ZM66.2324 10.08C66.2804 10.032 66.3284 9.98401 66.3284 9.93601C66.3284 9.88801 66.1364 9.84001 65.9924 9.79201V9.74401C65.9924 9.64801 65.8964 9.50401 65.8004 9.40801H65.7524C65.7524 9.50401 65.8964 9.60001 65.8964 9.74401C65.8484 9.69601 65.7044 9.69601 65.7044 9.74401C65.5604 9.79201 65.5604 9.84001 65.6564 9.88801C65.8484 9.98401 65.6084 10.08 65.6084 10.176C65.6564 10.32 65.6564 10.464 65.6084 10.608C65.6084 10.704 65.4644 10.848 65.6084 10.944C65.6084 10.944 65.6564 10.944 65.6564 10.992H65.6084C65.4164 11.184 65.3684 11.376 65.3204 11.52C65.2724 11.664 65.1284 11.904 65.2724 12.048C65.3204 12.096 65.3684 12.096 65.3684 12.144C65.3684 12.24 65.2724 12.336 65.2724 12.384C65.2244 12.528 65.2244 12.624 65.2724 12.72C65.3204 12.816 65.3204 12.912 65.3204 13.008C65.3204 13.152 65.2244 13.248 65.1284 13.344C64.9844 13.536 64.9844 13.776 64.9844 13.968C64.9364 14.208 64.8884 14.448 64.9844 14.688C64.9844 14.736 65.1764 14.784 65.2724 14.784H65.3204C65.2724 14.928 65.2724 15.024 65.3204 15.12C65.3204 15.216 65.4644 15.312 65.3684 15.408C65.3684 15.456 65.3204 15.504 65.2724 15.552C65.1764 15.696 65.0324 15.792 65.0324 15.936C65.0324 16.08 65.0324 16.272 65.2244 16.368C65.2244 16.416 65.3204 16.416 65.3684 16.416C65.5604 16.512 65.2244 16.752 65.1284 16.848C64.9844 17.04 64.9844 17.232 65.2724 17.424C65.3684 17.472 65.6564 17.472 65.7044 17.424C65.8004 17.328 65.6564 17.184 65.6564 17.088C65.6564 16.992 65.6564 16.896 65.7044 16.8C65.7524 16.656 65.8004 16.512 65.6084 16.416C65.6564 16.416 65.7044 16.416 65.7524 16.368C65.8484 16.224 65.6564 16.032 65.7044 15.84C65.7524 15.648 66.0404 15.456 66.0884 15.264C66.1364 15.168 65.9444 15.024 65.8484 14.88V14.832C65.9444 14.496 66.4244 14.208 66.1844 13.824C66.1364 13.776 65.8484 13.824 65.8004 13.824C65.6084 13.968 65.7044 14.16 65.5604 14.304L65.4164 14.496C65.4164 14.352 65.4164 14.16 65.4644 14.016C65.5124 13.776 65.5124 13.536 65.8004 13.296C65.9924 13.104 65.9924 12.96 65.8964 12.72C65.8484 12.672 65.8004 12.624 65.8004 12.576C65.8484 12.576 66.0404 12.576 66.0884 12.528C66.1844 12.432 66.0404 12.288 65.8964 12.192C65.7044 12.096 65.7044 11.952 65.6564 11.856C65.7524 11.856 65.8964 11.808 65.9444 11.808C66.0404 11.76 65.9444 11.712 65.9444 11.664C65.8484 11.568 65.7524 11.472 65.8004 11.376C65.8004 11.376 65.8004 11.328 65.7524 11.328L65.8964 10.992C65.9444 10.992 65.9924 10.992 66.0404 10.944C66.1844 10.848 66.1364 10.752 66.1844 10.656C66.2324 10.512 66.1844 10.368 66.1844 10.272C66.1844 10.176 66.1364 10.128 66.2324 10.08ZM65.5604 20.064C65.6564 19.92 65.7044 19.776 65.7044 19.632C65.6564 19.488 65.5124 19.344 65.3204 19.2C65.4644 18.912 65.6564 18.624 65.6564 18.384C65.6564 18.24 65.6564 18.096 65.6084 17.952C65.6084 17.808 65.6564 17.664 65.5604 17.52C65.5604 17.472 65.4164 17.472 65.4164 17.52L65.2724 17.76C65.2724 17.664 65.2244 17.568 65.1284 17.424H64.7924C64.6964 17.568 64.6964 17.712 64.6484 17.808L64.5044 18.288C64.4564 18.576 64.4084 18.816 64.5044 19.056C64.5524 19.152 64.6484 19.248 64.7444 19.296L64.6484 19.44C64.5524 19.776 64.5044 20.064 64.2164 20.4C64.1204 20.496 64.0244 20.64 64.1684 20.736C64.3124 20.784 64.6004 20.784 64.7924 20.736C64.7924 20.784 64.7444 20.784 64.7444 20.832C64.6964 20.88 64.6484 20.976 64.6484 21.024C64.6004 21.216 64.7444 21.408 64.8404 21.6C64.8884 21.6 65.0804 21.648 65.1284 21.6C65.1764 21.408 65.2724 21.264 65.2244 21.072C65.2244 20.976 65.2724 20.88 65.2724 20.832C65.3204 20.736 65.2244 20.688 65.1284 20.592C65.4164 20.448 65.4644 20.208 65.5604 20.064ZM64.5044 16.752C64.4564 16.8 64.4564 16.896 64.5044 16.944C64.6004 17.04 64.5524 17.136 64.6004 17.232C64.6484 17.28 64.8404 17.28 64.8404 17.28C64.8884 17.184 64.9364 17.088 64.9364 17.04C64.9364 16.896 64.8404 16.8 64.9364 16.704C65.1284 16.56 65.2244 16.464 64.8404 16.32H64.6964C64.8404 16.416 64.8884 16.512 64.7444 16.608L64.5044 16.752ZM65.6564 8.83201C65.6084 8.92801 65.7044 9.02401 65.7524 9.16801H65.9924L65.8484 8.83201C65.8004 8.78401 65.6564 8.78401 65.6564 8.83201ZM64.8404 15.456C64.7924 15.408 64.6964 15.408 64.6964 15.456C64.7444 15.6 64.7444 15.744 64.7444 15.888H64.8404V15.456ZM65.7044 12.336C65.8004 12.384 65.8484 12.48 65.8004 12.528C65.7524 12.48 65.7524 12.432 65.7524 12.384C65.7524 12.384 65.7044 12.384 65.7044 12.336ZM65.1284 21.696C65.1764 21.696 65.1764 21.648 65.1764 21.648H65.0324C65.0804 21.648 65.0804 21.696 65.1284 21.696ZM98.4911 27.984C99.0191 30.576 96.5231 34.608 96.2351 37.296C95.9471 40.128 95.6591 40.368 93.1151 41.52C90.4751 42.672 87.4991 43.728 84.8111 41.856C80.9711 39.216 82.6511 31.968 82.1711 27.888C81.4031 21.888 81.4031 13.728 83.2751 7.92001C85.2911 1.72801 92.1551 6.67572e-06 97.0511 4.12801C97.0511 4.12801 97.0991 4.17601 97.1471 4.17601C97.2431 7.20001 99.9311 19.008 95.2271 18.72C91.3391 18.48 92.2991 15.792 92.4431 13.296C92.5391 11.52 92.8271 5.90401 90.1391 6.19201C85.9151 6.62401 87.6911 17.616 87.4511 20.496C87.2591 23.568 86.8751 26.064 87.3071 29.136C87.6431 31.824 86.7791 35.136 88.7471 37.296C93.0191 41.904 93.6431 30.432 94.1711 28.32C94.4591 27.168 94.4111 26.448 95.5151 26.112C96.7631 25.68 98.2511 26.928 98.4911 27.984ZM84.9551 29.76C85.0031 29.52 85.0511 29.232 84.9071 28.992C84.9071 28.944 84.7151 28.944 84.5711 28.992V28.944C84.6191 28.944 84.6671 28.944 84.5711 28.896C84.6191 28.8 84.6191 28.704 84.5711 28.608C84.5711 28.512 84.3791 28.368 84.4751 28.32C84.5231 28.272 84.5711 28.224 84.5711 28.176C84.7151 28.032 84.8111 27.888 84.8111 27.744C84.8591 27.648 84.8111 27.456 84.6191 27.36C84.6191 27.312 84.5231 27.312 84.4271 27.312C84.2351 27.216 84.6191 26.976 84.6671 26.88C84.8591 26.688 84.8591 26.448 84.5231 26.304C84.4751 26.256 84.1391 26.256 84.0911 26.304C83.9951 26.448 84.1391 26.544 84.1391 26.64C84.1391 26.736 84.1391 26.88 84.0911 26.976C84.0911 27.072 83.9951 27.216 84.2351 27.312C84.1871 27.312 84.1391 27.312 84.0911 27.36C83.9951 27.504 84.1871 27.696 84.1391 27.888C84.0911 28.08 83.8511 28.272 83.8031 28.512C83.7551 28.608 83.9471 28.752 84.0431 28.848V28.896C83.9471 29.232 83.4671 29.568 83.7551 29.904C83.8031 29.952 84.0911 29.952 84.1391 29.904C84.2831 29.76 84.2351 29.616 84.3311 29.424L84.5231 29.232C84.4751 29.376 84.4751 29.568 84.4751 29.712C84.4271 29.952 84.4271 30.192 84.1871 30.432C83.9951 30.624 83.9951 30.816 84.0911 31.008C84.1871 31.104 84.2351 31.248 84.2831 31.344L84.3311 31.392C84.2351 31.344 84.1871 31.296 84.1871 31.248C84.1871 31.2 83.9471 31.2 83.9471 31.248C83.8511 31.344 83.9951 31.44 84.1391 31.536C84.3311 31.632 84.3791 31.776 84.3791 31.92C84.2831 31.92 84.1871 31.92 84.1391 31.968C83.9951 32.016 84.0911 32.064 84.1391 32.112C84.2351 32.16 84.3311 32.304 84.2831 32.4H84.3311L84.1871 32.784H84.0911C83.9471 32.928 83.9951 33.024 83.9471 33.12C83.8991 33.264 83.9471 33.408 83.9951 33.504C83.9951 33.6 83.9951 33.648 83.9471 33.696C83.8991 33.744 83.8511 33.792 83.8511 33.84C83.8991 33.888 84.0911 33.936 84.1871 33.936V33.984C84.1871 34.128 84.3311 34.224 84.4271 34.368C84.4271 34.368 84.4751 34.368 84.4751 34.32L84.2831 34.032H84.5231C84.6191 33.936 84.6191 33.888 84.5231 33.84C84.3311 33.744 84.5711 33.648 84.5711 33.552C84.5231 33.408 84.4751 33.264 84.5231 33.168C84.5231 33.024 84.6671 32.88 84.4751 32.784L84.5231 32.736C84.6671 32.544 84.7151 32.352 84.7631 32.208C84.8111 32.016 84.9551 31.824 84.7631 31.632C84.7151 31.632 84.7151 31.584 84.6671 31.584V31.536C84.6671 31.488 84.7631 31.392 84.7631 31.296C84.7631 31.2 84.8111 31.104 84.7151 31.008C84.6671 30.912 84.6671 30.816 84.6671 30.72C84.6671 30.576 84.7631 30.48 84.8591 30.336C84.9551 30.144 84.9551 29.952 84.9551 29.76ZM85.5311 23.28C85.6271 23.232 85.7231 23.088 85.5791 22.992C85.4351 22.944 85.1471 22.944 84.9551 22.992C84.9551 22.944 84.9551 22.944 85.0031 22.896L85.0991 22.656C85.0991 22.512 84.9551 22.272 84.8591 22.128C84.8591 22.08 84.6191 22.08 84.6191 22.128C84.5231 22.272 84.4751 22.464 84.5231 22.656C84.5231 22.704 84.4751 22.8 84.4271 22.896C84.4271 22.992 84.5231 23.04 84.5711 23.136C84.3311 23.28 84.2831 23.52 84.1871 23.664C84.0911 23.808 84.0431 23.952 84.0911 24.096C84.0911 24.24 84.2831 24.384 84.4271 24.48V24.528C84.3311 24.816 84.1391 25.104 84.0911 25.344C84.0911 25.488 84.1391 25.632 84.1391 25.776C84.1871 25.92 84.1391 26.064 84.2351 26.208C84.2351 26.256 84.3791 26.256 84.3791 26.208L84.5231 25.968C84.5231 26.064 84.5711 26.16 84.6671 26.256C84.7151 26.304 84.9551 26.304 85.0031 26.256C85.0991 26.112 85.0991 26.016 85.1471 25.872C85.1471 25.728 85.1951 25.536 85.2431 25.392C85.3391 25.152 85.3871 24.864 85.2431 24.624L85.0511 24.384C85.0511 24.336 85.0511 24.288 85.0991 24.24C85.1951 23.952 85.2431 23.616 85.5311 23.28ZM85.3391 26.928C85.3871 26.88 85.3391 26.832 85.2911 26.736L85.1951 26.448C85.1951 26.4 84.9551 26.4 84.9551 26.448L84.8591 26.688C84.8591 26.784 84.9551 26.88 84.8591 26.976C84.7151 27.168 84.6191 27.264 85.0031 27.408C85.0031 27.408 85.1471 27.408 85.1471 27.36C85.0031 27.264 84.9551 27.216 85.0991 27.12C85.1951 27.072 85.2911 27.024 85.3391 26.928ZM84.6191 34.896C84.6191 34.8 84.5711 34.704 84.5231 34.608C84.4751 34.56 84.2831 34.56 84.2831 34.608C84.2831 34.704 84.3791 34.848 84.4271 34.944C84.4751 34.944 84.6191 34.944 84.6191 34.896ZM85.0511 28.272H85.1471C85.1471 28.128 85.0991 27.936 85.0991 27.792H85.0031C85.0031 27.936 85.0031 28.128 85.0511 28.272ZM123.541 4.22401C126.757 9.16801 117.781 5.23201 116.629 8.01601C115.813 10.032 115.813 19.584 117.349 20.4C118.357 20.928 123.781 19.104 123.541 22.128C123.349 24.48 119.509 23.376 118.165 23.808C114.277 25.104 116.581 33.84 116.389 37.296C117.349 37.152 124.021 35.712 122.725 39.12C122.485 39.744 116.101 41.472 115.045 41.568C108.517 42.24 111.397 31.92 111.493 28.272C111.733 21.504 111.157 14.64 111.253 7.92001C111.253 5.47201 111.061 3.79201 114.037 3.26401C117.205 2.64001 120.565 2.97601 123.541 4.22401ZM114.037 26.112C114.037 25.776 114.085 25.44 113.941 25.104C113.941 25.056 113.749 25.056 113.653 25.056C113.701 25.056 113.701 25.008 113.653 25.008C113.653 24.864 113.653 24.72 113.605 24.528C113.605 24.432 113.413 24.288 113.509 24.192C113.557 24.144 113.605 24.048 113.605 24C113.749 23.808 113.845 23.664 113.845 23.424C113.845 23.28 113.845 23.04 113.653 22.896C113.605 22.848 113.509 22.848 113.461 22.848C113.269 22.704 113.605 22.416 113.701 22.272C113.845 22.032 113.845 21.696 113.509 21.504C113.413 21.456 113.125 21.456 113.077 21.504C112.981 21.648 113.125 21.84 113.125 21.984C113.173 22.128 113.125 22.224 113.125 22.368C113.077 22.512 113.029 22.752 113.269 22.848C113.173 22.848 113.125 22.896 113.125 22.896C112.981 23.136 113.173 23.376 113.173 23.616C113.125 23.904 112.885 24.144 112.837 24.432C112.789 24.576 112.981 24.768 113.077 24.912L113.125 24.96H113.077C113.029 25.44 112.549 25.872 112.837 26.304C112.885 26.4 113.125 26.352 113.173 26.304C113.365 26.112 113.317 25.92 113.413 25.68L113.557 25.392C113.557 25.632 113.557 25.824 113.509 26.064C113.461 26.352 113.509 26.688 113.269 27.024C113.077 27.264 113.077 27.504 113.173 27.792C113.269 27.936 113.317 28.08 113.365 28.224L113.413 28.272C113.317 28.224 113.269 28.176 113.269 28.08C113.269 28.032 113.029 28.032 113.029 28.08C112.933 28.224 113.077 28.368 113.269 28.512C113.413 28.608 113.461 28.8 113.461 28.944C113.365 28.992 113.269 28.992 113.221 29.04C113.125 29.088 113.173 29.184 113.221 29.232C113.317 29.328 113.413 29.472 113.365 29.616H113.413C113.365 29.808 113.317 29.952 113.317 30.096C113.221 30.096 113.173 30.144 113.173 30.144C113.029 30.288 113.077 30.48 113.029 30.624C112.981 30.768 113.077 30.96 113.077 31.104C113.077 31.2 113.077 31.248 113.029 31.344C112.981 31.392 112.933 31.44 112.933 31.488C112.981 31.584 113.173 31.632 113.269 31.68V31.728C113.269 31.92 113.413 32.064 113.509 32.208H113.557L113.365 31.776C113.413 31.824 113.557 31.824 113.605 31.776C113.701 31.68 113.701 31.632 113.605 31.536C113.413 31.44 113.653 31.296 113.653 31.152C113.605 31.008 113.557 30.816 113.605 30.624C113.605 30.48 113.749 30.288 113.605 30.144H113.557C113.557 30.096 113.605 30.096 113.605 30.048C113.749 29.856 113.797 29.568 113.845 29.328C113.893 29.136 114.037 28.848 113.845 28.656C113.845 28.608 113.797 28.56 113.749 28.512C113.749 28.416 113.845 28.32 113.845 28.176C113.845 28.032 113.845 27.888 113.797 27.744C113.749 27.648 113.749 27.504 113.749 27.36C113.701 27.216 113.845 27.072 113.893 26.928C114.037 26.64 113.989 26.352 114.037 26.112ZM114.469 17.52C114.565 17.376 114.661 17.232 114.517 17.088C114.421 17.04 114.085 17.04 113.893 17.088C113.941 17.04 113.941 16.992 113.941 16.992C113.989 16.848 114.037 16.752 114.037 16.656C114.085 16.416 113.941 16.176 113.845 15.936C113.797 15.888 113.605 15.888 113.605 15.936C113.509 16.128 113.413 16.368 113.461 16.608C113.461 16.704 113.413 16.848 113.413 16.944C113.413 17.04 113.461 17.184 113.557 17.232C113.269 17.472 113.221 17.808 113.125 18C113.029 18.192 113.029 18.384 113.029 18.576C113.029 18.768 113.221 18.912 113.413 19.104L113.365 19.152C113.269 19.536 113.077 19.872 113.077 20.256C113.077 20.448 113.125 20.64 113.125 20.832C113.173 21.024 113.125 21.216 113.221 21.408H113.365C113.413 21.264 113.461 21.168 113.461 21.024C113.509 21.168 113.557 21.312 113.653 21.456C113.701 21.504 113.941 21.504 113.989 21.456C114.085 21.264 114.085 21.12 114.085 20.928L114.229 20.304C114.277 19.968 114.325 19.584 114.181 19.248C114.181 19.152 114.085 19.056 113.989 18.96C113.989 18.912 114.037 18.816 114.037 18.768C114.181 18.336 114.229 17.952 114.469 17.52ZM114.325 22.368C114.373 22.272 114.325 22.176 114.277 22.128L114.181 21.696C114.181 21.648 113.941 21.648 113.941 21.696C113.893 21.792 113.893 21.888 113.893 22.032C113.845 22.176 113.941 22.272 113.845 22.416C113.701 22.656 113.605 22.752 113.989 22.944C114.037 22.992 114.181 22.944 114.133 22.944C113.989 22.8 113.941 22.704 114.085 22.608L114.325 22.368ZM113.653 32.976C113.701 32.832 113.653 32.688 113.557 32.544C113.557 32.496 113.317 32.496 113.317 32.544L113.509 32.976C113.509 33.024 113.653 33.024 113.653 32.976ZM114.085 24.144C114.085 24.144 114.181 24.144 114.181 24.096C114.133 23.904 114.133 23.712 114.133 23.52C114.133 23.472 114.037 23.472 114.037 23.52C114.037 23.712 114.037 23.904 114.085 24.144ZM113.653 15.84H113.557L113.605 15.888C113.605 15.888 113.653 15.888 113.653 15.84Z" fill="#1D4F72"/>
</svg>
