<svg width="317" height="46" viewBox="0 0 317 46" fill="none" xmlns="http://www.w3.org/2000/svg">
<path d="M21.312 2.59197C23.568 5.85596 19.632 5.85596 17.616 5.90397C15.12 5.99996 13.968 5.66397 13.728 8.20796C13.44 11.04 13.68 14.064 13.728 16.896C13.776 22.56 14.208 28.176 14.352 33.84C14.4 35.952 15.744 40.272 13.68 41.28C12.192 42 9.79204 40.896 9.21604 39.36C8.54404 37.68 9.50404 34.176 9.40804 32.304C9.31204 29.952 9.36004 27.6 9.36004 25.2C9.31204 22.128 9.40804 19.104 9.31204 16.032C9.26404 13.536 9.79204 10.32 9.16804 7.91997C9.26404 8.54397 8.68804 7.53596 9.02404 7.63197C6.86404 6.47996 3.21604 9.07197 1.05604 7.15196C0.0480399 6.28796 3.98755e-05 4.22396 0.72004 3.26397C1.92004 1.53596 4.65604 3.59996 6.57604 3.40796C7.77604 3.26397 8.88004 2.87996 9.93604 2.44796C12 1.58396 12.384 2.01596 14.496 1.87196C16.704 1.72797 19.536 -3.52859e-05 21.312 2.59197ZM12.048 28.224C12.048 28.032 12.192 27.696 12 27.504L11.904 27.408C11.904 27.312 11.952 27.168 12 27.072C12 26.928 12 26.784 11.904 26.64C11.856 26.544 11.808 26.4 11.808 26.256C11.808 26.112 11.904 25.968 12 25.824C12.096 25.536 12.048 25.248 12.048 25.008C12.096 24.672 12.096 24.336 11.952 24.048C11.904 23.952 11.712 23.952 11.616 24C11.664 23.952 11.664 23.952 11.616 23.952C11.616 23.808 11.616 23.664 11.568 23.52C11.568 23.424 11.376 23.232 11.472 23.136C11.472 23.088 11.52 23.04 11.568 22.992C11.664 22.752 11.76 22.608 11.76 22.416C11.76 22.224 11.712 21.984 11.52 21.84H11.328C11.136 21.696 11.472 21.408 11.52 21.264C11.664 20.976 11.664 20.688 11.328 20.496C11.232 20.448 10.896 20.448 10.896 20.544C10.8 20.688 10.944 20.832 10.992 20.976C10.992 21.12 10.992 21.264 10.944 21.408C10.944 21.504 10.896 21.744 11.136 21.84C11.04 21.84 10.992 21.888 10.992 21.888C10.896 22.128 11.088 22.368 11.088 22.608C11.04 22.848 10.8 23.136 10.8 23.424C10.752 23.568 10.944 23.712 11.04 23.856C11.04 23.904 11.088 23.904 11.088 23.904V23.952C10.992 24.384 10.56 24.864 10.896 25.296C10.896 25.344 11.184 25.296 11.232 25.248C11.376 25.056 11.328 24.864 11.424 24.624L11.568 24.336V24.96C11.52 25.296 11.568 25.632 11.328 25.968C11.184 26.208 11.184 26.448 11.28 26.688L11.424 26.976C11.376 26.928 11.184 26.976 11.136 27.024C11.088 27.168 11.232 27.264 11.376 27.408C11.568 27.504 11.616 27.696 11.616 27.84C11.52 27.84 11.424 27.888 11.376 27.936C11.28 27.984 11.376 28.08 11.424 28.128C11.472 28.224 11.616 28.368 11.568 28.464C11.568 28.512 11.616 28.512 11.616 28.512C11.616 28.656 11.568 28.848 11.52 28.992C11.472 28.992 11.424 29.04 11.376 29.04C11.28 29.184 11.328 29.328 11.28 29.472C11.232 29.664 11.328 29.808 11.328 30C11.328 30.096 11.376 30.144 11.28 30.24C11.232 30.288 11.232 30.336 11.232 30.384C11.232 30.48 11.424 30.48 11.568 30.528V30.624C11.568 30.768 11.712 30.912 11.808 31.056H11.856L11.664 30.624C11.712 30.672 11.856 30.624 11.904 30.624C12 30.528 12 30.48 11.904 30.384C11.712 30.288 11.952 30.144 11.904 30C11.856 29.856 11.808 29.664 11.856 29.472C11.856 29.328 12 29.136 11.808 28.992H11.76C11.808 28.992 11.808 28.944 11.808 28.944C11.952 28.704 12 28.464 12.048 28.224ZM12.096 16.512C12.192 16.416 12.288 16.224 12.144 16.128C12 16.032 11.712 16.08 11.52 16.128C11.52 16.08 11.52 16.032 11.568 16.032C11.568 15.888 11.616 15.792 11.664 15.696C11.664 15.456 11.52 15.216 11.424 14.976H11.136C11.088 15.216 11.04 15.456 11.04 15.696C11.088 15.792 11.04 15.888 11.04 16.032C10.992 16.128 11.088 16.224 11.184 16.32C10.896 16.512 10.848 16.848 10.8 17.04C10.704 17.232 10.704 17.424 10.704 17.616C10.704 17.808 10.896 17.952 11.088 18.144V18.192C10.992 18.576 10.848 18.912 10.848 19.296C10.848 19.488 10.896 19.68 10.896 19.824C10.944 20.016 10.944 20.208 11.04 20.4C11.04 20.448 11.136 20.448 11.184 20.4L11.28 20.064C11.28 20.208 11.328 20.352 11.424 20.448C11.472 20.496 11.76 20.496 11.808 20.4L11.904 19.92C11.904 19.68 11.952 19.488 12 19.296C12.048 18.96 12.048 18.576 11.904 18.288C11.856 18.144 11.76 18.048 11.664 18C11.712 17.904 11.712 17.856 11.712 17.76C11.808 17.376 11.856 16.944 12.096 16.512ZM12.192 21.312C12.192 21.216 12.192 21.12 12.144 21.072C12.048 20.928 12.048 20.784 12 20.64C12 20.64 11.76 20.64 11.76 20.688C11.712 20.784 11.712 20.88 11.712 20.976C11.712 21.12 11.808 21.264 11.712 21.408C11.568 21.6 11.472 21.744 11.856 21.888C11.904 21.936 12.048 21.888 12 21.888C11.856 21.792 11.808 21.648 11.952 21.552L12.192 21.312ZM12 31.824C12.048 31.68 11.952 31.536 11.904 31.392C11.856 31.344 11.664 31.344 11.664 31.392C11.712 31.536 11.76 31.68 11.856 31.824C11.856 31.872 12 31.824 12 31.824ZM12 23.04C12 23.088 12.144 23.04 12.144 23.04L12 22.416C12 22.416 11.952 22.416 11.952 22.464C11.952 22.656 11.952 22.848 12 23.04ZM11.424 26.976C11.424 27.024 11.472 27.072 11.52 27.12V27.216C11.472 27.12 11.424 27.072 11.424 26.976ZM11.088 14.88V14.928H11.184C11.184 14.928 11.136 14.88 11.088 14.88ZM45.4669 36.816C46.3789 38.784 50.6029 43.488 47.5309 44.304C44.4589 45.12 42.9229 40.8 41.7229 38.688C40.8109 37.104 38.7949 29.952 36.8749 30C36.7309 32.304 36.3949 34.896 37.1629 37.152C37.6909 38.832 39.0829 41.04 37.1629 42.336C32.1229 45.744 32.4109 33.36 32.3629 31.488C32.2669 26.832 32.8429 22.128 32.8909 17.472C32.8909 14.496 33.0349 11.52 33.0349 8.59197C32.9869 6.04796 32.3149 4.60797 34.1389 2.63997C35.6749 2.92796 36.8269 3.21597 38.2669 2.92796C40.0429 2.49596 41.0509 1.91997 42.9709 2.92796C45.9949 4.51196 46.4749 8.25596 46.6189 11.328C46.8589 15.12 46.2829 18.864 44.5069 22.32C43.2109 24.816 39.9469 25.728 41.2909 28.608C42.5389 31.392 44.1709 34.032 45.4669 36.816ZM37.3069 23.568C40.6669 21.888 45.1309 6.95996 40.1869 6.71996C35.7709 6.52797 37.3069 20.976 37.3069 23.568ZM35.1949 31.632H35.1469V31.584C35.2909 31.344 35.7229 31.104 35.4829 30.864C35.4349 30.816 35.1469 30.864 35.0989 30.864C34.9069 31.008 35.0029 31.104 34.8589 31.2L34.7149 31.392C34.7149 31.248 34.7149 31.152 34.7629 31.008C34.8109 30.864 34.8109 30.672 35.0509 30.48C35.2429 30.336 35.2429 30.24 35.1469 30.096C35.0509 30 35.0509 29.904 34.9549 29.856C34.9549 29.856 34.9549 29.808 34.9069 29.808C35.0029 29.856 35.0509 29.904 35.0509 29.904C35.0509 29.952 35.2909 29.952 35.2909 29.904C35.3869 29.856 35.2429 29.76 35.0989 29.712C34.9549 29.616 34.9069 29.52 34.8589 29.424H35.1469C35.2429 29.376 35.1469 29.328 35.1469 29.28C35.0509 29.232 34.9549 29.184 35.0029 29.088H34.9549C34.9549 28.992 35.0509 28.896 35.0509 28.8H35.1949C35.3389 28.704 35.2909 28.608 35.3389 28.56C35.3869 28.464 35.3389 28.368 35.3389 28.272C35.3389 28.224 35.2909 28.176 35.3869 28.128C35.4349 28.128 35.4829 28.08 35.4349 28.08C35.4349 28.032 35.2429 27.984 35.1469 27.984V27.936C35.1469 27.84 35.0029 27.744 34.9069 27.696H34.8589L35.0509 27.888C34.9549 27.888 34.8589 27.888 34.8109 27.936C34.7149 27.984 34.6669 27.984 34.8109 28.032C34.9549 28.128 34.7149 28.176 34.7629 28.272C34.7629 28.368 34.8109 28.464 34.7629 28.56C34.7629 28.608 34.6189 28.704 34.8109 28.8L34.7629 28.848C34.6189 28.992 34.5709 29.088 34.5229 29.232C34.4749 29.328 34.3309 29.52 34.4749 29.616C34.5229 29.616 34.5709 29.664 34.6189 29.664C34.5709 29.664 34.5709 29.664 34.5709 29.712C34.6189 29.76 34.5229 29.808 34.4749 29.856C34.4749 29.952 34.4749 30 34.5229 30.096C34.5709 30.192 34.5709 30.24 34.5709 30.288C34.5709 30.384 34.4749 30.48 34.3789 30.576C34.2829 30.72 34.2829 30.864 34.2829 31.008C34.2349 31.2 34.1869 31.344 34.2829 31.536C34.3309 31.584 34.5229 31.584 34.6189 31.536V31.584C34.6189 31.68 34.6189 31.776 34.6669 31.824C34.6669 31.872 34.8109 31.968 34.7149 32.016C34.7149 32.064 34.6669 32.112 34.6189 32.112L34.3789 32.448C34.3789 32.544 34.3789 32.64 34.6189 32.736H34.7629C35.0029 32.832 34.6189 32.976 34.5229 33.072C34.3789 33.216 34.3789 33.36 34.7149 33.504C34.7629 33.504 35.0989 33.504 35.1469 33.456C35.2429 33.408 35.0989 33.312 35.0989 33.216C35.0509 33.168 35.0989 33.072 35.0989 33.024C35.1469 32.928 35.1949 32.784 35.0029 32.736H35.1469C35.2429 32.592 35.0509 32.448 35.0989 32.352C35.1469 32.208 35.3869 32.064 35.4349 31.872C35.4349 31.824 35.2909 31.728 35.1949 31.632ZM35.0989 35.376C35.1469 35.28 35.1949 35.184 35.1949 35.04C35.1469 34.944 35.0029 34.896 34.8109 34.8V34.752C34.9549 34.56 35.0989 34.368 35.1469 34.176C35.1469 34.032 35.0989 33.936 35.0509 33.84C35.0509 33.744 35.0989 33.648 35.0029 33.552C35.0029 33.504 34.8589 33.504 34.8589 33.552L34.7149 33.744C34.7149 33.648 34.6669 33.6 34.5709 33.504H34.2349C34.1389 33.6 34.1389 33.696 34.0909 33.792C34.0909 33.936 34.0429 34.032 33.9949 34.176C33.8989 34.32 33.8989 34.512 33.9949 34.704L34.2349 34.848L34.1389 34.992C34.0429 35.232 33.9949 35.424 33.7069 35.664C33.6589 35.76 33.5629 35.856 33.7069 35.904C33.8029 35.952 34.1389 35.952 34.2829 35.904V35.952C34.2349 36 34.1869 36.048 34.1869 36.144C34.1389 36.24 34.2829 36.384 34.3789 36.528H34.5709C34.6189 36.576 34.6189 36.576 34.6669 36.576L34.6189 36.528C34.7149 36.384 34.8109 36.24 34.7629 36.144C34.7629 36.096 34.8109 36 34.8109 35.952C34.8109 35.904 34.7149 35.856 34.6669 35.808C34.9549 35.664 35.0029 35.472 35.0989 35.376ZM33.8989 33.024C33.8509 33.072 33.8989 33.12 33.9469 33.168L34.0429 33.408H34.2829C34.3309 33.312 34.3309 33.264 34.3309 33.216C34.3789 33.12 34.2829 33.072 34.3789 32.976C34.5229 32.88 34.6189 32.784 34.2349 32.688C34.2349 32.688 34.0429 32.688 34.0909 32.736C34.2349 32.784 34.2829 32.832 34.1389 32.928C34.0429 32.976 33.9469 32.976 33.8989 33.024ZM34.7629 27.264C34.7149 27.36 34.7629 27.408 34.8589 27.504H35.0989L34.9069 27.264C34.9069 27.216 34.7629 27.264 34.7629 27.264ZM34.1869 32.064H34.0429C34.0909 32.208 34.1389 32.304 34.1389 32.4H34.1869C34.1869 32.304 34.2349 32.208 34.1869 32.064ZM66.1392 13.344C65.9472 16.992 65.8992 20.64 65.9952 24.288C66.0912 30.24 66.4272 36.48 65.7072 42.096C65.6592 42.576 63.8352 42 63.8352 42.24C59.7552 42 60.9552 37.92 61.0992 34.896C61.2432 30.672 60.9552 26.544 61.1472 22.368C61.3392 18.288 61.1472 14.16 61.2912 10.032C61.4352 5.61596 59.8992 1.67997 65.7072 2.30396C65.4672 2.35197 65.1792 2.39997 64.9392 2.49596C67.6272 4.89596 66.2832 10.08 66.1392 13.344ZM64.7472 9.93597C64.7952 9.88797 64.8432 9.83996 64.8432 9.79196C64.8432 9.74397 64.6512 9.69597 64.5072 9.64797V9.59996C64.5072 9.50397 64.4112 9.35996 64.3152 9.26397H64.2672C64.2672 9.35996 64.4112 9.45597 64.4112 9.59996C64.3632 9.55196 64.2192 9.55196 64.2192 9.59996C64.0752 9.64797 64.0752 9.69597 64.1712 9.74397C64.3632 9.83996 64.1232 9.93597 64.1232 10.032C64.1712 10.176 64.1712 10.32 64.1232 10.464C64.1232 10.56 63.9792 10.704 64.1232 10.8C64.1232 10.8 64.1712 10.8 64.1712 10.848H64.1232C63.9312 11.04 63.8832 11.232 63.8352 11.376C63.7872 11.52 63.6432 11.76 63.7872 11.904C63.8352 11.952 63.8832 11.952 63.8832 12C63.8832 12.096 63.7872 12.192 63.7872 12.24C63.7392 12.384 63.7392 12.48 63.7872 12.576C63.8352 12.672 63.8352 12.768 63.8352 12.864C63.8352 13.008 63.7392 13.104 63.6432 13.2C63.4992 13.392 63.4992 13.632 63.4992 13.824C63.4512 14.064 63.4032 14.304 63.4992 14.544C63.4992 14.592 63.6912 14.64 63.7872 14.64H63.8352C63.7872 14.784 63.7872 14.88 63.8352 14.976C63.8352 15.072 63.9792 15.168 63.8832 15.264C63.8832 15.312 63.8352 15.36 63.7872 15.408C63.6912 15.552 63.5472 15.648 63.5472 15.792C63.5472 15.936 63.5472 16.128 63.7392 16.224C63.7392 16.272 63.8352 16.272 63.8832 16.272C64.0752 16.368 63.7392 16.608 63.6432 16.704C63.4992 16.896 63.4992 17.088 63.7872 17.28C63.8832 17.328 64.1712 17.328 64.2192 17.28C64.3152 17.184 64.1712 17.04 64.1712 16.944C64.1712 16.848 64.1712 16.752 64.2192 16.656C64.2672 16.512 64.3152 16.368 64.1232 16.272C64.1712 16.272 64.2192 16.272 64.2672 16.224C64.3632 16.08 64.1712 15.888 64.2192 15.696C64.2672 15.504 64.5552 15.312 64.6032 15.12C64.6512 15.024 64.4592 14.88 64.3632 14.736V14.688C64.4592 14.352 64.9392 14.064 64.6992 13.68C64.6512 13.632 64.3632 13.68 64.3152 13.68C64.1232 13.824 64.2192 14.016 64.0752 14.16L63.9312 14.352C63.9312 14.208 63.9312 14.016 63.9792 13.872C64.0272 13.632 64.0272 13.392 64.3152 13.152C64.5072 12.96 64.5072 12.816 64.4112 12.576C64.3632 12.528 64.3152 12.48 64.3152 12.432C64.3632 12.432 64.5552 12.432 64.6032 12.384C64.6992 12.288 64.5552 12.144 64.4112 12.048C64.2192 11.952 64.2192 11.808 64.1712 11.712C64.2672 11.712 64.4112 11.664 64.4592 11.664C64.5552 11.616 64.4592 11.568 64.4592 11.52C64.3632 11.424 64.2672 11.328 64.3152 11.232C64.3152 11.232 64.3152 11.184 64.2672 11.184L64.4112 10.848C64.4592 10.848 64.5072 10.848 64.5552 10.8C64.6992 10.704 64.6512 10.608 64.6992 10.512C64.7472 10.368 64.6992 10.224 64.6992 10.128C64.6992 10.032 64.6512 9.98396 64.7472 9.93597ZM64.0752 19.92C64.1712 19.776 64.2192 19.632 64.2192 19.488C64.1712 19.344 64.0272 19.2 63.8352 19.056C63.9792 18.768 64.1712 18.48 64.1712 18.24C64.1712 18.096 64.1712 17.952 64.1232 17.808C64.1232 17.664 64.1712 17.52 64.0752 17.376C64.0752 17.328 63.9312 17.328 63.9312 17.376L63.7872 17.616C63.7872 17.52 63.7392 17.424 63.6432 17.28H63.3072C63.2112 17.424 63.2112 17.568 63.1632 17.664L63.0192 18.144C62.9712 18.432 62.9232 18.672 63.0192 18.912C63.0672 19.008 63.1632 19.104 63.2592 19.152L63.1632 19.296C63.0672 19.632 63.0192 19.92 62.7312 20.256C62.6352 20.352 62.5392 20.496 62.6832 20.592C62.8272 20.64 63.1152 20.64 63.3072 20.592C63.3072 20.64 63.2592 20.64 63.2592 20.688C63.2112 20.736 63.1632 20.832 63.1632 20.88C63.1152 21.072 63.2592 21.264 63.3552 21.456C63.4032 21.456 63.5952 21.504 63.6432 21.456C63.6912 21.264 63.7872 21.12 63.7392 20.928C63.7392 20.832 63.7872 20.736 63.7872 20.688C63.8352 20.592 63.7392 20.544 63.6432 20.448C63.9312 20.304 63.9792 20.064 64.0752 19.92ZM63.0192 16.608C62.9712 16.656 62.9712 16.752 63.0192 16.8C63.1152 16.896 63.0672 16.992 63.1152 17.088C63.1632 17.136 63.3552 17.136 63.3552 17.136C63.4032 17.04 63.4512 16.944 63.4512 16.896C63.4512 16.752 63.3552 16.656 63.4512 16.56C63.6432 16.416 63.7392 16.32 63.3552 16.176H63.2112C63.3552 16.272 63.4032 16.368 63.2592 16.464L63.0192 16.608ZM64.1712 8.68796C64.1232 8.78397 64.2192 8.87996 64.2672 9.02397H64.5072L64.3632 8.68796C64.3152 8.63997 64.1712 8.63997 64.1712 8.68796ZM63.3552 15.312C63.3072 15.264 63.2112 15.264 63.2112 15.312C63.2592 15.456 63.2592 15.6 63.2592 15.744H63.3552V15.312ZM64.2192 12.192C64.3152 12.24 64.3632 12.336 64.3152 12.384C64.2672 12.336 64.2672 12.288 64.2672 12.24C64.2672 12.24 64.2192 12.24 64.2192 12.192ZM63.6432 21.552C63.6912 21.552 63.6912 21.504 63.6912 21.504H63.5472C63.5952 21.504 63.5952 21.552 63.6432 21.552ZM94.7018 40.848V40.992C93.4538 41.952 91.8218 42.576 90.7178 41.76C90.2858 41.472 89.8538 39.6 89.8538 38.448C89.9018 37.056 89.6138 35.808 89.2778 34.512C88.1258 35.136 86.9738 35.376 85.8218 35.952C83.9498 36.864 84.8138 35.568 84.4298 37.728C84.1898 39.216 84.5738 40.704 83.7578 41.808C82.6058 43.344 80.9258 42.864 79.9658 41.664C78.7178 40.176 79.0058 38.016 79.1018 36.192C79.4378 30.672 81.1658 25.2 82.3178 19.776C83.1818 15.504 84.0458 11.232 85.3418 7.10396C85.9178 5.32796 86.2058 4.17597 88.2218 3.64797C89.9018 3.21597 91.7738 3.59996 92.3018 5.37596C92.3978 5.71197 91.6298 8.06396 91.5818 8.44796C91.5338 9.55196 91.7258 10.704 91.8218 11.808C91.9658 14.208 91.8698 16.656 92.0138 19.056C92.2058 22.512 91.9658 24.144 92.4458 27.552C92.7338 29.52 93.3098 32.832 93.4058 34.848C93.5498 36.912 94.6058 38.928 94.7018 40.848ZM85.3898 30.96C89.7578 30.96 89.1818 28.656 89.0378 24.96C88.9418 21.6 89.4218 17.424 88.2218 14.256C87.1658 14.976 86.9258 20.448 86.6378 21.792C86.0618 24.816 85.5818 27.888 85.3898 30.96ZM84.0938 26.832C84.1418 26.736 84.2858 26.592 84.0938 26.496C83.9978 26.448 83.6618 26.448 83.5178 26.496V26.448C83.5658 26.352 83.6138 26.256 83.6138 26.208C83.6138 26.112 83.5658 26.016 83.5178 25.92C83.4698 25.824 83.3738 25.728 83.2778 25.68C83.2778 25.632 83.0858 25.68 83.0858 25.728C82.9898 25.92 82.9898 26.064 83.0378 26.208C83.0378 26.304 82.9898 26.4 82.9898 26.448C82.9898 26.544 83.0858 26.592 83.1338 26.64C82.8458 26.832 82.7978 27.024 82.7018 27.168C82.6058 27.264 82.5578 27.408 82.5578 27.552C82.5578 27.696 82.7498 27.792 82.8938 27.936V27.984C82.7498 28.224 82.5578 28.464 82.5098 28.704C82.4618 28.848 82.5098 28.992 82.5098 29.088C82.5098 29.232 82.4618 29.376 82.5098 29.52C82.5098 29.52 82.5098 29.568 82.5578 29.568H82.3658C82.2698 29.664 82.4138 29.808 82.4138 29.904L82.3178 30.192C82.2698 30.24 82.1738 30.432 82.4138 30.528H82.2698C82.1258 30.672 82.2698 30.864 82.2218 31.008C82.1738 31.2 81.8858 31.344 81.7898 31.536C81.7418 31.632 81.9338 31.776 81.9818 31.872C81.9818 31.92 81.9818 31.92 82.0298 31.92L81.9818 31.968C81.8378 32.256 81.3098 32.496 81.5498 32.832C81.5978 32.88 81.8858 32.928 81.9338 32.88C82.1258 32.784 82.0778 32.64 82.2218 32.496L82.4138 32.304L82.2698 32.736C82.1738 32.976 82.1738 33.216 81.8858 33.36C81.6458 33.504 81.5978 33.696 81.6938 33.888L81.8378 34.224V34.272C81.7898 34.224 81.7418 34.128 81.7418 34.08C81.7418 34.08 81.5498 34.032 81.5018 34.032C81.4058 34.128 81.5018 34.272 81.6458 34.368C81.7898 34.512 81.8378 34.608 81.7898 34.752C81.6938 34.704 81.5978 34.704 81.5498 34.752C81.4538 34.752 81.5018 34.848 81.5498 34.848C81.5978 34.944 81.6938 35.088 81.5978 35.136C81.5978 35.184 81.6458 35.184 81.6458 35.184C81.5978 35.28 81.5498 35.376 81.4538 35.472H81.3098C81.1658 35.568 81.2138 35.664 81.1178 35.76C81.0698 35.856 81.0698 36 81.0698 36.096C81.0698 36.192 81.0698 36.24 80.9738 36.288C80.9258 36.288 80.8778 36.336 80.8778 36.336C80.8778 36.432 81.0698 36.48 81.1658 36.528V36.576C81.1658 36.72 81.2618 36.816 81.3098 36.96H81.3578C81.3578 36.864 81.2618 36.72 81.2618 36.624C81.3098 36.672 81.4538 36.672 81.5018 36.672C81.5978 36.624 81.6458 36.624 81.5498 36.528C81.3578 36.384 81.6458 36.384 81.6458 36.288C81.6458 36.144 81.6458 36 81.6938 35.904C81.6938 35.808 81.8858 35.712 81.7418 35.568H81.6938L81.7898 35.52C81.9338 35.376 82.0298 35.232 82.1258 35.088C82.1738 34.944 82.3658 34.752 82.2218 34.608C82.2218 34.56 82.1738 34.512 82.1258 34.512C82.1738 34.512 82.1738 34.512 82.1738 34.464C82.1738 34.416 82.2698 34.368 82.2698 34.272C82.3178 34.176 82.3658 34.08 82.3178 33.984C82.3178 33.888 82.2698 33.792 82.3178 33.696C82.3178 33.6 82.4618 33.504 82.5578 33.408C82.7018 33.264 82.7018 33.072 82.7498 32.88C82.8458 32.64 82.8938 32.4 82.8458 32.16C82.8458 32.112 82.6058 32.112 82.5098 32.112C82.5578 32.064 82.5578 32.064 82.5098 32.064C82.5578 31.968 82.5578 31.824 82.5578 31.728C82.5578 31.68 82.4138 31.536 82.5098 31.488L82.6058 31.392C82.7498 31.248 82.8938 31.152 82.9418 31.008C82.9418 30.864 82.9418 30.72 82.7978 30.576C82.7498 30.576 82.7018 30.576 82.6058 30.528C82.4138 30.432 82.7978 30.24 82.8938 30.192C83.0858 30 83.0858 29.808 82.7978 29.616C82.7498 29.616 82.7018 29.568 82.6058 29.568L82.6538 29.52L82.7978 29.328C82.7978 29.424 82.8458 29.568 82.9418 29.616C82.9898 29.664 83.2298 29.664 83.2778 29.616C83.3738 29.52 83.4218 29.424 83.4698 29.28L83.6138 28.848C83.7098 28.608 83.8058 28.368 83.7098 28.128C83.6618 28.128 83.6618 28.08 83.6618 28.08V28.032H83.6138L83.5178 27.888C83.5178 27.84 83.5658 27.792 83.5658 27.744C83.7098 27.456 83.8058 27.168 84.0938 26.832ZM83.5178 30.288C83.5658 30.24 83.5658 30.192 83.5178 30.144C83.4698 30.048 83.4698 29.952 83.4698 29.856C83.4218 29.808 83.2298 29.76 83.2298 29.808C83.1818 29.856 83.1338 29.952 83.1338 30C83.0858 30.096 83.1818 30.24 83.0378 30.288C82.8938 30.432 82.7978 30.528 83.1338 30.672C83.1338 30.72 83.3258 30.72 83.2778 30.672C83.1338 30.576 83.0858 30.528 83.2778 30.432C83.3738 30.384 83.4698 30.384 83.5178 30.288ZM81.3578 37.536C81.4058 37.44 81.3578 37.296 81.3098 37.2C81.3098 37.152 81.1178 37.104 81.1178 37.152C81.1178 37.248 81.1658 37.392 81.1658 37.488C81.2138 37.488 81.3578 37.536 81.3578 37.536ZM83.0858 31.536H83.1818V31.104C83.1818 31.056 83.1338 31.056 83.0858 31.056C83.0858 31.2 83.0378 31.344 83.0858 31.536ZM82.9898 25.68H83.0858C83.0858 25.68 83.0858 25.632 82.9898 25.68ZM122.128 39.984C123.904 42.336 121.264 42.432 119.536 42.48C116.848 42.48 114.256 43.344 111.664 43.296C106.048 43.152 107.872 38.88 107.872 34.8C107.872 29.616 107.728 24.384 107.68 19.2C107.68 14.544 108.304 9.16796 106.768 4.70396C106.768 4.65596 106.816 4.60797 106.816 4.55997C107.68 2.83197 110.944 3.02397 112 4.41597C113.056 5.85596 112.432 8.63997 112.528 10.272C112.864 14.64 113.008 19.104 113.104 23.472C113.248 27.648 113.104 31.776 113.44 36C113.632 38.4 113.2 38.592 115.6 38.784C117.232 38.88 120.976 38.448 122.128 39.984ZM111.232 28.272V28.224C111.28 27.888 111.76 27.552 111.472 27.264C111.424 27.216 111.136 27.264 111.088 27.312C110.944 27.456 110.992 27.6 110.896 27.744L110.752 27.936C110.752 27.792 110.752 27.648 110.8 27.504C110.8 27.264 110.8 27.024 110.992 26.784C111.184 26.592 111.184 26.448 111.088 26.256C110.992 26.16 110.944 26.064 110.896 25.968L110.848 25.92C110.896 25.92 110.992 25.968 110.992 26.064C110.944 26.064 111.184 26.064 111.232 26.016C111.28 25.92 111.136 25.824 110.992 25.728C110.8 25.68 110.752 25.536 110.752 25.44C110.848 25.44 110.944 25.392 110.992 25.344C111.088 25.296 111.04 25.248 110.992 25.248C110.896 25.152 110.8 25.056 110.8 24.96H110.752C110.8 24.864 110.848 24.72 110.848 24.624C110.944 24.576 110.944 24.576 110.992 24.576C111.136 24.432 111.04 24.336 111.088 24.24C111.136 24.096 111.04 23.952 111.04 23.856C110.992 23.76 110.992 23.712 111.04 23.616C111.088 23.568 111.088 23.52 111.088 23.52C111.04 23.424 110.848 23.424 110.752 23.424V23.376C110.704 23.232 110.56 23.184 110.416 23.088H110.368C110.416 23.184 110.56 23.28 110.656 23.376C110.56 23.376 110.464 23.376 110.416 23.424C110.32 23.52 110.32 23.568 110.416 23.616C110.656 23.664 110.416 23.808 110.464 23.904C110.512 24 110.56 24.144 110.56 24.24C110.512 24.384 110.416 24.528 110.56 24.624H110.608L110.56 24.672C110.416 24.864 110.368 25.008 110.368 25.2C110.32 25.344 110.224 25.584 110.368 25.68L110.512 25.776H110.464C110.512 25.824 110.416 25.92 110.416 26.016C110.368 26.112 110.368 26.208 110.464 26.304C110.512 26.4 110.56 26.496 110.56 26.592C110.56 26.688 110.416 26.784 110.368 26.88C110.272 27.12 110.272 27.312 110.272 27.504C110.272 27.696 110.224 27.936 110.368 28.176C110.368 28.224 110.512 28.224 110.656 28.224C110.656 28.32 110.704 28.464 110.704 28.56C110.704 28.608 110.896 28.704 110.8 28.8L110.704 28.944C110.608 29.04 110.512 29.184 110.464 29.328C110.464 29.472 110.512 29.616 110.704 29.712C110.704 29.712 110.8 29.76 110.896 29.76C111.088 29.808 110.704 30.048 110.656 30.144C110.512 30.336 110.512 30.528 110.8 30.672C110.896 30.72 111.232 30.72 111.28 30.672C111.328 30.576 111.184 30.432 111.184 30.336C111.184 30.24 111.184 30.144 111.232 30.048C111.232 29.952 111.328 29.808 111.088 29.712C111.136 29.712 111.184 29.712 111.232 29.664C111.328 29.52 111.136 29.376 111.184 29.184C111.184 28.992 111.424 28.8 111.472 28.608C111.52 28.512 111.328 28.368 111.232 28.272ZM111.184 33.168C111.232 33.024 111.28 32.88 111.28 32.736C111.28 32.592 111.088 32.496 110.896 32.4L110.944 32.352C111.04 32.064 111.232 31.824 111.232 31.584C111.232 31.44 111.232 31.296 111.184 31.152C111.184 31.008 111.184 30.864 111.136 30.768C111.088 30.72 110.992 30.72 110.944 30.768L110.848 31.008C110.848 30.912 110.8 30.816 110.704 30.72C110.656 30.672 110.368 30.672 110.32 30.72L110.224 31.104L110.08 31.536C110.032 31.776 109.984 32.016 110.128 32.256C110.128 32.352 110.224 32.4 110.32 32.448C110.32 32.496 110.272 32.544 110.272 32.592C110.128 32.88 110.08 33.168 109.792 33.456C109.744 33.552 109.6 33.696 109.744 33.744C109.888 33.84 110.176 33.84 110.368 33.792C110.368 33.84 110.368 33.84 110.32 33.888C110.272 33.936 110.224 33.984 110.224 34.08C110.176 34.224 110.32 34.416 110.416 34.608H110.656C110.752 34.464 110.848 34.272 110.8 34.128C110.8 34.032 110.848 33.936 110.896 33.888C110.896 33.792 110.8 33.744 110.752 33.648C111.04 33.504 111.088 33.312 111.184 33.168ZM110.032 30.096C109.984 30.192 109.984 30.24 110.032 30.288C110.128 30.384 110.08 30.48 110.128 30.576H110.368C110.416 30.48 110.464 30.432 110.464 30.336C110.464 30.24 110.368 30.144 110.464 30.048C110.608 29.904 110.704 29.808 110.32 29.664C110.32 29.664 110.176 29.664 110.176 29.712C110.32 29.76 110.368 29.856 110.224 29.952C110.128 30 110.032 30.048 110.032 30.096ZM110.08 22.56C110.08 22.656 110.08 22.656 110.128 22.704L110.272 22.848C110.32 22.848 110.512 22.8 110.512 22.752L110.368 22.608L110.224 22.512C110.176 22.512 110.08 22.56 110.08 22.56ZM110.224 28.848C110.224 28.848 110.128 28.848 110.128 28.896L110.224 29.28C110.224 29.328 110.272 29.328 110.272 29.28C110.272 29.136 110.272 28.992 110.224 28.848ZM170.531 39.984C172.307 42.336 169.667 42.432 167.939 42.48C165.251 42.48 162.659 43.344 160.067 43.296C154.451 43.152 156.275 38.88 156.275 34.8C156.275 29.616 156.131 24.384 156.083 19.2C156.083 14.544 156.707 9.16796 155.171 4.70396C155.171 4.65596 155.219 4.60797 155.219 4.55997C156.083 2.83197 159.347 3.02397 160.403 4.41597C161.459 5.85596 160.835 8.63997 160.931 10.272C161.267 14.64 161.411 19.104 161.507 23.472C161.651 27.648 161.507 31.776 161.843 36C162.035 38.4 161.603 38.592 164.003 38.784C165.635 38.88 169.379 38.448 170.531 39.984ZM159.635 28.272V28.224C159.683 27.888 160.163 27.552 159.875 27.264C159.827 27.216 159.539 27.264 159.491 27.312C159.347 27.456 159.395 27.6 159.299 27.744L159.155 27.936C159.155 27.792 159.155 27.648 159.203 27.504C159.203 27.264 159.203 27.024 159.395 26.784C159.587 26.592 159.587 26.448 159.491 26.256C159.395 26.16 159.347 26.064 159.299 25.968L159.251 25.92C159.299 25.92 159.395 25.968 159.395 26.064C159.347 26.064 159.587 26.064 159.635 26.016C159.683 25.92 159.539 25.824 159.395 25.728C159.203 25.68 159.155 25.536 159.155 25.44C159.251 25.44 159.347 25.392 159.395 25.344C159.491 25.296 159.443 25.248 159.395 25.248C159.299 25.152 159.203 25.056 159.203 24.96H159.155C159.203 24.864 159.251 24.72 159.251 24.624C159.347 24.576 159.347 24.576 159.395 24.576C159.539 24.432 159.443 24.336 159.491 24.24C159.539 24.096 159.443 23.952 159.443 23.856C159.395 23.76 159.395 23.712 159.443 23.616C159.491 23.568 159.491 23.52 159.491 23.52C159.443 23.424 159.251 23.424 159.155 23.424V23.376C159.107 23.232 158.963 23.184 158.819 23.088H158.771C158.819 23.184 158.963 23.28 159.059 23.376C158.963 23.376 158.867 23.376 158.819 23.424C158.723 23.52 158.723 23.568 158.819 23.616C159.059 23.664 158.819 23.808 158.867 23.904C158.915 24 158.963 24.144 158.963 24.24C158.915 24.384 158.819 24.528 158.963 24.624H159.011L158.963 24.672C158.819 24.864 158.771 25.008 158.771 25.2C158.723 25.344 158.627 25.584 158.771 25.68L158.915 25.776H158.867C158.915 25.824 158.819 25.92 158.819 26.016C158.771 26.112 158.771 26.208 158.867 26.304C158.915 26.4 158.963 26.496 158.963 26.592C158.963 26.688 158.819 26.784 158.771 26.88C158.675 27.12 158.675 27.312 158.675 27.504C158.675 27.696 158.627 27.936 158.771 28.176C158.771 28.224 158.915 28.224 159.059 28.224C159.059 28.32 159.107 28.464 159.107 28.56C159.107 28.608 159.299 28.704 159.203 28.8L159.107 28.944C159.011 29.04 158.915 29.184 158.867 29.328C158.867 29.472 158.915 29.616 159.107 29.712C159.107 29.712 159.203 29.76 159.299 29.76C159.491 29.808 159.107 30.048 159.059 30.144C158.915 30.336 158.915 30.528 159.203 30.672C159.299 30.72 159.635 30.72 159.683 30.672C159.731 30.576 159.587 30.432 159.587 30.336C159.587 30.24 159.587 30.144 159.635 30.048C159.635 29.952 159.731 29.808 159.491 29.712C159.539 29.712 159.587 29.712 159.635 29.664C159.731 29.52 159.539 29.376 159.587 29.184C159.587 28.992 159.827 28.8 159.875 28.608C159.923 28.512 159.731 28.368 159.635 28.272ZM159.587 33.168C159.635 33.024 159.683 32.88 159.683 32.736C159.683 32.592 159.491 32.496 159.299 32.4L159.347 32.352C159.443 32.064 159.635 31.824 159.635 31.584C159.635 31.44 159.635 31.296 159.587 31.152C159.587 31.008 159.587 30.864 159.539 30.768C159.491 30.72 159.395 30.72 159.347 30.768L159.251 31.008C159.251 30.912 159.203 30.816 159.107 30.72C159.059 30.672 158.771 30.672 158.723 30.72L158.627 31.104L158.483 31.536C158.435 31.776 158.387 32.016 158.531 32.256C158.531 32.352 158.627 32.4 158.723 32.448C158.723 32.496 158.675 32.544 158.675 32.592C158.531 32.88 158.483 33.168 158.195 33.456C158.147 33.552 158.003 33.696 158.147 33.744C158.291 33.84 158.579 33.84 158.771 33.792C158.771 33.84 158.771 33.84 158.723 33.888C158.675 33.936 158.627 33.984 158.627 34.08C158.579 34.224 158.723 34.416 158.819 34.608H159.059C159.155 34.464 159.251 34.272 159.203 34.128C159.203 34.032 159.251 33.936 159.299 33.888C159.299 33.792 159.203 33.744 159.155 33.648C159.443 33.504 159.491 33.312 159.587 33.168ZM158.435 30.096C158.387 30.192 158.387 30.24 158.435 30.288C158.531 30.384 158.483 30.48 158.531 30.576H158.771C158.819 30.48 158.867 30.432 158.867 30.336C158.867 30.24 158.771 30.144 158.867 30.048C159.011 29.904 159.107 29.808 158.723 29.664C158.723 29.664 158.579 29.664 158.579 29.712C158.723 29.76 158.771 29.856 158.627 29.952C158.531 30 158.435 30.048 158.435 30.096ZM158.483 22.56C158.483 22.656 158.483 22.656 158.531 22.704L158.675 22.848C158.723 22.848 158.915 22.8 158.915 22.752L158.771 22.608L158.627 22.512C158.579 22.512 158.483 22.56 158.483 22.56ZM158.627 28.848C158.627 28.848 158.531 28.848 158.531 28.896L158.627 29.28C158.627 29.328 158.675 29.328 158.675 29.28C158.675 29.136 158.675 28.992 158.627 28.848ZM195.715 4.07996C198.931 9.02397 189.955 5.08797 188.803 7.87197C187.987 9.88797 187.987 19.44 189.523 20.256C190.531 20.784 195.955 18.96 195.715 21.984C195.523 24.336 191.683 23.232 190.339 23.664C186.451 24.96 188.755 33.696 188.563 37.152C189.523 37.008 196.195 35.568 194.899 38.976C194.659 39.6 188.275 41.328 187.219 41.424C180.691 42.096 183.571 31.776 183.667 28.128C183.907 21.36 183.331 14.496 183.427 7.77596C183.427 5.32796 183.235 3.64797 186.211 3.11996C189.379 2.49596 192.739 2.83197 195.715 4.07996ZM186.211 25.968C186.211 25.632 186.259 25.296 186.115 24.96C186.115 24.912 185.923 24.912 185.827 24.912C185.875 24.912 185.875 24.864 185.827 24.864C185.827 24.72 185.827 24.576 185.779 24.384C185.779 24.288 185.587 24.144 185.683 24.048C185.731 24 185.779 23.904 185.779 23.856C185.923 23.664 186.019 23.52 186.019 23.28C186.019 23.136 186.019 22.896 185.827 22.752C185.779 22.704 185.683 22.704 185.635 22.704C185.443 22.56 185.779 22.272 185.875 22.128C186.019 21.888 186.019 21.552 185.683 21.36C185.587 21.312 185.299 21.312 185.251 21.36C185.155 21.504 185.299 21.696 185.299 21.84C185.347 21.984 185.299 22.08 185.299 22.224C185.251 22.368 185.203 22.608 185.443 22.704C185.347 22.704 185.299 22.752 185.299 22.752C185.155 22.992 185.347 23.232 185.347 23.472C185.299 23.76 185.059 24 185.011 24.288C184.963 24.432 185.155 24.624 185.251 24.768L185.299 24.816H185.251C185.203 25.296 184.723 25.728 185.011 26.16C185.059 26.256 185.299 26.208 185.347 26.16C185.539 25.968 185.491 25.776 185.587 25.536L185.731 25.248C185.731 25.488 185.731 25.68 185.683 25.92C185.635 26.208 185.683 26.544 185.443 26.88C185.251 27.12 185.251 27.36 185.347 27.648C185.443 27.792 185.491 27.936 185.539 28.08L185.587 28.128C185.491 28.08 185.443 28.032 185.443 27.936C185.443 27.888 185.203 27.888 185.203 27.936C185.107 28.08 185.251 28.224 185.443 28.368C185.587 28.464 185.635 28.656 185.635 28.8C185.539 28.848 185.443 28.848 185.395 28.896C185.299 28.944 185.347 29.04 185.395 29.088C185.491 29.184 185.587 29.328 185.539 29.472H185.587C185.539 29.664 185.491 29.808 185.491 29.952C185.395 29.952 185.347 30 185.347 30C185.203 30.144 185.251 30.336 185.203 30.48C185.155 30.624 185.251 30.816 185.251 30.96C185.251 31.056 185.251 31.104 185.203 31.2C185.155 31.248 185.107 31.296 185.107 31.344C185.155 31.44 185.347 31.488 185.443 31.536V31.584C185.443 31.776 185.587 31.92 185.683 32.064H185.731L185.539 31.632C185.587 31.68 185.731 31.68 185.779 31.632C185.875 31.536 185.875 31.488 185.779 31.392C185.587 31.296 185.827 31.152 185.827 31.008C185.779 30.864 185.731 30.672 185.779 30.48C185.779 30.336 185.923 30.144 185.779 30H185.731C185.731 29.952 185.779 29.952 185.779 29.904C185.923 29.712 185.971 29.424 186.019 29.184C186.067 28.992 186.211 28.704 186.019 28.512C186.019 28.464 185.971 28.416 185.923 28.368C185.923 28.272 186.019 28.176 186.019 28.032C186.019 27.888 186.019 27.744 185.971 27.6C185.923 27.504 185.923 27.36 185.923 27.216C185.875 27.072 186.019 26.928 186.067 26.784C186.211 26.496 186.163 26.208 186.211 25.968ZM186.643 17.376C186.739 17.232 186.835 17.088 186.691 16.944C186.595 16.896 186.259 16.896 186.067 16.944C186.115 16.896 186.115 16.848 186.115 16.848C186.163 16.704 186.211 16.608 186.211 16.512C186.259 16.272 186.115 16.032 186.019 15.792C185.971 15.744 185.779 15.744 185.779 15.792C185.683 15.984 185.587 16.224 185.635 16.464C185.635 16.56 185.587 16.704 185.587 16.8C185.587 16.896 185.635 17.04 185.731 17.088C185.443 17.328 185.395 17.664 185.299 17.856C185.203 18.048 185.203 18.24 185.203 18.432C185.203 18.624 185.395 18.768 185.587 18.96L185.539 19.008C185.443 19.392 185.251 19.728 185.251 20.112C185.251 20.304 185.299 20.496 185.299 20.688C185.347 20.88 185.299 21.072 185.395 21.264H185.539C185.587 21.12 185.635 21.024 185.635 20.88C185.683 21.024 185.731 21.168 185.827 21.312C185.875 21.36 186.115 21.36 186.163 21.312C186.259 21.12 186.259 20.976 186.259 20.784L186.403 20.16C186.451 19.824 186.499 19.44 186.355 19.104C186.355 19.008 186.259 18.912 186.163 18.816C186.163 18.768 186.211 18.672 186.211 18.624C186.355 18.192 186.403 17.808 186.643 17.376ZM186.499 22.224C186.547 22.128 186.499 22.032 186.451 21.984L186.355 21.552C186.355 21.504 186.115 21.504 186.115 21.552C186.067 21.648 186.067 21.744 186.067 21.888C186.019 22.032 186.115 22.128 186.019 22.272C185.875 22.512 185.779 22.608 186.163 22.8C186.211 22.848 186.355 22.8 186.307 22.8C186.163 22.656 186.115 22.56 186.259 22.464L186.499 22.224ZM185.827 32.832C185.875 32.688 185.827 32.544 185.731 32.4C185.731 32.352 185.491 32.352 185.491 32.4L185.683 32.832C185.683 32.88 185.827 32.88 185.827 32.832ZM186.259 24C186.259 24 186.355 24 186.355 23.952C186.307 23.76 186.307 23.568 186.307 23.376C186.307 23.328 186.211 23.328 186.211 23.376C186.211 23.568 186.211 23.76 186.259 24ZM185.827 15.696H185.731L185.779 15.744C185.779 15.744 185.827 15.744 185.827 15.696ZM225.539 6.57597C226.019 9.35996 226.595 22.176 220.643 16.416C222.563 14.304 223.139 8.92796 220.211 7.15196C215.507 4.27196 216.323 13.104 216.323 15.216C216.371 22.416 223.139 28.32 223.427 35.472C223.763 43.536 211.043 45.456 208.883 37.68C208.547 36.624 209.219 35.28 208.883 34.32C208.739 33.888 207.875 33.6 207.827 33.216C207.443 31.2 209.891 30.048 212.003 30.384C214.595 30.816 213.491 31.824 213.203 33.888C212.963 35.616 213.011 37.584 214.739 38.688C222.563 37.44 210.851 21.552 210.371 17.904C209.939 14.688 210.467 8.25596 212.819 5.80796C216.131 2.44796 222.515 3.64797 225.539 6.57597ZM216.611 22.656C216.611 22.464 216.371 22.416 216.179 22.416C215.987 22.368 215.843 22.272 215.747 22.128C215.843 22.08 215.939 21.984 215.939 21.936C215.987 21.84 215.891 21.792 215.843 21.792C215.699 21.744 215.555 21.696 215.507 21.552H215.459L215.315 21.12C215.363 21.072 215.363 21.024 215.411 21.024C215.411 20.832 215.315 20.736 215.267 20.592C215.219 20.4 215.075 20.304 215.027 20.208C214.979 20.112 214.883 20.112 214.931 19.968C214.979 19.92 214.979 19.872 214.931 19.824C214.883 19.776 214.691 19.824 214.595 19.824C214.547 19.824 214.547 19.824 214.547 19.776L214.355 19.632C214.307 19.632 214.211 19.584 214.163 19.536C214.163 19.536 214.115 19.536 214.115 19.584L214.451 19.824C214.403 19.824 214.259 19.872 214.259 19.92C214.211 20.064 214.211 20.112 214.355 20.112C214.547 20.112 214.403 20.352 214.499 20.448C214.595 20.592 214.739 20.688 214.787 20.832C214.835 20.976 214.835 21.216 215.075 21.216V21.312C215.075 21.552 215.171 21.792 215.219 22.032C215.315 22.224 215.363 22.512 215.603 22.608H215.747V22.656C215.795 22.752 215.795 22.848 215.795 22.944C215.843 23.088 215.939 23.232 216.035 23.328C216.131 23.424 216.227 23.472 216.275 23.616C216.371 23.76 216.323 23.904 216.323 24.096C216.323 24.384 216.419 24.576 216.515 24.864C216.611 25.152 216.755 25.44 216.995 25.68C216.995 25.728 217.187 25.632 217.283 25.536V25.584C217.283 25.632 217.283 25.632 217.331 25.632L217.523 26.016C217.571 26.112 217.763 26.16 217.715 26.304V26.496C217.667 26.688 217.667 26.88 217.715 27.072C217.763 27.216 217.859 27.408 218.099 27.456C218.147 27.504 218.243 27.456 218.291 27.456C218.531 27.504 218.339 27.888 218.291 28.032C218.243 28.32 218.339 28.608 218.723 28.656C218.771 28.704 218.819 28.704 218.915 28.656C218.867 28.656 218.867 28.704 218.867 28.704V29.04C218.819 28.944 218.723 28.848 218.627 28.752C218.579 28.704 218.291 28.848 218.291 28.896C218.243 29.088 218.339 29.232 218.339 29.376L218.435 30C218.435 30.144 218.483 30.288 218.531 30.48C218.579 30.624 218.627 30.768 218.723 30.912L219.011 31.104V31.92C219.011 32.112 218.963 32.304 218.867 32.496C218.819 32.64 218.723 32.832 218.915 32.88C219.011 32.928 219.299 32.88 219.491 32.832V32.928C219.443 33.024 219.443 33.12 219.443 33.216C219.443 33.312 219.491 33.408 219.539 33.552C219.587 33.648 219.635 33.744 219.731 33.84C219.731 33.888 219.923 33.888 219.971 33.84C220.019 33.6 220.067 33.36 220.019 33.168C219.971 33.072 220.019 32.928 220.019 32.832C220.019 32.736 219.923 32.64 219.827 32.592C220.067 32.304 220.067 32.016 220.067 31.776C220.115 31.584 220.115 31.392 220.067 31.2C219.971 31.008 219.779 30.96 219.539 30.816V30.768C219.539 30.672 219.539 30.576 219.587 30.48V30.192C219.587 30 219.587 29.808 219.539 29.664C219.491 29.472 219.395 29.328 219.299 29.136C219.203 28.992 219.155 28.8 219.011 28.656H218.915C219.011 28.656 219.107 28.56 219.107 28.512C219.155 28.32 218.963 28.224 218.915 28.128C218.819 27.984 218.819 27.84 218.771 27.744C218.771 27.6 218.723 27.36 218.483 27.36C218.531 27.312 218.579 27.312 218.579 27.264C218.627 27.024 218.339 26.88 218.291 26.64C218.243 26.4 218.339 26.064 218.291 25.824C218.243 25.632 218.003 25.584 217.859 25.488C217.859 25.488 217.859 25.44 217.811 25.44C217.763 25.2 217.811 24.96 217.811 24.72C217.811 24.48 217.763 24.24 217.523 24.144C217.475 24.096 217.235 24.24 217.187 24.288C217.139 24.528 217.283 24.72 217.235 24.912V25.248L216.995 24.672C216.899 24.384 216.755 24.096 216.851 23.712C216.899 23.568 216.851 23.424 216.851 23.328C216.803 23.28 216.803 23.28 216.803 23.232C216.755 23.184 216.755 23.184 216.755 23.136L216.611 22.992C216.515 22.944 216.419 22.896 216.371 22.8C216.371 22.848 216.611 22.704 216.611 22.656ZM218.003 28.752C218.051 28.752 218.243 28.704 218.243 28.656C218.243 28.56 218.243 28.464 218.195 28.368C218.147 28.224 218.003 28.128 218.051 27.984C218.147 27.696 218.147 27.6 217.763 27.552C217.715 27.552 217.571 27.6 217.619 27.648C217.811 27.696 217.907 27.744 217.811 27.936C217.763 28.032 217.667 28.128 217.667 28.224C217.667 28.32 217.715 28.368 217.763 28.416C217.907 28.512 217.907 28.608 218.003 28.752ZM213.971 19.296C214.019 19.296 214.211 19.248 214.163 19.2C214.163 19.152 214.115 19.152 214.115 19.104C214.067 19.104 214.067 19.056 214.019 19.056L213.875 18.864C213.827 18.864 213.731 18.912 213.731 18.96C213.731 19.008 213.779 19.104 213.827 19.152C213.827 19.152 213.875 19.2 213.875 19.248C213.923 19.248 213.923 19.248 213.971 19.296ZM217.427 27.12C217.475 27.12 217.523 27.12 217.523 27.072C217.427 26.928 217.379 26.736 217.235 26.592C217.235 26.544 217.139 26.592 217.139 26.64C217.283 26.784 217.379 26.976 217.427 27.12ZM216.131 22.656C216.227 22.656 216.323 22.704 216.371 22.8C216.323 22.8 216.275 22.752 216.227 22.704C216.179 22.704 216.179 22.656 216.131 22.656ZM220.019 33.936C219.971 33.936 219.971 33.888 219.923 33.888C219.923 33.936 219.971 33.936 220.019 33.936ZM254.686 6.57597C255.166 9.35996 255.742 22.176 249.79 16.416C251.71 14.304 252.286 8.92796 249.358 7.15196C244.654 4.27196 245.47 13.104 245.47 15.216C245.518 22.416 252.286 28.32 252.574 35.472C252.91 43.536 240.19 45.456 238.03 37.68C237.694 36.624 238.366 35.28 238.03 34.32C237.886 33.888 237.022 33.6 236.974 33.216C236.59 31.2 239.038 30.048 241.15 30.384C243.742 30.816 242.638 31.824 242.35 33.888C242.11 35.616 242.158 37.584 243.886 38.688C251.71 37.44 239.998 21.552 239.518 17.904C239.086 14.688 239.614 8.25596 241.966 5.80796C245.278 2.44796 251.662 3.64797 254.686 6.57597ZM245.758 22.656C245.758 22.464 245.518 22.416 245.326 22.416C245.134 22.368 244.99 22.272 244.894 22.128C244.99 22.08 245.086 21.984 245.086 21.936C245.134 21.84 245.038 21.792 244.99 21.792C244.846 21.744 244.702 21.696 244.654 21.552H244.606L244.462 21.12C244.51 21.072 244.51 21.024 244.558 21.024C244.558 20.832 244.462 20.736 244.414 20.592C244.366 20.4 244.222 20.304 244.174 20.208C244.126 20.112 244.03 20.112 244.078 19.968C244.126 19.92 244.126 19.872 244.078 19.824C244.03 19.776 243.838 19.824 243.742 19.824C243.694 19.824 243.694 19.824 243.694 19.776L243.502 19.632C243.454 19.632 243.358 19.584 243.31 19.536C243.31 19.536 243.262 19.536 243.262 19.584L243.598 19.824C243.55 19.824 243.406 19.872 243.406 19.92C243.358 20.064 243.358 20.112 243.502 20.112C243.694 20.112 243.55 20.352 243.646 20.448C243.742 20.592 243.886 20.688 243.934 20.832C243.982 20.976 243.982 21.216 244.222 21.216V21.312C244.222 21.552 244.318 21.792 244.366 22.032C244.462 22.224 244.51 22.512 244.75 22.608H244.894V22.656C244.942 22.752 244.942 22.848 244.942 22.944C244.99 23.088 245.086 23.232 245.182 23.328C245.278 23.424 245.374 23.472 245.422 23.616C245.518 23.76 245.47 23.904 245.47 24.096C245.47 24.384 245.566 24.576 245.662 24.864C245.758 25.152 245.902 25.44 246.142 25.68C246.142 25.728 246.334 25.632 246.43 25.536V25.584C246.43 25.632 246.43 25.632 246.478 25.632L246.67 26.016C246.718 26.112 246.91 26.16 246.862 26.304V26.496C246.814 26.688 246.814 26.88 246.862 27.072C246.91 27.216 247.006 27.408 247.246 27.456C247.294 27.504 247.39 27.456 247.438 27.456C247.678 27.504 247.486 27.888 247.438 28.032C247.39 28.32 247.486 28.608 247.87 28.656C247.918 28.704 247.966 28.704 248.062 28.656C248.014 28.656 248.014 28.704 248.014 28.704V29.04C247.966 28.944 247.87 28.848 247.774 28.752C247.726 28.704 247.438 28.848 247.438 28.896C247.39 29.088 247.486 29.232 247.486 29.376L247.582 30C247.582 30.144 247.63 30.288 247.678 30.48C247.726 30.624 247.774 30.768 247.87 30.912L248.158 31.104V31.92C248.158 32.112 248.11 32.304 248.014 32.496C247.966 32.64 247.87 32.832 248.062 32.88C248.158 32.928 248.446 32.88 248.638 32.832V32.928C248.59 33.024 248.59 33.12 248.59 33.216C248.59 33.312 248.638 33.408 248.686 33.552C248.734 33.648 248.782 33.744 248.878 33.84C248.878 33.888 249.07 33.888 249.118 33.84C249.166 33.6 249.214 33.36 249.166 33.168C249.118 33.072 249.166 32.928 249.166 32.832C249.166 32.736 249.07 32.64 248.974 32.592C249.214 32.304 249.214 32.016 249.214 31.776C249.262 31.584 249.262 31.392 249.214 31.2C249.118 31.008 248.926 30.96 248.686 30.816V30.768C248.686 30.672 248.686 30.576 248.734 30.48V30.192C248.734 30 248.734 29.808 248.686 29.664C248.638 29.472 248.542 29.328 248.446 29.136C248.35 28.992 248.302 28.8 248.158 28.656H248.062C248.158 28.656 248.254 28.56 248.254 28.512C248.302 28.32 248.11 28.224 248.062 28.128C247.966 27.984 247.966 27.84 247.918 27.744C247.918 27.6 247.87 27.36 247.63 27.36C247.678 27.312 247.726 27.312 247.726 27.264C247.774 27.024 247.486 26.88 247.438 26.64C247.39 26.4 247.486 26.064 247.438 25.824C247.39 25.632 247.15 25.584 247.006 25.488C247.006 25.488 247.006 25.44 246.958 25.44C246.91 25.2 246.958 24.96 246.958 24.72C246.958 24.48 246.91 24.24 246.67 24.144C246.622 24.096 246.382 24.24 246.334 24.288C246.286 24.528 246.43 24.72 246.382 24.912V25.248L246.142 24.672C246.046 24.384 245.902 24.096 245.998 23.712C246.046 23.568 245.998 23.424 245.998 23.328C245.95 23.28 245.95 23.28 245.95 23.232C245.902 23.184 245.902 23.184 245.902 23.136L245.758 22.992C245.662 22.944 245.566 22.896 245.518 22.8C245.518 22.848 245.758 22.704 245.758 22.656ZM247.15 28.752C247.198 28.752 247.39 28.704 247.39 28.656C247.39 28.56 247.39 28.464 247.342 28.368C247.294 28.224 247.15 28.128 247.198 27.984C247.294 27.696 247.294 27.6 246.91 27.552C246.862 27.552 246.718 27.6 246.766 27.648C246.958 27.696 247.054 27.744 246.958 27.936C246.91 28.032 246.814 28.128 246.814 28.224C246.814 28.32 246.862 28.368 246.91 28.416C247.054 28.512 247.054 28.608 247.15 28.752ZM243.118 19.296C243.166 19.296 243.358 19.248 243.31 19.2C243.31 19.152 243.262 19.152 243.262 19.104C243.214 19.104 243.214 19.056 243.166 19.056L243.022 18.864C242.974 18.864 242.878 18.912 242.878 18.96C242.878 19.008 242.926 19.104 242.974 19.152C242.974 19.152 243.022 19.2 243.022 19.248C243.07 19.248 243.07 19.248 243.118 19.296ZM246.574 27.12C246.622 27.12 246.67 27.12 246.67 27.072C246.574 26.928 246.526 26.736 246.382 26.592C246.382 26.544 246.286 26.592 246.286 26.64C246.43 26.784 246.526 26.976 246.574 27.12ZM245.278 22.656C245.374 22.656 245.47 22.704 245.518 22.8C245.47 22.8 245.422 22.752 245.374 22.704C245.326 22.704 245.326 22.656 245.278 22.656ZM249.166 33.936C249.118 33.936 249.118 33.888 249.07 33.888C249.07 33.936 249.118 33.936 249.166 33.936ZM282.681 11.76C282.777 15.6 282.777 19.584 282.633 23.376C282.537 26.784 281.433 44.688 274.521 40.704C273.897 40.32 273.705 39.648 273.129 39.312C272.457 38.928 271.641 39.12 271.017 38.736C269.145 37.68 268.185 35.424 267.657 33.456C266.649 29.712 267.609 24.96 266.265 21.408C267.417 20.88 267.129 17.376 267.225 16.464C267.417 13.968 267.657 11.664 268.473 9.31196C269.001 7.67997 269.577 5.61596 270.873 4.36797C272.553 2.63997 274.905 3.07197 277.161 3.16796C279.513 3.31196 279.897 3.64797 280.953 5.71197C281.913 7.58396 282.681 9.64797 282.681 11.76ZM277.353 23.712C277.497 20.448 276.969 17.28 276.969 14.064C276.969 11.232 276.873 9.40797 275.913 6.67196C271.065 8.78397 271.929 15.168 271.641 19.68C271.497 22.176 271.449 24.528 271.689 27.024C271.929 29.28 273.801 33.216 273.465 35.04C275.673 36.336 275.961 34.224 276.393 32.208C276.969 29.52 277.209 26.496 277.353 23.712ZM280.905 23.856C280.953 23.52 281.001 23.184 280.905 22.848C280.857 22.8 280.665 22.752 280.569 22.8C280.617 22.752 280.617 22.752 280.569 22.704V22.272C280.569 22.176 280.377 22.032 280.521 21.936V21.888C280.521 21.84 280.569 21.792 280.617 21.744C280.713 21.552 280.857 21.36 280.857 21.168C280.857 21.024 280.857 20.784 280.665 20.592C280.617 20.592 280.569 20.592 280.473 20.544C280.281 20.448 280.617 20.112 280.713 20.016C280.857 19.728 280.857 19.44 280.569 19.2C280.473 19.152 280.137 19.152 280.137 19.248C280.041 19.392 280.185 19.536 280.185 19.68C280.185 19.824 280.185 19.968 280.137 20.112C280.137 20.208 280.041 20.448 280.281 20.544C280.185 20.592 280.137 20.592 280.137 20.64C279.993 20.832 280.185 21.072 280.137 21.312C280.137 21.6 279.849 21.84 279.801 22.128C279.753 22.272 279.945 22.464 279.993 22.608C280.041 22.608 280.041 22.656 280.041 22.656C279.945 23.136 279.417 23.52 279.705 24C279.705 24.048 279.993 24.048 280.041 24C280.233 23.808 280.185 23.616 280.281 23.424L280.473 23.136L280.377 23.76C280.329 24.096 280.329 24.432 280.041 24.72C279.849 24.96 279.801 25.2 279.897 25.44C279.897 25.584 279.945 25.68 279.945 25.776C279.897 25.728 279.753 25.68 279.705 25.728C279.609 25.872 279.753 26.016 279.897 26.16C280.041 26.304 280.089 26.496 280.041 26.64C279.945 26.64 279.849 26.64 279.801 26.688C279.705 26.736 279.753 26.832 279.801 26.88C279.849 27.024 279.945 27.168 279.897 27.264C279.897 27.312 279.897 27.312 279.945 27.312C279.849 27.456 279.801 27.6 279.753 27.744C279.657 27.744 279.609 27.744 279.609 27.792C279.465 27.888 279.465 28.032 279.417 28.176C279.321 28.32 279.321 28.512 279.321 28.656C279.321 28.752 279.321 28.8 279.225 28.896C279.177 28.944 279.129 28.944 279.129 28.992C279.129 29.088 279.321 29.136 279.369 29.232V29.28C279.369 29.376 279.369 29.472 279.417 29.52C279.417 29.616 279.465 29.712 279.465 29.76C279.465 29.808 279.561 29.808 279.561 29.808C279.561 29.664 279.465 29.52 279.465 29.376C279.513 29.376 279.657 29.424 279.705 29.424C279.801 29.376 279.849 29.28 279.753 29.184C279.609 29.04 279.897 28.992 279.897 28.848C279.897 28.656 279.897 28.464 279.945 28.32C279.993 28.176 280.137 27.984 279.993 27.84V27.792C279.993 27.792 280.041 27.792 280.041 27.744C280.233 27.552 280.329 27.312 280.377 27.072C280.473 26.88 280.617 26.592 280.473 26.4C280.473 26.352 280.425 26.304 280.377 26.256H280.425C280.377 26.16 280.521 26.064 280.521 25.92C280.569 25.776 280.569 25.632 280.521 25.488C280.521 25.344 280.473 25.248 280.473 25.104C280.521 24.96 280.617 24.816 280.713 24.672C280.857 24.432 280.857 24.096 280.905 23.856ZM281.433 15.168C281.481 15.024 281.625 14.832 281.433 14.736C281.337 14.64 281.001 14.688 280.809 14.736C280.857 14.736 280.857 14.688 280.857 14.64C280.905 14.544 280.953 14.448 280.953 14.304C280.953 14.112 280.761 13.824 280.665 13.584C280.617 13.584 280.425 13.584 280.425 13.632C280.329 13.872 280.281 14.112 280.329 14.304C280.377 14.448 280.329 14.544 280.329 14.688C280.329 14.784 280.425 14.88 280.473 14.976C280.233 15.216 280.185 15.504 280.089 15.744C280.041 15.936 279.993 16.128 280.041 16.272C280.041 16.512 280.233 16.656 280.425 16.8V16.848C280.281 17.232 280.137 17.616 280.137 17.952C280.137 18.144 280.137 18.336 280.185 18.528C280.233 18.72 280.185 18.912 280.281 19.104C280.281 19.152 280.377 19.152 280.425 19.104C280.425 19.056 280.473 18.96 280.521 18.864C280.521 19.008 280.569 19.104 280.665 19.2C280.713 19.248 281.001 19.2 281.049 19.152C281.145 19.008 281.145 18.816 281.145 18.672L281.289 18C281.337 17.664 281.337 17.28 281.241 16.944C281.193 16.848 281.097 16.752 281.001 16.656C281.001 16.608 281.049 16.512 281.049 16.464C281.145 16.032 281.193 15.6 281.433 15.168ZM281.337 20.064C281.385 20.016 281.385 19.92 281.337 19.824C281.241 19.68 281.289 19.584 281.241 19.44C281.193 19.392 281.001 19.392 281.001 19.44L280.905 19.728C280.905 19.872 281.001 20.016 280.905 20.16C280.761 20.4 280.665 20.496 281.001 20.688H281.145C281.001 20.544 280.953 20.448 281.097 20.304C281.193 20.256 281.289 20.16 281.337 20.064ZM279.369 30.528C279.465 30.432 279.465 30.24 279.465 30.096C279.465 30.048 279.225 30 279.225 30.048V30.48C279.225 30.528 279.369 30.576 279.369 30.528ZM281.049 21.888H281.193L281.097 21.264C281.097 21.216 281.049 21.216 281.049 21.264C281.049 21.456 281.001 21.648 281.049 21.888ZM280.089 26.016C279.993 25.92 279.945 25.824 279.993 25.776C279.993 25.824 279.993 25.872 280.041 25.92C280.041 25.92 280.089 25.968 280.089 26.016ZM280.473 13.536H280.377L280.425 13.584L280.473 13.536ZM279.993 25.776H279.945H279.993ZM314.612 33.552C314.612 35.376 316.196 38.928 315.236 40.512C314.228 42.192 311.252 42.432 310.004 41.04C308.852 39.792 307.892 36.528 307.364 34.848C305.204 28.272 301.988 20.784 301.076 13.632C301.364 18.048 301.508 22.56 301.46 27.024C301.412 30 301.94 32.784 302.132 35.712C302.228 36.672 302.42 38.208 302.084 39.024C301.988 39.216 299.78 41.76 299.588 41.856C296.42 43.68 295.988 38.976 295.988 37.104C295.988 36.24 296.564 35.376 296.612 34.464C296.66 33.216 296.228 31.872 296.132 30.576C295.844 25.008 296.66 19.152 296.708 13.536C296.756 11.184 295.364 0.671965 300.5 2.49596C302.9 3.35996 303.044 6.86397 303.476 8.78397C304.196 11.952 304.868 15.168 305.876 18.288C306.452 20.112 307.316 21.792 307.844 23.568C308.468 25.68 308.516 29.136 310.436 30.384C311.012 25.488 311.012 20.544 311.06 15.552C311.108 13.44 311.252 11.328 311.204 9.16796C311.204 7.91997 310.292 4.22396 310.82 3.16796C311.636 1.58396 313.892 2.39997 314.66 3.50397C315.572 4.79997 314.9 8.11197 314.852 9.79196C314.756 14.688 314.804 19.536 314.66 24.432C314.516 27.456 314.612 30.48 314.612 33.552ZM299.252 26.592C299.3 26.448 299.3 26.208 299.108 26.064C299.06 26.016 299.012 26.016 298.916 26.016C298.724 25.872 299.108 25.584 299.156 25.488C299.252 25.344 299.3 25.2 299.252 25.104C299.252 24.96 299.156 24.816 299.012 24.72C298.916 24.672 298.58 24.672 298.532 24.768C298.484 24.912 298.628 25.056 298.628 25.2C298.628 25.296 298.628 25.44 298.58 25.584C298.58 25.68 298.484 25.872 298.724 26.016C298.628 26.016 298.58 26.016 298.58 26.064C298.436 26.256 298.628 26.496 298.58 26.688C298.484 26.928 298.196 27.168 298.148 27.408C298.1 27.552 298.244 27.744 298.34 27.936V27.984L298.196 28.32L298.148 28.368V28.416L298.1 28.512L298.004 28.656L297.908 29.04C297.908 29.136 297.956 29.28 298.004 29.376C298.052 29.424 298.34 29.376 298.388 29.328C298.484 29.232 298.484 29.136 298.532 29.04C298.532 28.944 298.532 28.848 298.58 28.704L298.772 28.464C298.724 28.656 298.724 28.896 298.724 29.088C298.676 29.376 298.676 29.712 298.484 30.048C298.292 30.288 298.292 30.528 298.436 30.768C298.484 30.912 298.532 31.056 298.628 31.2L298.676 31.248C298.58 31.2 298.532 31.104 298.532 31.056C298.532 31.008 298.292 31.008 298.292 31.056C298.196 31.2 298.34 31.344 298.532 31.44C298.676 31.584 298.724 31.728 298.772 31.872L298.484 31.968C298.388 32.016 298.484 32.112 298.532 32.16C298.628 32.256 298.724 32.4 298.724 32.496C298.676 32.544 298.724 32.544 298.772 32.544L298.628 32.976C298.58 33.024 298.532 33.024 298.532 33.072C298.388 33.168 298.436 33.36 298.436 33.504C298.388 33.648 298.436 33.792 298.484 33.984C298.484 34.08 298.532 34.128 298.436 34.224C298.388 34.272 298.34 34.32 298.388 34.368C298.388 34.416 298.58 34.464 298.676 34.512C298.676 34.512 298.676 34.56 298.724 34.56C298.724 34.704 298.868 34.848 298.964 34.992H299.012L298.82 34.608C298.868 34.608 299.012 34.608 299.012 34.56C299.156 34.512 299.156 34.416 299.012 34.368C298.82 34.272 299.108 34.128 299.06 33.984C299.012 33.84 298.964 33.648 298.964 33.504C298.964 33.312 299.108 33.168 298.916 33.024V32.976L298.964 32.928C299.108 32.736 299.108 32.448 299.156 32.256C299.204 32.064 299.3 31.728 299.156 31.584C299.108 31.536 299.06 31.488 299.012 31.488C299.012 31.44 299.06 31.44 299.06 31.44C299.012 31.344 299.108 31.248 299.108 31.152C299.108 31.008 299.108 30.864 299.06 30.72C299.012 30.576 298.964 30.48 298.964 30.336C298.964 30.192 299.06 30.048 299.108 29.904C299.252 29.664 299.204 29.376 299.204 29.136C299.252 28.944 299.252 28.8 299.252 28.656V28.416C299.252 28.368 299.204 28.272 299.204 28.176C299.204 28.128 298.964 28.128 298.868 28.128C298.916 28.128 298.916 28.08 298.868 28.08C298.916 27.936 298.916 27.792 298.916 27.648C298.916 27.552 298.724 27.36 298.868 27.312V27.264C298.868 27.216 298.916 27.168 298.964 27.12C299.108 26.976 299.252 26.784 299.252 26.592ZM298.34 21.408C298.292 21.6 298.244 21.792 298.292 21.984C298.292 22.176 298.484 22.32 298.676 22.464V22.512C298.628 22.896 298.484 23.232 298.484 23.568C298.484 23.76 298.532 23.952 298.58 24.144C298.628 24.288 298.58 24.48 298.676 24.672H298.82L298.964 24.288C298.964 24.432 299.012 24.576 299.108 24.672C299.156 24.72 299.444 24.72 299.492 24.672C299.54 24.48 299.54 24.336 299.54 24.144L299.636 23.52C299.636 23.184 299.684 22.848 299.492 22.56C299.444 22.464 299.396 22.368 299.252 22.272C299.3 22.224 299.3 22.176 299.3 22.08C299.396 21.696 299.444 21.312 299.684 20.928C299.78 20.832 299.876 20.64 299.732 20.544C299.588 20.496 299.3 20.496 299.108 20.496C299.108 20.496 299.156 20.448 299.156 20.4C299.204 20.352 299.252 20.256 299.252 20.16C299.3 20.064 299.3 19.92 299.252 19.824C299.204 19.68 299.156 19.584 299.156 19.44C299.108 19.44 298.916 19.392 298.916 19.44C298.82 19.536 298.772 19.632 298.724 19.728C298.724 19.824 298.676 19.968 298.676 20.064C298.724 20.16 298.628 20.304 298.628 20.4C298.58 20.496 298.676 20.592 298.772 20.688C298.484 20.88 298.436 21.216 298.34 21.408ZM299.828 25.536C299.876 25.488 299.828 25.392 299.78 25.296L299.684 24.912C299.636 24.864 299.444 24.864 299.444 24.912L299.348 25.2C299.348 25.344 299.444 25.488 299.348 25.632C299.204 25.824 299.108 25.92 299.444 26.16C299.492 26.16 299.636 26.16 299.588 26.112C299.444 26.016 299.444 25.92 299.588 25.776C299.636 25.776 299.684 25.728 299.732 25.68C299.732 25.632 299.78 25.584 299.828 25.536ZM299.156 35.712C299.204 35.616 299.108 35.472 299.06 35.328C299.012 35.28 298.82 35.28 298.82 35.328L299.012 35.76C299.012 35.76 299.156 35.76 299.156 35.712ZM299.396 27.264C299.396 27.312 299.54 27.312 299.54 27.312C299.492 27.072 299.54 26.88 299.54 26.688H299.444C299.444 26.88 299.396 27.072 299.396 27.264ZM298.868 19.296C298.868 19.296 298.82 19.344 298.868 19.344H298.916C298.964 19.392 298.964 19.392 298.964 19.344C298.916 19.344 298.916 19.344 298.868 19.296Z" fill="#1D4F72"/>
</svg>
