<svg width="253" height="46" viewBox="0 0 253 46" fill="none" xmlns="http://www.w3.org/2000/svg">
<path d="M21.312 2.59203C23.568 5.85602 19.632 5.85602 17.616 5.90403C15.12 6.00003 13.968 5.66403 13.728 8.20803C13.44 11.04 13.68 14.064 13.728 16.896C13.776 22.56 14.208 28.176 14.352 33.84C14.4 35.952 15.744 40.272 13.68 41.28C12.192 42 9.79199 40.896 9.21599 39.36C8.54399 37.68 9.50399 34.176 9.40799 32.304C9.31199 29.952 9.35999 27.6 9.35999 25.2C9.31199 22.128 9.40799 19.104 9.31199 16.032C9.26399 13.536 9.79199 10.32 9.16799 7.92003C9.26399 8.54403 8.68799 7.53603 9.02399 7.63203C6.86399 6.48003 3.21599 9.07203 1.05599 7.15203C0.0479941 6.28802 -5.90086e-06 4.22403 0.719994 3.26403C1.91999 1.53603 4.65599 3.60003 6.57599 3.40802C7.77599 3.26403 8.87999 2.88003 9.93599 2.44803C12 1.58403 12.384 2.01603 14.496 1.87202C16.704 1.72803 19.536 2.57492e-05 21.312 2.59203ZM12.048 28.224C12.048 28.032 12.192 27.696 12 27.504L11.904 27.408C11.904 27.312 11.952 27.168 12 27.072C12 26.928 12 26.784 11.904 26.64C11.856 26.544 11.808 26.4 11.808 26.256C11.808 26.112 11.904 25.968 12 25.824C12.096 25.536 12.048 25.248 12.048 25.008C12.096 24.672 12.096 24.336 11.952 24.048C11.904 23.952 11.712 23.952 11.616 24C11.664 23.952 11.664 23.952 11.616 23.952C11.616 23.808 11.616 23.664 11.568 23.52C11.568 23.424 11.376 23.232 11.472 23.136C11.472 23.088 11.52 23.04 11.568 22.992C11.664 22.752 11.76 22.608 11.76 22.416C11.76 22.224 11.712 21.984 11.52 21.84H11.328C11.136 21.696 11.472 21.408 11.52 21.264C11.664 20.976 11.664 20.688 11.328 20.496C11.232 20.448 10.896 20.448 10.896 20.544C10.8 20.688 10.944 20.832 10.992 20.976C10.992 21.12 10.992 21.264 10.944 21.408C10.944 21.504 10.896 21.744 11.136 21.84C11.04 21.84 10.992 21.888 10.992 21.888C10.896 22.128 11.088 22.368 11.088 22.608C11.04 22.848 10.8 23.136 10.8 23.424C10.752 23.568 10.944 23.712 11.04 23.856C11.04 23.904 11.088 23.904 11.088 23.904V23.952C10.992 24.384 10.56 24.864 10.896 25.296C10.896 25.344 11.184 25.296 11.232 25.248C11.376 25.056 11.328 24.864 11.424 24.624L11.568 24.336V24.96C11.52 25.296 11.568 25.632 11.328 25.968C11.184 26.208 11.184 26.448 11.28 26.688L11.424 26.976C11.376 26.928 11.184 26.976 11.136 27.024C11.088 27.168 11.232 27.264 11.376 27.408C11.568 27.504 11.616 27.696 11.616 27.84C11.52 27.84 11.424 27.888 11.376 27.936C11.28 27.984 11.376 28.08 11.424 28.128C11.472 28.224 11.616 28.368 11.568 28.464C11.568 28.512 11.616 28.512 11.616 28.512C11.616 28.656 11.568 28.848 11.52 28.992C11.472 28.992 11.424 29.04 11.376 29.04C11.28 29.184 11.328 29.328 11.28 29.472C11.232 29.664 11.328 29.808 11.328 30C11.328 30.096 11.376 30.144 11.28 30.24C11.232 30.288 11.232 30.336 11.232 30.384C11.232 30.48 11.424 30.48 11.568 30.528V30.624C11.568 30.768 11.712 30.912 11.808 31.056H11.856L11.664 30.624C11.712 30.672 11.856 30.624 11.904 30.624C12 30.528 12 30.48 11.904 30.384C11.712 30.288 11.952 30.144 11.904 30C11.856 29.856 11.808 29.664 11.856 29.472C11.856 29.328 12 29.136 11.808 28.992H11.76C11.808 28.992 11.808 28.944 11.808 28.944C11.952 28.704 12 28.464 12.048 28.224ZM12.096 16.512C12.192 16.416 12.288 16.224 12.144 16.128C12 16.032 11.712 16.08 11.52 16.128C11.52 16.08 11.52 16.032 11.568 16.032C11.568 15.888 11.616 15.792 11.664 15.696C11.664 15.456 11.52 15.216 11.424 14.976H11.136C11.088 15.216 11.04 15.456 11.04 15.696C11.088 15.792 11.04 15.888 11.04 16.032C10.992 16.128 11.088 16.224 11.184 16.32C10.896 16.512 10.848 16.848 10.8 17.04C10.704 17.232 10.704 17.424 10.704 17.616C10.704 17.808 10.896 17.952 11.088 18.144V18.192C10.992 18.576 10.848 18.912 10.848 19.296C10.848 19.488 10.896 19.68 10.896 19.824C10.944 20.016 10.944 20.208 11.04 20.4C11.04 20.448 11.136 20.448 11.184 20.4L11.28 20.064C11.28 20.208 11.328 20.352 11.424 20.448C11.472 20.496 11.76 20.496 11.808 20.4L11.904 19.92C11.904 19.68 11.952 19.488 12 19.296C12.048 18.96 12.048 18.576 11.904 18.288C11.856 18.144 11.76 18.048 11.664 18C11.712 17.904 11.712 17.856 11.712 17.76C11.808 17.376 11.856 16.944 12.096 16.512ZM12.192 21.312C12.192 21.216 12.192 21.12 12.144 21.072C12.048 20.928 12.048 20.784 12 20.64C12 20.64 11.76 20.64 11.76 20.688C11.712 20.784 11.712 20.88 11.712 20.976C11.712 21.12 11.808 21.264 11.712 21.408C11.568 21.6 11.472 21.744 11.856 21.888C11.904 21.936 12.048 21.888 12 21.888C11.856 21.792 11.808 21.648 11.952 21.552L12.192 21.312ZM12 31.824C12.048 31.68 11.952 31.536 11.904 31.392C11.856 31.344 11.664 31.344 11.664 31.392C11.712 31.536 11.76 31.68 11.856 31.824C11.856 31.872 12 31.824 12 31.824ZM12 23.04C12 23.088 12.144 23.04 12.144 23.04L12 22.416C12 22.416 11.952 22.416 11.952 22.464C11.952 22.656 11.952 22.848 12 23.04ZM11.424 26.976C11.424 27.024 11.472 27.072 11.52 27.12V27.216C11.472 27.12 11.424 27.072 11.424 26.976ZM11.088 14.88V14.928H11.184C11.184 14.928 11.136 14.88 11.088 14.88ZM39.7069 36.816C40.6189 38.784 44.8429 43.488 41.7709 44.304C38.6989 45.12 37.1629 40.8 35.9629 38.688C35.0509 37.104 33.0349 29.952 31.1149 30C30.9709 32.304 30.6349 34.896 31.4029 37.152C31.9309 38.832 33.3229 41.04 31.4029 42.336C26.3629 45.744 26.6509 33.36 26.6029 31.488C26.5069 26.832 27.0829 22.128 27.1309 17.472C27.1309 14.496 27.2749 11.52 27.2749 8.59203C27.2269 6.04803 26.5549 4.60803 28.3789 2.64003C29.9149 2.92803 31.0669 3.21603 32.5069 2.92803C34.2829 2.49603 35.2909 1.92003 37.2109 2.92803C40.2349 4.51202 40.7149 8.25603 40.8589 11.328C41.0989 15.12 40.5229 18.864 38.7469 22.32C37.4509 24.816 34.1869 25.728 35.5309 28.608C36.7789 31.392 38.4109 34.032 39.7069 36.816ZM31.5469 23.568C34.9069 21.888 39.3709 6.96002 34.4269 6.72003C30.0109 6.52803 31.5469 20.976 31.5469 23.568ZM29.4349 31.632H29.3869V31.584C29.5309 31.344 29.9629 31.104 29.7229 30.864C29.6749 30.816 29.3869 30.864 29.3389 30.864C29.1469 31.008 29.2429 31.104 29.0989 31.2L28.9549 31.392C28.9549 31.248 28.9549 31.152 29.0029 31.008C29.0509 30.864 29.0509 30.672 29.2909 30.48C29.4829 30.336 29.4829 30.24 29.3869 30.096C29.2909 30 29.2909 29.904 29.1949 29.856C29.1949 29.856 29.1949 29.808 29.1469 29.808C29.2429 29.856 29.2909 29.904 29.2909 29.904C29.2909 29.952 29.5309 29.952 29.5309 29.904C29.6269 29.856 29.4829 29.76 29.3389 29.712C29.1949 29.616 29.1469 29.52 29.0989 29.424H29.3869C29.4829 29.376 29.3869 29.328 29.3869 29.28C29.2909 29.232 29.1949 29.184 29.2429 29.088H29.1949C29.1949 28.992 29.2909 28.896 29.2909 28.8H29.4349C29.5789 28.704 29.5309 28.608 29.5789 28.56C29.6269 28.464 29.5789 28.368 29.5789 28.272C29.5789 28.224 29.5309 28.176 29.6269 28.128C29.6749 28.128 29.7229 28.08 29.6749 28.08C29.6749 28.032 29.4829 27.984 29.3869 27.984V27.936C29.3869 27.84 29.2429 27.744 29.1469 27.696H29.0989L29.2909 27.888C29.1949 27.888 29.0989 27.888 29.0509 27.936C28.9549 27.984 28.9069 27.984 29.0509 28.032C29.1949 28.128 28.9549 28.176 29.0029 28.272C29.0029 28.368 29.0509 28.464 29.0029 28.56C29.0029 28.608 28.8589 28.704 29.0509 28.8L29.0029 28.848C28.8589 28.992 28.8109 29.088 28.7629 29.232C28.7149 29.328 28.5709 29.52 28.7149 29.616C28.7629 29.616 28.8109 29.664 28.8589 29.664C28.8109 29.664 28.8109 29.664 28.8109 29.712C28.8589 29.76 28.7629 29.808 28.7149 29.856C28.7149 29.952 28.7149 30 28.7629 30.096C28.8109 30.192 28.8109 30.24 28.8109 30.288C28.8109 30.384 28.7149 30.48 28.6189 30.576C28.5229 30.72 28.5229 30.864 28.5229 31.008C28.4749 31.2 28.4269 31.344 28.5229 31.536C28.5709 31.584 28.7629 31.584 28.8589 31.536V31.584C28.8589 31.68 28.8589 31.776 28.9069 31.824C28.9069 31.872 29.0509 31.968 28.9549 32.016C28.9549 32.064 28.9069 32.112 28.8589 32.112L28.6189 32.448C28.6189 32.544 28.6189 32.64 28.8589 32.736H29.0029C29.2429 32.832 28.8589 32.976 28.7629 33.072C28.6189 33.216 28.6189 33.36 28.9549 33.504C29.0029 33.504 29.3389 33.504 29.3869 33.456C29.4829 33.408 29.3389 33.312 29.3389 33.216C29.2909 33.168 29.3389 33.072 29.3389 33.024C29.3869 32.928 29.4349 32.784 29.2429 32.736H29.3869C29.4829 32.592 29.2909 32.448 29.3389 32.352C29.3869 32.208 29.6269 32.064 29.6749 31.872C29.6749 31.824 29.5309 31.728 29.4349 31.632ZM29.3389 35.376C29.3869 35.28 29.4349 35.184 29.4349 35.04C29.3869 34.944 29.2429 34.896 29.0509 34.8V34.752C29.1949 34.56 29.3389 34.368 29.3869 34.176C29.3869 34.032 29.3389 33.936 29.2909 33.84C29.2909 33.744 29.3389 33.648 29.2429 33.552C29.2429 33.504 29.0989 33.504 29.0989 33.552L28.9549 33.744C28.9549 33.648 28.9069 33.6 28.8109 33.504H28.4749C28.3789 33.6 28.3789 33.696 28.3309 33.792C28.3309 33.936 28.2829 34.032 28.2349 34.176C28.1389 34.32 28.1389 34.512 28.2349 34.704L28.4749 34.848L28.3789 34.992C28.2829 35.232 28.2349 35.424 27.9469 35.664C27.8989 35.76 27.8029 35.856 27.9469 35.904C28.0429 35.952 28.3789 35.952 28.5229 35.904V35.952C28.4749 36 28.4269 36.048 28.4269 36.144C28.3789 36.24 28.5229 36.384 28.6189 36.528H28.8109C28.8589 36.576 28.8589 36.576 28.9069 36.576L28.8589 36.528C28.9549 36.384 29.0509 36.24 29.0029 36.144C29.0029 36.096 29.0509 36 29.0509 35.952C29.0509 35.904 28.9549 35.856 28.9069 35.808C29.1949 35.664 29.2429 35.472 29.3389 35.376ZM28.1389 33.024C28.0909 33.072 28.1389 33.12 28.1869 33.168L28.2829 33.408H28.5229C28.5709 33.312 28.5709 33.264 28.5709 33.216C28.6189 33.12 28.5229 33.072 28.6189 32.976C28.7629 32.88 28.8589 32.784 28.4749 32.688C28.4749 32.688 28.2829 32.688 28.3309 32.736C28.4749 32.784 28.5229 32.832 28.3789 32.928C28.2829 32.976 28.1869 32.976 28.1389 33.024ZM29.0029 27.264C28.9549 27.36 29.0029 27.408 29.0989 27.504H29.3389L29.1469 27.264C29.1469 27.216 29.0029 27.264 29.0029 27.264ZM28.4269 32.064H28.2829C28.3309 32.208 28.3789 32.304 28.3789 32.4H28.4269C28.4269 32.304 28.4749 32.208 28.4269 32.064ZM54.6191 13.344C54.4271 16.992 54.3791 20.64 54.4751 24.288C54.5711 30.24 54.9071 36.48 54.1871 42.096C54.1391 42.576 52.3151 42 52.3151 42.24C48.2351 42 49.4351 37.92 49.5791 34.896C49.7231 30.672 49.4351 26.544 49.6271 22.368C49.8191 18.288 49.6271 14.16 49.7711 10.032C49.9151 5.61602 48.3791 1.68003 54.1871 2.30402C53.9471 2.35203 53.6591 2.40003 53.4191 2.49603C56.1071 4.89603 54.7631 10.08 54.6191 13.344ZM53.2271 9.93603C53.2751 9.88803 53.3231 9.84002 53.3231 9.79203C53.3231 9.74403 53.1311 9.69603 52.9871 9.64803V9.60003C52.9871 9.50403 52.8911 9.36003 52.7951 9.26403H52.7471C52.7471 9.36003 52.8911 9.45603 52.8911 9.60003C52.8431 9.55203 52.6991 9.55203 52.6991 9.60003C52.5551 9.64803 52.5551 9.69603 52.6511 9.74403C52.8431 9.84002 52.6031 9.93603 52.6031 10.032C52.6511 10.176 52.6511 10.32 52.6031 10.464C52.6031 10.56 52.4591 10.704 52.6031 10.8C52.6031 10.8 52.6511 10.8 52.6511 10.848H52.6031C52.4111 11.04 52.3631 11.232 52.3151 11.376C52.2671 11.52 52.1231 11.76 52.2671 11.904C52.3151 11.952 52.3631 11.952 52.3631 12C52.3631 12.096 52.2671 12.192 52.2671 12.24C52.2191 12.384 52.2191 12.48 52.2671 12.576C52.3151 12.672 52.3151 12.768 52.3151 12.864C52.3151 13.008 52.2191 13.104 52.1231 13.2C51.9791 13.392 51.9791 13.632 51.9791 13.824C51.9311 14.064 51.8831 14.304 51.9791 14.544C51.9791 14.592 52.1711 14.64 52.2671 14.64H52.3151C52.2671 14.784 52.2671 14.88 52.3151 14.976C52.3151 15.072 52.4591 15.168 52.3631 15.264C52.3631 15.312 52.3151 15.36 52.2671 15.408C52.1711 15.552 52.0271 15.648 52.0271 15.792C52.0271 15.936 52.0271 16.128 52.2191 16.224C52.2191 16.272 52.3151 16.272 52.3631 16.272C52.5551 16.368 52.2191 16.608 52.1231 16.704C51.9791 16.896 51.9791 17.088 52.2671 17.28C52.3631 17.328 52.6511 17.328 52.6991 17.28C52.7951 17.184 52.6511 17.04 52.6511 16.944C52.6511 16.848 52.6511 16.752 52.6991 16.656C52.7471 16.512 52.7951 16.368 52.6031 16.272C52.6511 16.272 52.6991 16.272 52.7471 16.224C52.8431 16.08 52.6511 15.888 52.6991 15.696C52.7471 15.504 53.0351 15.312 53.0831 15.12C53.1311 15.024 52.9391 14.88 52.8431 14.736V14.688C52.9391 14.352 53.4191 14.064 53.1791 13.68C53.1311 13.632 52.8431 13.68 52.7951 13.68C52.6031 13.824 52.6991 14.016 52.5551 14.16L52.4111 14.352C52.4111 14.208 52.4111 14.016 52.4591 13.872C52.5071 13.632 52.5071 13.392 52.7951 13.152C52.9871 12.96 52.9871 12.816 52.8911 12.576C52.8431 12.528 52.7951 12.48 52.7951 12.432C52.8431 12.432 53.0351 12.432 53.0831 12.384C53.1791 12.288 53.0351 12.144 52.8911 12.048C52.6991 11.952 52.6991 11.808 52.6511 11.712C52.7471 11.712 52.8911 11.664 52.9391 11.664C53.0351 11.616 52.9391 11.568 52.9391 11.52C52.8431 11.424 52.7471 11.328 52.7951 11.232C52.7951 11.232 52.7951 11.184 52.7471 11.184L52.8911 10.848C52.9391 10.848 52.9871 10.848 53.0351 10.8C53.1791 10.704 53.1311 10.608 53.1791 10.512C53.2271 10.368 53.1791 10.224 53.1791 10.128C53.1791 10.032 53.1311 9.98403 53.2271 9.93603ZM52.5551 19.92C52.6511 19.776 52.6991 19.632 52.6991 19.488C52.6511 19.344 52.5071 19.2 52.3151 19.056C52.4591 18.768 52.6511 18.48 52.6511 18.24C52.6511 18.096 52.6511 17.952 52.6031 17.808C52.6031 17.664 52.6511 17.52 52.5551 17.376C52.5551 17.328 52.4111 17.328 52.4111 17.376L52.2671 17.616C52.2671 17.52 52.2191 17.424 52.1231 17.28H51.7871C51.6911 17.424 51.6911 17.568 51.6431 17.664L51.4991 18.144C51.4511 18.432 51.4031 18.672 51.4991 18.912C51.5471 19.008 51.6431 19.104 51.7391 19.152L51.6431 19.296C51.5471 19.632 51.4991 19.92 51.2111 20.256C51.1151 20.352 51.0191 20.496 51.1631 20.592C51.3071 20.64 51.5951 20.64 51.7871 20.592C51.7871 20.64 51.7391 20.64 51.7391 20.688C51.6911 20.736 51.6431 20.832 51.6431 20.88C51.5951 21.072 51.7391 21.264 51.8351 21.456C51.8831 21.456 52.0751 21.504 52.1231 21.456C52.1711 21.264 52.2671 21.12 52.2191 20.928C52.2191 20.832 52.2671 20.736 52.2671 20.688C52.3151 20.592 52.2191 20.544 52.1231 20.448C52.4111 20.304 52.4591 20.064 52.5551 19.92ZM51.4991 16.608C51.4511 16.656 51.4511 16.752 51.4991 16.8C51.5951 16.896 51.5471 16.992 51.5951 17.088C51.6431 17.136 51.8351 17.136 51.8351 17.136C51.8831 17.04 51.9311 16.944 51.9311 16.896C51.9311 16.752 51.8351 16.656 51.9311 16.56C52.1231 16.416 52.2191 16.32 51.8351 16.176H51.6911C51.8351 16.272 51.8831 16.368 51.7391 16.464L51.4991 16.608ZM52.6511 8.68803C52.6031 8.78403 52.6991 8.88003 52.7471 9.02403H52.9871L52.8431 8.68803C52.7951 8.64003 52.6511 8.64003 52.6511 8.68803ZM51.8351 15.312C51.7871 15.264 51.6911 15.264 51.6911 15.312C51.7391 15.456 51.7391 15.6 51.7391 15.744H51.8351V15.312ZM52.6991 12.192C52.7951 12.24 52.8431 12.336 52.7951 12.384C52.7471 12.336 52.7471 12.288 52.7471 12.24C52.7471 12.24 52.6991 12.24 52.6991 12.192ZM52.1231 21.552C52.1711 21.552 52.1711 21.504 52.1711 21.504H52.0271C52.0751 21.504 52.0751 21.552 52.1231 21.552ZM77.4217 40.848V40.992C76.1737 41.952 74.5417 42.576 73.4377 41.76C73.0057 41.472 72.5737 39.6 72.5737 38.448C72.6217 37.056 72.3337 35.808 71.9977 34.512C70.8457 35.136 69.6937 35.376 68.5417 35.952C66.6697 36.864 67.5337 35.568 67.1497 37.728C66.9097 39.216 67.2937 40.704 66.4777 41.808C65.3257 43.344 63.6457 42.864 62.6857 41.664C61.4377 40.176 61.7257 38.016 61.8217 36.192C62.1577 30.672 63.8857 25.2 65.0377 19.776C65.9017 15.504 66.7657 11.232 68.0617 7.10403C68.6377 5.32803 68.9257 4.17603 70.9417 3.64803C72.6217 3.21603 74.4937 3.60003 75.0217 5.37603C75.1177 5.71203 74.3497 8.06402 74.3017 8.44803C74.2537 9.55203 74.4457 10.704 74.5417 11.808C74.6857 14.208 74.5897 16.656 74.7337 19.056C74.9257 22.512 74.6857 24.144 75.1657 27.552C75.4537 29.52 76.0297 32.832 76.1257 34.848C76.2697 36.912 77.3257 38.928 77.4217 40.848ZM68.1097 30.96C72.4777 30.96 71.9017 28.656 71.7577 24.96C71.6617 21.6 72.1417 17.424 70.9417 14.256C69.8857 14.976 69.6457 20.448 69.3577 21.792C68.7817 24.816 68.3017 27.888 68.1097 30.96ZM66.8137 26.832C66.8617 26.736 67.0057 26.592 66.8137 26.496C66.7177 26.448 66.3817 26.448 66.2377 26.496V26.448C66.2857 26.352 66.3337 26.256 66.3337 26.208C66.3337 26.112 66.2857 26.016 66.2377 25.92C66.1897 25.824 66.0937 25.728 65.9977 25.68C65.9977 25.632 65.8057 25.68 65.8057 25.728C65.7097 25.92 65.7097 26.064 65.7577 26.208C65.7577 26.304 65.7097 26.4 65.7097 26.448C65.7097 26.544 65.8057 26.592 65.8537 26.64C65.5657 26.832 65.5177 27.024 65.4217 27.168C65.3257 27.264 65.2777 27.408 65.2777 27.552C65.2777 27.696 65.4697 27.792 65.6137 27.936V27.984C65.4697 28.224 65.2777 28.464 65.2297 28.704C65.1817 28.848 65.2297 28.992 65.2297 29.088C65.2297 29.232 65.1817 29.376 65.2297 29.52C65.2297 29.52 65.2297 29.568 65.2777 29.568H65.0857C64.9897 29.664 65.1337 29.808 65.1337 29.904L65.0377 30.192C64.9897 30.24 64.8937 30.432 65.1337 30.528H64.9897C64.8457 30.672 64.9897 30.864 64.9417 31.008C64.8937 31.2 64.6057 31.344 64.5097 31.536C64.4617 31.632 64.6537 31.776 64.7017 31.872C64.7017 31.92 64.7017 31.92 64.7497 31.92L64.7017 31.968C64.5577 32.256 64.0297 32.496 64.2697 32.832C64.3177 32.88 64.6057 32.928 64.6537 32.88C64.8457 32.784 64.7977 32.64 64.9417 32.496L65.1337 32.304L64.9897 32.736C64.8937 32.976 64.8937 33.216 64.6057 33.36C64.3657 33.504 64.3177 33.696 64.4137 33.888L64.5577 34.224V34.272C64.5097 34.224 64.4617 34.128 64.4617 34.08C64.4617 34.08 64.2697 34.032 64.2217 34.032C64.1257 34.128 64.2217 34.272 64.3657 34.368C64.5097 34.512 64.5577 34.608 64.5097 34.752C64.4137 34.704 64.3177 34.704 64.2697 34.752C64.1737 34.752 64.2217 34.848 64.2697 34.848C64.3177 34.944 64.4137 35.088 64.3177 35.136C64.3177 35.184 64.3657 35.184 64.3657 35.184C64.3177 35.28 64.2697 35.376 64.1737 35.472H64.0297C63.8857 35.568 63.9337 35.664 63.8377 35.76C63.7897 35.856 63.7897 36 63.7897 36.096C63.7897 36.192 63.7897 36.24 63.6937 36.288C63.6457 36.288 63.5977 36.336 63.5977 36.336C63.5977 36.432 63.7897 36.48 63.8857 36.528V36.576C63.8857 36.72 63.9817 36.816 64.0297 36.96H64.0777C64.0777 36.864 63.9817 36.72 63.9817 36.624C64.0297 36.672 64.1737 36.672 64.2217 36.672C64.3177 36.624 64.3657 36.624 64.2697 36.528C64.0777 36.384 64.3657 36.384 64.3657 36.288C64.3657 36.144 64.3657 36 64.4137 35.904C64.4137 35.808 64.6057 35.712 64.4617 35.568H64.4137L64.5097 35.52C64.6537 35.376 64.7497 35.232 64.8457 35.088C64.8937 34.944 65.0857 34.752 64.9417 34.608C64.9417 34.56 64.8937 34.512 64.8457 34.512C64.8937 34.512 64.8937 34.512 64.8937 34.464C64.8937 34.416 64.9897 34.368 64.9897 34.272C65.0377 34.176 65.0857 34.08 65.0377 33.984C65.0377 33.888 64.9897 33.792 65.0377 33.696C65.0377 33.6 65.1817 33.504 65.2777 33.408C65.4217 33.264 65.4217 33.072 65.4697 32.88C65.5657 32.64 65.6137 32.4 65.5657 32.16C65.5657 32.112 65.3257 32.112 65.2297 32.112C65.2777 32.064 65.2777 32.064 65.2297 32.064C65.2777 31.968 65.2777 31.824 65.2777 31.728C65.2777 31.68 65.1337 31.536 65.2297 31.488L65.3257 31.392C65.4697 31.248 65.6137 31.152 65.6617 31.008C65.6617 30.864 65.6617 30.72 65.5177 30.576C65.4697 30.576 65.4217 30.576 65.3257 30.528C65.1337 30.432 65.5177 30.24 65.6137 30.192C65.8057 30 65.8057 29.808 65.5177 29.616C65.4697 29.616 65.4217 29.568 65.3257 29.568L65.3737 29.52L65.5177 29.328C65.5177 29.424 65.5657 29.568 65.6617 29.616C65.7097 29.664 65.9497 29.664 65.9977 29.616C66.0937 29.52 66.1417 29.424 66.1897 29.28L66.3337 28.848C66.4297 28.608 66.5257 28.368 66.4297 28.128C66.3817 28.128 66.3817 28.08 66.3817 28.08V28.032H66.3337L66.2377 27.888C66.2377 27.84 66.2857 27.792 66.2857 27.744C66.4297 27.456 66.5257 27.168 66.8137 26.832ZM66.2377 30.288C66.2857 30.24 66.2857 30.192 66.2377 30.144C66.1897 30.048 66.1897 29.952 66.1897 29.856C66.1417 29.808 65.9497 29.76 65.9497 29.808C65.9017 29.856 65.8537 29.952 65.8537 30C65.8057 30.096 65.9017 30.24 65.7577 30.288C65.6137 30.432 65.5177 30.528 65.8537 30.672C65.8537 30.72 66.0457 30.72 65.9977 30.672C65.8537 30.576 65.8057 30.528 65.9977 30.432C66.0937 30.384 66.1897 30.384 66.2377 30.288ZM64.0777 37.536C64.1257 37.44 64.0777 37.296 64.0297 37.2C64.0297 37.152 63.8377 37.104 63.8377 37.152C63.8377 37.248 63.8857 37.392 63.8857 37.488C63.9337 37.488 64.0777 37.536 64.0777 37.536ZM65.8057 31.536H65.9017V31.104C65.9017 31.056 65.8537 31.056 65.8057 31.056C65.8057 31.2 65.7577 31.344 65.8057 31.536ZM65.7097 25.68H65.8057C65.8057 25.68 65.8057 25.632 65.7097 25.68ZM99.0877 39.984C100.864 42.336 98.2237 42.432 96.4957 42.48C93.8077 42.48 91.2157 43.344 88.6237 43.296C83.0077 43.152 84.8317 38.88 84.8317 34.8C84.8317 29.616 84.6877 24.384 84.6397 19.2C84.6397 14.544 85.2637 9.16803 83.7277 4.70403C83.7277 4.65603 83.7757 4.60803 83.7757 4.56003C84.6397 2.83203 87.9037 3.02403 88.9597 4.41603C90.0157 5.85602 89.3917 8.64003 89.4877 10.272C89.8237 14.64 89.9677 19.104 90.0637 23.472C90.2077 27.648 90.0637 31.776 90.3997 36C90.5917 38.4 90.1597 38.592 92.5597 38.784C94.1917 38.88 97.9357 38.448 99.0877 39.984ZM88.1917 28.272V28.224C88.2397 27.888 88.7197 27.552 88.4317 27.264C88.3837 27.216 88.0957 27.264 88.0477 27.312C87.9037 27.456 87.9517 27.6 87.8557 27.744L87.7117 27.936C87.7117 27.792 87.7117 27.648 87.7597 27.504C87.7597 27.264 87.7597 27.024 87.9517 26.784C88.1437 26.592 88.1437 26.448 88.0477 26.256C87.9517 26.16 87.9037 26.064 87.8557 25.968L87.8077 25.92C87.8557 25.92 87.9517 25.968 87.9517 26.064C87.9037 26.064 88.1437 26.064 88.1917 26.016C88.2397 25.92 88.0957 25.824 87.9517 25.728C87.7597 25.68 87.7117 25.536 87.7117 25.44C87.8077 25.44 87.9037 25.392 87.9517 25.344C88.0477 25.296 87.9997 25.248 87.9517 25.248C87.8557 25.152 87.7597 25.056 87.7597 24.96H87.7117C87.7597 24.864 87.8077 24.72 87.8077 24.624C87.9037 24.576 87.9037 24.576 87.9517 24.576C88.0957 24.432 87.9997 24.336 88.0477 24.24C88.0957 24.096 87.9997 23.952 87.9997 23.856C87.9517 23.76 87.9517 23.712 87.9997 23.616C88.0477 23.568 88.0477 23.52 88.0477 23.52C87.9997 23.424 87.8077 23.424 87.7117 23.424V23.376C87.6637 23.232 87.5197 23.184 87.3757 23.088H87.3277C87.3757 23.184 87.5197 23.28 87.6157 23.376C87.5197 23.376 87.4237 23.376 87.3757 23.424C87.2797 23.52 87.2797 23.568 87.3757 23.616C87.6157 23.664 87.3757 23.808 87.4237 23.904C87.4717 24 87.5197 24.144 87.5197 24.24C87.4717 24.384 87.3757 24.528 87.5197 24.624H87.5677L87.5197 24.672C87.3757 24.864 87.3277 25.008 87.3277 25.2C87.2797 25.344 87.1837 25.584 87.3277 25.68L87.4717 25.776H87.4237C87.4717 25.824 87.3757 25.92 87.3757 26.016C87.3277 26.112 87.3277 26.208 87.4237 26.304C87.4717 26.4 87.5197 26.496 87.5197 26.592C87.5197 26.688 87.3757 26.784 87.3277 26.88C87.2317 27.12 87.2317 27.312 87.2317 27.504C87.2317 27.696 87.1837 27.936 87.3277 28.176C87.3277 28.224 87.4717 28.224 87.6157 28.224C87.6157 28.32 87.6637 28.464 87.6637 28.56C87.6637 28.608 87.8557 28.704 87.7597 28.8L87.6637 28.944C87.5677 29.04 87.4717 29.184 87.4237 29.328C87.4237 29.472 87.4717 29.616 87.6637 29.712C87.6637 29.712 87.7597 29.76 87.8557 29.76C88.0477 29.808 87.6637 30.048 87.6157 30.144C87.4717 30.336 87.4717 30.528 87.7597 30.672C87.8557 30.72 88.1917 30.72 88.2397 30.672C88.2877 30.576 88.1437 30.432 88.1437 30.336C88.1437 30.24 88.1437 30.144 88.1917 30.048C88.1917 29.952 88.2877 29.808 88.0477 29.712C88.0957 29.712 88.1437 29.712 88.1917 29.664C88.2877 29.52 88.0957 29.376 88.1437 29.184C88.1437 28.992 88.3837 28.8 88.4317 28.608C88.4797 28.512 88.2877 28.368 88.1917 28.272ZM88.1437 33.168C88.1917 33.024 88.2397 32.88 88.2397 32.736C88.2397 32.592 88.0477 32.496 87.8557 32.4L87.9037 32.352C87.9997 32.064 88.1917 31.824 88.1917 31.584C88.1917 31.44 88.1917 31.296 88.1437 31.152C88.1437 31.008 88.1437 30.864 88.0957 30.768C88.0477 30.72 87.9517 30.72 87.9037 30.768L87.8077 31.008C87.8077 30.912 87.7597 30.816 87.6637 30.72C87.6157 30.672 87.3277 30.672 87.2797 30.72L87.1837 31.104L87.0397 31.536C86.9917 31.776 86.9437 32.016 87.0877 32.256C87.0877 32.352 87.1837 32.4 87.2797 32.448C87.2797 32.496 87.2317 32.544 87.2317 32.592C87.0877 32.88 87.0397 33.168 86.7517 33.456C86.7037 33.552 86.5597 33.696 86.7037 33.744C86.8477 33.84 87.1357 33.84 87.3277 33.792C87.3277 33.84 87.3277 33.84 87.2797 33.888C87.2317 33.936 87.1837 33.984 87.1837 34.08C87.1357 34.224 87.2797 34.416 87.3757 34.608H87.6157C87.7117 34.464 87.8077 34.272 87.7597 34.128C87.7597 34.032 87.8077 33.936 87.8557 33.888C87.8557 33.792 87.7597 33.744 87.7117 33.648C87.9997 33.504 88.0477 33.312 88.1437 33.168ZM86.9917 30.096C86.9437 30.192 86.9437 30.24 86.9917 30.288C87.0877 30.384 87.0397 30.48 87.0877 30.576H87.3277C87.3757 30.48 87.4237 30.432 87.4237 30.336C87.4237 30.24 87.3277 30.144 87.4237 30.048C87.5677 29.904 87.6637 29.808 87.2797 29.664C87.2797 29.664 87.1357 29.664 87.1357 29.712C87.2797 29.76 87.3277 29.856 87.1837 29.952C87.0877 30 86.9917 30.048 86.9917 30.096ZM87.0397 22.56C87.0397 22.656 87.0397 22.656 87.0877 22.704L87.2317 22.848C87.2797 22.848 87.4717 22.8 87.4717 22.752L87.3277 22.608L87.1837 22.512C87.1357 22.512 87.0397 22.56 87.0397 22.56ZM87.1837 28.848C87.1837 28.848 87.0877 28.848 87.0877 28.896L87.1837 29.28C87.1837 29.328 87.2317 29.328 87.2317 29.28C87.2317 29.136 87.2317 28.992 87.1837 28.848ZM135.971 39.984C137.747 42.336 135.107 42.432 133.379 42.48C130.691 42.48 128.099 43.344 125.507 43.296C119.891 43.152 121.715 38.88 121.715 34.8C121.715 29.616 121.571 24.384 121.523 19.2C121.523 14.544 122.147 9.16803 120.611 4.70403C120.611 4.65603 120.659 4.60803 120.659 4.56003C121.523 2.83203 124.787 3.02403 125.843 4.41603C126.899 5.85602 126.275 8.64003 126.371 10.272C126.707 14.64 126.851 19.104 126.947 23.472C127.091 27.648 126.947 31.776 127.283 36C127.475 38.4 127.043 38.592 129.443 38.784C131.075 38.88 134.819 38.448 135.971 39.984ZM125.075 28.272V28.224C125.123 27.888 125.603 27.552 125.315 27.264C125.267 27.216 124.979 27.264 124.931 27.312C124.787 27.456 124.835 27.6 124.739 27.744L124.595 27.936C124.595 27.792 124.595 27.648 124.643 27.504C124.643 27.264 124.643 27.024 124.835 26.784C125.027 26.592 125.027 26.448 124.931 26.256C124.835 26.16 124.787 26.064 124.739 25.968L124.691 25.92C124.739 25.92 124.835 25.968 124.835 26.064C124.787 26.064 125.027 26.064 125.075 26.016C125.123 25.92 124.979 25.824 124.835 25.728C124.643 25.68 124.595 25.536 124.595 25.44C124.691 25.44 124.787 25.392 124.835 25.344C124.931 25.296 124.883 25.248 124.835 25.248C124.739 25.152 124.643 25.056 124.643 24.96H124.595C124.643 24.864 124.691 24.72 124.691 24.624C124.787 24.576 124.787 24.576 124.835 24.576C124.979 24.432 124.883 24.336 124.931 24.24C124.979 24.096 124.883 23.952 124.883 23.856C124.835 23.76 124.835 23.712 124.883 23.616C124.931 23.568 124.931 23.52 124.931 23.52C124.883 23.424 124.691 23.424 124.595 23.424V23.376C124.547 23.232 124.403 23.184 124.259 23.088H124.211C124.259 23.184 124.403 23.28 124.499 23.376C124.403 23.376 124.307 23.376 124.259 23.424C124.163 23.52 124.163 23.568 124.259 23.616C124.499 23.664 124.259 23.808 124.307 23.904C124.355 24 124.403 24.144 124.403 24.24C124.355 24.384 124.259 24.528 124.403 24.624H124.451L124.403 24.672C124.259 24.864 124.211 25.008 124.211 25.2C124.163 25.344 124.067 25.584 124.211 25.68L124.355 25.776H124.307C124.355 25.824 124.259 25.92 124.259 26.016C124.211 26.112 124.211 26.208 124.307 26.304C124.355 26.4 124.403 26.496 124.403 26.592C124.403 26.688 124.259 26.784 124.211 26.88C124.115 27.12 124.115 27.312 124.115 27.504C124.115 27.696 124.067 27.936 124.211 28.176C124.211 28.224 124.355 28.224 124.499 28.224C124.499 28.32 124.547 28.464 124.547 28.56C124.547 28.608 124.739 28.704 124.643 28.8L124.547 28.944C124.451 29.04 124.355 29.184 124.307 29.328C124.307 29.472 124.355 29.616 124.547 29.712C124.547 29.712 124.643 29.76 124.739 29.76C124.931 29.808 124.547 30.048 124.499 30.144C124.355 30.336 124.355 30.528 124.643 30.672C124.739 30.72 125.075 30.72 125.123 30.672C125.171 30.576 125.027 30.432 125.027 30.336C125.027 30.24 125.027 30.144 125.075 30.048C125.075 29.952 125.171 29.808 124.931 29.712C124.979 29.712 125.027 29.712 125.075 29.664C125.171 29.52 124.979 29.376 125.027 29.184C125.027 28.992 125.267 28.8 125.315 28.608C125.363 28.512 125.171 28.368 125.075 28.272ZM125.027 33.168C125.075 33.024 125.123 32.88 125.123 32.736C125.123 32.592 124.931 32.496 124.739 32.4L124.787 32.352C124.883 32.064 125.075 31.824 125.075 31.584C125.075 31.44 125.075 31.296 125.027 31.152C125.027 31.008 125.027 30.864 124.979 30.768C124.931 30.72 124.835 30.72 124.787 30.768L124.691 31.008C124.691 30.912 124.643 30.816 124.547 30.72C124.499 30.672 124.211 30.672 124.163 30.72L124.067 31.104L123.923 31.536C123.875 31.776 123.827 32.016 123.971 32.256C123.971 32.352 124.067 32.4 124.163 32.448C124.163 32.496 124.115 32.544 124.115 32.592C123.971 32.88 123.923 33.168 123.635 33.456C123.587 33.552 123.443 33.696 123.587 33.744C123.731 33.84 124.019 33.84 124.211 33.792C124.211 33.84 124.211 33.84 124.163 33.888C124.115 33.936 124.067 33.984 124.067 34.08C124.019 34.224 124.163 34.416 124.259 34.608H124.499C124.595 34.464 124.691 34.272 124.643 34.128C124.643 34.032 124.691 33.936 124.739 33.888C124.739 33.792 124.643 33.744 124.595 33.648C124.883 33.504 124.931 33.312 125.027 33.168ZM123.875 30.096C123.827 30.192 123.827 30.24 123.875 30.288C123.971 30.384 123.923 30.48 123.971 30.576H124.211C124.259 30.48 124.307 30.432 124.307 30.336C124.307 30.24 124.211 30.144 124.307 30.048C124.451 29.904 124.547 29.808 124.163 29.664C124.163 29.664 124.019 29.664 124.019 29.712C124.163 29.76 124.211 29.856 124.067 29.952C123.971 30 123.875 30.048 123.875 30.096ZM123.923 22.56C123.923 22.656 123.923 22.656 123.971 22.704L124.115 22.848C124.163 22.848 124.355 22.8 124.355 22.752L124.211 22.608L124.067 22.512C124.019 22.512 123.923 22.56 123.923 22.56ZM124.067 28.848C124.067 28.848 123.971 28.848 123.971 28.896L124.067 29.28C124.067 29.328 124.115 29.328 124.115 29.28C124.115 29.136 124.115 28.992 124.067 28.848ZM155.395 4.08002C158.611 9.02403 149.635 5.08803 148.483 7.87203C147.667 9.88803 147.667 19.44 149.203 20.256C150.211 20.784 155.635 18.96 155.395 21.984C155.203 24.336 151.363 23.232 150.019 23.664C146.131 24.96 148.435 33.696 148.243 37.152C149.203 37.008 155.875 35.568 154.579 38.976C154.339 39.6 147.955 41.328 146.899 41.424C140.371 42.096 143.251 31.776 143.347 28.128C143.587 21.36 143.011 14.496 143.107 7.77603C143.107 5.32803 142.915 3.64803 145.891 3.12003C149.059 2.49603 152.419 2.83203 155.395 4.08002ZM145.891 25.968C145.891 25.632 145.939 25.296 145.795 24.96C145.795 24.912 145.603 24.912 145.507 24.912C145.555 24.912 145.555 24.864 145.507 24.864C145.507 24.72 145.507 24.576 145.459 24.384C145.459 24.288 145.267 24.144 145.363 24.048C145.411 24 145.459 23.904 145.459 23.856C145.603 23.664 145.699 23.52 145.699 23.28C145.699 23.136 145.699 22.896 145.507 22.752C145.459 22.704 145.363 22.704 145.315 22.704C145.123 22.56 145.459 22.272 145.555 22.128C145.699 21.888 145.699 21.552 145.363 21.36C145.267 21.312 144.979 21.312 144.931 21.36C144.835 21.504 144.979 21.696 144.979 21.84C145.027 21.984 144.979 22.08 144.979 22.224C144.931 22.368 144.883 22.608 145.123 22.704C145.027 22.704 144.979 22.752 144.979 22.752C144.835 22.992 145.027 23.232 145.027 23.472C144.979 23.76 144.739 24 144.691 24.288C144.643 24.432 144.835 24.624 144.931 24.768L144.979 24.816H144.931C144.883 25.296 144.403 25.728 144.691 26.16C144.739 26.256 144.979 26.208 145.027 26.16C145.219 25.968 145.171 25.776 145.267 25.536L145.411 25.248C145.411 25.488 145.411 25.68 145.363 25.92C145.315 26.208 145.363 26.544 145.123 26.88C144.931 27.12 144.931 27.36 145.027 27.648C145.123 27.792 145.171 27.936 145.219 28.08L145.267 28.128C145.171 28.08 145.123 28.032 145.123 27.936C145.123 27.888 144.883 27.888 144.883 27.936C144.787 28.08 144.931 28.224 145.123 28.368C145.267 28.464 145.315 28.656 145.315 28.8C145.219 28.848 145.123 28.848 145.075 28.896C144.979 28.944 145.027 29.04 145.075 29.088C145.171 29.184 145.267 29.328 145.219 29.472H145.267C145.219 29.664 145.171 29.808 145.171 29.952C145.075 29.952 145.027 30 145.027 30C144.883 30.144 144.931 30.336 144.883 30.48C144.835 30.624 144.931 30.816 144.931 30.96C144.931 31.056 144.931 31.104 144.883 31.2C144.835 31.248 144.787 31.296 144.787 31.344C144.835 31.44 145.027 31.488 145.123 31.536V31.584C145.123 31.776 145.267 31.92 145.363 32.064H145.411L145.219 31.632C145.267 31.68 145.411 31.68 145.459 31.632C145.555 31.536 145.555 31.488 145.459 31.392C145.267 31.296 145.507 31.152 145.507 31.008C145.459 30.864 145.411 30.672 145.459 30.48C145.459 30.336 145.603 30.144 145.459 30H145.411C145.411 29.952 145.459 29.952 145.459 29.904C145.603 29.712 145.651 29.424 145.699 29.184C145.747 28.992 145.891 28.704 145.699 28.512C145.699 28.464 145.651 28.416 145.603 28.368C145.603 28.272 145.699 28.176 145.699 28.032C145.699 27.888 145.699 27.744 145.651 27.6C145.603 27.504 145.603 27.36 145.603 27.216C145.555 27.072 145.699 26.928 145.747 26.784C145.891 26.496 145.843 26.208 145.891 25.968ZM146.323 17.376C146.419 17.232 146.515 17.088 146.371 16.944C146.275 16.896 145.939 16.896 145.747 16.944C145.795 16.896 145.795 16.848 145.795 16.848C145.843 16.704 145.891 16.608 145.891 16.512C145.939 16.272 145.795 16.032 145.699 15.792C145.651 15.744 145.459 15.744 145.459 15.792C145.363 15.984 145.267 16.224 145.315 16.464C145.315 16.56 145.267 16.704 145.267 16.8C145.267 16.896 145.315 17.04 145.411 17.088C145.123 17.328 145.075 17.664 144.979 17.856C144.883 18.048 144.883 18.24 144.883 18.432C144.883 18.624 145.075 18.768 145.267 18.96L145.219 19.008C145.123 19.392 144.931 19.728 144.931 20.112C144.931 20.304 144.979 20.496 144.979 20.688C145.027 20.88 144.979 21.072 145.075 21.264H145.219C145.267 21.12 145.315 21.024 145.315 20.88C145.363 21.024 145.411 21.168 145.507 21.312C145.555 21.36 145.795 21.36 145.843 21.312C145.939 21.12 145.939 20.976 145.939 20.784L146.083 20.16C146.131 19.824 146.179 19.44 146.035 19.104C146.035 19.008 145.939 18.912 145.843 18.816C145.843 18.768 145.891 18.672 145.891 18.624C146.035 18.192 146.083 17.808 146.323 17.376ZM146.179 22.224C146.227 22.128 146.179 22.032 146.131 21.984L146.035 21.552C146.035 21.504 145.795 21.504 145.795 21.552C145.747 21.648 145.747 21.744 145.747 21.888C145.699 22.032 145.795 22.128 145.699 22.272C145.555 22.512 145.459 22.608 145.843 22.8C145.891 22.848 146.035 22.8 145.987 22.8C145.843 22.656 145.795 22.56 145.939 22.464L146.179 22.224ZM145.507 32.832C145.555 32.688 145.507 32.544 145.411 32.4C145.411 32.352 145.171 32.352 145.171 32.4L145.363 32.832C145.363 32.88 145.507 32.88 145.507 32.832ZM145.939 24C145.939 24 146.035 24 146.035 23.952C145.987 23.76 145.987 23.568 145.987 23.376C145.987 23.328 145.891 23.328 145.891 23.376C145.891 23.568 145.891 23.76 145.939 24ZM145.507 15.696H145.411L145.459 15.744C145.459 15.744 145.507 15.744 145.507 15.696ZM179.459 6.57603C179.939 9.36003 180.515 22.176 174.563 16.416C176.483 14.304 177.059 8.92803 174.131 7.15203C169.427 4.27203 170.243 13.104 170.243 15.216C170.291 22.416 177.059 28.32 177.347 35.472C177.683 43.536 164.963 45.456 162.803 37.68C162.467 36.624 163.139 35.28 162.803 34.32C162.659 33.888 161.795 33.6 161.747 33.216C161.363 31.2 163.811 30.048 165.923 30.384C168.515 30.816 167.411 31.824 167.123 33.888C166.883 35.616 166.931 37.584 168.659 38.688C176.483 37.44 164.771 21.552 164.291 17.904C163.859 14.688 164.387 8.25603 166.739 5.80803C170.051 2.44803 176.435 3.64803 179.459 6.57603ZM170.531 22.656C170.531 22.464 170.291 22.416 170.099 22.416C169.907 22.368 169.763 22.272 169.667 22.128C169.763 22.08 169.859 21.984 169.859 21.936C169.907 21.84 169.811 21.792 169.763 21.792C169.619 21.744 169.475 21.696 169.427 21.552H169.379L169.235 21.12C169.283 21.072 169.283 21.024 169.331 21.024C169.331 20.832 169.235 20.736 169.187 20.592C169.139 20.4 168.995 20.304 168.947 20.208C168.899 20.112 168.803 20.112 168.851 19.968C168.899 19.92 168.899 19.872 168.851 19.824C168.803 19.776 168.611 19.824 168.515 19.824C168.467 19.824 168.467 19.824 168.467 19.776L168.275 19.632C168.227 19.632 168.131 19.584 168.083 19.536C168.083 19.536 168.035 19.536 168.035 19.584L168.371 19.824C168.323 19.824 168.179 19.872 168.179 19.92C168.131 20.064 168.131 20.112 168.275 20.112C168.467 20.112 168.323 20.352 168.419 20.448C168.515 20.592 168.659 20.688 168.707 20.832C168.755 20.976 168.755 21.216 168.995 21.216V21.312C168.995 21.552 169.091 21.792 169.139 22.032C169.235 22.224 169.283 22.512 169.523 22.608H169.667V22.656C169.715 22.752 169.715 22.848 169.715 22.944C169.763 23.088 169.859 23.232 169.955 23.328C170.051 23.424 170.147 23.472 170.195 23.616C170.291 23.76 170.243 23.904 170.243 24.096C170.243 24.384 170.339 24.576 170.435 24.864C170.531 25.152 170.675 25.44 170.915 25.68C170.915 25.728 171.107 25.632 171.203 25.536V25.584C171.203 25.632 171.203 25.632 171.251 25.632L171.443 26.016C171.491 26.112 171.683 26.16 171.635 26.304V26.496C171.587 26.688 171.587 26.88 171.635 27.072C171.683 27.216 171.779 27.408 172.019 27.456C172.067 27.504 172.163 27.456 172.211 27.456C172.451 27.504 172.259 27.888 172.211 28.032C172.163 28.32 172.259 28.608 172.643 28.656C172.691 28.704 172.739 28.704 172.835 28.656C172.787 28.656 172.787 28.704 172.787 28.704V29.04C172.739 28.944 172.643 28.848 172.547 28.752C172.499 28.704 172.211 28.848 172.211 28.896C172.163 29.088 172.259 29.232 172.259 29.376L172.355 30C172.355 30.144 172.403 30.288 172.451 30.48C172.499 30.624 172.547 30.768 172.643 30.912L172.931 31.104V31.92C172.931 32.112 172.883 32.304 172.787 32.496C172.739 32.64 172.643 32.832 172.835 32.88C172.931 32.928 173.219 32.88 173.411 32.832V32.928C173.363 33.024 173.363 33.12 173.363 33.216C173.363 33.312 173.411 33.408 173.459 33.552C173.507 33.648 173.555 33.744 173.651 33.84C173.651 33.888 173.843 33.888 173.891 33.84C173.939 33.6 173.987 33.36 173.939 33.168C173.891 33.072 173.939 32.928 173.939 32.832C173.939 32.736 173.843 32.64 173.747 32.592C173.987 32.304 173.987 32.016 173.987 31.776C174.035 31.584 174.035 31.392 173.987 31.2C173.891 31.008 173.699 30.96 173.459 30.816V30.768C173.459 30.672 173.459 30.576 173.507 30.48V30.192C173.507 30 173.507 29.808 173.459 29.664C173.411 29.472 173.315 29.328 173.219 29.136C173.123 28.992 173.075 28.8 172.931 28.656H172.835C172.931 28.656 173.027 28.56 173.027 28.512C173.075 28.32 172.883 28.224 172.835 28.128C172.739 27.984 172.739 27.84 172.691 27.744C172.691 27.6 172.643 27.36 172.403 27.36C172.451 27.312 172.499 27.312 172.499 27.264C172.547 27.024 172.259 26.88 172.211 26.64C172.163 26.4 172.259 26.064 172.211 25.824C172.163 25.632 171.923 25.584 171.779 25.488C171.779 25.488 171.779 25.44 171.731 25.44C171.683 25.2 171.731 24.96 171.731 24.72C171.731 24.48 171.683 24.24 171.443 24.144C171.395 24.096 171.155 24.24 171.107 24.288C171.059 24.528 171.203 24.72 171.155 24.912V25.248L170.915 24.672C170.819 24.384 170.675 24.096 170.771 23.712C170.819 23.568 170.771 23.424 170.771 23.328C170.723 23.28 170.723 23.28 170.723 23.232C170.675 23.184 170.675 23.184 170.675 23.136L170.531 22.992C170.435 22.944 170.339 22.896 170.291 22.8C170.291 22.848 170.531 22.704 170.531 22.656ZM171.923 28.752C171.971 28.752 172.163 28.704 172.163 28.656C172.163 28.56 172.163 28.464 172.115 28.368C172.067 28.224 171.923 28.128 171.971 27.984C172.067 27.696 172.067 27.6 171.683 27.552C171.635 27.552 171.491 27.6 171.539 27.648C171.731 27.696 171.827 27.744 171.731 27.936C171.683 28.032 171.587 28.128 171.587 28.224C171.587 28.32 171.635 28.368 171.683 28.416C171.827 28.512 171.827 28.608 171.923 28.752ZM167.891 19.296C167.939 19.296 168.131 19.248 168.083 19.2C168.083 19.152 168.035 19.152 168.035 19.104C167.987 19.104 167.987 19.056 167.939 19.056L167.795 18.864C167.747 18.864 167.651 18.912 167.651 18.96C167.651 19.008 167.699 19.104 167.747 19.152C167.747 19.152 167.795 19.2 167.795 19.248C167.843 19.248 167.843 19.248 167.891 19.296ZM171.347 27.12C171.395 27.12 171.443 27.12 171.443 27.072C171.347 26.928 171.299 26.736 171.155 26.592C171.155 26.544 171.059 26.592 171.059 26.64C171.203 26.784 171.299 26.976 171.347 27.12ZM170.051 22.656C170.147 22.656 170.243 22.704 170.291 22.8C170.243 22.8 170.195 22.752 170.147 22.704C170.099 22.704 170.099 22.656 170.051 22.656ZM173.939 33.936C173.891 33.936 173.891 33.888 173.843 33.888C173.843 33.936 173.891 33.936 173.939 33.936ZM202.846 6.57603C203.326 9.36003 203.902 22.176 197.95 16.416C199.87 14.304 200.446 8.92803 197.518 7.15203C192.814 4.27203 193.63 13.104 193.63 15.216C193.678 22.416 200.446 28.32 200.734 35.472C201.07 43.536 188.35 45.456 186.19 37.68C185.854 36.624 186.526 35.28 186.19 34.32C186.046 33.888 185.182 33.6 185.134 33.216C184.75 31.2 187.198 30.048 189.31 30.384C191.902 30.816 190.798 31.824 190.51 33.888C190.27 35.616 190.318 37.584 192.046 38.688C199.87 37.44 188.158 21.552 187.678 17.904C187.246 14.688 187.774 8.25603 190.126 5.80803C193.438 2.44803 199.822 3.64803 202.846 6.57603ZM193.918 22.656C193.918 22.464 193.678 22.416 193.486 22.416C193.294 22.368 193.15 22.272 193.054 22.128C193.15 22.08 193.246 21.984 193.246 21.936C193.294 21.84 193.198 21.792 193.15 21.792C193.006 21.744 192.862 21.696 192.814 21.552H192.766L192.622 21.12C192.67 21.072 192.67 21.024 192.718 21.024C192.718 20.832 192.622 20.736 192.574 20.592C192.526 20.4 192.382 20.304 192.334 20.208C192.286 20.112 192.19 20.112 192.238 19.968C192.286 19.92 192.286 19.872 192.238 19.824C192.19 19.776 191.998 19.824 191.902 19.824C191.854 19.824 191.854 19.824 191.854 19.776L191.662 19.632C191.614 19.632 191.518 19.584 191.47 19.536C191.47 19.536 191.422 19.536 191.422 19.584L191.758 19.824C191.71 19.824 191.566 19.872 191.566 19.92C191.518 20.064 191.518 20.112 191.662 20.112C191.854 20.112 191.71 20.352 191.806 20.448C191.902 20.592 192.046 20.688 192.094 20.832C192.142 20.976 192.142 21.216 192.382 21.216V21.312C192.382 21.552 192.478 21.792 192.526 22.032C192.622 22.224 192.67 22.512 192.91 22.608H193.054V22.656C193.102 22.752 193.102 22.848 193.102 22.944C193.15 23.088 193.246 23.232 193.342 23.328C193.438 23.424 193.534 23.472 193.582 23.616C193.678 23.76 193.63 23.904 193.63 24.096C193.63 24.384 193.726 24.576 193.822 24.864C193.918 25.152 194.062 25.44 194.302 25.68C194.302 25.728 194.494 25.632 194.59 25.536V25.584C194.59 25.632 194.59 25.632 194.638 25.632L194.83 26.016C194.878 26.112 195.07 26.16 195.022 26.304V26.496C194.974 26.688 194.974 26.88 195.022 27.072C195.07 27.216 195.166 27.408 195.406 27.456C195.454 27.504 195.55 27.456 195.598 27.456C195.838 27.504 195.646 27.888 195.598 28.032C195.55 28.32 195.646 28.608 196.03 28.656C196.078 28.704 196.126 28.704 196.222 28.656C196.174 28.656 196.174 28.704 196.174 28.704V29.04C196.126 28.944 196.03 28.848 195.934 28.752C195.886 28.704 195.598 28.848 195.598 28.896C195.55 29.088 195.646 29.232 195.646 29.376L195.742 30C195.742 30.144 195.79 30.288 195.838 30.48C195.886 30.624 195.934 30.768 196.03 30.912L196.318 31.104V31.92C196.318 32.112 196.27 32.304 196.174 32.496C196.126 32.64 196.03 32.832 196.222 32.88C196.318 32.928 196.606 32.88 196.798 32.832V32.928C196.75 33.024 196.75 33.12 196.75 33.216C196.75 33.312 196.798 33.408 196.846 33.552C196.894 33.648 196.942 33.744 197.038 33.84C197.038 33.888 197.23 33.888 197.278 33.84C197.326 33.6 197.374 33.36 197.326 33.168C197.278 33.072 197.326 32.928 197.326 32.832C197.326 32.736 197.23 32.64 197.134 32.592C197.374 32.304 197.374 32.016 197.374 31.776C197.422 31.584 197.422 31.392 197.374 31.2C197.278 31.008 197.086 30.96 196.846 30.816V30.768C196.846 30.672 196.846 30.576 196.894 30.48V30.192C196.894 30 196.894 29.808 196.846 29.664C196.798 29.472 196.702 29.328 196.606 29.136C196.51 28.992 196.462 28.8 196.318 28.656H196.222C196.318 28.656 196.414 28.56 196.414 28.512C196.462 28.32 196.27 28.224 196.222 28.128C196.126 27.984 196.126 27.84 196.078 27.744C196.078 27.6 196.03 27.36 195.79 27.36C195.838 27.312 195.886 27.312 195.886 27.264C195.934 27.024 195.646 26.88 195.598 26.64C195.55 26.4 195.646 26.064 195.598 25.824C195.55 25.632 195.31 25.584 195.166 25.488C195.166 25.488 195.166 25.44 195.118 25.44C195.07 25.2 195.118 24.96 195.118 24.72C195.118 24.48 195.07 24.24 194.83 24.144C194.782 24.096 194.542 24.24 194.494 24.288C194.446 24.528 194.59 24.72 194.542 24.912V25.248L194.302 24.672C194.206 24.384 194.062 24.096 194.158 23.712C194.206 23.568 194.158 23.424 194.158 23.328C194.11 23.28 194.11 23.28 194.11 23.232C194.062 23.184 194.062 23.184 194.062 23.136L193.918 22.992C193.822 22.944 193.726 22.896 193.678 22.8C193.678 22.848 193.918 22.704 193.918 22.656ZM195.31 28.752C195.358 28.752 195.55 28.704 195.55 28.656C195.55 28.56 195.55 28.464 195.502 28.368C195.454 28.224 195.31 28.128 195.358 27.984C195.454 27.696 195.454 27.6 195.07 27.552C195.022 27.552 194.878 27.6 194.926 27.648C195.118 27.696 195.214 27.744 195.118 27.936C195.07 28.032 194.974 28.128 194.974 28.224C194.974 28.32 195.022 28.368 195.07 28.416C195.214 28.512 195.214 28.608 195.31 28.752ZM191.278 19.296C191.326 19.296 191.518 19.248 191.47 19.2C191.47 19.152 191.422 19.152 191.422 19.104C191.374 19.104 191.374 19.056 191.326 19.056L191.182 18.864C191.134 18.864 191.038 18.912 191.038 18.96C191.038 19.008 191.086 19.104 191.134 19.152C191.134 19.152 191.182 19.2 191.182 19.248C191.23 19.248 191.23 19.248 191.278 19.296ZM194.734 27.12C194.782 27.12 194.83 27.12 194.83 27.072C194.734 26.928 194.686 26.736 194.542 26.592C194.542 26.544 194.446 26.592 194.446 26.64C194.59 26.784 194.686 26.976 194.734 27.12ZM193.438 22.656C193.534 22.656 193.63 22.704 193.678 22.8C193.63 22.8 193.582 22.752 193.534 22.704C193.486 22.704 193.486 22.656 193.438 22.656ZM197.326 33.936C197.278 33.936 197.278 33.888 197.23 33.888C197.23 33.936 197.278 33.936 197.326 33.936ZM225.081 11.76C225.177 15.6 225.177 19.584 225.033 23.376C224.937 26.784 223.833 44.688 216.921 40.704C216.297 40.32 216.105 39.648 215.529 39.312C214.857 38.928 214.041 39.12 213.417 38.736C211.545 37.68 210.585 35.424 210.057 33.456C209.049 29.712 210.009 24.96 208.665 21.408C209.817 20.88 209.529 17.376 209.625 16.464C209.817 13.968 210.057 11.664 210.873 9.31203C211.401 7.68003 211.977 5.61602 213.273 4.36803C214.953 2.64003 217.305 3.07203 219.561 3.16803C221.913 3.31203 222.297 3.64803 223.353 5.71203C224.313 7.58403 225.081 9.64803 225.081 11.76ZM219.753 23.712C219.897 20.448 219.369 17.28 219.369 14.064C219.369 11.232 219.273 9.40803 218.313 6.67203C213.465 8.78403 214.329 15.168 214.041 19.68C213.897 22.176 213.849 24.528 214.089 27.024C214.329 29.28 216.201 33.216 215.865 35.04C218.073 36.336 218.361 34.224 218.793 32.208C219.369 29.52 219.609 26.496 219.753 23.712ZM223.305 23.856C223.353 23.52 223.401 23.184 223.305 22.848C223.257 22.8 223.065 22.752 222.969 22.8C223.017 22.752 223.017 22.752 222.969 22.704V22.272C222.969 22.176 222.777 22.032 222.921 21.936V21.888C222.921 21.84 222.969 21.792 223.017 21.744C223.113 21.552 223.257 21.36 223.257 21.168C223.257 21.024 223.257 20.784 223.065 20.592C223.017 20.592 222.969 20.592 222.873 20.544C222.681 20.448 223.017 20.112 223.113 20.016C223.257 19.728 223.257 19.44 222.969 19.2C222.873 19.152 222.537 19.152 222.537 19.248C222.441 19.392 222.585 19.536 222.585 19.68C222.585 19.824 222.585 19.968 222.537 20.112C222.537 20.208 222.441 20.448 222.681 20.544C222.585 20.592 222.537 20.592 222.537 20.64C222.393 20.832 222.585 21.072 222.537 21.312C222.537 21.6 222.249 21.84 222.201 22.128C222.153 22.272 222.345 22.464 222.393 22.608C222.441 22.608 222.441 22.656 222.441 22.656C222.345 23.136 221.817 23.52 222.105 24C222.105 24.048 222.393 24.048 222.441 24C222.633 23.808 222.585 23.616 222.681 23.424L222.873 23.136L222.777 23.76C222.729 24.096 222.729 24.432 222.441 24.72C222.249 24.96 222.201 25.2 222.297 25.44C222.297 25.584 222.345 25.68 222.345 25.776C222.297 25.728 222.153 25.68 222.105 25.728C222.009 25.872 222.153 26.016 222.297 26.16C222.441 26.304 222.489 26.496 222.441 26.64C222.345 26.64 222.249 26.64 222.201 26.688C222.105 26.736 222.153 26.832 222.201 26.88C222.249 27.024 222.345 27.168 222.297 27.264C222.297 27.312 222.297 27.312 222.345 27.312C222.249 27.456 222.201 27.6 222.153 27.744C222.057 27.744 222.009 27.744 222.009 27.792C221.865 27.888 221.865 28.032 221.817 28.176C221.721 28.32 221.721 28.512 221.721 28.656C221.721 28.752 221.721 28.8 221.625 28.896C221.577 28.944 221.529 28.944 221.529 28.992C221.529 29.088 221.721 29.136 221.769 29.232V29.28C221.769 29.376 221.769 29.472 221.817 29.52C221.817 29.616 221.865 29.712 221.865 29.76C221.865 29.808 221.961 29.808 221.961 29.808C221.961 29.664 221.865 29.52 221.865 29.376C221.913 29.376 222.057 29.424 222.105 29.424C222.201 29.376 222.249 29.28 222.153 29.184C222.009 29.04 222.297 28.992 222.297 28.848C222.297 28.656 222.297 28.464 222.345 28.32C222.393 28.176 222.537 27.984 222.393 27.84V27.792C222.393 27.792 222.441 27.792 222.441 27.744C222.633 27.552 222.729 27.312 222.777 27.072C222.873 26.88 223.017 26.592 222.873 26.4C222.873 26.352 222.825 26.304 222.777 26.256H222.825C222.777 26.16 222.921 26.064 222.921 25.92C222.969 25.776 222.969 25.632 222.921 25.488C222.921 25.344 222.873 25.248 222.873 25.104C222.921 24.96 223.017 24.816 223.113 24.672C223.257 24.432 223.257 24.096 223.305 23.856ZM223.833 15.168C223.881 15.024 224.025 14.832 223.833 14.736C223.737 14.64 223.401 14.688 223.209 14.736C223.257 14.736 223.257 14.688 223.257 14.64C223.305 14.544 223.353 14.448 223.353 14.304C223.353 14.112 223.161 13.824 223.065 13.584C223.017 13.584 222.825 13.584 222.825 13.632C222.729 13.872 222.681 14.112 222.729 14.304C222.777 14.448 222.729 14.544 222.729 14.688C222.729 14.784 222.825 14.88 222.873 14.976C222.633 15.216 222.585 15.504 222.489 15.744C222.441 15.936 222.393 16.128 222.441 16.272C222.441 16.512 222.633 16.656 222.825 16.8V16.848C222.681 17.232 222.537 17.616 222.537 17.952C222.537 18.144 222.537 18.336 222.585 18.528C222.633 18.72 222.585 18.912 222.681 19.104C222.681 19.152 222.777 19.152 222.825 19.104C222.825 19.056 222.873 18.96 222.921 18.864C222.921 19.008 222.969 19.104 223.065 19.2C223.113 19.248 223.401 19.2 223.449 19.152C223.545 19.008 223.545 18.816 223.545 18.672L223.689 18C223.737 17.664 223.737 17.28 223.641 16.944C223.593 16.848 223.497 16.752 223.401 16.656C223.401 16.608 223.449 16.512 223.449 16.464C223.545 16.032 223.593 15.6 223.833 15.168ZM223.737 20.064C223.785 20.016 223.785 19.92 223.737 19.824C223.641 19.68 223.689 19.584 223.641 19.44C223.593 19.392 223.401 19.392 223.401 19.44L223.305 19.728C223.305 19.872 223.401 20.016 223.305 20.16C223.161 20.4 223.065 20.496 223.401 20.688H223.545C223.401 20.544 223.353 20.448 223.497 20.304C223.593 20.256 223.689 20.16 223.737 20.064ZM221.769 30.528C221.865 30.432 221.865 30.24 221.865 30.096C221.865 30.048 221.625 30 221.625 30.048V30.48C221.625 30.528 221.769 30.576 221.769 30.528ZM223.449 21.888H223.593L223.497 21.264C223.497 21.216 223.449 21.216 223.449 21.264C223.449 21.456 223.401 21.648 223.449 21.888ZM222.489 26.016C222.393 25.92 222.345 25.824 222.393 25.776C222.393 25.824 222.393 25.872 222.441 25.92C222.441 25.92 222.489 25.968 222.489 26.016ZM222.873 13.536H222.777L222.825 13.584L222.873 13.536ZM222.393 25.776H222.345H222.393ZM251.252 33.552C251.252 35.376 252.836 38.928 251.876 40.512C250.868 42.192 247.892 42.432 246.644 41.04C245.492 39.792 244.532 36.528 244.004 34.848C241.844 28.272 238.628 20.784 237.716 13.632C238.004 18.048 238.148 22.56 238.1 27.024C238.052 30 238.58 32.784 238.772 35.712C238.868 36.672 239.06 38.208 238.724 39.024C238.628 39.216 236.42 41.76 236.228 41.856C233.06 43.68 232.628 38.976 232.628 37.104C232.628 36.24 233.204 35.376 233.252 34.464C233.3 33.216 232.868 31.872 232.772 30.576C232.484 25.008 233.3 19.152 233.348 13.536C233.396 11.184 232.004 0.672026 237.14 2.49603C239.54 3.36003 239.684 6.86403 240.116 8.78403C240.836 11.952 241.508 15.168 242.516 18.288C243.092 20.112 243.956 21.792 244.484 23.568C245.108 25.68 245.156 29.136 247.076 30.384C247.652 25.488 247.652 20.544 247.7 15.552C247.748 13.44 247.892 11.328 247.844 9.16803C247.844 7.92003 246.932 4.22403 247.46 3.16803C248.276 1.58403 250.532 2.40003 251.3 3.50403C252.212 4.80003 251.54 8.11203 251.492 9.79203C251.396 14.688 251.444 19.536 251.3 24.432C251.156 27.456 251.252 30.48 251.252 33.552ZM235.892 26.592C235.94 26.448 235.94 26.208 235.748 26.064C235.7 26.016 235.652 26.016 235.556 26.016C235.364 25.872 235.748 25.584 235.796 25.488C235.892 25.344 235.94 25.2 235.892 25.104C235.892 24.96 235.796 24.816 235.652 24.72C235.556 24.672 235.22 24.672 235.172 24.768C235.124 24.912 235.268 25.056 235.268 25.2C235.268 25.296 235.268 25.44 235.22 25.584C235.22 25.68 235.124 25.872 235.364 26.016C235.268 26.016 235.22 26.016 235.22 26.064C235.076 26.256 235.268 26.496 235.22 26.688C235.124 26.928 234.836 27.168 234.788 27.408C234.74 27.552 234.884 27.744 234.98 27.936V27.984L234.836 28.32L234.788 28.368V28.416L234.74 28.512L234.644 28.656L234.548 29.04C234.548 29.136 234.596 29.28 234.644 29.376C234.692 29.424 234.98 29.376 235.028 29.328C235.124 29.232 235.124 29.136 235.172 29.04C235.172 28.944 235.172 28.848 235.22 28.704L235.412 28.464C235.364 28.656 235.364 28.896 235.364 29.088C235.316 29.376 235.316 29.712 235.124 30.048C234.932 30.288 234.932 30.528 235.076 30.768C235.124 30.912 235.172 31.056 235.268 31.2L235.316 31.248C235.22 31.2 235.172 31.104 235.172 31.056C235.172 31.008 234.932 31.008 234.932 31.056C234.836 31.2 234.98 31.344 235.172 31.44C235.316 31.584 235.364 31.728 235.412 31.872L235.124 31.968C235.028 32.016 235.124 32.112 235.172 32.16C235.268 32.256 235.364 32.4 235.364 32.496C235.316 32.544 235.364 32.544 235.412 32.544L235.268 32.976C235.22 33.024 235.172 33.024 235.172 33.072C235.028 33.168 235.076 33.36 235.076 33.504C235.028 33.648 235.076 33.792 235.124 33.984C235.124 34.08 235.172 34.128 235.076 34.224C235.028 34.272 234.98 34.32 235.028 34.368C235.028 34.416 235.22 34.464 235.316 34.512C235.316 34.512 235.316 34.56 235.364 34.56C235.364 34.704 235.508 34.848 235.604 34.992H235.652L235.46 34.608C235.508 34.608 235.652 34.608 235.652 34.56C235.796 34.512 235.796 34.416 235.652 34.368C235.46 34.272 235.748 34.128 235.7 33.984C235.652 33.84 235.604 33.648 235.604 33.504C235.604 33.312 235.748 33.168 235.556 33.024V32.976L235.604 32.928C235.748 32.736 235.748 32.448 235.796 32.256C235.844 32.064 235.94 31.728 235.796 31.584C235.748 31.536 235.7 31.488 235.652 31.488C235.652 31.44 235.7 31.44 235.7 31.44C235.652 31.344 235.748 31.248 235.748 31.152C235.748 31.008 235.748 30.864 235.7 30.72C235.652 30.576 235.604 30.48 235.604 30.336C235.604 30.192 235.7 30.048 235.748 29.904C235.892 29.664 235.844 29.376 235.844 29.136C235.892 28.944 235.892 28.8 235.892 28.656V28.416C235.892 28.368 235.844 28.272 235.844 28.176C235.844 28.128 235.604 28.128 235.508 28.128C235.556 28.128 235.556 28.08 235.508 28.08C235.556 27.936 235.556 27.792 235.556 27.648C235.556 27.552 235.364 27.36 235.508 27.312V27.264C235.508 27.216 235.556 27.168 235.604 27.12C235.748 26.976 235.892 26.784 235.892 26.592ZM234.98 21.408C234.932 21.6 234.884 21.792 234.932 21.984C234.932 22.176 235.124 22.32 235.316 22.464V22.512C235.268 22.896 235.124 23.232 235.124 23.568C235.124 23.76 235.172 23.952 235.22 24.144C235.268 24.288 235.22 24.48 235.316 24.672H235.46L235.604 24.288C235.604 24.432 235.652 24.576 235.748 24.672C235.796 24.72 236.084 24.72 236.132 24.672C236.18 24.48 236.18 24.336 236.18 24.144L236.276 23.52C236.276 23.184 236.324 22.848 236.132 22.56C236.084 22.464 236.036 22.368 235.892 22.272C235.94 22.224 235.94 22.176 235.94 22.08C236.036 21.696 236.084 21.312 236.324 20.928C236.42 20.832 236.516 20.64 236.372 20.544C236.228 20.496 235.94 20.496 235.748 20.496C235.748 20.496 235.796 20.448 235.796 20.4C235.844 20.352 235.892 20.256 235.892 20.16C235.94 20.064 235.94 19.92 235.892 19.824C235.844 19.68 235.796 19.584 235.796 19.44C235.748 19.44 235.556 19.392 235.556 19.44C235.46 19.536 235.412 19.632 235.364 19.728C235.364 19.824 235.316 19.968 235.316 20.064C235.364 20.16 235.268 20.304 235.268 20.4C235.22 20.496 235.316 20.592 235.412 20.688C235.124 20.88 235.076 21.216 234.98 21.408ZM236.468 25.536C236.516 25.488 236.468 25.392 236.42 25.296L236.324 24.912C236.276 24.864 236.084 24.864 236.084 24.912L235.988 25.2C235.988 25.344 236.084 25.488 235.988 25.632C235.844 25.824 235.748 25.92 236.084 26.16C236.132 26.16 236.276 26.16 236.228 26.112C236.084 26.016 236.084 25.92 236.228 25.776C236.276 25.776 236.324 25.728 236.372 25.68C236.372 25.632 236.42 25.584 236.468 25.536ZM235.796 35.712C235.844 35.616 235.748 35.472 235.7 35.328C235.652 35.28 235.46 35.28 235.46 35.328L235.652 35.76C235.652 35.76 235.796 35.76 235.796 35.712ZM236.036 27.264C236.036 27.312 236.18 27.312 236.18 27.312C236.132 27.072 236.18 26.88 236.18 26.688H236.084C236.084 26.88 236.036 27.072 236.036 27.264ZM235.508 19.296C235.508 19.296 235.46 19.344 235.508 19.344H235.556C235.604 19.392 235.604 19.392 235.604 19.344C235.556 19.344 235.556 19.344 235.508 19.296Z" fill="#082A45"/>
</svg>
