<svg width="24" height="24" viewBox="0 0 24 24" fill="none" xmlns="http://www.w3.org/2000/svg">
<path d="M16.4535 2.39991C16.4535 3.0364 16.1944 3.64683 15.7334 4.0969C15.2723 4.54697 14.6469 4.79982 13.9949 4.79982C13.3428 4.79982 12.7174 4.54697 12.2564 4.0969C11.7953 3.64683 11.5363 3.0364 11.5363 2.39991C11.5363 1.76341 11.7953 1.15299 12.2564 0.702917C12.7174 0.252847 13.3428 0 13.9949 0C14.6469 0 15.2723 0.252847 15.7334 0.702917C16.1944 1.15299 16.4535 1.76341 16.4535 2.39991ZM13.0379 14.6376L16.2297 17.7119C16.3521 17.8298 16.4478 17.9715 16.5106 18.1277L18.2126 22.3605C18.3318 22.6568 18.3255 22.9872 18.1951 23.2789C18.0647 23.5707 17.821 23.8 17.5174 23.9163C17.2139 24.0326 16.8755 24.0265 16.5766 23.8992C16.2777 23.7719 16.0428 23.534 15.9236 23.2377L14.3169 19.2413L8.82933 13.9555C8.69673 13.8278 8.59557 13.6724 8.53349 13.501C8.47141 13.3297 8.45004 13.1467 8.47099 12.9661L8.91046 9.17425C7.8508 10.2026 7.03331 11.648 6.40698 13.5637C6.36015 13.7164 6.28262 13.8585 6.17892 13.9816C6.07521 14.1047 5.94741 14.2065 5.80297 14.2809C5.65854 14.3553 5.50036 14.4008 5.33769 14.4149C5.17502 14.4289 5.01111 14.4112 4.85553 14.3627C4.69996 14.3143 4.55584 14.236 4.43158 14.1326C4.30733 14.0291 4.20544 13.9026 4.13185 13.7603C4.05827 13.6179 4.01448 13.4627 4.00303 13.3037C3.99157 13.1447 4.0127 12.9851 4.06516 12.8341C5.21456 9.31824 7.12305 6.68674 10.3254 5.48019L10.3395 5.47479C11.1552 5.179 12.0034 5.203 12.7594 5.58399C13.4853 5.95057 14.0022 6.58355 14.3409 7.29272L14.7392 8.13269C15.0392 8.76746 15.2912 9.30264 15.534 9.77183C15.8739 10.4318 16.1474 10.8698 16.4178 11.177C16.6686 11.4614 16.9175 11.6366 17.2353 11.7577C17.5771 11.8879 18.0559 11.9779 18.7953 11.9995C18.9577 12.0027 19.1179 12.0373 19.2666 12.1013C19.4152 12.1652 19.5494 12.2573 19.6614 12.3722C19.7734 12.4872 19.8609 12.6226 19.9189 12.7707C19.977 12.9188 20.0043 13.0767 19.9994 13.2353C19.9946 13.3938 19.9576 13.5498 19.8905 13.6942C19.8235 13.8387 19.7278 13.9688 19.609 14.0769C19.4902 14.1851 19.3505 14.2691 19.1982 14.3243C19.0459 14.3795 18.8839 14.4046 18.7215 14.3982C17.8334 14.3724 17.0448 14.2615 16.341 13.9933C15.6139 13.7161 15.0404 13.2943 14.5524 12.7393C14.245 12.3901 13.9746 11.9911 13.7226 11.5574L13.0379 14.6376Z" fill="#336080"/>
<path d="M8.47108 15.7314L10.5087 17.6394L9.57069 20.7275C9.49816 20.9664 9.35122 21.1773 9.15027 21.331L5.99464 23.7447C5.86751 23.8419 5.72202 23.9137 5.56646 23.956C5.41091 23.9983 5.24834 24.0103 5.08805 23.9913C4.92775 23.9722 4.77286 23.9226 4.63222 23.8451C4.49159 23.7677 4.36796 23.6639 4.26839 23.5398C4.16883 23.4158 4.09528 23.2737 4.05194 23.1219C4.00861 22.97 3.99634 22.8114 4.01583 22.6549C4.03532 22.4984 4.08619 22.3472 4.16554 22.21C4.24489 22.0727 4.35117 21.952 4.4783 21.8548L7.32537 19.6781L8.18281 16.8522L8.47108 15.7314Z" fill="#336080"/>
</svg>
