<svg width="24" height="24" viewBox="0 0 24 24" fill="none" xmlns="http://www.w3.org/2000/svg">
<path d="M13.8462 2.00014H15.6923C16.2092 2.00014 16.6154 2.41918 16.6154 2.95251V6.36201L17.9631 7.75248C20.3077 7.98105 22.1538 10.0001 22.1538 12.4763C22.1538 15.0858 20.0677 17.2381 17.5385 17.2381C15.0092 17.2381 12.9231 15.0858 12.9231 12.4763C12.9231 10.5334 14.0677 8.85723 15.6923 8.11438L14.9538 7.33344L10.3938 10.0191C10.8185 10.7429 11.0769 11.581 11.0769 12.4763C11.0769 15.0858 8.99077 17.2381 6.46154 17.2381C3.93231 17.2381 1.84615 15.0858 1.84615 12.4763C1.84615 9.86675 3.93231 7.71438 6.46154 7.71438C6.83077 7.71438 7.2 7.77153 7.55077 7.86676L6.75692 5.80964H6.33231C5.07692 5.82868 5.07692 3.88584 6.33231 3.90489H10.0615C11.3169 3.88584 11.3169 5.82868 10.0615 5.80964H8.75077L9.69231 8.24771L14.7692 5.25726V3.90489H13.8462C12.5908 3.92394 12.5908 1.98109 13.8462 2.00014ZM6.46154 9.61913C4.92923 9.61913 3.69231 10.8953 3.69231 12.4763C3.69231 14.0572 4.92923 15.3334 6.46154 15.3334C7.99385 15.3334 9.23077 14.0572 9.23077 12.4763C9.23077 10.8953 7.99385 9.61913 6.46154 9.61913ZM17.5385 9.61913C16.0062 9.61913 14.7692 10.8953 14.7692 12.4763C14.7692 14.0572 16.0062 15.3334 17.5385 15.3334C19.0708 15.3334 20.3077 14.0572 20.3077 12.4763C20.3077 10.8953 19.0708 9.61913 17.5385 9.61913ZM19.3846 20.0953L18.4615 18.1905H22.1538L24 22H0L1.84615 18.1905H5.53846L4.61538 20.0953H19.3846Z" fill="#336080"/>
</svg>
