<svg width="24" height="24" viewBox="0 0 24 24" fill="none" xmlns="http://www.w3.org/2000/svg">
<path d="M14.8571 11.4211H16.5714V9.10526H18.8571C19.3333 9.10526 19.7383 8.93659 20.072 8.59926C20.4057 8.26193 20.5722 7.85165 20.5714 7.36842V6.21053C20.5714 5.72807 20.405 5.31817 20.072 4.98084C19.739 4.64351 19.3341 4.47446 18.8571 4.47368H14.8571V11.4211ZM16.5714 7.36842V6.21053H18.8571V7.36842H16.5714ZM12.5714 14.8947C11.9429 14.8947 11.405 14.6682 10.9577 14.215C10.5105 13.7619 10.2865 13.2166 10.2857 12.5789V3.31579C10.2857 2.67895 10.5097 2.13396 10.9577 1.68084C11.4057 1.22772 11.9436 1.00077 12.5714 1H21.7143C22.3429 1 22.8811 1.22695 23.3291 1.68084C23.7771 2.13474 24.0008 2.67972 24 3.31579V12.5789C24 13.2158 23.7764 13.7612 23.3291 14.215C22.8819 14.6689 22.3436 14.8955 21.7143 14.8947H18.2857V23H16V14.8947H12.5714ZM6.85714 23C6.53333 23 6.26209 22.8888 6.04343 22.6665C5.82476 22.4442 5.71505 22.1694 5.71429 21.8421V20.6842H0V10.2632H5.94286L4.74286 6.78947H0V4.47368H5.14286C5.50476 4.47368 5.83352 4.57982 6.12914 4.7921C6.42476 5.00439 6.62933 5.28421 6.74286 5.63158L9.14286 12.5789V21.8421C9.14286 22.1702 9.03314 22.4454 8.81371 22.6677C8.59429 22.89 8.32305 23.0008 8 23H6.85714ZM4 17.2105C4.47619 17.2105 4.88114 17.0419 5.21486 16.7045C5.54857 16.3672 5.71505 15.9569 5.71429 15.4737C5.71352 14.9905 5.54705 14.5806 5.21486 14.244C4.88267 13.9074 4.47771 13.7384 4 13.7368C3.52229 13.7353 3.11771 13.9043 2.78629 14.244C2.45486 14.5836 2.288 14.9935 2.28571 15.4737C2.28343 15.9538 2.45029 16.3641 2.78629 16.7045C3.12229 17.0449 3.52686 17.2136 4 17.2105Z" fill="#336080"/>
</svg>
