<svg width="24" height="24" viewBox="0 0 24 24" fill="none" xmlns="http://www.w3.org/2000/svg">
<path d="M12 0C9.61305 0 7.32387 0.790176 5.63604 2.1967C3.94821 3.60322 3 5.51088 3 7.5C3 15 12 24 12 24C12 24 21 15 21 7.5C21 5.51088 20.0518 3.60322 18.364 2.1967C16.6761 0.790176 14.3869 0 12 0ZM12 12.0945C11.276 12.0945 10.559 11.9757 9.89011 11.7448C9.2212 11.5139 8.6134 11.1754 8.10144 10.7488C7.58947 10.3222 7.18336 9.81567 6.90628 9.25824C6.62921 8.70081 6.4866 8.10336 6.4866 7.5C6.4866 6.89664 6.62921 6.29919 6.90628 5.74176C7.18336 5.18433 7.58947 4.67784 8.10144 4.2512C8.6134 3.82456 9.2212 3.48613 9.89011 3.25524C10.559 3.02434 11.276 2.9055 12 2.9055C13.4622 2.9055 14.8646 3.38956 15.8986 4.2512C16.9325 5.11283 17.5134 6.28146 17.5134 7.5C17.5134 8.71854 16.9325 9.88717 15.8986 10.7488C14.8646 11.6104 13.4622 12.0945 12 12.0945ZM8.5134 7.5C8.5134 6.72902 8.88093 5.98961 9.53513 5.44444C10.1893 4.89927 11.0766 4.593 12.0018 4.593C12.927 4.593 13.8143 4.89927 14.4685 5.44444C15.1227 5.98961 15.4902 6.72902 15.4902 7.5C15.4902 8.27098 15.1227 9.01039 14.4685 9.55556C13.8143 10.1007 12.927 10.407 12.0018 10.407C11.0766 10.407 10.1893 10.1007 9.53513 9.55556C8.88093 9.01039 8.5134 8.27098 8.5134 7.5Z" fill="#336080"/>
</svg>
