<svg width="50" height="40" viewBox="0 0 50 40" fill="none" xmlns="http://www.w3.org/2000/svg">
<g clip-path="url(#clip0_3040_79)">
<path d="M27.1875 0.0427027C26.0703 0.182509 25.2969 0.730081 24.793 1.72814C24.6172 2.07765 24.4727 2.4893 24.207 3.39804C23.8867 4.48542 23.7188 4.89319 23.3984 5.35921C23.207 5.63494 23.0234 5.80581 22.8398 5.88348C22.6992 5.94173 22.6797 5.94173 22.5898 5.88348C22.3945 5.75532 22.332 5.40581 22.4258 4.96309C22.4492 4.85047 22.582 4.47377 22.7227 4.12814C23.1016 3.17668 23.1758 2.85824 23.1797 2.17474C23.1836 1.67765 23.1719 1.57668 23.0898 1.32814C22.9844 1.00193 22.7734 0.660178 22.5391 0.427169L22.3789 0.267945L22 0.469887C19.957 1.56503 18.9844 2.92426 18.9844 4.68348C18.9844 5.42911 19.1172 6.04659 19.4766 6.99028C19.793 7.80969 19.8164 7.91067 19.8203 8.25241C19.8242 8.50484 19.8086 8.59804 19.7305 8.7495C19.4961 9.22329 19.0039 9.12232 18.832 8.56309C18.7344 8.24853 18.6914 7.93008 18.5938 6.7495C18.5508 6.22134 18.4805 5.59222 18.4375 5.35144C18.2969 4.52814 18.0352 3.85629 17.7109 3.49901C17.2969 3.04076 16.2852 2.7495 14.9844 2.71066L14.5977 2.69901L14.4648 3.08736C13.875 4.80387 13.8438 5.98057 14.3516 7.05241C14.6914 7.76309 15.1016 8.28348 16.3711 9.60387C16.8008 10.0505 17.2031 10.5048 17.2656 10.6136C17.4414 10.9126 17.6328 11.5495 17.6367 11.8175C17.6367 12.0272 17.625 12.0544 17.5078 12.1592C17.2813 12.3612 16.8828 12.2835 16.6875 12C16.6406 11.9262 16.543 11.6932 16.4766 11.4796C15.9492 9.78251 15.1055 8.6796 14.1602 8.45047C14.0313 8.42329 13.8555 8.36503 13.7734 8.33008C13.418 8.17863 12.75 8.21746 12.0156 8.43105C11.6523 8.53979 11.0703 8.78445 10.8711 8.91261L10.7891 8.96698L10.9375 9.42523C11.0195 9.67766 11.1953 10.2485 11.3281 10.6951C11.7852 12.2408 12.1523 12.9825 12.7266 13.5184C13.0313 13.8058 13.3164 13.965 13.832 14.1398C14.3242 14.3068 14.7891 14.3145 15.3906 14.167C15.9648 14.0233 16.1289 14.0039 16.3906 14.0582C16.6875 14.1204 16.793 14.1747 17.0547 14.4078C17.2813 14.6136 17.332 14.6369 17.3672 14.5437C17.4102 14.4388 17.3477 14.3029 17.168 14.1048C16.9141 13.8252 16.5352 13.5845 15.9375 13.3243C15.6484 13.2 15.3008 13.033 15.1641 12.9553C14.2852 12.4388 13.3828 11.4874 13.125 10.7922C13.0391 10.5709 13.0391 10.5592 13.1055 10.4854C13.2852 10.2874 13.8867 10.4699 14.5703 10.9243C15.2852 11.4019 15.8398 11.9417 16.4805 12.7922C16.9688 13.4369 17.1406 13.5728 17.4688 13.5728C17.6563 13.5728 17.7109 13.5534 17.8359 13.4524C18.1367 13.2116 18.3906 12.6097 18.4258 12.0582C18.4883 11.0369 17.9648 9.74756 16.9453 8.4194C16.207 7.45241 15.8086 6.33785 15.8711 5.40193C15.9023 4.92814 16.0117 4.69901 16.207 4.69901C16.4688 4.69901 17.1758 5.69707 17.6367 6.71066C17.9492 7.39416 18.043 7.72037 18.1289 8.36892C18.2656 9.42911 18.4922 10.0971 18.832 10.466C19.0938 10.7456 19.3086 10.8194 19.5469 10.7107C19.7031 10.6408 20.0859 10.0155 20.3281 9.433C20.8242 8.23688 20.8438 7.21163 20.4102 5.63105C20.2617 5.09125 20.2422 4.60581 20.3477 4.21358C20.5078 3.63882 20.9023 2.91261 21.2227 2.60581C21.5039 2.33785 21.5742 2.54756 21.5547 3.56892C21.5391 4.28736 21.5352 4.29901 21.3359 5.09901C21.0625 6.18639 21.0039 6.55921 21.0234 7.04076C21.0352 7.37086 21.0547 7.46406 21.1328 7.60775C21.4453 8.15921 22.3125 8.00775 23.0273 7.28542C23.625 6.6796 24.0859 5.89901 24.6953 4.46989C25.3242 2.99804 25.7148 2.36892 26.0039 2.36892C26.4102 2.36892 26.1719 3.14173 25.3867 4.36892C25.0273 4.93202 24.8867 5.23105 24.8828 5.43688C24.8828 5.74367 25.0234 5.73979 25.7461 5.42134C27.8398 4.50096 29.5742 4.14756 30.7461 4.41163C30.8906 4.4427 31.0391 4.49319 31.0781 4.52037C31.1367 4.56309 31.0703 4.56697 30.6797 4.55144C28.8398 4.47765 26.4766 5.35921 23.918 7.07571C21.625 8.61358 19.8789 10.7573 18.7148 13.4641C18.293 14.4466 17.8516 15.8718 17.8516 16.2446C17.8516 16.4155 17.8672 16.4544 18.0039 16.5864C18.1211 16.7068 18.1836 16.7379 18.293 16.7379C18.4453 16.7379 18.4766 16.7068 18.5352 16.5087C18.5586 16.4349 18.6211 16.3417 18.6797 16.299C18.7695 16.233 18.8008 16.2291 18.8984 16.2679C18.9648 16.2951 19.0586 16.3612 19.1094 16.4155C19.207 16.5204 19.2109 16.5592 19.1797 17.6893C19.168 18.132 19.1758 18.2252 19.2539 18.4544C19.5195 19.2427 20.375 19.9767 21.3281 20.233C21.9219 20.3961 22.7813 20.3495 23.4609 20.1204L23.6836 20.0466L23.6563 20.4233C23.6055 21.0796 23.4219 21.8718 23.2266 22.2446C23.1094 22.4699 23.1953 22.3767 23.4883 21.9495C24.5703 20.3922 25.1836 18.8932 25.3008 17.5145C25.3359 17.0718 25.3789 17.2544 25.3867 17.8874C25.3945 18.5631 25.2344 19.6155 25.0313 20.2136C24.9844 20.3612 24.9727 20.3689 24.8008 20.3806C24.5234 20.4 24.4844 20.4621 24.4531 20.9786C24.4375 21.2194 24.4063 21.4524 24.3828 21.4951C24.2813 21.6893 24.2188 21.8679 24.2188 21.9767C24.2188 22.0738 24.2422 22.1087 24.3281 22.1398C24.5547 22.2291 25.0117 22.0815 25.3711 21.8097C25.5313 21.6893 25.5625 21.6815 25.668 21.7165C25.8945 21.7942 26.4844 22.6213 26.3828 22.7184C26.3633 22.734 26.25 22.7767 26.1328 22.8078L25.918 22.8699L25.8008 22.7573C25.5977 22.5592 25.3906 22.6175 25.2969 22.8932C25.2422 23.0446 25.2344 23.0524 24.9375 23.134C24.5703 23.2349 24.2695 23.2427 23.2813 23.1767C22.4805 23.1262 22.0508 23.1612 21.7383 23.2971C21.582 23.367 21.5625 23.367 21.5156 23.3126C21.3828 23.1495 21.0273 23.099 20.7969 23.2078C20.4844 23.3553 20.3672 23.6466 20.5 23.9534C20.7461 24.5204 20.5742 24.9514 20.1367 24.8699C19.8398 24.8155 19.582 24.9709 19.4297 25.301C19.2383 25.7048 19.3281 26.0349 19.7383 26.4544C20.1641 26.8854 20.5156 27.0874 22.4219 27.9922C22.7344 28.1398 22.9844 28.3495 23.0859 28.5476C23.1836 28.734 23.1875 29.0097 23.0977 29.1223L23.0273 29.2039L22.7969 29.0835C22.5 28.932 22.2188 28.7417 21.7656 28.3845C21.5625 28.2252 21.2969 28.0155 21.168 27.9184C20.8711 27.6854 20.3984 27.4408 20.0938 27.3631C19.9609 27.3281 19.6953 27.301 19.5078 27.301C19.2695 27.301 19.082 27.2738 18.9141 27.2233C18.6406 27.1378 18.3086 27.1223 18.1367 27.1883C18.0156 27.2311 17.9805 27.2699 17.6797 27.6932C17.2344 28.3145 16.8086 28.5437 15.9883 28.6097C15.8086 28.6213 15.6641 28.6446 15.6641 28.6602C15.6641 28.6951 16.2461 29.2505 16.4883 29.4485C16.5898 29.5262 16.7617 29.6427 16.8711 29.701L17.0703 29.8097L16.8516 30.0233C16.7305 30.1398 16.6016 30.2835 16.5625 30.3417L16.4922 30.4544L16.0742 30.0505C15.6602 29.6544 15.25 29.1845 15.0469 28.866C14.9883 28.7767 14.9258 28.7029 14.9102 28.699C14.8945 28.699 14.8516 28.7612 14.8203 28.8349C14.7383 29.033 14.75 29.6194 14.8438 30.0155C14.9492 30.4544 15.2813 31.2815 15.4648 31.5612C15.9609 32.3262 16.6523 32.765 17.5859 32.9126C17.7109 32.932 17.7578 32.9709 17.8867 33.1573C18.0547 33.4058 18.3242 33.666 18.5195 33.7747C18.7344 33.8874 19.1914 33.8641 19.6445 33.7126C20.1406 33.5456 20.4805 33.3631 21.332 32.8116C22.3164 32.1747 22.6992 31.9845 23.1563 31.9029C23.6953 31.8097 23.8164 31.7281 23.7109 31.5301C23.668 31.4524 23.6445 31.4485 23.4023 31.4718C23.082 31.5068 22.9297 31.5417 22.2852 31.7281C22.0078 31.8097 21.6836 31.9068 21.5703 31.9379L21.3633 31.9961L21.5156 31.8213C21.7109 31.6039 21.7969 31.4252 21.7969 31.2505C21.7969 31.1728 21.7266 30.9126 21.6367 30.6718C21.3672 29.9262 21.3555 29.8796 21.3828 29.7631C21.4219 29.6194 21.6406 29.4136 21.7969 29.3825C22.0039 29.3437 22.2578 29.3553 22.3984 29.4136C22.4688 29.4408 22.6289 29.5456 22.7578 29.6388C23.1406 29.9301 23.375 30.0311 23.6211 30.0116C23.8828 29.9883 24 29.8874 23.9961 29.6932C23.9922 29.6039 23.8555 29.301 23.5898 28.7883C22.8672 27.4019 22.8125 27.2815 22.7891 27.1068C22.7578 26.8621 22.832 26.6136 22.9883 26.4582C23.0938 26.3534 23.1484 26.3301 23.2813 26.3301C23.4961 26.3301 23.6758 26.4194 23.8438 26.6058C24.0078 26.7845 24.0938 26.9476 24.3203 27.499C24.4609 27.8563 24.4922 27.9845 24.5273 28.3612C24.5703 28.8233 24.6523 29.1262 24.7539 29.2116C24.8516 29.2893 24.9453 29.134 25.0469 28.7068C25.125 28.3728 25.1367 28.2369 25.1367 27.534C25.1328 26.7689 25.1094 26.5553 24.9766 26.1243C24.9609 26.0738 24.9766 26.0582 25.0508 26.0582C25.125 26.0582 25.1992 26.1281 25.375 26.3573C25.5 26.5243 25.7578 26.8194 25.9453 27.0136L26.2852 27.3631L26.1563 27.7126C25.9102 28.3689 25.5156 29.1961 25.2344 29.6544C24.8242 30.3184 24.7109 30.5942 24.707 30.9359C24.707 31.1767 24.7188 31.2272 24.8125 31.3476C24.9805 31.5689 25.1758 31.666 25.4336 31.6699C25.7188 31.6699 25.7969 31.6116 26.1406 31.165C26.6172 30.5437 26.9766 29.6971 27.1758 28.7262C27.2305 28.4427 27.2852 28.2058 27.293 28.198C27.2969 28.1903 27.3398 28.2136 27.3867 28.2563C27.4414 28.3068 27.4609 28.3612 27.4492 28.4272C27.3477 28.9553 27.2578 29.3437 27.2227 29.3825C27.1172 29.5107 27.293 29.6699 27.5391 29.6699C27.6602 29.6699 27.75 29.565 27.7148 29.4641C27.6914 29.4097 27.9648 29.0136 28.1133 28.8815C28.1953 28.8116 28.207 28.8155 28.8047 29.1534C29.1367 29.3398 29.4102 29.5029 29.4102 29.5145C29.4141 29.5262 29.375 29.5534 29.3242 29.5767C28.8125 29.8213 27.7383 30.3883 27.6719 30.4505C27.625 30.4932 27.5781 30.5747 27.5664 30.6291C27.5508 30.7184 27.5586 30.7262 27.6719 30.7107C27.7383 30.699 27.9961 30.6291 28.2422 30.5553C28.9258 30.3417 29.2266 30.2874 29.8438 30.2641C30.7188 30.233 30.8516 30.2641 31.6172 30.6796C31.9688 30.8699 32.2813 31.0369 32.3164 31.0485C32.3672 31.0679 32.3633 31.0252 32.3086 30.7029L32.2422 30.3301L32.5625 30.1747C32.8125 30.0544 32.9336 29.965 33.1211 29.7631C33.25 29.6194 33.3594 29.4796 33.3594 29.4524C33.3594 29.3476 33.5586 29.3942 33.6914 29.5262C33.8516 29.6854 33.9102 29.8679 33.9336 30.2912C33.9531 30.598 33.9453 30.6485 33.832 30.932C33.7617 31.1029 33.5625 31.5184 33.3867 31.8524L33.0625 32.466L32.8711 32.2097C32.4766 31.6893 31.7148 31.2155 30.957 31.0213C30.6445 30.9437 30.5156 30.932 29.8047 30.932C28.9727 30.932 28.7188 30.9592 28.0469 31.1262C27.3594 31.2971 26.8945 31.4679 26.8594 31.5612C26.8438 31.5961 26.8438 31.6311 26.8555 31.6427C26.8672 31.6544 27.0195 31.6311 27.1953 31.5883C27.4375 31.534 27.6563 31.5145 28.0664 31.5184C28.543 31.5223 28.6602 31.534 28.9648 31.6272C29.4688 31.7786 29.9219 32.0272 30.0195 32.2097L30.0977 32.3534L29.9922 32.4466C29.9297 32.4971 29.7852 32.5709 29.6641 32.6097C29.4141 32.6874 29.332 32.7922 29.4063 32.9476C29.4258 32.998 29.5742 33.1417 29.7305 33.266C30.1172 33.5806 30.2734 33.8097 30.2734 34.0777C30.2734 34.4544 30.0117 34.6213 29.6094 34.501C29.4258 34.4466 29.332 34.3728 28.7695 33.8291C27.9414 33.0252 27.4883 32.7068 26.8906 32.5126C26.4727 32.3767 26.4453 32.3728 26.4453 32.4815C26.4453 32.5942 26.6133 32.7961 26.8281 32.9437C26.9961 33.0602 27.4375 33.5573 27.7773 34.0039C28.1094 34.4427 28.457 35.0485 28.7383 35.666C29.293 36.8854 29.3242 36.9437 29.6758 37.2932C29.8125 37.433 30 37.5689 30.1563 37.6427C30.3867 37.7514 30.4453 37.767 30.7813 37.767C31.0898 37.767 31.1797 37.7514 31.3125 37.6815C31.5117 37.5767 31.7148 37.3514 31.7461 37.2C31.7734 37.0524 31.9297 36.932 32.0938 36.932C32.168 36.932 32.3477 36.9514 32.4961 36.9786C32.7031 37.0136 32.8047 37.0136 32.9141 36.9786C33.0586 36.9359 33.0625 36.9359 33.3047 37.1612C33.4375 37.2854 33.7383 37.5145 33.9648 37.666C34.3867 37.9456 35.3359 38.4388 35.375 38.3961C35.3867 38.3845 35.3672 38.3301 35.332 38.2757C35.1875 38.0582 35.3203 37.7243 35.8125 37.0485C36.6719 35.8757 37.0391 35.2349 37.25 34.5437C37.3477 34.2252 37.3594 34.1359 37.3594 33.5534C37.3633 32.7379 37.3125 32.5553 36.8164 31.5534C36.6172 31.1456 36.4258 30.7223 36.3906 30.6058C36.3164 30.3612 36.3086 29.934 36.3711 29.8136C36.5664 29.433 36.9258 29.4641 37.4531 29.899C37.8047 30.1903 38.1016 30.567 38.3125 30.9825C38.4766 31.3126 38.4922 31.3709 38.5078 31.6854C38.5273 32.1165 38.4766 32.3495 38.1016 33.4835C37.7617 34.5165 37.6953 34.8116 37.6914 35.2621C37.6914 35.6699 37.7383 35.8874 37.9297 36.299C38.2539 36.9942 38.7695 37.5223 40.0859 38.501L40.2266 38.6058L40.4414 38.3184C40.5586 38.1592 40.9453 37.732 41.3008 37.367C42.043 36.6058 42.1953 36.365 42.2656 35.8408C42.3555 35.2 42.0508 34.0932 41.4805 32.9631C41.3242 32.6524 41.3242 32.4233 41.4844 32.2641C41.5938 32.1592 41.625 32.1476 41.7773 32.1631C42.125 32.2058 42.5742 32.6641 42.9414 33.3553C43.1719 33.7864 43.3164 34.2213 43.5156 35.0874C43.6055 35.4718 43.7305 35.9417 43.793 36.1359C44.1289 37.1301 44.8398 37.9379 45.8203 38.4272C46.2422 38.6369 46.5781 38.7495 47.375 38.9514C47.8555 39.0718 48.0234 39.1029 48.0664 39.0679C48.1719 38.9825 48.5117 38.4582 48.6836 38.1165C48.9219 37.6388 49.0938 37.0796 49.1484 36.5709C49.1914 36.2058 49.1875 36.0971 49.1289 35.7592C49.0117 35.0718 48.7109 34.5243 48.1797 34.0233C47.7695 33.6349 47.4141 33.4136 46.4844 32.9631C45.1875 32.3379 44.9961 32.2252 44.8477 31.9845C44.7578 31.8408 44.7422 31.6505 44.8125 31.5806C44.957 31.4369 45.4609 31.5767 46.3672 32C47.1055 32.3456 47.3516 32.4349 47.8086 32.5204C48.2109 32.598 48.457 32.598 48.8008 32.5243C49.2617 32.4272 49.6367 32.2136 49.9023 31.8912L50.0117 31.7631L49.9023 31.5612C49.6641 31.1184 49.2617 30.567 48.9453 30.2485C48.5664 29.8641 48.1875 29.6078 47.7461 29.433C46.9609 29.1184 46.2617 29.0912 44.5664 29.3048C43.5703 29.4291 43.3906 29.4446 42.832 29.4252C42.1914 29.4019 41.9297 29.3553 41.5586 29.2C41.3398 29.1029 41.1719 28.932 41.1719 28.7961C41.1719 28.5631 41.6094 28.2835 42.1133 28.198C42.2539 28.1747 42.5703 28.1553 42.8203 28.1553C44.418 28.1553 45.5195 27.7709 46.0742 27.0252C46.2461 26.7922 46.3789 26.501 46.4258 26.2485L46.4492 26.1126L46.0078 25.798C44.8945 25.0136 43.8281 24.5281 42.8594 24.3689C42.3125 24.2796 41.4844 24.3029 41.0234 24.4233C40.0273 24.6835 39.2383 25.2155 38.2852 26.2679C38.0234 26.5592 37.793 26.7961 37.7734 26.7961C37.7539 26.7961 37.6641 26.7029 37.5703 26.5864C37.4766 26.4738 37.2969 26.2602 37.1719 26.1204C37.0469 25.9767 36.9492 25.8563 36.957 25.8485C36.9648 25.8408 37.3516 25.6194 37.8125 25.3592C38.2734 25.099 38.8359 24.765 39.0625 24.6175C39.3906 24.4078 39.5313 24.3417 39.7461 24.2951C40.1211 24.2136 41.4102 23.8912 41.5 23.8524C41.5625 23.8252 41.5117 23.7709 41.1719 23.499C40.9531 23.3243 40.7422 23.1612 40.7031 23.1379C40.6406 23.099 40.6406 23.0835 40.6914 22.9553C40.8242 22.6408 40.7969 22.1864 40.5977 21.3747C40.582 21.3048 40.6094 21.2893 40.9063 21.2272C41.0859 21.1883 41.7227 21.0213 42.3242 20.8544C42.9258 20.6874 43.5156 20.532 43.6328 20.5048C43.75 20.4815 43.875 20.4505 43.9063 20.4427C43.9414 20.4311 43.8398 20.3417 43.6328 20.2097C42.7227 19.6194 41.7461 19.2 40.6523 18.9359C39.8594 18.7379 39.3828 18.6757 38.5156 18.6524C37.4023 18.6213 36.4297 18.7495 35.4688 19.0563L35.1367 19.1612L35.7422 19.1922C36.0742 19.2078 36.5703 19.2466 36.8438 19.2815C37.4297 19.3514 38.3984 19.5301 38.3984 19.5689C38.3984 19.6427 37.6953 19.701 36.7617 19.7087C35.7188 19.7165 35.0469 19.7747 35.0117 19.8679C35 19.8951 35.0156 19.9806 35.0391 20.0582C35.1016 20.2408 35.3047 20.3728 35.6602 20.4544L35.9375 20.5204L35.6641 20.7961L35.3906 21.0718L35.0664 21.0408C34.5 20.9864 33.582 21.0757 33.2227 21.2194L33.1055 21.266L33.3789 21.3709C33.6719 21.4796 34.082 21.5845 34.6094 21.6893C34.793 21.7281 34.9453 21.7592 34.9531 21.767C34.9609 21.7747 34.7852 22.1709 34.7383 22.2485C34.7344 22.2563 34.4883 22.2252 34.1914 22.1786C33.8945 22.1359 33.4414 22.0815 33.1797 22.0621C32.6758 22.0233 31.9648 22.0466 31.9297 22.1048C31.8867 22.1747 31.9531 22.3107 32.0977 22.4621C32.2891 22.6563 32.6992 22.8505 33.5352 23.1417C33.9023 23.266 34.2266 23.3825 34.2617 23.398C34.3203 23.4213 34.3203 23.4446 34.25 23.6621C34.2109 23.7903 34.168 23.9068 34.1602 23.9145C34.1484 23.9262 34.0313 23.8835 33.8984 23.8252C33.2109 23.5262 32.2539 23.266 31.4727 23.165C30.9883 23.1029 29.6484 23.0835 29.6484 23.1379C29.6484 23.2349 30.1953 23.5262 31.1133 23.9223C31.9727 24.2912 32.6719 24.6408 32.9492 24.8427C33.332 25.1223 32.9844 25.0252 31.8047 24.5243C30.4141 23.934 29.8594 23.767 29.3008 23.7631C28.8242 23.7592 28.7227 23.8563 28.8633 24.1747C28.9609 24.3922 29.2695 24.7223 29.6211 24.9825L29.8828 25.1767L29.7266 25.2466C29.6406 25.2854 29.4922 25.3709 29.3984 25.433L29.2266 25.5534L28.8711 25.3437C28.6758 25.2311 28.4648 25.1145 28.4023 25.0874L28.2852 25.0408L28.3672 24.932C28.5117 24.7378 28.3516 24.4272 28.1094 24.4272C27.9648 24.4272 27.9414 24.4427 27.8008 24.6291L27.6953 24.7728L27.4102 24.6679C27.25 24.6097 27.1172 24.5514 27.1172 24.532C27.0664 24.2835 27.2578 24.0699 27.7539 23.8291C28.0391 23.6932 28.1289 23.6311 28.1484 23.5573C28.1992 23.3514 28.0508 23.2078 27.7969 23.2078C27.6133 23.2078 27.4727 23.3126 27.4258 23.4835C27.4023 23.565 27.3555 23.6699 27.3242 23.7165C27.2422 23.8291 27.0586 23.833 26.9492 23.7243C26.8477 23.6233 26.7422 23.3786 26.7852 23.3398C26.8008 23.3243 27.082 23.2388 27.4023 23.1456C28.332 22.8854 29.3516 22.4971 30.1367 22.1048C30.4648 21.9417 31.2969 21.3942 31.9141 20.9359C33.5039 19.7553 35.0234 18.2369 36.2227 16.6408C38.043 14.2175 39.25 11.5495 39.8242 8.66795C39.8828 8.38057 39.918 8.13979 39.9102 8.12814C39.8984 8.12037 39.8516 8.28348 39.8047 8.49319C39.3828 10.3456 38.6484 12.0505 37.4375 14C35.9063 16.4699 33.7695 18.734 31.4805 20.3145C30.4844 21.0019 29.0195 21.798 28.0664 22.1709L27.6758 22.3223L27.6367 22.2058C27.582 22.0466 27.4414 21.9417 27.2891 21.9417C27.1289 21.9417 27.0117 22.066 26.9805 22.2679C26.9492 22.4738 26.8008 22.6213 26.6641 22.5864C26.457 22.5359 26.2109 21.9922 26.2109 21.5922C26.2109 21.3243 26.2695 21.1806 26.4453 21.033C26.5703 20.932 26.7578 20.8971 26.7578 20.9747C26.7578 21.0641 26.5977 21.6349 26.5234 21.8058C26.4375 22.0078 26.4219 22.2136 26.4922 22.2136C26.5195 22.2136 26.6914 22.0621 26.875 21.8718C27.8125 20.9243 28.4531 19.4291 28.6328 17.7864C28.6914 17.2311 28.7109 17.1262 28.7422 17.1262C28.832 17.1262 29.0313 17.301 29.1055 17.4446C29.2344 17.6932 29.1953 18.2058 28.9844 19.0291C28.8477 19.565 28.8203 19.7359 28.8164 20.0777C28.8086 20.4349 28.8203 20.5087 28.9023 20.6757L28.9961 20.8621L29.1328 20.6563C29.4648 20.1398 29.7383 19.4524 29.8906 18.7417C30 18.2097 30.0117 17.0252 29.9102 16.4466C29.8281 15.9883 29.6133 15.2078 29.4688 14.8427C29.1836 14.1243 28.6406 13.1728 28.2344 12.6912L28.082 12.5087L28.2695 12.4854C28.5742 12.4466 28.9414 12.3534 29.2539 12.233C29.4141 12.1709 29.5508 12.1243 29.5547 12.1281C29.5586 12.132 29.6016 12.3379 29.6484 12.5825C29.7031 12.8466 29.9063 13.5223 30.1445 14.233C30.8008 16.1747 30.9844 16.8311 31.0977 17.6311C31.1602 18.101 31.1523 19.0602 31.0781 19.433C31.043 19.6039 31.0234 19.7476 31.0313 19.7553C31.0586 19.7825 31.4453 18.9126 31.5391 18.6136C31.9922 17.165 31.9688 15.3476 31.4648 13.0951C31.3555 12.6175 31.3555 12.6252 31.4648 12.7961C32.1914 13.9223 32.6523 16.1048 32.4844 17.5806C32.4453 17.9107 32.4805 17.9806 32.6758 17.9806C32.8906 17.9806 33.2266 17.6893 33.4063 17.3437C33.4688 17.2272 33.4922 17.1068 33.5 16.8932C33.5 16.734 33.5352 16.4349 33.5742 16.233C33.7227 15.4641 33.6523 14.4116 33.3945 13.5922C32.8398 11.8136 31.4766 10.1864 29.7188 9.21164C29.5938 9.14173 29.4844 9.08736 29.4727 9.08736C29.4609 9.08736 29.4531 9.13397 29.4531 9.19222C29.4531 9.28154 29.4336 9.26212 29.3008 9.06406C28.7734 8.24465 27.8359 7.79416 26.375 7.65047C25.7656 7.58834 25.6289 7.54562 25.5195 7.38251C25.4102 7.22329 25.4063 7.1262 25.5039 6.96697C25.6523 6.7262 26.0703 6.60193 26.7461 6.60193C27.2695 6.60193 27.6875 6.68736 28.7344 7.00581C30.0391 7.40193 30.4961 7.47183 31.125 7.36309C31.3242 7.32814 31.5508 7.27377 31.625 7.2427C31.6953 7.21163 31.7578 7.20387 31.7578 7.2194C31.7578 7.35532 31.9375 8.54368 32.0195 8.95144C32.1133 9.42523 32.1563 9.53785 32.7227 10.8078C33.9727 13.6155 34.332 14.7107 34.5938 16.5631C34.6211 16.7495 34.625 16.7417 34.7109 16.233C34.9648 14.7184 34.9336 12.8427 34.6328 11.5922C34.6016 11.4641 34.582 11.3553 34.5898 11.3476C34.6172 11.3204 34.793 11.6311 34.8711 11.8446C35.043 12.3029 35.1719 12.9709 35.3477 14.365C35.4102 14.8621 35.4727 15.2777 35.4805 15.2854C35.5117 15.3165 35.6719 14.7223 35.75 14.2718C35.8555 13.6427 35.8359 12.5398 35.707 11.9223C35.2734 9.9029 34.0586 8.20969 32.3633 7.266L32.0273 7.07571L32.2617 6.93591C32.5938 6.73396 33.0313 6.31455 33.4375 5.80581C33.6289 5.56115 33.8047 5.35532 33.8281 5.33979C33.8984 5.29707 33.8711 5.19998 33.6875 4.83882C33.418 4.3029 32.9492 3.63494 32.5586 3.23105C31.8555 2.49707 31.2891 2.21358 30.5195 2.21358C29.7227 2.21358 29.082 2.52037 27.8672 3.48348C27.1484 4.05435 26.8594 4.25241 26.6367 4.33396C26.3633 4.42717 26.1328 4.35338 26.1328 4.16697C26.1328 3.94562 26.3672 3.66989 26.9922 3.16503C27.8008 2.50872 28.125 2.10096 28.3086 1.5262C28.4375 1.11066 28.4258 0.61746 28.2773 0.252411L28.1836 0.0194017L27.8125 0.0155182C27.6094 0.0116347 27.3281 0.0232852 27.1875 0.0427027ZM25.1133 8.47377C25.6172 8.57863 26.0625 8.73785 26.6289 9.01358C27.1875 9.28542 27.3281 9.39028 27.4297 9.62329C27.5234 9.82911 27.4961 9.98445 27.3516 10.101C27.2617 10.1709 27.2031 10.1786 26.9883 10.167C26.6484 10.1476 26.3594 10.0039 25.8008 9.56503C24.9531 8.90484 24.4883 8.6563 23.8984 8.54368C23.6367 8.49319 23.6094 8.4427 23.8203 8.40775C23.8984 8.39222 23.9844 8.37669 24.0039 8.36503C24.0898 8.33397 24.7656 8.39999 25.1133 8.47377ZM23.8906 9.433C24.125 9.54562 24.2461 9.65047 24.8438 10.2641C26.7773 12.2563 26.9609 12.3922 27.7852 12.4893C27.9063 12.501 28.0078 12.5204 28.0078 12.532C28.0078 12.5398 27.9844 12.5864 27.9531 12.633C27.8477 12.7961 27.5469 13.6155 27.4414 14.0272L27.332 14.4427L26.957 13.6971C26.1914 12.1864 25.6055 11.5145 24.6758 11.0874C24.2539 10.8932 23.9883 10.8388 23.2813 10.7961C22.4922 10.7456 22.1445 10.6757 21.875 10.5126C21.3867 10.2213 21.4297 9.84076 21.9844 9.54173C22.3281 9.35533 22.6953 9.27766 23.1875 9.29319C23.5898 9.30484 23.6484 9.31649 23.8906 9.433ZM22.5586 11.4718C23.457 11.7398 24.2031 12.2718 24.3359 12.7456C24.457 13.1689 23.9609 13.4369 23.3789 13.266C23.0938 13.1767 22.8359 12.9864 22.2227 12.4C21.5313 11.7398 21.2422 11.565 20.6875 11.4757C20.2969 11.4136 20.8164 11.3398 21.5625 11.3553C22.125 11.367 22.2539 11.3825 22.5586 11.4718ZM20.9883 12.4777C21.3594 12.6602 21.4883 12.8 22.1641 13.7864C22.8008 14.7068 23.0664 15.0563 23.4766 15.499L23.7891 15.8408L23.7539 16.0078C23.668 16.3961 23.625 17.2854 23.6484 18.1942C23.6719 19.0446 23.668 19.1184 23.6133 19.0485C23.5273 18.9398 23.375 18.4427 23.3242 18.0971C23.3008 17.9379 23.2656 17.5262 23.2422 17.1845C23.1992 16.4466 23.1172 16.0893 22.8711 15.5806C22.6484 15.1223 22.5156 14.9281 22.1523 14.5476C21.6914 14.0699 21.2266 13.767 20.7969 13.666C20.2227 13.534 19.9922 13.4097 19.8945 13.1728C19.7813 12.9087 19.9023 12.4893 20.125 12.3612C20.2891 12.2641 20.6563 12.3145 20.9883 12.4777ZM19.707 14.6602C20.1367 14.7689 20.5 14.9747 20.8242 15.2971C21.2344 15.7048 21.4453 16.1476 21.4453 16.6097C21.4453 16.7922 21.4297 16.8349 21.3047 16.967C21.0664 17.2311 20.8125 17.2544 20.6328 17.0291C20.5469 16.9204 20.4883 16.7767 20.3516 16.3301C20.2227 15.9107 20.043 15.6582 19.5703 15.2194C19.2656 14.9398 19.1406 14.8 19.1406 14.734C19.1406 14.5903 19.3281 14.5631 19.707 14.6602ZM27.1016 16.4155C27.0898 16.6485 27.0547 17.367 27.0313 18.0194C26.9922 19.1068 26.9453 19.8369 26.8945 20.1359L26.875 20.2524H26.5664C26.3945 20.2524 26.2461 20.2408 26.2344 20.2291C26.2227 20.2175 26.2461 20.0854 26.2852 19.9379C26.4141 19.4641 26.4609 19.099 26.457 18.5243C26.4492 17.9145 26.3828 17.3942 26.2266 16.8194C26.1758 16.6175 26.1445 16.4427 26.1602 16.4272C26.1797 16.4155 26.3164 16.3534 26.4648 16.299C26.6172 16.2408 26.8086 16.1514 26.8945 16.101C26.9805 16.0505 27.0703 16.0039 27.0898 16.0039C27.1172 16 27.1211 16.1398 27.1016 16.4155ZM26.5742 23.565C26.6797 23.7437 26.7188 23.9417 26.6758 24.0971C26.625 24.2796 26.5156 24.334 26.4219 24.2252C26.3203 24.1165 25.9844 23.9612 25.8398 23.9612C25.6992 23.9612 25.5547 24.0544 25.5117 24.167C25.4844 24.2369 25.4531 24.2485 25.2891 24.2408L25.0977 24.233L25.2344 24.299C25.3086 24.334 25.6758 24.5087 26.0508 24.6874C26.5859 24.9437 26.7227 25.0213 26.7031 25.0718C26.6914 25.1029 26.6797 25.1922 26.6797 25.266V25.398L26.4766 25.2854C26.3633 25.2233 26.1563 25.1262 26.0156 25.0641C25.8633 24.998 25.6758 24.8777 25.543 24.7534C25.4102 24.6291 25.2656 24.5359 25.1719 24.5087C24.918 24.4427 24.668 24.5437 24.5234 24.7689L24.4453 24.8971L24.3047 24.6951C24.2305 24.5825 24.0313 24.3495 23.8633 24.1747L23.5586 23.8602L24.2656 23.7709C24.9453 23.6893 26.207 23.4718 26.2461 23.433C26.2578 23.4213 26.3203 23.4175 26.3828 23.4252C26.4688 23.433 26.5195 23.4718 26.5742 23.565ZM36.2383 24.3689C36.4258 24.4233 36.7383 24.4893 36.9258 24.5165L37.2734 24.5631L36.8594 24.9864L36.4492 25.4058L36.3203 25.301C36.25 25.2466 36.0586 25.099 35.8984 24.9825C35.7383 24.8621 35.5898 24.7534 35.5703 24.734C35.543 24.7107 35.8398 24.2718 35.8828 24.2718C35.8906 24.2718 36.0508 24.3145 36.2383 24.3689ZM27.6328 25.5806C28.0508 25.8796 28.4766 26.2291 28.4766 26.2679C28.4727 26.2912 28.4414 26.3495 28.4023 26.3961L28.3281 26.4854L27.9922 26.2369C27.8047 26.0971 27.5742 25.9378 27.4805 25.8757C27.3047 25.767 27.2617 25.666 27.3281 25.499C27.3633 25.4097 27.4102 25.4213 27.6328 25.5806ZM43.6445 26.0582C43.9297 26.1398 43.793 26.3107 43.2031 26.6058C42.5859 26.9087 42.2305 27.0213 41.418 27.165C39.668 27.4757 38.9844 27.7126 38.7148 28.101C38.5664 28.3145 38.5625 28.5048 38.7031 28.7883C39.0781 29.5456 40.1406 30.0815 41.8555 30.3767C42.3125 30.4544 42.4609 30.4621 43.3594 30.4505C45.3906 30.4155 46.0664 30.4233 46.2578 30.4815C46.4727 30.5437 46.5742 30.6369 46.5547 30.7612C46.5078 31.0874 45.6875 31.1301 44.082 30.8893C43.1563 30.7495 42.7734 30.8 42.7734 31.0563C42.7734 31.1728 42.8398 31.2388 43.7656 32.0777C45.1797 33.3592 46.293 34.6408 46.7188 35.4757C46.8672 35.7631 47.0117 36.1903 46.9727 36.2252C46.9648 36.233 46.8789 36.0777 46.7852 35.8796C46.0234 34.2602 43.9063 32.4272 40.6055 30.5243C38.9922 29.5922 37.4766 28.9243 36.3086 28.6252C35.5313 28.4272 35.1016 28.3767 34.375 28.4C34.0195 28.4116 33.6523 28.4427 33.5547 28.466C33.457 28.4854 33.3398 28.5126 33.2891 28.5243C33.2188 28.5398 33.1914 28.5243 33.1602 28.4388C33.0859 28.2446 33.1523 28.0893 33.418 27.8058C33.5938 27.6194 33.6758 27.499 33.6953 27.4019C33.7148 27.2971 33.7344 27.266 33.7852 27.2777C34.1992 27.3942 34.1719 27.3786 34.1289 27.4912C34.0742 27.6388 34.1172 27.7747 34.25 27.8524C34.3203 27.8951 34.6094 27.9534 35.0234 28.0039C35.7656 28.1048 36.8828 28.1243 37.2852 28.0466C37.4961 28.0078 37.5781 28.0155 38.0586 28.1126C38.3516 28.1709 38.5938 28.2136 38.5938 28.2058C38.5938 28.198 38.543 28.0893 38.4766 27.965L38.3633 27.7359L38.5352 27.6699C38.7773 27.5806 39.3008 27.2582 39.9492 26.8078C40.6836 26.2912 41.0508 26.1592 42.0898 26.0349C42.5625 25.9806 43.4102 25.9922 43.6445 26.0582ZM29.8477 27.833C29.8984 27.8951 29.8945 27.899 29.8359 27.8485C29.7969 27.8213 29.7656 27.7903 29.7656 27.7825C29.7656 27.7514 29.7969 27.7709 29.8477 27.833ZM34.9961 29.5728C35.3398 30.0311 35.6445 30.6602 35.8047 31.2388C36.0078 31.9612 35.9688 32.967 35.7227 33.3825C35.3984 33.9301 34.7578 33.6349 34.5469 32.8349C34.4531 32.4971 34.4805 32.2485 34.6914 31.4291C34.8633 30.7534 34.8867 30.6097 34.8906 30.2524C34.8906 29.8485 34.875 29.7709 34.6719 29.2233C34.6367 29.1301 34.7773 29.2815 34.9961 29.5728ZM39.668 31.4563C40.0547 32.2175 40.2852 33.2699 40.2891 34.299C40.293 34.7767 40.2852 34.8388 40.2109 34.9398C40.0352 35.1767 39.7773 35.0524 39.5742 34.6291C39.3555 34.1864 39.3477 33.8175 39.5352 32.8388C39.6211 32.3806 39.543 31.6505 39.3594 31.2155C39.3242 31.134 39.2969 31.0408 39.2969 31.0019C39.3008 30.8932 39.5156 31.1573 39.668 31.4563Z" fill="#CDE4EB"/>
<path d="M41.3475 0.310659C41.1639 0.598037 40.9139 1.16114 40.785 1.57279C40.5311 2.38445 40.4061 3.28542 40.3553 4.59415C40.3241 5.41357 40.3475 5.7825 40.4296 5.88736C40.578 6.06211 40.9178 5.79415 41.1835 5.29318C41.41 4.866 41.4882 4.60192 41.5233 4.15532C41.5741 3.57279 41.6678 3.30095 41.7343 3.54173C41.7772 3.70872 41.7577 4.57862 41.703 4.866C41.6366 5.21551 41.5663 5.3592 41.3632 5.58056C41.1678 5.79415 41.1561 5.94949 41.3319 6.0194C41.4257 6.05823 41.4921 6.06211 41.6483 6.02328C41.9764 5.94949 42.1874 5.74367 42.1874 5.49512C42.1874 5.43687 42.2421 5.3126 42.3085 5.2194C42.8788 4.39221 43.0038 3.23493 42.6366 2.09707C42.4413 1.48347 42.0546 0.803863 41.6288 0.330076L41.4569 0.139785L41.3475 0.310659Z" fill="#CDE4EB"/>
<path d="M36.1953 1.833C36.1719 1.94173 36.1211 3.35921 36.1211 3.94173C36.1211 4.43494 36.1992 4.88154 36.3711 5.39416C36.5547 5.94173 36.7148 6.29513 37.2734 7.37863C37.5547 7.92232 37.8672 8.55921 37.9688 8.7961C38.1758 9.27377 38.2461 9.32426 38.3711 9.08737C38.4336 8.97086 38.4414 8.88542 38.4219 8.46601C38.4102 8.19804 38.3594 7.71649 38.3047 7.39804C38.2539 7.07571 38.1953 6.73785 38.1797 6.64076L38.1523 6.46601L38.2461 6.52814C38.4492 6.66018 38.5391 6.97086 38.7109 8.13591C38.8398 9.00581 38.9375 9.48348 38.9883 9.4563C39.043 9.42135 39.25 8.79222 39.3438 8.38445C39.4219 8.03105 39.4336 7.88348 39.4297 7.18445C39.4297 6.51261 39.4141 6.3262 39.3438 5.99999C39.0625 4.74173 38.5273 3.71649 37.7109 2.87377C37.3008 2.45047 36.8594 2.10096 36.4453 1.87183L36.2148 1.74368L36.1953 1.833Z" fill="#CDE4EB"/>
<path d="M45.7812 4.97468C44.7226 5.1106 43.6679 5.49507 42.8202 6.06206C42.1093 6.53196 41.289 7.4174 41.2812 7.72031C41.2773 7.88342 41.3007 7.90284 41.4882 7.89507C41.8046 7.87953 42.4413 7.5106 42.6601 7.21157C42.7538 7.08342 42.7773 7.06788 42.7968 7.12614C42.8163 7.16885 42.789 7.26206 42.7343 7.36691C42.6366 7.55332 41.9374 8.2407 41.4921 8.59798C41.0741 8.92419 40.9648 9.13779 41.1405 9.25818C41.371 9.42128 41.9062 9.26983 42.1523 8.97468C42.2616 8.84264 42.3593 8.78439 42.6952 8.64847C43.8476 8.17856 44.8944 7.29313 45.6913 6.11643C45.8788 5.83682 46.2694 5.14167 46.3085 5.0174C46.3319 4.93973 46.3202 4.93196 46.1835 4.93584C46.1015 4.93973 45.9218 4.95526 45.7812 4.97468Z" fill="#CDE4EB"/>
<path d="M34.5896 5.08348C34.2654 5.23105 33.992 5.67377 33.9256 6.17474C33.8904 6.41164 33.9607 6.80775 34.0779 7.04465C34.1287 7.15338 34.3631 7.65435 34.5896 8.15533C34.8201 8.6563 35.1482 9.37474 35.3201 9.74756C35.7225 10.6252 36.0037 11.3087 36.2303 11.9612C36.4139 12.4932 36.6795 13.4951 36.6795 13.6582C36.6795 13.7087 36.6951 13.7476 36.7146 13.7476C36.7498 13.7476 36.8201 13.1456 36.8592 12.5048C36.9021 11.7437 36.7693 10.4932 36.5428 9.57668C36.4295 9.12232 36.1795 8.35727 36.0115 7.95727C35.949 7.80193 35.9061 7.66989 35.9139 7.66212C35.9412 7.63105 36.41 8.36115 36.5818 8.69902C36.9139 9.36309 37.2303 10.3378 37.5584 11.7204C37.7537 12.5359 37.7811 12.4777 37.785 11.2427C37.785 10.4815 37.7693 10.2097 37.699 9.76698C37.4529 8.15921 36.949 6.98639 36.0545 5.91843C35.5623 5.33591 35.4256 5.20387 35.2146 5.1029C34.9803 4.99416 34.8006 4.98639 34.5896 5.08348Z" fill="#CDE4EB"/>
<path d="M44.5935 8.73777C43.0389 8.91641 41.6404 9.56107 40.6287 10.563C40.3006 10.8892 39.8045 11.5067 39.8045 11.5921C39.8045 11.6077 39.9217 11.6077 40.0701 11.5921C40.6053 11.5378 41.0467 11.4057 41.9725 11.0174C42.2537 10.9009 42.6404 10.7533 42.8318 10.6873C43.1756 10.5708 43.7498 10.4659 43.8865 10.4931C43.9217 10.497 43.4607 10.73 42.8592 11.0018C41.3787 11.6776 40.5857 12.1319 39.9217 12.6795C39.5467 12.9902 39.4568 13.0873 39.5428 13.0873C39.6951 13.0873 40.1639 12.9514 40.8201 12.7183C42.0428 12.2795 42.2303 12.2368 42.9959 12.1941C43.367 12.1747 43.7889 12.1397 43.9334 12.1125C45.4373 11.864 46.8201 11.1183 47.6834 10.0892C47.9764 9.74359 48.2029 9.42514 48.2029 9.36689C48.2029 9.27369 47.2225 8.93971 46.5779 8.81544C46.0896 8.72223 45.0818 8.6834 44.5935 8.73777Z" fill="#CDE4EB"/>
<path d="M42.0116 12.7611C41.1757 12.9009 40.3592 13.2504 39.7303 13.7398C39.6405 13.8097 39.6405 13.8174 39.703 13.9378C39.8046 14.132 39.9764 14.2135 40.2733 14.2135C40.5702 14.2135 40.8085 14.1592 41.5038 13.9417C41.785 13.8563 42.1405 13.7592 42.2967 13.7281C42.6483 13.6543 43.1405 13.6466 43.3007 13.7126C43.4139 13.7553 43.3983 13.7631 42.9882 13.8485C40.9452 14.2873 40.0546 14.5475 39.16 14.9747C38.8124 15.1378 38.1483 15.53 38.1717 15.5533C38.1874 15.5689 40.3436 15.332 40.996 15.2427C43.2303 14.9398 44.8944 14.4932 46.328 13.8174L46.7382 13.6233L46.4257 13.4757C45.7069 13.1378 44.8358 12.8737 44.0546 12.7611C43.5507 12.6834 42.4569 12.6834 42.0116 12.7611Z" fill="#CDE4EB"/>
<path d="M15.4414 14.4815C15.1367 14.5709 14.9844 14.6835 14.7656 14.9942C14.668 15.1301 14.5078 15.3243 14.4102 15.4252C14.1719 15.6699 14.0898 15.6699 13.8086 15.4175C13.5703 15.2 13.4727 15.165 13.1641 15.165C12.8594 15.1689 12.5547 15.3243 12.2266 15.6466C11.4844 16.3767 11.1328 17.3165 11.1328 18.5631C11.1328 19.3243 11.293 20.2291 11.5664 20.9903C11.6562 21.2505 11.7031 21.3204 11.7812 21.3204C11.8555 21.3204 11.8516 21.2078 11.7578 20.7612C11.6914 20.4505 11.6836 20.3417 11.7148 20.1631C11.7383 20.0427 11.7812 19.7786 11.8164 19.5806C11.9258 18.9359 12.1328 18.5204 12.4023 18.3922C12.5898 18.3029 12.6289 18.3145 12.7148 18.4699C12.8242 18.6718 13.0664 18.8738 13.1953 18.8738C13.332 18.8738 13.3984 18.8039 13.5352 18.5126C13.6797 18.2058 13.8867 18.0815 14.2227 18.1048C14.4883 18.1243 14.6289 18.2058 14.7422 18.4116C14.8828 18.6718 14.8281 18.7728 14.2031 19.4136C13.5117 20.1165 13.3789 20.2641 13.1523 20.5864C12.9492 20.8738 12.8281 21.1223 12.75 21.4175C12.6758 21.6815 12.6797 21.7476 12.7656 21.7476C12.8984 21.7476 13.1797 21.5223 13.6758 21.0213C14.1172 20.5747 14.2227 20.4932 14.6914 20.2136C14.9805 20.0466 15.5469 19.7514 15.9531 19.565C17.0195 19.0679 17.2852 18.9243 17.5234 18.7107C17.8867 18.3767 18.082 17.8408 18.0078 17.3825C17.9492 17.0213 17.7227 16.6718 17.4492 16.5243L17.3164 16.4544L17.2891 16.0971C17.2305 15.266 16.957 14.7068 16.5039 14.501C16.2617 14.3845 15.8047 14.3806 15.4414 14.4815Z" fill="#CDE4EB"/>
<path d="M6.76165 14.664C6.11322 14.8892 5.69525 15.5611 5.87103 16.0814C5.96087 16.3455 5.91009 16.5242 5.64056 16.8892C5.14056 17.5688 5.1015 17.7397 5.31634 18.295C5.82025 19.5921 7.21087 20.5746 9.06634 20.9475C9.32025 21.0018 9.56634 21.0329 9.61712 21.0212C9.74212 20.9902 9.80462 20.9358 9.80462 20.8581C9.80462 20.7805 9.51165 20.4931 9.09369 20.163C8.7265 19.8678 8.69915 19.8329 8.33197 19.2038C7.91009 18.4814 7.83587 18.2407 7.92962 17.8989C7.98822 17.6892 8.12884 17.5805 8.36712 17.5611C8.78509 17.53 9.18744 17.864 9.53509 18.5397C9.62494 18.7145 9.76165 18.9591 9.84369 19.0873C9.92572 19.2154 10.0859 19.5378 10.1992 19.8018C10.4374 20.3572 10.6132 20.5824 10.8124 20.5824C10.8827 20.5824 10.9374 20.5785 10.9374 20.5708C10.9374 20.563 10.8788 20.3805 10.8046 20.163C10.5038 19.2737 10.414 18.462 10.5234 17.6115C10.6171 16.9009 10.6132 16.3222 10.5077 15.9921C10.3984 15.6426 10.0156 15.1261 9.789 15.0251C9.58197 14.9319 9.50775 14.9358 9.06244 15.0484C8.46869 15.1999 8.34369 15.1844 7.97259 14.8931C7.8515 14.7999 7.67572 14.695 7.58197 14.6601C7.36712 14.5863 6.98431 14.5863 6.76165 14.664Z" fill="#CDE4EB"/>
<path d="M40.8008 15.8679C39.8242 15.9378 38.75 16.1902 37.9297 16.5358C37.6016 16.6757 37.6016 16.6757 37.7344 16.7028C37.8828 16.7339 38.5039 16.7844 39.8125 16.8737C40.668 16.932 41.4961 17.0291 41.6016 17.0912C41.6445 17.1145 41.6211 17.1378 41.5039 17.1883C41.375 17.2426 41.1367 17.2582 40.1211 17.2854C39.4453 17.3048 38.7695 17.3358 38.6172 17.3591C37.8242 17.4718 37.6055 17.5106 37.5195 17.5689C37.3906 17.6543 37.3945 17.6931 37.5547 17.8446C37.7969 18.0698 38.4336 18.2329 38.8086 18.1708C38.918 18.1514 39.043 18.163 39.2188 18.2135C39.5781 18.3184 40.2969 18.4388 40.8203 18.4854C41.7305 18.563 42.7656 18.5164 44.668 18.3145C45.1641 18.2601 45.7188 18.2058 45.9102 18.1902C46.0977 18.1747 46.25 18.1514 46.25 18.1358C46.25 18.0582 45.8203 17.5766 45.4883 17.2854C44.6953 16.5863 43.6406 16.1242 42.4414 15.9456C42.0391 15.8834 41.1445 15.8407 40.8008 15.8679Z" fill="#CDE4EB"/>
<path d="M17.0312 19.6971C16.1484 19.7514 15.4648 20.0466 14.5625 20.7728C14.0391 21.1922 13 22.2563 13.0586 22.3145C13.0703 22.3301 13.1601 22.3495 13.2578 22.3573C13.4687 22.3806 13.7148 22.2796 14.1601 21.9806C14.3242 21.8718 14.5195 21.7553 14.5898 21.7243C14.7812 21.6466 15.0351 21.6544 15.1875 21.7476L15.3125 21.8252V22.1709C15.3125 22.4621 15.3242 22.5281 15.3984 22.6213L15.4805 22.7262L15.8984 22.699C16.2539 22.6757 16.3359 22.6835 16.4492 22.7378C16.6367 22.8311 16.7148 22.9087 16.8008 23.0757C17.0547 23.5689 16.832 24.0078 16.2773 24.1243C16.0781 24.167 16.0117 24.1592 15.6562 24.0777C15.4336 24.0272 15.1836 23.9845 15.0976 23.9806C14.9453 23.9806 14.9414 23.9845 14.9453 24.1165C14.9453 24.1903 14.9766 24.3612 15.0156 24.4932C15.1289 24.901 15.0039 25.1456 14.6367 25.2466C14.5508 25.2699 14.418 25.2777 14.3398 25.2621C13.8555 25.1806 13.543 24.9553 13.3633 24.567C13.1719 24.1514 12.9023 23.8835 12.6836 23.8835C12.4336 23.8835 12.4023 24.3417 12.6016 24.9825C12.9609 26.1204 13.9375 27.332 14.875 27.8058C15.1953 27.965 15.4023 28.0349 15.6992 28.0777C16.2187 28.1514 16.7461 27.9417 17.1601 27.4951C17.543 27.0835 17.6797 26.7767 17.8359 25.9495C17.875 25.7476 18.1797 25.5223 18.8398 25.2039C19.5703 24.8544 19.707 24.7378 19.9883 24.2058C20.3281 23.5689 20.3672 22.8777 20.0937 22.2641C19.9961 22.0427 19.7109 21.7165 19.5039 21.5883C19.418 21.534 19.2266 21.2893 18.9258 20.8388C18.207 19.7553 18.0117 19.6388 17.0312 19.6971Z" fill="#CDE4EB"/>
<path d="M4.8202 19.9222C4.77333 19.9416 4.70692 19.996 4.67176 20.0465C4.55458 20.2096 4.59364 20.3028 4.86317 20.5591C5.16004 20.8387 5.18739 20.9436 4.99598 21.1028C4.91004 21.1727 4.83192 21.2038 4.72254 21.2038C4.41786 21.2038 4.24208 21.0445 4.01942 20.563C3.86317 20.2212 3.80458 20.1552 3.66786 20.1552C3.49989 20.1552 3.39833 20.2911 3.39833 20.5047C3.39833 20.7144 3.48426 20.8154 3.71864 20.8892C3.86708 20.9397 4.02333 21.0911 4.02333 21.1921C4.02333 21.2776 3.78504 21.4717 3.62489 21.5222C3.31239 21.6154 2.96864 21.3902 2.76551 20.963C2.60926 20.6329 2.42567 20.5708 2.22254 20.7727C2.07801 20.9203 2.0702 21.0911 2.20692 21.2232C2.2577 21.2776 2.34754 21.3203 2.40223 21.3203C2.64442 21.3203 2.84364 21.5416 2.74989 21.7047C2.72645 21.7397 2.57411 21.8368 2.41004 21.9183C2.03895 22.1047 1.63661 22.1513 1.40614 22.0309C1.20301 21.9261 1.08192 21.7242 1.11708 21.5533C1.16395 21.3397 1.14051 21.1999 1.05067 21.0989C0.937388 20.9824 0.874888 20.9863 0.683482 21.1106C0.445201 21.2659 0.429576 21.3009 0.429576 21.662C0.429576 22.0309 0.410044 22.0814 0.171763 22.3067C-0.0860495 22.5552 -0.0704245 22.6368 0.339732 23.0795C0.531138 23.2892 0.546763 23.3203 0.546763 23.495C0.546763 23.763 0.620982 23.8057 1.16004 23.8407C1.39051 23.8562 1.62489 23.8911 1.67567 23.9183C1.79676 23.9843 2.01161 23.9416 2.08973 23.8329C2.17958 23.7047 2.16004 23.5533 2.01161 23.2232C1.87489 22.9203 1.83973 22.6989 1.91395 22.5669C1.97254 22.4504 2.47645 22.0659 2.67567 21.9766C2.80848 21.9183 2.91004 21.8989 3.01942 21.9144C3.31239 21.9533 3.31629 22.1047 3.02723 22.4038C2.77333 22.6717 2.75379 22.7766 2.93348 22.9319C3.10926 23.0756 3.26942 23.0562 3.37489 22.8737C3.44129 22.761 3.45692 22.6795 3.44911 22.4038C3.4452 22.1358 3.45692 22.0465 3.51942 21.9455C3.66004 21.7125 4.04286 21.5533 4.27723 21.6309C4.48817 21.7009 4.52333 21.7708 4.40223 21.895C4.26942 22.0309 4.14051 22.3183 4.14051 22.4776C4.14051 22.7455 4.47254 22.897 4.64833 22.7106C4.72645 22.6251 4.73817 22.5552 4.72645 22.1824C4.71864 21.895 4.78504 21.7203 4.93348 21.6465C5.16786 21.5222 6.31629 21.662 7.22255 21.9222C8.04286 22.1552 9.2577 22.6795 9.86708 23.0562C10.4608 23.429 10.9061 23.6115 11.2069 23.6115C11.3983 23.6115 11.6327 23.4678 11.7772 23.2698C11.8788 23.1222 11.8944 23.064 11.8944 22.8543C11.8944 22.563 11.8436 22.497 11.3632 22.1358C10.7343 21.6698 9.8827 21.3203 8.90614 21.1261C7.89051 20.9242 7.5038 20.9047 6.1327 20.9941C5.79286 21.0135 5.74598 21.0096 5.58583 20.9242C5.35536 20.8038 5.23426 20.5785 5.23426 20.264C5.23426 19.9377 5.08583 19.8135 4.8202 19.9222Z" fill="#CDE4EB"/>
<path d="M7.08984 23.1611C6.32031 23.2737 5.79297 23.4562 5.02734 23.8912C4.12891 24.396 3.84766 24.8543 3.74609 25.9883C3.69922 26.4931 3.69531 26.5086 3.56641 26.6523C3.40625 26.831 3.35938 26.9436 3.35938 27.1572C3.35938 27.3863 3.49609 27.6038 3.71094 27.7203C3.89453 27.8174 3.98047 27.8174 4.55859 27.7436C4.75391 27.7203 4.76953 27.7242 4.875 27.8368C4.9375 27.9028 5.04297 28.0931 5.11328 28.2601C5.28906 28.6795 5.41016 28.8504 5.57812 28.9203C5.94531 29.0717 6.54297 28.7455 7 28.1397C7.21875 27.8484 7.39062 27.5184 8.10156 26.0426C8.4375 25.3514 8.77344 25.0679 9.15234 25.1494C9.40625 25.2038 9.42188 25.2193 9.33203 25.4251C9.21875 25.6892 8.97266 26.0426 8.46875 26.6717C8.03516 27.2077 7.67578 27.7669 7.58203 28.0465C7.3125 28.8543 7.62109 29.7048 8.27344 29.9611C8.4375 30.0271 8.53125 30.0271 8.89453 29.9572C9.26953 29.8873 9.49219 30.0698 9.83984 30.7455C10.1406 31.3242 10.4648 31.6815 10.7852 31.7863C11.1055 31.895 11.5508 31.8562 11.8867 31.6892C12.0547 31.6077 12.1758 31.5184 12.2227 31.4407C12.332 31.2698 12.7305 30.8931 13.1641 30.5552C13.582 30.2251 13.9023 29.9028 14.0039 29.7086C14.0625 29.5999 14.0703 29.5106 14.0508 29.1844C14.0156 28.5436 13.8398 28.1397 13.0742 26.9902C12.5664 26.2251 12.3906 25.8873 12.2031 25.3242C12.0625 24.897 11.9453 24.6601 11.875 24.6601C11.8555 24.6601 11.8086 24.7067 11.7695 24.7611C11.6641 24.9242 11.6914 25.2077 11.8555 25.6504C12.2109 26.6135 12.2266 26.6562 12.2266 26.9086C12.2266 27.2504 12.1641 27.4329 11.9844 27.5921C11.832 27.7319 11.6992 27.763 11.5625 27.6892C11.5195 27.6659 11.3633 27.5028 11.2148 27.3242C10.8906 26.9397 10.7773 26.8776 10.4062 26.8815C10.0625 26.8892 9.87891 26.8271 9.72656 26.6562C9.50781 26.4038 9.57422 26.031 9.98828 25.2387C10.2305 24.7727 10.2422 24.7417 10.1914 24.6407C10.1016 24.462 9.94141 24.3688 9.73438 24.3727C9.49609 24.3805 9.28906 24.4737 8.70312 24.8387C8.4375 25.0057 8.13672 25.1805 8.02734 25.231C7.92188 25.2815 7.76172 25.3669 7.67578 25.4174C7.35547 25.6116 6.85547 25.5067 6.65234 25.1999C6.38672 24.7999 6.75781 24.2329 7.41406 24.0387C7.55859 23.996 7.92188 23.9183 8.22266 23.864C8.65234 23.7863 8.83203 23.7358 9.05859 23.6193C9.21875 23.5417 9.35547 23.4562 9.36328 23.4329C9.37891 23.3863 8.94531 23.2504 8.57422 23.1844C8.1875 23.1183 7.47266 23.1067 7.08984 23.1611Z" fill="#CDE4EB"/>
<path d="M13.4531 31.3591C13.2226 31.4717 12.9179 31.7785 12.7577 32.0465C12.3827 32.6834 12.1796 33.8057 12.1288 35.5144C12.0898 36.862 12.0273 37.2698 11.8554 37.3824C11.7695 37.4368 11.7499 37.4368 11.6249 37.3785C11.3437 37.2426 11.0702 36.7649 10.9531 36.1902C10.9023 35.9416 10.8945 35.7513 10.9101 35.3785C10.9335 34.7727 11.039 34.2601 11.3085 33.4368C11.5859 32.5863 11.5781 32.6174 11.4531 32.6445C11.2421 32.695 10.8749 32.8892 10.6562 33.0601C10.2695 33.3708 9.91399 34.0076 9.73821 34.7106C9.63274 35.1183 9.64446 36.229 9.75774 36.629C10.0077 37.53 10.4765 38.2484 11.1679 38.8038C11.4882 39.0562 12.1366 39.4174 12.2773 39.4174C12.4726 39.4174 12.6445 39.2504 12.7343 38.9708C12.8202 38.695 13.1054 38.2018 13.6952 37.297C14.5781 35.9494 14.9101 35.2193 15.0624 34.3028C15.1366 33.8523 15.1171 33.1533 15.0234 32.796C14.871 32.2329 14.457 31.5921 14.121 31.3979C13.8632 31.2465 13.6952 31.2348 13.4531 31.3591Z" fill="#CDE4EB"/>
<path d="M23.7694 32.2213C23.7265 32.2329 23.6405 32.264 23.5741 32.2912C23.5116 32.3184 23.3085 32.3883 23.1249 32.4465C22.6874 32.5863 22.164 32.8582 21.7968 33.13C21.1913 33.5844 20.5937 34.3067 20.3085 34.9359C19.953 35.7164 20.2733 36.6096 21.1132 37.1728C21.3671 37.3436 21.4765 37.3863 21.8554 37.4562C22.5585 37.5883 22.7304 37.7126 22.9022 38.2329C23.1952 39.0951 23.8358 39.7203 24.6288 39.9223C25.4765 40.1359 26.2772 39.8718 26.7147 39.2349C26.8749 39.0019 27.0897 38.8388 27.6132 38.563C28.1405 38.2834 28.3046 38.1397 28.4413 37.8407C28.6679 37.3475 28.6874 36.6951 28.496 36.0038C28.2616 35.1417 27.3983 33.9922 26.2929 33.0524C25.9804 32.7883 25.9374 32.7883 25.9374 33.0524C25.9374 33.2621 26.0194 33.4562 26.2616 33.8252C26.6093 34.3611 26.6913 34.5436 26.664 34.7029C26.6483 34.7766 26.5741 34.9087 26.496 34.9941C26.3788 35.1223 26.3358 35.1456 26.203 35.1456C26.0819 35.1456 26.0272 35.1223 25.9491 35.0329C25.8554 34.9281 25.8397 34.9242 25.7577 34.9747C25.6249 35.064 25.6093 35.1223 25.5858 35.7164L25.5663 36.2679L25.4335 36.4038C25.1796 36.664 24.8632 36.73 24.578 36.5863C24.3905 36.4893 24.2812 36.3728 24.1835 36.1553C24.0585 35.8795 24.078 35.6582 24.2577 35.2543C24.4491 34.8349 24.4765 34.7223 24.4022 34.6252C24.3515 34.5553 24.3397 34.5553 24.0624 34.6951C23.4218 35.0135 22.9647 34.7805 23.0194 34.163C23.0663 33.666 23.4804 33.1689 24.0897 32.8854C24.4022 32.7378 24.5312 32.6291 24.5312 32.5048C24.5312 32.3145 24.078 32.1475 23.7694 32.2213Z" fill="#CDE4EB"/>
</g>
<defs>
<clipPath id="clip0_3040_79">
<rect width="50" height="40" fill="white"/>
</clipPath>
</defs>
</svg>
