<svg width="7" height="12" viewBox="0 0 7 12" fill="none" xmlns="http://www.w3.org/2000/svg">
<path d="M0.267729 0.26443C0.0963031 0.43378 0 0.663445 0 0.902916C0 1.14239 0.0963031 1.37205 0.267729 1.5414L4.79362 6.01152L0.267729 10.4816C0.106416 10.6528 0.0186045 10.879 0.0227714 11.1128C0.0269383 11.3466 0.122759 11.5697 0.290071 11.7351C0.457384 11.9006 0.683143 11.9955 0.919848 11.9998C1.15655 12.0042 1.38575 11.9177 1.55921 11.7586L6.73227 6.65071C6.9037 6.48136 7 6.25169 7 6.01222C7 5.77275 6.9037 5.54308 6.73227 5.37373L1.56064 0.26443C1.38917 0.0951162 1.15664 0 0.914184 0C0.671724 0 0.439192 0.0951162 0.267729 0.26443Z" fill="#F59900"/>
</svg>
