<svg width="50" height="40" viewBox="0 0 50 40" fill="none" xmlns="http://www.w3.org/2000/svg">
<g clip-path="url(#clip0_3040_96)">
<path d="M10.5117 0.0440434C9.70312 0.150368 9.14844 0.524337 8.80859 1.18795C8.58984 1.61691 8.49609 1.97988 8.37891 2.84148C8.23438 3.90472 8.17578 4.08071 7.91797 4.21636C7.82031 4.26769 7.80859 4.26402 7.72656 4.18703C7.64453 4.11004 7.63672 4.07337 7.63672 3.69207C7.64062 3.46842 7.65625 3.08346 7.67969 2.84148C7.72266 2.34652 7.69531 2.04954 7.58203 1.74523C7.43359 1.3456 7.06641 0.986298 6.67969 0.861642L6.50391 0.80298L6.27344 1.03396C5.57812 1.73424 5.27734 2.44551 5.38672 3.13112C5.45312 3.54908 5.57031 3.85339 5.92578 4.49134C6.70703 5.89556 6.83594 6.21086 6.83594 6.69849C6.83594 7.12012 6.68359 7.25211 6.36719 7.10179C6.13672 6.9918 5.88672 6.63983 5.64844 6.08621C5.19141 5.02663 4.58203 4.42901 3.80859 4.28969C3.67969 4.26769 3.49609 4.25303 3.39844 4.26036L3.22656 4.27136L3.10156 4.64533C2.87109 5.33094 2.83203 5.56558 2.83203 6.28786C2.83203 6.81215 2.84766 6.99546 2.90234 7.18611C3.20703 8.2017 4.00781 8.96797 5.29297 9.47393C5.94531 9.73057 6.19922 9.85523 6.35938 9.98722C6.70703 10.2842 6.74219 10.6765 6.42969 10.7975C6.19141 10.8928 5.86328 10.7572 5.34766 10.3649C4.23047 9.51059 3.94922 9.30894 3.65234 9.14395C2.90234 8.71499 2.37109 8.60133 1.86719 8.75898C1.4375 8.89464 0.816406 9.29427 0.242188 9.80756L-0.00390625 10.0275L0.230469 10.4528C0.921875 11.7287 1.60938 12.3264 2.65625 12.572C3.18359 12.693 3.85547 12.7333 4.96094 12.7113C5.50781 12.7003 6.03906 12.704 6.14453 12.7223C6.43359 12.7773 6.98828 13.0193 7.16016 13.1696C7.30078 13.2943 7.3125 13.3199 7.29297 13.4409C7.26562 13.5912 7.17969 13.6939 7.02344 13.7709C6.83594 13.8626 6.65234 13.8332 6.21484 13.6426C5.37109 13.2759 4.77734 13.1256 4.17188 13.1256C3.75781 13.1256 3.40625 13.1989 3.20312 13.3236C3.125 13.3713 2.96875 13.4556 2.85547 13.5106C2.45312 13.6976 2.07031 14.1229 1.74219 14.7278C1.60547 14.9881 1.38672 15.5418 1.41406 15.5674C1.46875 15.6187 3.60156 16.5867 3.83203 16.6637C4.58594 16.9203 5.21484 16.968 5.72656 16.814C5.83203 16.7846 5.89844 16.913 5.89844 17.144C5.89844 17.3419 5.84766 17.4446 5.53906 17.8296C5.40625 17.9945 5.27734 18.1815 5.25 18.2475C5.01562 18.7682 5.69531 19.9194 6.58984 20.5207C6.83203 20.682 6.83594 20.6893 6.76953 20.759C6.65625 20.8763 6.67969 21.0926 6.82422 21.2356C6.98047 21.3933 7.03125 21.4886 7.03125 21.6426C7.03125 21.7782 6.94922 21.8699 6.79688 21.9066C6.59766 21.9506 6.375 21.6792 6.23438 21.2209C6.19922 21.111 6.13281 20.9863 6.08984 20.9496C6.01562 20.8873 6.01172 20.8873 5.93359 20.9606C5.83203 21.056 5.79688 21.3199 5.86719 21.4446C5.89453 21.4959 5.98047 21.5656 6.05469 21.6059C6.22266 21.6939 6.25 21.7306 6.25 21.8699C6.25 22.0459 6.05469 22.2182 5.86328 22.2182C5.69141 22.2182 5.35156 21.8039 5.35156 21.5912C5.35156 21.5179 5.23047 21.4116 5.14844 21.4116C5.05859 21.4116 4.96094 21.5363 4.93359 21.6829C4.90625 21.8442 5 21.9982 5.12891 21.9982C5.25781 21.9982 5.39062 22.1449 5.39062 22.2805C5.39062 22.4785 4.97266 22.7315 4.65234 22.7315C4.35938 22.7315 4.14844 22.4528 4.21875 22.1595C4.26172 21.9799 4.1875 21.7636 4.08203 21.7489C4.03125 21.7416 3.95312 21.7892 3.86719 21.8699C3.73438 21.9982 3.73438 22.0019 3.73047 22.3612C3.72656 22.7132 3.72656 22.7242 3.60156 22.8561C3.37891 23.0981 3.38672 23.2301 3.65625 23.6261C3.79688 23.8351 3.82812 23.9121 3.82812 24.055C3.82812 24.275 3.91797 24.3447 4.20312 24.3447C4.3125 24.3447 4.45703 24.363 4.51953 24.3813L4.63672 24.4217L4.39453 24.649C4.26172 24.7773 4.10547 24.9606 4.05469 25.0596C3.87109 25.4006 3.75 25.9469 3.75 26.4308C3.75 26.6508 3.73828 26.6948 3.67188 26.7278C3.58594 26.7718 3.41797 27.0285 3.38281 27.1788C3.3125 27.4574 3.5625 27.7874 3.89453 27.8607C4.05469 27.8974 4.13672 27.8937 4.35938 27.8461C4.50781 27.8131 4.66406 27.7947 4.70703 27.8057C4.83984 27.8387 4.98438 28.0147 5.11719 28.3044C5.18359 28.4547 5.26562 28.616 5.29688 28.6637C5.35547 28.7443 5.34766 28.759 5.21875 28.9203C5.07812 29.0853 5.04297 29.1696 4.96484 29.5509C4.9375 29.6646 4.88672 29.8039 4.84766 29.8662C4.78125 29.9652 4.74609 29.9835 4.54688 30.0019C4.20703 30.0385 4.04297 30.0899 3.86328 30.2219C3.63281 30.3868 3.55469 30.5445 3.55469 30.8341C3.55469 31.3108 3.87109 31.7214 4.60156 32.1907C4.80469 32.319 5.09375 32.5353 5.24609 32.6747L5.52734 32.924L5.43359 32.9973C5.30469 33.1036 5.03125 33.0963 4.82422 32.9826C4.72656 32.9276 4.44141 32.6527 4.11328 32.2934C3.53906 31.6664 3.29297 31.4611 2.90625 31.2741C2.625 31.1421 2.40234 31.1311 2.15625 31.2411C1.89844 31.3584 1.82812 31.4941 1.85938 31.7947C1.88281 32.033 1.87891 32.0404 1.77344 32.1064C1.6875 32.1577 1.58594 32.1724 1.32812 32.1724C1.14062 32.176 0.957031 32.1944 0.910156 32.22C0.796875 32.2787 0.703125 32.4473 0.703125 32.5903C0.703125 32.704 0.867188 32.924 0.953125 32.924C1.05859 32.924 1.17188 33.1 1.23438 33.3493C1.34766 33.8296 1.375 33.8956 1.50391 34.0092C1.64062 34.1302 2.08594 34.3465 2.40234 34.4455C2.75781 34.5555 3.16406 34.6105 3.65234 34.6105C4.17188 34.6105 4.58984 34.5518 5.04297 34.4088C5.20312 34.3612 5.29688 34.3392 5.25781 34.3648C5.11719 34.4492 4.74609 34.7315 4.53125 34.9221C4.41406 35.0248 4.26953 35.1238 4.20703 35.1385C4.08203 35.1678 3.89062 35.0871 3.82812 34.9771C3.78125 34.8965 3.67188 34.8818 3.60156 34.9478C3.55078 34.9955 3.53516 35.1934 3.58594 35.2008C3.60156 35.2044 3.67578 35.2118 3.75391 35.2154C3.96484 35.2264 4.02344 35.2594 4.02344 35.3584C4.02344 35.4611 3.85938 35.6004 3.73438 35.6004C3.69141 35.6004 3.5625 35.5601 3.45703 35.5124C3.23828 35.4171 3.08594 35.4354 3.08594 35.5564C3.08594 35.7031 3.28125 35.7874 3.4375 35.7104C3.63672 35.6114 3.71094 35.8607 3.53516 36.0257C3.42969 36.1247 3.35156 36.1284 2.92188 36.055C2.78906 36.033 2.77344 36.0404 2.75 36.132C2.71094 36.286 2.8125 36.363 2.98047 36.3044C3.24219 36.2164 3.32031 36.275 3.22266 36.495C3.05078 36.8836 2.62891 37.0486 2.49219 36.781C2.46094 36.726 2.40234 36.6783 2.35156 36.671C2.28125 36.66 2.25 36.6857 2.20703 36.7883C2.13281 36.9496 2.12891 36.924 2.26953 37.089C2.36719 37.2063 2.38672 37.2576 2.37109 37.3639C2.34375 37.5582 2.39453 37.6096 2.63672 37.6352C2.76562 37.6536 2.87109 37.6866 2.91406 37.7306C3.00781 37.8296 3.08203 37.8186 3.27734 37.6719C3.37109 37.6022 3.46875 37.5436 3.49609 37.5436C3.57031 37.5436 3.67969 37.4079 3.66406 37.3383C3.65625 37.3016 3.55469 37.2209 3.4375 37.1586C3.24219 37.056 3.22266 37.034 3.21094 36.9093C3.18359 36.6087 3.40625 36.2494 3.57422 36.3117C3.62109 36.3264 3.63281 36.3777 3.625 36.5243L3.61328 36.7187H3.75C3.86719 36.7187 3.88672 36.704 3.89844 36.6233C3.90625 36.5647 3.86719 36.484 3.78906 36.3923C3.63281 36.2017 3.62891 36.0367 3.78516 35.8901C3.94922 35.7361 4.00781 35.7507 4.03125 35.9487C4.04297 36.0404 4.07422 36.1394 4.10156 36.1687C4.16797 36.2457 4.32422 36.2384 4.37109 36.1577C4.41016 36.0844 4.37891 36.011 4.23047 35.8461C4.10156 35.6994 4.11719 35.6224 4.30859 35.4794C4.85547 35.0688 5.8125 34.6985 6.74219 34.5372C7.28125 34.4455 7.48438 34.3575 7.5625 34.1852C7.63672 34.0165 7.60547 33.8662 7.46875 33.7636C7.375 33.6976 7.33203 33.6902 7.08984 33.7122C6.77734 33.7379 6.32031 33.8479 6.03516 33.9652C5.85938 34.0385 5.82812 34.0422 5.72656 33.9945C5.62891 33.9469 5.54688 33.9469 5.17188 33.9872C4.43359 34.0679 3.74219 33.9505 3.51562 33.7086C3.35547 33.5363 3.35938 33.4043 3.53516 33.2613C3.76953 33.067 4.01953 33.0633 4.84375 33.2503C5.08984 33.3089 5.45703 33.3823 5.65234 33.4189C5.98828 33.4776 6.01953 33.4813 6.11328 33.4226C6.19141 33.3749 6.21094 33.3309 6.21094 33.2099C6.21094 33.0523 6.18359 33.0193 5.65234 32.561C5.49609 32.429 5.44531 32.2714 5.48438 32.066C5.51953 31.8901 5.62891 31.8167 5.90234 31.7801C6.03516 31.7654 6.19141 31.7214 6.25781 31.6884C6.39844 31.6077 6.52344 31.4281 6.52344 31.2998C6.52344 31.2484 6.56641 31.1604 6.61719 31.1018C6.69141 31.0211 6.74219 30.9991 6.86719 31.0028C6.95312 31.0065 7.07422 31.0395 7.14062 31.0761C7.33984 31.1861 7.36328 31.2851 7.30469 31.8351C7.25391 32.3447 7.24219 32.8983 7.28516 32.9606C7.31641 33.012 7.43359 33.0083 7.49219 32.9533C7.51953 32.9276 7.53906 32.7993 7.53906 32.638C7.53906 32.297 7.61719 32.0404 7.96484 31.2631C8.21484 30.6985 8.32422 30.3942 8.375 30.0972C8.40234 29.9542 8.375 29.9652 8.85938 29.8919C9.0625 29.8626 9.24609 29.9139 9.39453 30.0422C9.46875 30.1082 9.53125 30.1815 9.53125 30.1999C9.53125 30.2219 9.45703 30.2842 9.36719 30.3392C8.9375 30.6068 8.44922 31.1494 8.21484 31.6261C7.95703 32.154 7.82031 32.9423 7.94531 33.1733C8.02734 33.3236 8.13672 33.3786 8.24219 33.3273C8.32812 33.2833 8.39844 33.1769 8.39844 33.0926C8.39844 32.9496 8.57422 32.616 8.74219 32.4437C8.95312 32.22 9.16797 32.121 9.42188 32.1174C9.57812 32.1174 9.61719 32.132 9.70312 32.231C9.82031 32.3593 9.83594 32.561 9.75 32.759C9.69531 32.8763 9.69922 32.891 9.76172 32.9203C9.83984 32.9606 9.97266 32.9093 10.1836 32.7553C10.3516 32.6343 10.5586 32.5573 10.6914 32.561C10.75 32.561 10.8789 32.6087 10.9766 32.6637C11.125 32.748 11.1641 32.7956 11.2227 32.9606C11.3477 33.3089 11.2695 33.3969 10.7266 33.5069C10.4961 33.5509 10.3555 33.6022 10.293 33.6572C10.2383 33.7049 10.1953 33.7526 10.1953 33.7636C10.1953 33.7746 10.25 33.8149 10.3125 33.8479C10.4766 33.9359 10.4688 34.0679 10.293 34.2329C10.1602 34.3575 10.1445 34.3612 9.94922 34.3429C9.83594 34.3282 9.61328 34.2769 9.45703 34.2255C9.17188 34.1375 8.9375 34.1119 8.76172 34.1559C8.71094 34.1705 8.67188 34.1925 8.67188 34.2072C8.67188 34.2255 8.78906 34.3099 8.9375 34.4015C9.83984 34.9551 10.75 35.2704 11.4609 35.2704C12.3125 35.2668 12.9336 34.9845 13.0977 34.5188L13.1523 34.3722L13.7344 34.3502C14.2383 34.3282 14.5664 34.2842 14.9609 34.1852C15.0352 34.1669 15.0078 34.1962 14.8633 34.3062C14.7578 34.3868 14.6172 34.5078 14.5508 34.5738C14.2969 34.8268 14.0898 34.8561 13.8828 34.6655C13.7695 34.5592 13.7344 34.5445 13.6719 34.5738C13.5664 34.6252 13.543 34.6728 13.5703 34.7791C13.5938 34.8561 13.6172 34.8671 13.7812 34.8671C14.0664 34.8671 14.1406 34.9808 13.9648 35.1421C13.8477 35.2558 13.6914 35.2594 13.4375 35.1568C13.2148 35.0688 13.125 35.0835 13.125 35.2118C13.125 35.3364 13.2617 35.4208 13.3867 35.3768C13.5273 35.3254 13.6328 35.3364 13.6602 35.4024C13.6992 35.4978 13.5742 35.6957 13.4336 35.7471C13.3242 35.7911 13.2852 35.7874 13.125 35.7361C13.0234 35.7031 12.9102 35.6737 12.8789 35.6737C12.7852 35.6737 12.7227 35.8057 12.7734 35.8901C12.8281 35.989 12.8945 36.0037 13.0195 35.9414C13.1562 35.8791 13.2812 35.9121 13.2812 36.011C13.2812 36.0917 13.1289 36.3703 13.082 36.3703C13.0703 36.3703 13.0352 36.319 13.0078 36.2604C12.9336 36.088 12.6719 35.8681 12.4023 35.7471C12.2148 35.6627 11.9805 35.6077 11.457 35.5271C10.2109 35.3291 9.32031 35.0395 8.79297 34.6618C8.62891 34.5408 8.46484 34.5005 8.42188 34.5702C8.38672 34.6215 8.69922 35.0321 8.91016 35.2118C9.14453 35.4098 9.46484 35.6114 9.89453 35.8277C10.3008 36.0294 10.5078 36.2127 10.5078 36.363C10.5078 36.5243 10.4727 36.5867 10.3477 36.6453C10.1211 36.759 9.86719 36.7003 9.51172 36.462C9.37109 36.3667 9.28516 36.3337 9.19922 36.341C9.09375 36.352 9.07812 36.3667 9.04297 36.5427C9.02344 36.649 8.97266 36.7626 8.9375 36.7956C8.83594 36.891 8.66016 36.803 8.43359 36.5463C8.08594 36.154 7.92188 35.7434 7.91406 35.2558C7.91016 35.0688 7.89453 34.9588 7.86328 34.9515C7.71484 34.9038 7.63672 36.088 7.75 36.682C7.87891 37.3529 8.10156 37.7746 8.54297 38.1705C8.82031 38.4235 9.00781 38.5298 9.37109 38.6472C9.65234 38.7388 9.75 38.7352 9.99219 38.6215C10.1758 38.5372 10.4297 38.2915 10.4805 38.1559C10.4883 38.1302 10.5938 38.2035 10.7109 38.3172C10.832 38.4308 11.0312 38.5702 11.1602 38.6288C11.4648 38.7718 11.9062 38.7791 12.2188 38.6472C12.6797 38.4528 12.8906 37.9762 12.6953 37.5766C12.6523 37.4886 12.6172 37.3859 12.6172 37.3493C12.6172 37.2613 12.7773 37.2686 12.9023 37.3603C13.0391 37.4629 13.1172 37.4519 13.3164 37.3053C13.4102 37.2356 13.5117 37.1769 13.5391 37.1769C13.5664 37.1769 13.6172 37.1403 13.6484 37.0963C13.7266 36.99 13.668 36.8946 13.4844 36.8213C13.3008 36.7516 13.2031 36.671 13.2031 36.5867C13.2031 36.396 13.3008 36.1284 13.3984 36.033C13.5586 35.8827 13.6328 35.9267 13.6328 36.1687C13.6328 36.374 13.6719 36.418 13.8203 36.3813C13.9805 36.3447 13.9609 36.2127 13.7617 35.989C13.6445 35.8571 13.6602 35.6774 13.793 35.5418C13.8906 35.4428 14.0859 35.4171 14.0508 35.5051C14.0195 35.5784 14.0898 35.8021 14.1602 35.8571C14.207 35.8937 14.2422 35.8937 14.3164 35.8644C14.4453 35.8094 14.4414 35.7031 14.3047 35.5564C14.1484 35.3878 14.1328 35.3254 14.2188 35.2228C14.3203 35.1055 14.8594 34.7791 15.1914 34.6398C15.582 34.4712 16.2188 34.2879 16.7461 34.1889C17.0078 34.1412 17.2891 34.0679 17.375 34.0275C17.625 33.9066 17.6992 33.6206 17.5195 33.4556C17.4414 33.3786 17.3867 33.3639 17.1992 33.3639C16.8867 33.3639 16.5039 33.4483 16.1133 33.5986C15.8633 33.6939 15.7422 33.7196 15.6445 33.7049C15.5703 33.6939 15.3438 33.7049 15.1445 33.7306C14.8672 33.7636 14.6953 33.7636 14.4141 33.7342C14.0898 33.6976 13.6719 33.6022 13.6719 33.5656C13.6719 33.5582 13.7148 33.4703 13.7695 33.3713C13.8242 33.2686 13.8789 33.111 13.8906 33.0193L13.918 32.8506H14.0781C14.1641 32.8506 14.4219 32.8946 14.6484 32.946C14.875 32.9973 15.2695 33.078 15.5234 33.1256C16.0469 33.2283 16.1562 33.2099 16.2227 33.023C16.2773 32.869 16.1523 32.682 15.8281 32.4363C15.6016 32.264 15.5391 32.1944 15.5039 32.0697C15.4258 31.7947 15.5742 31.5308 15.8125 31.5308C15.9961 31.5308 16.2539 31.4464 16.3633 31.3511C16.4297 31.2924 16.5 31.1714 16.5391 31.0431C16.6172 30.7901 16.7305 30.7058 16.9375 30.7352C17.2773 30.7865 17.3789 30.9515 17.3359 31.3731C17.2422 32.3154 17.2578 32.7407 17.3906 32.7407C17.5312 32.737 17.5586 32.671 17.5625 32.3483C17.5664 31.9707 17.6367 31.7434 17.9531 31.0578C18.1719 30.5922 18.3359 30.1485 18.3789 29.9102C18.4062 29.7819 18.4141 29.7746 18.6055 29.7526C19.2617 29.6719 19.8594 29.4189 20.8203 28.8176C21.7539 28.2274 22.2461 28 22.7266 27.9231C23.1953 27.8461 23.25 27.8204 23.2344 27.6701C23.2227 27.5637 23.2109 27.5527 23.0664 27.5418C22.8281 27.5198 22.4297 27.5967 21.6602 27.8131C20.9023 28.0294 20.6875 28.0697 20.5312 28.033C20.375 27.9964 20.168 27.8021 20.0977 27.6297C20.0391 27.4868 20.0391 27.4611 20.0938 27.3401C20.1406 27.2264 20.1992 27.1824 20.4492 27.0725C20.6914 26.9625 20.7578 26.9148 20.8438 26.7791C20.9688 26.5775 21 26.3795 20.9414 26.1559C20.9023 26.0092 20.9062 25.9689 20.9688 25.8516C21.0625 25.6756 21.3125 25.5546 21.5898 25.5546C21.8477 25.5546 21.9922 25.6096 22.2891 25.8186C22.7578 26.1522 23.0977 26.2512 23.3555 26.1229C23.6406 25.9872 23.5664 25.7709 22.7812 24.429C22.3867 23.7507 22.2891 23.5088 22.3164 23.2741C22.3633 22.9185 22.5312 22.7315 22.8125 22.7315C23.207 22.7315 23.4805 23.0065 23.7891 23.7177C23.9688 24.132 23.9961 24.2274 24.043 24.6453C24.1211 25.3236 24.2812 25.6132 24.4297 25.3419C24.4609 25.2833 24.5273 25.0486 24.5742 24.8176C24.707 24.1907 24.6953 23.3621 24.543 22.7718C24.5234 22.6912 24.5273 22.6912 24.6133 22.7352C24.668 22.7645 24.8633 22.7865 25.1016 22.7901C25.3711 22.7938 25.5312 22.8158 25.6133 22.8561C25.875 22.9808 25.9766 23.2374 25.8242 23.3694C25.75 23.4318 25.7383 23.4318 25.5273 23.3328C25.1641 23.1678 24.7266 23.1971 24.7266 23.3914C24.7266 23.5198 24.8398 23.5564 25.3203 23.5747C25.9258 23.6004 25.9375 23.6114 25.8906 24.0734C25.8086 24.8543 25.2617 25.8479 24.4648 26.6655C24.1172 27.0211 23.9062 27.3144 23.9062 27.4501C23.9062 27.6921 24.3789 27.9341 24.7734 27.8901C24.9961 27.8644 25.1172 27.7911 25.4844 27.4611C26.2734 26.7571 26.6797 25.6352 26.5234 24.605C26.4648 24.2164 26.4922 24.1137 26.6953 23.9854C26.7656 23.9414 26.9141 23.8937 27.0273 23.8791L27.2266 23.8571L27.1328 24.0954C27.0117 24.396 26.8555 24.946 26.7969 25.2869C26.7734 25.4336 26.7344 25.5619 26.7148 25.5766C26.6484 25.6132 26.6797 25.7342 26.7656 25.7892C26.8711 25.8589 27.0742 25.8662 27.1406 25.8039C27.168 25.7782 27.1875 25.7196 27.1875 25.6682C27.1914 25.5509 27.3398 25.3603 27.6875 25.0303C28.0078 24.7223 28.3867 24.4803 28.9609 24.2127C29.3125 24.0514 29.4414 24.0074 29.6484 23.9927C29.9453 23.9707 30.0547 24.011 30.1836 24.1944C30.2891 24.341 30.3047 24.5867 30.2148 24.7443C30.1406 24.8873 29.7617 25.2026 29.4375 25.4006C29.2891 25.4923 28.7148 25.7856 28.1562 26.0569C27.1875 26.5335 27.0312 26.6288 27.0312 26.7718C27.0312 26.8635 27.0977 26.8561 27.6406 26.6912C28.3633 26.4748 28.6289 26.4308 29.3164 26.4088C29.8516 26.3905 30.0195 26.4015 30.4492 26.4712C31.1562 26.5848 31.5664 26.5335 32.082 26.2769C32.3828 26.1302 32.7461 25.7599 32.8125 25.5326C32.8789 25.3199 32.8164 25.0523 32.6562 24.8213C32.5898 24.7297 32.5391 24.6197 32.5391 24.572C32.5391 24.4437 32.6719 24.231 32.8672 24.055C33.0977 23.8424 33.1797 23.6187 33.1562 23.2814C33.1172 22.8085 32.793 22.3465 32.3633 22.1595C32.125 22.0532 31.9727 22.0495 31.5234 22.1449C31.082 22.2365 31.0078 22.2109 30.8281 21.8992C30.6445 21.5766 30.5977 21.5473 30.2227 21.5289C29.8242 21.5106 29.5156 21.5766 29.082 21.7746C28.5586 22.0165 27.8906 22.6655 27.5312 23.2814C27.418 23.4758 27.3867 23.5014 27.2852 23.5014C27.207 23.5014 27.0938 23.5528 26.957 23.6481C26.707 23.8241 26.5117 23.8461 26.375 23.7104C26.1523 23.4904 26.3281 23.3144 26.9531 23.1311C27.293 23.0321 27.3438 23.0028 27.3438 22.9111C27.3438 22.8231 27.1992 22.7681 26.9688 22.7681C26.7891 22.7681 26.793 22.7645 26.5234 23.0505C26.418 23.1678 26.2461 23.1605 26.0977 23.0285C25.9375 22.8891 25.9336 22.7278 26.0859 22.5958C26.1992 22.4968 26.4883 22.3649 26.5977 22.3649C26.6992 22.3649 26.8359 22.2585 26.8359 22.1815C26.8359 22.0899 26.6484 21.9982 26.4648 21.9982C26.3125 21.9982 26.1719 22.1009 26.1719 22.2145C26.1719 22.3025 26.0977 22.3575 25.9492 22.3868C25.6641 22.4418 25.3164 21.9066 25.4453 21.6132C25.5234 21.4446 25.7305 21.3603 26.0078 21.3933C26.418 21.4373 26.5859 21.3053 26.375 21.1073C26.2539 20.9973 26.2383 20.99 25.832 20.9716C25.4336 20.9533 25.3984 20.9423 25.2383 20.8323C25.1406 20.7663 25.0195 20.715 24.957 20.715C24.8945 20.715 24.6953 20.7883 24.5156 20.88C24.2617 21.0046 24.1367 21.045 24.0078 21.045C23.9102 21.045 23.8203 21.0633 23.8086 21.0816C23.793 21.1036 23.6055 20.946 23.3906 20.7297C22.8477 20.198 22.8164 20.187 22.1055 20.1944C21.4531 20.2017 21.2695 20.165 21.1055 19.9817C20.9727 19.8314 20.8203 19.7617 20.6211 19.7617C20.3086 19.7617 20.0039 20.0147 19.9961 20.2824C19.9961 20.3264 20.0312 20.4583 20.0742 20.5683C20.1211 20.682 20.1523 20.8616 20.1562 20.9826C20.1562 21.1586 20.1406 21.2099 20.0586 21.2869C19.9766 21.3639 19.9336 21.3749 19.6992 21.3676C19.3945 21.3603 19.2383 21.4189 19.0938 21.5949L19 21.7086L18.8086 21.4226C18.3672 20.7627 18.1523 20.539 17.8125 20.3923C17.6172 20.308 17.5586 20.297 17.1562 20.3044C16.1875 20.319 15.5625 20.5427 14.6367 21.1953C14.2031 21.5033 13.5938 22.0459 13.207 22.4712C12.9375 22.7681 12.9414 22.8048 13.2227 22.8048C13.4219 22.8048 13.6406 22.7095 14.082 22.4382C14.2773 22.3209 14.5078 22.2035 14.5977 22.1815C14.7852 22.1265 14.9961 22.1559 15.125 22.2512C15.207 22.3135 15.2148 22.3502 15.2148 22.6545C15.2188 23.1311 15.2422 23.1495 15.7852 23.1165C16.1367 23.0945 16.2188 23.1018 16.332 23.1531C16.5156 23.2411 16.5977 23.3144 16.6797 23.4648C16.9609 23.9964 16.6055 24.4767 15.9375 24.4657C15.8398 24.462 15.6172 24.429 15.4414 24.385C15.0508 24.2897 14.8516 24.286 14.8164 24.3667C14.8047 24.3997 14.832 24.539 14.875 24.671C14.9766 24.9606 14.9805 25.0706 14.9023 25.2466C14.7773 25.5253 14.2734 25.5949 13.8242 25.3933C13.5469 25.2723 13.4336 25.1549 13.2617 24.8286C13.1133 24.539 12.8398 24.253 12.6758 24.2127C12.4258 24.154 12.3281 24.4693 12.4414 24.957C12.8711 26.7791 14.8867 28.473 16.1914 28.1027C16.3789 28.0514 16.3867 28.0514 16.5156 28.1504C16.8242 28.3777 16.8281 28.3813 16.6211 28.297C16.3477 28.187 15.9102 28.187 15.6523 28.3044C15.3203 28.451 15.082 28.7736 15.0039 29.1879C14.9766 29.3199 14.9141 29.4923 14.8672 29.5729C14.7852 29.7086 14.7734 29.7159 14.5352 29.7416C13.8672 29.8112 13.5195 30.1302 13.5625 30.6288C13.6016 31.0615 13.9062 31.4538 14.5039 31.8497C14.9375 32.132 15.3242 32.4327 15.4297 32.5683L15.5195 32.6783L15.4297 32.748C15.3789 32.7846 15.2812 32.814 15.1875 32.814C14.9023 32.814 14.6992 32.6673 14.1602 32.0624C13.7969 31.6554 13.5156 31.3878 13.2656 31.2154C13.0234 31.0431 12.7344 30.9075 12.6133 30.9075C12.5703 30.9075 12.5391 30.8965 12.5391 30.8781C12.5391 30.8635 12.7617 30.6875 13.0352 30.4858C13.5625 30.0935 13.7891 29.8736 13.9141 29.6426C13.9844 29.5179 13.9922 29.4556 13.9727 29.1843C13.9297 28.6087 13.7148 28.1504 13 27.1311C12.4648 26.3648 12.3555 26.1705 12.1328 25.5729C11.9609 25.1073 11.8672 24.9313 11.793 24.9313C11.7305 24.9313 11.6406 25.1733 11.6406 25.3419C11.6406 25.4923 11.6836 25.6169 12.0078 26.4455C12.1211 26.7352 12.1484 26.8561 12.1484 27.0688C12.1484 27.4941 11.9336 27.8021 11.6367 27.8021C11.5078 27.8021 11.5039 27.7984 10.9883 27.2631C10.7852 27.0541 10.7031 27.0248 10.3398 27.0248C9.42578 27.0285 9.32422 26.4858 10.0273 25.3236C10.1914 25.0523 10.1953 25.0376 10.1367 24.935C9.99609 24.6783 9.74219 24.6123 9.38672 24.7407C9.28125 24.7773 8.96094 24.946 8.67188 25.1146C8.38281 25.2796 8.07422 25.4483 7.98828 25.4886C7.90234 25.5253 7.76562 25.5949 7.67969 25.6426C7.35547 25.8296 6.95312 25.7782 6.70312 25.5179C6.58203 25.3896 6.5625 25.3456 6.5625 25.1843C6.5625 24.9606 6.625 24.8396 6.83984 24.66C7.07031 24.462 7.33594 24.3593 7.85156 24.2677C8.60938 24.1357 8.91406 24.055 9.12891 23.9341C9.24219 23.8681 9.33594 23.8021 9.33594 23.7874C9.33594 23.7544 9.04297 23.6701 8.63672 23.5894C8.21875 23.5014 7.20312 23.5014 6.77734 23.5894C6.17969 23.7104 5.60156 23.9121 5.19141 24.1467C4.94922 24.2824 4.91406 24.2934 4.94141 24.2237C4.95312 24.2017 4.93359 24.088 4.90234 23.978C4.71875 23.3511 4.71875 23.3548 4.76562 23.2264C4.82031 23.0688 5.125 22.7205 5.29297 22.6215C5.42578 22.5445 5.57031 22.5298 5.66016 22.5812C5.76172 22.6398 5.72266 22.8231 5.57422 23.0175C5.39844 23.2374 5.38672 23.3914 5.52734 23.5198C5.64062 23.6297 5.67188 23.6334 5.76172 23.5381C5.82031 23.4758 5.83984 23.3804 5.85547 23.0505C5.875 22.7278 5.89453 22.6142 5.95312 22.5298C6.10547 22.3135 6.28516 22.2292 6.45703 22.2879C6.58594 22.3355 6.62891 22.4602 6.54688 22.5445C6.37109 22.7278 6.30859 23.1898 6.44531 23.3181C6.63672 23.4978 6.76562 23.3364 6.76172 22.9258C6.75781 22.5812 6.80859 22.3649 6.90234 22.2989C7.07422 22.1742 8.05859 22.3575 8.71484 22.6362C9.23438 22.8525 9.98828 23.2924 10.3906 23.6151C10.793 23.9341 10.9453 24.033 11.1641 24.1027C11.4023 24.1834 11.5547 24.1174 11.707 23.8791C11.8008 23.7287 11.8164 23.6627 11.8164 23.4428C11.8164 23.1861 11.8125 23.1751 11.6367 22.9661C11.2383 22.4858 10.4688 22.0239 9.76562 21.8369C9.22656 21.6939 8.89453 21.6572 8.33594 21.6829C8.05859 21.6976 7.75781 21.7122 7.66797 21.7159C7.35547 21.7269 7.16016 21.5069 7.13672 21.1073C7.12891 20.9716 7.12891 20.8616 7.13672 20.8616C7.14453 20.8616 7.27344 20.9203 7.42969 20.9936C8.05078 21.2869 9.31641 21.6022 9.60547 21.5363C9.91016 21.4666 9.80078 21.3163 9.02344 20.726C8.83984 20.5867 8.66016 20.4253 8.62109 20.3667C8.04688 19.4868 7.88281 19.1605 7.875 18.8891C7.87109 18.6398 7.97266 18.4162 8.11328 18.3649C8.375 18.2732 8.75391 18.3539 8.98438 18.5555C9.28125 18.8158 9.70703 19.5198 10.2656 20.6527C10.418 20.9643 10.6055 21.155 10.7617 21.155C10.8164 21.155 10.8594 21.1403 10.8594 21.122C10.8594 21.1036 10.8047 20.935 10.7383 20.7443C10.4453 19.9011 10.3672 19.1568 10.4883 18.2365C10.5742 17.5766 10.5547 17.089 10.4297 16.781C10.332 16.5427 10.0508 16.176 9.83984 16.0147C9.66406 15.8791 9.43359 15.8717 9.00781 15.9817C8.67578 16.066 8.35938 16.0807 8.23047 16.0147C8.18359 15.9927 8.03906 15.8974 7.90625 15.8021C7.76953 15.7031 7.58984 15.6114 7.48438 15.5857L7.30078 15.5454L7.37109 15.4318C7.55078 15.1421 7.92188 14.9295 8.30469 14.8965C8.57031 14.8745 8.62891 14.8415 8.55469 14.7572C8.40234 14.5848 7.75 14.6802 6.99219 14.9808C6.26562 15.2704 5.75781 15.3731 5.03906 15.3768C4.45312 15.3804 4.15234 15.3401 3.83984 15.2118C3.63672 15.1311 3.61719 15.0211 3.78125 14.8818C4.29688 14.4382 5.65625 14.2145 7.00391 14.3502C7.68359 14.4198 7.90234 14.3942 8.08203 14.2219C8.32031 13.9982 8.25391 13.5143 7.91797 13.0486C7.48828 12.4437 6.42578 11.9634 5.17578 11.8057C3.97656 11.6591 3.71484 11.5931 3.11719 11.3034C2.40234 10.9588 1.85156 10.3025 2.15234 10.1522C2.48047 9.98722 4.03516 10.3025 4.89062 10.7095C5.01953 10.7718 5.28906 10.9331 5.48438 11.0725C6.30078 11.6481 6.98828 11.8791 7.40234 11.7177C7.70312 11.5967 7.72266 11.3584 7.48047 10.6802C7.08594 9.57658 6.54688 8.99363 5.3125 8.34102C4.66797 8.00371 4.42969 7.78373 4.20312 7.32544C4.10938 7.13845 4 6.87081 3.96484 6.72782C3.88672 6.42718 3.87109 6.06787 3.93359 6.00921C4.00781 5.93955 4.21875 6.07521 4.64844 6.48584C4.99609 6.81581 5.11328 6.9588 5.41016 7.42443C6.02734 8.38868 6.41797 8.81398 6.77344 8.90931C6.93359 8.94964 6.96484 8.94597 7.11719 8.87631C7.73438 8.59033 7.86719 7.61508 7.47656 6.28786C7.42188 6.10454 7.23828 5.62424 7.06641 5.21361C6.46875 3.78007 6.375 3.23744 6.73047 3.27044C6.96484 3.29244 7.1875 3.7544 7.40234 4.67466C7.53516 5.25028 7.60547 5.44093 7.72266 5.57292C7.90625 5.7819 7.97266 5.7159 8.24219 5.07796C8.8125 3.73607 9.45703 2.70582 10.1133 2.08621C10.3711 1.84423 10.8242 1.53992 10.9258 1.53992C10.9531 1.53992 10.8438 1.65724 10.6797 1.8039C9.61328 2.75715 8.83203 4.26402 8.26562 6.47117C7.96875 7.62241 7.91016 8.09537 7.91406 9.27594C7.91406 10.0679 7.92969 10.3392 7.99609 10.7425C8.25781 12.3227 8.80078 13.7599 9.63672 15.0981C9.8125 15.3768 9.87891 15.4538 9.99219 15.4978C10.2852 15.6114 10.6016 15.4098 10.4531 15.2008C10.3164 15.0028 10.4141 14.8268 10.6797 14.7865C10.8242 14.7645 10.832 14.7718 11.3398 15.2594C12 15.8937 12.0742 15.9267 12.8516 15.9304C13.4336 15.9304 13.6953 15.8717 14.1484 15.6481C14.8281 15.3108 15.5352 14.4492 15.7188 13.7416L15.7422 13.6389L15.4531 13.6609C14.9219 13.7049 14.4258 13.4886 13.7305 12.9056C13.3594 12.5977 13.0859 12.4217 12.7891 12.297C12.0195 11.978 10.832 11.9817 10.2383 12.308C9.84766 12.5207 9.55469 12.649 9.45703 12.649C9.23047 12.649 8.94531 12.3813 8.94531 12.165C8.94531 11.9304 9.18359 11.7177 9.59375 11.5857C9.89062 11.4868 10.0781 11.4941 10.9766 11.6224C12.3711 11.8241 12.9336 11.8424 13.6094 11.7104C14.2383 11.5894 14.6836 11.2411 14.9922 10.6215C15.1914 10.2292 15.3906 9.46293 15.3906 9.09996C15.3906 8.97163 15.3906 8.97163 15.3086 9.04129C15.1719 9.15862 14.7969 9.12929 14.1992 8.9533C13.0547 8.616 12.4844 8.517 11.875 8.55733C11.0508 8.605 10.6172 8.79931 9.82422 9.47393C9.3125 9.90656 8.99609 10.0825 8.72266 10.0825C8.58984 10.0825 8.52734 10.0605 8.44922 9.98722C8.35938 9.90289 8.35156 9.87356 8.37109 9.68657C8.42578 9.11462 8.99219 8.45468 9.57812 8.27869C9.79688 8.2127 9.98047 8.2017 11.2109 8.17603C12.6992 8.1467 12.8359 8.12837 13.2539 7.93405C13.5547 7.79106 13.9688 7.3731 14.1719 7.0138C14.3359 6.72049 14.6875 5.87356 14.6875 5.77457C14.6875 5.74523 14.5938 5.70124 14.4648 5.66457C14.3398 5.63158 13.9844 5.50692 13.6719 5.3896C12.8125 5.06696 12.6406 5.0193 12.2266 4.9973C11.4922 4.95697 10.793 5.24294 9.89844 5.95055C9.51172 6.25486 9.38281 6.31719 9.23438 6.28419C9.10938 6.25486 8.98438 6.10087 8.98438 5.97988C8.98438 5.83323 9.14844 5.53992 9.35938 5.3126C9.70312 4.93864 10.0156 4.72599 10.9375 4.23469C11.75 3.80206 12.0625 3.59308 12.375 3.28144C12.6836 2.9698 12.8945 2.59583 13.0078 2.15587C13.0977 1.8039 13.1055 1.41893 13.0391 0.784648L12.9922 0.341019L12.8164 0.282357C12.1133 0.0513761 11.168 -0.0439492 10.5117 0.0440434ZM11.8555 6.45284C12.0078 6.58483 11.9844 6.72415 11.7891 6.91114C11.5703 7.11279 11.332 7.19345 10.5742 7.31444C9.69531 7.45376 9.42188 7.54175 8.99219 7.81673C8.89844 7.87906 8.8125 7.91572 8.80078 7.90472C8.76172 7.86806 8.94922 7.62974 9.15234 7.45743C9.46875 7.18978 9.85547 6.9478 10.2891 6.74615C11.1406 6.35018 11.6328 6.25853 11.8555 6.45284ZM11.6172 9.78923C11.9531 9.90656 11.9609 10.2219 11.6328 10.5078C11.3594 10.7535 10.9883 10.8488 10.3125 10.8525C9.64844 10.8561 9.17188 10.9698 8.84766 11.2044C8.75 11.2741 8.67188 11.3144 8.67188 11.2961C8.67188 11.2301 9.01953 10.8231 9.26172 10.6142C9.71094 10.2219 10.1992 9.96155 10.7422 9.82956C11.0586 9.7489 11.4609 9.73057 11.6172 9.78923ZM11.6953 13.2686C12.0312 13.3713 12.2969 13.5546 12.3516 13.7196C12.4414 14.0055 12.2812 14.2622 12.0078 14.2622C11.9375 14.2622 11.7656 14.2072 11.625 14.1375C11.125 13.8919 10.8086 13.8369 10.2773 13.8956C10.0781 13.9212 9.87109 13.9286 9.82031 13.9176C9.50391 13.8406 10.0664 13.4116 10.6797 13.2539C10.9727 13.1806 11.4297 13.1843 11.6953 13.2686ZM25.0938 21.9506C25.3281 22.0935 25.5742 22.3209 25.6016 22.4235C25.6719 22.6802 25.418 22.7315 25.0781 22.5298C24.8359 22.3832 24.7383 22.3722 24.5938 22.4785C24.5156 22.5335 24.4883 22.5408 24.4727 22.5042C24.4648 22.4785 24.4102 22.3429 24.3594 22.1999C24.3047 22.0605 24.2695 21.9396 24.2773 21.9322C24.3203 21.8919 24.7188 21.8259 24.8242 21.8406C24.8906 21.8516 25.0078 21.8992 25.0938 21.9506ZM21.3281 23.9964C22.207 24.3887 22.3945 24.4987 22.5742 24.748C22.7188 24.946 22.7422 25.1989 22.625 25.3346L22.5508 25.4189L22.2695 25.2759C22.0039 25.144 21.332 24.682 20.8203 24.286C20.7031 24.1944 20.4844 24.0514 20.3398 23.9707C20.1602 23.8681 20.082 23.8057 20.0938 23.7691C20.1094 23.7397 20.1172 23.6517 20.1172 23.5747V23.4354L20.3242 23.5381C20.4336 23.5967 20.8867 23.8021 21.3281 23.9964ZM9.27344 25.4483C9.36719 25.4886 9.37109 25.4959 9.31641 25.6206C9.21094 25.8516 8.97266 26.1889 8.59375 26.6362C8.04688 27.2778 7.91797 27.4501 7.72266 27.7947C7.51172 28.1614 7.44531 28.418 7.46875 28.7736C7.47656 28.9203 7.47656 29.0376 7.46875 29.0376C7.42969 29.0376 7.12109 28.869 6.93359 28.748C6.8125 28.6673 6.69531 28.5977 6.67188 28.5903C6.65234 28.583 6.69922 28.5133 6.77734 28.4327C7.04688 28.1577 7.35156 27.6811 7.66406 27.0468C7.83203 26.6985 8.03516 26.2952 8.11328 26.1485C8.26562 25.8589 8.50391 25.5839 8.69141 25.4776C8.82422 25.4006 9.125 25.3859 9.27344 25.4483Z" fill="#CDE4EB"/>
<path d="M15.3985 15.4318C14.9961 15.5271 14.9492 15.5674 14.4219 16.2201C14.1641 16.539 13.9844 16.5757 13.7617 16.3484C13.3555 15.9341 12.711 16.0111 12.1406 16.5464C11.1094 17.5143 10.8008 19.0725 11.2891 20.8323C11.461 21.4519 11.5742 21.7453 11.6719 21.8076C11.7539 21.8589 11.7578 21.8552 11.7578 21.7379C11.7578 21.6719 11.7266 21.4849 11.6914 21.3273C11.6367 21.0816 11.6328 20.99 11.6719 20.6783C11.793 19.7251 11.9922 19.2558 12.3516 19.0798C12.5117 18.9992 12.5508 19.0138 12.6524 19.1971C12.7695 19.4025 12.957 19.5418 13.1133 19.5418C13.2539 19.5418 13.3164 19.4794 13.4531 19.2045C13.6719 18.7645 14.2461 18.6692 14.5742 19.0175C14.6836 19.1348 14.6953 19.1678 14.6797 19.3255C14.6602 19.4941 14.6367 19.5234 14 20.1541C13.2266 20.9167 13.0156 21.166 12.832 21.5253C12.707 21.7709 12.5938 22.1412 12.625 22.2182C12.6328 22.2366 12.7149 22.2182 12.8086 22.1779C12.918 22.1339 13.1836 21.9176 13.5508 21.5839C13.8633 21.2943 14.1836 21.0267 14.2578 20.9863C14.332 20.946 14.5625 20.8177 14.7656 20.704C14.9688 20.5904 15.4922 20.341 15.9258 20.1504C16.8867 19.7324 17.1914 19.5748 17.4063 19.3878C18.0664 18.8158 18.0391 17.7783 17.3516 17.3786L17.1953 17.287L17.168 16.9753C17.0977 16.2017 16.8281 15.6738 16.3906 15.4648C16.168 15.3585 15.7656 15.3438 15.3985 15.4318Z" fill="#CDE4EB"/>
<path d="M39.8438 24.1394C38.7031 24.572 38.0156 25.0413 37.6328 25.6499C37.2383 26.2805 37.1211 26.7828 36.9922 28.396C36.9492 28.9423 36.8906 29.4666 36.8594 29.5619C36.7852 29.7929 36.4648 30.2989 36.3203 30.4125C36.1094 30.5775 35.8516 30.5189 35.7266 30.2695C35.6211 30.0569 35.6445 29.9249 35.8672 29.5693C36.1484 29.1073 36.3789 28.6343 36.5078 28.2494C36.6094 27.9561 36.6211 27.8681 36.6211 27.4244C36.6211 26.9478 36.6172 26.9185 36.5 26.6912C36.4375 26.5592 36.3359 26.3612 36.2812 26.2475C36.2266 26.1375 36.0938 25.9542 35.9844 25.8442C35.6484 25.4996 34.8906 25.034 34.4023 24.8727C34.2539 24.825 34.2539 24.825 34.1875 24.935C34.1523 24.9973 33.8867 25.4079 33.5977 25.8442C32.832 27.0065 32.5352 27.6738 32.5234 28.2567C32.5234 28.4034 32.5156 28.5244 32.5156 28.5244C32.5117 28.5244 32.4531 28.4437 32.3828 28.3447C32.2148 28.0917 31.7422 27.6811 31.4219 27.5051C30.4844 26.9808 29.2422 26.8598 27.793 27.1495C27.2266 27.2595 26.3789 27.5234 26.3477 27.5968C26.3125 27.6884 26.3555 27.6994 26.5938 27.6481C27.5 27.4611 28.2812 27.5418 29.0352 27.9084C29.3281 28.0514 29.5312 28.22 29.5312 28.3227C29.5312 28.3997 29.3516 28.517 29.1016 28.6013C28.7734 28.7113 28.7539 28.8873 29.0469 29.1C29.5273 29.4446 29.7266 29.6939 29.7266 29.9469C29.7266 30.2365 29.5625 30.3942 29.2656 30.3942C29.0078 30.3905 28.8047 30.2695 28.4062 29.8772C27.6172 29.1036 26.9375 28.6527 26.293 28.473C25.9961 28.3924 25.9375 28.396 25.9375 28.506C25.9375 28.6013 26.1445 28.814 26.3398 28.9203C26.4844 29.001 27.1953 29.7929 27.4766 30.1925C27.7656 30.6032 28.0703 31.1458 28.3789 31.8057C28.5156 32.1027 28.7031 32.451 28.793 32.5793C28.9648 32.8287 29.3594 33.1953 29.4961 33.2356C29.5547 33.254 29.5664 33.2686 29.5312 33.2906C29.4648 33.3273 29.8281 33.8589 30.0547 34.0532C30.2617 34.2329 30.4102 34.3062 31.0039 34.5225C31.7188 34.7792 31.9297 34.9368 31.8594 35.1531C31.7812 35.3841 31.0508 35.3841 30.5586 35.1458C30.0508 34.9075 29.5273 34.2842 29.1562 33.4776L29.0273 33.2026L28.9414 33.3823C28.8242 33.6353 28.8008 34.1156 28.8828 34.5738C29.0352 35.4024 29.4883 35.8937 30.293 36.0991C30.6445 36.187 31.4414 36.209 31.7695 36.1357C32.2656 36.0257 32.6719 35.7727 32.7188 35.5491C32.7695 35.2778 32.5195 33.9836 32.3438 33.6316C32.2812 33.5069 32.1484 33.3163 32.043 33.2136C31.832 32.9973 31.4336 32.7407 31.3125 32.7407C31.2305 32.737 31.2305 32.737 31.3047 32.6857C31.3984 32.6197 31.5898 32.616 31.957 32.6747C32.2148 32.7113 32.2422 32.7113 32.5 32.6123C32.9648 32.4364 33.1914 32.2017 33.3047 31.7764C33.418 31.3621 33.2852 30.8672 32.9688 30.5262C32.8164 30.3649 32.4375 30.1046 32.1797 29.9872C32.0742 29.9396 31.9922 29.8919 31.9922 29.8772C31.9922 29.8626 32.0352 29.8259 32.0898 29.7929C32.2344 29.7013 32.4922 29.3639 32.5664 29.1623C32.6289 28.9936 32.6328 28.99 32.668 29.0743C32.8867 29.6023 33.1328 29.8956 33.6523 30.2475C34.2148 30.6288 34.3711 30.8598 34.375 31.2961C34.375 31.6151 34.4453 31.7068 34.5586 31.5454C34.6172 31.4611 34.6289 31.3694 34.625 31.0541C34.6211 30.7058 34.6055 30.6252 34.457 30.1925C34.1914 29.4299 34.168 29.2833 34.168 28.561C34.168 27.8681 34.2266 27.5528 34.4258 27.1751C34.5312 26.9735 34.6172 26.9441 34.7539 27.0651C35.1328 27.3914 35.332 28.792 35.1406 29.8259C35.1055 30.0276 35.0508 30.3209 35.0234 30.4785C34.9336 30.9845 35.0625 31.2741 35.4141 31.3474C35.8125 31.4354 36.4375 31.2008 36.8398 30.8085C37.4141 30.2549 37.7734 29.5069 38.0273 28.3227C38.2266 27.4244 38.5273 26.8268 39.043 26.3392C39.2305 26.1632 39.4297 26.0129 39.5391 25.9652C39.7578 25.8699 39.8047 25.8662 39.8984 25.9322C40.1172 26.0826 39.8281 27.1898 39.3164 28.165C39.1289 28.5244 39.0508 28.627 38.5508 29.177C38.0586 29.7159 37.8125 30.1815 37.8125 30.5628C37.8125 30.9771 38.0703 31.0981 38.7109 30.9771C39.9922 30.7388 40.7852 30.2292 41.6133 29.1036C41.8008 28.847 42.0195 28.5757 42.1016 28.5024C42.2734 28.3447 42.7734 28.1137 43.125 28.0331C43.5 27.9414 44.0625 27.9157 44.1562 27.9854C44.2305 28.0367 44.2305 28.0404 44.1484 28.165C44.0586 28.3044 43.7188 28.594 43.3594 28.8433C43.2422 28.9277 42.8359 29.1366 42.4609 29.3126C41.6719 29.6829 41.4336 29.8186 41.1641 30.0569C40.9258 30.2659 40.8594 30.3795 40.8594 30.5885C40.8594 30.8928 41.1953 31.1825 41.707 31.3218C42.3555 31.5014 43.3672 31.4024 44.6484 31.0395C45.6562 30.7498 45.9766 30.6802 46.3906 30.6618C46.7656 30.6435 46.7891 30.6472 46.8477 30.7242C47.0352 30.9735 46.5352 31.1935 45.4688 31.3291C44.5586 31.4428 44.293 31.5198 44.2383 31.6774C44.1992 31.7947 44.2695 31.8497 44.8047 32.0991C46.6641 32.9753 47.8945 33.9066 48.2891 34.7462C48.332 34.8342 48.3594 34.9148 48.3516 34.9222C48.3438 34.9295 48.2422 34.8195 48.125 34.6802C47.2578 33.6353 45.6953 32.7517 43.4219 32.0221C40.3125 31.0248 37.1523 31.2008 34.1133 32.539C33.7695 32.693 33.6641 32.7553 33.6172 32.8433C33.5273 33.0046 33.5391 33.1586 33.6484 33.2796C33.7305 33.3713 33.75 33.3749 33.8438 33.3346C33.9883 33.2723 34.1641 33.2796 34.2344 33.3493C34.3242 33.4299 34.3125 33.6646 34.2188 33.7782C34.1719 33.8332 34 33.9652 33.8359 34.0752C33.0859 34.5738 32.8906 34.9148 32.8906 35.7434C32.8906 36.154 32.957 36.4254 33.1445 36.7993C33.4531 37.4116 34.0508 37.9579 34.7734 38.2769C34.9102 38.3392 35.043 38.3869 35.0703 38.3869C35.1016 38.3869 35.1172 38.3062 35.1172 38.1009C35.1211 37.5913 35.3047 37.2943 36.0508 36.583C36.3516 36.297 36.6055 36.0184 36.7109 35.8571C37.0234 35.3731 37.2227 34.6068 37.168 34.0862C37.1289 33.7049 37.0664 33.5069 36.8828 33.1513C36.6172 32.638 36.6523 32.3924 37.0156 32.2274C37.1328 32.1724 37.2227 32.154 37.3047 32.1724C37.4805 32.209 37.6836 32.4584 37.7812 32.7517C37.8867 33.0816 37.8672 33.2466 37.6172 34.2072C37.3828 35.1055 37.3047 35.5784 37.3047 36.0807C37.3047 36.572 37.3555 36.8397 37.4922 37.1183C37.7852 37.6939 38.4766 38.1229 39.5195 38.3722C39.9023 38.4602 40.0781 38.4822 40.0781 38.4309C40.0781 38.4162 40.0508 38.3722 40.0195 38.3355C39.9062 38.1925 39.9492 37.9909 40.2344 37.3236C40.7617 36.0844 40.9023 35.4941 40.8203 34.8195C40.7461 34.2292 40.5547 33.8259 40.0742 33.265C39.5312 32.6343 39.3477 32.1321 39.5703 31.9047C39.7773 31.6958 40.3711 31.9047 40.8359 32.3484C41.3398 32.8287 41.4102 33.0926 41.3086 34.1375C41.2109 35.1348 41.1914 35.8534 41.25 36.165C41.3125 36.4987 41.4844 36.803 41.7734 37.0926C42.0586 37.3823 42.3984 37.5949 42.9766 37.8516C43.5625 38.1082 43.5898 38.1156 43.6172 38.0312C43.6328 37.9946 43.832 37.5949 44.0625 37.1403C44.5703 36.143 44.6289 35.9634 44.5977 35.4464C44.5664 34.8525 44.3828 34.4309 43.8125 33.6463C43.457 33.1513 43.4258 33.078 43.4844 32.9203C43.6211 32.55 44.1758 32.7553 44.6992 33.3676C44.9648 33.6719 45.0117 33.7526 45.7344 35.1641C46.1992 36.0697 46.6406 36.4914 47.4336 36.7883C47.7305 36.902 48.1992 36.957 48.832 36.957H49.4531L49.5234 36.8177C49.7422 36.4107 49.9531 35.6041 49.9883 35.0321C50.0586 33.8149 49.4883 33.0596 48.1875 32.649C48.0156 32.594 47.5859 32.495 47.2305 32.4254C46.1406 32.2127 45.8789 32.1174 45.7812 31.8937C45.7305 31.7874 45.7344 31.7727 45.8164 31.7104C45.9453 31.6114 46.3281 31.6188 46.9414 31.7288C47.6445 31.8534 47.832 31.8681 48.1641 31.8241C48.5117 31.7764 48.875 31.6298 49.1016 31.4354C49.2773 31.2888 49.4922 30.9698 49.4922 30.8598C49.4922 30.7572 48.7266 30.0642 48.4375 29.9066C47.9102 29.6206 47.3555 29.5326 46.7383 29.6426C46.375 29.7049 45.8867 29.8699 45.0312 30.2219C44.2695 30.5372 43.9531 30.6215 43.4727 30.6398C43.1367 30.6582 43.0391 30.6472 42.9336 30.5995C42.6836 30.4749 42.7031 30.2695 42.9883 30.0312C43.1875 29.8699 43.4297 29.7636 43.9648 29.6059C44.6211 29.4153 45.125 29.166 45.4805 28.8543C45.8789 28.506 46.043 28.2017 46.1133 27.6921L46.1406 27.4978L45.8867 27.3914C44.6523 26.8708 43.3477 26.7608 42.4219 27.1018C41.543 27.4244 40.9062 28.0477 40.2695 29.221C40.0859 29.5546 39.9609 29.7343 39.8047 29.8846C39.4688 30.2035 39.1367 30.2439 38.9531 29.9909C38.7656 29.7306 38.9375 29.4666 39.9141 28.517C40.7422 27.7068 41.0625 27.3328 41.293 26.8928C41.5039 26.4932 41.5547 26.2475 41.4883 25.9506C41.4258 25.6536 41.2617 25.2906 41.0547 24.979C40.8711 24.704 40.3867 24.0881 40.3047 24.0221C40.2656 23.9927 40.1484 24.0221 39.8438 24.1394ZM38.6367 32.3594C39.0508 32.7663 39.3242 33.2026 39.4961 33.7306C39.6211 34.1119 39.6289 34.7132 39.5078 34.9038C39.3086 35.2265 38.8906 35.0908 38.6445 34.6178L38.5352 34.4089L38.5312 33.5839C38.5312 32.6747 38.5117 32.5683 38.2969 32.198L38.1602 31.9634L38.2695 32.0367C38.3281 32.0771 38.4961 32.2237 38.6367 32.3594ZM41.918 32.4547C42.0898 32.5757 42.4531 33.0376 42.6445 33.3859C42.9297 33.8956 43.2031 34.6912 43.2031 34.9955C43.2031 35.1825 43.1016 35.3658 42.9688 35.4171C42.8164 35.4758 42.6484 35.3878 42.5195 35.1788C42.3711 34.9441 42.3164 34.7168 42.2656 34.1046C42.2109 33.4189 42.1094 33.0193 41.9141 32.6747C41.7109 32.3264 41.7148 32.3154 41.918 32.4547ZM35.5352 32.8397C35.6953 33.001 35.8867 33.4263 35.9375 33.7416C36.0273 34.2549 35.8477 34.8122 35.5 35.1055C35.3555 35.2301 35.3242 35.2411 35.168 35.2228C34.9219 35.1971 34.7891 35.0945 34.7734 34.9258C34.7617 34.8158 34.8008 34.7205 34.9805 34.4309C35.2461 33.9946 35.332 33.6683 35.2969 33.2503C35.2734 32.9753 35.3203 32.7407 35.3945 32.7407C35.418 32.7407 35.4805 32.7847 35.5352 32.8397Z" fill="#CDE4EB"/>
<path d="M23.1211 28.2824C23.0664 28.308 22.8906 28.3667 22.7305 28.4107C22.043 28.6013 21.25 29.067 20.7266 29.5913L20.457 29.8552L20.207 29.8479C19.8516 29.8369 19.5977 29.9212 19.2539 30.1669C18.8516 30.4602 18.5117 30.8525 18.2813 31.2925C18.0703 31.6884 17.9961 31.9194 17.9297 32.3777C17.8789 32.7113 17.8984 32.8397 18.0117 32.979C18.1602 33.1513 18.3633 33.0706 18.4141 32.814C18.5234 32.231 19.1719 31.7141 19.582 31.8754C19.6602 31.9047 19.7383 31.9597 19.7617 32.0001C19.8242 32.1064 19.8164 32.396 19.7461 32.517C19.7148 32.5757 19.7031 32.6307 19.7148 32.6453C19.7656 32.693 19.9531 32.6637 20.0508 32.594C20.168 32.506 20.2109 32.5024 20.2734 32.5757C20.3711 32.6857 20.8438 32.9716 21.0313 33.034C21.2109 33.0963 21.2188 33.1 21.1367 33.1403C21.0898 33.166 20.918 33.21 20.7539 33.2393C20.4375 33.2943 20.3008 33.3566 20.2383 33.4666C20.207 33.5179 20.2227 33.5399 20.3164 33.5803C20.4102 33.6169 20.4297 33.6499 20.4297 33.7489C20.4297 33.8406 20.3984 33.8956 20.2852 33.9872C20.1172 34.1266 20.0195 34.1229 19.5078 33.9726C19.207 33.8809 18.9375 33.8552 18.7617 33.8992C18.7109 33.9139 18.6719 33.9322 18.6719 33.9469C18.6719 33.9909 19.2773 34.3392 19.7031 34.5372C20.4727 34.9002 21.0352 35.0321 21.6406 35.0028C22.0938 34.9808 22.3203 34.9222 22.6484 34.7572L22.8633 34.6472L23.1328 34.8855C23.9922 35.6481 25.3594 35.6958 26.0117 34.9808C26.418 34.5335 26.582 34.4052 27.0391 34.1742C27.6211 33.8772 27.7578 33.7709 27.8945 33.4959C28.0547 33.177 28.0977 32.9313 28.0742 32.4657C28.0352 31.6738 27.7695 31.0945 27.0508 30.2292C26.5664 29.6426 25.5313 28.726 25.4648 28.825C25.3555 28.9826 25.4766 29.3456 25.7695 29.7599C26.1602 30.3025 26.2109 30.4712 26.0781 30.7168C26.0039 30.8525 25.8047 30.9808 25.6719 30.9808C25.6211 30.9808 25.5273 30.9331 25.4648 30.8708C25.3672 30.7828 25.332 30.7682 25.2695 30.7975C25.1172 30.8782 25.0742 31.0285 25.082 31.4868C25.0938 31.9964 25.0586 32.0881 24.7773 32.264C24.6094 32.3667 24.5664 32.3777 24.3672 32.3667C24.0898 32.3484 23.918 32.242 23.7539 31.9854C23.6523 31.8241 23.6328 31.7581 23.6328 31.5601C23.6328 31.3694 23.6602 31.2778 23.7891 31.0175C23.957 30.6802 23.9805 30.5408 23.8828 30.4492C23.8242 30.3979 23.8125 30.3979 23.7539 30.4455C23.5234 30.6435 22.9727 30.7315 22.7695 30.6032C22.6094 30.5005 22.5234 30.2879 22.5469 30.0349C22.5938 29.5693 22.9648 29.1476 23.5859 28.8653C23.8203 28.7553 23.9648 28.6673 23.9922 28.6123C24.0547 28.484 24 28.3557 23.8516 28.2897C23.6875 28.2164 23.2617 28.2127 23.1211 28.2824Z" fill="#CDE4EB"/>
<path d="M18.4375 34.3245C18.4375 34.4125 18.6875 34.7278 18.9414 34.9478C19.0899 35.0798 19.3945 35.2851 19.6485 35.4244C20.3672 35.8168 20.418 35.8497 20.4844 35.9854C20.5703 36.1504 20.5313 36.286 20.375 36.374C20.1524 36.5024 19.875 36.4437 19.5352 36.2017C19.3985 36.1027 19.3281 36.0771 19.2227 36.0844C19.1328 36.0917 19.0781 36.1174 19.0742 36.1504C19.0078 36.6527 18.8633 36.7003 18.5039 36.3374C18.125 35.9524 17.9297 35.4831 17.9297 34.9625C17.9297 34.7975 17.9141 34.6838 17.8906 34.6838C17.7578 34.6838 17.6602 35.5381 17.7266 36.1211C17.8164 36.924 18.0352 37.4116 18.4922 37.8552C18.8399 38.1852 19.332 38.4345 19.6641 38.4345C19.9727 38.4382 20.2422 38.2769 20.4492 37.9726L20.5195 37.8699L20.7461 38.0752C20.8711 38.1889 21.0742 38.3245 21.1992 38.3795C21.7266 38.6105 22.4453 38.4309 22.6797 38.0129C22.711 37.9579 22.7539 37.8332 22.7735 37.7379C22.8086 37.5803 22.8047 37.5289 22.7188 37.3163C22.6055 37.034 22.6172 36.9497 22.7969 36.8507C23.168 36.6417 23.1914 36.0954 22.8399 35.7544C22.5625 35.4831 22.2578 35.3805 21.3867 35.2485C20.7422 35.1495 20.3008 35.0468 19.8242 34.8782C19.461 34.7498 18.9492 34.5152 18.8477 34.4309C18.6875 34.2915 18.4375 34.2256 18.4375 34.3245Z" fill="#CDE4EB"/>
<path d="M27.7148 34.6618C27.5078 34.7462 27.2461 35.0321 27.0547 35.3768C26.8477 35.7544 26.6914 36.1797 26.5 36.902C26.2539 37.8259 26.1445 38.0532 25.9844 37.9616C25.7969 37.8552 25.6836 37.3786 25.75 36.9533C25.8008 36.594 25.9375 36.253 26.2539 35.6848C26.4023 35.4208 26.5234 35.1898 26.5234 35.1751C26.5234 35.1641 26.4453 35.1605 26.3477 35.1715C25.6563 35.2631 25.0547 36.0991 24.9766 37.0853C24.9219 37.7452 25.2109 38.4822 25.7109 38.9441C25.9883 39.2008 26.0859 39.2375 26.2539 39.1568C26.293 39.1348 26.3555 39.0651 26.3906 38.9991C26.4766 38.8415 26.7305 38.5592 27.2109 38.0936C27.8594 37.4593 28.1055 37.1403 28.332 36.627C28.6133 35.9891 28.6211 35.4318 28.3594 34.9221C28.2109 34.6325 27.9961 34.5445 27.7148 34.6618Z" fill="#CDE4EB"/>
<path d="M16.211 35.2924C16.1563 35.318 15.9415 35.4134 15.7344 35.505C14.7305 35.9377 13.8985 36.6563 13.6446 37.3125C13.5391 37.5838 13.5196 37.9578 13.5977 38.1961C13.6485 38.3648 13.7461 38.4344 13.9844 38.4784C14.2305 38.5224 14.2774 38.5811 14.2813 38.8561C14.2852 39.2484 14.2891 39.2594 14.4336 39.4097C14.6446 39.626 14.8829 39.7213 15.2344 39.7213C15.6172 39.725 15.8399 39.626 16.0352 39.373C16.2227 39.1274 16.3008 39.0981 16.629 39.1531C16.9727 39.2154 17.168 39.1677 17.3594 38.9807C17.6954 38.6581 17.8243 38.1375 17.6641 37.7268C17.6211 37.6168 17.5313 37.3822 17.4649 37.2099C17.2852 36.7443 17.2461 36.3849 17.3047 35.791C17.3282 35.5197 17.3399 35.2887 17.3243 35.2777C17.2891 35.241 17.1719 35.3217 17.1211 35.4207C17.0977 35.4684 16.9766 35.813 16.8555 36.187C16.6055 36.9459 16.418 37.3419 16.2071 37.5509C16.0782 37.6792 16.0469 37.6902 15.8633 37.6902C15.5743 37.6902 15.4688 37.5875 15.4688 37.3089C15.4688 37.0632 15.6211 36.5903 15.8125 36.2456C15.9649 35.9706 16.2891 35.6113 16.4336 35.56C16.5586 35.516 16.5821 35.4354 16.5079 35.3254C16.4375 35.2227 16.3594 35.2154 16.211 35.2924Z" fill="#CDE4EB"/>
<path d="M6.1719 35.5633C6.09769 35.6 5.81644 35.7283 5.5469 35.853C4.80081 36.1939 4.23831 36.6229 3.87894 37.1325C3.62894 37.4845 3.543 37.7265 3.53909 38.0931C3.53519 38.5184 3.6055 38.6321 3.92972 38.7347C4.05862 38.775 4.18362 38.8227 4.21097 38.8374C4.24222 38.8557 4.25784 38.9694 4.25784 39.16C4.25784 39.567 4.3555 39.7136 4.75394 39.9043C5.08987 40.0619 5.6719 39.9959 5.88675 39.776C6.28909 39.358 6.27347 39.3653 6.45315 39.391C6.87503 39.4497 6.95706 39.4533 7.08597 39.413C7.26175 39.3617 7.4805 39.1307 7.6094 38.8667C7.69144 38.6981 7.71097 38.6064 7.71097 38.3681C7.70706 38.1078 7.68753 38.0344 7.5469 37.7155C7.31253 37.1912 7.25003 36.8612 7.27737 36.2966C7.293 36.0436 7.31644 35.7686 7.32815 35.6806C7.34769 35.5596 7.34378 35.5266 7.2969 35.5266C7.17972 35.5266 7.1055 35.677 6.8555 36.4249C6.4844 37.5285 6.25784 37.9025 5.92972 37.9611C5.69534 38.0014 5.52347 37.9135 5.46878 37.7265C5.44534 37.6385 5.43753 37.5065 5.44925 37.4222C5.49612 37.1838 5.69144 36.6742 5.82425 36.4542C6.00394 36.1609 6.31253 35.8273 6.41409 35.8126C6.58206 35.7906 6.53909 35.4827 6.37112 35.4937C6.33597 35.4973 6.24612 35.5266 6.1719 35.5633Z" fill="#CDE4EB"/>
</g>
<defs>
<clipPath id="clip0_3040_96">
<rect width="50" height="40" fill="white"/>
</clipPath>
</defs>
</svg>
