<svg width="24" height="22" viewBox="0 0 24 22" fill="none" xmlns="http://www.w3.org/2000/svg">
<g clip-path="url(#clip0_3040_73)">
<path d="M8.60623 0.00926485C8.59123 0.012953 8.51436 0.0258617 8.43748 0.0369262C7.82061 0.136507 7.29561 0.538519 7.13436 1.03458C7.09686 1.15444 7.09498 1.1692 7.12123 1.28722C7.13998 1.38311 7.14186 1.43843 7.12686 1.5288C7.07998 1.81463 6.94498 1.96216 6.39748 2.31807C5.92686 2.62419 5.77123 2.76434 5.66998 2.97641C5.57811 3.16819 5.56686 3.34522 5.62311 3.7288C5.70561 4.29309 5.88561 4.80021 6.18373 5.31102C6.38623 5.65956 6.73498 6.10214 7.09686 6.47096L7.34998 6.72729L7.31248 6.80658C7.25248 6.93567 7.26186 7.05553 7.34061 7.18462C7.41748 7.31002 7.48123 7.49627 7.48123 7.5977C7.48123 7.87062 7.04998 7.95361 6.87936 7.71203C6.77623 7.56819 6.73123 7.31371 6.73123 6.86744C6.73123 6.64615 6.72748 6.62033 6.68811 6.56316C6.66561 6.52812 6.61498 6.48387 6.57748 6.46542C6.51936 6.43408 6.50061 6.43223 6.43686 6.45067C6.28123 6.49677 6.13686 6.707 6.11811 6.91354C6.10498 7.05922 6.15373 7.16802 6.26811 7.24363C6.41623 7.34506 6.47998 7.5018 6.42186 7.62351C6.36373 7.74338 6.10873 7.82821 5.91561 7.79317C5.82748 7.77657 5.69248 7.65486 5.63248 7.53869C5.56498 7.40776 5.53123 7.24179 5.53123 7.02972C5.53123 6.88035 5.52373 6.82133 5.49373 6.7531C5.41686 6.57607 5.24061 6.52997 5.06998 6.64246C4.79061 6.82687 4.79061 7.19753 5.06998 7.31924C5.26686 7.40407 5.30623 7.6604 5.13748 7.76182C5.00248 7.84112 4.52061 7.88353 4.32186 7.83005C4.01436 7.75076 3.86248 7.57557 3.86248 7.30633C3.86248 7.18462 3.86811 7.16434 3.91873 7.10348C4.12498 6.849 4.10248 6.50415 3.87748 6.46358C3.77436 6.44514 3.50248 6.53366 3.40873 6.61664C3.31686 6.69962 3.28123 6.76417 3.20623 7.00759C3.10686 7.32662 3.05061 7.39669 2.80873 7.49443C2.64186 7.56266 2.54436 7.66593 2.51248 7.80608C2.48436 7.9241 2.50498 8.03106 2.63436 8.44229L2.70561 8.66911L2.65311 8.77976C2.56311 8.97892 2.56686 9.08219 2.66623 9.19283C2.73373 9.26844 2.81998 9.31454 3.07873 9.41413C3.27186 9.48605 3.39186 9.55796 3.44061 9.63357C3.50998 9.73684 3.76686 9.76819 3.87748 9.68705C3.90561 9.66677 3.95436 9.60222 3.98436 9.54321L4.04061 9.43441L4.04998 9.01027C4.05936 8.62301 4.06498 8.57691 4.10061 8.51052C4.16436 8.3925 4.25248 8.32427 4.48123 8.21915C4.89561 8.02553 5.15998 7.97573 5.32498 8.05872C5.43373 8.11404 5.46748 8.17121 5.44123 8.25972C5.41311 8.35009 5.36623 8.39066 5.16561 8.49392C4.87311 8.6433 4.81873 8.70231 4.81873 8.86459C4.82061 9.08588 5.00998 9.27397 5.18623 9.23156C5.32123 9.19837 5.52373 8.87934 5.60623 8.56769C5.64936 8.40356 5.71311 8.30583 5.82936 8.22284C6.10686 8.02184 6.54373 8.07163 6.59248 8.30952C6.60373 8.36299 6.59623 8.37037 6.50248 8.42385C6.20811 8.58982 5.97748 8.96601 6.03748 9.1873C6.06561 9.2832 6.19873 9.42335 6.26436 9.42335C6.40498 9.42335 6.53061 9.33483 6.61123 9.17808C6.63748 9.13014 6.69561 8.98445 6.74061 8.85721C6.83248 8.60457 6.86811 8.53818 6.95248 8.45889C7.07061 8.3464 7.20373 8.3759 7.69686 8.61748C8.49748 9.00843 9.20623 9.57456 10.0031 10.4616C10.38 10.8802 10.3987 10.9042 10.7062 11.3504C11.0081 11.7912 11.1225 11.9295 11.3419 12.1157C11.5706 12.3093 11.7019 12.3481 11.925 12.2928C12.2119 12.219 12.4631 11.9848 12.5606 11.6971C12.6187 11.5293 12.6131 11.391 12.5419 11.2176C12.2156 10.4081 11.5237 9.61882 10.6406 9.04531C9.85686 8.53634 9.11811 8.22284 8.42623 8.10482C8.06998 8.04212 7.85623 7.86878 7.79811 7.58848C7.77936 7.49443 7.77936 7.4557 7.80748 7.33952C7.82436 7.26392 7.84498 7.19015 7.85436 7.1754C7.86748 7.15511 7.91436 7.18093 8.07561 7.29711C8.61373 7.68621 9.14998 7.99971 9.78561 8.29661C10.335 8.55294 10.32 8.5474 10.5019 8.5474C10.695 8.5474 10.7437 8.51974 10.7437 8.41094C10.7437 8.27263 10.6162 8.07347 10.2206 7.59216C9.65998 6.90801 9.60186 6.82133 9.53436 6.55947C9.50998 6.46542 9.41811 6.17406 9.32811 5.91035C9.14248 5.35713 9.07498 5.06392 9.07498 4.80943C9.07498 4.44799 9.19873 4.2101 9.48186 4.02385L9.58123 3.95931L9.76311 3.97959C10.1869 4.02754 10.5 4.21564 10.7325 4.56048C10.9481 4.88135 11.0569 5.15428 11.2219 5.79049C11.2875 6.03944 11.3644 6.29946 11.3944 6.37138C11.4694 6.54472 11.4956 6.6609 11.5875 7.18278C11.6869 7.76182 11.7412 7.97942 11.8312 8.16199C11.9156 8.33164 12.0262 8.44413 12.1462 8.47917C12.2287 8.50314 12.3375 8.50868 12.3375 8.48655C12.3375 8.47917 12.3244 8.35746 12.3094 8.21547C12.21 7.27682 12.285 6.29392 12.5137 5.52863C12.5381 5.44564 12.6637 5.14321 12.7931 4.85922C13.2131 3.92611 13.3162 3.58311 13.3181 3.0889C13.32 2.73852 13.26 2.47666 13.1062 2.17607C13.0669 2.10046 12.9994 1.964 12.9562 1.87548C12.8156 1.58965 12.5981 1.42184 12.285 1.35361C12.2156 1.33885 11.9606 1.31857 11.7187 1.3075C11.2012 1.28538 10.9856 1.25587 10.8206 1.18026C10.6256 1.0899 10.5281 1.00692 10.3856 0.807756C10.2112 0.56618 10.1606 0.512702 9.99748 0.383615C9.69561 0.149416 9.32061 0.0221735 8.88748 0.00926485C8.74873 0.00557667 8.62123 0.00557667 8.60623 0.00926485Z" fill="#CDE4EB"/>
<path d="M16.5377 2.90814C16.382 2.93027 16.112 3.00035 15.9658 3.05567C15.4464 3.2493 14.7977 3.6845 14.4283 4.08652C13.5827 5.00856 13.127 6.15005 13.0108 7.63823C12.9695 8.18224 13.0183 9.46204 13.0858 9.58744C13.097 9.60588 13.1308 9.64461 13.1645 9.67042C13.3014 9.78476 13.3277 9.71837 13.3502 9.19649C13.3595 8.97151 13.3727 8.74469 13.3802 8.6949C13.3952 8.58425 13.4383 8.44779 13.472 8.40906C13.487 8.39431 13.5527 8.25785 13.622 8.10663C14.0608 7.13295 14.417 6.67378 14.8595 6.50965C14.987 6.46355 15.2739 6.43773 15.3283 6.46908C15.3508 6.48015 15.3714 6.52625 15.3864 6.59632C15.4164 6.74016 15.497 6.93748 15.5739 7.0555C15.7464 7.32289 15.9658 7.41879 16.1758 7.31921C16.2714 7.27495 16.4195 7.13295 16.4945 7.01678C16.5545 6.92457 16.6877 6.83237 16.8564 6.76967C17.0327 6.70512 17.3139 6.70328 17.5127 6.76782C17.7039 6.82868 17.912 6.96883 18.0227 7.11451C18.3095 7.48517 18.1539 7.86321 17.6345 8.06053C17.5614 8.09004 17.4414 8.14352 17.3702 8.18409C17.2989 8.22281 16.9877 8.38325 16.6783 8.53815C16.0239 8.8664 15.7089 9.04159 15.422 9.23522C14.852 9.61879 14.4902 10.0171 14.3158 10.4542L14.2708 10.5667H14.402C14.6889 10.5667 14.9758 10.4744 15.4595 10.2273C15.6245 10.1425 15.8908 10.006 16.0502 9.92491C16.5039 9.69255 16.7702 9.59666 17.1114 9.54502C17.2033 9.53212 17.3964 9.4897 17.5408 9.45466C18.0433 9.32927 18.4633 9.26288 19.5752 9.13748C20.9833 8.97704 21.452 8.88853 21.797 8.71703C22.472 8.38509 22.8658 7.77654 22.8339 7.1182C22.8152 6.75492 22.6689 6.43958 22.382 6.14637L22.2152 5.97671L22.2545 5.82365C22.4739 4.94033 22.4064 4.14553 22.0708 3.67528C21.7277 3.19766 21.1989 2.99481 20.2783 2.98375C20.0383 2.98191 20.0027 2.98559 19.8695 3.02985C19.6408 3.1073 19.472 3.21057 18.947 3.58677C18.632 3.81175 18.4408 3.88182 18.2664 3.83388C18.1408 3.80068 17.972 3.63103 17.8727 3.43924C17.8089 3.31569 17.7789 3.27696 17.6777 3.2032C17.4152 3.00588 17.072 2.89339 16.7439 2.89708C16.6558 2.89892 16.5639 2.90261 16.5377 2.90814Z" fill="#CDE4EB"/>
<path d="M18.9751 9.59111C18.287 9.71282 17.9438 9.79396 17.4188 9.96177C16.5957 10.2255 15.7857 10.598 14.8988 11.1199C14.567 11.3135 14.5463 11.3301 14.5801 11.3559C14.6645 11.4186 14.8613 11.4942 15.0132 11.52C15.2232 11.5551 15.467 11.5311 15.8157 11.4407C16.6463 11.225 16.6351 11.2268 16.8563 11.2176C16.9895 11.2102 17.1132 11.2158 17.1788 11.2287C17.3326 11.26 17.5051 11.3522 17.6232 11.4629L17.7245 11.5606L17.7113 11.6915C17.7057 11.7635 17.6626 11.935 17.6157 12.0788C17.4901 12.4624 17.5032 12.5804 17.6776 12.6892C17.8032 12.7685 17.9795 12.8164 18.2157 12.8367C18.6095 12.8699 18.8138 12.951 19.022 13.1576C19.2395 13.3715 19.3313 13.5817 19.3313 13.8731C19.3313 14.2106 19.1813 14.4558 18.8907 14.5886C18.7295 14.6642 18.5888 14.6845 18.3451 14.6716C17.9757 14.6513 17.8388 14.6034 17.222 14.2733C16.8057 14.0501 16.7213 14.0151 16.6013 14.0151C16.4495 14.0151 16.4082 14.1073 16.4363 14.3913C16.4645 14.6716 16.4532 14.8763 16.4082 14.9943C16.3257 15.2101 16.1401 15.3502 15.9038 15.3779C15.5045 15.4258 15.0076 15.2322 14.6363 14.8837C14.3776 14.6384 14.2707 14.4411 14.222 14.1202C14.1788 13.8325 14.0776 13.5707 13.9257 13.3512C13.7138 13.0488 13.4963 12.951 13.322 13.0838C13.2432 13.1428 13.112 13.3955 13.0876 13.5393C13.0557 13.7182 13.0445 14.2161 13.067 14.4448C13.142 15.1953 13.4701 16.2188 13.8488 16.8808C14.4432 17.9172 15.1576 18.6456 15.9657 19.0329C16.3557 19.2191 16.6407 19.2892 17.0138 19.2892C17.7563 19.2892 18.4182 19.007 18.9845 18.4501C19.3013 18.1385 19.5245 17.8102 19.6595 17.4562C19.7007 17.3492 19.8001 17.2662 20.0176 17.1556C20.2876 17.0173 20.5688 16.9564 21.272 16.8826C21.5195 16.8568 21.797 16.8236 21.8907 16.807C22.2301 16.748 22.5582 16.6208 22.7476 16.4714C23.2051 16.1118 23.3307 15.9901 23.5332 15.7116C23.7245 15.4479 23.8857 15.0717 23.9645 14.7066C23.9963 14.5609 23.9963 14.0557 23.9663 13.9137C23.8763 13.5024 23.7038 13.1779 23.4263 12.8902C23.2276 12.6855 23.1376 12.4919 22.8076 11.5717C22.4626 10.6072 22.1626 10.1978 21.6132 9.94887C21.4013 9.85297 20.7488 9.68885 20.3251 9.62431C20.0363 9.58005 19.157 9.55976 18.9751 9.59111Z" fill="#CDE4EB"/>
<path d="M4.5376 10.0632C4.20385 10.0872 3.67885 10.172 3.3001 10.2605C3.19135 10.2845 3.02822 10.3195 2.93447 10.3361C2.51822 10.4117 2.14697 10.5832 1.83947 10.8432C1.41572 11.2028 1.1026 11.7284 0.832598 12.538L0.727598 12.8496L0.641348 12.881C0.163223 13.0561 -0.0880271 13.4618 0.0357229 13.862C0.168848 14.2935 0.616973 14.5683 1.18885 14.5683C1.5676 14.5683 1.74197 14.6513 1.86197 14.891C1.91822 15.0054 1.95572 15.1603 2.01572 15.5272C2.0401 15.684 2.07947 15.8702 2.1001 15.9421C2.28197 16.5249 2.78447 16.6835 3.64697 16.4271C4.05385 16.3054 4.4926 16.0583 4.94635 15.6914C5.14322 15.5309 5.84635 14.8394 6.16885 14.4853C6.29822 14.3433 6.5026 14.122 6.62447 13.9929C7.2151 13.366 7.72697 13.0912 8.17135 13.1668C8.32885 13.1926 8.5576 13.2959 8.67197 13.3936L8.74697 13.4563L8.62322 13.5928C8.36072 13.8805 7.99322 14.1644 7.4101 14.5259C6.22885 15.2598 6.0451 15.3908 5.6176 15.8002C5.38135 16.027 5.27072 16.1727 5.15447 16.4032C4.9051 16.9029 4.87322 17.4451 5.06447 17.9116C5.20885 18.2639 5.4751 18.5423 5.84635 18.7267C5.97947 18.795 5.98697 18.795 6.18572 18.7931C6.7501 18.7839 7.07635 18.9886 7.26947 19.4736C7.3051 19.5603 7.37822 19.8147 7.43447 20.0397C7.60697 20.7294 7.66322 20.8677 7.95572 21.2992C8.28572 21.7879 9.07885 22.0793 9.81947 21.9797C10.0632 21.9484 10.2582 21.8912 10.3407 21.8248C10.6745 21.5648 10.9838 21.4209 11.8876 21.113C12.6957 20.8382 12.9713 20.7054 13.3182 20.4233C13.4626 20.3053 13.4945 20.2481 13.5657 19.977C13.637 19.7059 13.6557 19.516 13.6445 19.1509C13.6276 18.546 13.5057 18.0997 13.0313 16.8919C12.5701 15.7172 12.4895 15.4203 12.4313 14.6882C12.3657 13.8786 12.3113 13.6647 12.1688 13.6647C12.0526 13.6647 11.867 13.9229 11.8313 14.1313C11.7938 14.347 11.8182 14.7693 11.897 15.2506C12.0413 16.1432 11.9963 16.5525 11.7132 16.9195C11.597 17.0707 11.4863 17.15 11.312 17.2072C11.0626 17.2883 10.8751 17.2478 10.7251 17.08C10.6801 17.0302 10.5732 16.8494 10.4682 16.6447C10.2601 16.2335 10.157 16.0768 10.0332 15.9661C9.89447 15.8426 9.75947 15.7872 9.53447 15.7577C9.15197 15.7079 8.7676 15.4774 8.64385 15.223C8.58572 15.0994 8.58385 14.8855 8.64197 14.725C8.76197 14.3986 9.05635 14.0483 9.71822 13.4471L10.0145 13.1779L10.0032 13.1041C9.98447 12.9916 9.88885 12.798 9.8101 12.7187C9.65447 12.5582 9.4276 12.4937 9.0751 12.5085C8.77322 12.5214 8.62697 12.5472 7.93135 12.715C7.2901 12.8681 7.10072 12.9049 6.8551 12.9271C6.74635 12.9363 6.63385 12.9603 6.54385 12.9916C6.08072 13.1613 5.48635 12.9861 5.1901 12.597C4.79447 12.0696 5.15072 11.5145 6.0001 11.3356C6.14447 11.3061 6.24572 11.2987 6.54385 11.2987C6.8551 11.2987 6.98635 11.3098 7.43447 11.367C8.0401 11.4463 8.53322 11.4702 8.80135 11.4352C8.96635 11.4131 9.3076 11.3172 9.32635 11.2877C9.33197 11.2803 9.2551 11.2231 9.15385 11.1623C8.1301 10.5408 7.00885 10.1831 5.7376 10.0687C5.5426 10.0521 4.74385 10.0484 4.5376 10.0632Z" fill="#CDE4EB"/>
</g>
<defs>
<clipPath id="clip0_3040_73">
<rect width="24" height="22" fill="white"/>
</clipPath>
</defs>
</svg>
